G04 Layer_Color=32768*
%FSTAX24Y24*%
%MOIN*%
G70*
G01*
G75*
%ADD62C,0.0040*%
%ADD108C,0.0039*%
D62*
X42405Y354415D02*
X424075Y35444D01*
X424125D01*
X42415Y354415D01*
Y354315D01*
X424125Y35429D01*
X424075D01*
X42405Y354315D01*
X424Y35444D02*
X4239D01*
Y354415D01*
X424Y354315D01*
Y35429D01*
X42003Y345173D02*
X420055Y345148D01*
Y345098D01*
X42003Y345073D01*
X41993D01*
X419905Y345098D01*
Y345148D01*
X41993Y345173D01*
X419905Y345223D02*
Y345273D01*
Y345248D01*
X420055D01*
X42003Y345223D01*
X419905Y345448D02*
Y345348D01*
X420005Y345448D01*
X42003D01*
X420055Y345423D01*
Y345373D01*
X42003Y345348D01*
X417049Y34508D02*
X417074Y345105D01*
X417124D01*
X417149Y34508D01*
Y34498D01*
X417124Y344955D01*
X417074D01*
X417049Y34498D01*
X416999Y344955D02*
X416949D01*
X416974D01*
Y345105D01*
X416999Y34508D01*
X416774Y345105D02*
X416874D01*
Y34503D01*
X416824Y345055D01*
X416799D01*
X416774Y34503D01*
Y34498D01*
X416799Y344955D01*
X416849D01*
X416874Y34498D01*
X417188Y346057D02*
X417038D01*
Y345982D01*
X417063Y345957D01*
X417113D01*
X417138Y345982D01*
Y346057D01*
Y346007D02*
X417188Y345957D01*
Y345907D02*
Y345857D01*
Y345882D01*
X417038D01*
X417063Y345907D01*
X417188Y345682D02*
Y345782D01*
X417088Y345682D01*
X417063D01*
X417038Y345707D01*
Y345757D01*
X417063Y345782D01*
X416598Y346018D02*
X416448D01*
Y345943D01*
X416473Y345918D01*
X416523D01*
X416548Y345943D01*
Y346018D01*
Y345968D02*
X416598Y345918D01*
Y345868D02*
Y345818D01*
Y345843D01*
X416448D01*
X416473Y345868D01*
X416598Y345743D02*
Y345693D01*
Y345718D01*
X416448D01*
X416473Y345743D01*
X415771Y345467D02*
Y345616D01*
X415696D01*
X415671Y345592D01*
Y345541D01*
X415696Y345517D01*
X415771D01*
X415721D02*
X415671Y345467D01*
X415621D02*
X415571D01*
X415596D01*
Y345616D01*
X415621Y345592D01*
X415496D02*
X415471Y345616D01*
X415421D01*
X415396Y345592D01*
Y345566D01*
X415421Y345541D01*
X415446D01*
X415421D01*
X415396Y345517D01*
Y345492D01*
X415421Y345467D01*
X415471D01*
X415496Y345492D01*
X416558Y349167D02*
X416708D01*
Y349242D01*
X416683Y349267D01*
X416633D01*
X416608Y349242D01*
Y349167D01*
Y349217D02*
X416558Y349267D01*
X416683Y349317D02*
X416708Y349342D01*
Y349392D01*
X416683Y349417D01*
X416658D01*
X416633Y349392D01*
X416608Y349417D01*
X416583D01*
X416558Y349392D01*
Y349342D01*
X416583Y349317D01*
X416608D01*
X416633Y349342D01*
X416658Y349317D01*
X416683D01*
X416633Y349342D02*
Y349392D01*
X415968Y349167D02*
X416118D01*
Y349242D01*
X416093Y349267D01*
X416043D01*
X416018Y349242D01*
Y349167D01*
Y349217D02*
X415968Y349267D01*
X416118Y349317D02*
Y349417D01*
X416093D01*
X415993Y349317D01*
X415968D01*
D108*
X42378Y354123D02*
X42452D01*
X42378Y354457D02*
X42452D01*
X42378Y354123D02*
Y354457D01*
X42452Y354123D02*
Y354457D01*
X419813Y34486D02*
Y3456D01*
X420147Y34486D02*
Y3456D01*
X419813D02*
X420147D01*
X419813Y34486D02*
X420147D01*
X41665Y344863D02*
X41739D01*
X41665Y345197D02*
X41739D01*
X41665Y344863D02*
Y345197D01*
X41739Y344863D02*
Y345197D01*
X416847Y346401D02*
X417373D01*
X416847Y34528D02*
X417373D01*
X416847D02*
Y346401D01*
X417373D02*
X417373Y34528D01*
X416256Y346401D02*
X416782D01*
X416256Y34528D02*
X416782D01*
X416256D02*
Y346401D01*
X416782D02*
X416782Y34528D01*
X416172Y345282D02*
Y345808D01*
X41505Y345282D02*
Y345808D01*
X416172D01*
X41505Y345282D02*
X416172Y345282D01*
X416374Y348609D02*
X4169D01*
X416374Y349731D02*
X4169D01*
Y348609D02*
Y349731D01*
X416374Y348609D02*
Y349731D01*
X415783Y348609D02*
X416309D01*
X415783Y349731D02*
X416309D01*
Y348609D02*
Y349731D01*
X415783D02*
X415783Y348609D01*
M02*
