G04 Layer_Color=32896*
%FSTAX24Y24*%
%MOIN*%
G70*
G01*
G75*
%ADD57C,0.0080*%
%ADD58C,0.0079*%
%ADD61C,0.0020*%
D57*
X416913Y346569D02*
X417312D01*
Y346769D01*
X417246Y346835D01*
X417113D01*
X417046Y346769D01*
Y346569D01*
Y346702D02*
X416913Y346835D01*
Y346969D02*
Y347102D01*
Y347035D01*
X417312D01*
X417246Y346969D01*
X416913Y347569D02*
Y347302D01*
X417179Y347569D01*
X417246D01*
X417312Y347502D01*
Y347369D01*
X417246Y347302D01*
X416322Y346569D02*
X416722D01*
Y346769D01*
X416655Y346835D01*
X416522D01*
X416455Y346769D01*
Y346569D01*
Y346702D02*
X416322Y346835D01*
Y346969D02*
Y347102D01*
Y347035D01*
X416722D01*
X416655Y346969D01*
X416322Y347302D02*
Y347435D01*
Y347369D01*
X416722D01*
X416655Y347302D01*
X417228Y349876D02*
Y350276D01*
X417028D01*
X416961Y350209D01*
Y350076D01*
X417028Y350009D01*
X417228D01*
X417094D02*
X416961Y349876D01*
X416828Y350209D02*
X416761Y350276D01*
X416628D01*
X416561Y350209D01*
Y350143D01*
X416628Y350076D01*
X416561Y350009D01*
Y349943D01*
X416628Y349876D01*
X416761D01*
X416828Y349943D01*
Y350009D01*
X416761Y350076D01*
X416828Y350143D01*
Y350209D01*
X416761Y350076D02*
X416628D01*
X416125Y349915D02*
Y350315D01*
X415925D01*
X415859Y350249D01*
Y350115D01*
X415925Y350049D01*
X416125D01*
X415992D02*
X415859Y349915D01*
X415725Y350315D02*
X415459D01*
Y350249D01*
X415725Y349982D01*
Y349915D01*
X416125Y345939D02*
Y346339D01*
X415925D01*
X415859Y346272D01*
Y346139D01*
X415925Y346072D01*
X416125D01*
X415992D02*
X415859Y345939D01*
X415725D02*
X415592D01*
X415659D01*
Y346339D01*
X415725Y346272D01*
X415392D02*
X415325Y346339D01*
X415192D01*
X415126Y346272D01*
Y346206D01*
X415192Y346139D01*
X415259D01*
X415192D01*
X415126Y346072D01*
Y346006D01*
X415192Y345939D01*
X415325D01*
X415392Y346006D01*
X417237Y344658D02*
X417303Y344725D01*
X417437D01*
X417503Y344658D01*
Y344391D01*
X417437Y344325D01*
X417303D01*
X417237Y344391D01*
X417103Y344325D02*
X41697D01*
X417037D01*
Y344725D01*
X417103Y344658D01*
X416503Y344725D02*
X41677D01*
Y344525D01*
X416637Y344591D01*
X41657D01*
X416503Y344525D01*
Y344391D01*
X41657Y344325D01*
X416703D01*
X41677Y344391D01*
X42015Y346193D02*
X420217Y34626D01*
X42035D01*
X420417Y346193D01*
Y345927D01*
X42035Y34586D01*
X420217D01*
X42015Y345927D01*
X420017Y34586D02*
X419883D01*
X41995D01*
Y34626D01*
X420017Y346193D01*
X419417Y34586D02*
X419683D01*
X419417Y346127D01*
Y346193D01*
X419483Y34626D01*
X419617D01*
X419683Y346193D01*
X424193Y355093D02*
X42426Y35516D01*
X424393D01*
X42446Y355093D01*
Y354827D01*
X424393Y35476D01*
X42426D01*
X424193Y354827D01*
X42406Y35516D02*
X423794D01*
Y355093D01*
X42406Y354827D01*
Y35476D01*
X389723Y33631D02*
X38999D01*
Y33611D01*
X389857D01*
X38999D01*
Y33591D01*
X38939D02*
Y33631D01*
X38959Y33611D01*
X389324D01*
X437753Y35895D02*
X43802D01*
Y35875D01*
X437887D01*
X43802D01*
Y35855D01*
X437354Y35895D02*
X43762D01*
Y35875D01*
X437487Y358817D01*
X43742D01*
X437354Y35875D01*
Y358617D01*
X43742Y35855D01*
X437553D01*
X43762Y358617D01*
X393863Y35895D02*
X39413D01*
Y35875D01*
X393997D01*
X39413D01*
Y35855D01*
X393464Y35895D02*
X393597Y358883D01*
X39373Y35875D01*
Y358617D01*
X393663Y35855D01*
X39353D01*
X393464Y358617D01*
Y358683D01*
X39353Y35875D01*
X39373D01*
D58*
X416982Y345784D02*
Y345902D01*
X417237Y345784D02*
Y345902D01*
X416391Y345784D02*
Y345902D01*
X416647Y345784D02*
Y345902D01*
X415554Y345673D02*
X415672D01*
X415554Y345417D02*
X415672D01*
X416765Y349108D02*
Y349226D01*
X416509Y349108D02*
Y349226D01*
X416174Y349108D02*
Y349226D01*
X415919Y349108D02*
Y349226D01*
D61*
X423776Y354123D02*
X424524D01*
X423776Y354457D02*
X424524D01*
X423776Y354123D02*
Y354457D01*
X424524Y354123D02*
Y354457D01*
X419813Y344856D02*
Y345604D01*
X420147Y344856D02*
Y345604D01*
X419813D02*
X420147D01*
X419813Y344856D02*
X420147D01*
X416646Y344863D02*
X417394D01*
X416646Y345197D02*
X417394D01*
X416646Y344863D02*
Y345197D01*
X417394Y344863D02*
Y345197D01*
X416834Y346414D02*
X417385D01*
X416834Y345272D02*
X417385D01*
X416834D02*
Y346414D01*
X417385Y345272D02*
Y346414D01*
X416243D02*
X416794D01*
X416243Y345272D02*
X416794D01*
X416243D02*
Y346414D01*
X416794Y345272D02*
Y346414D01*
X416184Y34527D02*
Y345821D01*
X415043Y34527D02*
Y345821D01*
X416184D01*
X415043Y34527D02*
X416184D01*
X416361Y348596D02*
X416913D01*
X416361Y349738D02*
X416913D01*
Y348596D02*
Y349738D01*
X416361Y348596D02*
Y349738D01*
X415771Y348596D02*
X416322D01*
X415771Y349738D02*
X416322D01*
Y348596D02*
Y349738D01*
X415771Y348596D02*
Y349738D01*
M02*
