G04 Layer_Physical_Order=2*
G04 Layer_Color=16711680*
%FSTAX24Y24*%
%MOIN*%
G70*
G01*
G75*
%ADD14R,0.0256X0.0335*%
%ADD15R,0.0335X0.0256*%
%ADD18R,0.0201X0.0217*%
%ADD20R,0.0217X0.0201*%
%ADD22C,0.0400*%
%ADD36C,0.0300*%
%ADD37C,0.0200*%
%ADD38C,0.0100*%
%ADD39C,0.0150*%
%ADD40C,0.0120*%
%ADD42C,0.0591*%
%ADD43R,0.0591X0.0591*%
%ADD44O,0.0700X0.0800*%
%ADD45C,0.1378*%
%ADD46R,0.1575X0.1181*%
%ADD47O,0.1575X0.1181*%
%ADD48C,0.2362*%
%ADD49O,0.1200X0.1100*%
%ADD50O,0.1100X0.1200*%
%ADD51C,0.0700*%
%ADD52R,0.1181X0.1575*%
%ADD53O,0.1181X0.1575*%
%ADD54C,0.0394*%
%ADD55C,0.0236*%
%ADD56C,0.0472*%
G36*
X408835Y347539D02*
X408773Y347497D01*
X408725Y347425D01*
X408708Y34734D01*
X408725Y347255D01*
X408773Y347183D01*
X408777Y34718D01*
Y34338D01*
X408773Y343377D01*
X408725Y343305D01*
X408708Y34322D01*
X408721Y343154D01*
X408689Y343104D01*
X400626D01*
X400607Y343151D01*
X405045Y347589D01*
X408827D01*
X408835Y347539D01*
D02*
G37*
G36*
X424283Y343151D02*
X424264Y343104D01*
X423762D01*
X42058Y346286D01*
X420531Y346319D01*
X420472Y346331D01*
X417374D01*
X417371Y346345D01*
X417349Y346378D01*
X417316Y3464D01*
X417277Y346408D01*
X417096D01*
X416735Y346768D01*
X416686Y346801D01*
X416677Y346803D01*
X416667Y346817D01*
X416595Y346865D01*
X41651Y346882D01*
X416425Y346865D01*
X416353Y346817D01*
X416305Y346745D01*
X416288Y346664D01*
X416283Y346649D01*
X416253Y34662D01*
X41624Y346622D01*
X416155Y346605D01*
X416083Y346557D01*
X416035Y346485D01*
X416018Y3464D01*
X416035Y346315D01*
X416083Y346243D01*
X416155Y346195D01*
X41624Y346178D01*
X41625Y346129D01*
Y34605D01*
X416257Y346011D01*
X416279Y345978D01*
X416313Y345956D01*
X416352Y345948D01*
X416533D01*
X416688Y345792D01*
X416695Y345787D01*
X416689Y345755D01*
X416679Y345738D01*
X416352D01*
X416313Y345731D01*
X416279Y345708D01*
X416257Y345675D01*
X41625Y345636D01*
Y34538D01*
X416257Y345341D01*
X416279Y345308D01*
X416289Y345302D01*
X416299Y345242D01*
X415896Y344838D01*
X415426D01*
X415411Y344888D01*
X415416Y344892D01*
X415465Y344964D01*
X415481Y345049D01*
X415465Y345134D01*
X415432Y345183D01*
Y345281D01*
X415446Y345284D01*
X415479Y345306D01*
X415501Y345339D01*
X415509Y345378D01*
Y345713D01*
X415501Y345752D01*
X415479Y345785D01*
X415446Y345807D01*
X415407Y345815D01*
X415151D01*
X415112Y345807D01*
X415079Y345785D01*
X415057Y345752D01*
X415049Y345713D01*
Y345378D01*
X415057Y345339D01*
X415079Y345306D01*
X415112Y345284D01*
X415126Y345281D01*
Y345222D01*
X415102Y345206D01*
X415054Y345134D01*
X415037Y345049D01*
X415054Y344964D01*
X415102Y344892D01*
X415107Y344888D01*
X415092Y344838D01*
X413437D01*
X41339Y3449D01*
X41332Y344954D01*
X413238Y344988D01*
X41315Y344999D01*
X413062Y344988D01*
X41298Y344954D01*
X41291Y3449D01*
X412856Y34483D01*
X412822Y344748D01*
X412811Y34466D01*
X412822Y344572D01*
X412856Y34449D01*
X41291Y34442D01*
X41298Y344366D01*
X413062Y344332D01*
X41315Y344321D01*
X413238Y344332D01*
X41332Y344366D01*
X41339Y34442D01*
X413437Y344482D01*
X41597D01*
X416038Y344495D01*
X416096Y344534D01*
X416645Y345083D01*
X416645Y345083D01*
X416684Y345141D01*
X416697Y345209D01*
X416697Y345209D01*
Y345281D01*
X416725Y345286D01*
X416758Y345308D01*
X416773Y34533D01*
X416856D01*
X41687Y345308D01*
X416903Y345286D01*
X416942Y345278D01*
X417019D01*
Y345204D01*
X417017Y345202D01*
X416995Y345169D01*
X416987Y34513D01*
Y34493D01*
X416995Y344891D01*
X417017Y344858D01*
X41705Y344835D01*
X417089Y344828D01*
X417305D01*
X417344Y344835D01*
X417369Y344852D01*
X417499D01*
X417555Y344815D01*
X41764Y344798D01*
X417725Y344815D01*
X417781Y344852D01*
X419802D01*
Y34469D01*
X419815Y344622D01*
X419854Y344564D01*
X420022Y344396D01*
X420031Y344348D01*
X42008Y344276D01*
X420152Y344228D01*
X420237Y344211D01*
X420322Y344228D01*
X420394Y344276D01*
X420442Y344348D01*
X420459Y344433D01*
X420442Y344518D01*
X420394Y34459D01*
X420322Y344639D01*
X420274Y344648D01*
X420158Y344764D01*
Y344881D01*
X420175Y344906D01*
X420182Y344945D01*
Y345161D01*
X420175Y3452D01*
X420152Y345233D01*
X420119Y345255D01*
X42008Y345263D01*
X41988D01*
X419841Y345255D01*
X419808Y345233D01*
X419791Y345208D01*
X417751D01*
X417725Y345225D01*
X41764Y345242D01*
X417555Y345225D01*
X417529Y345208D01*
X417376D01*
Y345365D01*
X417379Y34538D01*
Y345636D01*
X417371Y345675D01*
X417356Y345697D01*
X41737Y345736D01*
X417379Y345747D01*
X420377D01*
X422973Y343151D01*
X422954Y343104D01*
X422722D01*
X421381Y344445D01*
X421382Y34445D01*
X421365Y344535D01*
X421317Y344607D01*
X421245Y344655D01*
X42116Y344672D01*
X421075Y344655D01*
X421003Y344607D01*
X420955Y344535D01*
X420938Y34445D01*
X420955Y344365D01*
X421003Y344293D01*
X421075Y344245D01*
X421144Y344231D01*
X42116Y344209D01*
X421145Y344158D01*
X421143Y344154D01*
X421073Y344107D01*
X421025Y344035D01*
X421016Y343991D01*
X420964Y343972D01*
X420914Y344005D01*
X420856Y344017D01*
X415616D01*
X415613Y344021D01*
X415541Y34407D01*
X415456Y344086D01*
X415371Y34407D01*
X415299Y344021D01*
X41525Y343949D01*
X415234Y343864D01*
X41525Y343779D01*
X415299Y343707D01*
X415371Y343659D01*
X415456Y343642D01*
X415541Y343659D01*
X415613Y343707D01*
X415616Y343711D01*
X41587D01*
X415889Y343665D01*
X415328Y343104D01*
X409171D01*
X409139Y343154D01*
X409152Y34322D01*
X409135Y343305D01*
X409087Y343377D01*
X409083Y34338D01*
Y346778D01*
X409133Y346783D01*
X409145Y346725D01*
X409193Y346653D01*
X409197Y34665D01*
Y343719D01*
X409155Y343655D01*
X409138Y34357D01*
X409155Y343485D01*
X409203Y343413D01*
X409275Y343365D01*
X40936Y343348D01*
X409445Y343365D01*
X409517Y343413D01*
X409565Y343485D01*
X409582Y34357D01*
X409565Y343655D01*
X409517Y343727D01*
X409503Y343737D01*
Y34665D01*
X409507Y346653D01*
X409555Y346725D01*
X409572Y34681D01*
X409555Y346895D01*
X409507Y346967D01*
X409435Y347015D01*
X40935Y347032D01*
X409265Y347015D01*
X409193Y346967D01*
X409145Y346895D01*
X409133Y346837D01*
X409083Y346842D01*
Y34718D01*
X409087Y347183D01*
X409135Y347255D01*
X409152Y34734D01*
X409135Y347425D01*
X409087Y347497D01*
X409025Y347539D01*
X409033Y347589D01*
X416743D01*
X416765Y347575D01*
X41685Y347558D01*
X416935Y347575D01*
X417007Y347623D01*
X417055Y347695D01*
X417072Y34778D01*
X417055Y347865D01*
X417007Y347937D01*
X416935Y347985D01*
X416864Y348D01*
X416844Y348037D01*
X416842Y348051D01*
X416856Y348067D01*
X419367D01*
X424283Y343151D01*
D02*
G37*
G36*
X440092Y340657D02*
X439994Y340627D01*
X439874Y340563D01*
X439768Y340477D01*
X439682Y340372D01*
X439618Y340252D01*
X439584Y340139D01*
X428057D01*
X427535Y340661D01*
X427555Y340707D01*
X440084D01*
X440092Y340657D01*
D02*
G37*
G36*
X394983Y342943D02*
X39491D01*
X394851Y342932D01*
X394801Y342898D01*
X394584Y342681D01*
X39451Y342712D01*
X394393Y342728D01*
X394275Y342712D01*
X394166Y342667D01*
X394072Y342595D01*
X394Y342501D01*
X393955Y342391D01*
X393939Y342274D01*
X393955Y342156D01*
X394Y342047D01*
X394072Y341953D01*
X394166Y341881D01*
X394275Y341835D01*
X394393Y34182D01*
X39451Y341835D01*
X39462Y341881D01*
X394714Y341953D01*
X394786Y342047D01*
X394831Y342156D01*
X394847Y342274D01*
X394831Y342391D01*
X394801Y342465D01*
X394973Y342637D01*
X395054D01*
X395066Y342587D01*
X395Y342501D01*
X394954Y342391D01*
X394939Y342274D01*
X394954Y342156D01*
X395Y342047D01*
X395072Y341953D01*
X395166Y341881D01*
X395275Y341835D01*
X395393Y34182D01*
X39551Y341835D01*
X39562Y341881D01*
X395714Y341953D01*
X395786Y342047D01*
X395817Y342121D01*
X399514D01*
X399572Y342132D01*
X399622Y342165D01*
X400167Y342711D01*
X401763D01*
X40177Y342661D01*
X401684Y342595D01*
X401611Y342501D01*
X401566Y342391D01*
X401551Y342274D01*
X401566Y342156D01*
X401611Y342047D01*
X401684Y341953D01*
X401778Y341881D01*
X401887Y341835D01*
X402004Y34182D01*
X402122Y341835D01*
X402231Y341881D01*
X402325Y341953D01*
X402398Y342047D01*
X402443Y342156D01*
X402458Y342274D01*
X402443Y342391D01*
X402398Y342501D01*
X402325Y342595D01*
X402239Y342661D01*
X402246Y342711D01*
X402763D01*
X40277Y342661D01*
X402684Y342595D01*
X402611Y342501D01*
X402566Y342391D01*
X402551Y342274D01*
X402566Y342156D01*
X402611Y342047D01*
X402684Y341953D01*
X402778Y341881D01*
X402887Y341835D01*
X403004Y34182D01*
X403122Y341835D01*
X403231Y341881D01*
X403325Y341953D01*
X403398Y342047D01*
X403443Y342156D01*
X403458Y342274D01*
X403443Y342391D01*
X403398Y342501D01*
X403325Y342595D01*
X403239Y342661D01*
X403246Y342711D01*
X409375D01*
X409381Y342661D01*
X409295Y342595D01*
X409223Y342501D01*
X409178Y342391D01*
X409162Y342274D01*
X409178Y342156D01*
X409223Y342047D01*
X409295Y341953D01*
X409389Y341881D01*
X409499Y341835D01*
X409616Y34182D01*
X409733Y341835D01*
X409843Y341881D01*
X409937Y341953D01*
X410009Y342047D01*
X410054Y342156D01*
X41007Y342274D01*
X410054Y342391D01*
X410009Y342501D01*
X409937Y342595D01*
X409851Y342661D01*
X409857Y342711D01*
X410375D01*
X410381Y342661D01*
X410295Y342595D01*
X410223Y342501D01*
X410178Y342391D01*
X410162Y342274D01*
X410178Y342156D01*
X410223Y342047D01*
X410295Y341953D01*
X410389Y341881D01*
X410499Y341835D01*
X410616Y34182D01*
X410733Y341835D01*
X410843Y341881D01*
X410937Y341953D01*
X411009Y342047D01*
X411054Y342156D01*
X41107Y342274D01*
X411054Y342391D01*
X411009Y342501D01*
X410937Y342595D01*
X410851Y342661D01*
X410857Y342711D01*
X414869D01*
X414888Y342664D01*
X413987Y341763D01*
X40317D01*
X403111Y341751D01*
X403062Y341718D01*
X401807Y340463D01*
X39924D01*
X399237Y340467D01*
X399165Y340515D01*
X39908Y340532D01*
X398995Y340515D01*
X398923Y340467D01*
X398875Y340395D01*
X398858Y34031D01*
X398875Y340225D01*
X398923Y340153D01*
X398995Y340105D01*
X39908Y340088D01*
X399165Y340105D01*
X399237Y340153D01*
X39924Y340157D01*
X40187D01*
X401929Y340169D01*
X401978Y340202D01*
X403233Y341457D01*
X41405D01*
X414109Y341469D01*
X414158Y341502D01*
X415367Y342711D01*
X416986D01*
X416993Y342661D01*
X416907Y342595D01*
X416834Y342501D01*
X416789Y342391D01*
X416774Y342274D01*
X416789Y342156D01*
X416834Y342047D01*
X416907Y341953D01*
X417001Y341881D01*
X41711Y341835D01*
X417228Y34182D01*
X417345Y341835D01*
X417454Y341881D01*
X417548Y341953D01*
X417621Y342047D01*
X417666Y342156D01*
X417681Y342274D01*
X417666Y342391D01*
X417621Y342501D01*
X417548Y342595D01*
X417462Y342661D01*
X417469Y342711D01*
X417986D01*
X417993Y342661D01*
X417907Y342595D01*
X417834Y342501D01*
X417789Y342391D01*
X417774Y342274D01*
X417789Y342156D01*
X417834Y342047D01*
X417907Y341953D01*
X418001Y341881D01*
X41811Y341835D01*
X418228Y34182D01*
X418345Y341835D01*
X418455Y341881D01*
X418549Y341953D01*
X418621Y342047D01*
X418637Y342086D01*
X418687Y342076D01*
Y341063D01*
X418587Y340963D01*
X40627D01*
X406267Y340967D01*
X406195Y341015D01*
X40611Y341032D01*
X406025Y341015D01*
X405953Y340967D01*
X405905Y340895D01*
X405888Y34081D01*
X405905Y340725D01*
X405953Y340653D01*
X406025Y340605D01*
X40611Y340588D01*
X406195Y340605D01*
X406267Y340653D01*
X40627Y340657D01*
X41865D01*
X418709Y340669D01*
X418758Y340702D01*
X418948Y340892D01*
X418981Y340941D01*
X418987Y34097D01*
X419037Y340966D01*
Y340633D01*
X418837Y340433D01*
X41451D01*
X414507Y340437D01*
X414435Y340485D01*
X41435Y340502D01*
X414265Y340485D01*
X414193Y340437D01*
X414145Y340365D01*
X414128Y34028D01*
X414145Y340195D01*
X414193Y340123D01*
X414265Y340075D01*
X41435Y340058D01*
X414435Y340075D01*
X414507Y340123D01*
X41451Y340127D01*
X4189D01*
X418959Y340139D01*
X419008Y340172D01*
X419298Y340462D01*
X419331Y340511D01*
X419343Y34057D01*
Y342711D01*
X420537D01*
Y3415D01*
X420549Y341441D01*
X420582Y341392D01*
X42116Y340814D01*
X421159Y340809D01*
X421176Y340724D01*
X421224Y340652D01*
X421296Y340603D01*
X421381Y340587D01*
X421466Y340603D01*
X421538Y340652D01*
X421587Y340724D01*
X421604Y340809D01*
X421587Y340894D01*
X421538Y340966D01*
X421466Y341014D01*
X421381Y341031D01*
X421376Y34103D01*
X420843Y341563D01*
Y342711D01*
X421793D01*
X422709Y341795D01*
X422708Y34179D01*
X422725Y341705D01*
X422773Y341633D01*
X422845Y341585D01*
X42293Y341568D01*
X423015Y341585D01*
X423087Y341633D01*
X423135Y341705D01*
X423152Y34179D01*
X423135Y341875D01*
X423131Y341882D01*
X423169Y341914D01*
X426342Y338741D01*
Y330591D01*
X42623Y330556D01*
X42611Y330492D01*
X426005Y330406D01*
X425918Y330301D01*
X425854Y330181D01*
X425815Y330051D01*
X425801Y329915D01*
Y329522D01*
X425815Y329386D01*
X425854Y329256D01*
X425918Y329136D01*
X426005Y329031D01*
X42611Y328945D01*
X42623Y328881D01*
X42636Y328841D01*
X426495Y328828D01*
X426631Y328841D01*
X426761Y328881D01*
X426881Y328945D01*
X426986Y329031D01*
X427072Y329136D01*
X427136Y329256D01*
X427176Y329386D01*
X427189Y329522D01*
Y329915D01*
X427176Y330051D01*
X427136Y330181D01*
X427072Y330301D01*
X426986Y330406D01*
X426881Y330492D01*
X426761Y330556D01*
X426648Y330591D01*
Y33868D01*
X426694Y338699D01*
X428342Y337051D01*
Y330591D01*
X42823Y330556D01*
X42811Y330492D01*
X428005Y330406D01*
X427918Y330301D01*
X427854Y330181D01*
X427815Y330051D01*
X427801Y329915D01*
Y329522D01*
X427815Y329386D01*
X427854Y329256D01*
X427918Y329136D01*
X428005Y329031D01*
X42811Y328945D01*
X42823Y328881D01*
X42836Y328841D01*
X428495Y328828D01*
X428631Y328841D01*
X428761Y328881D01*
X428881Y328945D01*
X428986Y329031D01*
X429072Y329136D01*
X429136Y329256D01*
X429176Y329386D01*
X429189Y329522D01*
Y329915D01*
X429176Y330051D01*
X429136Y330181D01*
X429072Y330301D01*
X428986Y330406D01*
X428881Y330492D01*
X428761Y330556D01*
X428648Y330591D01*
Y337115D01*
X428637Y337173D01*
X428603Y337223D01*
X423162Y342664D01*
X423181Y342711D01*
X423413D01*
X435397Y330726D01*
Y330591D01*
X435285Y330556D01*
X435165Y330492D01*
X43506Y330406D01*
X434973Y330301D01*
X434909Y330181D01*
X43487Y330051D01*
X434856Y329915D01*
Y329522D01*
X43487Y329386D01*
X434909Y329256D01*
X434973Y329136D01*
X43506Y329031D01*
X435165Y328945D01*
X435285Y328881D01*
X435415Y328841D01*
X43555Y328828D01*
X435686Y328841D01*
X435816Y328881D01*
X435936Y328945D01*
X436041Y329031D01*
X436127Y329136D01*
X436191Y329256D01*
X436231Y329386D01*
X436244Y329522D01*
Y329915D01*
X436231Y330051D01*
X436191Y330181D01*
X436127Y330301D01*
X436041Y330406D01*
X435936Y330492D01*
X435816Y330556D01*
X435703Y330591D01*
Y330745D01*
X43573Y330767D01*
X436027D01*
X436858Y329935D01*
X436856Y329915D01*
Y329522D01*
X43687Y329386D01*
X436909Y329256D01*
X436973Y329136D01*
X43706Y329031D01*
X437165Y328945D01*
X437285Y328881D01*
X437415Y328841D01*
X43755Y328828D01*
X437686Y328841D01*
X437816Y328881D01*
X437936Y328945D01*
X438041Y329031D01*
X438127Y329136D01*
X438191Y329256D01*
X438231Y329386D01*
X438244Y329522D01*
Y329915D01*
X438231Y330051D01*
X438191Y330181D01*
X438127Y330301D01*
X438041Y330406D01*
X437936Y330492D01*
X437816Y330556D01*
X437686Y330596D01*
X43755Y330609D01*
X437415Y330596D01*
X437285Y330556D01*
X437165Y330492D01*
X43706Y330406D01*
X436984Y330313D01*
X436925Y330301D01*
X436198Y331028D01*
X436149Y331061D01*
X43609Y331073D01*
X435793D01*
X424202Y342664D01*
X424221Y342711D01*
X424723D01*
X428142Y339292D01*
X428191Y339259D01*
X42825Y339247D01*
X4377D01*
X437703Y339243D01*
X437775Y339195D01*
X43786Y339178D01*
X437945Y339195D01*
X438017Y339243D01*
X438065Y339315D01*
X438082Y3394D01*
X438065Y339485D01*
X438017Y339557D01*
X437945Y339605D01*
X43786Y339622D01*
X437775Y339605D01*
X437703Y339557D01*
X4377Y339553D01*
X428313D01*
X428079Y339787D01*
X428098Y339833D01*
X439584D01*
X439618Y339721D01*
X439682Y339601D01*
X439768Y339496D01*
X439874Y339409D01*
X439994Y339345D01*
X440124Y339306D01*
X440259Y339292D01*
X440653D01*
X440788Y339306D01*
X440918Y339345D01*
X441038Y339409D01*
X441143Y339496D01*
X44123Y339601D01*
X441294Y339721D01*
X441333Y339851D01*
X441347Y339986D01*
X441333Y340122D01*
X441294Y340252D01*
X44123Y340372D01*
X441143Y340477D01*
X441038Y340563D01*
X440918Y340627D01*
X44082Y340657D01*
X440828Y340707D01*
X441217D01*
X441617Y340307D01*
Y339364D01*
X440889Y338636D01*
X440788Y338667D01*
X440653Y33868D01*
X440259D01*
X440124Y338667D01*
X439994Y338627D01*
X439874Y338563D01*
X439768Y338477D01*
X439682Y338372D01*
X439618Y338252D01*
X439579Y338122D01*
X439565Y337986D01*
X439579Y337851D01*
X439618Y337721D01*
X439682Y337601D01*
X439768Y337496D01*
X439874Y337409D01*
X439994Y337345D01*
X440124Y337306D01*
X440259Y337292D01*
X440653D01*
X440788Y337306D01*
X440918Y337345D01*
X441038Y337409D01*
X441143Y337496D01*
X44123Y337601D01*
X441294Y337721D01*
X441333Y337851D01*
X441347Y337986D01*
X441333Y338122D01*
X441294Y338252D01*
X44123Y338372D01*
X441152Y338466D01*
X441878Y339192D01*
X441911Y339242D01*
X441923Y3393D01*
Y34037D01*
X441911Y340429D01*
X441878Y340478D01*
X441388Y340968D01*
X441339Y341001D01*
X44128Y341013D01*
X427533D01*
X425882Y342664D01*
X425901Y342711D01*
X440096D01*
X440103Y342661D01*
X439994Y342627D01*
X439874Y342563D01*
X439768Y342477D01*
X439682Y342372D01*
X439618Y342252D01*
X439579Y342122D01*
X439565Y341986D01*
X439579Y341851D01*
X439618Y341721D01*
X439682Y341601D01*
X439768Y341496D01*
X439874Y341409D01*
X439994Y341345D01*
X440124Y341306D01*
X440259Y341292D01*
X440653D01*
X440788Y341306D01*
X440918Y341345D01*
X441038Y341409D01*
X441143Y341496D01*
X44123Y341601D01*
X441294Y341721D01*
X441333Y341851D01*
X441347Y341986D01*
X441333Y342122D01*
X441294Y342252D01*
X44123Y342372D01*
X441143Y342477D01*
X441038Y342563D01*
X440918Y342627D01*
X440808Y342661D01*
X440816Y342711D01*
X442675D01*
Y327893D01*
X387843D01*
Y347435D01*
X394983D01*
Y342943D01*
D02*
G37*
G36*
X388248Y357938D02*
X388318Y357884D01*
X3884Y35785D01*
X388487Y357838D01*
X388575Y35785D01*
X388657Y357884D01*
X388727Y357938D01*
X388739Y357954D01*
X388787Y357934D01*
X388785Y357914D01*
X388796Y357826D01*
X38883Y357744D01*
X388884Y357674D01*
X388954Y35762D01*
X389036Y357586D01*
X389124Y357575D01*
X389144Y357577D01*
X389164Y35753D01*
X389148Y357517D01*
X389094Y357447D01*
X38906Y357365D01*
X389048Y357278D01*
X38906Y35719D01*
X389094Y357108D01*
X389148Y357038D01*
X389164Y357025D01*
X389144Y356978D01*
X389124Y35698D01*
X389036Y356969D01*
X388954Y356935D01*
X388884Y356881D01*
X38883Y356811D01*
X388796Y356729D01*
X388785Y356641D01*
X388787Y356621D01*
X388739Y356601D01*
X388727Y356617D01*
X388657Y356671D01*
X388575Y356705D01*
X388487Y356717D01*
X3884Y356705D01*
X388318Y356671D01*
X388248Y356617D01*
X388235Y356601D01*
X388187Y356621D01*
X38819Y356641D01*
X388179Y356729D01*
X388145Y356811D01*
X388091Y356881D01*
X388021Y356935D01*
X387939Y356969D01*
X387851Y35698D01*
X387831Y356978D01*
X387811Y357025D01*
X387827Y357038D01*
X387881Y357108D01*
X387915Y35719D01*
X387927Y357278D01*
X387915Y357365D01*
X387881Y357447D01*
X387827Y357517D01*
X387811Y35753D01*
X387831Y357577D01*
X387851Y357575D01*
X387939Y357586D01*
X388021Y35762D01*
X388091Y357674D01*
X388145Y357744D01*
X388179Y357826D01*
X38819Y357914D01*
X388187Y357934D01*
X388235Y357954D01*
X388248Y357938D01*
D02*
G37*
G36*
X442675Y353734D02*
X436716D01*
Y345467D01*
X442675D01*
Y343104D01*
X425442D01*
X419605Y348941D01*
X419605Y348941D01*
X41962Y348991D01*
X419881D01*
X420986Y347886D01*
X421052Y347842D01*
X42113Y347826D01*
X421373D01*
X4214Y34779D01*
X42147Y347736D01*
X421552Y347702D01*
X42164Y347691D01*
X421728Y347702D01*
X421741Y347708D01*
X421769Y347665D01*
X421705Y347601D01*
X4217Y347602D01*
X421615Y347585D01*
X421543Y347537D01*
X421495Y347465D01*
X421478Y34738D01*
X421495Y347295D01*
X421543Y347223D01*
X421615Y347175D01*
X4217Y347158D01*
X421758Y347169D01*
X421765Y347135D01*
X421813Y347063D01*
X421885Y347015D01*
X42197Y346998D01*
X422018Y347007D01*
X422035Y346925D01*
X422083Y346853D01*
X422155Y346805D01*
X42223Y34679D01*
X42226Y346744D01*
X422252Y346733D01*
X422235Y346648D01*
X422252Y346563D01*
X4223Y34649D01*
X422373Y346442D01*
X422458Y346425D01*
X422543Y346442D01*
X422615Y34649D01*
X422618Y346495D01*
X435387D01*
X43539Y34649D01*
X435463Y346442D01*
X435548Y346425D01*
X435633Y346442D01*
X435705Y34649D01*
X435753Y346563D01*
X43577Y346648D01*
X435753Y346733D01*
X435705Y346805D01*
X435633Y346853D01*
X435548Y34687D01*
X435463Y346853D01*
X43539Y346805D01*
X435387Y346801D01*
X422618D01*
X422615Y346805D01*
X422543Y346853D01*
X422468Y346868D01*
X422438Y346913D01*
X422445Y346925D01*
X422462Y34701D01*
X422461Y347015D01*
X422683Y347237D01*
X43172D01*
X431779Y347249D01*
X431828Y347282D01*
X432478Y347932D01*
X432511Y347981D01*
X432523Y34804D01*
Y351997D01*
X433828Y353302D01*
X433861Y353351D01*
X433873Y35341D01*
Y35656D01*
X433877Y356563D01*
X433925Y356635D01*
X433942Y35672D01*
X433925Y356805D01*
X433877Y356877D01*
X433805Y356925D01*
X43372Y356942D01*
X433635Y356925D01*
X433563Y356877D01*
X433515Y356805D01*
X433498Y35672D01*
X433515Y356635D01*
X433563Y356563D01*
X433567Y35656D01*
Y355934D01*
X433517Y355917D01*
X433513Y355923D01*
X433443Y355977D01*
X433361Y356011D01*
X433273Y356022D01*
X433185Y356011D01*
X433104Y355977D01*
X433053Y355938D01*
X412803D01*
X412753Y355977D01*
X412671Y356011D01*
X412583Y356022D01*
X412495Y356011D01*
X412414Y355977D01*
X412343Y355923D01*
X412289Y355853D01*
X412256Y355771D01*
X412244Y355683D01*
X412256Y355595D01*
X412289Y355513D01*
X412343Y355443D01*
X412414Y355389D01*
X412495Y355355D01*
X412583Y355344D01*
X412671Y355355D01*
X412753Y355389D01*
X412803Y355428D01*
X433053D01*
X433104Y355389D01*
X433185Y355355D01*
X433273Y355344D01*
X433361Y355355D01*
X433443Y355389D01*
X433513Y355443D01*
X433517Y355449D01*
X433567Y355432D01*
Y353473D01*
X432826Y352732D01*
X43278Y352757D01*
X432782Y35277D01*
X432765Y352855D01*
X432717Y352927D01*
X432645Y352975D01*
X43256Y352992D01*
X432475Y352975D01*
X432403Y352927D01*
X432355Y352855D01*
X432339Y352775D01*
X431612Y352048D01*
X431579Y351999D01*
X431567Y35194D01*
Y348383D01*
X431257Y348073D01*
X42224D01*
X422181Y348061D01*
X422132Y348028D01*
X422005Y347901D01*
X421962Y347929D01*
X421968Y347942D01*
X421979Y34803D01*
X421968Y348118D01*
X421961Y348133D01*
X42228Y348451D01*
X424798D01*
X4248Y34845D01*
X424885Y348433D01*
X42497Y34845D01*
X425042Y348498D01*
X42509Y34857D01*
X425107Y348655D01*
X42509Y34874D01*
X425042Y348812D01*
X42497Y34886D01*
X424885Y348877D01*
X4248Y34886D01*
X424798Y348859D01*
X422195D01*
X422195Y348859D01*
X422117Y348843D01*
X422051Y348799D01*
X421618Y348366D01*
X421552Y348358D01*
X42147Y348324D01*
X4214Y34827D01*
X421373Y348234D01*
X421214D01*
X420109Y349339D01*
X420043Y349383D01*
X419965Y349399D01*
X418899D01*
X418388Y34991D01*
Y351518D01*
X418424Y351546D01*
X418478Y351616D01*
X418512Y351698D01*
X418524Y351785D01*
X418512Y351873D01*
X418478Y351955D01*
X418424Y352025D01*
X418388Y352053D01*
Y35329D01*
X418798Y3537D01*
X424086D01*
X424114Y353664D01*
X424184Y35361D01*
X424266Y353576D01*
X424354Y353564D01*
X424441Y353576D01*
X424523Y35361D01*
X424593Y353664D01*
X424647Y353734D01*
X424681Y353816D01*
X424693Y353904D01*
X424681Y353991D01*
X424647Y354073D01*
X424593Y354143D01*
X424537Y354187D01*
X424537Y35419D01*
Y35439D01*
X42453Y354429D01*
X424508Y354462D01*
X424474Y354485D01*
X424435Y354492D01*
X424335D01*
X424327Y354494D01*
X424319Y354492D01*
X424219D01*
X42418Y354485D01*
X424147Y354462D01*
X424125Y354429D01*
X424117Y35439D01*
Y35419D01*
X424123Y354158D01*
Y354151D01*
X424114Y354143D01*
X424086Y354107D01*
X418714D01*
X418636Y354092D01*
X418569Y354048D01*
X41804Y353519D01*
X417996Y353453D01*
X417981Y353375D01*
Y352053D01*
X417945Y352025D01*
X417917Y351989D01*
X416862D01*
X416837Y352023D01*
X416767Y352077D01*
X416685Y35211D01*
X416597Y352122D01*
X416509Y35211D01*
X416428Y352077D01*
X416357Y352023D01*
X41633Y351987D01*
X413403D01*
X413325Y351971D01*
X413259Y351927D01*
X413009Y351677D01*
X412964Y351611D01*
X412949Y351533D01*
Y349635D01*
X412913Y349607D01*
X412859Y349537D01*
X412825Y349455D01*
X412814Y349367D01*
X412825Y349279D01*
X412859Y349198D01*
X412913Y349127D01*
X412983Y349074D01*
X413065Y34904D01*
X413153Y349028D01*
X413241Y34904D01*
X413322Y349074D01*
X413393Y349127D01*
X413446Y349198D01*
X41348Y349279D01*
X413492Y349367D01*
X41348Y349455D01*
X413446Y349537D01*
X413393Y349607D01*
X413357Y349635D01*
Y351448D01*
X413487Y351579D01*
X41633D01*
X416357Y351543D01*
X416393Y351516D01*
Y349706D01*
X41628D01*
X416253Y349724D01*
X416214Y349732D01*
X415879D01*
X41584Y349724D01*
X415807Y349702D01*
X415785Y349669D01*
X415777Y34963D01*
Y349374D01*
X415785Y349335D01*
X415807Y349302D01*
X41584Y34928D01*
X415879Y349272D01*
X416214D01*
X416253Y34928D01*
X41628Y349298D01*
X416403D01*
X416431Y34928D01*
X41647Y349272D01*
X416804D01*
X416843Y34928D01*
X416876Y349302D01*
X416899Y349335D01*
X416906Y349374D01*
Y34963D01*
X416899Y349669D01*
X416876Y349702D01*
X416843Y349724D01*
X416804Y349732D01*
X416801D01*
Y351025D01*
X416851Y35104D01*
X416883Y350993D01*
X416887Y35099D01*
Y3506D01*
X416899Y350541D01*
X416932Y350492D01*
X417111Y350313D01*
Y349564D01*
X417106Y349561D01*
X417058Y349489D01*
X417041Y349404D01*
X417058Y349318D01*
X417106Y349246D01*
X417178Y349198D01*
X417264Y349181D01*
X417349Y349198D01*
X417421Y349246D01*
X417469Y349318D01*
X417486Y349404D01*
X417469Y349489D01*
X417421Y349561D01*
X417416Y349564D01*
Y350376D01*
X417405Y350435D01*
X417372Y350485D01*
X417193Y350663D01*
Y35099D01*
X417197Y350993D01*
X417245Y351065D01*
X417262Y35115D01*
X417245Y351235D01*
X417197Y351307D01*
X417125Y351355D01*
X41704Y351372D01*
X416955Y351355D01*
X416883Y351307D01*
X416851Y35126D01*
X416801Y351275D01*
Y351516D01*
X416837Y351543D01*
X416866Y351581D01*
X417917D01*
X417945Y351546D01*
X417981Y351518D01*
Y349825D01*
X417996Y349747D01*
X41804Y349681D01*
X418671Y349051D01*
X418671Y349051D01*
X418694Y349036D01*
X418678Y348986D01*
X417235D01*
X417175Y349025D01*
X41709Y349042D01*
X417005Y349025D01*
X416949Y348988D01*
X416899Y348999D01*
X416899Y349D01*
X416876Y349033D01*
X416843Y349055D01*
X416804Y349063D01*
X41647D01*
X416431Y349055D01*
X416398Y349033D01*
X416376Y349D01*
X416368Y348961D01*
Y348851D01*
X416318Y348824D01*
X416316Y348826D01*
Y348961D01*
X416308Y349D01*
X416286Y349033D01*
X416253Y349055D01*
X416214Y349063D01*
X415879D01*
X41584Y349055D01*
X415807Y349033D01*
X415785Y349D01*
X415773Y348995D01*
X415738Y349018D01*
X415653Y349035D01*
X415568Y349018D01*
X415496Y34897D01*
X415448Y348898D01*
X415431Y348813D01*
X415448Y348728D01*
X415496Y348656D01*
X415568Y348608D01*
X415653Y348591D01*
X415738Y348608D01*
X415797Y348647D01*
X415807Y348633D01*
X41584Y348611D01*
X415879Y348603D01*
X41606D01*
X416251Y348412D01*
X416301Y348379D01*
X416359Y348367D01*
X416463D01*
X416486Y348323D01*
X416475Y348305D01*
X416458Y34822D01*
X416475Y348135D01*
X416523Y348063D01*
X416595Y348015D01*
X41668Y347998D01*
X416699Y348001D01*
X416718Y347954D01*
X416693Y347937D01*
X416664Y347895D01*
X416497D01*
X416465Y347933D01*
X416472Y34797D01*
X416455Y348055D01*
X416407Y348127D01*
X416335Y348175D01*
X41625Y348192D01*
X416165Y348175D01*
X416093Y348127D01*
X41609Y348123D01*
X413676D01*
X413651Y348173D01*
X413685Y348225D01*
X413702Y34831D01*
X413686Y348392D01*
X413686Y348398D01*
X413707Y348453D01*
X413767Y348493D01*
X413815Y348565D01*
X413832Y34865D01*
X413815Y348735D01*
X413767Y348807D01*
X413695Y348855D01*
X41361Y348872D01*
X413525Y348855D01*
X413462Y348813D01*
X411718D01*
X411373Y349158D01*
Y357078D01*
X411608Y357313D01*
X411644Y357298D01*
X411747Y357284D01*
X41185Y357298D01*
X411947Y357338D01*
X412029Y357401D01*
X412093Y357484D01*
X412132Y35758D01*
X412146Y357683D01*
X412132Y357786D01*
X412093Y357882D01*
X412029Y357965D01*
X411947Y358028D01*
X41185Y358068D01*
X411747Y358082D01*
X411644Y358068D01*
X411548Y358028D01*
X411465Y357965D01*
X411402Y357882D01*
X411362Y357786D01*
X411349Y357683D01*
X411362Y35758D01*
X411377Y357544D01*
X411095Y357261D01*
X411059Y357208D01*
X411047Y357146D01*
Y34909D01*
X411059Y349028D01*
X41109Y348981D01*
X411052Y348949D01*
X41091Y34909D01*
Y357323D01*
X410947Y357338D01*
X411029Y357401D01*
X411093Y357484D01*
X411132Y35758D01*
X411146Y357683D01*
X411132Y357786D01*
X411093Y357882D01*
X411029Y357965D01*
X410947Y358028D01*
X41085Y358068D01*
X410747Y358082D01*
X410644Y358068D01*
X410548Y358028D01*
X410465Y357965D01*
X410402Y357882D01*
X410362Y357786D01*
X410349Y357683D01*
X410362Y35758D01*
X410402Y357484D01*
X410465Y357401D01*
X410548Y357338D01*
X410584Y357323D01*
Y349023D01*
X410597Y34896D01*
X410632Y348907D01*
X411345Y348195D01*
X411377Y348173D01*
X411362Y348123D01*
X40483D01*
X404771Y348111D01*
X404722Y348078D01*
X399748Y343104D01*
X395574D01*
Y348026D01*
X3877D01*
Y356295D01*
X387742Y356323D01*
X387763Y356314D01*
X387851Y356302D01*
X387939Y356314D01*
X388021Y356347D01*
X388091Y356401D01*
X388103Y356417D01*
X388151Y356398D01*
X388148Y356378D01*
X38816Y35629D01*
X388194Y356208D01*
X388248Y356138D01*
X388318Y356084D01*
X3884Y35605D01*
X388487Y356038D01*
X388575Y35605D01*
X388657Y356084D01*
X388727Y356138D01*
X388781Y356208D01*
X388815Y35629D01*
X388827Y356378D01*
X388824Y356398D01*
X388872Y356417D01*
X388884Y356401D01*
X388954Y356347D01*
X389036Y356314D01*
X389124Y356302D01*
X389212Y356314D01*
X389293Y356347D01*
X389364Y356401D01*
X389417Y356472D01*
X389451Y356553D01*
X389463Y356641D01*
X389451Y356729D01*
X389417Y356811D01*
X389364Y356881D01*
X389348Y356893D01*
X389367Y356941D01*
X389387Y356938D01*
X389475Y35695D01*
X389557Y356984D01*
X389627Y357038D01*
X389681Y357108D01*
X389715Y35719D01*
X389727Y357278D01*
X389715Y357365D01*
X389681Y357447D01*
X389627Y357517D01*
X389557Y357571D01*
X389475Y357605D01*
X389387Y357617D01*
X389367Y357614D01*
X389348Y357662D01*
X389364Y357674D01*
X389417Y357744D01*
X389451Y357826D01*
X389463Y357914D01*
X389451Y358002D01*
X389417Y358084D01*
X389364Y358154D01*
X389293Y358208D01*
X389212Y358242D01*
X389124Y358253D01*
X389036Y358242D01*
X388954Y358208D01*
X388884Y358154D01*
X388872Y358138D01*
X388824Y358158D01*
X388827Y358178D01*
X388815Y358265D01*
X388781Y358347D01*
X388727Y358417D01*
X388657Y358471D01*
X388575Y358505D01*
X388487Y358517D01*
X3884Y358505D01*
X388318Y358471D01*
X388248Y358417D01*
X388194Y358347D01*
X38816Y358265D01*
X388148Y358178D01*
X388151Y358158D01*
X388103Y358138D01*
X388091Y358154D01*
X388021Y358208D01*
X387939Y358242D01*
X387851Y358253D01*
X387763Y358242D01*
X387742Y358233D01*
X3877Y35826D01*
Y359103D01*
X408598D01*
X408608Y359053D01*
X408548Y359028D01*
X408465Y358965D01*
X408402Y358882D01*
X408362Y358786D01*
X408349Y358683D01*
X408362Y35858D01*
X408402Y358484D01*
X408465Y358401D01*
X408548Y358338D01*
X408644Y358298D01*
X408747Y358284D01*
X40885Y358298D01*
X408947Y358338D01*
X409029Y358401D01*
X409093Y358484D01*
X409132Y35858D01*
X409146Y358683D01*
X409132Y358786D01*
X409093Y358882D01*
X409029Y358965D01*
X408947Y359028D01*
X408886Y359053D01*
X408896Y359103D01*
X410598D01*
X410608Y359053D01*
X410548Y359028D01*
X410465Y358965D01*
X410402Y358882D01*
X410362Y358786D01*
X410349Y358683D01*
X410362Y35858D01*
X410402Y358484D01*
X410465Y358401D01*
X410548Y358338D01*
X410644Y358298D01*
X410747Y358284D01*
X41085Y358298D01*
X410947Y358338D01*
X411029Y358401D01*
X411093Y358484D01*
X411132Y35858D01*
X411146Y358683D01*
X411132Y358786D01*
X411093Y358882D01*
X411029Y358965D01*
X410947Y359028D01*
X410886Y359053D01*
X410896Y359103D01*
X411598D01*
X411608Y359053D01*
X411548Y359028D01*
X411465Y358965D01*
X411402Y358882D01*
X411362Y358786D01*
X411349Y358683D01*
X411362Y35858D01*
X411402Y358484D01*
X411465Y358401D01*
X411548Y358338D01*
X411644Y358298D01*
X411747Y358284D01*
X41185Y358298D01*
X411947Y358338D01*
X412029Y358401D01*
X412093Y358484D01*
X412132Y35858D01*
X412146Y358683D01*
X412132Y358786D01*
X412093Y358882D01*
X412029Y358965D01*
X411947Y359028D01*
X411886Y359053D01*
X411896Y359103D01*
X430724D01*
X430734Y359053D01*
X430674Y359028D01*
X430591Y358965D01*
X430528Y358882D01*
X430488Y358786D01*
X430475Y358683D01*
X430488Y35858D01*
X430528Y358484D01*
X430591Y358401D01*
X430674Y358338D01*
X43077Y358298D01*
X430873Y358284D01*
X430976Y358298D01*
X431023Y358317D01*
X431247Y358093D01*
Y357927D01*
X431197Y35791D01*
X431155Y357965D01*
X431073Y358028D01*
X430976Y358068D01*
X430873Y358082D01*
X43077Y358068D01*
X430674Y358028D01*
X430591Y357965D01*
X430528Y357882D01*
X430488Y357786D01*
X430475Y357683D01*
X430488Y35758D01*
X430528Y357484D01*
X430591Y357401D01*
X430674Y357338D01*
X43077Y357298D01*
X430873Y357284D01*
X430976Y357298D01*
X431073Y357338D01*
X431155Y357401D01*
X431197Y357456D01*
X431247Y357439D01*
Y3573D01*
X431259Y357241D01*
X431292Y357192D01*
X431662Y356822D01*
X431711Y356789D01*
X43177Y356777D01*
X43206D01*
X432063Y356773D01*
X432135Y356725D01*
X43222Y356708D01*
X432305Y356725D01*
X432377Y356773D01*
X432425Y356845D01*
X432442Y35693D01*
X432425Y357015D01*
X432377Y357087D01*
X432305Y357135D01*
X43222Y357152D01*
X432135Y357135D01*
X432063Y357087D01*
X43206Y357083D01*
X431833D01*
X431583Y357333D01*
X431586Y357342D01*
X431642Y357362D01*
X431674Y357338D01*
X43177Y357298D01*
X431873Y357284D01*
X431976Y357298D01*
X432073Y357338D01*
X432155Y357401D01*
X432219Y357484D01*
X432258Y35758D01*
X432272Y357683D01*
X432258Y357786D01*
X432219Y357882D01*
X432155Y357965D01*
X432073Y358028D01*
X431976Y358068D01*
X431873Y358082D01*
X43177Y358068D01*
X431674Y358028D01*
X431603Y357974D01*
X431553Y357991D01*
Y358156D01*
X431541Y358215D01*
X431508Y358264D01*
X431239Y358533D01*
X431258Y35858D01*
X431272Y358683D01*
X431258Y358786D01*
X431218Y358882D01*
X431155Y358965D01*
X431073Y359028D01*
X431012Y359053D01*
X431022Y359103D01*
X431724D01*
X431734Y359053D01*
X431674Y359028D01*
X431591Y358965D01*
X431528Y358882D01*
X431488Y358786D01*
X431475Y358683D01*
X431488Y35858D01*
X431528Y358484D01*
X431591Y358401D01*
X431674Y358338D01*
X43177Y358298D01*
X431873Y358284D01*
X431976Y358298D01*
X432073Y358338D01*
X432155Y358401D01*
X432219Y358484D01*
X432258Y35858D01*
X432272Y358683D01*
X432258Y358786D01*
X432219Y358882D01*
X432155Y358965D01*
X432073Y359028D01*
X432012Y359053D01*
X432022Y359103D01*
X442675D01*
Y353734D01*
D02*
G37*
%LPC*%
G36*
X402235Y333403D02*
X402118Y333388D01*
X402008Y333343D01*
X401914Y333271D01*
X401842Y333177D01*
X401797Y333067D01*
X401782Y33295D01*
Y33285D01*
X401797Y332732D01*
X401842Y332623D01*
X401914Y332529D01*
X402008Y332457D01*
X402118Y332411D01*
X402235Y332396D01*
X402353Y332411D01*
X402462Y332457D01*
X402556Y332529D01*
X402629Y332623D01*
X402674Y332732D01*
X402689Y33285D01*
Y33295D01*
X402674Y333067D01*
X402629Y333177D01*
X402556Y333271D01*
X402462Y333343D01*
X402353Y333388D01*
X402235Y333403D01*
D02*
G37*
G36*
X403235D02*
X403118Y333388D01*
X403008Y333343D01*
X402915Y333271D01*
X402842Y333177D01*
X402797Y333067D01*
X402782Y33295D01*
Y33285D01*
X402797Y332732D01*
X402842Y332623D01*
X402915Y332529D01*
X403008Y332457D01*
X403118Y332411D01*
X403235Y332396D01*
X403353Y332411D01*
X403462Y332457D01*
X403556Y332529D01*
X403629Y332623D01*
X403674Y332732D01*
X403689Y33285D01*
Y33295D01*
X403674Y333067D01*
X403629Y333177D01*
X403556Y333271D01*
X403462Y333343D01*
X403353Y333388D01*
X403235Y333403D01*
D02*
G37*
G36*
X395361D02*
X395244Y333388D01*
X395134Y333343D01*
X39504Y333271D01*
X394968Y333177D01*
X394923Y333067D01*
X394908Y33295D01*
Y33285D01*
X394923Y332732D01*
X394968Y332623D01*
X39504Y332529D01*
X395134Y332457D01*
X395244Y332411D01*
X395361Y332396D01*
X395479Y332411D01*
X395588Y332457D01*
X395682Y332529D01*
X395755Y332623D01*
X3958Y332732D01*
X395815Y33285D01*
Y33295D01*
X3958Y333067D01*
X395755Y333177D01*
X395682Y333271D01*
X395588Y333343D01*
X395479Y333388D01*
X395361Y333403D01*
D02*
G37*
G36*
X389669Y330958D02*
X389581Y330946D01*
X389499Y330912D01*
X389429Y330858D01*
X389375Y330788D01*
X389341Y330706D01*
X389329Y330619D01*
X389332Y330598D01*
X389284Y330579D01*
X389272Y330595D01*
X389202Y330649D01*
X38912Y330682D01*
X389032Y330694D01*
X388944Y330682D01*
X388863Y330649D01*
X388792Y330595D01*
X388738Y330524D01*
X388705Y330443D01*
X388693Y330355D01*
X388705Y330267D01*
X388738Y330185D01*
X388792Y330115D01*
X388808Y330103D01*
X388789Y330055D01*
X388769Y330058D01*
X388681Y330046D01*
X388599Y330012D01*
X388529Y329958D01*
X388475Y329888D01*
X388441Y329806D01*
X388429Y329719D01*
X388441Y329631D01*
X388475Y329549D01*
X388529Y329479D01*
X388599Y329425D01*
X388681Y329391D01*
X388769Y329379D01*
X388789Y329382D01*
X388808Y329334D01*
X388792Y329322D01*
X388738Y329252D01*
X388705Y32917D01*
X388693Y329082D01*
X388705Y328994D01*
X388738Y328913D01*
X388792Y328842D01*
X388863Y328788D01*
X388944Y328755D01*
X389032Y328743D01*
X38912Y328755D01*
X389202Y328788D01*
X389272Y328842D01*
X389284Y328858D01*
X389332Y328839D01*
X389329Y328819D01*
X389341Y328731D01*
X389375Y328649D01*
X389429Y328579D01*
X389499Y328525D01*
X389581Y328491D01*
X389669Y328479D01*
X389756Y328491D01*
X389838Y328525D01*
X389908Y328579D01*
X389962Y328649D01*
X389996Y328731D01*
X390008Y328819D01*
X390005Y328839D01*
X390053Y328858D01*
X390065Y328842D01*
X390135Y328788D01*
X390217Y328755D01*
X390305Y328743D01*
X390393Y328755D01*
X390474Y328788D01*
X390545Y328842D01*
X390599Y328913D01*
X390632Y328994D01*
X390644Y329082D01*
X390632Y32917D01*
X390599Y329252D01*
X390545Y329322D01*
X390529Y329334D01*
X390548Y329382D01*
X390569Y329379D01*
X390656Y329391D01*
X390738Y329425D01*
X390808Y329479D01*
X390862Y329549D01*
X390896Y329631D01*
X390908Y329719D01*
X390896Y329806D01*
X390862Y329888D01*
X390808Y329958D01*
X390738Y330012D01*
X390656Y330046D01*
X390569Y330058D01*
X390548Y330055D01*
X390529Y330103D01*
X390545Y330115D01*
X390599Y330185D01*
X390632Y330267D01*
X390644Y330355D01*
X390632Y330443D01*
X390599Y330524D01*
X390545Y330595D01*
X390474Y330649D01*
X390393Y330682D01*
X390305Y330694D01*
X390217Y330682D01*
X390135Y330649D01*
X390065Y330595D01*
X390053Y330579D01*
X390005Y330598D01*
X390008Y330619D01*
X389996Y330706D01*
X389962Y330788D01*
X389908Y330858D01*
X389838Y330912D01*
X389756Y330946D01*
X389669Y330958D01*
D02*
G37*
G36*
X394361Y333403D02*
X394244Y333388D01*
X394134Y333343D01*
X39404Y333271D01*
X393968Y333177D01*
X393923Y333067D01*
X393908Y33295D01*
Y33285D01*
X393923Y332732D01*
X393968Y332623D01*
X39404Y332529D01*
X394134Y332457D01*
X394244Y332411D01*
X394361Y332396D01*
X394479Y332411D01*
X394588Y332457D01*
X394682Y332529D01*
X394754Y332623D01*
X3948Y332732D01*
X394815Y33285D01*
Y33295D01*
X3948Y333067D01*
X394754Y333177D01*
X394682Y333271D01*
X394588Y333343D01*
X394479Y333388D01*
X394361Y333403D01*
D02*
G37*
G36*
X409716D02*
X409598Y333388D01*
X409489Y333343D01*
X409395Y333271D01*
X409323Y333177D01*
X409277Y333067D01*
X409262Y33295D01*
Y33285D01*
X409277Y332732D01*
X409323Y332623D01*
X409395Y332529D01*
X409489Y332457D01*
X409598Y332411D01*
X409716Y332396D01*
X409833Y332411D01*
X409943Y332457D01*
X410037Y332529D01*
X410109Y332623D01*
X410154Y332732D01*
X41017Y33285D01*
Y33295D01*
X410154Y333067D01*
X410109Y333177D01*
X410037Y333271D01*
X409943Y333343D01*
X409833Y333388D01*
X409716Y333403D01*
D02*
G37*
G36*
X441243Y334679D02*
X439669D01*
X439629Y334671D01*
X439596Y334649D01*
X439574Y334616D01*
X439567Y334577D01*
Y333396D01*
X439574Y333357D01*
X439596Y333324D01*
X439629Y333301D01*
X439669Y333294D01*
X441243D01*
X441282Y333301D01*
X441315Y333324D01*
X441338Y333357D01*
X441345Y333396D01*
Y334577D01*
X441338Y334616D01*
X441315Y334649D01*
X441282Y334671D01*
X441243Y334679D01*
D02*
G37*
G36*
X389531Y335633D02*
X389413D01*
X389297Y33561D01*
X389187Y335565D01*
X389089Y3355D01*
X389006Y335416D01*
X38894Y335318D01*
X388895Y335208D01*
X388872Y335093D01*
Y334974D01*
X388895Y334858D01*
X38894Y334749D01*
X389006Y334651D01*
X389089Y334567D01*
X389187Y334502D01*
X389297Y334457D01*
X389413Y334433D01*
X389531D01*
X389647Y334457D01*
X389756Y334502D01*
X389854Y334567D01*
X389938Y334651D01*
X390003Y334749D01*
X390049Y334858D01*
X390072Y334974D01*
Y335093D01*
X390049Y335208D01*
X390003Y335318D01*
X389938Y335416D01*
X389854Y3355D01*
X389756Y335565D01*
X389647Y33561D01*
X389531Y335633D01*
D02*
G37*
G36*
X418196Y333403D02*
X418079Y333388D01*
X417969Y333343D01*
X417875Y333271D01*
X417803Y333177D01*
X417758Y333067D01*
X417742Y33295D01*
Y33285D01*
X417758Y332732D01*
X417803Y332623D01*
X417875Y332529D01*
X417969Y332457D01*
X418079Y332411D01*
X418196Y332396D01*
X418314Y332411D01*
X418423Y332457D01*
X418517Y332529D01*
X418589Y332623D01*
X418634Y332732D01*
X41865Y33285D01*
Y33295D01*
X418634Y333067D01*
X418589Y333177D01*
X418517Y333271D01*
X418423Y333343D01*
X418314Y333388D01*
X418196Y333403D01*
D02*
G37*
G36*
X410716D02*
X410598Y333388D01*
X410489Y333343D01*
X410395Y333271D01*
X410323Y333177D01*
X410277Y333067D01*
X410262Y33295D01*
Y33285D01*
X410277Y332732D01*
X410323Y332623D01*
X410395Y332529D01*
X410489Y332457D01*
X410598Y332411D01*
X410716Y332396D01*
X410833Y332411D01*
X410943Y332457D01*
X411037Y332529D01*
X411109Y332623D01*
X411154Y332732D01*
X41117Y33285D01*
Y33295D01*
X411154Y333067D01*
X411109Y333177D01*
X411037Y333271D01*
X410943Y333343D01*
X410833Y333388D01*
X410716Y333403D01*
D02*
G37*
G36*
X417196D02*
X417079Y333388D01*
X416969Y333343D01*
X416875Y333271D01*
X416803Y333177D01*
X416758Y333067D01*
X416742Y33295D01*
Y33285D01*
X416758Y332732D01*
X416803Y332623D01*
X416875Y332529D01*
X416969Y332457D01*
X417079Y332411D01*
X417196Y332396D01*
X417314Y332411D01*
X417423Y332457D01*
X417517Y332529D01*
X417589Y332623D01*
X417634Y332732D01*
X41765Y33285D01*
Y33295D01*
X417634Y333067D01*
X417589Y333177D01*
X417517Y333271D01*
X417423Y333343D01*
X417314Y333388D01*
X417196Y333403D01*
D02*
G37*
G36*
X407716Y331692D02*
X407561Y331677D01*
X407412Y331632D01*
X407275Y331559D01*
X407155Y33146D01*
X407057Y33134D01*
X406983Y331203D01*
X406938Y331054D01*
X406923Y3309D01*
X406938Y330745D01*
X406983Y330596D01*
X407057Y330459D01*
X407155Y330339D01*
X407275Y33024D01*
X407412Y330167D01*
X407561Y330122D01*
X407716Y330107D01*
X40787Y330122D01*
X408019Y330167D01*
X408156Y33024D01*
X408276Y330339D01*
X408375Y330459D01*
X408448Y330596D01*
X408493Y330745D01*
X408509Y3309D01*
X408493Y331054D01*
X408448Y331203D01*
X408375Y33134D01*
X408276Y33146D01*
X408156Y331559D01*
X408019Y331632D01*
X40787Y331677D01*
X407716Y331692D01*
D02*
G37*
G36*
X423086Y330608D02*
X421905D01*
X421866Y3306D01*
X421833Y330578D01*
X421811Y330545D01*
X421803Y330506D01*
Y328931D01*
X421811Y328892D01*
X421833Y328859D01*
X421866Y328837D01*
X421905Y328829D01*
X423086D01*
X423125Y328837D01*
X423158Y328859D01*
X42318Y328892D01*
X423188Y328931D01*
Y330506D01*
X42318Y330545D01*
X423158Y330578D01*
X423125Y3306D01*
X423086Y330608D01*
D02*
G37*
G36*
X404235Y331692D02*
X404081Y331677D01*
X403932Y331632D01*
X403795Y331559D01*
X403675Y33146D01*
X403576Y33134D01*
X403503Y331203D01*
X403458Y331054D01*
X403443Y3309D01*
X403458Y330745D01*
X403503Y330596D01*
X403576Y330459D01*
X403675Y330339D01*
X403795Y33024D01*
X403932Y330167D01*
X404081Y330122D01*
X404235Y330107D01*
X40439Y330122D01*
X404539Y330167D01*
X404676Y33024D01*
X404796Y330339D01*
X404895Y330459D01*
X404968Y330596D01*
X405013Y330745D01*
X405028Y3309D01*
X405013Y331054D01*
X404968Y331203D01*
X404895Y33134D01*
X404796Y33146D01*
X404676Y331559D01*
X404539Y331632D01*
X40439Y331677D01*
X404235Y331692D01*
D02*
G37*
G36*
X396361D02*
X396207Y331677D01*
X396058Y331632D01*
X395921Y331559D01*
X395801Y33146D01*
X395702Y33134D01*
X395629Y331203D01*
X395584Y331054D01*
X395569Y3309D01*
X395584Y330745D01*
X395629Y330596D01*
X395702Y330459D01*
X395801Y330339D01*
X395921Y33024D01*
X396058Y330167D01*
X396207Y330122D01*
X396361Y330107D01*
X396516Y330122D01*
X396665Y330167D01*
X396802Y33024D01*
X396922Y330339D01*
X397021Y330459D01*
X397094Y330596D01*
X397139Y330745D01*
X397154Y3309D01*
X397139Y331054D01*
X397094Y331203D01*
X397021Y33134D01*
X396922Y33146D01*
X396802Y331559D01*
X396665Y331632D01*
X396516Y331677D01*
X396361Y331692D01*
D02*
G37*
G36*
X400235D02*
X400081Y331677D01*
X399932Y331632D01*
X399795Y331559D01*
X399675Y33146D01*
X399576Y33134D01*
X399503Y331203D01*
X399458Y331054D01*
X399443Y3309D01*
X399458Y330745D01*
X399503Y330596D01*
X399576Y330459D01*
X399675Y330339D01*
X399795Y33024D01*
X399932Y330167D01*
X400081Y330122D01*
X400235Y330107D01*
X40039Y330122D01*
X400539Y330167D01*
X400676Y33024D01*
X400796Y330339D01*
X400895Y330459D01*
X400968Y330596D01*
X401013Y330745D01*
X401028Y3309D01*
X401013Y331054D01*
X400968Y331203D01*
X400895Y33134D01*
X400796Y33146D01*
X400676Y331559D01*
X400539Y331632D01*
X40039Y331677D01*
X400235Y331692D01*
D02*
G37*
G36*
X411716D02*
X411561Y331677D01*
X411412Y331632D01*
X411275Y331559D01*
X411155Y33146D01*
X411057Y33134D01*
X410983Y331203D01*
X410938Y331054D01*
X410923Y3309D01*
X410938Y330745D01*
X410983Y330596D01*
X411057Y330459D01*
X411155Y330339D01*
X411275Y33024D01*
X411412Y330167D01*
X411561Y330122D01*
X411716Y330107D01*
X41187Y330122D01*
X412019Y330167D01*
X412156Y33024D01*
X412276Y330339D01*
X412375Y330459D01*
X412448Y330596D01*
X412493Y330745D01*
X412509Y3309D01*
X412493Y331054D01*
X412448Y331203D01*
X412375Y33134D01*
X412276Y33146D01*
X412156Y331559D01*
X412019Y331632D01*
X41187Y331677D01*
X411716Y331692D01*
D02*
G37*
G36*
X432141Y330608D02*
X43096D01*
X430921Y3306D01*
X430888Y330578D01*
X430866Y330545D01*
X430858Y330506D01*
Y328931D01*
X430866Y328892D01*
X430888Y328859D01*
X430921Y328837D01*
X43096Y328829D01*
X432141D01*
X43218Y328837D01*
X432213Y328859D01*
X432235Y328892D01*
X432243Y328931D01*
Y330506D01*
X432235Y330545D01*
X432213Y330578D01*
X43218Y3306D01*
X432141Y330608D01*
D02*
G37*
G36*
X419196Y331692D02*
X419041Y331677D01*
X418893Y331632D01*
X418756Y331559D01*
X418635Y33146D01*
X418537Y33134D01*
X418464Y331203D01*
X418419Y331054D01*
X418403Y3309D01*
X418419Y330745D01*
X418464Y330596D01*
X418537Y330459D01*
X418635Y330339D01*
X418756Y33024D01*
X418893Y330167D01*
X419041Y330122D01*
X419196Y330107D01*
X419351Y330122D01*
X419499Y330167D01*
X419636Y33024D01*
X419757Y330339D01*
X419855Y330459D01*
X419929Y330596D01*
X419974Y330745D01*
X419989Y3309D01*
X419974Y331054D01*
X419929Y331203D01*
X419855Y33134D01*
X419757Y33146D01*
X419636Y331559D01*
X419499Y331632D01*
X419351Y331677D01*
X419196Y331692D01*
D02*
G37*
G36*
X392361D02*
X392207Y331677D01*
X392058Y331632D01*
X391921Y331559D01*
X391801Y33146D01*
X391702Y33134D01*
X391629Y331203D01*
X391584Y331054D01*
X391569Y3309D01*
X391584Y330745D01*
X391629Y330596D01*
X391702Y330459D01*
X391801Y330339D01*
X391921Y33024D01*
X392058Y330167D01*
X392207Y330122D01*
X392361Y330107D01*
X392516Y330122D01*
X392665Y330167D01*
X392802Y33024D01*
X392922Y330339D01*
X393021Y330459D01*
X393094Y330596D01*
X393139Y330745D01*
X393154Y3309D01*
X393139Y331054D01*
X393094Y331203D01*
X393021Y33134D01*
X392922Y33146D01*
X392802Y331559D01*
X392665Y331632D01*
X392516Y331677D01*
X392361Y331692D01*
D02*
G37*
G36*
X415196D02*
X415041Y331677D01*
X414893Y331632D01*
X414756Y331559D01*
X414635Y33146D01*
X414537Y33134D01*
X414464Y331203D01*
X414418Y331054D01*
X414403Y3309D01*
X414418Y330745D01*
X414464Y330596D01*
X414537Y330459D01*
X414635Y330339D01*
X414756Y33024D01*
X414893Y330167D01*
X415041Y330122D01*
X415196Y330107D01*
X415351Y330122D01*
X415499Y330167D01*
X415637Y33024D01*
X415757Y330339D01*
X415855Y330459D01*
X415928Y330596D01*
X415974Y330745D01*
X415989Y3309D01*
X415974Y331054D01*
X415928Y331203D01*
X415855Y33134D01*
X415757Y33146D01*
X415637Y331559D01*
X415499Y331632D01*
X415351Y331677D01*
X415196Y331692D01*
D02*
G37*
G36*
X44085Y331004D02*
X440649Y330988D01*
X440452Y330941D01*
X440266Y330863D01*
X440094Y330758D01*
X439941Y330627D01*
X43981Y330474D01*
X439705Y330302D01*
X439627Y330116D01*
X43958Y32992D01*
X439565Y329719D01*
X43958Y329517D01*
X439627Y329321D01*
X439705Y329135D01*
X43981Y328963D01*
X439941Y32881D01*
X440094Y328679D01*
X440266Y328573D01*
X440452Y328496D01*
X440649Y328449D01*
X44085Y328433D01*
X441051Y328449D01*
X441247Y328496D01*
X441433Y328573D01*
X441605Y328679D01*
X441758Y32881D01*
X441889Y328963D01*
X441995Y329135D01*
X442072Y329321D01*
X442119Y329517D01*
X442135Y329719D01*
X442119Y32992D01*
X442072Y330116D01*
X441995Y330302D01*
X441889Y330474D01*
X441758Y330627D01*
X441605Y330758D01*
X441433Y330863D01*
X441247Y330941D01*
X441051Y330988D01*
X44085Y331004D01*
D02*
G37*
G36*
X418228Y335728D02*
X41811Y335712D01*
X418001Y335667D01*
X417907Y335595D01*
X417834Y335501D01*
X417789Y335391D01*
X417774Y335274D01*
X417789Y335156D01*
X417834Y335047D01*
X417907Y334953D01*
X418001Y334881D01*
X41811Y334835D01*
X418228Y33482D01*
X418345Y334835D01*
X418455Y334881D01*
X418549Y334953D01*
X418621Y335047D01*
X418666Y335156D01*
X418681Y335274D01*
X418666Y335391D01*
X418621Y335501D01*
X418549Y335595D01*
X418455Y335667D01*
X418345Y335712D01*
X418228Y335728D01*
D02*
G37*
G36*
X401004D02*
X400887Y335712D01*
X400778Y335667D01*
X400684Y335595D01*
X400611Y335501D01*
X400566Y335391D01*
X400551Y335274D01*
X400566Y335156D01*
X400611Y335047D01*
X400684Y334953D01*
X400778Y334881D01*
X400887Y334835D01*
X401004Y33482D01*
X401122Y334835D01*
X401231Y334881D01*
X401325Y334953D01*
X401398Y335047D01*
X401443Y335156D01*
X401458Y335274D01*
X401443Y335391D01*
X401398Y335501D01*
X401325Y335595D01*
X401231Y335667D01*
X401122Y335712D01*
X401004Y335728D01*
D02*
G37*
G36*
X402004D02*
X401887Y335712D01*
X401778Y335667D01*
X401684Y335595D01*
X401611Y335501D01*
X401566Y335391D01*
X401551Y335274D01*
X401566Y335156D01*
X401611Y335047D01*
X401684Y334953D01*
X401778Y334881D01*
X401887Y334835D01*
X402004Y33482D01*
X402122Y334835D01*
X402231Y334881D01*
X402325Y334953D01*
X402398Y335047D01*
X402443Y335156D01*
X402458Y335274D01*
X402443Y335391D01*
X402398Y335501D01*
X402325Y335595D01*
X402231Y335667D01*
X402122Y335712D01*
X402004Y335728D01*
D02*
G37*
G36*
X395393D02*
X395275Y335712D01*
X395166Y335667D01*
X395072Y335595D01*
X395Y335501D01*
X394954Y335391D01*
X394939Y335274D01*
X394954Y335156D01*
X395Y335047D01*
X395072Y334953D01*
X395166Y334881D01*
X395275Y334835D01*
X395393Y33482D01*
X39551Y334835D01*
X39562Y334881D01*
X395714Y334953D01*
X395786Y335047D01*
X395831Y335156D01*
X395847Y335274D01*
X395831Y335391D01*
X395786Y335501D01*
X395714Y335595D01*
X39562Y335667D01*
X39551Y335712D01*
X395393Y335728D01*
D02*
G37*
G36*
X393393D02*
X393275Y335712D01*
X393166Y335667D01*
X393072Y335595D01*
X393Y335501D01*
X392954Y335391D01*
X392939Y335274D01*
X392954Y335156D01*
X393Y335047D01*
X393072Y334953D01*
X393166Y334881D01*
X393275Y334835D01*
X393393Y33482D01*
X39351Y334835D01*
X39362Y334881D01*
X393714Y334953D01*
X393786Y335047D01*
X393831Y335156D01*
X393847Y335274D01*
X393831Y335391D01*
X393786Y335501D01*
X393714Y335595D01*
X39362Y335667D01*
X39351Y335712D01*
X393393Y335728D01*
D02*
G37*
G36*
X394393D02*
X394275Y335712D01*
X394166Y335667D01*
X394072Y335595D01*
X394Y335501D01*
X393955Y335391D01*
X393939Y335274D01*
X393955Y335156D01*
X394Y335047D01*
X394072Y334953D01*
X394166Y334881D01*
X394275Y334835D01*
X394393Y33482D01*
X39451Y334835D01*
X39462Y334881D01*
X394714Y334953D01*
X394786Y335047D01*
X394831Y335156D01*
X394847Y335274D01*
X394831Y335391D01*
X394786Y335501D01*
X394714Y335595D01*
X39462Y335667D01*
X39451Y335712D01*
X394393Y335728D01*
D02*
G37*
G36*
X403004D02*
X402887Y335712D01*
X402778Y335667D01*
X402684Y335595D01*
X402611Y335501D01*
X402566Y335391D01*
X402551Y335274D01*
X402566Y335156D01*
X402611Y335047D01*
X402684Y334953D01*
X402778Y334881D01*
X402887Y334835D01*
X403004Y33482D01*
X403122Y334835D01*
X403231Y334881D01*
X403325Y334953D01*
X403398Y335047D01*
X403443Y335156D01*
X403458Y335274D01*
X403443Y335391D01*
X403398Y335501D01*
X403325Y335595D01*
X403231Y335667D01*
X403122Y335712D01*
X403004Y335728D01*
D02*
G37*
G36*
X416228D02*
X41611Y335712D01*
X416001Y335667D01*
X415907Y335595D01*
X415834Y335501D01*
X415789Y335391D01*
X415774Y335274D01*
X415789Y335156D01*
X415834Y335047D01*
X415907Y334953D01*
X416001Y334881D01*
X41611Y334835D01*
X416228Y33482D01*
X416345Y334835D01*
X416455Y334881D01*
X416549Y334953D01*
X416621Y335047D01*
X416666Y335156D01*
X416681Y335274D01*
X416666Y335391D01*
X416621Y335501D01*
X416549Y335595D01*
X416455Y335667D01*
X416345Y335712D01*
X416228Y335728D01*
D02*
G37*
G36*
X417228D02*
X41711Y335712D01*
X417001Y335667D01*
X416907Y335595D01*
X416834Y335501D01*
X416789Y335391D01*
X416774Y335274D01*
X416789Y335156D01*
X416834Y335047D01*
X416907Y334953D01*
X417001Y334881D01*
X41711Y334835D01*
X417228Y33482D01*
X417345Y334835D01*
X417454Y334881D01*
X417548Y334953D01*
X417621Y335047D01*
X417666Y335156D01*
X417681Y335274D01*
X417666Y335391D01*
X417621Y335501D01*
X417548Y335595D01*
X417454Y335667D01*
X417345Y335712D01*
X417228Y335728D01*
D02*
G37*
G36*
X410616D02*
X410499Y335712D01*
X410389Y335667D01*
X410295Y335595D01*
X410223Y335501D01*
X410178Y335391D01*
X410162Y335274D01*
X410178Y335156D01*
X410223Y335047D01*
X410295Y334953D01*
X410389Y334881D01*
X410499Y334835D01*
X410616Y33482D01*
X410733Y334835D01*
X410843Y334881D01*
X410937Y334953D01*
X411009Y335047D01*
X411054Y335156D01*
X41107Y335274D01*
X411054Y335391D01*
X411009Y335501D01*
X410937Y335595D01*
X410843Y335667D01*
X410733Y335712D01*
X410616Y335728D01*
D02*
G37*
G36*
X408616D02*
X408499Y335712D01*
X408389Y335667D01*
X408295Y335595D01*
X408223Y335501D01*
X408178Y335391D01*
X408162Y335274D01*
X408178Y335156D01*
X408223Y335047D01*
X408295Y334953D01*
X408389Y334881D01*
X408499Y334835D01*
X408616Y33482D01*
X408733Y334835D01*
X408843Y334881D01*
X408937Y334953D01*
X409009Y335047D01*
X409054Y335156D01*
X40907Y335274D01*
X409054Y335391D01*
X409009Y335501D01*
X408937Y335595D01*
X408843Y335667D01*
X408733Y335712D01*
X408616Y335728D01*
D02*
G37*
G36*
X409616D02*
X409499Y335712D01*
X409389Y335667D01*
X409295Y335595D01*
X409223Y335501D01*
X409178Y335391D01*
X409162Y335274D01*
X409178Y335156D01*
X409223Y335047D01*
X409295Y334953D01*
X409389Y334881D01*
X409499Y334835D01*
X409616Y33482D01*
X409733Y334835D01*
X409843Y334881D01*
X409937Y334953D01*
X410009Y335047D01*
X410054Y335156D01*
X41007Y335274D01*
X410054Y335391D01*
X410009Y335501D01*
X409937Y335595D01*
X409843Y335667D01*
X409733Y335712D01*
X409616Y335728D01*
D02*
G37*
%LPD*%
G36*
X389968Y330375D02*
X389966Y330355D01*
X389977Y330267D01*
X390011Y330185D01*
X390065Y330115D01*
X390135Y330061D01*
X390217Y330027D01*
X390305Y330016D01*
X390325Y330018D01*
X390345Y329971D01*
X390329Y329958D01*
X390275Y329888D01*
X390241Y329806D01*
X390229Y329719D01*
X390241Y329631D01*
X390275Y329549D01*
X390329Y329479D01*
X390345Y329466D01*
X390325Y329419D01*
X390305Y329421D01*
X390217Y32941D01*
X390135Y329376D01*
X390065Y329322D01*
X390011Y329252D01*
X389977Y32917D01*
X389966Y329082D01*
X389968Y329062D01*
X389921Y329042D01*
X389908Y329058D01*
X389838Y329112D01*
X389756Y329146D01*
X389669Y329158D01*
X389581Y329146D01*
X389499Y329112D01*
X389429Y329058D01*
X389416Y329042D01*
X389369Y329062D01*
X389371Y329082D01*
X38936Y32917D01*
X389326Y329252D01*
X389272Y329322D01*
X389202Y329376D01*
X38912Y32941D01*
X389032Y329421D01*
X389012Y329419D01*
X388992Y329466D01*
X389008Y329479D01*
X389062Y329549D01*
X389096Y329631D01*
X389108Y329719D01*
X389096Y329806D01*
X389062Y329888D01*
X389008Y329958D01*
X388992Y329971D01*
X389012Y330018D01*
X389032Y330016D01*
X38912Y330027D01*
X389202Y330061D01*
X389272Y330115D01*
X389326Y330185D01*
X38936Y330267D01*
X389371Y330355D01*
X389369Y330375D01*
X389416Y330395D01*
X389429Y330379D01*
X389499Y330325D01*
X389581Y330291D01*
X389669Y330279D01*
X389756Y330291D01*
X389838Y330325D01*
X389908Y330379D01*
X389921Y330395D01*
X389968Y330375D01*
D02*
G37*
%LPC*%
G36*
X431417Y34429D02*
X431313Y344277D01*
X431217Y344237D01*
X431135Y344174D01*
X431071Y344091D01*
X431031Y343995D01*
X431018Y343892D01*
X431031Y343789D01*
X431071Y343692D01*
X431135Y34361D01*
X431217Y343546D01*
X431313Y343507D01*
X431417Y343493D01*
X43152Y343507D01*
X431616Y343546D01*
X431698Y34361D01*
X431762Y343692D01*
X431802Y343789D01*
X431815Y343892D01*
X431802Y343995D01*
X431762Y344091D01*
X431698Y344174D01*
X431616Y344237D01*
X43152Y344277D01*
X431417Y34429D01*
D02*
G37*
G36*
X390742Y352773D02*
X390642D01*
X390515Y352761D01*
X390392Y352724D01*
X390279Y352663D01*
X39018Y352582D01*
X390099Y352483D01*
X390039Y35237D01*
X390002Y352248D01*
X389989Y35212D01*
X390002Y351993D01*
X390039Y35187D01*
X390099Y351757D01*
X39018Y351658D01*
X390279Y351577D01*
X390392Y351517D01*
X390515Y351479D01*
X390642Y351467D01*
X390742D01*
X39087Y351479D01*
X390992Y351517D01*
X391105Y351577D01*
X391204Y351658D01*
X391285Y351757D01*
X391346Y35187D01*
X391383Y351993D01*
X391395Y35212D01*
X391383Y352248D01*
X391346Y35237D01*
X391285Y352483D01*
X391204Y352582D01*
X391105Y352663D01*
X390992Y352724D01*
X39087Y352761D01*
X390742Y352773D01*
D02*
G37*
G36*
X430417Y34429D02*
X430313Y344277D01*
X430217Y344237D01*
X430135Y344174D01*
X430071Y344091D01*
X430031Y343995D01*
X430018Y343892D01*
X430031Y343789D01*
X430071Y343692D01*
X430135Y34361D01*
X430217Y343546D01*
X430313Y343507D01*
X430417Y343493D01*
X43052Y343507D01*
X430616Y343546D01*
X430698Y34361D01*
X430762Y343692D01*
X430802Y343789D01*
X430815Y343892D01*
X430802Y343995D01*
X430762Y344091D01*
X430698Y344174D01*
X430616Y344237D01*
X43052Y344277D01*
X430417Y34429D01*
D02*
G37*
G36*
X425889Y357974D02*
X425879Y357972D01*
X425869D01*
X425792Y357957D01*
X425756Y357941D01*
X42569Y357898D01*
X425662Y35787D01*
X425619Y357805D01*
X425604Y357768D01*
X425588Y357691D01*
Y357651D01*
X425604Y357575D01*
X425619Y357538D01*
X425662Y357473D01*
X42569Y357445D01*
X425756Y357401D01*
X425792Y357386D01*
X425869Y357371D01*
X425879D01*
X425889Y357369D01*
X425899Y357371D01*
X425909D01*
X425986Y357386D01*
X426022Y357401D01*
X426088Y357445D01*
X426116Y357473D01*
X426159Y357538D01*
X426174Y357575D01*
X42619Y357651D01*
Y357691D01*
X426174Y357768D01*
X426159Y357805D01*
X426116Y35787D01*
X426088Y357898D01*
X426022Y357941D01*
X425986Y357957D01*
X425909Y357972D01*
X425899D01*
X425889Y357974D01*
D02*
G37*
G36*
X44085Y358563D02*
X440649Y358547D01*
X440452Y3585D01*
X440266Y358423D01*
X440094Y358317D01*
X439941Y358186D01*
X43981Y358033D01*
X439705Y357861D01*
X439627Y357675D01*
X43958Y357479D01*
X439565Y357278D01*
X43958Y357077D01*
X439627Y35688D01*
X439705Y356694D01*
X43981Y356522D01*
X439941Y356369D01*
X440094Y356238D01*
X440266Y356133D01*
X440452Y356055D01*
X440649Y356008D01*
X44085Y355993D01*
X441051Y356008D01*
X441247Y356055D01*
X441433Y356133D01*
X441605Y356238D01*
X441758Y356369D01*
X441889Y356522D01*
X441995Y356694D01*
X442072Y35688D01*
X442119Y357077D01*
X442135Y357278D01*
X442119Y357479D01*
X442072Y357675D01*
X441995Y357861D01*
X441889Y358033D01*
X441758Y358186D01*
X441605Y358317D01*
X441433Y358423D01*
X441247Y3585D01*
X441051Y358547D01*
X44085Y358563D01*
D02*
G37*
G36*
X409043Y35808D02*
X408452D01*
X408413Y358073D01*
X40838Y35805D01*
X408358Y358017D01*
X40835Y357978D01*
Y357388D01*
X408358Y357349D01*
X40838Y357316D01*
X408413Y357294D01*
X408452Y357286D01*
X409043D01*
X409082Y357294D01*
X409115Y357316D01*
X409137Y357349D01*
X409144Y357388D01*
Y357978D01*
X409137Y358017D01*
X409115Y35805D01*
X409082Y358073D01*
X409043Y35808D01*
D02*
G37*
G36*
X422739Y357974D02*
X42273Y357972D01*
X422719D01*
X422643Y357957D01*
X422606Y357941D01*
X422541Y357898D01*
X422513Y35787D01*
X422469Y357805D01*
X422454Y357768D01*
X422439Y357691D01*
Y357651D01*
X422454Y357575D01*
X422469Y357538D01*
X422513Y357473D01*
X422541Y357445D01*
X422606Y357401D01*
X422643Y357386D01*
X422719Y357371D01*
X42273D01*
X422739Y357369D01*
X422749Y357371D01*
X422759D01*
X422836Y357386D01*
X422873Y357401D01*
X422938Y357445D01*
X422966Y357473D01*
X42301Y357538D01*
X423025Y357575D01*
X42304Y357651D01*
Y357691D01*
X423025Y357768D01*
X42301Y357805D01*
X422966Y35787D01*
X422938Y357898D01*
X422873Y357941D01*
X422836Y357957D01*
X422759Y357972D01*
X422749D01*
X422739Y357974D01*
D02*
G37*
G36*
X437562Y358271D02*
X437444D01*
X437328Y358248D01*
X437219Y358203D01*
X437121Y358137D01*
X437037Y358054D01*
X436971Y357955D01*
X436926Y357846D01*
X436903Y35773D01*
Y357612D01*
X436926Y357496D01*
X436971Y357387D01*
X437037Y357289D01*
X437121Y357205D01*
X437219Y35714D01*
X437328Y357094D01*
X437444Y357071D01*
X437562D01*
X437678Y357094D01*
X437787Y35714D01*
X437886Y357205D01*
X437969Y357289D01*
X438035Y357387D01*
X43808Y357496D01*
X438103Y357612D01*
Y35773D01*
X43808Y357846D01*
X438035Y357955D01*
X437969Y358054D01*
X437886Y358137D01*
X437787Y358203D01*
X437678Y358248D01*
X437562Y358271D01*
D02*
G37*
G36*
X432873Y358082D02*
X43277Y358068D01*
X432674Y358028D01*
X432591Y357965D01*
X432528Y357882D01*
X432488Y357786D01*
X432475Y357683D01*
X432488Y35758D01*
X432528Y357484D01*
X432591Y357401D01*
X432669Y357341D01*
Y356708D01*
X432596Y356634D01*
X412207D01*
X41218Y35667D01*
X41211Y356724D01*
X412028Y356758D01*
X41194Y356769D01*
X411852Y356758D01*
X41177Y356724D01*
X4117Y35667D01*
X411646Y3566D01*
X411612Y356518D01*
X411601Y35643D01*
X411612Y356342D01*
X411646Y35626D01*
X4117Y35619D01*
X41177Y356136D01*
X411852Y356102D01*
X41194Y356091D01*
X412028Y356102D01*
X41211Y356136D01*
X41218Y35619D01*
X412207Y356226D01*
X43268D01*
X432758Y356242D01*
X432824Y356286D01*
X433017Y356479D01*
X433062Y356545D01*
X433077Y356623D01*
X433077Y356623D01*
Y357341D01*
X433155Y357401D01*
X433218Y357484D01*
X433258Y35758D01*
X433272Y357683D01*
X433258Y357786D01*
X433218Y357882D01*
X433155Y357965D01*
X433073Y358028D01*
X432976Y358068D01*
X432873Y358082D01*
D02*
G37*
G36*
X393665Y358271D02*
X393546D01*
X39343Y358248D01*
X393321Y358203D01*
X393223Y358137D01*
X393139Y358054D01*
X393074Y357955D01*
X393029Y357846D01*
X393006Y35773D01*
Y357612D01*
X393029Y357496D01*
X393074Y357387D01*
X393139Y357289D01*
X393223Y357205D01*
X393321Y35714D01*
X39343Y357094D01*
X393546Y357071D01*
X393665D01*
X393781Y357094D01*
X39389Y35714D01*
X393988Y357205D01*
X394072Y357289D01*
X394137Y357387D01*
X394182Y357496D01*
X394206Y357612D01*
Y35773D01*
X394182Y357846D01*
X394137Y357955D01*
X394072Y358054D01*
X393988Y358137D01*
X39389Y358203D01*
X393781Y358248D01*
X393665Y358271D01*
D02*
G37*
%LPD*%
D14*
X415948Y345545D02*
D03*
X415279D02*
D03*
D15*
X417109Y346178D02*
D03*
Y345508D02*
D03*
X416519Y346178D02*
D03*
Y345508D02*
D03*
X416637Y348833D02*
D03*
Y349502D02*
D03*
X416046Y348833D02*
D03*
Y349502D02*
D03*
D18*
X41998Y345407D02*
D03*
Y345053D02*
D03*
D20*
X423973Y35429D02*
D03*
X424327D02*
D03*
X416843Y34503D02*
D03*
X417197D02*
D03*
D22*
X389472Y335033D02*
D03*
X437503Y357671D02*
D03*
X393605D02*
D03*
D36*
X412583Y355683D02*
X433273D01*
D37*
X424327Y35393D02*
Y35429D01*
Y35393D02*
X424354Y353904D01*
X413153Y349367D02*
Y351533D01*
X413403Y351783D01*
X416597D01*
X416046Y349502D02*
X416637D01*
X416597Y349542D02*
Y351783D01*
Y349542D02*
X416637Y349502D01*
X416597Y351783D02*
X4166Y351785D01*
X418185D01*
X418714Y353904D02*
X424354D01*
X418185Y353375D02*
X418714Y353904D01*
X418185Y351785D02*
Y353375D01*
Y349825D02*
X418815Y349195D01*
X419965D01*
X418185Y349825D02*
Y351785D01*
X422195Y348655D02*
X424885D01*
X432873Y356623D02*
Y357683D01*
X43268Y35643D02*
X432873Y356623D01*
X41194Y35643D02*
X43268D01*
X42113Y34803D02*
X42164D01*
Y3481D02*
X422195Y348655D01*
X42164Y34803D02*
Y3481D01*
X419965Y349195D02*
X42113Y34803D01*
D38*
X416462Y346178D02*
X416519D01*
X41624Y3464D02*
X416462Y346178D01*
X415279Y345069D02*
Y345545D01*
X415259Y345049D02*
X415279Y345069D01*
X395393Y342274D02*
X399514D01*
X415673Y348833D02*
X416046D01*
X415653Y348813D02*
X415673Y348833D01*
X399514Y342274D02*
X404982Y347742D01*
X416812D01*
X41685Y34778D01*
X40483Y34797D02*
X41625D01*
X39965Y34279D02*
X40483Y34797D01*
X39491Y34279D02*
X39965D01*
X394393Y342274D02*
X39491Y34279D01*
X422458Y346648D02*
X435548D01*
X42197Y34722D02*
X4224Y34765D01*
X43153D01*
X43206Y34818D01*
Y35195D01*
X4217Y34738D02*
X42224Y34792D01*
X43132D01*
X43172Y34832D01*
Y35194D01*
X43255Y35277D01*
X43256D01*
X430873Y358683D02*
X4314Y358156D01*
X42224Y34701D02*
X42262Y34739D01*
X43172D01*
X43237Y34804D01*
Y35206D01*
X43372Y35341D01*
Y35672D01*
X4314Y3573D02*
Y358156D01*
X416637Y348833D02*
X417077D01*
X41709Y34882D01*
X416046Y348833D02*
X416359Y34852D01*
X44128Y34086D02*
X44177Y34037D01*
X440456Y337986D02*
X44177Y3393D01*
Y34037D01*
X437291Y329719D02*
X43755D01*
X41668Y34822D02*
X41943D01*
X42825Y3394D01*
X43786D01*
X416359Y34852D02*
X41946D01*
X427994Y339986D01*
X440456D01*
X419497Y348833D02*
X42747Y34086D01*
X44128D01*
X416519Y346178D02*
X416797Y3459D01*
X417109Y346178D02*
X420472D01*
X416797Y3459D02*
X42044D01*
X43555Y33079D01*
Y329719D02*
Y33079D01*
X420472Y346178D02*
X43573Y33092D01*
X43609D01*
X437291Y329719D01*
X416627Y34666D02*
X417109Y346178D01*
X41651Y34666D02*
X416627D01*
X42116Y34445D02*
X428495Y337115D01*
Y329719D02*
Y337115D01*
X42123Y34395D02*
X42135D01*
X426495Y338805D01*
Y329719D02*
Y338805D01*
X4189Y34028D02*
X41919Y34057D01*
X41435Y34028D02*
X4189D01*
X40611Y34081D02*
X41865D01*
X40317Y34161D02*
X41405D01*
X40187Y34031D02*
X40317Y34161D01*
X39908Y34031D02*
X40187D01*
X41844Y34344D02*
X41884Y34304D01*
X41865Y34081D02*
X41884Y341D01*
Y34304D01*
X42069Y3415D02*
Y34295D01*
Y3415D02*
X421381Y340809D01*
X415456Y343864D02*
X420856D01*
X42293Y34179D01*
X42052Y34369D02*
X4209Y34331D01*
X41405Y34161D02*
X41613Y34369D01*
X42052D01*
X417264Y349404D02*
Y350376D01*
X41704Y3506D02*
Y35115D01*
Y3506D02*
X417264Y350376D01*
X4314Y3573D02*
X43177Y35693D01*
X43222D01*
X40935Y34358D02*
Y34681D01*
Y34358D02*
X40936Y34357D01*
X40893Y34322D02*
Y34734D01*
X41919Y34057D02*
Y34343D01*
X41709Y348833D02*
X419497D01*
D39*
X416519Y345508D02*
X417109D01*
X417197Y345421D01*
Y34503D02*
Y345421D01*
X419957Y34503D02*
X41998Y345053D01*
X416519Y345209D02*
Y345508D01*
X41597Y34466D02*
X416519Y345209D01*
X41315Y34466D02*
X41597D01*
X41998Y34469D02*
Y345053D01*
Y34469D02*
X420237Y344433D01*
X417197Y34503D02*
X419957D01*
D40*
X41146Y34831D02*
X41348D01*
X410747Y349023D02*
X41146Y34831D01*
X410747Y349023D02*
Y357683D01*
X41165Y34865D02*
X41361D01*
X41121Y34909D02*
X41165Y34865D01*
X41121Y34909D02*
Y357146D01*
X411747Y357683D01*
D42*
X431417Y343892D02*
D03*
X430417D02*
D03*
X408747Y358683D02*
D03*
X409747Y357683D02*
D03*
Y358683D02*
D03*
X410747Y357683D02*
D03*
Y358683D02*
D03*
X411747Y357683D02*
D03*
Y358683D02*
D03*
X432873Y357683D02*
D03*
X431873Y358683D02*
D03*
Y357683D02*
D03*
X430873Y358683D02*
D03*
Y357683D02*
D03*
D43*
X429417Y343892D02*
D03*
X408747Y357683D02*
D03*
X432873Y358683D02*
D03*
D44*
X403235Y3329D02*
D03*
X402235D02*
D03*
X395361D02*
D03*
X394361D02*
D03*
X410716D02*
D03*
X409716D02*
D03*
X418196D02*
D03*
X417196D02*
D03*
D45*
X404235Y3309D02*
D03*
X400235D02*
D03*
X396361D02*
D03*
X392361D02*
D03*
X411716D02*
D03*
X407716D02*
D03*
X419196D02*
D03*
X415196D02*
D03*
D46*
X440456Y333986D02*
D03*
D47*
Y335986D02*
D03*
Y337986D02*
D03*
Y339986D02*
D03*
Y341986D02*
D03*
D48*
X44085Y329719D02*
D03*
X388487Y337593D02*
D03*
Y357278D02*
D03*
X44085D02*
D03*
D49*
X390692Y35412D02*
D03*
Y35212D02*
D03*
D50*
X387668Y332081D02*
D03*
X389669D02*
D03*
D51*
X393393Y342274D02*
D03*
X394393D02*
D03*
X395393D02*
D03*
Y335274D02*
D03*
X394393D02*
D03*
X393393D02*
D03*
X401004Y342274D02*
D03*
X402004D02*
D03*
X403004D02*
D03*
Y335274D02*
D03*
X402004D02*
D03*
X401004D02*
D03*
X408616Y342274D02*
D03*
X409616D02*
D03*
X410616D02*
D03*
Y335274D02*
D03*
X409616D02*
D03*
X408616D02*
D03*
X416228Y342274D02*
D03*
X417228D02*
D03*
X418228D02*
D03*
Y335274D02*
D03*
X417228D02*
D03*
X416228D02*
D03*
D52*
X43155Y329719D02*
D03*
X422495D02*
D03*
D53*
X43355D02*
D03*
X43555D02*
D03*
X43755D02*
D03*
X424495D02*
D03*
X426495D02*
D03*
X428495D02*
D03*
D54*
X425889Y357671D02*
D03*
X422739D02*
D03*
D55*
X438999Y345309D02*
D03*
X438251Y34527D02*
D03*
X437582D02*
D03*
X436952Y34523D02*
D03*
X436913Y353852D02*
D03*
X437661D02*
D03*
X438527D02*
D03*
X439314D02*
D03*
X41624Y3464D02*
D03*
X415259Y345049D02*
D03*
X41685Y34778D02*
D03*
X41625Y34797D02*
D03*
X415653Y348813D02*
D03*
X41348Y34831D02*
D03*
X41361Y34865D02*
D03*
X4217Y34738D02*
D03*
X42197Y34722D02*
D03*
X422458Y346648D02*
D03*
X435548D02*
D03*
X43206Y35195D02*
D03*
X42224Y34701D02*
D03*
X43256Y35277D02*
D03*
X43372Y35672D02*
D03*
X41709Y34882D02*
D03*
X41668Y34822D02*
D03*
X43786Y3394D02*
D03*
X41651Y34666D02*
D03*
X415456Y343864D02*
D03*
X42116Y34445D02*
D03*
X42123Y34395D02*
D03*
X421381Y340809D02*
D03*
X41435Y34028D02*
D03*
X40611Y34081D02*
D03*
X420237Y344433D02*
D03*
X39908Y34031D02*
D03*
X4192Y34343D02*
D03*
X41844Y34344D02*
D03*
X41764Y34502D02*
D03*
X4209Y34331D02*
D03*
X42069Y34295D02*
D03*
X42293Y34179D02*
D03*
X424885Y348655D02*
D03*
X417264Y349404D02*
D03*
X41704Y35115D02*
D03*
X43222Y35693D02*
D03*
X40893Y34734D02*
D03*
X40935Y34681D02*
D03*
X40936Y34357D02*
D03*
X40893Y34322D02*
D03*
X424117Y351766D02*
D03*
X424413Y352159D02*
D03*
Y352652D02*
D03*
X4252Y35275D02*
D03*
Y352061D02*
D03*
X425102Y351372D02*
D03*
X424216Y351274D02*
D03*
X423133D02*
D03*
X421952D02*
D03*
X421165D02*
D03*
X419983D02*
D03*
X42018Y351766D02*
D03*
X420869D02*
D03*
X42146D02*
D03*
X422444D02*
D03*
X423527D02*
D03*
X413684Y350388D02*
D03*
X414373D02*
D03*
X414964D02*
D03*
X418704Y349896D02*
D03*
X419294D02*
D03*
X419885D02*
D03*
X418999Y352553D02*
D03*
X417621Y349797D02*
D03*
X417818Y349108D02*
D03*
X418212D02*
D03*
X417129Y34714D02*
D03*
X417621D02*
D03*
X418015D02*
D03*
X415456D02*
D03*
X416046D02*
D03*
X419196Y347435D02*
D03*
X419688Y34714D02*
D03*
X422247Y344876D02*
D03*
X422543Y344581D02*
D03*
X422936Y344285D02*
D03*
X424413Y342711D02*
D03*
X424905Y342317D02*
D03*
X425298Y341825D02*
D03*
X422149Y343793D02*
D03*
X424609Y341333D02*
D03*
X424983Y340978D02*
D03*
X425417Y340585D02*
D03*
X426952Y33901D02*
D03*
X427306Y338695D02*
D03*
X427661Y338301D02*
D03*
X429393Y335978D02*
D03*
X429865Y335309D02*
D03*
X430023Y332632D02*
D03*
Y331884D02*
D03*
X43018Y331018D02*
D03*
X42455Y332474D02*
D03*
Y331884D02*
D03*
X42459Y331451D02*
D03*
X4327Y332553D02*
D03*
X433054Y332081D02*
D03*
X433212Y331648D02*
D03*
X433566Y335388D02*
D03*
X434669Y335348D02*
D03*
X435259Y335427D02*
D03*
X436165D02*
D03*
X436716Y332593D02*
D03*
X437503D02*
D03*
X438212Y332553D02*
D03*
X429905Y338774D02*
D03*
X430928D02*
D03*
X431716Y338695D02*
D03*
X429669Y340506D02*
D03*
X430102D02*
D03*
X430771Y340467D02*
D03*
X426598Y345821D02*
D03*
X427109Y34586D02*
D03*
X427582Y345821D02*
D03*
X420298Y352868D02*
D03*
X420889Y352907D02*
D03*
X421716Y352868D02*
D03*
X420495Y350703D02*
D03*
X421086Y350742D02*
D03*
X42148Y350152D02*
D03*
X422188D02*
D03*
X425417Y350782D02*
D03*
X426401Y350388D02*
D03*
X426755Y351096D02*
D03*
X426676Y351844D02*
D03*
X42707Y352907D02*
D03*
X419157Y35464D02*
D03*
X42022D02*
D03*
X421007Y354679D02*
D03*
X423212Y354797D02*
D03*
X424275Y354876D02*
D03*
X425023D02*
D03*
X42581Y354797D02*
D03*
X42707Y35464D02*
D03*
X41522Y357002D02*
D03*
X416519Y357041D02*
D03*
X418054Y356963D02*
D03*
X414905Y355033D02*
D03*
X416046Y35523D02*
D03*
X416873D02*
D03*
X429039Y355073D02*
D03*
X430535Y355191D02*
D03*
X431322Y354837D02*
D03*
X431676Y354482D02*
D03*
X43392Y357199D02*
D03*
X434196Y357986D02*
D03*
X428684Y357002D02*
D03*
X429708Y356963D02*
D03*
X431086Y351136D02*
D03*
X431046Y350309D02*
D03*
Y349128D02*
D03*
X430732Y34838D02*
D03*
X433054Y3509D02*
D03*
X432976Y349364D02*
D03*
X433015Y348459D02*
D03*
X430456Y347081D02*
D03*
X432228Y34712D02*
D03*
X432739Y347593D02*
D03*
X433566Y351963D02*
D03*
X434117Y352789D02*
D03*
X425928Y343498D02*
D03*
X426676Y342474D02*
D03*
X427543Y341805D02*
D03*
X434865Y341136D02*
D03*
X435653Y341254D02*
D03*
X42459Y339679D02*
D03*
X42518Y339128D02*
D03*
X425613Y338577D02*
D03*
X424275Y336687D02*
D03*
X424432Y335427D02*
D03*
X424865Y334758D02*
D03*
X421952Y334364D02*
D03*
X421361Y332711D02*
D03*
Y331175D02*
D03*
X417109Y337593D02*
D03*
X417936D02*
D03*
X418684Y337632D02*
D03*
X417464Y336175D02*
D03*
X41833D02*
D03*
X419117Y336018D02*
D03*
X409157Y337435D02*
D03*
X409787Y337396D02*
D03*
X410417Y337474D02*
D03*
X410062Y336057D02*
D03*
X410495D02*
D03*
X409629D02*
D03*
X402109Y337711D02*
D03*
X402621D02*
D03*
X403054D02*
D03*
X402267Y336136D02*
D03*
X402739Y336096D02*
D03*
X403251D02*
D03*
X406322Y338734D02*
D03*
Y338301D02*
D03*
X406401Y33775D02*
D03*
X413881Y338656D02*
D03*
Y338222D02*
D03*
X41392Y337671D02*
D03*
X398881Y338262D02*
D03*
Y337907D02*
D03*
Y337514D02*
D03*
X395968Y3359D02*
D03*
X396401D02*
D03*
X396716D02*
D03*
X394983Y337278D02*
D03*
X395417D02*
D03*
X394511D02*
D03*
X393409Y355348D02*
D03*
X394235D02*
D03*
X395259Y355309D02*
D03*
X395338Y353537D02*
D03*
X39581Y353498D02*
D03*
X396243Y353459D02*
D03*
X398605Y353144D02*
D03*
Y353813D02*
D03*
Y354285D02*
D03*
X400456Y354167D02*
D03*
X401165Y35397D02*
D03*
X401401Y353419D02*
D03*
Y352907D02*
D03*
X40144Y352396D02*
D03*
X398369Y351411D02*
D03*
Y350939D02*
D03*
X398094Y35023D02*
D03*
X397818Y349522D02*
D03*
X398291Y349167D02*
D03*
X394472Y346805D02*
D03*
X39459Y34586D02*
D03*
Y34523D02*
D03*
X401519Y343183D02*
D03*
X402188Y343577D02*
D03*
X403212Y343498D02*
D03*
X412109Y347081D02*
D03*
X412149Y346608D02*
D03*
X412188Y346096D02*
D03*
X413645Y346608D02*
D03*
Y346136D02*
D03*
X41392Y346411D02*
D03*
X413842Y345112D02*
D03*
X413999Y344128D02*
D03*
X414511D02*
D03*
X415298Y346175D02*
D03*
X415732Y346136D02*
D03*
X416125Y345939D02*
D03*
X416794Y34523D02*
D03*
X418291Y345427D02*
D03*
X418684Y345388D02*
D03*
X419157Y345427D02*
D03*
X425338Y347041D02*
D03*
X42585D02*
D03*
X426283D02*
D03*
X423015Y34712D02*
D03*
X426165Y348656D02*
D03*
X426676D02*
D03*
X427149Y348616D02*
D03*
X425889Y349404D02*
D03*
X414629Y352199D02*
D03*
X41522D02*
D03*
X417621Y352829D02*
D03*
X415338Y349797D02*
D03*
X412188Y349404D02*
D03*
X412228Y349837D02*
D03*
X412385Y35027D02*
D03*
X421991Y338419D02*
D03*
X422149Y337671D02*
D03*
X442464Y353852D02*
D03*
X441663D02*
D03*
X440863D02*
D03*
X440062D02*
D03*
X436519Y353428D02*
D03*
Y352531D02*
D03*
Y351635D02*
D03*
Y350738D02*
D03*
Y349841D02*
D03*
Y348944D02*
D03*
Y348047D02*
D03*
Y347151D02*
D03*
Y346254D02*
D03*
X439747Y345309D02*
D03*
X4406D02*
D03*
X441453D02*
D03*
X442306Y345309D02*
D03*
Y344502D02*
D03*
Y343695D02*
D03*
X442543Y354364D02*
D03*
Y355427D02*
D03*
Y35653D02*
D03*
X442503Y357868D02*
D03*
X442464Y358734D02*
D03*
X399472Y35215D02*
D03*
Y351854D02*
D03*
X399777D02*
D03*
Y35215D02*
D03*
D56*
X424354Y353904D02*
D03*
X418185Y351785D02*
D03*
X413153Y349367D02*
D03*
X433273Y355683D02*
D03*
X416597Y351783D02*
D03*
X41315Y34466D02*
D03*
X41194Y35643D02*
D03*
X412583Y355683D02*
D03*
X42164Y34803D02*
D03*
X440213Y330355D02*
D03*
X44085Y330619D02*
D03*
X441486Y330355D02*
D03*
Y329082D02*
D03*
X44085Y328819D02*
D03*
X440213Y329082D02*
D03*
X43995Y329719D02*
D03*
X44175D02*
D03*
X387851Y338229D02*
D03*
X388487Y338493D02*
D03*
X389124Y338229D02*
D03*
Y336956D02*
D03*
X388487Y336693D02*
D03*
X387851Y336956D02*
D03*
X387587Y337593D02*
D03*
X389387D02*
D03*
Y357278D02*
D03*
X387587D02*
D03*
X387851Y356641D02*
D03*
X388487Y356378D02*
D03*
X389124Y356641D02*
D03*
Y357914D02*
D03*
X388487Y358178D02*
D03*
X387851Y357914D02*
D03*
X440213D02*
D03*
X44085Y358178D02*
D03*
X441486Y357914D02*
D03*
Y356641D02*
D03*
X44085Y356378D02*
D03*
X440213Y356641D02*
D03*
X43995Y357278D02*
D03*
X44175D02*
D03*
M02*
