G04 Layer_Color=8388736*
%FSTAX24Y24*%
%MOIN*%
G70*
G01*
G75*
%ADD69R,0.0356X0.0867*%
%ADD70R,0.0867X0.0356*%
%ADD71R,0.0198X0.0655*%
%ADD72R,0.0655X0.0198*%
%ADD73R,0.0336X0.0415*%
%ADD74R,0.0415X0.0336*%
%ADD75R,0.0592X0.0375*%
%ADD76R,0.0580X0.0630*%
%ADD77R,0.0281X0.0297*%
%ADD78R,0.0630X0.0580*%
%ADD79R,0.0297X0.0281*%
%ADD80R,0.0926X0.0986*%
%ADD81C,0.1200*%
%ADD82R,0.0316X0.0434*%
%ADD83R,0.0789X0.0474*%
%ADD84R,0.0474X0.0316*%
%ADD85R,0.0380X0.0380*%
%ADD86R,0.0552X0.0946*%
%ADD87R,0.0356X0.0710*%
%ADD88R,0.0552X0.0631*%
%ADD89R,0.0710X0.0631*%
%ADD90O,0.0178X0.0415*%
%ADD91O,0.0415X0.0178*%
%ADD92R,0.0671X0.0671*%
%ADD93R,0.0380X0.0380*%
%ADD94R,0.0434X0.0316*%
%ADD95C,0.0671*%
%ADD96R,0.0671X0.0671*%
%ADD97O,0.0780X0.0880*%
%ADD98C,0.1458*%
%ADD99R,0.1655X0.1261*%
%ADD100O,0.1655X0.1261*%
%ADD101C,0.2442*%
%ADD102O,0.1280X0.1180*%
%ADD103O,0.1180X0.1280*%
%ADD104C,0.0780*%
%ADD105R,0.1261X0.1655*%
%ADD106O,0.1261X0.1655*%
%ADD107C,0.0474*%
D69*
X43655Y345467D02*
D03*
X43605Y345467D02*
D03*
X43555Y345467D02*
D03*
X43505Y345467D02*
D03*
X43455D02*
D03*
X43405Y345467D02*
D03*
X43355Y345467D02*
D03*
X43305Y345467D02*
D03*
X43255Y345467D02*
D03*
X43205Y345467D02*
D03*
X43155Y345467D02*
D03*
X43105Y345467D02*
D03*
X43055Y345467D02*
D03*
X43055Y353561D02*
D03*
X43655Y353561D02*
D03*
X43605D02*
D03*
X43555Y353561D02*
D03*
X43505Y353561D02*
D03*
X43455Y353561D02*
D03*
X43405Y353561D02*
D03*
X43355Y353561D02*
D03*
X43305D02*
D03*
X43255Y353561D02*
D03*
X43205Y353561D02*
D03*
X43155Y353561D02*
D03*
X43105D02*
D03*
D70*
X42955Y347514D02*
D03*
X42955Y348014D02*
D03*
X42955Y348514D02*
D03*
X42955Y349014D02*
D03*
Y349526D02*
D03*
Y350014D02*
D03*
X42955Y350514D02*
D03*
X42955Y351014D02*
D03*
X42955Y351514D02*
D03*
D71*
X419983Y350437D02*
D03*
X419787Y350437D02*
D03*
X41959D02*
D03*
X419393D02*
D03*
X419196Y350437D02*
D03*
X418999D02*
D03*
X418802D02*
D03*
X418605D02*
D03*
X418409D02*
D03*
X418212D02*
D03*
X418015D02*
D03*
X417818D02*
D03*
X417621D02*
D03*
X417424D02*
D03*
X417228D02*
D03*
X417031D02*
D03*
X416834D02*
D03*
X416637D02*
D03*
X41644D02*
D03*
X416243D02*
D03*
X416046D02*
D03*
X41585D02*
D03*
X415653Y350437D02*
D03*
X415456D02*
D03*
X415259Y350437D02*
D03*
X415259Y344433D02*
D03*
X415456D02*
D03*
X415653D02*
D03*
X41585D02*
D03*
X416046Y344433D02*
D03*
X416243D02*
D03*
X41644Y344433D02*
D03*
X416637D02*
D03*
X416834Y344433D02*
D03*
X417031D02*
D03*
X417228D02*
D03*
X417424D02*
D03*
X417621D02*
D03*
X417818Y344433D02*
D03*
X418015Y344433D02*
D03*
X418212D02*
D03*
X418409D02*
D03*
X418605D02*
D03*
X418802D02*
D03*
X418999Y344433D02*
D03*
X419196D02*
D03*
X419393D02*
D03*
X41959D02*
D03*
X419787D02*
D03*
X419983Y344433D02*
D03*
D72*
X414619Y349797D02*
D03*
X414619Y3496D02*
D03*
Y349404D02*
D03*
Y349207D02*
D03*
X414619Y34901D02*
D03*
Y348813D02*
D03*
Y348616D02*
D03*
Y348419D02*
D03*
Y348222D02*
D03*
Y348026D02*
D03*
Y347829D02*
D03*
Y347632D02*
D03*
Y347435D02*
D03*
Y347238D02*
D03*
Y347041D02*
D03*
Y346844D02*
D03*
Y346648D02*
D03*
Y346451D02*
D03*
Y346254D02*
D03*
Y346057D02*
D03*
Y34586D02*
D03*
X414619Y345663D02*
D03*
Y345467D02*
D03*
Y34527D02*
D03*
X414619Y345073D02*
D03*
X420623D02*
D03*
Y34527D02*
D03*
Y345467D02*
D03*
Y345663D02*
D03*
Y34586D02*
D03*
Y346057D02*
D03*
Y346254D02*
D03*
Y346451D02*
D03*
X420623Y346648D02*
D03*
Y346844D02*
D03*
Y347041D02*
D03*
X420623Y347238D02*
D03*
X420623Y347435D02*
D03*
Y347632D02*
D03*
X420623Y347829D02*
D03*
Y348026D02*
D03*
Y348222D02*
D03*
X420623Y348419D02*
D03*
Y348616D02*
D03*
X420623Y348813D02*
D03*
Y34901D02*
D03*
X420623Y349207D02*
D03*
Y349404D02*
D03*
Y3496D02*
D03*
Y349797D02*
D03*
D73*
X406105Y34027D02*
D03*
X405436D02*
D03*
X398468Y34027D02*
D03*
X397798Y34027D02*
D03*
X421381Y34027D02*
D03*
X420712D02*
D03*
X413743D02*
D03*
X413074D02*
D03*
X424885Y348262D02*
D03*
X424216D02*
D03*
X402011Y34964D02*
D03*
X401342D02*
D03*
D74*
X417621Y352297D02*
D03*
Y351628D02*
D03*
X421873Y346116D02*
D03*
Y345447D02*
D03*
X422464Y346116D02*
D03*
Y345447D02*
D03*
X42644Y349148D02*
D03*
Y349817D02*
D03*
X42707Y349148D02*
D03*
Y349817D02*
D03*
X416283Y353872D02*
D03*
Y354541D02*
D03*
X433724Y356352D02*
D03*
Y355683D02*
D03*
X400613Y350329D02*
D03*
Y349659D02*
D03*
D75*
X401401Y348026D02*
D03*
Y347238D02*
D03*
X399432Y348026D02*
D03*
Y347238D02*
D03*
X400417Y348026D02*
D03*
Y347238D02*
D03*
D76*
X396361Y352474D02*
D03*
X395461D02*
D03*
X399314Y349679D02*
D03*
X398414D02*
D03*
D77*
X41585Y352137D02*
D03*
Y351783D02*
D03*
X418527Y35214D02*
D03*
Y351785D02*
D03*
X437306Y333951D02*
D03*
Y334305D02*
D03*
X397936Y352376D02*
D03*
Y35273D02*
D03*
X39952Y353633D02*
D03*
Y353987D02*
D03*
X399649Y350388D02*
D03*
Y350742D02*
D03*
D78*
X397267Y352474D02*
D03*
Y353374D02*
D03*
D79*
X422444Y332278D02*
D03*
X422798D02*
D03*
X431499D02*
D03*
X431854D02*
D03*
X398153Y337947D02*
D03*
X398507D02*
D03*
X405672Y337947D02*
D03*
X406027D02*
D03*
X413192Y337947D02*
D03*
X413546D02*
D03*
X421066Y337947D02*
D03*
X42142D02*
D03*
X42272Y347632D02*
D03*
X422365D02*
D03*
X425476Y345663D02*
D03*
X42583D02*
D03*
X425397Y348262D02*
D03*
X425751D02*
D03*
X412798Y34901D02*
D03*
X413153D02*
D03*
X412798Y349797D02*
D03*
X413153D02*
D03*
Y347041D02*
D03*
X412798D02*
D03*
X413153Y345467D02*
D03*
X412798D02*
D03*
X435279Y3546D02*
D03*
X435633D02*
D03*
X399039Y350388D02*
D03*
X398684D02*
D03*
D80*
X393999Y352465D02*
D03*
Y353823D02*
D03*
D81*
Y357278D02*
D03*
X437109Y336805D02*
D03*
Y357278D02*
D03*
D82*
X398507Y339541D02*
D03*
X397759Y339541D02*
D03*
X398133Y338636D02*
D03*
X406145Y339541D02*
D03*
X405397D02*
D03*
X405771Y338636D02*
D03*
X413783Y339541D02*
D03*
X413035D02*
D03*
X413409Y338636D02*
D03*
X42142Y339541D02*
D03*
X420672D02*
D03*
X421046Y338636D02*
D03*
D83*
X427109Y346805D02*
D03*
X424354D02*
D03*
D84*
X424324Y349069D02*
D03*
Y349443D02*
D03*
Y349817D02*
D03*
X425407D02*
D03*
X425407Y349443D02*
D03*
X425407Y349069D02*
D03*
D85*
X416952Y353946D02*
D03*
Y354506D02*
D03*
D86*
X426991Y357514D02*
D03*
X420889D02*
D03*
D87*
X426519Y353301D02*
D03*
X426086Y353301D02*
D03*
X425653Y353301D02*
D03*
X42522D02*
D03*
X424787D02*
D03*
X424354Y353301D02*
D03*
X42392Y353301D02*
D03*
X423487D02*
D03*
X423054D02*
D03*
D88*
X426991Y353734D02*
D03*
D89*
X421243D02*
D03*
D90*
X399334Y351431D02*
D03*
X399531D02*
D03*
X399728D02*
D03*
X399924D02*
D03*
Y352573D02*
D03*
X399728D02*
D03*
X399531D02*
D03*
X399334D02*
D03*
D91*
X4002Y351707D02*
D03*
Y351904D02*
D03*
Y3521D02*
D03*
Y352297D02*
D03*
X399058D02*
D03*
Y3521D02*
D03*
Y351904D02*
D03*
Y351707D02*
D03*
D92*
X399629Y352002D02*
D03*
D93*
X401376Y350309D02*
D03*
X401936D02*
D03*
D94*
X434373Y356392D02*
D03*
X434373Y355644D02*
D03*
X435279Y356018D02*
D03*
D95*
X431417Y343892D02*
D03*
X430417D02*
D03*
X408747Y358683D02*
D03*
X409747Y357683D02*
D03*
Y358683D02*
D03*
X410747Y357683D02*
D03*
Y358683D02*
D03*
X411747Y357683D02*
D03*
Y358683D02*
D03*
X432873Y357683D02*
D03*
X431873Y358683D02*
D03*
Y357683D02*
D03*
X430873Y358683D02*
D03*
Y357683D02*
D03*
D96*
X429417Y343892D02*
D03*
X408747Y357683D02*
D03*
X432873Y358683D02*
D03*
D97*
X403235Y3329D02*
D03*
X402235D02*
D03*
X395361D02*
D03*
X394361D02*
D03*
X410716D02*
D03*
X409716D02*
D03*
X418196D02*
D03*
X417196D02*
D03*
D98*
X404235Y3309D02*
D03*
X400235D02*
D03*
X396361D02*
D03*
X392361D02*
D03*
X411716D02*
D03*
X407716D02*
D03*
X419196D02*
D03*
X415196D02*
D03*
D99*
X440456Y333986D02*
D03*
D100*
Y335986D02*
D03*
Y337986D02*
D03*
Y339986D02*
D03*
Y341986D02*
D03*
D101*
X44085Y329719D02*
D03*
X388487Y337593D02*
D03*
Y357278D02*
D03*
X44085D02*
D03*
D102*
X390692Y35412D02*
D03*
Y35212D02*
D03*
D103*
X387668Y332081D02*
D03*
X389669D02*
D03*
D104*
X393393Y342274D02*
D03*
X394393D02*
D03*
X395393D02*
D03*
Y335274D02*
D03*
X394393D02*
D03*
X393393D02*
D03*
X401004Y342274D02*
D03*
X402004D02*
D03*
X403004D02*
D03*
Y335274D02*
D03*
X402004D02*
D03*
X401004D02*
D03*
X408616Y342274D02*
D03*
X409616D02*
D03*
X410616D02*
D03*
Y335274D02*
D03*
X409616D02*
D03*
X408616D02*
D03*
X416228Y342274D02*
D03*
X417228D02*
D03*
X418228D02*
D03*
Y335274D02*
D03*
X417228D02*
D03*
X416228D02*
D03*
D105*
X43155Y329719D02*
D03*
X422495D02*
D03*
D106*
X43355D02*
D03*
X43555D02*
D03*
X43755D02*
D03*
X424495D02*
D03*
X426495D02*
D03*
X428495D02*
D03*
D107*
X425889Y357671D02*
D03*
X422739D02*
D03*
M02*
