G04 Layer_Color=255*
%FSTAX24Y24*%
%MOIN*%
G70*
G01*
G75*
%ADD10R,0.0276X0.0787*%
%ADD11R,0.0787X0.0276*%
%ADD12R,0.0118X0.0575*%
%ADD13R,0.0575X0.0118*%
%ADD14R,0.0256X0.0335*%
%ADD15R,0.0335X0.0256*%
%ADD16R,0.0512X0.0295*%
%ADD17R,0.0500X0.0550*%
%ADD18R,0.0201X0.0217*%
%ADD19R,0.0550X0.0500*%
%ADD20R,0.0217X0.0201*%
%ADD21R,0.0846X0.0906*%
%ADD22C,0.0400*%
%ADD23R,0.0236X0.0354*%
%ADD24R,0.0709X0.0394*%
%ADD25R,0.0394X0.0236*%
%ADD26R,0.0300X0.0300*%
%ADD27R,0.0472X0.0866*%
%ADD28R,0.0276X0.0630*%
%ADD29R,0.0472X0.0551*%
%ADD30R,0.0630X0.0551*%
%ADD31O,0.0098X0.0335*%
%ADD32O,0.0335X0.0098*%
%ADD33R,0.0591X0.0591*%
%ADD34R,0.0300X0.0300*%
%ADD35R,0.0354X0.0236*%
%ADD42C,0.0591*%
%ADD43R,0.0591X0.0591*%
%ADD44O,0.0700X0.0800*%
%ADD45C,0.1378*%
%ADD46R,0.1575X0.1181*%
%ADD47O,0.1575X0.1181*%
%ADD48C,0.2362*%
%ADD49O,0.1200X0.1100*%
%ADD50O,0.1100X0.1200*%
%ADD51C,0.0700*%
%ADD52R,0.1181X0.1575*%
%ADD53O,0.1181X0.1575*%
%ADD54C,0.0394*%
D10*
X43655Y345467D02*
D03*
X43605Y345467D02*
D03*
X43555Y345467D02*
D03*
X43505Y345467D02*
D03*
X43455D02*
D03*
X43405Y345467D02*
D03*
X43355Y345467D02*
D03*
X43305Y345467D02*
D03*
X43255Y345467D02*
D03*
X43205Y345467D02*
D03*
X43155Y345467D02*
D03*
X43105Y345467D02*
D03*
X43055Y345467D02*
D03*
X43055Y353561D02*
D03*
X43655Y353561D02*
D03*
X43605D02*
D03*
X43555Y353561D02*
D03*
X43505Y353561D02*
D03*
X43455Y353561D02*
D03*
X43405Y353561D02*
D03*
X43355Y353561D02*
D03*
X43305D02*
D03*
X43255Y353561D02*
D03*
X43205Y353561D02*
D03*
X43155Y353561D02*
D03*
X43105D02*
D03*
D11*
X42955Y347514D02*
D03*
X42955Y348014D02*
D03*
X42955Y348514D02*
D03*
X42955Y349014D02*
D03*
Y349526D02*
D03*
Y350014D02*
D03*
X42955Y350514D02*
D03*
X42955Y351014D02*
D03*
X42955Y351514D02*
D03*
D12*
X419983Y350437D02*
D03*
X419787Y350437D02*
D03*
X41959D02*
D03*
X419393D02*
D03*
X419196Y350437D02*
D03*
X418999D02*
D03*
X418802D02*
D03*
X418605D02*
D03*
X418409D02*
D03*
X418212D02*
D03*
X418015D02*
D03*
X417818D02*
D03*
X417621D02*
D03*
X417424D02*
D03*
X417228D02*
D03*
X417031D02*
D03*
X416834D02*
D03*
X416637D02*
D03*
X41644D02*
D03*
X416243D02*
D03*
X416046D02*
D03*
X41585D02*
D03*
X415653Y350437D02*
D03*
X415456D02*
D03*
X415259Y350437D02*
D03*
X415259Y344433D02*
D03*
X415456D02*
D03*
X415653D02*
D03*
X41585D02*
D03*
X416046Y344433D02*
D03*
X416243D02*
D03*
X41644Y344433D02*
D03*
X416637D02*
D03*
X416834Y344433D02*
D03*
X417031D02*
D03*
X417228D02*
D03*
X417424D02*
D03*
X417621D02*
D03*
X417818Y344433D02*
D03*
X418015Y344433D02*
D03*
X418212D02*
D03*
X418409D02*
D03*
X418605D02*
D03*
X418802D02*
D03*
X418999Y344433D02*
D03*
X419196D02*
D03*
X419393D02*
D03*
X41959D02*
D03*
X419787D02*
D03*
X419983Y344433D02*
D03*
D13*
X414619Y349797D02*
D03*
X414619Y3496D02*
D03*
Y349404D02*
D03*
Y349207D02*
D03*
X414619Y34901D02*
D03*
Y348813D02*
D03*
Y348616D02*
D03*
Y348419D02*
D03*
Y348222D02*
D03*
Y348026D02*
D03*
Y347829D02*
D03*
Y347632D02*
D03*
Y347435D02*
D03*
Y347238D02*
D03*
Y347041D02*
D03*
Y346844D02*
D03*
Y346648D02*
D03*
Y346451D02*
D03*
Y346254D02*
D03*
Y346057D02*
D03*
Y34586D02*
D03*
X414619Y345663D02*
D03*
Y345467D02*
D03*
Y34527D02*
D03*
X414619Y345073D02*
D03*
X420623D02*
D03*
Y34527D02*
D03*
Y345467D02*
D03*
Y345663D02*
D03*
Y34586D02*
D03*
Y346057D02*
D03*
Y346254D02*
D03*
Y346451D02*
D03*
X420623Y346648D02*
D03*
Y346844D02*
D03*
Y347041D02*
D03*
X420623Y347238D02*
D03*
X420623Y347435D02*
D03*
Y347632D02*
D03*
X420623Y347829D02*
D03*
Y348026D02*
D03*
Y348222D02*
D03*
X420623Y348419D02*
D03*
Y348616D02*
D03*
X420623Y348813D02*
D03*
Y34901D02*
D03*
X420623Y349207D02*
D03*
Y349404D02*
D03*
Y3496D02*
D03*
Y349797D02*
D03*
D14*
X406105Y34027D02*
D03*
X405436D02*
D03*
X398468Y34027D02*
D03*
X397798Y34027D02*
D03*
X421381Y34027D02*
D03*
X420712D02*
D03*
X413743D02*
D03*
X413074D02*
D03*
X424885Y348262D02*
D03*
X424216D02*
D03*
X402011Y34964D02*
D03*
X401342D02*
D03*
D15*
X417621Y352297D02*
D03*
Y351628D02*
D03*
X421873Y346116D02*
D03*
Y345447D02*
D03*
X422464Y346116D02*
D03*
Y345447D02*
D03*
X42644Y349148D02*
D03*
Y349817D02*
D03*
X42707Y349148D02*
D03*
Y349817D02*
D03*
X416283Y353872D02*
D03*
Y354541D02*
D03*
X433724Y356352D02*
D03*
Y355683D02*
D03*
X400613Y350329D02*
D03*
Y349659D02*
D03*
D16*
X401401Y348026D02*
D03*
Y347238D02*
D03*
X399432Y348026D02*
D03*
Y347238D02*
D03*
X400417Y348026D02*
D03*
Y347238D02*
D03*
D17*
X396361Y352474D02*
D03*
X395461D02*
D03*
X399314Y349679D02*
D03*
X398414D02*
D03*
D18*
X41585Y352137D02*
D03*
Y351783D02*
D03*
X418527Y35214D02*
D03*
Y351785D02*
D03*
X437306Y333951D02*
D03*
Y334305D02*
D03*
X397936Y352376D02*
D03*
Y35273D02*
D03*
X39952Y353633D02*
D03*
Y353987D02*
D03*
X399649Y350388D02*
D03*
Y350742D02*
D03*
D19*
X397267Y352474D02*
D03*
Y353374D02*
D03*
D20*
X422444Y332278D02*
D03*
X422798D02*
D03*
X431499D02*
D03*
X431854D02*
D03*
X398153Y337947D02*
D03*
X398507D02*
D03*
X405672Y337947D02*
D03*
X406027D02*
D03*
X413192Y337947D02*
D03*
X413546D02*
D03*
X421066Y337947D02*
D03*
X42142D02*
D03*
X42272Y347632D02*
D03*
X422365D02*
D03*
X425476Y345663D02*
D03*
X42583D02*
D03*
X425397Y348262D02*
D03*
X425751D02*
D03*
X412798Y34901D02*
D03*
X413153D02*
D03*
X412798Y349797D02*
D03*
X413153D02*
D03*
Y347041D02*
D03*
X412798D02*
D03*
X413153Y345467D02*
D03*
X412798D02*
D03*
X435279Y3546D02*
D03*
X435633D02*
D03*
X399039Y350388D02*
D03*
X398684D02*
D03*
D21*
X393999Y352465D02*
D03*
Y353823D02*
D03*
D22*
Y357278D02*
D03*
X437109Y336805D02*
D03*
Y357278D02*
D03*
D23*
X398507Y339541D02*
D03*
X397759Y339541D02*
D03*
X398133Y338636D02*
D03*
X406145Y339541D02*
D03*
X405397D02*
D03*
X405771Y338636D02*
D03*
X413783Y339541D02*
D03*
X413035D02*
D03*
X413409Y338636D02*
D03*
X42142Y339541D02*
D03*
X420672D02*
D03*
X421046Y338636D02*
D03*
D24*
X427109Y346805D02*
D03*
X424354D02*
D03*
D25*
X424324Y349069D02*
D03*
Y349443D02*
D03*
Y349817D02*
D03*
X425407D02*
D03*
X425407Y349443D02*
D03*
X425407Y349069D02*
D03*
D26*
X416952Y353946D02*
D03*
Y354506D02*
D03*
D27*
X426991Y357514D02*
D03*
X420889D02*
D03*
D28*
X426519Y353301D02*
D03*
X426086Y353301D02*
D03*
X425653Y353301D02*
D03*
X42522D02*
D03*
X424787D02*
D03*
X424354Y353301D02*
D03*
X42392Y353301D02*
D03*
X423487D02*
D03*
X423054D02*
D03*
D29*
X426991Y353734D02*
D03*
D30*
X421243D02*
D03*
D31*
X399334Y351431D02*
D03*
X399531D02*
D03*
X399728D02*
D03*
X399924D02*
D03*
Y352573D02*
D03*
X399728D02*
D03*
X399531D02*
D03*
X399334D02*
D03*
D32*
X4002Y351707D02*
D03*
Y351904D02*
D03*
Y3521D02*
D03*
Y352297D02*
D03*
X399058D02*
D03*
Y3521D02*
D03*
Y351904D02*
D03*
Y351707D02*
D03*
D33*
X399629Y352002D02*
D03*
D34*
X401376Y350309D02*
D03*
X401936D02*
D03*
D35*
X434373Y356392D02*
D03*
X434373Y355644D02*
D03*
X435279Y356018D02*
D03*
D42*
X431417Y343892D02*
D03*
X430417D02*
D03*
X408747Y358683D02*
D03*
X409747Y357683D02*
D03*
Y358683D02*
D03*
X410747Y357683D02*
D03*
Y358683D02*
D03*
X411747Y357683D02*
D03*
Y358683D02*
D03*
X432873Y357683D02*
D03*
X431873Y358683D02*
D03*
Y357683D02*
D03*
X430873Y358683D02*
D03*
Y357683D02*
D03*
D43*
X429417Y343892D02*
D03*
X408747Y357683D02*
D03*
X432873Y358683D02*
D03*
D44*
X403235Y3329D02*
D03*
X402235D02*
D03*
X395361D02*
D03*
X394361D02*
D03*
X410716D02*
D03*
X409716D02*
D03*
X418196D02*
D03*
X417196D02*
D03*
D45*
X404235Y3309D02*
D03*
X400235D02*
D03*
X396361D02*
D03*
X392361D02*
D03*
X411716D02*
D03*
X407716D02*
D03*
X419196D02*
D03*
X415196D02*
D03*
D46*
X440456Y333986D02*
D03*
D47*
Y335986D02*
D03*
Y337986D02*
D03*
Y339986D02*
D03*
Y341986D02*
D03*
D48*
X44085Y329719D02*
D03*
X388487Y337593D02*
D03*
Y357278D02*
D03*
X44085D02*
D03*
D49*
X390692Y35412D02*
D03*
Y35212D02*
D03*
D50*
X387668Y332081D02*
D03*
X389669D02*
D03*
D51*
X393393Y342274D02*
D03*
X394393D02*
D03*
X395393D02*
D03*
Y335274D02*
D03*
X394393D02*
D03*
X393393D02*
D03*
X401004Y342274D02*
D03*
X402004D02*
D03*
X403004D02*
D03*
Y335274D02*
D03*
X402004D02*
D03*
X401004D02*
D03*
X408616Y342274D02*
D03*
X409616D02*
D03*
X410616D02*
D03*
Y335274D02*
D03*
X409616D02*
D03*
X408616D02*
D03*
X416228Y342274D02*
D03*
X417228D02*
D03*
X418228D02*
D03*
Y335274D02*
D03*
X417228D02*
D03*
X416228D02*
D03*
D52*
X43155Y329719D02*
D03*
X422495D02*
D03*
D53*
X43355D02*
D03*
X43555D02*
D03*
X43755D02*
D03*
X424495D02*
D03*
X426495D02*
D03*
X428495D02*
D03*
D54*
X425889Y357671D02*
D03*
X422739D02*
D03*
M02*
