G04 Layer_Color=65535*
%FSTAX24Y24*%
%MOIN*%
G70*
G01*
G75*
%ADD38C,0.0100*%
%ADD57C,0.0080*%
%ADD58C,0.0079*%
%ADD59C,0.0098*%
%ADD60C,0.0060*%
%ADD61C,0.0020*%
%ADD62C,0.0040*%
%ADD63C,0.0050*%
%ADD64C,0.0070*%
%ADD65C,0.0030*%
%ADD66R,0.0315X0.0236*%
%ADD67R,0.0236X0.0315*%
%ADD68R,0.1000X0.0500*%
G36*
X421165Y328459D02*
X420771D01*
X420968Y328734D01*
X421165Y328459D01*
D02*
G37*
G36*
X43022Y328459D02*
X429826Y328459D01*
X430023Y328734D01*
X43022Y328459D01*
D02*
G37*
G36*
X388918Y332081D02*
X388769D01*
X388769Y331831D01*
X388568D01*
Y332081D01*
X388419D01*
X388669Y332331D01*
X388918Y332081D01*
D02*
G37*
G36*
X390942Y35312D02*
X390692Y35287D01*
Y35302D01*
X390442D01*
Y35322D01*
X390692D01*
Y35337D01*
X390942Y35312D01*
D02*
G37*
G36*
X442424Y332262D02*
X442149Y332459D01*
X442424Y332656D01*
Y332262D01*
D02*
G37*
D38*
X441893Y34549D02*
X442543Y34549D01*
X442543Y346297D01*
X442543Y353561D02*
X442543Y352754D01*
X441893Y353561D02*
X442543Y353561D01*
X42955Y34549D02*
X4302Y34549D01*
X42955Y34549D02*
X42955Y347104D01*
Y351947D02*
Y353561D01*
X4302Y353561D01*
X397149Y334837D02*
Y342711D01*
X391637D02*
X397149D01*
X391637Y334837D02*
Y342711D01*
Y334837D02*
X397149D01*
X40476D02*
Y342711D01*
X399249D02*
X40476D01*
X399249Y334837D02*
Y342711D01*
Y334837D02*
X40476D01*
X412372D02*
Y342711D01*
X40686D02*
X412372D01*
X40686Y334837D02*
Y342711D01*
Y334837D02*
X412372D01*
X419983D02*
Y342711D01*
X414472D02*
X419983D01*
X414472Y334837D02*
Y342711D01*
Y334837D02*
X419983D01*
X426842Y346075D02*
Y346525D01*
Y347085D02*
Y347535D01*
X424622D02*
X426842D01*
X424622Y346075D02*
X426842D01*
X425232Y346555D02*
X426231D01*
X425232D02*
Y347055D01*
X426231D01*
Y346555D02*
Y347055D01*
X424622Y346075D02*
Y346525D01*
Y347085D02*
Y347535D01*
X416795Y353597D02*
X417104Y353597D01*
X401027Y350157D02*
X401028Y350466D01*
X439865Y344295D02*
Y343695D01*
X440265D01*
X440465Y344295D02*
X440665D01*
X440565D01*
Y343695D01*
X440465D01*
X440665D01*
X441365Y344195D02*
X441265Y344295D01*
X441065D01*
X440965Y344195D01*
Y343795D01*
X441065Y343695D01*
X441265D01*
X441365Y343795D01*
Y343995D01*
X441165D01*
X441565Y344295D02*
Y343695D01*
Y343995D01*
X441965D01*
Y344295D01*
Y343695D01*
X442165Y344295D02*
X442564D01*
X442365D01*
Y343695D01*
X430816Y334943D02*
X430716Y335043D01*
X430517D01*
X430417Y334943D01*
Y334843D01*
X430517Y334743D01*
X430716D01*
X430816Y334643D01*
Y334543D01*
X430716Y334443D01*
X430517D01*
X430417Y334543D01*
X431316Y335043D02*
X431116D01*
X431016Y334943D01*
Y334543D01*
X431116Y334443D01*
X431316D01*
X431416Y334543D01*
Y334943D01*
X431316Y335043D01*
X431616D02*
X431816D01*
X431716D01*
Y334443D01*
X431616D01*
X431816D01*
X432116Y335043D02*
Y334443D01*
X432516D01*
X421165D02*
Y334843D01*
X421365Y335043D01*
X421564Y334843D01*
Y334443D01*
Y334743D01*
X421165D01*
X421764Y335043D02*
X421964D01*
X421864D01*
Y334443D01*
X421764D01*
X421964D01*
X422264D02*
Y335043D01*
X422564D01*
X422664Y334943D01*
Y334743D01*
X422564Y334643D01*
X422264D01*
X422464D02*
X422664Y334443D01*
X418605Y342904D02*
Y343504D01*
X418905D01*
X419005Y343404D01*
Y343204D01*
X418905Y343104D01*
X418605D01*
X419205Y343704D02*
Y343104D01*
Y343404D01*
X419605D01*
Y343704D01*
Y343104D01*
X420205D02*
X419805D01*
X420205Y343504D01*
Y343604D01*
X420105Y343704D01*
X419905D01*
X419805Y343604D01*
X410928Y342904D02*
Y343504D01*
X411228D01*
X411328Y343404D01*
Y343204D01*
X411228Y343104D01*
X410928D01*
X411528Y343704D02*
Y343104D01*
Y343404D01*
X411928D01*
Y343704D01*
Y343104D01*
X412128D02*
X412328D01*
X412228D01*
Y343704D01*
X412128Y343604D01*
X403454Y343704D02*
X403054D01*
Y343104D01*
X403454D01*
X403054Y343404D02*
X403254D01*
X404054Y343604D02*
X403954Y343704D01*
X403754D01*
X403654Y343604D01*
Y343204D01*
X403754Y343104D01*
X403954D01*
X404054Y343204D01*
X404654Y343104D02*
X404254D01*
X404654Y343504D01*
Y343604D01*
X404554Y343704D01*
X404354D01*
X404254Y343604D01*
X395974Y343704D02*
X395574D01*
Y343104D01*
X395974D01*
X395574Y343404D02*
X395774D01*
X396574Y343604D02*
X396474Y343704D01*
X396274D01*
X396174Y343604D01*
Y343204D01*
X396274Y343104D01*
X396474D01*
X396574Y343204D01*
X396774Y343104D02*
X396974D01*
X396874D01*
Y343704D01*
X396774Y343604D01*
X392125Y350869D02*
X391725D01*
Y35057D01*
X391925Y35067D01*
X392025D01*
X392125Y35057D01*
Y35037D01*
X392025Y35027D01*
X391825D01*
X391725Y35037D01*
X392325Y350869D02*
Y35047D01*
X392525Y35027D01*
X392725Y35047D01*
Y350869D01*
X391525Y355888D02*
X391425Y355988D01*
X391225D01*
X391125Y355888D01*
Y355488D01*
X391225Y355388D01*
X391425D01*
X391525Y355488D01*
Y355688D01*
X391325D01*
X391725Y355388D02*
Y355988D01*
X392125Y355388D01*
Y355988D01*
X392325D02*
Y355388D01*
X392625D01*
X392725Y355488D01*
Y355888D01*
X392625Y355988D01*
X392325D01*
X436125Y34153D02*
Y341929D01*
X436325Y342129D01*
X436525Y341929D01*
Y34153D01*
Y341829D01*
X436125D01*
X436725Y342129D02*
Y34153D01*
X437025D01*
X437125Y341629D01*
Y342029D01*
X437025Y342129D01*
X436725D01*
X437325D02*
Y34153D01*
X437625D01*
X437725Y341629D01*
Y342029D01*
X437625Y342129D01*
X437325D01*
X436525Y340061D02*
X436425Y340161D01*
X436225D01*
X436125Y340061D01*
Y339961D01*
X436225Y339861D01*
X436425D01*
X436525Y339761D01*
Y339661D01*
X436425Y339561D01*
X436225D01*
X436125Y339661D01*
X437125Y340061D02*
X437025Y340161D01*
X436825D01*
X436725Y340061D01*
Y339661D01*
X436825Y339561D01*
X437025D01*
X437125Y339661D01*
X437325Y340161D02*
Y339561D01*
X437725D01*
X436525Y338092D02*
X436425Y338192D01*
X436225D01*
X436125Y338092D01*
Y337992D01*
X436225Y337892D01*
X436425D01*
X436525Y337792D01*
Y337692D01*
X436425Y337593D01*
X436225D01*
X436125Y337692D01*
X436725Y338192D02*
Y337593D01*
X437025D01*
X437125Y337692D01*
Y338092D01*
X437025Y338192D01*
X436725D01*
X437325Y337593D02*
Y337992D01*
X437525Y338192D01*
X437725Y337992D01*
Y337593D01*
Y337892D01*
X437325D01*
X436525Y33573D02*
X436425Y33583D01*
X436225D01*
X436125Y33573D01*
Y33533D01*
X436225Y33523D01*
X436425D01*
X436525Y33533D01*
Y33553D01*
X436325D01*
X436725Y33523D02*
Y33583D01*
X437125Y33523D01*
Y33583D01*
X437325D02*
Y33523D01*
X437625D01*
X437725Y33533D01*
Y33573D01*
X437625Y33583D01*
X437325D01*
X436322Y333171D02*
X436422Y333271D01*
X436622D01*
X436722Y333171D01*
Y333071D01*
X436622Y332971D01*
X436522D01*
X436622D01*
X436722Y332871D01*
Y332771D01*
X436622Y332671D01*
X436422D01*
X436322Y332771D01*
X436922Y333271D02*
Y332871D01*
X437122Y332671D01*
X437322Y332871D01*
Y333271D01*
X437522Y333171D02*
X437622Y333271D01*
X437822D01*
X437922Y333171D01*
Y333071D01*
X437822Y332971D01*
X437722D01*
X437822D01*
X437922Y332871D01*
Y332771D01*
X437822Y332671D01*
X437622D01*
X437522Y332771D01*
X437312Y33199D02*
X437212Y33209D01*
X437013D01*
X436913Y33199D01*
Y33159D01*
X437013Y33149D01*
X437212D01*
X437312Y33159D01*
X437512Y33209D02*
Y33149D01*
X437912D01*
X438112Y33209D02*
Y33149D01*
Y33169D01*
X438512Y33209D01*
X438212Y33179D01*
X438512Y33149D01*
X434944Y33209D02*
Y33149D01*
X435244D01*
X435344Y33159D01*
Y33199D01*
X435244Y33209D01*
X434944D01*
X435544Y33149D02*
Y33189D01*
X435744Y33209D01*
X435944Y33189D01*
Y33149D01*
Y33179D01*
X435544D01*
X436144Y33209D02*
X436544D01*
X436344D01*
Y33149D01*
X433179Y33199D02*
X433079Y33209D01*
X432879D01*
X432779Y33199D01*
Y33159D01*
X432879Y33149D01*
X433079D01*
X433179Y33159D01*
Y33179D01*
X432979D01*
X433379Y33149D02*
Y33209D01*
X433778Y33149D01*
Y33209D01*
X433978D02*
Y33149D01*
X434278D01*
X434378Y33159D01*
Y33199D01*
X434278Y33209D01*
X433978D01*
X430704Y33149D02*
X430604Y33159D01*
Y33179D01*
X430704Y33189D01*
X430804D01*
X430904Y33179D01*
Y33169D01*
Y33179D01*
X431004Y33189D01*
X431104D01*
X431204Y33179D01*
Y33159D01*
X431104Y33149D01*
X430604Y33209D02*
X431004D01*
X431204Y33229D01*
X431004Y33249D01*
X430604D01*
X430704Y33269D02*
X430604Y33279D01*
Y33299D01*
X430704Y33309D01*
X430804D01*
X430904Y33299D01*
Y33289D01*
Y33299D01*
X431004Y33309D01*
X431104D01*
X431204Y33299D01*
Y33279D01*
X431104Y33269D01*
X428257Y33199D02*
X428157Y33209D01*
X427957D01*
X427857Y33199D01*
Y33159D01*
X427957Y33149D01*
X428157D01*
X428257Y33159D01*
X428457Y33209D02*
Y33149D01*
X428857D01*
X429057Y33209D02*
Y33149D01*
Y33169D01*
X429457Y33209D01*
X429157Y33179D01*
X429457Y33149D01*
X425889Y33209D02*
Y33149D01*
X426189D01*
X426289Y33159D01*
Y33199D01*
X426189Y33209D01*
X425889D01*
X426489Y33149D02*
Y33189D01*
X426689Y33209D01*
X426889Y33189D01*
Y33149D01*
Y33179D01*
X426489D01*
X427089Y33209D02*
X427488D01*
X427289D01*
Y33149D01*
X424123Y33199D02*
X424024Y33209D01*
X423824D01*
X423724Y33199D01*
Y33159D01*
X423824Y33149D01*
X424024D01*
X424123Y33159D01*
Y33179D01*
X423924D01*
X424323Y33149D02*
Y33209D01*
X424723Y33149D01*
Y33209D01*
X424923D02*
Y33149D01*
X425223D01*
X425323Y33159D01*
Y33199D01*
X425223Y33209D01*
X424923D01*
X421255Y33149D02*
X421155Y33159D01*
Y33179D01*
X421255Y33189D01*
X421355D01*
X421455Y33179D01*
Y33169D01*
Y33179D01*
X421555Y33189D01*
X421655D01*
X421755Y33179D01*
Y33159D01*
X421655Y33149D01*
X421155Y33209D02*
X421555D01*
X421755Y33229D01*
X421555Y33249D01*
X421155D01*
X421255Y33269D02*
X421155Y33279D01*
Y33299D01*
X421255Y33309D01*
X421355D01*
X421455Y33299D01*
Y33289D01*
Y33299D01*
X421555Y33309D01*
X421655D01*
X421755Y33299D01*
Y33279D01*
X421655Y33269D01*
D57*
X436604Y354211D02*
G03*
X436604Y354211I-000054J0D01*
G01*
X438212Y332789D02*
X442739D01*
X438212D02*
X438212Y343222D01*
X442739Y332789D02*
X442739Y343222D01*
X438212D02*
X442739D01*
X430377Y328144D02*
X430377Y331333D01*
X438605D01*
X430377Y328144D02*
X438605Y328144D01*
Y331333D01*
X421322Y328144D02*
Y331333D01*
X42955D01*
X421322Y328144D02*
X42955Y328144D01*
Y331333D01*
X413881Y357278D02*
Y359049D01*
Y357278D02*
X418605D01*
Y359049D01*
X413881D02*
X418605D01*
X413881Y358262D02*
X418605D01*
X415062Y357278D02*
Y359049D01*
X416243Y357278D02*
Y359049D01*
X417424Y357278D02*
Y359049D01*
X42648Y359049D02*
X430023D01*
Y357278D02*
Y359049D01*
X42648Y357278D02*
X430023D01*
X42648D02*
Y359049D01*
Y358262D02*
X430023D01*
X427661Y357278D02*
Y359049D01*
X428842Y357278D02*
Y359049D01*
X386834Y333774D02*
Y334174D01*
X387034D01*
X3871Y334107D01*
Y333974D01*
X387034Y333907D01*
X386834D01*
X387234Y333774D02*
X387367D01*
X3873D01*
Y334174D01*
X387234Y334107D01*
X387567D02*
X387634Y334174D01*
X387767D01*
X387834Y334107D01*
Y33384D01*
X387767Y333774D01*
X387634D01*
X387567Y33384D01*
Y334107D01*
X42207Y344049D02*
X42167D01*
Y344249D01*
X421737Y344316D01*
X42187D01*
X421937Y344249D01*
Y344049D01*
Y344183D02*
X42207Y344316D01*
Y344449D02*
Y344582D01*
Y344516D01*
X42167D01*
X421737Y344449D01*
Y344782D02*
X42167Y344849D01*
Y344982D01*
X421737Y345049D01*
X422003D01*
X42207Y344982D01*
Y344849D01*
X422003Y344782D01*
X421737D01*
X4227Y344364D02*
X4223D01*
Y344564D01*
X422367Y344631D01*
X4225D01*
X422567Y344564D01*
Y344364D01*
Y344497D02*
X4227Y344631D01*
X422633Y344764D02*
X4227Y344831D01*
Y344964D01*
X422633Y345031D01*
X422367D01*
X4223Y344964D01*
Y344831D01*
X422367Y344764D01*
X422433D01*
X4225Y344831D01*
Y345031D01*
X4292Y35498D02*
Y354647D01*
X429267Y35458D01*
X4294D01*
X429467Y354647D01*
Y35498D01*
X4296Y354913D02*
X429667Y35498D01*
X4298D01*
X429866Y354913D01*
Y354847D01*
X4298Y35478D01*
X429866Y354713D01*
Y354647D01*
X4298Y35458D01*
X429667D01*
X4296Y354647D01*
Y354713D01*
X429667Y35478D01*
X4296Y354847D01*
Y354913D01*
X429667Y35478D02*
X4298D01*
X398409Y342677D02*
Y342344D01*
X398475Y342278D01*
X398609D01*
X398675Y342344D01*
Y342677D01*
X398809D02*
X399075D01*
Y342611D01*
X398809Y342344D01*
Y342278D01*
X390732Y342677D02*
Y342344D01*
X390798Y342278D01*
X390931D01*
X390998Y342344D01*
Y342677D01*
X391398D02*
X391265Y342611D01*
X391131Y342477D01*
Y342344D01*
X391198Y342278D01*
X391331D01*
X391398Y342344D01*
Y342411D01*
X391331Y342477D01*
X391131D01*
X405928Y342638D02*
Y342305D01*
X405995Y342238D01*
X406128D01*
X406195Y342305D01*
Y342638D01*
X406595D02*
X406328D01*
Y342438D01*
X406462Y342505D01*
X406528D01*
X406595Y342438D01*
Y342305D01*
X406528Y342238D01*
X406395D01*
X406328Y342305D01*
X413566Y342677D02*
Y342344D01*
X413633Y342278D01*
X413766D01*
X413833Y342344D01*
Y342677D01*
X414166Y342278D02*
Y342677D01*
X413966Y342477D01*
X414233D01*
X424078Y350748D02*
Y350415D01*
X424145Y350348D01*
X424278D01*
X424345Y350415D01*
Y350748D01*
X424478Y350682D02*
X424544Y350748D01*
X424678D01*
X424744Y350682D01*
Y350615D01*
X424678Y350548D01*
X424611D01*
X424678D01*
X424744Y350482D01*
Y350415D01*
X424678Y350348D01*
X424544D01*
X424478Y350415D01*
X41425Y35156D02*
Y351227D01*
X414317Y35116D01*
X41445D01*
X414517Y351227D01*
Y35156D01*
X414916Y35116D02*
X41465D01*
X414916Y351427D01*
Y351493D01*
X41485Y35156D01*
X414717D01*
X41465Y351493D01*
X398842Y353347D02*
Y353013D01*
X398908Y352947D01*
X399042D01*
X399108Y353013D01*
Y353347D01*
X399242Y352947D02*
X399375D01*
X399308D01*
Y353347D01*
X399242Y35328D01*
X427109Y34712D02*
Y34752D01*
X427309D01*
X427376Y347453D01*
Y34732D01*
X427309Y347253D01*
X427109D01*
X427243D02*
X427376Y34712D01*
X427776Y347453D02*
X427709Y34752D01*
X427576D01*
X427509Y347453D01*
Y347387D01*
X427576Y34732D01*
X427709D01*
X427776Y347253D01*
Y347187D01*
X427709Y34712D01*
X427576D01*
X427509Y347187D01*
X427909Y34752D02*
X428176D01*
X428042D01*
Y34712D01*
X428309D02*
X428442D01*
X428376D01*
Y34752D01*
X428309Y347453D01*
X433291Y355506D02*
X432891D01*
Y355706D01*
X432957Y355772D01*
X433091D01*
X433157Y355706D01*
Y355506D01*
Y355639D02*
X433291Y355772D01*
Y356172D02*
Y355906D01*
X433024Y356172D01*
X432957D01*
X432891Y356106D01*
Y355972D01*
X432957Y355906D01*
X433291Y356572D02*
Y356306D01*
X433024Y356572D01*
X432957D01*
X432891Y356506D01*
Y356372D01*
X432957Y356306D01*
X40527Y34084D02*
Y34124D01*
X40547D01*
X405537Y341173D01*
Y34104D01*
X40547Y340973D01*
X40527D01*
X405403D02*
X405537Y34084D01*
X405936D02*
X40567D01*
X405936Y341107D01*
Y341173D01*
X40587Y34124D01*
X405737D01*
X40567Y341173D01*
X40607Y34084D02*
X406203D01*
X406136D01*
Y34124D01*
X40607Y341173D01*
X39763Y34084D02*
Y34124D01*
X39783D01*
X397897Y341173D01*
Y34104D01*
X39783Y340973D01*
X39763D01*
X397763D02*
X397897Y34084D01*
X398296D02*
X39803D01*
X398296Y341107D01*
Y341173D01*
X39823Y34124D01*
X398097D01*
X39803Y341173D01*
X39843D02*
X398496Y34124D01*
X39863D01*
X398696Y341173D01*
Y340907D01*
X39863Y34084D01*
X398496D01*
X39843Y340907D01*
Y341173D01*
X42054Y34084D02*
Y34124D01*
X42074D01*
X420807Y341173D01*
Y34104D01*
X42074Y340973D01*
X42054D01*
X420673D02*
X420807Y34084D01*
X42094D02*
X421073D01*
X421007D01*
Y34124D01*
X42094Y341173D01*
X421273Y340907D02*
X42134Y34084D01*
X421473D01*
X42154Y340907D01*
Y341173D01*
X421473Y34124D01*
X42134D01*
X421273Y341173D01*
Y341107D01*
X42134Y34104D01*
X42154D01*
X41291Y34084D02*
Y34124D01*
X41311D01*
X413177Y341173D01*
Y34104D01*
X41311Y340973D01*
X41291D01*
X413043D02*
X413177Y34084D01*
X41331D02*
X413443D01*
X413377D01*
Y34124D01*
X41331Y341173D01*
X413643D02*
X41371Y34124D01*
X413843D01*
X41391Y341173D01*
Y341107D01*
X413843Y34104D01*
X41391Y340973D01*
Y340907D01*
X413843Y34084D01*
X41371D01*
X413643Y340907D01*
Y340973D01*
X41371Y34104D01*
X413643Y341107D01*
Y341173D01*
X41371Y34104D02*
X413843D01*
X427306Y350191D02*
X426906D01*
Y350391D01*
X426973Y350458D01*
X427106D01*
X427173Y350391D01*
Y350191D01*
Y350324D02*
X427306Y350458D01*
Y350591D02*
Y350724D01*
Y350657D01*
X426906D01*
X426973Y350591D01*
X426906Y350924D02*
Y351191D01*
X426973D01*
X42724Y350924D01*
X427306D01*
X426676Y350191D02*
X426277D01*
Y350391D01*
X426343Y350458D01*
X426476D01*
X426543Y350391D01*
Y350191D01*
Y350324D02*
X426676Y350458D01*
Y350591D02*
Y350724D01*
Y350657D01*
X426277D01*
X426343Y350591D01*
X426277Y351191D02*
X426343Y351057D01*
X426476Y350924D01*
X42661D01*
X426676Y350991D01*
Y351124D01*
X42661Y351191D01*
X426543D01*
X426476Y351124D01*
Y350924D01*
X423842Y347789D02*
X423442D01*
Y347989D01*
X423508Y348056D01*
X423642D01*
X423708Y347989D01*
Y347789D01*
Y347923D02*
X423842Y348056D01*
Y348189D02*
Y348323D01*
Y348256D01*
X423442D01*
X423508Y348189D01*
X423442Y348789D02*
Y348522D01*
X423642D01*
X423575Y348656D01*
Y348722D01*
X423642Y348789D01*
X423775D01*
X423842Y348722D01*
Y348589D01*
X423775Y348522D01*
X41648Y354955D02*
X41608D01*
Y355155D01*
X416146Y355221D01*
X41628D01*
X416346Y355155D01*
Y354955D01*
Y355088D02*
X41648Y355221D01*
Y355355D02*
Y355488D01*
Y355421D01*
X41608D01*
X416146Y355355D01*
X41648Y355888D02*
X41608D01*
X41628Y355688D01*
Y355954D01*
X41742Y35282D02*
Y35322D01*
X41762D01*
X417687Y353153D01*
Y35302D01*
X41762Y352953D01*
X41742D01*
X417553D02*
X417687Y35282D01*
X418086Y35322D02*
X417953Y353153D01*
X41782Y35302D01*
Y352887D01*
X417887Y35282D01*
X41802D01*
X418086Y352887D01*
Y352953D01*
X41802Y35302D01*
X41782D01*
X402424Y349443D02*
Y349843D01*
X402624D01*
X402691Y349776D01*
Y349643D01*
X402624Y349576D01*
X402424D01*
X402558D02*
X402691Y349443D01*
X403091Y349843D02*
X402824D01*
Y349643D01*
X402958Y349709D01*
X403024D01*
X403091Y349643D01*
Y34951D01*
X403024Y349443D01*
X402891D01*
X402824Y34951D01*
X40112Y34857D02*
Y34897D01*
X40132D01*
X401387Y348903D01*
Y34877D01*
X40132Y348703D01*
X40112D01*
X401253D02*
X401387Y34857D01*
X40172D02*
Y34897D01*
X40152Y34877D01*
X401786D01*
X400259Y350742D02*
Y351142D01*
X400459D01*
X400526Y351075D01*
Y350942D01*
X400459Y350875D01*
X400259D01*
X400392D02*
X400526Y350742D01*
X400659Y351075D02*
X400726Y351142D01*
X400859D01*
X400926Y351075D01*
Y351009D01*
X400859Y350942D01*
X400792D01*
X400859D01*
X400926Y350875D01*
Y350809D01*
X400859Y350742D01*
X400726D01*
X400659Y350809D01*
X39915Y34857D02*
Y34897D01*
X39935D01*
X399417Y348903D01*
Y34877D01*
X39935Y348703D01*
X39915D01*
X399283D02*
X399417Y34857D01*
X399816D02*
X39955D01*
X399816Y348837D01*
Y348903D01*
X39975Y34897D01*
X399617D01*
X39955Y348903D01*
X40013Y34857D02*
Y34897D01*
X40033D01*
X400397Y348903D01*
Y34877D01*
X40033Y348703D01*
X40013D01*
X400263D02*
X400397Y34857D01*
X40053D02*
X400663D01*
X400597D01*
Y34897D01*
X40053Y348903D01*
X436195Y355966D02*
Y356233D01*
X436128Y356299D01*
X435995D01*
X435928Y356233D01*
Y355966D01*
X435995Y3559D01*
X436128D01*
X436062Y356033D02*
X436195Y3559D01*
X436128D02*
X436195Y355966D01*
X436595Y356299D02*
X436328D01*
Y3561D01*
X436462Y356166D01*
X436528D01*
X436595Y3561D01*
Y355966D01*
X436528Y3559D01*
X436395D01*
X436328Y355966D01*
X405271Y338253D02*
X405005D01*
X404938Y338186D01*
Y338053D01*
X405005Y337986D01*
X405271D01*
X405338Y338053D01*
Y338186D01*
X405205Y33812D02*
X405338Y338253D01*
Y338186D02*
X405271Y338253D01*
X405338Y338586D02*
X404938D01*
X405138Y338386D01*
Y338653D01*
X397791Y338292D02*
X397524D01*
X397458Y338226D01*
Y338092D01*
X397524Y338026D01*
X397791D01*
X397857Y338092D01*
Y338226D01*
X397724Y338159D02*
X397857Y338292D01*
Y338226D02*
X397791Y338292D01*
X397524Y338425D02*
X397458Y338492D01*
Y338625D01*
X397524Y338692D01*
X397591D01*
X397658Y338625D01*
Y338559D01*
Y338625D01*
X397724Y338692D01*
X397791D01*
X397857Y338625D01*
Y338492D01*
X397791Y338425D01*
X420625Y338292D02*
X420359D01*
X420292Y338226D01*
Y338092D01*
X420359Y338026D01*
X420625D01*
X420692Y338092D01*
Y338226D01*
X420559Y338159D02*
X420692Y338292D01*
Y338226D02*
X420625Y338292D01*
X420692Y338692D02*
Y338425D01*
X420426Y338692D01*
X420359D01*
X420292Y338625D01*
Y338492D01*
X420359Y338425D01*
X41283Y33841D02*
X412564D01*
X412497Y338344D01*
Y33821D01*
X412564Y338144D01*
X41283D01*
X412897Y33821D01*
Y338344D01*
X412764Y338277D02*
X412897Y33841D01*
Y338344D02*
X41283Y33841D01*
X412897Y338544D02*
Y338677D01*
Y33861D01*
X412497D01*
X412564Y338544D01*
X433763Y358459D02*
Y358859D01*
X433963D01*
X43403Y358792D01*
Y358659D01*
X433963Y358592D01*
X433763D01*
X434163Y358459D02*
X434296D01*
X43423D01*
Y358859D01*
X434163Y358792D01*
X434763Y358459D02*
X434496D01*
X434763Y358725D01*
Y358792D01*
X434696Y358859D01*
X434563D01*
X434496Y358792D01*
X42895Y34473D02*
Y34513D01*
X42915D01*
X429217Y345063D01*
Y34493D01*
X42915Y344863D01*
X42895D01*
X42935Y34473D02*
X429483D01*
X429417D01*
Y34513D01*
X42935Y345063D01*
X429683Y34473D02*
X429816D01*
X42975D01*
Y34513D01*
X429683Y345063D01*
X39942Y3339D02*
Y3343D01*
X39962D01*
X399687Y334233D01*
Y3341D01*
X39962Y334033D01*
X39942D01*
X39982Y333967D02*
X399887Y3339D01*
X40002D01*
X400086Y333967D01*
Y334233D01*
X40002Y3343D01*
X399887D01*
X39982Y334233D01*
Y334167D01*
X399887Y3341D01*
X400086D01*
X39155Y3339D02*
Y3343D01*
X39175D01*
X391817Y334233D01*
Y3341D01*
X39175Y334033D01*
X39155D01*
X39195Y334233D02*
X392017Y3343D01*
X39215D01*
X392216Y334233D01*
Y334167D01*
X39215Y3341D01*
X392216Y334033D01*
Y333967D01*
X39215Y3339D01*
X392017D01*
X39195Y333967D01*
Y334033D01*
X392017Y3341D01*
X39195Y334167D01*
Y334233D01*
X392017Y3341D02*
X39215D01*
X43825Y34354D02*
Y34394D01*
X43845D01*
X438517Y343873D01*
Y34374D01*
X43845Y343673D01*
X43825D01*
X43865Y34394D02*
X438916D01*
Y343873D01*
X43865Y343607D01*
Y34354D01*
X4069Y3339D02*
Y3343D01*
X4071D01*
X407167Y334233D01*
Y3341D01*
X4071Y334033D01*
X4069D01*
X407566Y3343D02*
X4073D01*
Y3341D01*
X407433Y334167D01*
X4075D01*
X407566Y3341D01*
Y333967D01*
X4075Y3339D01*
X407367D01*
X4073Y333967D01*
X41438Y3339D02*
Y3343D01*
X41458D01*
X414647Y334233D01*
Y3341D01*
X41458Y334033D01*
X41438D01*
X41498Y3339D02*
Y3343D01*
X41478Y3341D01*
X415046D01*
X420298Y330821D02*
Y331221D01*
X420498D01*
X420565Y331154D01*
Y331021D01*
X420498Y330954D01*
X420298D01*
X420698Y331154D02*
X420765Y331221D01*
X420898D01*
X420965Y331154D01*
Y331087D01*
X420898Y331021D01*
X420832D01*
X420898D01*
X420965Y330954D01*
Y330888D01*
X420898Y330821D01*
X420765D01*
X420698Y330888D01*
X406558Y358616D02*
Y359016D01*
X406758D01*
X406825Y358949D01*
Y358816D01*
X406758Y358749D01*
X406558D01*
X407225Y358616D02*
X406958D01*
X407225Y358883D01*
Y358949D01*
X407158Y359016D01*
X407025D01*
X406958Y358949D01*
X386834Y35538D02*
Y35578D01*
X387034D01*
X3871Y355713D01*
Y35558D01*
X387034Y355513D01*
X386834D01*
X387234Y35538D02*
X387367D01*
X3873D01*
Y35578D01*
X387234Y355713D01*
X417418Y353577D02*
X417818D01*
Y353843D01*
X417418Y354243D02*
Y353977D01*
X417818D01*
Y354243D01*
X417618Y353977D02*
Y35411D01*
X417418Y354377D02*
X417818D01*
Y354576D01*
X417751Y354643D01*
X417485D01*
X417418Y354576D01*
Y354377D01*
X417818Y355043D02*
Y354776D01*
X417552Y355043D01*
X417485D01*
X417418Y354976D01*
Y354843D01*
X417485Y354776D01*
X402385Y350512D02*
Y350112D01*
X402652D01*
X403051Y350512D02*
X402785D01*
Y350112D01*
X403051D01*
X402785Y350312D02*
X402918D01*
X403185Y350512D02*
Y350112D01*
X403385D01*
X403451Y350179D01*
Y350445D01*
X403385Y350512D01*
X403185D01*
X403585Y350112D02*
X403718D01*
X403651D01*
Y350512D01*
X403585Y350445D01*
X39519Y35351D02*
Y35311D01*
X395457D01*
X39559D02*
X395723D01*
X395657D01*
Y35351D01*
X39559Y353443D01*
X419738Y358819D02*
X419605D01*
X419672D01*
Y358486D01*
X419605Y358419D01*
X419538D01*
X419472Y358486D01*
X419872Y358419D02*
X420005D01*
X419938D01*
Y358819D01*
X419872Y358753D01*
X43963Y3317D02*
Y3313D01*
Y3315D01*
X439897D01*
Y3317D01*
Y3313D01*
X44003Y331633D02*
X440097Y3317D01*
X44023D01*
X440296Y331633D01*
Y331567D01*
X44023Y3315D01*
X440163D01*
X44023D01*
X440296Y331433D01*
Y331367D01*
X44023Y3313D01*
X440097D01*
X44003Y331367D01*
X439117Y359016D02*
Y358616D01*
Y358816D01*
X439384D01*
Y359016D01*
Y358616D01*
X439784D02*
X439517D01*
X439784Y358883D01*
Y358949D01*
X439717Y359016D01*
X439584D01*
X439517Y358949D01*
X387269Y339574D02*
Y339174D01*
Y339374D01*
X387535D01*
Y339574D01*
Y339174D01*
X387669D02*
X387802D01*
X387735D01*
Y339574D01*
X387669Y339507D01*
X393754Y358465D02*
X393487D01*
Y358265D01*
X393621D01*
X393487D01*
Y358065D01*
X393887Y358398D02*
X393954Y358465D01*
X394087D01*
X394154Y358398D01*
Y358332D01*
X394087Y358265D01*
X394021D01*
X394087D01*
X394154Y358198D01*
Y358132D01*
X394087Y358065D01*
X393954D01*
X393887Y358132D01*
X435762Y337008D02*
X435495D01*
Y336808D01*
X435629D01*
X435495D01*
Y336608D01*
X436162D02*
X435895D01*
X436162Y336875D01*
Y336941D01*
X436095Y337008D01*
X435962D01*
X435895Y336941D01*
X43836Y357481D02*
X438094D01*
Y357281D01*
X438227D01*
X438094D01*
Y357081D01*
X438494D02*
X438627D01*
X43856D01*
Y357481D01*
X438494Y357414D01*
X435211Y355209D02*
X435144Y355276D01*
X435011D01*
X434944Y355209D01*
Y354943D01*
X435011Y354876D01*
X435144D01*
X435211Y354943D01*
X435611Y354876D02*
X435344D01*
X435611Y355143D01*
Y355209D01*
X435544Y355276D01*
X435411D01*
X435344Y355209D01*
X43601Y355276D02*
X435877Y355209D01*
X435744Y355076D01*
Y354943D01*
X43581Y354876D01*
X435944D01*
X43601Y354943D01*
Y355009D01*
X435944Y355076D01*
X435744D01*
X425447Y345288D02*
X42538Y345355D01*
X425247D01*
X42518Y345288D01*
Y345021D01*
X425247Y344955D01*
X42538D01*
X425447Y345021D01*
X42558Y344955D02*
X425713D01*
X425647D01*
Y345355D01*
X42558Y345288D01*
X425913D02*
X42598Y345355D01*
X426113D01*
X42618Y345288D01*
Y345221D01*
X426113Y345155D01*
X42618Y345088D01*
Y345021D01*
X426113Y344955D01*
X42598D01*
X425913Y345021D01*
Y345088D01*
X42598Y345155D01*
X425913Y345221D01*
Y345288D01*
X42598Y345155D02*
X426113D01*
X426352Y348398D02*
X426286Y348465D01*
X426152D01*
X426086Y348398D01*
Y348132D01*
X426152Y348065D01*
X426286D01*
X426352Y348132D01*
X426486Y348065D02*
X426619D01*
X426552D01*
Y348465D01*
X426486Y348398D01*
X426819Y348465D02*
X427085D01*
Y348398D01*
X426819Y348132D01*
Y348065D01*
X411677Y345594D02*
X41161Y345661D01*
X411477D01*
X41141Y345594D01*
Y345327D01*
X411477Y345261D01*
X41161D01*
X411677Y345327D01*
X41181Y345261D02*
X411943D01*
X411877D01*
Y345661D01*
X41181Y345594D01*
X41241Y345661D02*
X412277Y345594D01*
X412143Y345461D01*
Y345327D01*
X41221Y345261D01*
X412343D01*
X41241Y345327D01*
Y345394D01*
X412343Y345461D01*
X412143D01*
X411677Y347174D02*
X41161Y347241D01*
X411477D01*
X41141Y347174D01*
Y346907D01*
X411477Y346841D01*
X41161D01*
X411677Y346907D01*
X41181Y346841D02*
X411943D01*
X411877D01*
Y347241D01*
X41181Y347174D01*
X412343Y346841D02*
Y347241D01*
X412143Y347041D01*
X41241D01*
X411795Y349183D02*
X411728Y34925D01*
X411595D01*
X411528Y349183D01*
Y348917D01*
X411595Y34885D01*
X411728D01*
X411795Y348917D01*
X411928Y34885D02*
X412061D01*
X411995D01*
Y34925D01*
X411928Y349183D01*
X412261D02*
X412328Y34925D01*
X412461D01*
X412528Y349183D01*
Y349117D01*
X412461Y34905D01*
X412395D01*
X412461D01*
X412528Y348983D01*
Y348917D01*
X412461Y34885D01*
X412328D01*
X412261Y348917D01*
X411795Y349963D02*
X411728Y35003D01*
X411595D01*
X411528Y349963D01*
Y349697D01*
X411595Y34963D01*
X411728D01*
X411795Y349697D01*
X411928Y34963D02*
X412061D01*
X411995D01*
Y35003D01*
X411928Y349963D01*
X412261Y34963D02*
X412395D01*
X412328D01*
Y35003D01*
X412261Y349963D01*
X416007Y352963D02*
X41594Y35303D01*
X415807D01*
X41574Y352963D01*
Y352697D01*
X415807Y35263D01*
X41594D01*
X416007Y352697D01*
X41614Y35263D02*
X416273D01*
X416207D01*
Y35303D01*
X41614Y352963D01*
X416473D02*
X41654Y35303D01*
X416673D01*
X41674Y352963D01*
Y352697D01*
X416673Y35263D01*
X41654D01*
X416473Y352697D01*
Y352963D01*
X422455Y348319D02*
X422388Y348386D01*
X422255D01*
X422188Y348319D01*
Y348053D01*
X422255Y347986D01*
X422388D01*
X422455Y348053D01*
X422588D02*
X422655Y347986D01*
X422788D01*
X422855Y348053D01*
Y348319D01*
X422788Y348386D01*
X422655D01*
X422588Y348319D01*
Y348253D01*
X422655Y348186D01*
X422855D01*
X418688Y352963D02*
X418621Y35303D01*
X418488D01*
X418421Y352963D01*
Y352697D01*
X418488Y35263D01*
X418621D01*
X418688Y352697D01*
X418821Y352963D02*
X418888Y35303D01*
X419021D01*
X419088Y352963D01*
Y352897D01*
X419021Y35283D01*
X419088Y352763D01*
Y352697D01*
X419021Y35263D01*
X418888D01*
X418821Y352697D01*
Y352763D01*
X418888Y35283D01*
X418821Y352897D01*
Y352963D01*
X418888Y35283D02*
X419021D01*
X399541Y354697D02*
X399475Y354764D01*
X399341D01*
X399275Y354697D01*
Y354431D01*
X399341Y354364D01*
X399475D01*
X399541Y354431D01*
X399941Y354764D02*
X399808Y354697D01*
X399675Y354564D01*
Y354431D01*
X399741Y354364D01*
X399875D01*
X399941Y354431D01*
Y354497D01*
X399875Y354564D01*
X399675D01*
X397839Y353371D02*
X397773Y353304D01*
Y353171D01*
X397839Y353104D01*
X398106D01*
X398172Y353171D01*
Y353304D01*
X398106Y353371D01*
X397773Y353771D02*
Y353504D01*
X397973D01*
X397906Y353638D01*
Y353704D01*
X397973Y353771D01*
X398106D01*
X398172Y353704D01*
Y353571D01*
X398106Y353504D01*
X397247Y354333D02*
X39718Y3544D01*
X397047D01*
X39698Y354333D01*
Y354067D01*
X397047Y354D01*
X39718D01*
X397247Y354067D01*
X39758Y354D02*
Y3544D01*
X39738Y3542D01*
X397646D01*
X397494Y349816D02*
X397427Y349882D01*
X397294D01*
X397228Y349816D01*
Y349549D01*
X397294Y349482D01*
X397427D01*
X397494Y349549D01*
X397627Y349816D02*
X397694Y349882D01*
X397827D01*
X397894Y349816D01*
Y349749D01*
X397827Y349682D01*
X397761D01*
X397827D01*
X397894Y349616D01*
Y349549D01*
X397827Y349482D01*
X397694D01*
X397627Y349549D01*
X397927Y350603D02*
X397861Y35067D01*
X397727D01*
X397661Y350603D01*
Y350336D01*
X397727Y35027D01*
X397861D01*
X397927Y350336D01*
X398327Y35027D02*
X39806D01*
X398327Y350536D01*
Y350603D01*
X39826Y35067D01*
X398127D01*
X39806Y350603D01*
X399847Y349867D02*
X39978Y3498D01*
Y349667D01*
X399847Y3496D01*
X400114D01*
X40018Y349667D01*
Y3498D01*
X400114Y349867D01*
X40018Y35D02*
Y350134D01*
Y350067D01*
X39978D01*
X399847Y35D01*
X386952Y358859D02*
Y358459D01*
Y358659D01*
X387219D01*
Y358859D01*
Y358459D01*
X387552D02*
Y358859D01*
X387352Y358659D01*
X387618D01*
X438842Y3309D02*
Y331299D01*
X439042D01*
X439108Y331233D01*
Y3311D01*
X439042Y331033D01*
X438842D01*
X439508Y331299D02*
X439375Y331233D01*
X439242Y3311D01*
Y330966D01*
X439308Y3309D01*
X439442D01*
X439508Y330966D01*
Y331033D01*
X439442Y3311D01*
X439242D01*
X413124Y337532D02*
X413057Y337599D01*
X412924D01*
X412857Y337532D01*
Y337265D01*
X412924Y337199D01*
X413057D01*
X413124Y337265D01*
X413257Y337199D02*
X413391D01*
X413324D01*
Y337599D01*
X413257Y337532D01*
X413591Y337265D02*
X413657Y337199D01*
X413791D01*
X413857Y337265D01*
Y337532D01*
X413791Y337599D01*
X413657D01*
X413591Y337532D01*
Y337465D01*
X413657Y337399D01*
X413857D01*
X420998Y337532D02*
X420931Y337599D01*
X420798D01*
X420732Y337532D01*
Y337265D01*
X420798Y337199D01*
X420931D01*
X420998Y337265D01*
X421398Y337199D02*
X421131D01*
X421398Y337465D01*
Y337532D01*
X421331Y337599D01*
X421198D01*
X421131Y337532D01*
X421531D02*
X421598Y337599D01*
X421731D01*
X421798Y337532D01*
Y337265D01*
X421731Y337199D01*
X421598D01*
X421531Y337265D01*
Y337532D01*
X422577Y333073D02*
X42251Y33314D01*
X422377D01*
X42231Y333073D01*
Y332807D01*
X422377Y33274D01*
X42251D01*
X422577Y332807D01*
X422976Y33274D02*
X42271D01*
X422976Y333007D01*
Y333073D01*
X42291Y33314D01*
X422777D01*
X42271Y333073D01*
X42311Y33274D02*
X423243D01*
X423176D01*
Y33314D01*
X42311Y333073D01*
X431637D02*
X43157Y33314D01*
X431437D01*
X43137Y333073D01*
Y332807D01*
X431437Y33274D01*
X43157D01*
X431637Y332807D01*
X432036Y33274D02*
X43177D01*
X432036Y333007D01*
Y333073D01*
X43197Y33314D01*
X431837D01*
X43177Y333073D01*
X432436Y33274D02*
X43217D01*
X432436Y333007D01*
Y333073D01*
X43237Y33314D01*
X432236D01*
X43217Y333073D01*
X398085Y337532D02*
X398018Y337599D01*
X397885D01*
X397818Y337532D01*
Y337265D01*
X397885Y337199D01*
X398018D01*
X398085Y337265D01*
X398485Y337199D02*
X398218D01*
X398485Y337465D01*
Y337532D01*
X398418Y337599D01*
X398285D01*
X398218Y337532D01*
X398618D02*
X398685Y337599D01*
X398818D01*
X398884Y337532D01*
Y337465D01*
X398818Y337399D01*
X398751D01*
X398818D01*
X398884Y337332D01*
Y337265D01*
X398818Y337199D01*
X398685D01*
X398618Y337265D01*
X405565Y337532D02*
X405498Y337599D01*
X405365D01*
X405298Y337532D01*
Y337265D01*
X405365Y337199D01*
X405498D01*
X405565Y337265D01*
X405965Y337199D02*
X405698D01*
X405965Y337465D01*
Y337532D01*
X405898Y337599D01*
X405765D01*
X405698Y337532D01*
X406298Y337199D02*
Y337599D01*
X406098Y337399D01*
X406365D01*
X436697Y333804D02*
X436631Y333737D01*
Y333604D01*
X436697Y333537D01*
X436964D01*
X437031Y333604D01*
Y333737D01*
X436964Y333804D01*
X437031Y334204D02*
Y333937D01*
X436764Y334204D01*
X436697D01*
X436631Y334137D01*
Y334004D01*
X436697Y333937D01*
X436631Y334604D02*
Y334337D01*
X436831D01*
X436764Y33447D01*
Y334537D01*
X436831Y334604D01*
X436964D01*
X437031Y334537D01*
Y334404D01*
X436964Y334337D01*
X393291Y354882D02*
X393557D01*
X393424D01*
Y354482D01*
X39369Y354882D02*
Y354616D01*
X393824Y354482D01*
X393957Y354616D01*
Y354882D01*
X394357Y354816D02*
X39429Y354882D01*
X394157D01*
X39409Y354816D01*
Y354749D01*
X394157Y354682D01*
X39429D01*
X394357Y354616D01*
Y354549D01*
X39429Y354482D01*
X394157D01*
X39409Y354549D01*
X39449Y354482D02*
X394623D01*
X394557D01*
Y354882D01*
X39449Y354816D01*
X407947Y357483D02*
X408114D01*
X408031D01*
Y357983D01*
X407947Y3579D01*
X414078Y358709D02*
X414128Y358759D01*
X414228D01*
X414278Y358709D01*
Y358659D01*
X414228Y358609D01*
X414178D01*
X414228D01*
X414278Y358559D01*
Y358509D01*
X414228Y358459D01*
X414128D01*
X414078Y358509D01*
X414378Y358759D02*
Y358559D01*
X414478Y358459D01*
X414578Y358559D01*
Y358759D01*
X414678Y358709D02*
X414728Y358759D01*
X414828D01*
X414878Y358709D01*
Y358659D01*
X414828Y358609D01*
X414778D01*
X414828D01*
X414878Y358559D01*
Y358509D01*
X414828Y358459D01*
X414728D01*
X414678Y358509D01*
X414078Y357921D02*
X414128Y357971D01*
X414228D01*
X414278Y357921D01*
Y357871D01*
X414228Y357821D01*
X414178D01*
X414228D01*
X414278Y357771D01*
Y357721D01*
X414228Y357671D01*
X414128D01*
X414078Y357721D01*
X414378Y357971D02*
Y357771D01*
X414478Y357671D01*
X414578Y357771D01*
Y357971D01*
X414678Y357921D02*
X414728Y357971D01*
X414828D01*
X414878Y357921D01*
Y357871D01*
X414828Y357821D01*
X414778D01*
X414828D01*
X414878Y357771D01*
Y357721D01*
X414828Y357671D01*
X414728D01*
X414678Y357721D01*
X415459Y358709D02*
X415409Y358759D01*
X415309D01*
X415259Y358709D01*
Y358509D01*
X415309Y358459D01*
X415409D01*
X415459Y358509D01*
Y358609D01*
X415359D01*
X415559Y358459D02*
Y358759D01*
X415759Y358459D01*
Y358759D01*
X415859D02*
Y358459D01*
X416009D01*
X416059Y358509D01*
Y358709D01*
X416009Y358759D01*
X415859D01*
X415459Y357921D02*
X415409Y357971D01*
X415309D01*
X415259Y357921D01*
Y357721D01*
X415309Y357671D01*
X415409D01*
X415459Y357721D01*
Y357821D01*
X415359D01*
X415559Y357671D02*
Y357971D01*
X415759Y357671D01*
Y357971D01*
X415859D02*
Y357671D01*
X416009D01*
X416059Y357721D01*
Y357921D01*
X416009Y357971D01*
X415859D01*
X41644Y358459D02*
Y358759D01*
X41659D01*
X41664Y358709D01*
Y358609D01*
X41659Y358559D01*
X41644D01*
X41654D02*
X41664Y358459D01*
X41674Y358759D02*
X41694Y358459D01*
Y358759D02*
X41674Y358459D01*
X41724D02*
X41704D01*
X41724Y358659D01*
Y358709D01*
X41719Y358759D01*
X41709D01*
X41704Y358709D01*
X417621Y358759D02*
X417821D01*
X417721D01*
Y358459D01*
X417921Y358759D02*
X418121Y358459D01*
Y358759D02*
X417921Y358459D01*
X418421D02*
X418221D01*
X418421Y358659D01*
Y358709D01*
X418371Y358759D01*
X418271D01*
X418221Y358709D01*
X41644Y357971D02*
Y357671D01*
X41659D01*
X41664Y357721D01*
Y357921D01*
X41659Y357971D01*
X41644D01*
X41674D02*
X41684D01*
X41679D01*
Y357671D01*
X41674D01*
X41684D01*
X41714Y357971D02*
X41704D01*
X41699Y357921D01*
Y357721D01*
X41704Y357671D01*
X41714D01*
X41719Y357721D01*
Y357921D01*
X41714Y357971D01*
X417821Y357921D02*
X417771Y357971D01*
X417671D01*
X417621Y357921D01*
Y357721D01*
X417671Y357671D01*
X417771D01*
X417821Y357721D01*
X417921Y357971D02*
Y357671D01*
X418121D01*
X418221Y357971D02*
Y357671D01*
Y357771D01*
X418421Y357971D01*
X418271Y357821D01*
X418421Y357671D01*
X426676Y358759D02*
X426876D01*
X426776D01*
Y358459D01*
X426976D02*
Y358759D01*
X427076Y358659D01*
X427176Y358759D01*
Y358459D01*
X427476Y358709D02*
X427426Y358759D01*
X427326D01*
X427276Y358709D01*
Y358659D01*
X427326Y358609D01*
X427426D01*
X427476Y358559D01*
Y358509D01*
X427426Y358459D01*
X427326D01*
X427276Y358509D01*
X426676Y357971D02*
X426876D01*
X426776D01*
Y357671D01*
X426976Y357971D02*
Y357671D01*
X427126D01*
X427176Y357721D01*
Y357921D01*
X427126Y357971D01*
X426976D01*
X427276D02*
X427376D01*
X427326D01*
Y357671D01*
X427276D01*
X427376D01*
X427857Y358759D02*
X428057D01*
X427957D01*
Y358459D01*
X428157Y358759D02*
Y358459D01*
X428307D01*
X428357Y358509D01*
Y358709D01*
X428307Y358759D01*
X428157D01*
X428607D02*
X428507D01*
X428457Y358709D01*
Y358509D01*
X428507Y358459D01*
X428607D01*
X428657Y358509D01*
Y358709D01*
X428607Y358759D01*
X427857Y357971D02*
X428057D01*
X427957D01*
Y357671D01*
X428357Y357921D02*
X428307Y357971D01*
X428207D01*
X428157Y357921D01*
Y357721D01*
X428207Y357671D01*
X428307D01*
X428357Y357721D01*
X428457Y357971D02*
Y357671D01*
Y357771D01*
X428657Y357971D01*
X428507Y357821D01*
X428657Y357671D01*
X429239Y358709D02*
X429189Y358759D01*
X429089D01*
X429039Y358709D01*
Y358509D01*
X429089Y358459D01*
X429189D01*
X429239Y358509D01*
Y358609D01*
X429139D01*
X429338Y358459D02*
Y358759D01*
X429538Y358459D01*
Y358759D01*
X429638D02*
Y358459D01*
X429788D01*
X429838Y358509D01*
Y358709D01*
X429788Y358759D01*
X429638D01*
X429039Y357921D02*
X429089Y357971D01*
X429189D01*
X429239Y357921D01*
Y357871D01*
X429189Y357821D01*
X429139D01*
X429189D01*
X429239Y357771D01*
Y357721D01*
X429189Y357671D01*
X429089D01*
X429039Y357721D01*
X429338Y357971D02*
Y357771D01*
X429438Y357671D01*
X429538Y357771D01*
Y357971D01*
X429638Y357921D02*
X429688Y357971D01*
X429788D01*
X429838Y357921D01*
Y357871D01*
X429788Y357821D01*
X429738D01*
X429788D01*
X429838Y357771D01*
Y357721D01*
X429788Y357671D01*
X429688D01*
X429638Y357721D01*
X429379Y342517D02*
X429329Y342467D01*
Y342367D01*
X429379Y342317D01*
X429579D01*
X429629Y342367D01*
Y342467D01*
X429579Y342517D01*
X429479D01*
Y342417D01*
X429629Y342617D02*
X429329D01*
X429629Y342817D01*
X429329D01*
Y342917D02*
X429629D01*
Y343067D01*
X429579Y343117D01*
X429379D01*
X429329Y343067D01*
Y342917D01*
X430613Y342317D02*
X430313D01*
Y342467D01*
X430363Y342517D01*
X430463D01*
X430513Y342467D01*
Y342317D01*
Y342417D02*
X430613Y342517D01*
X430313Y342617D02*
X430613Y342817D01*
X430313D02*
X430613Y342617D01*
X431298Y342317D02*
Y342517D01*
Y342417D01*
X431598D01*
X431298Y342617D02*
X431598Y342817D01*
X431298D02*
X431598Y342617D01*
D58*
X442108Y329719D02*
G03*
X442108Y329719I-001259J0D01*
G01*
X389746Y337593D02*
G03*
X389746Y337593I-001259J0D01*
G01*
Y357278D02*
G03*
X389746Y357278I-001259J0D01*
G01*
X442108D02*
G03*
X442108Y357278I-001259J0D01*
G01*
X405712Y340142D02*
X40583D01*
X405712Y340398D02*
X40583Y340398D01*
X398074Y340142D02*
X398192Y340142D01*
X398074Y340398D02*
X398192Y340398D01*
X420987Y340142D02*
X421105D01*
X420987Y340398D02*
X421105D01*
X41335Y340142D02*
X413468D01*
X41335Y340398D02*
X413468D01*
X417749Y351904D02*
Y352022D01*
X417493Y351904D02*
Y352022D01*
X401617Y347533D02*
X401617Y34773D01*
X401184Y347533D02*
Y34773D01*
X399649Y347533D02*
Y34773D01*
X399216Y347533D02*
Y34773D01*
X400633Y347533D02*
Y34773D01*
X4002Y347533D02*
Y34773D01*
X428917Y343392D02*
Y344392D01*
X431917D01*
Y343392D02*
Y344392D01*
X428917Y343392D02*
X431917D01*
X393212Y352199D02*
Y354089D01*
X394787Y352199D02*
Y354089D01*
X393212Y352199D02*
X393419D01*
X393212Y354089D02*
X393419D01*
X39458Y352199D02*
X394787D01*
X39458Y354089D02*
X394787D01*
X398724Y338813D02*
Y339207D01*
X398409Y338813D02*
X398724Y338813D01*
X397543Y338813D02*
Y339207D01*
Y338813D02*
X397857D01*
X406361Y338813D02*
Y339207D01*
X406046Y338813D02*
X406361D01*
X40518D02*
Y339207D01*
Y338813D02*
X405495D01*
X413999D02*
Y339207D01*
X413684Y338813D02*
X413999D01*
X412818D02*
Y339207D01*
Y338813D02*
X413133D01*
X421637D02*
Y339207D01*
X421322Y338813D02*
X421637D01*
X420456D02*
Y339207D01*
Y338813D02*
X420771D01*
X422001Y345722D02*
Y345841D01*
X421745D02*
X421745Y345722D01*
X422592D02*
Y345841D01*
X422336D02*
X422336Y345722D01*
X424491Y348134D02*
X424609D01*
X424491Y34839D02*
X424609D01*
X426312Y349423D02*
Y349541D01*
X426568Y349423D02*
Y349541D01*
X426942Y349423D02*
Y349541D01*
X427198Y349423D02*
Y349541D01*
X424669Y348833D02*
Y350053D01*
X425062Y348833D02*
Y350053D01*
X424669D02*
X425062D01*
X424669Y348833D02*
X425062D01*
X416155Y354148D02*
Y354266D01*
X416411Y354148D02*
Y354266D01*
X412247Y357183D02*
Y359183D01*
X408247Y357183D02*
Y359183D01*
X412247D01*
X408247Y357183D02*
X412247D01*
X430373Y357183D02*
Y359183D01*
X433373Y357183D02*
Y359183D01*
X430373Y357183D02*
X433373D01*
X430373Y359183D02*
X433373D01*
X430373D02*
X43229D01*
X433852Y355959D02*
Y356077D01*
X433596Y355959D02*
Y356077D01*
X39895Y351323D02*
X399127D01*
X39895D02*
Y3515D01*
Y352504D02*
Y352681D01*
X399127D01*
X400131D02*
X400308D01*
Y352504D02*
Y352681D01*
X400131Y351323D02*
X400308D01*
Y3515D01*
X400741Y349935D02*
X400741Y350053D01*
X400485D02*
X400485Y349935D01*
X401617Y349512D02*
X401735D01*
X401617Y349768D02*
X401735D01*
X434708Y356608D02*
X435102D01*
Y356293D02*
Y356608D01*
X434708Y355427D02*
X435102D01*
Y355742D01*
D59*
X393409Y351943D02*
G03*
X393409Y351943I-000049J0D01*
G01*
X398891Y339541D02*
G03*
X398891Y339541I-000049J0D01*
G01*
X406529Y339541D02*
G03*
X406529Y339541I-000049J0D01*
G01*
X414167D02*
G03*
X414167Y339541I-000049J0D01*
G01*
X421804D02*
G03*
X421804Y339541I-000049J0D01*
G01*
X425456Y348734D02*
G03*
X425456Y348734I-000049J0D01*
G01*
X399235Y351037D02*
G03*
X399235Y351037I-000049J0D01*
G01*
X434422Y356726D02*
G03*
X434422Y356726I-000049J0D01*
G01*
D60*
X420427Y349987D02*
Y350241D01*
X420174Y344629D02*
X420427D01*
X414815Y349987D02*
Y350241D01*
Y344629D02*
X415069D01*
X420427Y344629D02*
Y344883D01*
X420174Y350241D02*
X420427Y350241D01*
X414815D02*
X415069D01*
X414815Y344883D02*
X414815Y344629D01*
D61*
X406342Y339994D02*
X406342Y340545D01*
X4052D02*
X4052Y339994D01*
X406342D01*
X4052Y340545D02*
X406342D01*
X398704Y339994D02*
Y340545D01*
X397562Y339994D02*
Y340545D01*
Y339994D02*
X398704Y339994D01*
X397562Y340545D02*
X398704Y340545D01*
X421617Y339994D02*
Y340545D01*
X420476Y339994D02*
Y340545D01*
Y339994D02*
X421617D01*
X420476Y340545D02*
X421617D01*
X41398Y339994D02*
Y340545D01*
X412838Y339994D02*
Y340545D01*
Y339994D02*
X41398D01*
X412838Y340545D02*
X41398D01*
X417346Y352533D02*
X417897D01*
X417346Y351392D02*
X417897D01*
Y352533D01*
X417346Y351392D02*
Y352533D01*
X401046Y348282D02*
X401755D01*
X401046Y346982D02*
X401755D01*
Y348282D01*
X401046D02*
X401046Y346982D01*
X399078Y348282D02*
X399787D01*
X399078Y346982D02*
X399787D01*
X399787Y348282D02*
X399787Y346982D01*
X399078Y348282D02*
X399078Y346982D01*
X400062Y348282D02*
X400771D01*
X400062Y346982D02*
X400771D01*
Y348282D01*
X400062D02*
X400062Y346982D01*
X416017Y351586D02*
Y352334D01*
X415683Y351586D02*
Y352334D01*
X416017D01*
X415683Y351586D02*
X416017D01*
X422247Y332445D02*
X422995D01*
X422247Y33211D02*
X422995D01*
X422247D02*
Y332445D01*
X422995Y33211D02*
Y332445D01*
X431302D02*
X43205D01*
X431302Y33211D02*
X43205D01*
X431302D02*
Y332445D01*
X43205Y33211D02*
Y332445D01*
X418694Y351589D02*
Y352337D01*
X418359Y351589D02*
Y352337D01*
X418694D01*
X418359Y351589D02*
X418694D01*
X397956Y338114D02*
X398704D01*
X397956Y33778D02*
X398704Y33778D01*
X397956Y338114D02*
X397956Y33778D01*
X398704Y33778D02*
Y338114D01*
X405476D02*
X406224D01*
X405476Y33778D02*
X406224D01*
X405476D02*
Y338114D01*
X406224Y33778D02*
Y338114D01*
X412995D02*
X413743Y338114D01*
X412995Y33778D02*
X413743D01*
X412995D02*
Y338114D01*
X413743Y338114D02*
X413743Y33778D01*
X420869Y338114D02*
X421617D01*
X420869Y33778D02*
X421617D01*
X420869D02*
Y338114D01*
X421617Y33778D02*
Y338114D01*
X437139Y333754D02*
Y334502D01*
X437474Y333754D02*
Y334502D01*
X437139Y333754D02*
X437474D01*
X437139Y334502D02*
X437474D01*
X421598Y346352D02*
X422149D01*
X421598Y345211D02*
X422149Y345211D01*
Y346352D01*
X421598Y345211D02*
Y346352D01*
X422188D02*
X422739D01*
X422188Y345211D02*
X422739Y345211D01*
Y346352D01*
X422188D02*
X422188Y345211D01*
X422169Y347465D02*
X422917D01*
X422169Y347799D02*
X422917D01*
Y347465D02*
Y347799D01*
X422169Y347465D02*
Y347799D01*
X425279Y345831D02*
X426027D01*
X425279Y345496D02*
X426027D01*
X425279D02*
Y345831D01*
X426027Y345496D02*
Y345831D01*
X425121Y347986D02*
Y348537D01*
X42398Y347986D02*
Y348537D01*
Y347986D02*
X425121D01*
X42398Y348537D02*
X425121D01*
X4252Y348429D02*
X425948D01*
X4252Y348094D02*
X425948D01*
X4252D02*
Y348429D01*
X425948Y348094D02*
Y348429D01*
X426165Y348911D02*
X426716D01*
X426165Y350053D02*
X426716D01*
X426165Y348911D02*
Y350053D01*
X426716Y348911D02*
Y350053D01*
X426794Y348911D02*
X427346D01*
X426794Y350053D02*
X427346D01*
X426794Y348911D02*
Y350053D01*
X427346Y348911D02*
Y350053D01*
X416007Y353636D02*
X416558D01*
X416007Y354778D02*
X416558D01*
X416007Y353636D02*
Y354778D01*
X416558Y353636D02*
Y354778D01*
X412602Y349177D02*
X41335D01*
X412602Y348843D02*
X41335D01*
X412602D02*
Y349177D01*
X41335Y348843D02*
Y349177D01*
X412602Y349965D02*
X41335D01*
X412602Y34963D02*
X41335D01*
X412602D02*
Y349965D01*
X41335Y34963D02*
Y349965D01*
X412602Y346874D02*
X41335D01*
X412602Y347209D02*
X41335D01*
Y346874D02*
Y347209D01*
X412602Y346874D02*
Y347209D01*
Y345299D02*
X41335D01*
X412602Y345634D02*
X41335D01*
Y345299D02*
Y345634D01*
X412602Y345299D02*
Y345634D01*
X433448Y356589D02*
X433999D01*
X433448Y355447D02*
X433999D01*
Y356589D01*
X433448Y355447D02*
Y356589D01*
X435082Y354768D02*
X43583D01*
X435082Y354433D02*
X43583D01*
X435082D02*
Y354768D01*
X43583Y354433D02*
Y354768D01*
X397769Y352179D02*
Y352927D01*
X398104Y352179D02*
Y352927D01*
X397769Y352179D02*
X398104D01*
X397769Y352927D02*
X398104D01*
X399353Y353436D02*
Y354184D01*
X399687Y353436D02*
Y354184D01*
X399353Y353436D02*
X399687D01*
X399353Y354184D02*
X399687D01*
X398487Y35022D02*
X399235D01*
X398487Y350555D02*
X399235D01*
Y35022D02*
Y350555D01*
X398487Y35022D02*
Y350555D01*
X399482Y350191D02*
Y350939D01*
X399816Y350191D02*
Y350939D01*
X399482Y350191D02*
X399816D01*
X399482Y350939D02*
X399816D01*
X400338Y350565D02*
X400889Y350565D01*
X400338Y349423D02*
X400889D01*
Y350565D01*
X400338Y349423D02*
X400338Y350565D01*
X402247Y349364D02*
Y349915D01*
X401105Y349364D02*
Y349915D01*
Y349364D02*
X402247D01*
X401105Y349915D02*
X402247D01*
D62*
X395741Y352724D02*
X396081D01*
X395741Y352224D02*
X396081D01*
X397517Y352754D02*
Y353094D01*
X397017Y352754D02*
Y353094D01*
X398694Y349929D02*
X399034D01*
X398694Y349429D02*
X399034D01*
D63*
X395141Y352134D02*
X396671D01*
X396671Y352804D02*
X396671Y352134D01*
X395141Y352804D02*
X396671D01*
X395141Y352134D02*
Y352804D01*
X396927Y352164D02*
Y353694D01*
Y352164D02*
X397597Y352164D01*
Y353694D01*
X396927D02*
X397597D01*
X398094Y349339D02*
X399624D01*
Y350009D01*
X398094D02*
X399624D01*
X398094Y349339D02*
Y350009D01*
D64*
X390542Y35517D02*
X390842D01*
X386692Y35187D02*
X387242D01*
X387242Y35242D01*
X386692Y35242D02*
X387242Y35242D01*
X386692Y35387D02*
X387242Y35387D01*
Y35442D01*
X386692Y35442D02*
X387242Y35442D01*
X386692Y35112D02*
Y35512D01*
Y35112D02*
X390542D01*
X386692Y35512D02*
X391692Y35512D01*
Y35112D02*
Y3551D01*
X390842Y35112D02*
Y35122D01*
X390542D02*
X390842D01*
X390542Y35112D02*
Y35122D01*
X390842Y35112D02*
X391692D01*
X386618Y331931D02*
Y332231D01*
X389919Y328081D02*
X389919Y328631D01*
X389369Y328631D02*
X389919Y328631D01*
X389369Y328081D02*
Y328631D01*
X387919D02*
X387919Y328081D01*
X387369Y328631D02*
X387919Y328631D01*
X387369Y328081D02*
Y328631D01*
X386669Y328081D02*
X390668D01*
Y331931D01*
X386669Y328081D02*
Y333081D01*
X386688D02*
X390668D01*
X390569Y332231D02*
X390668D01*
X390569Y331931D02*
Y332231D01*
Y331931D02*
X390668D01*
Y332231D02*
X390668Y333081D01*
X416712Y354746D02*
X416952Y354746D01*
X416712Y354396D02*
X416712Y354746D01*
X417192D02*
X417192Y354396D01*
X416952Y354746D02*
X417192Y354746D01*
X416952Y353706D02*
X417192D01*
Y354056D01*
X416712Y353706D02*
Y354056D01*
Y353706D02*
X416952D01*
X402176Y350309D02*
X402176Y350549D01*
X401826Y350549D02*
X402176Y350549D01*
X401826Y350069D02*
X402176Y350069D01*
X402176Y350309D02*
X402176Y350069D01*
X401136D02*
Y350309D01*
Y350069D02*
X401486D01*
X401136Y350549D02*
X401486D01*
X401136Y350309D02*
Y350549D01*
D65*
X420588Y350835D02*
X420255Y350502D01*
Y350835D02*
X420588Y350502D01*
X420421Y350835D02*
Y350502D01*
X420255Y350668D02*
X420588D01*
D66*
X442582Y332459D02*
D03*
D67*
X430023Y328301D02*
D03*
X420968Y328301D02*
D03*
D68*
X425732Y346805D02*
D03*
M02*
