M48
;Layer_Color=9474304
;FILE_FORMAT=2:4
INCH,LZ
;TYPE=PLATED
T1F00S00C0.0118
T2F00S00C0.0236
T3F00S00C0.0315
T4F00S00C0.0354
T5F00S00C0.0394
T6F00S00C0.0600
T7F00S00C0.0630
T8F00S00C0.0827
T9F00S00C0.1181
%
T01
X442306Y343695
X43786Y3394
X437503Y332593
X438212Y332553
X436716Y332593
X436165Y335427
X435259
X434669Y335348
X433566Y335388
X4327Y332553
X433054Y332081
X433212Y331648
X430023Y331884
Y332632
X43018Y331018
X429865Y335309
X429393Y335978
X429905Y338774
X430928
X431716Y338695
X430771Y340467
X430102Y340506
X429669
X427543Y341805
X426676Y342474
X425928Y343498
X424905Y342317
X424413Y342711
X424609Y341333
X424983Y340978
X425417Y340585
X425298Y341825
X42293Y34179
X42459Y339679
X42518Y339128
X425613Y338577
X426952Y33901
X427306Y338695
X427661Y338301
X424275Y336687
X424432Y335427
X424865Y334758
X42455Y332474
Y331884
X42459Y331451
X421952Y334364
X422149Y337671
X421991Y338419
X434865Y341136
X435653Y341254
X421381Y340809
X42069Y34295
X4209Y34331
X4192Y34343
X41844Y34344
X418684Y337632
X417936Y337593
X417109
X417464Y336175
X41833
X419117Y336018
X421361Y332711
Y331175
X41392Y337671
X413881Y338222
Y338656
X41435Y34028
X410417Y337474
X409787Y337396
X409157Y337435
X409629Y336057
X410062
X410495
X406401Y33775
X406322Y338301
Y338734
X40893Y34322
X40936Y34357
X40611Y34081
X403212Y343498
X402188Y343577
X401519Y343183
X39908Y34031
X398881Y338262
Y337907
Y337514
X402109Y337711
X402621
X403054
X403251Y336096
X402739
X402267Y336136
X396716Y3359
X396401
X395968
X395417Y337278
X394983
X394511
X39459Y34523
Y34586
X394472Y346805
X397818Y349522
X398291Y349167
X398094Y35023
X398369Y350939
Y351411
X399472Y351854
Y35215
X399777
Y351854
X40144Y352396
X401401Y352907
Y353419
X401165Y35397
X400456Y354167
X398605Y354285
Y353813
Y353144
X396243Y353459
X39581Y353498
X395338Y353537
X395259Y355309
X394235Y355348
X393409
X414905Y355033
X416046Y35523
X416873
X416519Y357041
X41522Y357002
X418054Y356963
X419157Y35464
X42022
X421007Y354679
X420889Y352907
X420298Y352868
X42018Y351766
X419983Y351274
X420495Y350703
X421086Y350742
X421165Y351274
X420869Y351766
X42146
X421716Y352868
X42148Y350152
X419885Y349896
X419294
X418704
X417621Y349797
X417264Y349404
X41709Y34882
X41668Y34822
X41685Y34778
X41625Y34797
X416046Y34714
X415456
X415298Y346175
X415732Y346136
X416125Y345939
X41624Y3464
X41651Y34666
X417129Y34714
X417621
X418015
X419196Y347435
X419688Y34714
X419157Y345427
X418684Y345388
X418291Y345427
X41764Y34502
X416794Y34523
X415259Y345049
X415456Y343864
X414511Y344128
X413999
X413842Y345112
X413645Y346136
Y346608
X41392Y346411
X412149Y346608
X412109Y347081
X412188Y346096
Y349404
X412228Y349837
X412385Y35027
X413684Y350388
X414373
X414964
X415338Y349797
X415653Y348813
X41361Y34865
X41348Y34831
X414629Y352199
X41522
X41704Y35115
X417621Y352829
X418999Y352553
X418212Y349108
X417818
X4217Y34738
X42116Y34445
X42123Y34395
X420237Y344433
X40935Y34681
X40893Y34734
X42197Y34722
X42224Y34701
X422458Y346648
X423015Y34712
X425338Y347041
X42585
X426283
X426598Y345821
X427109Y34586
X427582Y345821
X427149Y348616
X426676Y348656
X426165
X425889Y349404
X426401Y350388
X426755Y351096
X426676Y351844
X42707Y352907
Y35464
X42581Y354797
X425023Y354876
X424275
X423212Y354797
X424413Y352652
Y352159
X424117Y351766
X424216Y351274
X425102Y351372
X4252Y352061
Y35275
X425417Y350782
X424885Y348655
X422188Y350152
X421952Y351274
X422444Y351766
X423527
X423133Y351274
X422936Y344285
X422543Y344581
X422247Y344876
X422149Y343793
X430456Y347081
X430732Y34838
X431046Y349128
Y350309
X431086Y351136
X43206Y35195
X43256Y35277
X434117Y352789
X433566Y351963
X433054Y3509
X432976Y349364
X433015Y348459
X432739Y347593
X432228Y34712
X435548Y346648
X436519Y346254
Y347151
Y348047
Y348944
Y349841
Y350738
Y351635
Y352531
Y353428
X436913Y353852
X431676Y354482
X431322Y354837
X430535Y355191
X429039Y355073
X428684Y357002
X429708Y356963
X43222Y35693
X43372Y35672
X43392Y357199
X434196Y357986
X436952Y34523
X437582Y34527
X438251
X438999Y345309
X439747
X4406
X441453
X442306Y345309
Y344502
X442464Y353852
X442543Y354364
Y355427
Y35653
X442503Y357868
X442464Y358734
X441663Y353852
X440863
X440062
X439314
X438527
X437661
T02
X441486Y330355
X44085Y330619
X440213Y330355
X43995Y329719
X440213Y329082
X44085Y328819
X441486Y329082
X44175Y329719
X389124Y336956
X388487Y336693
X387851Y336956
X387587Y337593
X387851Y338229
X388487Y338493
X389124Y338229
X389387Y337593
X389124Y356641
X389387Y357278
X389124Y357914
X388487Y358178
X387851Y357914
X387587Y357278
X387851Y356641
X388487Y356378
X41194Y35643
X412583Y355683
X413153Y349367
X41315Y34466
X416597Y351783
X418185Y351785
X42164Y34803
X424354Y353904
X433273Y355683
X440213Y356641
X44085Y356378
X441486Y356641
X44175Y357278
X441486Y357914
X44085Y358178
X440213Y357914
X43995Y357278
T03
X418228Y342274
X417228
X416228
X410616
X409616
X408616
Y335274
X409616
X410616
X416228
X417228
X418228
X403004
X402004
X401004
X395393
X394393
X393393
Y342274
X394393
X395393
X401004
X402004
X403004
T04
X411747Y358683
X410747
X409747
X408747
Y357683
X409747
X410747
X411747
X430873Y357683
Y358683
X431873
X432873
Y357683
X431873Y357683
X431417Y343892
X430417
X429417
T05
X418196Y3329
X417196
X410716
X409716
X403235
X402235
X395361
X394361
X422739Y357671
X425889
T06
X389669Y332081
X387668
X390692Y35212
Y35412
T07
X440456Y341986
Y339986
Y337986
Y335986
Y333986
X43755Y329719
X43555
X43355
X43155
X428495
X426495
X424495
X422495
T08
X419196Y3309
X415196
X411716
X407716
X404235
X400235
X396361
X392361
T09
X44085Y329719
X388487Y337593
Y357278
X44085
M30
