G04 Layer_Physical_Order=1*
G04 Layer_Color=255*
%FSTAX24Y24*%
%MOIN*%
G70*
G01*
G75*
%ADD10R,0.0276X0.0787*%
%ADD11R,0.0787X0.0276*%
%ADD12R,0.0118X0.0575*%
%ADD13R,0.0575X0.0118*%
%ADD14R,0.0256X0.0335*%
%ADD15R,0.0335X0.0256*%
%ADD16R,0.0512X0.0295*%
%ADD17R,0.0500X0.0550*%
%ADD18R,0.0201X0.0217*%
%ADD19R,0.0550X0.0500*%
%ADD20R,0.0217X0.0201*%
%ADD21R,0.0846X0.0906*%
%ADD22C,0.0400*%
%ADD23R,0.0236X0.0354*%
%ADD24R,0.0709X0.0394*%
%ADD25R,0.0394X0.0236*%
%ADD26R,0.0300X0.0300*%
%ADD27R,0.0472X0.0866*%
%ADD28R,0.0276X0.0630*%
%ADD29R,0.0472X0.0551*%
%ADD30R,0.0630X0.0551*%
%ADD31O,0.0098X0.0335*%
%ADD32O,0.0335X0.0098*%
%ADD33R,0.0591X0.0591*%
%ADD34R,0.0300X0.0300*%
%ADD35R,0.0354X0.0236*%
%ADD36C,0.0300*%
%ADD37C,0.0200*%
%ADD38C,0.0100*%
%ADD39C,0.0150*%
%ADD40C,0.0120*%
%ADD41C,0.0250*%
%ADD42C,0.0591*%
%ADD43R,0.0591X0.0591*%
%ADD44O,0.0700X0.0800*%
%ADD45C,0.1378*%
%ADD46R,0.1575X0.1181*%
%ADD47O,0.1575X0.1181*%
%ADD48C,0.2362*%
%ADD49O,0.1200X0.1100*%
%ADD50O,0.1100X0.1200*%
%ADD51C,0.0700*%
%ADD52R,0.1181X0.1575*%
%ADD53O,0.1181X0.1575*%
%ADD54C,0.0394*%
%ADD55C,0.0236*%
%ADD56C,0.0472*%
G36*
X40069Y34546D02*
X4012Y34495D01*
X41341D01*
Y34435D01*
X40071D01*
X40006Y345D01*
Y34741D01*
X40069D01*
Y34546D01*
D02*
G37*
G36*
X421127Y346037D02*
Y344666D01*
X421075Y344655D01*
X421003Y344607D01*
X420955Y344535D01*
X420938Y34445D01*
X420955Y344365D01*
X421003Y344293D01*
X421075Y344245D01*
X42116Y344228D01*
X421222Y34424D01*
X421252Y344198D01*
X421236Y344179D01*
X421229Y344172D01*
X421145Y344155D01*
X421073Y344107D01*
X421025Y344035D01*
X421008Y34395D01*
X421025Y343865D01*
X421073Y343793D01*
X421145Y343745D01*
X42123Y343728D01*
X421315Y343745D01*
X421387Y343793D01*
X421435Y343865D01*
X421452Y34395D01*
X421451Y343955D01*
X421568Y344072D01*
X421601Y344121D01*
X421613Y34418D01*
Y345201D01*
X421663Y345227D01*
X421667Y345225D01*
X421706Y345217D01*
X422041D01*
X422043Y345217D01*
X422294D01*
X422296Y345217D01*
X422631D01*
X42267Y345225D01*
X422697Y345243D01*
X422847D01*
X422925Y345258D01*
X422991Y345303D01*
X423081Y345392D01*
X423127Y345373D01*
Y343973D01*
X422626Y343472D01*
X422621Y343471D01*
X422609Y343463D01*
X42106D01*
X421057Y343467D01*
X420985Y343515D01*
X4209Y343532D01*
X420826Y343518D01*
X420776Y343545D01*
Y344912D01*
X420911D01*
X42095Y34492D01*
X420983Y344942D01*
X421005Y344975D01*
X421013Y345014D01*
Y345132D01*
X421005Y345171D01*
X421005Y345171D01*
X421005Y345172D01*
X421013Y345211D01*
Y345329D01*
X421005Y345368D01*
X421005Y345368D01*
X421005Y345368D01*
X421013Y345407D01*
Y345526D01*
X421005Y345565D01*
X421005Y345565D01*
X421005Y345565D01*
X421013Y345604D01*
Y345722D01*
X421005Y345761D01*
X421005Y345762D01*
X421005Y345762D01*
X421013Y345801D01*
Y345919D01*
X421005Y345958D01*
X421005Y345959D01*
X421005Y345959D01*
X421013Y345998D01*
Y346101D01*
X421063Y346101D01*
X421127Y346037D01*
D02*
G37*
G36*
X39969Y34198D02*
X40015Y34152D01*
X42011D01*
X42059Y342D01*
X42231D01*
X42373Y34058D01*
Y33466D01*
X42425Y33414D01*
X437124D01*
X437134Y334125D01*
X437167Y334103D01*
X437206Y334095D01*
X437407D01*
X437446Y334103D01*
X437479Y334125D01*
X437489Y33414D01*
X440836D01*
X44084Y33413D01*
Y33357D01*
X43206D01*
X43165Y33316D01*
Y332412D01*
X431643Y332378D01*
Y332177D01*
X43165Y332144D01*
Y33046D01*
X43161Y33042D01*
X43116D01*
Y33286D01*
X43069Y33333D01*
X42321D01*
X42262Y33274D01*
Y332451D01*
X422618Y33245D01*
X422596Y332417D01*
X422588Y332378D01*
Y332177D01*
X422596Y332138D01*
X422618Y332105D01*
X42262Y332104D01*
Y33046D01*
X42261Y33045D01*
X42211D01*
Y33321D01*
X42281Y33391D01*
Y34057D01*
X42213Y34125D01*
X42128D01*
X42103Y341D01*
Y33932D01*
X42036D01*
Y34068D01*
X42003Y34101D01*
X41363D01*
X41338Y34076D01*
Y33929D01*
X41275D01*
Y34085D01*
X41259Y34101D01*
X406203D01*
X406195Y341015D01*
X40611Y341032D01*
X406025Y341015D01*
X406017Y34101D01*
X40585D01*
X40569Y34085D01*
Y33931D01*
X40511D01*
Y34074D01*
X40493Y34092D01*
X39842D01*
X39813Y34063D01*
Y33925D01*
X39752D01*
Y34089D01*
X39886Y34223D01*
Y3474D01*
X39969D01*
Y34198D01*
D02*
G37*
G36*
X40919Y35898D02*
Y35707D01*
X40948Y35678D01*
X41212D01*
X41228Y35662D01*
Y35633D01*
X41212Y35617D01*
X40981D01*
X4092Y35556D01*
Y35442D01*
X40257Y34779D01*
X39919D01*
X39888Y3481D01*
Y350238D01*
X398887Y350248D01*
X398894Y350287D01*
Y350488D01*
X398887Y350527D01*
X39888Y350537D01*
Y351892D01*
X398896Y35194D01*
X398905Y351944D01*
X398915Y351946D01*
X398917Y351947D01*
X398919Y351947D01*
X399058D01*
X399062Y351948D01*
X399176D01*
X399181Y351949D01*
X39922Y351918D01*
Y35174D01*
X399232Y351728D01*
Y351707D01*
X39924Y351668D01*
X399262Y351635D01*
X399295Y351612D01*
X399334Y351605D01*
X399347D01*
X399382Y351566D01*
X399379Y351549D01*
Y351435D01*
X399378Y351431D01*
Y35086D01*
X399389Y350802D01*
X39939Y350801D01*
X39939Y35013D01*
X39964Y34988D01*
Y34877D01*
X39995Y34846D01*
X4022D01*
X40827Y35453D01*
Y35887D01*
X408503Y359103D01*
X409067D01*
X40919Y35898D01*
D02*
G37*
G36*
X423127Y347607D02*
Y346929D01*
X423081Y346909D01*
X422569Y347421D01*
Y3475D01*
X422576Y347532D01*
Y347732D01*
X422569Y347764D01*
Y347765D01*
X422554Y347843D01*
X42251Y347909D01*
X422244Y348174D01*
X422178Y348218D01*
X4221Y348234D01*
X421959D01*
X421957Y348237D01*
X421985Y348287D01*
X422447D01*
X423127Y347607D01*
D02*
G37*
G36*
X39583Y35276D02*
Y3515D01*
X39521Y35088D01*
X39058D01*
X39009Y35137D01*
Y35281D01*
X39024Y35296D01*
X39563D01*
X39583Y35276D01*
D02*
G37*
G36*
X442675Y353734D02*
X436716D01*
Y345467D01*
X442675D01*
Y343104D01*
X424526D01*
X424507Y343151D01*
X424528Y343172D01*
X424561Y343221D01*
X424573Y34328D01*
Y345363D01*
X42472Y34551D01*
X425282D01*
X425295Y345491D01*
X425328Y345469D01*
X425367Y345461D01*
X425584D01*
X425623Y345469D01*
X425656Y345491D01*
X425678Y345524D01*
X425686Y345563D01*
Y345764D01*
X425678Y345803D01*
X425656Y345836D01*
X425623Y345858D01*
X425584Y345866D01*
X425367D01*
X425328Y345858D01*
X425295Y345836D01*
X425282Y345816D01*
X42472D01*
X424506Y34603D01*
Y346506D01*
X424708D01*
X424747Y346514D01*
X42478Y346536D01*
X424802Y346569D01*
X42481Y346608D01*
Y347002D01*
X424802Y347041D01*
X42478Y347074D01*
X424747Y347096D01*
X424708Y347104D01*
X424369D01*
Y347998D01*
X424383Y348D01*
X424416Y348022D01*
X424438Y348055D01*
X424446Y348094D01*
Y348282D01*
X424465Y348312D01*
X424477Y34837D01*
Y348849D01*
X424521D01*
X42456Y348857D01*
X424593Y348879D01*
X424615Y348912D01*
X424623Y348951D01*
Y349187D01*
X424615Y349226D01*
X424595Y349256D01*
X424615Y349286D01*
X424623Y349325D01*
Y349561D01*
X424615Y3496D01*
X424595Y34963D01*
X424615Y34966D01*
X424623Y349699D01*
Y349935D01*
X424615Y349974D01*
X424593Y350007D01*
X42456Y350029D01*
X424521Y350037D01*
X424127D01*
X424088Y350029D01*
X424055Y350007D01*
X424033Y349974D01*
X424028Y34995D01*
X42095D01*
X42095Y34995D01*
X420911Y349958D01*
X420336D01*
X420297Y34995D01*
X420263Y349928D01*
X420241Y349895D01*
X420234Y349856D01*
Y349738D01*
X420241Y349699D01*
X420242Y349699D01*
X420241Y349698D01*
X420234Y349659D01*
Y349556D01*
X417424D01*
X417421Y349561D01*
X417349Y349609D01*
X417264Y349626D01*
X417178Y349609D01*
X417106Y349561D01*
X417058Y349489D01*
X417041Y349404D01*
X417058Y349318D01*
X417106Y349246D01*
X417178Y349198D01*
X417264Y349181D01*
X417349Y349198D01*
X417421Y349246D01*
X417424Y349251D01*
X420234D01*
Y349148D01*
X420241Y349109D01*
X420242Y349108D01*
X420241Y349108D01*
X420234Y349069D01*
Y348951D01*
X420241Y348912D01*
X420242Y348911D01*
X420241Y348911D01*
X420234Y348872D01*
Y348754D01*
X420241Y348715D01*
X420242Y348715D01*
X420241Y348714D01*
X420234Y348675D01*
Y348557D01*
X420241Y348518D01*
X420242Y348518D01*
X420241Y348517D01*
X420234Y348478D01*
Y34836D01*
X420241Y348321D01*
X420242Y348321D01*
X420241Y348321D01*
X420234Y348282D01*
Y348179D01*
X417096D01*
X417037Y348167D01*
X416987Y348134D01*
X416876Y348022D01*
X416867Y348024D01*
X416861Y348032D01*
X416847Y348078D01*
X416885Y348135D01*
X416902Y34822D01*
X416885Y348305D01*
X416846Y348364D01*
X416858Y348372D01*
X417085Y348599D01*
X41709Y348598D01*
X417175Y348615D01*
X417247Y348663D01*
X417295Y348735D01*
X417312Y34882D01*
X417295Y348905D01*
X417247Y348977D01*
X417175Y349025D01*
X41709Y349042D01*
X417005Y349025D01*
X416933Y348977D01*
X416885Y348905D01*
X416868Y34882D01*
X416869Y348815D01*
X416687Y348633D01*
X415855D01*
X415828Y348683D01*
X415858Y348728D01*
X415875Y348813D01*
X415858Y348898D01*
X41581Y34897D01*
X415738Y349018D01*
X415653Y349035D01*
X415568Y349018D01*
X415496Y34897D01*
X415493Y348966D01*
X415009D01*
Y349069D01*
X415001Y349108D01*
X415001Y349108D01*
X415001Y349109D01*
X415009Y349148D01*
Y349266D01*
X415001Y349305D01*
X415001Y349305D01*
X415001Y349305D01*
X415009Y349344D01*
Y349463D01*
X415001Y349502D01*
X415001Y349502D01*
X415001Y349502D01*
X415009Y349541D01*
Y349659D01*
X415001Y349698D01*
X415001Y349699D01*
X415001Y349699D01*
X415009Y349738D01*
Y349856D01*
X415001Y349895D01*
X414979Y349928D01*
X414946Y34995D01*
X414907Y349958D01*
X414332D01*
X414293Y34995D01*
X414292Y34995D01*
X413346D01*
X413333Y34997D01*
X4133Y349992D01*
X413261Y35D01*
X413044D01*
X413005Y349992D01*
X412972Y34997D01*
X41295Y349937D01*
X412943Y349898D01*
Y349697D01*
X41295Y349658D01*
X41296Y349643D01*
X412913Y349607D01*
X412859Y349537D01*
X412825Y349455D01*
X412814Y349367D01*
X412825Y349279D01*
X412859Y349198D01*
X412913Y349127D01*
X412923Y349119D01*
Y34901D01*
Y347041D01*
Y345467D01*
Y345052D01*
X401242D01*
X400792Y345502D01*
Y34741D01*
X400784Y347449D01*
X400762Y347482D01*
X400729Y347504D01*
X40069Y347512D01*
X40006D01*
X400021Y347504D01*
X399988Y347482D01*
X399966Y347449D01*
X399958Y34741D01*
Y345D01*
X399966Y344961D01*
X399988Y344928D01*
X400638Y344278D01*
X400671Y344256D01*
X40071Y344248D01*
X41341D01*
X413449Y344256D01*
X413482Y344278D01*
X413504Y344311D01*
X413512Y34435D01*
Y34495D01*
X413504Y344989D01*
X413482Y345022D01*
X413449Y345044D01*
X41341Y345052D01*
X413382D01*
Y345314D01*
X414292D01*
X414293Y345313D01*
X414332Y345306D01*
X414907D01*
X414946Y345313D01*
X414979Y345335D01*
X415001Y345368D01*
X415009Y345407D01*
Y345526D01*
X415001Y345565D01*
X415001Y345565D01*
X415001Y345565D01*
X415009Y345604D01*
Y345722D01*
X415001Y345761D01*
X415001Y345762D01*
X415001Y345762D01*
X415009Y345801D01*
Y345919D01*
X415001Y345958D01*
X415001Y345959D01*
X415001Y345959D01*
X415009Y345998D01*
Y346116D01*
X415001Y346155D01*
X415001Y346156D01*
X415001Y346156D01*
X415009Y346195D01*
Y346298D01*
X416046D01*
X416083Y346243D01*
X416155Y346195D01*
X41624Y346178D01*
X416325Y346195D01*
X416397Y346243D01*
X416445Y346315D01*
X416462Y346396D01*
X416467Y346411D01*
X416497Y34644D01*
X41651Y346438D01*
X416595Y346455D01*
X416667Y346503D01*
X416715Y346575D01*
X416732Y34666D01*
X416715Y346745D01*
X416667Y346817D01*
X416595Y346865D01*
X41651Y346882D01*
X416425Y346865D01*
X416353Y346817D01*
X416342Y346801D01*
X414946D01*
X414946Y346801D01*
X414907Y346809D01*
X414332D01*
X414293Y346801D01*
X41426Y346779D01*
X414237Y346746D01*
X41423Y346707D01*
Y346589D01*
X414237Y34655D01*
X414238Y346549D01*
X414237Y346549D01*
X41423Y34651D01*
Y346392D01*
X414237Y346353D01*
X414238Y346352D01*
X414237Y346352D01*
X41423Y346313D01*
Y346195D01*
X414237Y346156D01*
X414238Y346156D01*
X414237Y346155D01*
X41423Y346116D01*
Y345998D01*
X414237Y345959D01*
X414238Y345959D01*
X414237Y345958D01*
X41423Y345919D01*
Y345801D01*
X414237Y345762D01*
X414238Y345762D01*
X414237Y345761D01*
X41423Y345722D01*
Y345619D01*
X413382D01*
Y346888D01*
X414292D01*
X414293Y346888D01*
X414332Y34688D01*
X414907D01*
X414946Y346888D01*
X414979Y34691D01*
X415001Y346943D01*
X415009Y346982D01*
Y3471D01*
X415001Y347139D01*
X415001Y34714D01*
X415001Y34714D01*
X415009Y347179D01*
Y347297D01*
X415001Y347336D01*
X415001Y347337D01*
X415001Y347337D01*
X415009Y347376D01*
Y347494D01*
X415001Y347533D01*
X415001Y347533D01*
X415001Y347534D01*
X415009Y347573D01*
Y347691D01*
X415001Y34773D01*
X415001Y34773D01*
X415001Y347731D01*
X415009Y34777D01*
Y347888D01*
X415001Y347927D01*
X415001Y347927D01*
X415001Y347928D01*
X415009Y347967D01*
Y348085D01*
X415001Y348124D01*
X415001Y348124D01*
X415001Y348124D01*
X415009Y348163D01*
Y348266D01*
X415127D01*
X415282Y348112D01*
X415331Y348079D01*
X41539Y348067D01*
X415997D01*
X416037Y348017D01*
X416028Y34797D01*
X416045Y347885D01*
X416093Y347813D01*
X416165Y347765D01*
X41625Y347748D01*
X416255Y347749D01*
X416582Y347422D01*
X416631Y347389D01*
X41669Y347377D01*
X41703D01*
X417089Y347389D01*
X417138Y347422D01*
X417392Y347676D01*
X420234D01*
Y347573D01*
X420241Y347534D01*
X420263Y347501D01*
X420297Y347479D01*
X420336Y347471D01*
X420911D01*
X42095Y347479D01*
X42095Y347479D01*
X421448D01*
X421478Y347441D01*
X42146Y347391D01*
X42095D01*
X42095Y347391D01*
X420911Y347399D01*
X420336D01*
X420297Y347391D01*
X420263Y347369D01*
X420241Y347336D01*
X420234Y347297D01*
Y347179D01*
X420241Y34714D01*
X420242Y34714D01*
X420241Y347139D01*
X420234Y3471D01*
Y346982D01*
X420241Y346943D01*
X420242Y346943D01*
X420241Y346943D01*
X420234Y346904D01*
Y346785D01*
X420241Y346746D01*
X420242Y346746D01*
X420241Y346746D01*
X420234Y346707D01*
Y346589D01*
X420241Y34655D01*
X420242Y346549D01*
X420241Y346549D01*
X420234Y34651D01*
Y346392D01*
X420241Y346353D01*
X420242Y346352D01*
X420241Y346352D01*
X420234Y346313D01*
Y346195D01*
X420241Y346156D01*
X420242Y346156D01*
X420241Y346155D01*
X420234Y346116D01*
Y345998D01*
X420241Y345959D01*
X420242Y345959D01*
X420241Y345958D01*
X420234Y345919D01*
Y345801D01*
X420241Y345762D01*
X420242Y345762D01*
X420241Y345761D01*
X420234Y345722D01*
Y345604D01*
X420241Y345565D01*
X420242Y345565D01*
X420241Y345565D01*
X420234Y345526D01*
Y345407D01*
X420241Y345368D01*
X420242Y345368D01*
X420241Y345368D01*
X420234Y345329D01*
Y345211D01*
X420241Y345172D01*
X420242Y345171D01*
X420241Y345171D01*
X420234Y345132D01*
Y345014D01*
X420241Y344975D01*
X420263Y344942D01*
X420297Y34492D01*
X420336Y344912D01*
X42047D01*
Y344566D01*
X42042Y344551D01*
X420394Y34459D01*
X420322Y344639D01*
X420237Y344655D01*
X420194Y344647D01*
X420144Y344688D01*
Y344721D01*
X420137Y34476D01*
X420115Y344793D01*
X420082Y344815D01*
X420043Y344823D01*
X419924D01*
X419885Y344815D01*
X419852Y344793D01*
X41983Y34476D01*
X419822Y344721D01*
Y344444D01*
X41982Y344433D01*
X419822Y344422D01*
Y344145D01*
X41983Y344106D01*
X419852Y344073D01*
X419885Y344051D01*
X419924Y344043D01*
X420043D01*
X420082Y344051D01*
X420115Y344073D01*
X420137Y344106D01*
X420144Y344145D01*
Y344178D01*
X420194Y344219D01*
X420237Y344211D01*
X420322Y344228D01*
X420394Y344276D01*
X42042Y344315D01*
X42047Y3443D01*
Y343457D01*
X420127Y343113D01*
X419635D01*
X419615Y343159D01*
X419698Y343242D01*
X419731Y343291D01*
X419743Y34335D01*
Y344106D01*
X419743Y344106D01*
X419751Y344145D01*
Y344721D01*
X419743Y34476D01*
X419721Y344793D01*
X419688Y344815D01*
X419649Y344823D01*
X419531D01*
X419492Y344815D01*
X419491Y344815D01*
X419491Y344815D01*
X419452Y344823D01*
X419334D01*
X419295Y344815D01*
X419294Y344815D01*
X419294Y344815D01*
X419255Y344823D01*
X419137D01*
X419098Y344815D01*
X419098Y344815D01*
X419097Y344815D01*
X419058Y344823D01*
X41894D01*
X418901Y344815D01*
X418901Y344815D01*
X4189Y344815D01*
X418861Y344823D01*
X418743D01*
X418704Y344815D01*
X418704Y344815D01*
X418704Y344815D01*
X418665Y344823D01*
X418546D01*
X418507Y344815D01*
X418507Y344815D01*
X418507Y344815D01*
X418468Y344823D01*
X41835D01*
X418311Y344815D01*
X41831Y344815D01*
X41831Y344815D01*
X418271Y344823D01*
X418153D01*
X418114Y344815D01*
X418113Y344815D01*
X418113Y344815D01*
X418074Y344823D01*
X417956D01*
X417917Y344815D01*
X417917Y344815D01*
X417916Y344815D01*
X417877Y344823D01*
X417826D01*
X417816Y344837D01*
X417804Y344873D01*
X417845Y344935D01*
X417862Y34502D01*
X417845Y345105D01*
X417797Y345177D01*
X417725Y345225D01*
X41764Y345242D01*
X417555Y345225D01*
X417492Y345183D01*
X41736D01*
X417298Y345171D01*
X417245Y345135D01*
X417112Y345003D01*
X417077Y34495D01*
X417064Y344888D01*
Y344433D01*
X417067Y344422D01*
Y344145D01*
X417074Y344106D01*
X417096Y344073D01*
X417129Y344051D01*
X417169Y344043D01*
X417271D01*
Y343833D01*
X417161Y343723D01*
X415677D01*
X415653Y343767D01*
X415661Y343779D01*
X415678Y343864D01*
X415661Y343949D01*
X415632Y343993D01*
X415658Y344043D01*
X415712D01*
X415751Y344051D01*
X415751Y344051D01*
X415752Y344051D01*
X415791Y344043D01*
X415909D01*
X415948Y344051D01*
X415948Y344051D01*
X415948Y344051D01*
X415987Y344043D01*
X416105D01*
X416145Y344051D01*
X416145Y344051D01*
X416145Y344051D01*
X416184Y344043D01*
X416302D01*
X416341Y344051D01*
X416342Y344051D01*
X416342Y344051D01*
X416381Y344043D01*
X416499D01*
X416538Y344051D01*
X416539Y344051D01*
X416539Y344051D01*
X416578Y344043D01*
X416696D01*
X416735Y344051D01*
X416735Y344051D01*
X416736Y344051D01*
X416775Y344043D01*
X416893D01*
X416932Y344051D01*
X416965Y344073D01*
X416987Y344106D01*
X416995Y344145D01*
Y344721D01*
X416987Y34476D01*
X416965Y344793D01*
X416932Y344815D01*
X416893Y344823D01*
X416775D01*
X416736Y344815D01*
X416735Y344815D01*
X416735Y344815D01*
X416696Y344823D01*
X416578D01*
X416539Y344815D01*
X416539Y344815D01*
X416538Y344815D01*
X416499Y344823D01*
X416381D01*
X416342Y344815D01*
X416342Y344815D01*
X416341Y344815D01*
X416302Y344823D01*
X416184D01*
X416145Y344815D01*
X416145Y344815D01*
X416145Y344815D01*
X416105Y344823D01*
X415987D01*
X415948Y344815D01*
X415948Y344815D01*
X415948Y344815D01*
X415909Y344823D01*
X415791D01*
X415752Y344815D01*
X415751Y344815D01*
X415751Y344815D01*
X415712Y344823D01*
X415594D01*
X415555Y344815D01*
X415554Y344815D01*
X415554Y344815D01*
X415515Y344823D01*
X415412D01*
Y344889D01*
X415416Y344892D01*
X415465Y344964D01*
X415481Y345049D01*
X415465Y345134D01*
X415416Y345206D01*
X415344Y345255D01*
X415259Y345271D01*
X415174Y345255D01*
X415102Y345206D01*
X415058Y34514D01*
X415032Y34514D01*
X415006Y345146D01*
X415001Y345171D01*
X414979Y345204D01*
X414946Y345226D01*
X414907Y345234D01*
X414332D01*
X414293Y345226D01*
X41426Y345204D01*
X414237Y345171D01*
X41423Y345132D01*
Y345014D01*
X414237Y344975D01*
X41426Y344942D01*
X414293Y34492D01*
X414332Y344912D01*
X414907D01*
X414946Y34492D01*
X414979Y344942D01*
X415001Y344974D01*
X415004Y344975D01*
X415052Y344973D01*
X415054Y344964D01*
X415102Y344892D01*
X415106Y344889D01*
Y34476D01*
X415106Y34476D01*
X415098Y344721D01*
Y344145D01*
X415106Y344106D01*
X415128Y344073D01*
X415161Y344051D01*
X4152Y344043D01*
X415253D01*
X41528Y343993D01*
X41525Y343949D01*
X415234Y343864D01*
X41525Y343779D01*
X415258Y343767D01*
X415235Y343723D01*
X40952D01*
X409517Y343727D01*
X409445Y343775D01*
X40936Y343792D01*
X409275Y343775D01*
X409203Y343727D01*
X4092Y343723D01*
X40744D01*
X407381Y343711D01*
X407332Y343678D01*
X406758Y343104D01*
X406693D01*
X406712Y343058D01*
X406667Y343013D01*
X402591D01*
X402532Y343001D01*
X402483Y342968D01*
X402196Y342681D01*
X402122Y342712D01*
X402004Y342728D01*
X401887Y342712D01*
X401778Y342667D01*
X401684Y342595D01*
X401611Y342501D01*
X401566Y342391D01*
X401551Y342274D01*
X401566Y342156D01*
X401611Y342047D01*
X401684Y341953D01*
X401778Y341881D01*
X401887Y341835D01*
X402004Y34182D01*
X402122Y341835D01*
X402231Y341881D01*
X402325Y341953D01*
X402398Y342047D01*
X402443Y342156D01*
X402458Y342274D01*
X402443Y342391D01*
X402412Y342465D01*
X402654Y342707D01*
X40275D01*
X402765Y342657D01*
X402684Y342595D01*
X402611Y342501D01*
X402566Y342391D01*
X402551Y342274D01*
X402566Y342156D01*
X402611Y342047D01*
X402684Y341953D01*
X402778Y341881D01*
X402887Y341835D01*
X403004Y34182D01*
X403122Y341835D01*
X403231Y341881D01*
X403325Y341953D01*
X403398Y342047D01*
X403428Y342121D01*
X407104D01*
X407162Y342132D01*
X407212Y342165D01*
X408113Y343067D01*
X40877D01*
X408773Y343063D01*
X408845Y343015D01*
X40893Y342998D01*
X409015Y343015D01*
X409087Y343063D01*
X40909Y343067D01*
X415335D01*
X415355Y343021D01*
X415267Y342933D01*
X410122D01*
X410064Y342921D01*
X410014Y342888D01*
X409807Y342681D01*
X409733Y342712D01*
X409616Y342728D01*
X409499Y342712D01*
X409389Y342667D01*
X409295Y342595D01*
X409223Y342501D01*
X409178Y342391D01*
X409162Y342274D01*
X409178Y342156D01*
X409223Y342047D01*
X409295Y341953D01*
X409389Y341881D01*
X409499Y341835D01*
X409616Y34182D01*
X409733Y341835D01*
X409843Y341881D01*
X409937Y341953D01*
X410009Y342047D01*
X410054Y342156D01*
X41007Y342274D01*
X410054Y342391D01*
X410024Y342465D01*
X410186Y342627D01*
X410259D01*
X410282Y342577D01*
X410223Y342501D01*
X410178Y342391D01*
X410162Y342274D01*
X410178Y342156D01*
X410223Y342047D01*
X410295Y341953D01*
X410389Y341881D01*
X410499Y341835D01*
X410616Y34182D01*
X410733Y341835D01*
X410843Y341881D01*
X410937Y341953D01*
X411009Y342047D01*
X41104Y342121D01*
X415174D01*
X415232Y342132D01*
X415282Y342165D01*
X415923Y342807D01*
X417479D01*
X417499Y342761D01*
X417419Y342681D01*
X417345Y342712D01*
X417228Y342728D01*
X41711Y342712D01*
X417001Y342667D01*
X416907Y342595D01*
X416834Y342501D01*
X416789Y342391D01*
X416774Y342274D01*
X416789Y342156D01*
X416834Y342047D01*
X416907Y341953D01*
X417001Y341881D01*
X41711Y341835D01*
X417228Y34182D01*
X417345Y341835D01*
X417454Y341881D01*
X417548Y341953D01*
X417621Y342047D01*
X417666Y342156D01*
X417681Y342274D01*
X417666Y342391D01*
X417635Y342465D01*
X417777Y342607D01*
X417853D01*
X417878Y342557D01*
X417834Y342501D01*
X417789Y342391D01*
X417774Y342274D01*
X417789Y342156D01*
X417834Y342047D01*
X417907Y341953D01*
X418001Y341881D01*
X41811Y341835D01*
X418228Y34182D01*
X418345Y341835D01*
X418455Y341881D01*
X418549Y341953D01*
X418621Y342047D01*
X418651Y342121D01*
X420501D01*
X420516Y342077D01*
X420516Y342071D01*
X420068Y341622D01*
X400192D01*
X399792Y342022D01*
Y343104D01*
Y3474D01*
X399784Y347439D01*
X399762Y347472D01*
X399729Y347494D01*
X39969Y347502D01*
X39886D01*
X398821Y347494D01*
X398788Y347472D01*
X398766Y347439D01*
X398758Y3474D01*
Y343104D01*
Y342272D01*
X397448Y340962D01*
X397426Y340929D01*
X397418Y34089D01*
Y33925D01*
X397426Y339211D01*
X397448Y339178D01*
X397481Y339156D01*
X39752Y339148D01*
X39813D01*
X398169Y339156D01*
X398202Y339178D01*
X398224Y339211D01*
X398232Y33925D01*
Y339434D01*
X398277Y339457D01*
X398287Y339451D01*
Y339364D01*
X398295Y339325D01*
X398317Y339292D01*
X39835Y33927D01*
X398389Y339262D01*
X398625D01*
X398664Y33927D01*
X398697Y339292D01*
X398719Y339325D01*
X398727Y339364D01*
Y339719D01*
X398719Y339758D01*
X398697Y339791D01*
X398672Y339808D01*
Y340036D01*
X39869Y340063D01*
X398698Y340102D01*
Y340106D01*
X398993D01*
X398995Y340105D01*
X39908Y340088D01*
X399165Y340105D01*
X399237Y340153D01*
X399285Y340225D01*
X399302Y34031D01*
X399285Y340395D01*
X399237Y340467D01*
X399165Y340515D01*
X39908Y340532D01*
X398995Y340515D01*
X398993Y340514D01*
X398661D01*
X398635Y340531D01*
X398596Y340539D01*
X39834D01*
X398301Y340531D01*
X398282Y340519D01*
X398236Y340537D01*
X398234Y340539D01*
X398233Y340589D01*
X398462Y340818D01*
X404888D01*
X405008Y340698D01*
Y33931D01*
X405016Y339271D01*
X405038Y339238D01*
X405071Y339216D01*
X40511Y339208D01*
X40569D01*
X405729Y339216D01*
X405762Y339238D01*
X405784Y339271D01*
X405792Y33931D01*
Y340808D01*
X405847Y340863D01*
X405893Y340838D01*
X405888Y34081D01*
X405905Y340725D01*
X405927Y340691D01*
Y340524D01*
X405905Y340509D01*
X405883Y340476D01*
X405876Y340437D01*
Y340102D01*
X405883Y340063D01*
X405905Y34003D01*
X405927Y340016D01*
Y33973D01*
X405925Y339719D01*
Y339364D01*
X405933Y339325D01*
X405955Y339292D01*
X405988Y33927D01*
X406027Y339262D01*
X406263D01*
X406302Y33927D01*
X406335Y339292D01*
X406357Y339325D01*
X406365Y339364D01*
Y339719D01*
X406357Y339758D01*
X406335Y339791D01*
X406302Y339813D01*
X406284Y339816D01*
Y340016D01*
X406306Y34003D01*
X406328Y340063D01*
X406335Y340102D01*
Y340437D01*
X406328Y340476D01*
X406306Y340509D01*
X406284Y340524D01*
Y340678D01*
X406315Y340725D01*
X406332Y34081D01*
X406323Y340858D01*
X406362Y340908D01*
X412548D01*
X412648Y340808D01*
Y33929D01*
X412656Y339251D01*
X412678Y339218D01*
X412711Y339196D01*
X41275Y339188D01*
X41338D01*
X413419Y339196D01*
X413452Y339218D01*
X413474Y339251D01*
X413482Y33929D01*
Y340032D01*
X413527Y340046D01*
X41354Y340035D01*
X413543Y34003D01*
X413556Y340021D01*
X413565Y340014D01*
Y33973D01*
X413563Y339719D01*
Y339364D01*
X41357Y339325D01*
X413592Y339292D01*
X413626Y33927D01*
X413665Y339262D01*
X413901D01*
X41394Y33927D01*
X413973Y339292D01*
X413995Y339325D01*
X414003Y339364D01*
Y339719D01*
X413995Y339758D01*
X413973Y339791D01*
X41394Y339813D01*
X413922Y339816D01*
Y340016D01*
X413943Y34003D01*
X413965Y340063D01*
X413971Y340091D01*
X41424D01*
X414265Y340075D01*
X41435Y340058D01*
X414435Y340075D01*
X414507Y340123D01*
X414555Y340195D01*
X414572Y34028D01*
X414555Y340365D01*
X414507Y340437D01*
X414435Y340485D01*
X41435Y340502D01*
X414265Y340485D01*
X414209Y340448D01*
X413971D01*
X413965Y340476D01*
X413943Y340509D01*
X41391Y340531D01*
X413871Y340539D01*
X413615D01*
X413576Y340531D01*
X413543Y340509D01*
X413532Y340492D01*
X413482Y340507D01*
Y340718D01*
X413672Y340908D01*
X419988D01*
X420258Y340638D01*
Y33932D01*
X420266Y339281D01*
X420288Y339248D01*
X420321Y339226D01*
X42036Y339218D01*
X42103D01*
X421069Y339226D01*
X421102Y339248D01*
X421124Y339281D01*
X421132Y33932D01*
Y340014D01*
X421181Y34003D01*
X421214Y340008D01*
X421242Y340003D01*
Y339798D01*
X42123Y339791D01*
X421208Y339758D01*
X4212Y339719D01*
Y339364D01*
X421208Y339325D01*
X42123Y339292D01*
X421263Y33927D01*
X421302Y339262D01*
X421539D01*
X421578Y33927D01*
X421611Y339292D01*
X421633Y339325D01*
X421641Y339364D01*
Y339719D01*
X421633Y339758D01*
X421611Y339791D01*
X421599Y339798D01*
Y340057D01*
X421603Y340063D01*
X421611Y340102D01*
Y340437D01*
X421603Y340476D01*
X421581Y340509D01*
X42156Y340524D01*
Y340683D01*
X421587Y340724D01*
X421604Y340809D01*
X421587Y340894D01*
X421538Y340966D01*
X421466Y341014D01*
X421381Y341031D01*
X421296Y341014D01*
X421224Y340966D01*
X421182Y340903D01*
X421134Y340911D01*
X421132Y340958D01*
X421322Y341148D01*
X422088D01*
X422708Y340528D01*
Y333952D01*
X422038Y333282D01*
X422016Y333249D01*
X422008Y33321D01*
Y330608D01*
X421905D01*
X421866Y3306D01*
X421833Y330578D01*
X421811Y330545D01*
X421803Y330506D01*
Y328931D01*
X421811Y328892D01*
X421833Y328859D01*
X421866Y328837D01*
X421905Y328829D01*
X423086D01*
X423125Y328837D01*
X423158Y328859D01*
X42318Y328892D01*
X423188Y328931D01*
Y330506D01*
X42318Y330545D01*
X423158Y330578D01*
X423125Y3306D01*
X423086Y330608D01*
X422722D01*
Y332104D01*
X42272Y332114D01*
X42272Y332124D01*
X422716Y332133D01*
X422714Y332143D01*
X422709Y332151D01*
X422705Y33216D01*
X422702Y332164D01*
X422692Y332178D01*
X42269Y332187D01*
Y332368D01*
X422692Y332377D01*
X422702Y332391D01*
X422705Y332395D01*
X422709Y332404D01*
X422714Y332412D01*
X422716Y332422D01*
X42272Y332431D01*
X42272Y332441D01*
X422722Y332451D01*
Y332698D01*
X423252Y333228D01*
X430648D01*
X431058Y332818D01*
Y330608D01*
X43096D01*
X430921Y3306D01*
X430888Y330578D01*
X430866Y330545D01*
X430858Y330506D01*
Y328931D01*
X430866Y328892D01*
X430888Y328859D01*
X430921Y328837D01*
X43096Y328829D01*
X432141D01*
X43218Y328837D01*
X432213Y328859D01*
X432235Y328892D01*
X432243Y328931D01*
Y330506D01*
X432235Y330545D01*
X432213Y330578D01*
X43218Y3306D01*
X432141Y330608D01*
X431752D01*
Y332144D01*
X43175Y332153D01*
Y332163D01*
X431745Y332187D01*
Y332368D01*
X43175Y332392D01*
Y332402D01*
X431752Y332412D01*
Y333118D01*
X432102Y333468D01*
X439567D01*
Y333396D01*
X439574Y333357D01*
X439596Y333324D01*
X439629Y333301D01*
X439669Y333294D01*
X441243D01*
X441282Y333301D01*
X441315Y333324D01*
X441338Y333357D01*
X441345Y333396D01*
Y334577D01*
X441338Y334616D01*
X441315Y334649D01*
X441282Y334671D01*
X441243Y334679D01*
X439669D01*
X439629Y334671D01*
X439596Y334649D01*
X439574Y334616D01*
X439567Y334577D01*
Y334242D01*
X437489D01*
X437479Y33424D01*
X437469D01*
X43746Y334236D01*
X43745Y334234D01*
X437442Y334229D01*
X437432Y334225D01*
X437425Y334218D01*
X437417Y334212D01*
X437411Y334204D01*
X437407Y334199D01*
X437406Y334199D01*
X437397Y334197D01*
X437216D01*
X437207Y334199D01*
X437206Y334199D01*
X437201Y334204D01*
X437196Y334212D01*
X437187Y334218D01*
X43718Y334225D01*
X437171Y334229D01*
X437163Y334234D01*
X437153Y334236D01*
X437144Y33424D01*
X437133D01*
X437124Y334242D01*
X424292D01*
X423832Y334702D01*
Y34058D01*
X423824Y340619D01*
X423802Y340652D01*
X422935Y34152D01*
X422953Y341572D01*
X423015Y341585D01*
X423087Y341633D01*
X423135Y341705D01*
X423152Y34179D01*
X423151Y341795D01*
X424461Y343104D01*
X442675Y343104D01*
Y327893D01*
X386662D01*
Y348026D01*
Y348222D01*
Y359103D01*
X408294D01*
X408313Y359057D01*
X408198Y358942D01*
X408176Y358909D01*
X408168Y35887D01*
Y354572D01*
X402158Y348562D01*
X399992D01*
X399742Y348812D01*
Y349481D01*
X40036D01*
X400374Y349459D01*
X400407Y349437D01*
X400446Y34943D01*
X400781D01*
X40082Y349437D01*
X400853Y349459D01*
X400854Y349461D01*
X401114D01*
X40112Y349433D01*
X401142Y3494D01*
X401175Y349378D01*
X401214Y34937D01*
X40147D01*
X401509Y349378D01*
X401542Y3494D01*
X401564Y349433D01*
X401572Y349472D01*
Y349807D01*
X401564Y349846D01*
X401542Y349879D01*
X401509Y349901D01*
X40147Y349909D01*
X401214D01*
X401175Y349901D01*
X401142Y349879D01*
X40112Y349846D01*
X401114Y349818D01*
X400877D01*
X400875Y349826D01*
X400853Y34986D01*
X40082Y349882D01*
X400781Y349889D01*
X400446D01*
X400407Y349882D01*
X400374Y34986D01*
X40036Y349838D01*
X399767D01*
X399742Y34988D01*
X399734Y349919D01*
X399734Y349919D01*
X399712Y349952D01*
X399535Y350129D01*
X399542Y350156D01*
X399557Y350178D01*
X399749D01*
X399788Y350185D01*
X399821Y350207D01*
X399843Y350241D01*
X399851Y35028D01*
Y350496D01*
X399843Y350535D01*
X399823Y350565D01*
X399843Y350595D01*
X399851Y350634D01*
Y350822D01*
X399901Y350843D01*
X400344Y3504D01*
Y350201D01*
X400352Y350162D01*
X400374Y350129D01*
X400407Y350107D01*
X400446Y350099D01*
X400781D01*
X40082Y350107D01*
X400853Y350129D01*
X400875Y350162D01*
X400883Y350201D01*
Y350457D01*
X400875Y350496D01*
X400853Y350529D01*
X40082Y350551D01*
X400781Y350559D01*
X400618D01*
X400023Y351153D01*
X400028Y351203D01*
X400032Y351205D01*
X400065Y351255D01*
X400077Y351313D01*
Y351506D01*
X400081Y35155D01*
X400125Y351555D01*
X400318D01*
X400376Y351566D01*
X400426Y351599D01*
X400459Y351648D01*
X40047Y351707D01*
X400459Y351765D01*
X400432Y351805D01*
X400459Y351845D01*
X40047Y351904D01*
X400459Y351962D01*
X400426Y352011D01*
X400376Y352044D01*
X400318Y352056D01*
X400082D01*
X400024Y352044D01*
X399974Y352011D01*
X399941Y351962D01*
X39993Y351904D01*
X399941Y351845D01*
X399968Y351805D01*
X399941Y351765D01*
X39993Y351707D01*
X399882Y351693D01*
X399866Y35169D01*
X399826Y351663D01*
X399786Y35169D01*
X399728Y351701D01*
X399669Y35169D01*
X399629Y351663D01*
X399589Y35169D01*
X399531Y351701D01*
X399473Y35169D01*
X399432Y351663D01*
X399432Y351663D01*
X399424Y351672D01*
X399421Y351674D01*
X39942Y351677D01*
X399406Y351686D01*
X399392Y351696D01*
X399389Y351697D01*
X399387Y351699D01*
X39937Y351702D01*
X399354Y351707D01*
X399334Y351728D01*
X399326Y351767D01*
X399322Y351773D01*
Y351871D01*
X399328Y351904D01*
X399317Y351962D01*
X39929Y352002D01*
X399317Y352042D01*
X399328Y3521D01*
X399322Y352133D01*
Y352254D01*
X399334Y352303D01*
X399392Y352314D01*
X399432Y352341D01*
X399473Y352314D01*
X399531Y352303D01*
X399589Y352314D01*
X399638Y352347D01*
X399671Y352397D01*
X399683Y352455D01*
Y352569D01*
X399684Y352573D01*
Y353447D01*
X399692Y353452D01*
X399715Y353486D01*
X399722Y353525D01*
Y353741D01*
X399715Y35378D01*
X399692Y353813D01*
X399659Y353835D01*
X39962Y353843D01*
X39942D01*
X399381Y353835D01*
X399347Y353813D01*
X399325Y35378D01*
X399318Y353741D01*
Y353525D01*
X399325Y353486D01*
X399347Y353452D01*
X399378Y353432D01*
Y352852D01*
X39849D01*
X398451Y352844D01*
X398418Y352822D01*
X398238Y352642D01*
X398094D01*
X398084Y35264D01*
X398074D01*
X398065Y352636D01*
X398055Y352634D01*
X398046Y352629D01*
X398037Y352625D01*
X398036Y352624D01*
X398027Y352622D01*
X397846D01*
X397837Y352624D01*
X397835Y352625D01*
X397826Y352629D01*
X397818Y352634D01*
X397808Y352636D01*
X397562Y352882D01*
X397529Y352904D01*
X39749Y352912D01*
X39608D01*
X396041Y352904D01*
X396008Y352882D01*
X395961Y352835D01*
X395902Y352832D01*
X395702Y353032D01*
X395669Y353054D01*
X39563Y353062D01*
X39024D01*
X390201Y353054D01*
X390168Y353032D01*
X390018Y352882D01*
X389996Y352849D01*
X389988Y35281D01*
Y35137D01*
X389996Y351331D01*
X390018Y351298D01*
X390508Y350808D01*
X390541Y350786D01*
X39058Y350778D01*
X39521D01*
X395249Y350786D01*
X395282Y350808D01*
X395902Y351428D01*
X395924Y351461D01*
X395932Y3515D01*
Y352019D01*
X395978Y352038D01*
X396048Y351968D01*
X396081Y351946D01*
X39612Y351938D01*
X398738D01*
X398753Y351928D01*
X398778Y351892D01*
Y350537D01*
X39878Y350527D01*
Y350517D01*
X398784Y350508D01*
X398786Y350498D01*
X39879Y350492D01*
X398793Y350478D01*
Y350297D01*
X39879Y350283D01*
X398786Y350277D01*
X398784Y350267D01*
X39878Y350258D01*
Y350248D01*
X398778Y350238D01*
Y3481D01*
X398786Y348061D01*
X398808Y348028D01*
X399118Y347718D01*
X399151Y347696D01*
X39919Y347688D01*
X40257D01*
X402609Y347696D01*
X402642Y347718D01*
X409272Y354348D01*
X409294Y354381D01*
X409302Y35442D01*
Y355518D01*
X409852Y356068D01*
X41212D01*
X412159Y356076D01*
X412192Y356098D01*
X412352Y356258D01*
X412374Y356291D01*
X412382Y35633D01*
Y35662D01*
X412374Y356659D01*
X412352Y356692D01*
X412192Y356852D01*
X412159Y356874D01*
X41212Y356882D01*
X409522D01*
X409292Y357112D01*
Y35898D01*
X409284Y359019D01*
X409262Y359052D01*
X409257Y359057D01*
X409276Y359103D01*
X410598D01*
X410608Y359053D01*
X410548Y359028D01*
X410465Y358965D01*
X410402Y358882D01*
X410362Y358786D01*
X410349Y358683D01*
X410362Y35858D01*
X410402Y358484D01*
X410465Y358401D01*
X410548Y358338D01*
X410644Y358298D01*
X410747Y358284D01*
X41085Y358298D01*
X410897Y358317D01*
X411142Y358072D01*
X411192Y358039D01*
X41125Y358027D01*
X411468D01*
X411485Y35798D01*
X411465Y357965D01*
X411402Y357882D01*
X411362Y357786D01*
X411349Y357683D01*
X411362Y35758D01*
X411402Y357484D01*
X411465Y357401D01*
X411548Y357338D01*
X411644Y357298D01*
X411747Y357284D01*
X41185Y357298D01*
X411947Y357338D01*
X412029Y357401D01*
X412093Y357484D01*
X412132Y35758D01*
X412146Y357683D01*
X412132Y357786D01*
X412093Y357882D01*
X412029Y357965D01*
X41201Y35798D01*
X412026Y358027D01*
X412757D01*
X412997Y357787D01*
Y354813D01*
X408822Y350638D01*
X408789Y350589D01*
X408777Y35053D01*
Y3475D01*
X408773Y347497D01*
X408725Y347425D01*
X408708Y34734D01*
X408725Y347255D01*
X408773Y347183D01*
X408845Y347135D01*
X40893Y347118D01*
X409015Y347135D01*
X409087Y347183D01*
X409135Y347255D01*
X409147Y347313D01*
X409197Y347308D01*
Y34697D01*
X409193Y346967D01*
X409145Y346895D01*
X409128Y34681D01*
X409145Y346725D01*
X409193Y346653D01*
X409265Y346605D01*
X40935Y346588D01*
X409435Y346605D01*
X409507Y346653D01*
X409555Y346725D01*
X409572Y34681D01*
X409555Y346895D01*
X409507Y346967D01*
X409503Y34697D01*
Y350287D01*
X413668Y354452D01*
X413701Y354501D01*
X413713Y35456D01*
Y3581D01*
X413701Y358159D01*
X413668Y358208D01*
X413085Y358791D01*
X413035Y358824D01*
X412977Y358836D01*
X412112D01*
X412093Y358882D01*
X412029Y358965D01*
X411947Y359028D01*
X411886Y359053D01*
X411896Y359103D01*
X430724D01*
X430734Y359053D01*
X430674Y359028D01*
X430591Y358965D01*
X430528Y358882D01*
X430488Y358786D01*
X430475Y358683D01*
X430488Y35858D01*
X430528Y358484D01*
X430591Y358401D01*
X430674Y358338D01*
X43077Y358298D01*
X430873Y358284D01*
X430976Y358298D01*
X431073Y358338D01*
X431155Y358401D01*
X431218Y358484D01*
X431258Y35858D01*
X431272Y358683D01*
X431258Y358786D01*
X431218Y358882D01*
X431155Y358965D01*
X431073Y359028D01*
X431012Y359053D01*
X431022Y359103D01*
X431724D01*
X431734Y359053D01*
X431674Y359028D01*
X431591Y358965D01*
X431528Y358882D01*
X431488Y358786D01*
X431475Y358683D01*
X431488Y35858D01*
X431507Y358533D01*
X431332Y358358D01*
X431299Y358308D01*
X431287Y35825D01*
Y357848D01*
X431237Y357838D01*
X431218Y357882D01*
X431155Y357965D01*
X431073Y358028D01*
X430976Y358068D01*
X430873Y358082D01*
X43077Y358068D01*
X430674Y358028D01*
X430591Y357965D01*
X430528Y357882D01*
X430488Y357786D01*
X430475Y357683D01*
X430488Y35758D01*
X430528Y357484D01*
X430591Y357401D01*
X430674Y357338D01*
X43072Y357319D01*
Y356037D01*
X430732Y355978D01*
X430765Y355929D01*
X432591Y354103D01*
X432572Y354057D01*
X432413D01*
X432374Y354049D01*
X432341Y354027D01*
X432328Y354008D01*
X432322Y354007D01*
X432278Y354007D01*
X432273Y354008D01*
X43226Y354027D01*
X432227Y354049D01*
X432188Y354057D01*
X431913D01*
X431874Y354049D01*
X431841Y354027D01*
X431828Y354008D01*
X431822Y354007D01*
X431778D01*
X431773Y354008D01*
X43176Y354027D01*
X431727Y354049D01*
X431688Y354057D01*
X431413D01*
X431374Y354049D01*
X43134Y354027D01*
X431328Y354008D01*
X431322Y354007D01*
X431278D01*
X431273Y354008D01*
X43126Y354027D01*
X431227Y354049D01*
X431188Y354057D01*
X430913D01*
X430874Y354049D01*
X43084Y354027D01*
X430828Y354008D01*
X430822Y354007D01*
X430778D01*
X430773Y354008D01*
X43076Y354027D01*
X430727Y354049D01*
X430688Y354057D01*
X430413D01*
X430374Y354049D01*
X43034Y354027D01*
X430318Y353994D01*
X430311Y353955D01*
Y353167D01*
X430318Y353128D01*
X43034Y353095D01*
X430374Y353073D01*
X430413Y353065D01*
X430688D01*
X430727Y353073D01*
X43076Y353095D01*
X430773Y353114D01*
X430778Y353116D01*
X430822D01*
X430828Y353114D01*
X43084Y353095D01*
X430874Y353073D01*
X430913Y353065D01*
X431188D01*
X431227Y353073D01*
X43126Y353095D01*
X431273Y353114D01*
X431278Y353116D01*
X431322D01*
X431328Y353114D01*
X43134Y353095D01*
X431374Y353073D01*
X431413Y353065D01*
X431688D01*
X431727Y353073D01*
X43176Y353095D01*
X431773Y353114D01*
X431778Y353116D01*
X431822D01*
X431828Y353114D01*
X431841Y353095D01*
X431874Y353073D01*
X431897Y353068D01*
Y352099D01*
X431855Y352035D01*
X431838Y35195D01*
X431855Y351865D01*
X431903Y351793D01*
X431975Y351745D01*
X43206Y351728D01*
X432145Y351745D01*
X432217Y351793D01*
X432265Y351865D01*
X432282Y35195D01*
X432265Y352035D01*
X432217Y352107D01*
X432203Y352117D01*
Y353068D01*
X432227Y353073D01*
X43226Y353095D01*
X432273Y353114D01*
X432278Y353116D01*
X432322Y353116D01*
X432328Y353114D01*
X432341Y353095D01*
X432374Y353073D01*
X432397Y353068D01*
Y352919D01*
X432355Y352855D01*
X432338Y35277D01*
X432355Y352685D01*
X432403Y352613D01*
X432475Y352565D01*
X43256Y352548D01*
X432645Y352565D01*
X432717Y352613D01*
X432765Y352685D01*
X432782Y35277D01*
X432765Y352855D01*
X432717Y352927D01*
X432703Y352937D01*
Y353068D01*
X432727Y353073D01*
X43276Y353095D01*
X432773Y353114D01*
X432778Y353116D01*
X432822Y353116D01*
X432828Y353114D01*
X43284Y353095D01*
X432874Y353073D01*
X432913Y353065D01*
X433188D01*
X433227Y353073D01*
X43326Y353095D01*
X433273Y353114D01*
X433278Y353116D01*
X433322D01*
X433328Y353114D01*
X43334Y353095D01*
X433374Y353073D01*
X433413Y353065D01*
X433688D01*
X433727Y353073D01*
X43376Y353095D01*
X433773Y353114D01*
X433778Y353116D01*
X433822Y353116D01*
X433828Y353114D01*
X43384Y353095D01*
X433874Y353073D01*
X433913Y353065D01*
X434188D01*
X434227Y353073D01*
X43426Y353095D01*
X434273Y353114D01*
X434278Y353116D01*
X434322Y353116D01*
X434328Y353114D01*
X434341Y353095D01*
X434374Y353073D01*
X434413Y353065D01*
X434688D01*
X434727Y353073D01*
X43476Y353095D01*
X434773Y353114D01*
X434778Y353116D01*
X434822D01*
X434828Y353114D01*
X434841Y353095D01*
X434874Y353073D01*
X434913Y353065D01*
X435188D01*
X435227Y353073D01*
X43526Y353095D01*
X435282Y353128D01*
X43529Y353167D01*
Y353955D01*
X435282Y353994D01*
X43528Y353998D01*
Y354277D01*
X435404Y354401D01*
X435426Y354406D01*
X435459Y354428D01*
X435481Y354461D01*
X435489Y3545D01*
Y35451D01*
X435491Y354513D01*
X435508Y3546D01*
Y355814D01*
X435528Y355828D01*
X43555Y355861D01*
X435558Y3559D01*
Y356136D01*
X43555Y356175D01*
X435528Y356208D01*
X435495Y35623D01*
X435456Y356238D01*
X435326D01*
X435279Y356247D01*
X435232Y356238D01*
X435102D01*
X435063Y35623D01*
X435029Y356208D01*
X435007Y356175D01*
X435Y356136D01*
Y3559D01*
X435007Y355861D01*
X435029Y355828D01*
X435049Y355814D01*
Y354695D01*
X434888Y354534D01*
X434838Y35446D01*
X434821Y354372D01*
Y354026D01*
X434771Y354011D01*
X43476Y354027D01*
X434727Y354049D01*
X434688Y354057D01*
X43456D01*
X433317Y355299D01*
X433335Y355352D01*
X433361Y355355D01*
X433443Y355389D01*
X433493Y355428D01*
X434173D01*
X434196Y355424D01*
X434253D01*
X434276Y355408D01*
X434373Y355389D01*
X434471Y355408D01*
X434494Y355424D01*
X43455D01*
X434589Y355431D01*
X434622Y355453D01*
X434645Y355487D01*
X434652Y355526D01*
Y355762D01*
X434645Y355801D01*
X434622Y355834D01*
X434589Y355856D01*
X43455Y355864D01*
X434513D01*
X434431Y355919D01*
X434334Y355938D01*
X433493D01*
X433443Y355977D01*
X433361Y356011D01*
X433273Y356022D01*
X433185Y356011D01*
X433104Y355977D01*
X433033Y355923D01*
X432979Y355853D01*
X432946Y355771D01*
X432942Y355745D01*
X432889Y355727D01*
X432373Y356243D01*
Y35677D01*
X432377Y356773D01*
X432425Y356845D01*
X432442Y35693D01*
X432425Y357015D01*
X432377Y357087D01*
X432305Y357135D01*
X43222Y357152D01*
X432135Y357135D01*
X432076Y357096D01*
X432026Y357116D01*
Y357319D01*
X432073Y357338D01*
X432155Y357401D01*
X432219Y357484D01*
X432258Y35758D01*
X432272Y357683D01*
X432258Y357786D01*
X432219Y357882D01*
X432155Y357965D01*
X432073Y358028D01*
X431976Y358068D01*
X431873Y358082D01*
X43177Y358068D01*
X431674Y358028D01*
X431638Y358001D01*
X431593Y358023D01*
Y358186D01*
X431724Y358317D01*
X43177Y358298D01*
X431873Y358284D01*
X431976Y358298D01*
X432073Y358338D01*
X432155Y358401D01*
X432219Y358484D01*
X432258Y35858D01*
X432272Y358683D01*
X432258Y358786D01*
X432219Y358882D01*
X432155Y358965D01*
X432073Y359028D01*
X432012Y359053D01*
X432022Y359103D01*
X442675D01*
Y353734D01*
D02*
G37*
G36*
X39776Y35254D02*
X397779D01*
X397797Y352528D01*
X397836Y35252D01*
X398037D01*
X398076Y352528D01*
X398094Y35254D01*
X39828D01*
X39849Y35275D01*
X399378D01*
Y352573D01*
X399379Y352569D01*
Y352455D01*
X399336Y35241D01*
X39926D01*
X39922Y35237D01*
Y352097D01*
X399176Y352056D01*
X399062D01*
X399058Y352056D01*
X399054Y352056D01*
X39894D01*
X398882Y352044D01*
X398876Y35204D01*
X39612D01*
X39599Y35217D01*
Y35272D01*
X39608Y35281D01*
X39749D01*
X39776Y35254D01*
D02*
G37*
%LPC*%
G36*
X417228Y335728D02*
X41711Y335712D01*
X417001Y335667D01*
X416907Y335595D01*
X416834Y335501D01*
X416789Y335391D01*
X416774Y335274D01*
X416789Y335156D01*
X416834Y335047D01*
X416907Y334953D01*
X417001Y334881D01*
X417024Y334871D01*
Y333365D01*
X416969Y333343D01*
X416875Y333271D01*
X416803Y333177D01*
X416758Y333067D01*
X416742Y33295D01*
Y33285D01*
X416758Y332732D01*
X416803Y332623D01*
X416875Y332529D01*
X416969Y332457D01*
X417079Y332411D01*
X417196Y332396D01*
X417314Y332411D01*
X417423Y332457D01*
X417517Y332529D01*
X417589Y332623D01*
X417634Y332732D01*
X41765Y33285D01*
Y33295D01*
X417634Y333067D01*
X417589Y333177D01*
X417517Y333271D01*
X417431Y333336D01*
Y334871D01*
X417454Y334881D01*
X417548Y334953D01*
X417621Y335047D01*
X417666Y335156D01*
X417681Y335274D01*
X417666Y335391D01*
X417621Y335501D01*
X417548Y335595D01*
X417454Y335667D01*
X417345Y335712D01*
X417228Y335728D01*
D02*
G37*
G36*
X409616D02*
X409499Y335712D01*
X409389Y335667D01*
X409295Y335595D01*
X409223Y335501D01*
X409178Y335391D01*
X409162Y335274D01*
X409178Y335156D01*
X409223Y335047D01*
X409295Y334953D01*
X409387Y334882D01*
Y33326D01*
X409323Y333177D01*
X409277Y333067D01*
X409262Y33295D01*
Y33285D01*
X409277Y332732D01*
X409323Y332623D01*
X409395Y332529D01*
X409489Y332457D01*
X409598Y332411D01*
X409716Y332396D01*
X409833Y332411D01*
X409943Y332457D01*
X410037Y332529D01*
X410109Y332623D01*
X410154Y332732D01*
X41017Y33285D01*
Y33295D01*
X410154Y333067D01*
X410109Y333177D01*
X410037Y333271D01*
X409943Y333343D01*
X409845Y333383D01*
Y334882D01*
X409937Y334953D01*
X410009Y335047D01*
X410054Y335156D01*
X41007Y335274D01*
X410054Y335391D01*
X410009Y335501D01*
X409937Y335595D01*
X409843Y335667D01*
X409733Y335712D01*
X409616Y335728D01*
D02*
G37*
G36*
X403004D02*
X402887Y335712D01*
X402778Y335667D01*
X402684Y335595D01*
X402611Y335501D01*
X402566Y335391D01*
X402551Y335274D01*
X402566Y335156D01*
X402611Y335047D01*
X402684Y334953D01*
X402775Y334882D01*
Y333131D01*
X402793Y333043D01*
X402794Y333041D01*
X402782Y33295D01*
Y33285D01*
X402797Y332732D01*
X402842Y332623D01*
X402915Y332529D01*
X403008Y332457D01*
X403118Y332411D01*
X403235Y332396D01*
X403353Y332411D01*
X403462Y332457D01*
X403556Y332529D01*
X403629Y332623D01*
X403674Y332732D01*
X403689Y33285D01*
Y33295D01*
X403674Y333067D01*
X403629Y333177D01*
X403556Y333271D01*
X403462Y333343D01*
X403353Y333388D01*
X403235Y333403D01*
X403234Y333405D01*
Y334882D01*
X403325Y334953D01*
X403398Y335047D01*
X403443Y335156D01*
X403458Y335274D01*
X403443Y335391D01*
X403398Y335501D01*
X403325Y335595D01*
X403231Y335667D01*
X403122Y335712D01*
X403004Y335728D01*
D02*
G37*
G36*
X410616D02*
X410499Y335712D01*
X410389Y335667D01*
X410295Y335595D01*
X410223Y335501D01*
X410178Y335391D01*
X410162Y335274D01*
X410178Y335156D01*
X410223Y335047D01*
X410295Y334953D01*
X410387Y334882D01*
Y33326D01*
X410323Y333177D01*
X410277Y333067D01*
X410262Y33295D01*
Y33285D01*
X410277Y332732D01*
X410323Y332623D01*
X410395Y332529D01*
X410489Y332457D01*
X410598Y332411D01*
X410716Y332396D01*
X410833Y332411D01*
X410943Y332457D01*
X411037Y332529D01*
X411109Y332623D01*
X411154Y332732D01*
X41117Y33285D01*
Y33295D01*
X411154Y333067D01*
X411109Y333177D01*
X411037Y333271D01*
X410943Y333343D01*
X410845Y333383D01*
Y334882D01*
X410937Y334953D01*
X411009Y335047D01*
X411054Y335156D01*
X41107Y335274D01*
X411054Y335391D01*
X411009Y335501D01*
X410937Y335595D01*
X410843Y335667D01*
X410733Y335712D01*
X410616Y335728D01*
D02*
G37*
G36*
X437169Y337405D02*
X43705D01*
X436934Y337382D01*
X436825Y337337D01*
X436727Y337271D01*
X436643Y337188D01*
X436578Y337089D01*
X436533Y33698D01*
X436509Y336864D01*
Y336746D01*
X436533Y33663D01*
X436578Y336521D01*
X436643Y336423D01*
X436727Y336339D01*
X436825Y336273D01*
X436934Y336228D01*
X43705Y336205D01*
X437169D01*
X437284Y336228D01*
X437394Y336273D01*
X437492Y336339D01*
X437575Y336423D01*
X437641Y336521D01*
X437686Y33663D01*
X437709Y336746D01*
Y336864D01*
X437686Y33698D01*
X437641Y337089D01*
X437575Y337188D01*
X437492Y337271D01*
X437394Y337337D01*
X437284Y337382D01*
X437169Y337405D01*
D02*
G37*
G36*
X440653Y33868D02*
X440259D01*
X440124Y338667D01*
X439994Y338627D01*
X439874Y338563D01*
X439768Y338477D01*
X439682Y338372D01*
X439618Y338252D01*
X439579Y338122D01*
X439565Y337986D01*
X439579Y337851D01*
X439618Y337721D01*
X439682Y337601D01*
X439768Y337496D01*
X439874Y337409D01*
X439994Y337345D01*
X440124Y337306D01*
X440259Y337292D01*
X440653D01*
X440788Y337306D01*
X440918Y337345D01*
X441038Y337409D01*
X441143Y337496D01*
X44123Y337601D01*
X441294Y337721D01*
X441333Y337851D01*
X441347Y337986D01*
X441333Y338122D01*
X441294Y338252D01*
X44123Y338372D01*
X441143Y338477D01*
X441038Y338563D01*
X440918Y338627D01*
X440788Y338667D01*
X440653Y33868D01*
D02*
G37*
G36*
X388487Y338832D02*
X3884Y33882D01*
X388318Y338786D01*
X388248Y338732D01*
X388194Y338662D01*
X38816Y33858D01*
X388148Y338493D01*
X388151Y338473D01*
X388103Y338453D01*
X388091Y338469D01*
X388021Y338523D01*
X387939Y338556D01*
X387851Y338568D01*
X387763Y338556D01*
X387681Y338523D01*
X387611Y338469D01*
X387557Y338398D01*
X387523Y338317D01*
X387512Y338229D01*
X387523Y338141D01*
X387557Y338059D01*
X387611Y337989D01*
X387627Y337977D01*
X387607Y337929D01*
X387587Y337932D01*
X3875Y33792D01*
X387418Y337886D01*
X387348Y337832D01*
X387294Y337762D01*
X38726Y33768D01*
X387248Y337593D01*
X38726Y337505D01*
X387294Y337423D01*
X387348Y337353D01*
X387418Y337299D01*
X3875Y337265D01*
X387587Y337253D01*
X387607Y337256D01*
X387627Y337208D01*
X387611Y337196D01*
X387557Y337126D01*
X387523Y337044D01*
X387512Y336956D01*
X387523Y336868D01*
X387557Y336787D01*
X387611Y336716D01*
X387681Y336662D01*
X387763Y336629D01*
X387851Y336617D01*
X387939Y336629D01*
X388021Y336662D01*
X388091Y336716D01*
X388103Y336732D01*
X388151Y336713D01*
X388148Y336693D01*
X38816Y336605D01*
X388194Y336523D01*
X388248Y336453D01*
X388318Y336399D01*
X3884Y336365D01*
X388487Y336353D01*
X388575Y336365D01*
X388657Y336399D01*
X388727Y336453D01*
X388781Y336523D01*
X388815Y336605D01*
X388827Y336693D01*
X388824Y336713D01*
X388872Y336732D01*
X388884Y336716D01*
X388954Y336662D01*
X389036Y336629D01*
X389124Y336617D01*
X389212Y336629D01*
X389293Y336662D01*
X389364Y336716D01*
X389417Y336787D01*
X389451Y336868D01*
X389463Y336956D01*
X389451Y337044D01*
X389417Y337126D01*
X389364Y337196D01*
X389348Y337208D01*
X389367Y337256D01*
X389387Y337253D01*
X389475Y337265D01*
X389557Y337299D01*
X389627Y337353D01*
X389681Y337423D01*
X389715Y337505D01*
X389727Y337593D01*
X389715Y33768D01*
X389681Y337762D01*
X389627Y337832D01*
X389557Y337886D01*
X389475Y33792D01*
X389387Y337932D01*
X389367Y337929D01*
X389348Y337977D01*
X389364Y337989D01*
X389417Y338059D01*
X389451Y338141D01*
X389463Y338229D01*
X389451Y338317D01*
X389417Y338398D01*
X389364Y338469D01*
X389293Y338523D01*
X389212Y338556D01*
X389124Y338568D01*
X389036Y338556D01*
X388954Y338523D01*
X388884Y338469D01*
X388872Y338453D01*
X388824Y338473D01*
X388827Y338493D01*
X388815Y33858D01*
X388781Y338662D01*
X388727Y338732D01*
X388657Y338786D01*
X388575Y33882D01*
X388487Y338832D01*
D02*
G37*
G36*
X42123Y338952D02*
X42069D01*
X420651Y338944D01*
X420618Y338922D01*
X420596Y338889D01*
X420588Y33885D01*
Y337332D01*
X420358Y337102D01*
X41658D01*
X416541Y337094D01*
X416508Y337072D01*
X415868Y336432D01*
X415846Y336399D01*
X415838Y33636D01*
Y335505D01*
X415834Y335501D01*
X415789Y335391D01*
X415774Y335274D01*
X415789Y335156D01*
X415834Y335047D01*
X415907Y334953D01*
X416001Y334881D01*
X41611Y334835D01*
X416228Y33482D01*
X416345Y334835D01*
X416455Y334881D01*
X416549Y334953D01*
X416621Y335047D01*
X416666Y335156D01*
X416681Y335274D01*
X416666Y335391D01*
X416621Y335501D01*
X416582Y335551D01*
Y335948D01*
X416952Y336318D01*
X42094D01*
X420979Y336326D01*
X421012Y336348D01*
X421302Y336638D01*
X421324Y336671D01*
X421332Y33671D01*
Y337789D01*
X42133Y337799D01*
Y337809D01*
X421326Y337819D01*
X421324Y337829D01*
X421319Y337837D01*
X421315Y337846D01*
X421314Y337847D01*
X421312Y337856D01*
Y338037D01*
X421314Y338046D01*
X421315Y338048D01*
X421319Y338057D01*
X421324Y338065D01*
X421326Y338075D01*
X42133Y338084D01*
Y338094D01*
X421332Y338104D01*
Y33885D01*
X421324Y338889D01*
X421302Y338922D01*
X421269Y338944D01*
X42123Y338952D01*
D02*
G37*
G36*
X418228Y335728D02*
X41811Y335712D01*
X418001Y335667D01*
X417907Y335595D01*
X417834Y335501D01*
X417789Y335391D01*
X417774Y335274D01*
X417789Y335156D01*
X417834Y335047D01*
X417907Y334953D01*
X418001Y334881D01*
X418024Y334871D01*
Y333365D01*
X417969Y333343D01*
X417875Y333271D01*
X417803Y333177D01*
X417758Y333067D01*
X417742Y33295D01*
Y33285D01*
X417758Y332732D01*
X417803Y332623D01*
X417875Y332529D01*
X417969Y332457D01*
X418079Y332411D01*
X418196Y332396D01*
X418314Y332411D01*
X418423Y332457D01*
X418517Y332529D01*
X418589Y332623D01*
X418634Y332732D01*
X41865Y33285D01*
Y33295D01*
X418634Y333067D01*
X418589Y333177D01*
X418517Y333271D01*
X418431Y333336D01*
Y334871D01*
X418455Y334881D01*
X418549Y334953D01*
X418621Y335047D01*
X418666Y335156D01*
X418681Y335274D01*
X418666Y335391D01*
X418621Y335501D01*
X418549Y335595D01*
X418455Y335667D01*
X418345Y335712D01*
X418228Y335728D01*
D02*
G37*
G36*
X41357Y338982D02*
X41322D01*
X413181Y338974D01*
X413148Y338952D01*
X412888Y338692D01*
X412866Y338659D01*
X412858Y33862D01*
Y337092D01*
X412788Y337022D01*
X40885D01*
X408811Y337014D01*
X408778Y336992D01*
X408198Y336412D01*
X408176Y336379D01*
X408168Y33634D01*
Y335319D01*
X408162Y335274D01*
X408168Y335229D01*
Y33506D01*
X408176Y335021D01*
X408198Y334988D01*
X408358Y334828D01*
X408391Y334806D01*
X40843Y334798D01*
X40876D01*
X408799Y334806D01*
X408832Y334828D01*
X409052Y335048D01*
X409074Y335081D01*
X409082Y33512D01*
Y336038D01*
X409322Y336278D01*
X41299D01*
X413029Y336286D01*
X413062Y336308D01*
X413412Y336658D01*
X413434Y336691D01*
X413442Y33673D01*
X413434Y336769D01*
X413432Y336772D01*
Y338188D01*
X413642Y338398D01*
X413664Y338431D01*
X413672Y33847D01*
Y33888D01*
X413664Y338919D01*
X413642Y338952D01*
X413609Y338974D01*
X41357Y338982D01*
D02*
G37*
G36*
X40589Y338932D02*
X40535D01*
X405311Y338924D01*
X405278Y338902D01*
X405256Y338869D01*
X405248Y33883D01*
Y337232D01*
X405018Y337002D01*
X40141D01*
X401371Y336994D01*
X401338Y336972D01*
X400658Y336292D01*
X400636Y336259D01*
X400628Y33622D01*
Y335522D01*
X400611Y335501D01*
X400566Y335391D01*
X400551Y335274D01*
X400566Y335156D01*
X400611Y335047D01*
X400684Y334953D01*
X400778Y334881D01*
X400887Y334835D01*
X401004Y33482D01*
X401122Y334835D01*
X401231Y334881D01*
X401325Y334953D01*
X401398Y335047D01*
X401443Y335156D01*
X401458Y335274D01*
X401443Y335391D01*
X401398Y335501D01*
X401392Y335508D01*
Y335898D01*
X401792Y336298D01*
X40545D01*
X405489Y336306D01*
X405522Y336328D01*
X405882Y336688D01*
X405904Y336721D01*
X405912Y33676D01*
Y338218D01*
X405962Y338268D01*
X405962Y338268D01*
X405984Y338301D01*
X405992Y33834D01*
Y33883D01*
X405984Y338869D01*
X405962Y338902D01*
X405929Y338924D01*
X40589Y338932D01*
D02*
G37*
G36*
X392361Y331692D02*
X392207Y331677D01*
X392058Y331632D01*
X391921Y331559D01*
X391801Y33146D01*
X391702Y33134D01*
X391629Y331203D01*
X391584Y331054D01*
X391569Y3309D01*
X391584Y330745D01*
X391629Y330596D01*
X391702Y330459D01*
X391801Y330339D01*
X391921Y33024D01*
X392058Y330167D01*
X392207Y330122D01*
X392361Y330107D01*
X392516Y330122D01*
X392665Y330167D01*
X392802Y33024D01*
X392922Y330339D01*
X393021Y330459D01*
X393094Y330596D01*
X393139Y330745D01*
X393154Y3309D01*
X393139Y331054D01*
X393094Y331203D01*
X393021Y33134D01*
X392922Y33146D01*
X392802Y331559D01*
X392665Y331632D01*
X392516Y331677D01*
X392361Y331692D01*
D02*
G37*
G36*
X43755Y330609D02*
X437415Y330596D01*
X437285Y330556D01*
X437165Y330492D01*
X43706Y330406D01*
X436973Y330301D01*
X436909Y330181D01*
X43687Y330051D01*
X436856Y329915D01*
Y329522D01*
X43687Y329386D01*
X436909Y329256D01*
X436973Y329136D01*
X43706Y329031D01*
X437165Y328945D01*
X437285Y328881D01*
X437415Y328841D01*
X43755Y328828D01*
X437686Y328841D01*
X437816Y328881D01*
X437936Y328945D01*
X438041Y329031D01*
X438127Y329136D01*
X438191Y329256D01*
X438231Y329386D01*
X438244Y329522D01*
Y329915D01*
X438231Y330051D01*
X438191Y330181D01*
X438127Y330301D01*
X438041Y330406D01*
X437936Y330492D01*
X437816Y330556D01*
X437686Y330596D01*
X43755Y330609D01*
D02*
G37*
G36*
X400235Y331692D02*
X400081Y331677D01*
X399932Y331632D01*
X399795Y331559D01*
X399675Y33146D01*
X399576Y33134D01*
X399503Y331203D01*
X399458Y331054D01*
X399443Y3309D01*
X399458Y330745D01*
X399503Y330596D01*
X399576Y330459D01*
X399675Y330339D01*
X399795Y33024D01*
X399932Y330167D01*
X400081Y330122D01*
X400235Y330107D01*
X40039Y330122D01*
X400539Y330167D01*
X400676Y33024D01*
X400796Y330339D01*
X400895Y330459D01*
X400968Y330596D01*
X401013Y330745D01*
X401028Y3309D01*
X401013Y331054D01*
X400968Y331203D01*
X400895Y33134D01*
X400796Y33146D01*
X400676Y331559D01*
X400539Y331632D01*
X40039Y331677D01*
X400235Y331692D01*
D02*
G37*
G36*
X396361D02*
X396207Y331677D01*
X396058Y331632D01*
X395921Y331559D01*
X395801Y33146D01*
X395702Y33134D01*
X395629Y331203D01*
X395584Y331054D01*
X395569Y3309D01*
X395584Y330745D01*
X395629Y330596D01*
X395702Y330459D01*
X395801Y330339D01*
X395921Y33024D01*
X396058Y330167D01*
X396207Y330122D01*
X396361Y330107D01*
X396516Y330122D01*
X396665Y330167D01*
X396802Y33024D01*
X396922Y330339D01*
X397021Y330459D01*
X397094Y330596D01*
X397139Y330745D01*
X397154Y3309D01*
X397139Y331054D01*
X397094Y331203D01*
X397021Y33134D01*
X396922Y33146D01*
X396802Y331559D01*
X396665Y331632D01*
X396516Y331677D01*
X396361Y331692D01*
D02*
G37*
G36*
X426495Y330609D02*
X42636Y330596D01*
X42623Y330556D01*
X42611Y330492D01*
X426005Y330406D01*
X425918Y330301D01*
X425854Y330181D01*
X425815Y330051D01*
X425801Y329915D01*
Y329522D01*
X425815Y329386D01*
X425854Y329256D01*
X425918Y329136D01*
X426005Y329031D01*
X42611Y328945D01*
X42623Y328881D01*
X42636Y328841D01*
X426495Y328828D01*
X426631Y328841D01*
X426761Y328881D01*
X426881Y328945D01*
X426986Y329031D01*
X427072Y329136D01*
X427136Y329256D01*
X427176Y329386D01*
X427189Y329522D01*
Y329915D01*
X427176Y330051D01*
X427136Y330181D01*
X427072Y330301D01*
X426986Y330406D01*
X426881Y330492D01*
X426761Y330556D01*
X426631Y330596D01*
X426495Y330609D01*
D02*
G37*
G36*
X44085Y331004D02*
X440649Y330988D01*
X440452Y330941D01*
X440266Y330863D01*
X440094Y330758D01*
X439941Y330627D01*
X43981Y330474D01*
X439705Y330302D01*
X439627Y330116D01*
X43958Y32992D01*
X439565Y329719D01*
X43958Y329517D01*
X439627Y329321D01*
X439705Y329135D01*
X43981Y328963D01*
X439941Y32881D01*
X440094Y328679D01*
X440266Y328573D01*
X440452Y328496D01*
X440649Y328449D01*
X44085Y328433D01*
X441051Y328449D01*
X441247Y328496D01*
X441433Y328573D01*
X441605Y328679D01*
X441758Y32881D01*
X441889Y328963D01*
X441995Y329135D01*
X442072Y329321D01*
X442119Y329517D01*
X442135Y329719D01*
X442119Y32992D01*
X442072Y330116D01*
X441995Y330302D01*
X441889Y330474D01*
X441758Y330627D01*
X441605Y330758D01*
X441433Y330863D01*
X441247Y330941D01*
X441051Y330988D01*
X44085Y331004D01*
D02*
G37*
G36*
X43555Y330609D02*
X435415Y330596D01*
X435285Y330556D01*
X435165Y330492D01*
X43506Y330406D01*
X434973Y330301D01*
X434909Y330181D01*
X43487Y330051D01*
X434856Y329915D01*
Y329522D01*
X43487Y329386D01*
X434909Y329256D01*
X434973Y329136D01*
X43506Y329031D01*
X435165Y328945D01*
X435285Y328881D01*
X435415Y328841D01*
X43555Y328828D01*
X435686Y328841D01*
X435816Y328881D01*
X435936Y328945D01*
X436041Y329031D01*
X436127Y329136D01*
X436191Y329256D01*
X436231Y329386D01*
X436244Y329522D01*
Y329915D01*
X436231Y330051D01*
X436191Y330181D01*
X436127Y330301D01*
X436041Y330406D01*
X435936Y330492D01*
X435816Y330556D01*
X435686Y330596D01*
X43555Y330609D01*
D02*
G37*
G36*
X428495D02*
X42836Y330596D01*
X42823Y330556D01*
X42811Y330492D01*
X428005Y330406D01*
X427918Y330301D01*
X427854Y330181D01*
X427815Y330051D01*
X427801Y329915D01*
Y329522D01*
X427815Y329386D01*
X427854Y329256D01*
X427918Y329136D01*
X428005Y329031D01*
X42811Y328945D01*
X42823Y328881D01*
X42836Y328841D01*
X428495Y328828D01*
X428631Y328841D01*
X428761Y328881D01*
X428881Y328945D01*
X428986Y329031D01*
X429072Y329136D01*
X429136Y329256D01*
X429176Y329386D01*
X429189Y329522D01*
Y329915D01*
X429176Y330051D01*
X429136Y330181D01*
X429072Y330301D01*
X428986Y330406D01*
X428881Y330492D01*
X428761Y330556D01*
X428631Y330596D01*
X428495Y330609D01*
D02*
G37*
G36*
X3983Y338982D02*
X39788D01*
X397841Y338974D01*
X397808Y338952D01*
X397786Y338919D01*
X397778Y33888D01*
Y337172D01*
X397548Y336942D01*
X39374D01*
X393701Y336934D01*
X393668Y336912D01*
X392958Y336202D01*
X392936Y336169D01*
X392928Y33613D01*
Y33497D01*
X392936Y334931D01*
X392958Y334898D01*
X393108Y334748D01*
X393141Y334726D01*
X39318Y334718D01*
X39355D01*
X393589Y334726D01*
X393622Y334748D01*
X393882Y335008D01*
X393904Y335041D01*
X393912Y33508D01*
Y335128D01*
X393962Y335138D01*
X394Y335047D01*
X394072Y334953D01*
X394164Y334882D01*
Y333355D01*
X394134Y333343D01*
X39404Y333271D01*
X393968Y333177D01*
X393923Y333067D01*
X393908Y33295D01*
Y33285D01*
X393923Y332732D01*
X393968Y332623D01*
X39404Y332529D01*
X394134Y332457D01*
X394244Y332411D01*
X394361Y332396D01*
X394479Y332411D01*
X394588Y332457D01*
X394682Y332529D01*
X394754Y332623D01*
X3948Y332732D01*
X394815Y33285D01*
Y33295D01*
X3948Y333067D01*
X394754Y333177D01*
X394682Y333271D01*
X394622Y333317D01*
Y334882D01*
X394714Y334953D01*
X394786Y335047D01*
X394831Y335156D01*
X394847Y335274D01*
X394831Y335391D01*
X394786Y335501D01*
X394714Y335595D01*
X39462Y335667D01*
X39451Y335712D01*
X394393Y335728D01*
X394275Y335712D01*
X394166Y335667D01*
X394072Y335595D01*
X394Y335501D01*
X393962Y335409D01*
X393912Y335419D01*
Y335788D01*
X394322Y336198D01*
X39796D01*
X397999Y336206D01*
X398032Y336228D01*
X398372Y336568D01*
X398394Y336601D01*
X398402Y33664D01*
Y337831D01*
X3984Y337841D01*
Y337851D01*
X398399Y337856D01*
Y338037D01*
X3984Y338043D01*
Y338053D01*
X398402Y338063D01*
Y33888D01*
X398394Y338919D01*
X398372Y338952D01*
X398339Y338974D01*
X3983Y338982D01*
D02*
G37*
G36*
X419196Y331692D02*
X419041Y331677D01*
X418893Y331632D01*
X418756Y331559D01*
X418635Y33146D01*
X418537Y33134D01*
X418464Y331203D01*
X418419Y331054D01*
X418403Y3309D01*
X418419Y330745D01*
X418464Y330596D01*
X418537Y330459D01*
X418635Y330339D01*
X418756Y33024D01*
X418893Y330167D01*
X419041Y330122D01*
X419196Y330107D01*
X419351Y330122D01*
X419499Y330167D01*
X419636Y33024D01*
X419757Y330339D01*
X419855Y330459D01*
X419929Y330596D01*
X419974Y330745D01*
X419989Y3309D01*
X419974Y331054D01*
X419929Y331203D01*
X419855Y33134D01*
X419757Y33146D01*
X419636Y331559D01*
X419499Y331632D01*
X419351Y331677D01*
X419196Y331692D01*
D02*
G37*
G36*
X402004Y335728D02*
X401887Y335712D01*
X401778Y335667D01*
X401684Y335595D01*
X401611Y335501D01*
X401566Y335391D01*
X401551Y335274D01*
X401566Y335156D01*
X401611Y335047D01*
X401684Y334953D01*
X401775Y334882D01*
Y333131D01*
X401793Y333043D01*
X401794Y333041D01*
X401782Y33295D01*
Y33285D01*
X401797Y332732D01*
X401842Y332623D01*
X401914Y332529D01*
X402008Y332457D01*
X402118Y332411D01*
X402235Y332396D01*
X402353Y332411D01*
X402462Y332457D01*
X402556Y332529D01*
X402629Y332623D01*
X402674Y332732D01*
X402689Y33285D01*
Y33295D01*
X402674Y333067D01*
X402629Y333177D01*
X402556Y333271D01*
X402462Y333343D01*
X402353Y333388D01*
X402235Y333403D01*
X402234Y333405D01*
Y334882D01*
X402325Y334953D01*
X402398Y335047D01*
X402443Y335156D01*
X402458Y335274D01*
X402443Y335391D01*
X402398Y335501D01*
X402325Y335595D01*
X402231Y335667D01*
X402122Y335712D01*
X402004Y335728D01*
D02*
G37*
G36*
X395393D02*
X395275Y335712D01*
X395166Y335667D01*
X395072Y335595D01*
X395Y335501D01*
X394954Y335391D01*
X394939Y335274D01*
X394954Y335156D01*
X395Y335047D01*
X395072Y334953D01*
X395163Y334882D01*
Y333355D01*
X395134Y333343D01*
X39504Y333271D01*
X394968Y333177D01*
X394923Y333067D01*
X394908Y33295D01*
Y33285D01*
X394923Y332732D01*
X394968Y332623D01*
X39504Y332529D01*
X395134Y332457D01*
X395244Y332411D01*
X395361Y332396D01*
X395479Y332411D01*
X395588Y332457D01*
X395682Y332529D01*
X395755Y332623D01*
X3958Y332732D01*
X395815Y33285D01*
Y33295D01*
X3958Y333067D01*
X395755Y333177D01*
X395682Y333271D01*
X395622Y333317D01*
Y334882D01*
X395714Y334953D01*
X395786Y335047D01*
X395831Y335156D01*
X395847Y335274D01*
X395831Y335391D01*
X395786Y335501D01*
X395714Y335595D01*
X39562Y335667D01*
X39551Y335712D01*
X395393Y335728D01*
D02*
G37*
G36*
X407716Y331692D02*
X407561Y331677D01*
X407412Y331632D01*
X407275Y331559D01*
X407155Y33146D01*
X407057Y33134D01*
X406983Y331203D01*
X406938Y331054D01*
X406923Y3309D01*
X406938Y330745D01*
X406983Y330596D01*
X407057Y330459D01*
X407155Y330339D01*
X407275Y33024D01*
X407412Y330167D01*
X407561Y330122D01*
X407716Y330107D01*
X40787Y330122D01*
X408019Y330167D01*
X408156Y33024D01*
X408276Y330339D01*
X408375Y330459D01*
X408448Y330596D01*
X408493Y330745D01*
X408509Y3309D01*
X408493Y331054D01*
X408448Y331203D01*
X408375Y33134D01*
X408276Y33146D01*
X408156Y331559D01*
X408019Y331632D01*
X40787Y331677D01*
X407716Y331692D01*
D02*
G37*
G36*
X404235D02*
X404081Y331677D01*
X403932Y331632D01*
X403795Y331559D01*
X403675Y33146D01*
X403576Y33134D01*
X403503Y331203D01*
X403458Y331054D01*
X403443Y3309D01*
X403458Y330745D01*
X403503Y330596D01*
X403576Y330459D01*
X403675Y330339D01*
X403795Y33024D01*
X403932Y330167D01*
X404081Y330122D01*
X404235Y330107D01*
X40439Y330122D01*
X404539Y330167D01*
X404676Y33024D01*
X404796Y330339D01*
X404895Y330459D01*
X404968Y330596D01*
X405013Y330745D01*
X405028Y3309D01*
X405013Y331054D01*
X404968Y331203D01*
X404895Y33134D01*
X404796Y33146D01*
X404676Y331559D01*
X404539Y331632D01*
X40439Y331677D01*
X404235Y331692D01*
D02*
G37*
G36*
X415196D02*
X415041Y331677D01*
X414893Y331632D01*
X414756Y331559D01*
X414635Y33146D01*
X414537Y33134D01*
X414464Y331203D01*
X414418Y331054D01*
X414403Y3309D01*
X414418Y330745D01*
X414464Y330596D01*
X414537Y330459D01*
X414635Y330339D01*
X414756Y33024D01*
X414893Y330167D01*
X415041Y330122D01*
X415196Y330107D01*
X415351Y330122D01*
X415499Y330167D01*
X415637Y33024D01*
X415757Y330339D01*
X415855Y330459D01*
X415928Y330596D01*
X415974Y330745D01*
X415989Y3309D01*
X415974Y331054D01*
X415928Y331203D01*
X415855Y33134D01*
X415757Y33146D01*
X415637Y331559D01*
X415499Y331632D01*
X415351Y331677D01*
X415196Y331692D01*
D02*
G37*
G36*
X411716D02*
X411561Y331677D01*
X411412Y331632D01*
X411275Y331559D01*
X411155Y33146D01*
X411057Y33134D01*
X410983Y331203D01*
X410938Y331054D01*
X410923Y3309D01*
X410938Y330745D01*
X410983Y330596D01*
X411057Y330459D01*
X411155Y330339D01*
X411275Y33024D01*
X411412Y330167D01*
X411561Y330122D01*
X411716Y330107D01*
X41187Y330122D01*
X412019Y330167D01*
X412156Y33024D01*
X412276Y330339D01*
X412375Y330459D01*
X412448Y330596D01*
X412493Y330745D01*
X412509Y3309D01*
X412493Y331054D01*
X412448Y331203D01*
X412375Y33134D01*
X412276Y33146D01*
X412156Y331559D01*
X412019Y331632D01*
X41187Y331677D01*
X411716Y331692D01*
D02*
G37*
G36*
X427228Y358049D02*
X426755D01*
X426716Y358041D01*
X426683Y358019D01*
X426661Y357986D01*
X426653Y357947D01*
Y357081D01*
X426661Y357042D01*
X426683Y357009D01*
X426716Y356987D01*
X426755Y356979D01*
X427228D01*
X427267Y356987D01*
X4273Y357009D01*
X427322Y357042D01*
X42733Y357081D01*
Y357947D01*
X427322Y357986D01*
X4273Y358019D01*
X427267Y358041D01*
X427228Y358049D01*
D02*
G37*
G36*
X426322Y354478D02*
X422936D01*
X422878Y354466D01*
X422828Y354433D01*
X422592Y354197D01*
X422559Y354147D01*
X422547Y354089D01*
Y352774D01*
X422506Y352733D01*
X419538D01*
X419479Y352721D01*
X41943Y352688D01*
X418707Y351965D01*
X418699Y351966D01*
X418666Y351988D01*
X418627Y351996D01*
X418447D01*
X418424Y352025D01*
X418354Y352079D01*
X418272Y352113D01*
X418185Y352125D01*
X418097Y352113D01*
X418015Y352079D01*
X417945Y352025D01*
X417891Y351955D01*
X417863Y351887D01*
X417846Y351869D01*
X417804Y351855D01*
X417789Y351858D01*
X417454D01*
X417415Y35185D01*
X417382Y351828D01*
X41736Y351795D01*
X417352Y351756D01*
Y3515D01*
X41736Y351461D01*
X417382Y351428D01*
X417415Y351406D01*
X417454Y351398D01*
X417468D01*
Y35108D01*
Y350827D01*
X417365D01*
X417326Y350819D01*
X417326Y350819D01*
X417326Y350819D01*
X417287Y350827D01*
X417169D01*
X417129Y350819D01*
X417129Y350819D01*
X417129Y350819D01*
X41709Y350827D01*
X416972D01*
X416933Y350819D01*
X416932Y350819D01*
X416932Y350819D01*
X416893Y350827D01*
X416775D01*
X416736Y350819D01*
X416735Y350819D01*
X416735Y350819D01*
X416696Y350827D01*
X416578D01*
X416539Y350819D01*
X416539Y350819D01*
X416538Y350819D01*
X416499Y350827D01*
X416381D01*
X416342Y350819D01*
X416342Y350819D01*
X416341Y350819D01*
X416302Y350827D01*
X416184D01*
X416145Y350819D01*
X416145Y350819D01*
X416145Y350819D01*
X416105Y350827D01*
X416003D01*
Y35105D01*
Y351589D01*
X416022Y351602D01*
X416034Y35162D01*
X416301D01*
X416303Y351613D01*
X416357Y351543D01*
X416428Y351489D01*
X416509Y351455D01*
X416597Y351444D01*
X416685Y351455D01*
X416767Y351489D01*
X416837Y351543D01*
X41684Y351547D01*
X416887Y351531D01*
Y35131D01*
X416883Y351307D01*
X416835Y351235D01*
X416818Y35115D01*
X416835Y351065D01*
X416883Y350993D01*
X416955Y350945D01*
X41704Y350928D01*
X417125Y350945D01*
X417197Y350993D01*
X417245Y351065D01*
X417262Y35115D01*
X417245Y351235D01*
X417197Y351307D01*
X417193Y35131D01*
Y353752D01*
X417196Y353757D01*
X417204Y353796D01*
Y354096D01*
X417196Y354135D01*
X417174Y354168D01*
X417141Y35419D01*
X417102Y354198D01*
X416802D01*
X416763Y35419D01*
X41673Y354168D01*
X416708Y354135D01*
X4167Y354096D01*
Y353796D01*
X416708Y353757D01*
X41673Y353724D01*
X416763Y353702D01*
X416802Y353694D01*
X416887D01*
Y352035D01*
X41684Y352019D01*
X416837Y352023D01*
X416801Y35205D01*
Y352563D01*
X416786Y352641D01*
X416741Y352707D01*
X416487Y352962D01*
Y353649D01*
X416489Y35365D01*
X416522Y353672D01*
X416544Y353705D01*
X416552Y353744D01*
Y354D01*
X416544Y354039D01*
X416522Y354072D01*
X416489Y354094D01*
X41645Y354102D01*
X416115D01*
X416076Y354094D01*
X416043Y354072D01*
X416021Y354039D01*
X416013Y354D01*
Y353744D01*
X416021Y353705D01*
X416043Y353672D01*
X416076Y35365D01*
X416079Y353649D01*
Y352877D01*
X416094Y352799D01*
X416138Y352733D01*
X416393Y352478D01*
Y35205D01*
X416357Y352023D01*
X416303Y351952D01*
X416301Y351946D01*
X416034D01*
X416022Y351963D01*
X415989Y351985D01*
X41595Y351993D01*
X41575D01*
X415711Y351985D01*
X415678Y351963D01*
X415655Y35193D01*
X415648Y351891D01*
Y351675D01*
X415655Y351636D01*
X415678Y351602D01*
X415697Y35159D01*
Y351113D01*
X415545Y350961D01*
X415511Y350912D01*
X4155Y350853D01*
Y350764D01*
X415499Y350764D01*
X415492Y350725D01*
Y350149D01*
X415499Y35011D01*
X415522Y350077D01*
X415555Y350055D01*
X415594Y350047D01*
X415712D01*
X415751Y350055D01*
X415751Y350055D01*
X415752Y350055D01*
X415791Y350047D01*
X415909D01*
X415948Y350055D01*
X415948Y350055D01*
X415948Y350055D01*
X415987Y350047D01*
X416105D01*
X416145Y350055D01*
X416145Y350055D01*
X416145Y350055D01*
X416184Y350047D01*
X416302D01*
X416341Y350055D01*
X416342Y350055D01*
X416342Y350055D01*
X416381Y350047D01*
X416499D01*
X416538Y350055D01*
X416539Y350055D01*
X416539Y350055D01*
X416578Y350047D01*
X416696D01*
X416735Y350055D01*
X416735Y350055D01*
X416736Y350055D01*
X416775Y350047D01*
X416893D01*
X416932Y350055D01*
X416932Y350055D01*
X416933Y350055D01*
X416972Y350047D01*
X41709D01*
X417129Y350055D01*
X417129Y350055D01*
X417129Y350055D01*
X417169Y350047D01*
X417287D01*
X417326Y350055D01*
X417326Y350055D01*
X417326Y350055D01*
X417365Y350047D01*
X417483D01*
X417522Y350055D01*
X417523Y350055D01*
X417523Y350055D01*
X417562Y350047D01*
X41768D01*
X417719Y350055D01*
X41772Y350055D01*
X41772Y350055D01*
X417759Y350047D01*
X417877D01*
X417916Y350055D01*
X417917Y350055D01*
X417917Y350055D01*
X417956Y350047D01*
X418074D01*
X418113Y350055D01*
X418113Y350055D01*
X418114Y350055D01*
X418153Y350047D01*
X418271D01*
X41831Y350055D01*
X418343Y350077D01*
X418365Y35011D01*
X418373Y350149D01*
Y350725D01*
X418365Y350764D01*
X418343Y350797D01*
X41831Y350819D01*
X418271Y350827D01*
X418153D01*
X418114Y350819D01*
X418113Y350819D01*
X418113Y350819D01*
X418074Y350827D01*
X417971D01*
Y350883D01*
X417959Y350942D01*
X417926Y350991D01*
X417774Y351143D01*
Y351398D01*
X417789D01*
X417828Y351406D01*
X417861Y351428D01*
X417883Y351461D01*
X417891Y3515D01*
Y351534D01*
X417941Y351551D01*
X417945Y351546D01*
X418015Y351492D01*
X418097Y351458D01*
X418185Y351446D01*
X418272Y351458D01*
X418324Y351479D01*
X418374Y351446D01*
Y351057D01*
X418385Y350999D01*
X418419Y350949D01*
X418453Y350915D01*
Y350764D01*
X418452Y350764D01*
X418445Y350725D01*
Y350149D01*
X418452Y35011D01*
X418474Y350077D01*
X418507Y350055D01*
X418546Y350047D01*
X418665D01*
X418704Y350055D01*
X418704Y350055D01*
X418704Y350055D01*
X418743Y350047D01*
X418861D01*
X4189Y350055D01*
X418901Y350055D01*
X418901Y350055D01*
X41894Y350047D01*
X419058D01*
X419097Y350055D01*
X419098Y350055D01*
X419098Y350055D01*
X419137Y350047D01*
X419255D01*
X419294Y350055D01*
X419294Y350055D01*
X419295Y350055D01*
X419334Y350047D01*
X419452D01*
X419491Y350055D01*
X419491Y350055D01*
X419492Y350055D01*
X419531Y350047D01*
X419649D01*
X419688Y350055D01*
X419688Y350055D01*
X419689Y350055D01*
X419728Y350047D01*
X419846D01*
X419885Y350055D01*
X419885Y350055D01*
X419885Y350055D01*
X419924Y350047D01*
X420043D01*
X420082Y350055D01*
X420115Y350077D01*
X420137Y35011D01*
X420144Y350149D01*
Y350284D01*
X425617D01*
X425676Y350296D01*
X425725Y350329D01*
X426194Y350798D01*
X426227Y350847D01*
X426239Y350906D01*
Y352887D01*
X426263Y352892D01*
X426296Y352914D01*
X426341Y352892D01*
X426342Y352892D01*
X426381Y352884D01*
X426657D01*
X426696Y352892D01*
X426729Y352914D01*
X426751Y352947D01*
X426759Y352986D01*
Y353616D01*
X426751Y353655D01*
X426729Y353688D01*
X426696Y35371D01*
X426672Y353715D01*
Y354128D01*
X42666Y354186D01*
X426627Y354236D01*
X42643Y354433D01*
X426381Y354466D01*
X426322Y354478D01*
D02*
G37*
G36*
X421125Y358049D02*
X420653D01*
X420614Y358041D01*
X420581Y358019D01*
X420559Y357986D01*
X420551Y357947D01*
Y357081D01*
X420559Y357042D01*
X420581Y357009D01*
X420614Y356987D01*
X420653Y356979D01*
X421125D01*
X421164Y356987D01*
X421197Y357009D01*
X421219Y357042D01*
X421227Y357081D01*
Y357947D01*
X421219Y357986D01*
X421197Y358019D01*
X421164Y358041D01*
X421125Y358049D01*
D02*
G37*
G36*
X402086Y350561D02*
X401786D01*
X401747Y350553D01*
X401714Y350531D01*
X401692Y350498D01*
X401684Y350459D01*
Y350159D01*
X401692Y35012D01*
X401714Y350087D01*
X401747Y350065D01*
X401786Y350057D01*
X401833D01*
Y349894D01*
X401811Y349879D01*
X401789Y349846D01*
X401781Y349807D01*
Y349472D01*
X401789Y349433D01*
X401811Y3494D01*
X401844Y349378D01*
X401883Y34937D01*
X402139D01*
X402178Y349378D01*
X402211Y3494D01*
X402233Y349433D01*
X402241Y349472D01*
Y349807D01*
X402233Y349846D01*
X402211Y349879D01*
X402189Y349894D01*
Y350234D01*
X402188Y35024D01*
Y350459D01*
X402181Y350498D01*
X402158Y350531D01*
X402125Y350553D01*
X402086Y350561D01*
D02*
G37*
G36*
X427237Y350047D02*
X426903D01*
X426864Y350039D01*
X426831Y350017D01*
X426809Y349984D01*
X426808Y34998D01*
X426702D01*
X426702Y349984D01*
X42668Y350017D01*
X426646Y350039D01*
X426607Y350047D01*
X426273D01*
X426234Y350039D01*
X426201Y350017D01*
X426179Y349984D01*
X426178Y34998D01*
X425694D01*
X425676Y350007D01*
X425643Y350029D01*
X425604Y350037D01*
X42521D01*
X425171Y350029D01*
X425138Y350007D01*
X425116Y349974D01*
X425108Y349935D01*
Y349699D01*
X425116Y34966D01*
X425138Y349627D01*
X425171Y349605D01*
X42521Y349597D01*
X425604D01*
X425643Y349605D01*
X425676Y349627D01*
X425694Y349654D01*
X426178D01*
X426179Y34965D01*
X426201Y349617D01*
X426234Y349595D01*
X426273Y349587D01*
X426607D01*
X426646Y349595D01*
X42668Y349617D01*
X426702Y34965D01*
X426702Y349654D01*
X426808D01*
X426809Y34965D01*
X426831Y349617D01*
X426864Y349595D01*
X426903Y349587D01*
X427237D01*
X427276Y349595D01*
X427309Y349617D01*
X427332Y34965D01*
X427339Y349689D01*
Y349945D01*
X427332Y349984D01*
X427309Y350017D01*
X427276Y350039D01*
X427237Y350047D01*
D02*
G37*
G36*
X410747Y358082D02*
X410644Y358068D01*
X410548Y358028D01*
X410465Y357965D01*
X410402Y357882D01*
X410362Y357786D01*
X410349Y357683D01*
X410362Y35758D01*
X410402Y357484D01*
X410465Y357401D01*
X410548Y357338D01*
X410644Y357298D01*
X410747Y357284D01*
X41085Y357298D01*
X410947Y357338D01*
X411029Y357401D01*
X411093Y357484D01*
X411132Y35758D01*
X411146Y357683D01*
X411132Y357786D01*
X411093Y357882D01*
X411029Y357965D01*
X410947Y358028D01*
X41085Y358068D01*
X410747Y358082D01*
D02*
G37*
G36*
X43372Y356942D02*
X433635Y356925D01*
X433563Y356877D01*
X433515Y356805D01*
X433498Y35672D01*
X433515Y356635D01*
X433532Y356609D01*
X433517Y356575D01*
X433484Y356552D01*
X433462Y356519D01*
X433454Y35648D01*
Y356224D01*
X433462Y356185D01*
X433484Y356152D01*
X433517Y35613D01*
X433556Y356122D01*
X433891D01*
X43393Y35613D01*
X433963Y356152D01*
X433985Y356185D01*
X433988Y356199D01*
X434127D01*
X434157Y356179D01*
X434196Y356172D01*
X43455D01*
X434589Y356179D01*
X434622Y356202D01*
X434645Y356235D01*
X434652Y356274D01*
Y35651D01*
X434645Y356549D01*
X434622Y356582D01*
X434589Y356604D01*
X43455Y356612D01*
X434196D01*
X434157Y356604D01*
X434124Y356582D01*
X434102Y356549D01*
X434094Y35651D01*
Y356505D01*
X433988D01*
X433985Y356519D01*
X433963Y356552D01*
X43393Y356575D01*
X43392Y356627D01*
X433925Y356635D01*
X433942Y35672D01*
X433925Y356805D01*
X433877Y356877D01*
X433805Y356925D01*
X43372Y356942D01*
D02*
G37*
G36*
X394058Y357878D02*
X39394D01*
X393824Y357854D01*
X393715Y357809D01*
X393617Y357744D01*
X393533Y35766D01*
X393467Y357562D01*
X393422Y357453D01*
X393399Y357337D01*
Y357218D01*
X393422Y357103D01*
X393467Y356993D01*
X393533Y356895D01*
X393617Y356812D01*
X393715Y356746D01*
X393824Y356701D01*
X39394Y356678D01*
X394058D01*
X394174Y356701D01*
X394283Y356746D01*
X394382Y356812D01*
X394465Y356895D01*
X394531Y356993D01*
X394576Y357103D01*
X394599Y357218D01*
Y357337D01*
X394576Y357453D01*
X394531Y357562D01*
X394465Y35766D01*
X394382Y357744D01*
X394283Y357809D01*
X394174Y357854D01*
X394058Y357878D01*
D02*
G37*
G36*
X437169D02*
X43705D01*
X436934Y357854D01*
X436825Y357809D01*
X436727Y357744D01*
X436643Y35766D01*
X436578Y357562D01*
X436533Y357453D01*
X436509Y357337D01*
Y357218D01*
X436533Y357103D01*
X436578Y356993D01*
X436643Y356895D01*
X436727Y356812D01*
X436825Y356746D01*
X436934Y356701D01*
X43705Y356678D01*
X437169D01*
X437284Y356701D01*
X437394Y356746D01*
X437492Y356812D01*
X437575Y356895D01*
X437641Y356993D01*
X437686Y357103D01*
X437709Y357218D01*
Y357337D01*
X437686Y357453D01*
X437641Y357562D01*
X437575Y35766D01*
X437492Y357744D01*
X437394Y357809D01*
X437284Y357854D01*
X437169Y357878D01*
D02*
G37*
G36*
X41645Y354771D02*
X416115D01*
X416076Y354763D01*
X416043Y354741D01*
X416021Y354708D01*
X416013Y354669D01*
Y354413D01*
X416021Y354374D01*
X416043Y354341D01*
X416076Y354319D01*
X416115Y354311D01*
X41645D01*
X416453Y354312D01*
X416711D01*
X41673Y354284D01*
X416763Y354262D01*
X416802Y354254D01*
X417102D01*
X417141Y354262D01*
X417174Y354284D01*
X417196Y354317D01*
X417204Y354356D01*
Y354656D01*
X417196Y354695D01*
X417174Y354728D01*
X417141Y35475D01*
X417102Y354758D01*
X416981D01*
X416917Y354771D01*
X416453D01*
X41645Y354771D01*
D02*
G37*
G36*
X412583Y356022D02*
X412495Y356011D01*
X412414Y355977D01*
X412363Y355938D01*
X411273D01*
X411176Y355919D01*
X411093Y355863D01*
X402723Y347493D01*
X401401D01*
X401374Y347488D01*
X401145D01*
X401106Y34748D01*
X401073Y347458D01*
X401051Y347425D01*
X401043Y347386D01*
Y347091D01*
X401051Y347052D01*
X401073Y347018D01*
X401106Y346996D01*
X401145Y346989D01*
X401374D01*
X401401Y346983D01*
X402828D01*
X402926Y347003D01*
X403008Y347058D01*
X411379Y355428D01*
X412363D01*
X412414Y355389D01*
X412495Y355355D01*
X412583Y355344D01*
X412671Y355355D01*
X412753Y355389D01*
X412823Y355443D01*
X412877Y355513D01*
X412911Y355595D01*
X412922Y355683D01*
X412911Y355771D01*
X412877Y355853D01*
X412823Y355923D01*
X412753Y355977D01*
X412671Y356011D01*
X412583Y356022D01*
D02*
G37*
G36*
X44085Y358563D02*
X440649Y358547D01*
X440452Y3585D01*
X440266Y358423D01*
X440094Y358317D01*
X439941Y358186D01*
X43981Y358033D01*
X439705Y357861D01*
X439627Y357675D01*
X43958Y357479D01*
X439565Y357278D01*
X43958Y357077D01*
X439627Y35688D01*
X439705Y356694D01*
X43981Y356522D01*
X439941Y356369D01*
X440094Y356238D01*
X440266Y356133D01*
X440452Y356055D01*
X440649Y356008D01*
X44085Y355993D01*
X441051Y356008D01*
X441247Y356055D01*
X441433Y356133D01*
X441605Y356238D01*
X441758Y356369D01*
X441889Y356522D01*
X441995Y356694D01*
X442072Y35688D01*
X442119Y357077D01*
X442135Y357278D01*
X442119Y357479D01*
X442072Y357675D01*
X441995Y357861D01*
X441889Y358033D01*
X441758Y358186D01*
X441605Y358317D01*
X441433Y358423D01*
X441247Y3585D01*
X441051Y358547D01*
X44085Y358563D01*
D02*
G37*
G36*
X425604Y349289D02*
X42521D01*
X425171Y349281D01*
X425138Y349259D01*
X425116Y349226D01*
X425108Y349187D01*
Y348951D01*
X425116Y348912D01*
X425138Y348879D01*
X425171Y348857D01*
X425203Y34885D01*
Y348466D01*
X425108D01*
X425107Y348468D01*
X425089Y348495D01*
Y348568D01*
X42509Y34857D01*
X425107Y348655D01*
X42509Y34874D01*
X425042Y348812D01*
X42497Y34886D01*
X424885Y348877D01*
X4248Y34886D01*
X424728Y348812D01*
X42468Y34874D01*
X424663Y348655D01*
X42468Y34857D01*
X424681Y348568D01*
Y348495D01*
X424663Y348468D01*
X424655Y348429D01*
Y348094D01*
X424663Y348055D01*
X424685Y348022D01*
X424718Y348D01*
X424757Y347993D01*
X425013D01*
X425052Y348D01*
X425085Y348022D01*
X425107Y348055D01*
X425108Y348058D01*
X425397D01*
X425405Y348059D01*
X425505D01*
X425544Y348067D01*
X425577Y348089D01*
X425599Y348122D01*
X425607Y348161D01*
Y348254D01*
X425611Y348272D01*
Y34885D01*
X425643Y348857D01*
X425676Y348879D01*
X425698Y348912D01*
X425705Y348951D01*
Y349187D01*
X425698Y349226D01*
X425676Y349259D01*
X425643Y349281D01*
X425604Y349289D01*
D02*
G37*
G36*
X394393Y342728D02*
X394275Y342712D01*
X394166Y342667D01*
X394072Y342595D01*
X394Y342501D01*
X393955Y342391D01*
X393939Y342274D01*
X393955Y342156D01*
X394Y342047D01*
X394072Y341953D01*
X394166Y341881D01*
X394275Y341835D01*
X394393Y34182D01*
X39451Y341835D01*
X39462Y341881D01*
X394714Y341953D01*
X394786Y342047D01*
X394831Y342156D01*
X394847Y342274D01*
X394831Y342391D01*
X394786Y342501D01*
X394714Y342595D01*
X39462Y342667D01*
X39451Y342712D01*
X394393Y342728D01*
D02*
G37*
G36*
X425889Y357974D02*
X425879Y357972D01*
X425869D01*
X425792Y357957D01*
X425756Y357941D01*
X42569Y357898D01*
X425662Y35787D01*
X425619Y357805D01*
X425604Y357768D01*
X425588Y357691D01*
Y357651D01*
X425604Y357575D01*
X425619Y357538D01*
X425662Y357473D01*
X42569Y357445D01*
X425756Y357401D01*
X425792Y357386D01*
X425869Y357371D01*
X425879D01*
X425889Y357369D01*
X425899Y357371D01*
X425909D01*
X425986Y357386D01*
X426022Y357401D01*
X426088Y357445D01*
X426116Y357473D01*
X426159Y357538D01*
X426174Y357575D01*
X42619Y357651D01*
Y357691D01*
X426174Y357768D01*
X426159Y357805D01*
X426116Y35787D01*
X426088Y357898D01*
X426022Y357941D01*
X425986Y357957D01*
X425909Y357972D01*
X425899D01*
X425889Y357974D01*
D02*
G37*
G36*
X440653Y34268D02*
X440259D01*
X440124Y342667D01*
X439994Y342627D01*
X439874Y342563D01*
X439768Y342477D01*
X439682Y342372D01*
X439618Y342252D01*
X439579Y342122D01*
X439565Y341986D01*
X439579Y341851D01*
X439618Y341721D01*
X439682Y341601D01*
X439755Y341512D01*
X437865Y339621D01*
X43786Y339622D01*
X437775Y339605D01*
X437703Y339557D01*
X437655Y339485D01*
X437638Y3394D01*
X437655Y339315D01*
X437703Y339243D01*
X437775Y339195D01*
X43786Y339178D01*
X437945Y339195D01*
X438017Y339243D01*
X438065Y339315D01*
X438082Y3394D01*
X438081Y339405D01*
X440015Y341339D01*
X440124Y341306D01*
X440259Y341292D01*
X440653D01*
X440788Y341306D01*
X440918Y341345D01*
X441038Y341409D01*
X441143Y341496D01*
X44123Y341601D01*
X441294Y341721D01*
X441333Y341851D01*
X441347Y341986D01*
X441333Y342122D01*
X441294Y342252D01*
X44123Y342372D01*
X441143Y342477D01*
X441038Y342563D01*
X440918Y342627D01*
X440788Y342667D01*
X440653Y34268D01*
D02*
G37*
G36*
Y34068D02*
X440259D01*
X440124Y340667D01*
X439994Y340627D01*
X439874Y340563D01*
X439768Y340477D01*
X439682Y340372D01*
X439618Y340252D01*
X439579Y340122D01*
X439565Y339986D01*
X439579Y339851D01*
X439618Y339721D01*
X439682Y339601D01*
X439768Y339496D01*
X439874Y339409D01*
X439994Y339345D01*
X440124Y339306D01*
X440259Y339292D01*
X440653D01*
X440788Y339306D01*
X440918Y339345D01*
X441038Y339409D01*
X441143Y339496D01*
X44123Y339601D01*
X441294Y339721D01*
X441333Y339851D01*
X441347Y339986D01*
X441333Y340122D01*
X441294Y340252D01*
X44123Y340372D01*
X441143Y340477D01*
X441038Y340563D01*
X440918Y340627D01*
X440788Y340667D01*
X440653Y34068D01*
D02*
G37*
G36*
X388487Y358517D02*
X3884Y358505D01*
X388318Y358471D01*
X388248Y358417D01*
X388194Y358347D01*
X38816Y358265D01*
X388148Y358178D01*
X388151Y358158D01*
X388103Y358138D01*
X388091Y358154D01*
X388021Y358208D01*
X387939Y358242D01*
X387851Y358253D01*
X387763Y358242D01*
X387681Y358208D01*
X387611Y358154D01*
X387557Y358084D01*
X387523Y358002D01*
X387512Y357914D01*
X387523Y357826D01*
X387557Y357744D01*
X387611Y357674D01*
X387627Y357662D01*
X387607Y357614D01*
X387587Y357617D01*
X3875Y357605D01*
X387418Y357571D01*
X387348Y357517D01*
X387294Y357447D01*
X38726Y357365D01*
X387248Y357278D01*
X38726Y35719D01*
X387294Y357108D01*
X387348Y357038D01*
X387418Y356984D01*
X3875Y35695D01*
X387587Y356938D01*
X387607Y356941D01*
X387627Y356893D01*
X387611Y356881D01*
X387557Y356811D01*
X387523Y356729D01*
X387512Y356641D01*
X387523Y356553D01*
X387557Y356472D01*
X387611Y356401D01*
X387681Y356347D01*
X387763Y356314D01*
X387851Y356302D01*
X387939Y356314D01*
X388021Y356347D01*
X388091Y356401D01*
X388103Y356417D01*
X388151Y356398D01*
X388148Y356378D01*
X38816Y35629D01*
X388194Y356208D01*
X388248Y356138D01*
X388318Y356084D01*
X3884Y35605D01*
X388487Y356038D01*
X388575Y35605D01*
X388657Y356084D01*
X388727Y356138D01*
X388781Y356208D01*
X388815Y35629D01*
X388827Y356378D01*
X388824Y356398D01*
X388872Y356417D01*
X388884Y356401D01*
X388954Y356347D01*
X389036Y356314D01*
X389124Y356302D01*
X389212Y356314D01*
X389293Y356347D01*
X389364Y356401D01*
X389417Y356472D01*
X389451Y356553D01*
X389463Y356641D01*
X389451Y356729D01*
X389417Y356811D01*
X389364Y356881D01*
X389348Y356893D01*
X389367Y356941D01*
X389387Y356938D01*
X389475Y35695D01*
X389557Y356984D01*
X389627Y357038D01*
X389681Y357108D01*
X389715Y35719D01*
X389727Y357278D01*
X389715Y357365D01*
X389681Y357447D01*
X389627Y357517D01*
X389557Y357571D01*
X389475Y357605D01*
X389387Y357617D01*
X389367Y357614D01*
X389348Y357662D01*
X389364Y357674D01*
X389417Y357744D01*
X389451Y357826D01*
X389463Y357914D01*
X389451Y358002D01*
X389417Y358084D01*
X389364Y358154D01*
X389293Y358208D01*
X389212Y358242D01*
X389124Y358253D01*
X389036Y358242D01*
X388954Y358208D01*
X388884Y358154D01*
X388872Y358138D01*
X388824Y358158D01*
X388827Y358178D01*
X388815Y358265D01*
X388781Y358347D01*
X388727Y358417D01*
X388657Y358471D01*
X388575Y358505D01*
X388487Y358517D01*
D02*
G37*
G36*
X422739Y357974D02*
X42273Y357972D01*
X422719D01*
X422643Y357957D01*
X422606Y357941D01*
X422541Y357898D01*
X422513Y35787D01*
X422469Y357805D01*
X422454Y357768D01*
X422439Y357691D01*
Y357651D01*
X422454Y357575D01*
X422469Y357538D01*
X422513Y357473D01*
X422541Y357445D01*
X422606Y357401D01*
X422643Y357386D01*
X422719Y357371D01*
X42273D01*
X422739Y357369D01*
X422749Y357371D01*
X422759D01*
X422836Y357386D01*
X422873Y357401D01*
X422938Y357445D01*
X422966Y357473D01*
X42301Y357538D01*
X423025Y357575D01*
X42304Y357651D01*
Y357691D01*
X423025Y357768D01*
X42301Y357805D01*
X422966Y35787D01*
X422938Y357898D01*
X422873Y357941D01*
X422836Y357957D01*
X422759Y357972D01*
X422749D01*
X422739Y357974D01*
D02*
G37*
G36*
X435548Y34687D02*
X435463Y346853D01*
X43539Y346805D01*
X435342Y346733D01*
X435325Y346648D01*
X435342Y346563D01*
X43539Y34649D01*
X435397Y346486D01*
Y345959D01*
X435374Y345954D01*
X43534Y345932D01*
X435328Y345914D01*
X435322Y345912D01*
X435278Y345912D01*
X435273Y345914D01*
X43526Y345932D01*
X435227Y345954D01*
X435188Y345962D01*
X434913D01*
X434874Y345954D01*
X434841Y345932D01*
X434828Y345914D01*
X434822Y345912D01*
X434778D01*
X434773Y345914D01*
X43476Y345932D01*
X434727Y345954D01*
X434688Y345962D01*
X434413D01*
X434374Y345954D01*
X434341Y345932D01*
X434328Y345914D01*
X434322Y345912D01*
X434278Y345912D01*
X434273Y345914D01*
X43426Y345932D01*
X434227Y345954D01*
X434188Y345962D01*
X433913D01*
X433874Y345954D01*
X43384Y345932D01*
X433828Y345914D01*
X433822Y345912D01*
X433778Y345912D01*
X433773Y345914D01*
X43376Y345932D01*
X433727Y345954D01*
X433688Y345962D01*
X433413D01*
X433374Y345954D01*
X43334Y345932D01*
X433328Y345914D01*
X433322Y345912D01*
X433278Y345912D01*
X433273Y345914D01*
X43326Y345932D01*
X433227Y345954D01*
X433188Y345962D01*
X432913D01*
X432874Y345954D01*
X43284Y345932D01*
X432828Y345914D01*
X432822Y345912D01*
X432778Y345912D01*
X432773Y345914D01*
X43276Y345932D01*
X432727Y345954D01*
X432688Y345962D01*
X432413D01*
X432374Y345954D01*
X432341Y345932D01*
X432328Y345914D01*
X432322Y345912D01*
X432278D01*
X432273Y345914D01*
X43226Y345932D01*
X432227Y345954D01*
X432188Y345962D01*
X431913D01*
X431874Y345954D01*
X431841Y345932D01*
X431828Y345914D01*
X431822Y345912D01*
X431778Y345912D01*
X431773Y345914D01*
X43176Y345932D01*
X431727Y345954D01*
X431688Y345962D01*
X431413D01*
X431374Y345954D01*
X43134Y345932D01*
X431328Y345914D01*
X431322Y345912D01*
X431278Y345912D01*
X431273Y345914D01*
X43126Y345932D01*
X431227Y345954D01*
X431188Y345962D01*
X430913D01*
X430874Y345954D01*
X43084Y345932D01*
X430828Y345914D01*
X430822Y345912D01*
X430778Y345912D01*
X430773Y345914D01*
X43076Y345932D01*
X430727Y345954D01*
X430688Y345962D01*
X430413D01*
X430374Y345954D01*
X43034Y345932D01*
X430318Y345899D01*
X430311Y34586D01*
Y345073D01*
X430318Y345034D01*
X43034Y345001D01*
X430374Y344979D01*
X430397Y344974D01*
Y344288D01*
X430313Y344277D01*
X430217Y344237D01*
X430135Y344174D01*
X430071Y344091D01*
X430031Y343995D01*
X430018Y343892D01*
X430031Y343789D01*
X430071Y343692D01*
X430135Y34361D01*
X430217Y343546D01*
X430313Y343507D01*
X430417Y343493D01*
X43052Y343507D01*
X430616Y343546D01*
X430698Y34361D01*
X430762Y343692D01*
X430802Y343789D01*
X430815Y343892D01*
X430802Y343995D01*
X430762Y344091D01*
X430703Y344167D01*
Y344974D01*
X430727Y344979D01*
X43076Y345001D01*
X430773Y345019D01*
X430778Y345021D01*
X430822Y345021D01*
X430828Y345019D01*
X43084Y345001D01*
X430874Y344979D01*
X430897Y344974D01*
Y344258D01*
X430909Y344199D01*
X430942Y34415D01*
X431051Y344041D01*
X431031Y343995D01*
X431018Y343892D01*
X431031Y343789D01*
X431071Y343692D01*
X431135Y34361D01*
X431217Y343546D01*
X431313Y343507D01*
X431417Y343493D01*
X43152Y343507D01*
X431616Y343546D01*
X431698Y34361D01*
X431762Y343692D01*
X431802Y343789D01*
X431815Y343892D01*
X431802Y343995D01*
X431762Y344091D01*
X431698Y344174D01*
X431616Y344237D01*
X43152Y344277D01*
X431417Y34429D01*
X431313Y344277D01*
X431267Y344258D01*
X431203Y344321D01*
Y344974D01*
X431227Y344979D01*
X43126Y345001D01*
X431273Y345019D01*
X431278Y345021D01*
X431322Y345021D01*
X431328Y345019D01*
X43134Y345001D01*
X431374Y344979D01*
X431413Y344971D01*
X431688D01*
X431727Y344979D01*
X43176Y345001D01*
X431773Y345019D01*
X431778Y345021D01*
X431822Y345021D01*
X431828Y345019D01*
X431841Y345001D01*
X431874Y344979D01*
X431913Y344971D01*
X432188D01*
X432227Y344979D01*
X43226Y345001D01*
X432273Y345019D01*
X432278Y345021D01*
X432322D01*
X432328Y345019D01*
X432341Y345001D01*
X432374Y344979D01*
X432413Y344971D01*
X432688D01*
X432727Y344979D01*
X43276Y345001D01*
X432773Y345019D01*
X432778Y345021D01*
X432822Y345021D01*
X432828Y345019D01*
X43284Y345001D01*
X432874Y344979D01*
X432913Y344971D01*
X433188D01*
X433227Y344979D01*
X43326Y345001D01*
X433273Y345019D01*
X433278Y345021D01*
X433322Y345021D01*
X433328Y345019D01*
X43334Y345001D01*
X433374Y344979D01*
X433413Y344971D01*
X433688D01*
X433727Y344979D01*
X43376Y345001D01*
X433773Y345019D01*
X433778Y345021D01*
X433822Y345021D01*
X433828Y345019D01*
X43384Y345001D01*
X433874Y344979D01*
X433913Y344971D01*
X434188D01*
X434227Y344979D01*
X43426Y345001D01*
X434273Y345019D01*
X434278Y345021D01*
X434322Y345021D01*
X434328Y345019D01*
X434341Y345001D01*
X434374Y344979D01*
X434413Y344971D01*
X434688D01*
X434727Y344979D01*
X43476Y345001D01*
X434773Y345019D01*
X434778Y345021D01*
X434822D01*
X434828Y345019D01*
X434841Y345001D01*
X434874Y344979D01*
X434913Y344971D01*
X435188D01*
X435227Y344979D01*
X43526Y345001D01*
X435273Y345019D01*
X435278Y345021D01*
X435322Y345021D01*
X435328Y345019D01*
X43534Y345001D01*
X435374Y344979D01*
X435413Y344971D01*
X435688D01*
X435727Y344979D01*
X43576Y345001D01*
X435773Y345019D01*
X435778Y345021D01*
X435822D01*
X435828Y345019D01*
X43584Y345001D01*
X435874Y344979D01*
X435913Y344971D01*
X436188D01*
X436227Y344979D01*
X43626Y345001D01*
X436282Y345034D01*
X43629Y345073D01*
Y34586D01*
X436282Y345899D01*
X43626Y345932D01*
X436227Y345954D01*
X436188Y345962D01*
X435913D01*
X435874Y345954D01*
X43584Y345932D01*
X435828Y345914D01*
X435822Y345912D01*
X435778D01*
X435773Y345914D01*
X43576Y345932D01*
X435727Y345954D01*
X435703Y345959D01*
Y346489D01*
X435705Y34649D01*
X435753Y346563D01*
X43577Y346648D01*
X435753Y346733D01*
X435705Y346805D01*
X435633Y346853D01*
X435548Y34687D01*
D02*
G37*
G36*
X429944Y351754D02*
X429157D01*
X429118Y351746D01*
X429085Y351724D01*
X429062Y351691D01*
X429055Y351652D01*
Y351376D01*
X429062Y351337D01*
X429085Y351304D01*
X429103Y351292D01*
X429105Y351286D01*
Y351242D01*
X429103Y351236D01*
X429085Y351224D01*
X429062Y351191D01*
X429055Y351152D01*
Y350876D01*
X429062Y350837D01*
X429085Y350804D01*
X429103Y350792D01*
X429105Y350786D01*
Y350742D01*
X429103Y350736D01*
X429085Y350724D01*
X429062Y350691D01*
X429055Y350652D01*
Y350376D01*
X429062Y350337D01*
X429085Y350304D01*
X429103Y350292D01*
X429105Y350286D01*
X429105Y350242D01*
X429103Y350236D01*
X429085Y350224D01*
X429062Y350191D01*
X429055Y350152D01*
Y349876D01*
X429062Y349837D01*
X429085Y349804D01*
X429091Y349799D01*
Y34974D01*
X429085Y349735D01*
X429062Y349702D01*
X429055Y349663D01*
Y349388D01*
X429062Y349349D01*
X429085Y349316D01*
X429114Y349296D01*
X429117Y34927D01*
X429114Y349243D01*
X429085Y349224D01*
X429062Y349191D01*
X429055Y349152D01*
Y348876D01*
X429062Y348837D01*
X429085Y348804D01*
X429103Y348792D01*
X429105Y348786D01*
X429105Y348742D01*
X429103Y348736D01*
X429085Y348724D01*
X429062Y348691D01*
X429055Y348652D01*
Y348376D01*
X429062Y348337D01*
X429085Y348304D01*
X429103Y348292D01*
X429105Y348286D01*
X429105Y348242D01*
X429103Y348236D01*
X429085Y348224D01*
X429062Y348191D01*
X429055Y348152D01*
Y347876D01*
X429062Y347837D01*
X429085Y347804D01*
X429103Y347792D01*
X429105Y347786D01*
X429105Y347742D01*
X429103Y347736D01*
X429085Y347724D01*
X429062Y347691D01*
X429055Y347652D01*
Y347376D01*
X429062Y347337D01*
X429085Y347304D01*
X429118Y347282D01*
X429157Y347274D01*
X429944D01*
X429983Y347282D01*
X430016Y347304D01*
X430038Y347337D01*
X430046Y347376D01*
Y347652D01*
X430038Y347691D01*
X430016Y347724D01*
X429998Y347736D01*
X429996Y347742D01*
X429996Y347786D01*
X429998Y347792D01*
X430016Y347804D01*
X430038Y347837D01*
X430046Y347876D01*
Y348152D01*
X430038Y348191D01*
X430016Y348224D01*
X429998Y348236D01*
X429996Y348242D01*
X429996Y348286D01*
X429998Y348292D01*
X430016Y348304D01*
X430038Y348337D01*
X430046Y348376D01*
Y348652D01*
X430038Y348691D01*
X430016Y348724D01*
X429998Y348736D01*
X429996Y348742D01*
X429996Y348786D01*
X429998Y348792D01*
X430016Y348804D01*
X430038Y348837D01*
X430046Y348876D01*
Y349152D01*
X430038Y349191D01*
X430016Y349224D01*
X429987Y349243D01*
X429984Y34927D01*
X429987Y349296D01*
X430016Y349316D01*
X430038Y349349D01*
X430046Y349388D01*
Y349663D01*
X430038Y349702D01*
X430016Y349735D01*
X43001Y34974D01*
Y349799D01*
X430016Y349804D01*
X430038Y349837D01*
X430046Y349876D01*
Y350152D01*
X430038Y350191D01*
X430016Y350224D01*
X429998Y350236D01*
X429996Y350242D01*
X429996Y350286D01*
X429998Y350292D01*
X430016Y350304D01*
X430038Y350337D01*
X430046Y350376D01*
Y350652D01*
X430038Y350691D01*
X430016Y350724D01*
X429998Y350736D01*
X429996Y350742D01*
Y350786D01*
X429998Y350792D01*
X430016Y350804D01*
X430038Y350837D01*
X430046Y350876D01*
Y351152D01*
X430038Y351191D01*
X430016Y351224D01*
X429998Y351236D01*
X429996Y351242D01*
Y351286D01*
X429998Y351292D01*
X430016Y351304D01*
X430038Y351337D01*
X430046Y351376D01*
Y351652D01*
X430038Y351691D01*
X430016Y351724D01*
X429983Y351746D01*
X429944Y351754D01*
D02*
G37*
G36*
X395574Y348026D02*
X395574D01*
X395574Y347583D01*
Y348026D01*
D02*
G37*
G36*
X432873Y358082D02*
X43277Y358068D01*
X432674Y358028D01*
X432591Y357965D01*
X432528Y357882D01*
X432488Y357786D01*
X432475Y357683D01*
X432488Y35758D01*
X432528Y357484D01*
X432591Y357401D01*
X432674Y357338D01*
X43277Y357298D01*
X432873Y357284D01*
X432976Y357298D01*
X433073Y357338D01*
X433155Y357401D01*
X433218Y357484D01*
X433258Y35758D01*
X433272Y357683D01*
X433258Y357786D01*
X433218Y357882D01*
X433155Y357965D01*
X433073Y358028D01*
X432976Y358068D01*
X432873Y358082D01*
D02*
G37*
G36*
X395393Y342728D02*
X395275Y342712D01*
X395166Y342667D01*
X395072Y342595D01*
X395Y342501D01*
X394954Y342391D01*
X394939Y342274D01*
X394954Y342156D01*
X395Y342047D01*
X395072Y341953D01*
X395166Y341881D01*
X395275Y341835D01*
X395393Y34182D01*
X39551Y341835D01*
X39562Y341881D01*
X395714Y341953D01*
X395786Y342047D01*
X395831Y342156D01*
X395847Y342274D01*
X395831Y342391D01*
X395786Y342501D01*
X395714Y342595D01*
X39562Y342667D01*
X39551Y342712D01*
X395393Y342728D01*
D02*
G37*
%LPD*%
G36*
X388787Y338249D02*
X388785Y338229D01*
X388796Y338141D01*
X38883Y338059D01*
X388884Y337989D01*
X388954Y337935D01*
X389036Y337901D01*
X389124Y33789D01*
X389144Y337892D01*
X389164Y337845D01*
X389148Y337832D01*
X389094Y337762D01*
X38906Y33768D01*
X389048Y337593D01*
X38906Y337505D01*
X389094Y337423D01*
X389148Y337353D01*
X389164Y33734D01*
X389144Y337293D01*
X389124Y337295D01*
X389036Y337284D01*
X388954Y33725D01*
X388884Y337196D01*
X38883Y337126D01*
X388796Y337044D01*
X388785Y336956D01*
X388787Y336936D01*
X388739Y336916D01*
X388727Y336932D01*
X388657Y336986D01*
X388575Y33702D01*
X388487Y337032D01*
X3884Y33702D01*
X388318Y336986D01*
X388248Y336932D01*
X388235Y336916D01*
X388187Y336936D01*
X38819Y336956D01*
X388179Y337044D01*
X388145Y337126D01*
X388091Y337196D01*
X388021Y33725D01*
X387939Y337284D01*
X387851Y337295D01*
X387831Y337293D01*
X387811Y33734D01*
X387827Y337353D01*
X387881Y337423D01*
X387915Y337505D01*
X387927Y337593D01*
X387915Y33768D01*
X387881Y337762D01*
X387827Y337832D01*
X387811Y337845D01*
X387831Y337892D01*
X387851Y33789D01*
X387939Y337901D01*
X388021Y337935D01*
X388091Y337989D01*
X388145Y338059D01*
X388179Y338141D01*
X38819Y338229D01*
X388187Y338249D01*
X388235Y338269D01*
X388248Y338253D01*
X388318Y338199D01*
X3884Y338165D01*
X388487Y338153D01*
X388575Y338165D01*
X388657Y338199D01*
X388727Y338253D01*
X388739Y338269D01*
X388787Y338249D01*
D02*
G37*
G36*
X42123Y338104D02*
X421218Y338086D01*
X42121Y338047D01*
Y337846D01*
X421218Y337807D01*
X42123Y337789D01*
Y33671D01*
X42094Y33642D01*
X41691D01*
X41648Y33599D01*
Y33524D01*
X41633Y33509D01*
X41613D01*
X41594Y33528D01*
Y33636D01*
X41658Y337D01*
X4204D01*
X42069Y33729D01*
Y33885D01*
X42123D01*
Y338104D01*
D02*
G37*
G36*
X41357Y33847D02*
X41333Y33823D01*
Y33674D01*
X41334Y33673D01*
X41299Y33638D01*
X40928D01*
X40898Y33608D01*
Y33512D01*
X40876Y3349D01*
X40843D01*
X40827Y33506D01*
Y33634D01*
X40885Y33692D01*
X41283D01*
X41296Y33705D01*
Y33862D01*
X41322Y33888D01*
X41357D01*
Y33847D01*
D02*
G37*
G36*
X40589Y33834D02*
X40581Y33826D01*
X40581Y33824D01*
Y33676D01*
X40545Y3364D01*
X40175D01*
X40129Y33594D01*
Y33513D01*
X40114Y33498D01*
X40088D01*
X40073Y33513D01*
Y33622D01*
X40141Y3369D01*
X40506D01*
X40535Y33719D01*
Y33883D01*
X40589D01*
Y33834D01*
D02*
G37*
G36*
X3983Y338063D02*
X398297Y338047D01*
Y337846D01*
X3983Y337831D01*
Y33664D01*
X39796Y3363D01*
X39428D01*
X39381Y33583D01*
Y33508D01*
X39355Y33482D01*
X39318D01*
X39303Y33497D01*
Y33613D01*
X39374Y33684D01*
X39759D01*
X39788Y33713D01*
Y33888D01*
X3983D01*
Y338063D01*
D02*
G37*
G36*
X424177Y352892D02*
X424216Y352884D01*
X424491D01*
X42453Y352892D01*
X424563Y352914D01*
X424609Y352892D01*
X42461Y352892D01*
X424634Y352887D01*
Y35189D01*
X424427Y351683D01*
X41991D01*
X419851Y351671D01*
X419802Y351638D01*
X419602Y351438D01*
X419554Y351457D01*
X41955Y351494D01*
X419943Y351887D01*
X42363D01*
X423689Y351899D01*
X423738Y351932D01*
X424029Y352222D01*
X424062Y352272D01*
X424073Y35233D01*
Y352887D01*
X424097Y352892D01*
X424098Y352892D01*
X424144Y352914D01*
X424177Y352892D01*
D02*
G37*
G36*
X426366Y354065D02*
Y353715D01*
X426342Y35371D01*
X426309Y353688D01*
X426263Y35371D01*
X426263Y35371D01*
X426224Y353718D01*
X425948D01*
X425909Y35371D01*
X425908Y35371D01*
X425863Y353688D01*
X42583Y35371D01*
X425791Y353718D01*
X425515D01*
X425476Y35371D01*
X425443Y353688D01*
X425421Y353655D01*
X425413Y353616D01*
Y352986D01*
X425421Y352947D01*
X425443Y352914D01*
X425476Y352892D01*
X4255Y352887D01*
Y351476D01*
X425217Y351193D01*
X41999D01*
X419931Y351181D01*
X419882Y351148D01*
X419789Y351055D01*
X419743Y351074D01*
Y351146D01*
X419973Y351377D01*
X42449D01*
X424549Y351389D01*
X424598Y351422D01*
X424895Y351718D01*
X424928Y351768D01*
X42494Y351827D01*
Y352887D01*
X424963Y352892D01*
X424997Y352914D01*
X425019Y352947D01*
X425026Y352986D01*
Y353616D01*
X425019Y353655D01*
X424997Y353688D01*
X424963Y35371D01*
X424924Y353718D01*
X424695D01*
X424661Y353768D01*
X424681Y353816D01*
X424693Y353904D01*
X424681Y353991D01*
X424647Y354073D01*
X42461Y354122D01*
X424634Y354172D01*
X426259D01*
X426366Y354065D01*
D02*
G37*
G36*
X425909Y352892D02*
X425933Y352887D01*
Y350969D01*
X425554Y35059D01*
X420144D01*
Y350725D01*
X420137Y350764D01*
X420115Y350797D01*
X420082Y350819D01*
X420077Y350871D01*
X420088Y350887D01*
X42528D01*
X425339Y350899D01*
X425388Y350932D01*
X425761Y351305D01*
X425794Y351354D01*
X425806Y351413D01*
Y352887D01*
X42583Y352892D01*
X42583Y352892D01*
X425876Y352914D01*
X425909Y352892D01*
D02*
G37*
G36*
X388787Y357934D02*
X388785Y357914D01*
X388796Y357826D01*
X38883Y357744D01*
X388884Y357674D01*
X388954Y35762D01*
X389036Y357586D01*
X389124Y357575D01*
X389144Y357577D01*
X389164Y35753D01*
X389148Y357517D01*
X389094Y357447D01*
X38906Y357365D01*
X389048Y357278D01*
X38906Y35719D01*
X389094Y357108D01*
X389148Y357038D01*
X389164Y357025D01*
X389144Y356978D01*
X389124Y35698D01*
X389036Y356969D01*
X388954Y356935D01*
X388884Y356881D01*
X38883Y356811D01*
X388796Y356729D01*
X388785Y356641D01*
X388787Y356621D01*
X388739Y356601D01*
X388727Y356617D01*
X388657Y356671D01*
X388575Y356705D01*
X388487Y356717D01*
X3884Y356705D01*
X388318Y356671D01*
X388248Y356617D01*
X388235Y356601D01*
X388187Y356621D01*
X38819Y356641D01*
X388179Y356729D01*
X388145Y356811D01*
X388091Y356881D01*
X388021Y356935D01*
X387939Y356969D01*
X387851Y35698D01*
X387831Y356978D01*
X387811Y357025D01*
X387827Y357038D01*
X387881Y357108D01*
X387915Y35719D01*
X387927Y357278D01*
X387915Y357365D01*
X387881Y357447D01*
X387827Y357517D01*
X387811Y35753D01*
X387831Y357577D01*
X387851Y357575D01*
X387939Y357586D01*
X388021Y35762D01*
X388091Y357674D01*
X388145Y357744D01*
X388179Y357826D01*
X38819Y357914D01*
X388187Y357934D01*
X388235Y357954D01*
X388248Y357938D01*
X388318Y357884D01*
X3884Y35785D01*
X388487Y357838D01*
X388575Y35785D01*
X388657Y357884D01*
X388727Y357938D01*
X388739Y357954D01*
X388787Y357934D01*
D02*
G37*
D10*
X43655Y345467D02*
D03*
X43605Y345467D02*
D03*
X43555Y345467D02*
D03*
X43505Y345467D02*
D03*
X43455D02*
D03*
X43405Y345467D02*
D03*
X43355Y345467D02*
D03*
X43305Y345467D02*
D03*
X43255Y345467D02*
D03*
X43205Y345467D02*
D03*
X43155Y345467D02*
D03*
X43105Y345467D02*
D03*
X43055Y345467D02*
D03*
X43055Y353561D02*
D03*
X43655Y353561D02*
D03*
X43605D02*
D03*
X43555Y353561D02*
D03*
X43505Y353561D02*
D03*
X43455Y353561D02*
D03*
X43405Y353561D02*
D03*
X43355Y353561D02*
D03*
X43305D02*
D03*
X43255Y353561D02*
D03*
X43205Y353561D02*
D03*
X43155Y353561D02*
D03*
X43105D02*
D03*
D11*
X42955Y347514D02*
D03*
X42955Y348014D02*
D03*
X42955Y348514D02*
D03*
X42955Y349014D02*
D03*
Y349526D02*
D03*
Y350014D02*
D03*
X42955Y350514D02*
D03*
X42955Y351014D02*
D03*
X42955Y351514D02*
D03*
D12*
X419983Y350437D02*
D03*
X419787Y350437D02*
D03*
X41959D02*
D03*
X419393D02*
D03*
X419196Y350437D02*
D03*
X418999D02*
D03*
X418802D02*
D03*
X418605D02*
D03*
X418409D02*
D03*
X418212D02*
D03*
X418015D02*
D03*
X417818D02*
D03*
X417621D02*
D03*
X417424D02*
D03*
X417228D02*
D03*
X417031D02*
D03*
X416834D02*
D03*
X416637D02*
D03*
X41644D02*
D03*
X416243D02*
D03*
X416046D02*
D03*
X41585D02*
D03*
X415653Y350437D02*
D03*
X415456D02*
D03*
X415259Y350437D02*
D03*
X415259Y344433D02*
D03*
X415456D02*
D03*
X415653D02*
D03*
X41585D02*
D03*
X416046Y344433D02*
D03*
X416243D02*
D03*
X41644Y344433D02*
D03*
X416637D02*
D03*
X416834Y344433D02*
D03*
X417031D02*
D03*
X417228D02*
D03*
X417424D02*
D03*
X417621D02*
D03*
X417818Y344433D02*
D03*
X418015Y344433D02*
D03*
X418212D02*
D03*
X418409D02*
D03*
X418605D02*
D03*
X418802D02*
D03*
X418999Y344433D02*
D03*
X419196D02*
D03*
X419393D02*
D03*
X41959D02*
D03*
X419787D02*
D03*
X419983Y344433D02*
D03*
D13*
X414619Y349797D02*
D03*
X414619Y3496D02*
D03*
Y349404D02*
D03*
Y349207D02*
D03*
X414619Y34901D02*
D03*
Y348813D02*
D03*
Y348616D02*
D03*
Y348419D02*
D03*
Y348222D02*
D03*
Y348026D02*
D03*
Y347829D02*
D03*
Y347632D02*
D03*
Y347435D02*
D03*
Y347238D02*
D03*
Y347041D02*
D03*
Y346844D02*
D03*
Y346648D02*
D03*
Y346451D02*
D03*
Y346254D02*
D03*
Y346057D02*
D03*
Y34586D02*
D03*
X414619Y345663D02*
D03*
Y345467D02*
D03*
Y34527D02*
D03*
X414619Y345073D02*
D03*
X420623D02*
D03*
Y34527D02*
D03*
Y345467D02*
D03*
Y345663D02*
D03*
Y34586D02*
D03*
Y346057D02*
D03*
Y346254D02*
D03*
Y346451D02*
D03*
X420623Y346648D02*
D03*
Y346844D02*
D03*
Y347041D02*
D03*
X420623Y347238D02*
D03*
X420623Y347435D02*
D03*
Y347632D02*
D03*
X420623Y347829D02*
D03*
Y348026D02*
D03*
Y348222D02*
D03*
X420623Y348419D02*
D03*
Y348616D02*
D03*
X420623Y348813D02*
D03*
Y34901D02*
D03*
X420623Y349207D02*
D03*
Y349404D02*
D03*
Y3496D02*
D03*
Y349797D02*
D03*
D14*
X406105Y34027D02*
D03*
X405436D02*
D03*
X398468Y34027D02*
D03*
X397798Y34027D02*
D03*
X421381Y34027D02*
D03*
X420712D02*
D03*
X413743D02*
D03*
X413074D02*
D03*
X424885Y348262D02*
D03*
X424216D02*
D03*
X402011Y34964D02*
D03*
X401342D02*
D03*
D15*
X417621Y352297D02*
D03*
Y351628D02*
D03*
X421873Y346116D02*
D03*
Y345447D02*
D03*
X422464Y346116D02*
D03*
Y345447D02*
D03*
X42644Y349148D02*
D03*
Y349817D02*
D03*
X42707Y349148D02*
D03*
Y349817D02*
D03*
X416283Y353872D02*
D03*
Y354541D02*
D03*
X433724Y356352D02*
D03*
Y355683D02*
D03*
X400613Y350329D02*
D03*
Y349659D02*
D03*
D16*
X401401Y348026D02*
D03*
Y347238D02*
D03*
X399432Y348026D02*
D03*
Y347238D02*
D03*
X400417Y348026D02*
D03*
Y347238D02*
D03*
D17*
X396361Y352474D02*
D03*
X395461D02*
D03*
X399314Y349679D02*
D03*
X398414D02*
D03*
D18*
X41585Y352137D02*
D03*
Y351783D02*
D03*
X418527Y35214D02*
D03*
Y351785D02*
D03*
X437306Y333951D02*
D03*
Y334305D02*
D03*
X397936Y352376D02*
D03*
Y35273D02*
D03*
X39952Y353633D02*
D03*
Y353987D02*
D03*
X399649Y350388D02*
D03*
Y350742D02*
D03*
D19*
X397267Y352474D02*
D03*
Y353374D02*
D03*
D20*
X422444Y332278D02*
D03*
X422798D02*
D03*
X431499D02*
D03*
X431854D02*
D03*
X398153Y337947D02*
D03*
X398507D02*
D03*
X405672Y337947D02*
D03*
X406027D02*
D03*
X413192Y337947D02*
D03*
X413546D02*
D03*
X421066Y337947D02*
D03*
X42142D02*
D03*
X42272Y347632D02*
D03*
X422365D02*
D03*
X425476Y345663D02*
D03*
X42583D02*
D03*
X425397Y348262D02*
D03*
X425751D02*
D03*
X412798Y34901D02*
D03*
X413153D02*
D03*
X412798Y349797D02*
D03*
X413153D02*
D03*
Y347041D02*
D03*
X412798D02*
D03*
X413153Y345467D02*
D03*
X412798D02*
D03*
X435279Y3546D02*
D03*
X435633D02*
D03*
X399039Y350388D02*
D03*
X398684D02*
D03*
D21*
X393999Y352465D02*
D03*
Y353823D02*
D03*
D22*
Y357278D02*
D03*
X437109Y336805D02*
D03*
Y357278D02*
D03*
D23*
X398507Y339541D02*
D03*
X397759Y339541D02*
D03*
X398133Y338636D02*
D03*
X406145Y339541D02*
D03*
X405397D02*
D03*
X405771Y338636D02*
D03*
X413783Y339541D02*
D03*
X413035D02*
D03*
X413409Y338636D02*
D03*
X42142Y339541D02*
D03*
X420672D02*
D03*
X421046Y338636D02*
D03*
D24*
X427109Y346805D02*
D03*
X424354D02*
D03*
D25*
X424324Y349069D02*
D03*
Y349443D02*
D03*
Y349817D02*
D03*
X425407D02*
D03*
X425407Y349443D02*
D03*
X425407Y349069D02*
D03*
D26*
X416952Y353946D02*
D03*
Y354506D02*
D03*
D27*
X426991Y357514D02*
D03*
X420889D02*
D03*
D28*
X426519Y353301D02*
D03*
X426086Y353301D02*
D03*
X425653Y353301D02*
D03*
X42522D02*
D03*
X424787D02*
D03*
X424354Y353301D02*
D03*
X42392Y353301D02*
D03*
X423487D02*
D03*
X423054D02*
D03*
D29*
X426991Y353734D02*
D03*
D30*
X421243D02*
D03*
D31*
X399334Y351431D02*
D03*
X399531D02*
D03*
X399728D02*
D03*
X399924D02*
D03*
Y352573D02*
D03*
X399728D02*
D03*
X399531D02*
D03*
X399334D02*
D03*
D32*
X4002Y351707D02*
D03*
Y351904D02*
D03*
Y3521D02*
D03*
Y352297D02*
D03*
X399058D02*
D03*
Y3521D02*
D03*
Y351904D02*
D03*
Y351707D02*
D03*
D33*
X399629Y352002D02*
D03*
D34*
X401376Y350309D02*
D03*
X401936D02*
D03*
D35*
X434373Y356392D02*
D03*
X434373Y355644D02*
D03*
X435279Y356018D02*
D03*
D36*
X391716Y352128D02*
X392062Y352474D01*
X396361D02*
X397267D01*
X433724Y355683D02*
X434334D01*
X434373Y355644D01*
X433273Y355683D02*
X433724D01*
X401401Y347238D02*
X402828D01*
X411273Y355683D01*
X412583D01*
X392062Y352474D02*
X395461D01*
D37*
X397365Y352376D02*
X397936D01*
X397267Y352474D02*
X397365Y352376D01*
X399039Y349955D02*
Y350388D01*
Y349955D02*
X399314Y349679D01*
Y348144D02*
Y349679D01*
Y348144D02*
X399432Y348026D01*
X424354Y353301D02*
Y353904D01*
X425407Y348272D02*
Y349069D01*
X425397Y348262D02*
X425407Y348272D01*
X424885Y348262D02*
X425397D01*
X422847Y345447D02*
X42303Y34563D01*
X422464Y345447D02*
X422847D01*
X398468Y339581D02*
X398507Y339541D01*
X398468Y339581D02*
Y34027D01*
X398133Y337967D02*
Y338636D01*
Y337967D02*
X398153Y337947D01*
Y336903D02*
Y337947D01*
X39787Y33662D02*
X398153Y336903D01*
X39404Y33662D02*
X39787D01*
X393393Y335973D02*
X39404Y33662D01*
X393393Y335274D02*
Y335973D01*
X40156Y33662D02*
X40539D01*
X405672Y336903D01*
Y337947D01*
Y338537D02*
X405771Y338636D01*
X405672Y337947D02*
Y338537D01*
X412909Y33662D02*
X413192Y336903D01*
Y337947D01*
Y338419D02*
X413409Y338636D01*
X413192Y337947D02*
Y338419D01*
X409079Y33662D02*
X412909D01*
X408645Y335302D02*
Y336185D01*
X408616Y335274D02*
X408645Y335302D01*
Y336185D02*
X409079Y33662D01*
X401004Y335274D02*
Y336065D01*
X40156Y33662D01*
X420783D02*
X421066Y336903D01*
Y337947D01*
X421046Y337967D02*
X421066Y337947D01*
X421046Y337967D02*
Y338636D01*
X418228Y332931D02*
Y335274D01*
X418196Y3329D02*
X418228Y332931D01*
X417228D02*
Y335274D01*
X417196Y3329D02*
X417228Y332931D01*
X398468Y34027D02*
X398508Y34031D01*
X39908D01*
X424885Y348262D02*
Y348655D01*
X416283Y352877D02*
Y353872D01*
Y352877D02*
X416597Y352563D01*
Y351783D02*
Y352563D01*
X40921Y35643D02*
X41194D01*
X408747Y356893D02*
X40921Y35643D01*
X408747Y356893D02*
Y357683D01*
Y358683D01*
X401401Y348026D02*
X402486D01*
X40877Y35431D01*
Y35599D01*
X40921Y35643D01*
X416228Y335274D02*
Y336208D01*
X41664Y33662D01*
X420783D01*
X42164Y34803D02*
X4221D01*
X422365Y347765D01*
Y347632D02*
Y347765D01*
Y347337D02*
Y347632D01*
Y347337D02*
X42303Y346672D01*
Y34563D02*
Y346672D01*
X400913Y335274D02*
Y335274D01*
X416306Y335274D02*
Y335274D01*
X399432Y348026D02*
X401401D01*
X418185Y351785D02*
X418527D01*
D38*
X398423Y352297D02*
X399058D01*
X398344Y352376D02*
X398423Y352297D01*
X397936Y352376D02*
X398344D01*
X39862Y3521D02*
X399058D01*
X398423Y352297D02*
X39862Y3521D01*
X398541Y352573D02*
X399334D01*
X398344Y352376D02*
X398541Y352573D01*
X399058Y351707D02*
Y351904D01*
X399334Y351224D02*
Y351431D01*
X399058Y350948D02*
Y351707D01*
Y350948D02*
X399334Y351224D01*
X399728Y351232D02*
Y351431D01*
Y351232D02*
X400613Y350347D01*
Y350329D02*
Y350347D01*
X399531Y35086D02*
X399649Y350742D01*
X399531Y35086D02*
Y351431D01*
Y352573D02*
Y353616D01*
X413153Y34901D02*
X413153Y34901D01*
X413153Y347041D02*
X413153Y347041D01*
X420623Y347632D02*
X422365D01*
X422365Y347632D01*
X417818Y350437D02*
Y350883D01*
X417621Y35108D02*
X417818Y350883D01*
X417621Y350437D02*
Y35108D01*
Y351628D01*
X415653Y350437D02*
Y350853D01*
X41585Y35105D01*
Y350437D02*
Y35105D01*
Y351746D01*
X419983Y350437D02*
X425617D01*
X426086Y350906D01*
Y353301D01*
X425653Y351413D02*
Y353301D01*
X41959Y350437D02*
Y35121D01*
X41991Y35153D01*
X42449D01*
X419393Y350437D02*
Y351553D01*
X41988Y35204D01*
X42363D01*
X42392Y35233D01*
Y353301D01*
X419196Y350437D02*
Y351636D01*
X41978Y35222D01*
X42314D01*
X423487Y352567D01*
Y353301D01*
X418999Y350437D02*
Y351759D01*
X41966Y35242D01*
X42278D01*
X423054Y352694D01*
Y353301D01*
X419787Y350437D02*
Y350837D01*
X41999Y35104D01*
X42528D01*
X425653Y351413D01*
X42449Y35153D02*
X424787Y351827D01*
Y353301D01*
X420623Y349797D02*
X424304D01*
X424324Y349817D01*
X420623Y3496D02*
X42344D01*
X423597Y349443D01*
X424324D01*
Y34837D02*
Y349069D01*
X424216Y348262D02*
X424324Y34837D01*
X424216Y346943D02*
Y348262D01*
Y346943D02*
X424354Y346805D01*
X414619Y348616D02*
X415464D01*
X4156Y34848D01*
X416189Y346451D02*
X41624Y3464D01*
X414619Y346451D02*
X416189D01*
X415259Y344433D02*
Y345049D01*
X413153Y349797D02*
X414619D01*
X41959Y34335D02*
Y344433D01*
X417621Y343681D02*
Y344433D01*
X413153Y34901D02*
X414619D01*
X413153Y345467D02*
X414619D01*
X413153Y347041D02*
X414619D01*
X417329Y347829D02*
X420623D01*
X41703Y34753D02*
X417329Y347829D01*
X41685Y34778D02*
X417096Y348026D01*
X420623D01*
X41669Y34753D02*
X41703D01*
X41625Y34797D02*
X41669Y34753D01*
X414619Y348813D02*
X415653D01*
X421735Y346254D02*
X421873Y346116D01*
X420623Y346451D02*
X422129D01*
X422464Y346116D01*
Y346116D02*
Y346116D01*
X417228Y342274D02*
X417714Y34276D01*
X420623Y347238D02*
X421558D01*
X4217Y34738D01*
X420623Y347041D02*
X421791D01*
X42197Y34722D01*
X420623Y346844D02*
X422075D01*
X420623Y346648D02*
X422458D01*
X43555Y345467D02*
Y346645D01*
X435548Y346648D02*
X43555Y346645D01*
X43205Y35196D02*
X43206Y35195D01*
X422075Y346844D02*
X42224Y34701D01*
X43255Y35277D02*
X432551Y35277D01*
X43256D01*
X43144Y35825D02*
X431873Y358683D01*
X433724Y356352D02*
X434334D01*
X434373Y356392D01*
X43372Y356356D02*
X433724Y356352D01*
X43372Y356356D02*
Y35672D01*
X430873Y356037D02*
Y357683D01*
X43144Y35595D02*
Y35825D01*
X43355Y353561D02*
Y35384D01*
X431873Y355997D02*
Y357683D01*
Y355997D02*
X43405Y35382D01*
Y353561D02*
Y35382D01*
X43455Y353561D02*
Y35385D01*
X43144Y35595D02*
X43355Y35384D01*
X430873Y356037D02*
X43305Y35386D01*
Y353561D02*
Y35386D01*
X41675Y34848D02*
X41709Y34882D01*
X4156Y34848D02*
X41675D01*
X414619Y348419D02*
X415191D01*
X41539Y34822D01*
X41668D01*
X440446Y341986D02*
X440456D01*
X43786Y3394D02*
X440446Y341986D01*
X421126Y346254D02*
X42128Y3461D01*
X420623Y346254D02*
X421126D01*
X42128Y3461D02*
X421434Y346254D01*
X421735D01*
X422178Y34583D02*
X422464Y346116D01*
X42167Y34583D02*
X422178D01*
X42146Y34562D02*
X42167Y34583D01*
X402004Y342274D02*
X402591Y34286D01*
X417424Y34377D02*
Y344433D01*
X41734Y3434D02*
X417621Y343681D01*
X41533Y34278D02*
X41574Y34319D01*
X410122Y34278D02*
X41533D01*
X409616Y342274D02*
X410122Y34278D01*
X410616Y342274D02*
X415174D01*
X41586Y34296D01*
X417224Y34357D02*
X417424Y34377D01*
X415456Y343864D02*
Y344433D01*
X424354Y345966D02*
Y346805D01*
Y345966D02*
X424657Y345663D01*
X425476D01*
X420623Y34901D02*
X42291D01*
X420623Y348813D02*
X422747D01*
X42366Y3479D01*
X418228Y342274D02*
X423084D01*
X42366Y3433D02*
Y3479D01*
X423084Y342274D02*
X42386Y34305D01*
Y34806D01*
X42291Y34901D02*
X42386Y34806D01*
X420623Y348616D02*
X422624D01*
X42347Y34777D01*
X42289Y34253D02*
X42366Y3433D01*
X42116Y34445D02*
X42128Y34457D01*
Y3461D01*
X42123Y34395D02*
X42146Y34418D01*
Y34562D01*
X42262Y34295D02*
X42347Y3438D01*
Y34777D01*
X420623Y348222D02*
X421232D01*
X42145Y34844D01*
X42251D01*
X42328Y34767D01*
Y34391D02*
Y34767D01*
X42269Y34332D02*
X42328Y34391D01*
X4202Y34276D02*
X42043Y34253D01*
X417714Y34276D02*
X4202D01*
X42043Y34253D02*
X42289D01*
X41943Y34319D02*
X41959Y34335D01*
X41574Y34319D02*
X41943D01*
X419393Y343593D02*
Y344433D01*
X41923Y34343D02*
X419393Y343593D01*
X4192Y34343D02*
X41923D01*
X417818Y343612D02*
X41799Y34344D01*
X41844D01*
X417818Y343612D02*
Y344433D01*
X42268Y34333D02*
X42269Y34332D01*
X41586Y34296D02*
X42019D01*
X420623Y343393D01*
Y345073D01*
X42266Y34331D02*
X42268Y34333D01*
X4209Y34331D02*
X42266D01*
X42069Y34295D02*
X42262D01*
X42293Y34179D02*
X42442Y34328D01*
Y345427D01*
X424657Y345663D01*
X417264Y349404D02*
X420623D01*
X416952Y353946D02*
X41704Y353858D01*
Y35115D02*
Y353858D01*
X43222Y35618D02*
Y35693D01*
Y35618D02*
X43455Y35385D01*
X40673Y34286D02*
X40744Y34357D01*
X402591Y34286D02*
X40673D01*
X40893Y34734D02*
Y35053D01*
X41315Y35475D01*
Y35785D01*
X41282Y35818D02*
X41315Y35785D01*
X41125Y35818D02*
X41282D01*
X410747Y358683D02*
X41125Y35818D01*
X411747Y358683D02*
X412977D01*
X41356Y3581D01*
Y35456D02*
Y3581D01*
X40935Y35035D02*
X41356Y35456D01*
X40935Y34681D02*
Y35035D01*
X41562Y3434D02*
X41734D01*
X41544Y34322D02*
X41562Y3434D01*
X407104Y342274D02*
X40805Y34322D01*
X403004Y342274D02*
X407104D01*
X40744Y34357D02*
X40936D01*
X417224D01*
X40893Y34322D02*
X41544D01*
X40805D02*
X40893D01*
X399039Y350388D02*
X399058Y350407D01*
Y350948D01*
X43205Y35196D02*
Y353561D01*
X43255Y35277D02*
Y353561D01*
X43055Y344026D02*
Y345467D01*
X430417Y343892D02*
X43055Y344026D01*
X43105Y344258D02*
Y345467D01*
Y344258D02*
X431417Y343892D01*
X399511Y353636D02*
X399531Y353616D01*
X414619Y346648D02*
X41651D01*
X418605Y350437D02*
Y350978D01*
X418527Y351057D02*
X418605Y350978D01*
X418527Y351057D02*
Y351785D01*
X41581D02*
X41585Y351746D01*
X418802Y350437D02*
Y351844D01*
X419538Y35258D01*
X422569D01*
X4227Y352711D01*
X426322Y354325D02*
X426519Y354128D01*
Y353301D02*
Y354128D01*
X4227Y352711D02*
Y354089D01*
X422936Y354325D01*
X426322D01*
D39*
X399039Y350388D02*
X399649D01*
X399334Y349659D02*
X400613D01*
X399314Y349679D02*
X399334Y349659D01*
X400633Y34964D02*
X401342D01*
X400613Y349659D02*
X400633Y34964D01*
X402011D02*
Y350234D01*
X401936Y350309D02*
X402011Y350234D01*
X413743Y339581D02*
Y34027D01*
Y339581D02*
X413783Y339541D01*
X406105Y339581D02*
Y34027D01*
Y339581D02*
X406145Y339541D01*
X42142D02*
Y34023D01*
X421381Y34027D02*
X42142Y34023D01*
X421381Y34027D02*
Y340809D01*
X413743Y34027D02*
X41434D01*
X41435Y34028D01*
X406105Y340806D02*
X40611Y34081D01*
X406105Y34027D02*
Y340806D01*
D40*
X414038Y348222D02*
X414619D01*
X41361Y34865D02*
X414038Y348222D01*
X414158Y347632D02*
X414619D01*
X41348Y34831D02*
X414158Y347632D01*
X41585Y351783D02*
X416597D01*
X425407Y349817D02*
X42644D01*
X42707D01*
X419983Y344433D02*
X420237D01*
X417228D02*
Y344888D01*
X41736Y34502D01*
X41764D01*
D41*
X435279Y356018D02*
X435279Y356018D01*
X43505Y353561D02*
Y354372D01*
X435279Y3546D01*
Y356018D01*
X413153Y345467D02*
Y347041D01*
Y34901D01*
Y349367D01*
X421873Y345447D02*
X422464D01*
X394393Y332931D02*
Y335274D01*
X394361Y3329D02*
X394393Y332931D01*
X395393D02*
Y335274D01*
X395361Y3329D02*
X395393Y332931D01*
X402004Y333131D02*
Y335274D01*
Y333131D02*
X402235Y3329D01*
X403004Y333131D02*
Y335274D01*
Y333131D02*
X403235Y3329D01*
X409616Y332999D02*
Y335274D01*
Y332999D02*
X409716Y3329D01*
X410616Y332999D02*
Y335274D01*
Y332999D02*
X410716Y3329D01*
X397798Y339581D02*
Y34027D01*
X397759Y339541D02*
X397798Y339581D01*
X422444Y32977D02*
X422495Y329719D01*
X431499Y32977D02*
X43155Y329719D01*
X437306Y333951D02*
X44042D01*
X440456Y333986D01*
X431821Y333951D02*
X437306D01*
X431499Y333629D02*
X431821Y333951D01*
X431499Y32977D02*
Y332278D01*
Y333629D01*
X423149D02*
X431499D01*
X422444Y332924D02*
X423149Y333629D01*
X422444Y32977D02*
Y332278D01*
Y332924D01*
X405436Y339581D02*
Y34027D01*
X405397Y339541D02*
X405436Y339581D01*
X413074D02*
Y34027D01*
X413035Y339541D02*
X413074Y339581D01*
X420712Y339581D02*
Y34027D01*
X420672Y339541D02*
X420712Y339581D01*
Y34027D02*
Y340818D01*
X42032Y34121D02*
X420712Y340818D01*
X4133Y34121D02*
X42032D01*
X413074Y340984D02*
X4133Y34121D01*
X413074Y34027D02*
Y340984D01*
X412848Y34121D02*
X413074Y340984D01*
X40564Y34121D02*
X412848D01*
X405436Y341006D02*
X40564Y34121D01*
X405436Y34027D02*
Y341006D01*
X405212Y34123D02*
X405436Y341006D01*
X397798Y340938D02*
X39809Y34123D01*
X397798Y34027D02*
Y340938D01*
X399432Y341578D02*
Y347238D01*
Y341578D02*
X39978Y34123D01*
X405212D01*
X399085D02*
X399432Y341578D01*
X39809Y34123D02*
X399085D01*
X423149Y333629D02*
Y340691D01*
X42206Y34178D02*
X423149Y340691D01*
X42089Y34178D02*
X42206D01*
X42032Y34121D02*
X42089Y34178D01*
X413153Y344663D02*
Y345467D01*
X41315Y34466D02*
X413153Y344663D01*
X400417Y345123D02*
Y347238D01*
Y345123D02*
X40088Y34466D01*
X41315D01*
X416283Y354541D02*
X416917D01*
X416952Y354506D01*
D42*
X431417Y343892D02*
D03*
X430417D02*
D03*
X408747Y358683D02*
D03*
X409747Y357683D02*
D03*
Y358683D02*
D03*
X410747Y357683D02*
D03*
Y358683D02*
D03*
X411747Y357683D02*
D03*
Y358683D02*
D03*
X432873Y357683D02*
D03*
X431873Y358683D02*
D03*
Y357683D02*
D03*
X430873Y358683D02*
D03*
Y357683D02*
D03*
D43*
X429417Y343892D02*
D03*
X408747Y357683D02*
D03*
X432873Y358683D02*
D03*
D44*
X403235Y3329D02*
D03*
X402235D02*
D03*
X395361D02*
D03*
X394361D02*
D03*
X410716D02*
D03*
X409716D02*
D03*
X418196D02*
D03*
X417196D02*
D03*
D45*
X404235Y3309D02*
D03*
X400235D02*
D03*
X396361D02*
D03*
X392361D02*
D03*
X411716D02*
D03*
X407716D02*
D03*
X419196D02*
D03*
X415196D02*
D03*
D46*
X440456Y333986D02*
D03*
D47*
Y335986D02*
D03*
Y337986D02*
D03*
Y339986D02*
D03*
Y341986D02*
D03*
D48*
X44085Y329719D02*
D03*
X388487Y337593D02*
D03*
Y357278D02*
D03*
X44085D02*
D03*
D49*
X390692Y35412D02*
D03*
Y35212D02*
D03*
D50*
X387668Y332081D02*
D03*
X389669D02*
D03*
D51*
X393393Y342274D02*
D03*
X394393D02*
D03*
X395393D02*
D03*
Y335274D02*
D03*
X394393D02*
D03*
X393393D02*
D03*
X401004Y342274D02*
D03*
X402004D02*
D03*
X403004D02*
D03*
Y335274D02*
D03*
X402004D02*
D03*
X401004D02*
D03*
X408616Y342274D02*
D03*
X409616D02*
D03*
X410616D02*
D03*
Y335274D02*
D03*
X409616D02*
D03*
X408616D02*
D03*
X416228Y342274D02*
D03*
X417228D02*
D03*
X418228D02*
D03*
Y335274D02*
D03*
X417228D02*
D03*
X416228D02*
D03*
D52*
X43155Y329719D02*
D03*
X422495D02*
D03*
D53*
X43355D02*
D03*
X43555D02*
D03*
X43755D02*
D03*
X424495D02*
D03*
X426495D02*
D03*
X428495D02*
D03*
D54*
X425889Y357671D02*
D03*
X422739D02*
D03*
D55*
X438999Y345309D02*
D03*
X438251Y34527D02*
D03*
X437582D02*
D03*
X436952Y34523D02*
D03*
X436913Y353852D02*
D03*
X437661D02*
D03*
X438527D02*
D03*
X439314D02*
D03*
X41624Y3464D02*
D03*
X415259Y345049D02*
D03*
X41685Y34778D02*
D03*
X41625Y34797D02*
D03*
X415653Y348813D02*
D03*
X41348Y34831D02*
D03*
X41361Y34865D02*
D03*
X4217Y34738D02*
D03*
X42197Y34722D02*
D03*
X422458Y346648D02*
D03*
X435548D02*
D03*
X43206Y35195D02*
D03*
X42224Y34701D02*
D03*
X43256Y35277D02*
D03*
X43372Y35672D02*
D03*
X41709Y34882D02*
D03*
X41668Y34822D02*
D03*
X43786Y3394D02*
D03*
X41651Y34666D02*
D03*
X415456Y343864D02*
D03*
X42116Y34445D02*
D03*
X42123Y34395D02*
D03*
X421381Y340809D02*
D03*
X41435Y34028D02*
D03*
X40611Y34081D02*
D03*
X420237Y344433D02*
D03*
X39908Y34031D02*
D03*
X4192Y34343D02*
D03*
X41844Y34344D02*
D03*
X41764Y34502D02*
D03*
X4209Y34331D02*
D03*
X42069Y34295D02*
D03*
X42293Y34179D02*
D03*
X424885Y348655D02*
D03*
X417264Y349404D02*
D03*
X41704Y35115D02*
D03*
X43222Y35693D02*
D03*
X40893Y34734D02*
D03*
X40935Y34681D02*
D03*
X40936Y34357D02*
D03*
X40893Y34322D02*
D03*
X424117Y351766D02*
D03*
X424413Y352159D02*
D03*
Y352652D02*
D03*
X4252Y35275D02*
D03*
Y352061D02*
D03*
X425102Y351372D02*
D03*
X424216Y351274D02*
D03*
X423133D02*
D03*
X421952D02*
D03*
X421165D02*
D03*
X419983D02*
D03*
X42018Y351766D02*
D03*
X420869D02*
D03*
X42146D02*
D03*
X422444D02*
D03*
X423527D02*
D03*
X413684Y350388D02*
D03*
X414373D02*
D03*
X414964D02*
D03*
X418704Y349896D02*
D03*
X419294D02*
D03*
X419885D02*
D03*
X418999Y352553D02*
D03*
X417621Y349797D02*
D03*
X417818Y349108D02*
D03*
X418212D02*
D03*
X417129Y34714D02*
D03*
X417621D02*
D03*
X418015D02*
D03*
X415456D02*
D03*
X416046D02*
D03*
X419196Y347435D02*
D03*
X419688Y34714D02*
D03*
X422247Y344876D02*
D03*
X422543Y344581D02*
D03*
X422936Y344285D02*
D03*
X424413Y342711D02*
D03*
X424905Y342317D02*
D03*
X425298Y341825D02*
D03*
X422149Y343793D02*
D03*
X424609Y341333D02*
D03*
X424983Y340978D02*
D03*
X425417Y340585D02*
D03*
X426952Y33901D02*
D03*
X427306Y338695D02*
D03*
X427661Y338301D02*
D03*
X429393Y335978D02*
D03*
X429865Y335309D02*
D03*
X430023Y332632D02*
D03*
Y331884D02*
D03*
X43018Y331018D02*
D03*
X42455Y332474D02*
D03*
Y331884D02*
D03*
X42459Y331451D02*
D03*
X4327Y332553D02*
D03*
X433054Y332081D02*
D03*
X433212Y331648D02*
D03*
X433566Y335388D02*
D03*
X434669Y335348D02*
D03*
X435259Y335427D02*
D03*
X436165D02*
D03*
X436716Y332593D02*
D03*
X437503D02*
D03*
X438212Y332553D02*
D03*
X429905Y338774D02*
D03*
X430928D02*
D03*
X431716Y338695D02*
D03*
X429669Y340506D02*
D03*
X430102D02*
D03*
X430771Y340467D02*
D03*
X426598Y345821D02*
D03*
X427109Y34586D02*
D03*
X427582Y345821D02*
D03*
X420298Y352868D02*
D03*
X420889Y352907D02*
D03*
X421716Y352868D02*
D03*
X420495Y350703D02*
D03*
X421086Y350742D02*
D03*
X42148Y350152D02*
D03*
X422188D02*
D03*
X425417Y350782D02*
D03*
X426401Y350388D02*
D03*
X426755Y351096D02*
D03*
X426676Y351844D02*
D03*
X42707Y352907D02*
D03*
X419157Y35464D02*
D03*
X42022D02*
D03*
X421007Y354679D02*
D03*
X423212Y354797D02*
D03*
X424275Y354876D02*
D03*
X425023D02*
D03*
X42581Y354797D02*
D03*
X42707Y35464D02*
D03*
X41522Y357002D02*
D03*
X416519Y357041D02*
D03*
X418054Y356963D02*
D03*
X414905Y355033D02*
D03*
X416046Y35523D02*
D03*
X416873D02*
D03*
X429039Y355073D02*
D03*
X430535Y355191D02*
D03*
X431322Y354837D02*
D03*
X431676Y354482D02*
D03*
X43392Y357199D02*
D03*
X434196Y357986D02*
D03*
X428684Y357002D02*
D03*
X429708Y356963D02*
D03*
X431086Y351136D02*
D03*
X431046Y350309D02*
D03*
Y349128D02*
D03*
X430732Y34838D02*
D03*
X433054Y3509D02*
D03*
X432976Y349364D02*
D03*
X433015Y348459D02*
D03*
X430456Y347081D02*
D03*
X432228Y34712D02*
D03*
X432739Y347593D02*
D03*
X433566Y351963D02*
D03*
X434117Y352789D02*
D03*
X425928Y343498D02*
D03*
X426676Y342474D02*
D03*
X427543Y341805D02*
D03*
X434865Y341136D02*
D03*
X435653Y341254D02*
D03*
X42459Y339679D02*
D03*
X42518Y339128D02*
D03*
X425613Y338577D02*
D03*
X424275Y336687D02*
D03*
X424432Y335427D02*
D03*
X424865Y334758D02*
D03*
X421952Y334364D02*
D03*
X421361Y332711D02*
D03*
Y331175D02*
D03*
X417109Y337593D02*
D03*
X417936D02*
D03*
X418684Y337632D02*
D03*
X417464Y336175D02*
D03*
X41833D02*
D03*
X419117Y336018D02*
D03*
X409157Y337435D02*
D03*
X409787Y337396D02*
D03*
X410417Y337474D02*
D03*
X410062Y336057D02*
D03*
X410495D02*
D03*
X409629D02*
D03*
X402109Y337711D02*
D03*
X402621D02*
D03*
X403054D02*
D03*
X402267Y336136D02*
D03*
X402739Y336096D02*
D03*
X403251D02*
D03*
X406322Y338734D02*
D03*
Y338301D02*
D03*
X406401Y33775D02*
D03*
X413881Y338656D02*
D03*
Y338222D02*
D03*
X41392Y337671D02*
D03*
X398881Y338262D02*
D03*
Y337907D02*
D03*
Y337514D02*
D03*
X395968Y3359D02*
D03*
X396401D02*
D03*
X396716D02*
D03*
X394983Y337278D02*
D03*
X395417D02*
D03*
X394511D02*
D03*
X393409Y355348D02*
D03*
X394235D02*
D03*
X395259Y355309D02*
D03*
X395338Y353537D02*
D03*
X39581Y353498D02*
D03*
X396243Y353459D02*
D03*
X398605Y353144D02*
D03*
Y353813D02*
D03*
Y354285D02*
D03*
X400456Y354167D02*
D03*
X401165Y35397D02*
D03*
X401401Y353419D02*
D03*
Y352907D02*
D03*
X40144Y352396D02*
D03*
X398369Y351411D02*
D03*
Y350939D02*
D03*
X398094Y35023D02*
D03*
X397818Y349522D02*
D03*
X398291Y349167D02*
D03*
X394472Y346805D02*
D03*
X39459Y34586D02*
D03*
Y34523D02*
D03*
X401519Y343183D02*
D03*
X402188Y343577D02*
D03*
X403212Y343498D02*
D03*
X412109Y347081D02*
D03*
X412149Y346608D02*
D03*
X412188Y346096D02*
D03*
X413645Y346608D02*
D03*
Y346136D02*
D03*
X41392Y346411D02*
D03*
X413842Y345112D02*
D03*
X413999Y344128D02*
D03*
X414511D02*
D03*
X415298Y346175D02*
D03*
X415732Y346136D02*
D03*
X416125Y345939D02*
D03*
X416794Y34523D02*
D03*
X418291Y345427D02*
D03*
X418684Y345388D02*
D03*
X419157Y345427D02*
D03*
X425338Y347041D02*
D03*
X42585D02*
D03*
X426283D02*
D03*
X423015Y34712D02*
D03*
X426165Y348656D02*
D03*
X426676D02*
D03*
X427149Y348616D02*
D03*
X425889Y349404D02*
D03*
X414629Y352199D02*
D03*
X41522D02*
D03*
X417621Y352829D02*
D03*
X415338Y349797D02*
D03*
X412188Y349404D02*
D03*
X412228Y349837D02*
D03*
X412385Y35027D02*
D03*
X421991Y338419D02*
D03*
X422149Y337671D02*
D03*
X442464Y353852D02*
D03*
X441663D02*
D03*
X440863D02*
D03*
X440062D02*
D03*
X436519Y353428D02*
D03*
Y352531D02*
D03*
Y351635D02*
D03*
Y350738D02*
D03*
Y349841D02*
D03*
Y348944D02*
D03*
Y348047D02*
D03*
Y347151D02*
D03*
Y346254D02*
D03*
X439747Y345309D02*
D03*
X4406D02*
D03*
X441453D02*
D03*
X442306Y345309D02*
D03*
Y344502D02*
D03*
Y343695D02*
D03*
X442543Y354364D02*
D03*
Y355427D02*
D03*
Y35653D02*
D03*
X442503Y357868D02*
D03*
X442464Y358734D02*
D03*
X399472Y35215D02*
D03*
Y351854D02*
D03*
X399777D02*
D03*
Y35215D02*
D03*
D56*
X424354Y353904D02*
D03*
X418185Y351785D02*
D03*
X413153Y349367D02*
D03*
X433273Y355683D02*
D03*
X416597Y351783D02*
D03*
X41315Y34466D02*
D03*
X41194Y35643D02*
D03*
X412583Y355683D02*
D03*
X42164Y34803D02*
D03*
X440213Y330355D02*
D03*
X44085Y330619D02*
D03*
X441486Y330355D02*
D03*
Y329082D02*
D03*
X44085Y328819D02*
D03*
X440213Y329082D02*
D03*
X43995Y329719D02*
D03*
X44175D02*
D03*
X387851Y338229D02*
D03*
X388487Y338493D02*
D03*
X389124Y338229D02*
D03*
Y336956D02*
D03*
X388487Y336693D02*
D03*
X387851Y336956D02*
D03*
X387587Y337593D02*
D03*
X389387D02*
D03*
Y357278D02*
D03*
X387587D02*
D03*
X387851Y356641D02*
D03*
X388487Y356378D02*
D03*
X389124Y356641D02*
D03*
Y357914D02*
D03*
X388487Y358178D02*
D03*
X387851Y357914D02*
D03*
X440213D02*
D03*
X44085Y358178D02*
D03*
X441486Y357914D02*
D03*
Y356641D02*
D03*
X44085Y356378D02*
D03*
X440213Y356641D02*
D03*
X43995Y357278D02*
D03*
X44175D02*
D03*
M02*
