G04 Layer_Color=2752767*
%FSTAX24Y24*%
%MOIN*%
G70*
G01*
G75*
%ADD112C,0.0020*%
%ADD113C,0.0027*%
D112*
X431337Y343812D02*
Y343972D01*
X431497D01*
Y343812D01*
X431337D01*
X430337D02*
Y343972D01*
X430497D01*
Y343812D01*
X430337D01*
X429337D02*
Y343972D01*
X429497D01*
Y343812D01*
X429337D01*
X404235Y33082D02*
X404155Y33098D01*
X404315D01*
X404235Y33082D01*
X400235D02*
X400155Y33098D01*
X400315D01*
X400235Y33082D01*
X396361D02*
X396281Y33098D01*
X396441D01*
X396361Y33082D01*
X392361D02*
X392281Y33098D01*
X392441D01*
X392361Y33082D01*
X440456Y333906D02*
X440496Y333946D01*
X440536D01*
X440496Y333986D01*
X440536Y334026D01*
X440496D01*
X440456Y334066D01*
X440416Y334026D01*
X440376D01*
X440416Y333986D01*
X440376Y333946D01*
X440416D01*
X440456Y333906D01*
Y335906D02*
X440496Y335946D01*
X440536D01*
X440496Y335986D01*
X440536Y336026D01*
X440496D01*
X440456Y336066D01*
X440416Y336026D01*
X440376D01*
X440416Y335986D01*
X440376Y335946D01*
X440416D01*
X440456Y335906D01*
Y337906D02*
X440496Y337946D01*
X440536D01*
X440496Y337986D01*
X440536Y338026D01*
X440496D01*
X440456Y338066D01*
X440416Y338026D01*
X440376D01*
X440416Y337986D01*
X440376Y337946D01*
X440416D01*
X440456Y337906D01*
Y339906D02*
X440496Y339946D01*
X440536D01*
X440496Y339986D01*
X440536Y340026D01*
X440496D01*
X440456Y340066D01*
X440416Y340026D01*
X440376D01*
X440416Y339986D01*
X440376Y339946D01*
X440416D01*
X440456Y339906D01*
Y341906D02*
X440496Y341946D01*
X440536D01*
X440496Y341986D01*
X440536Y342026D01*
X440496D01*
X440456Y342066D01*
X440416Y342026D01*
X440376D01*
X440416Y341986D01*
X440376Y341946D01*
X440416D01*
X440456Y341906D01*
X411716Y33082D02*
X411636Y33098D01*
X411796D01*
X411716Y33082D01*
X407716D02*
X407636Y33098D01*
X407796D01*
X407716Y33082D01*
X419196D02*
X419116Y33098D01*
X419276D01*
X419196Y33082D01*
X415196D02*
X415116Y33098D01*
X415276D01*
X415196Y33082D01*
X44077Y329638D02*
X44081Y329719D01*
X44077Y329799D01*
X44085Y329758D01*
X44093Y329799D01*
X44089Y329719D01*
X44093Y329638D01*
X44085Y329678D01*
X44077Y329638D01*
X388407Y337513D02*
X388447Y337593D01*
X388407Y337673D01*
X388487Y337633D01*
X388567Y337673D01*
X388527Y337593D01*
X388567Y337513D01*
X388487Y337553D01*
X388407Y337513D01*
Y357198D02*
X388447Y357278D01*
X388407Y357358D01*
X388487Y357318D01*
X388567Y357358D01*
X388527Y357278D01*
X388567Y357198D01*
X388487Y357238D01*
X388407Y357198D01*
X390652Y35408D02*
Y35404D01*
X390732D01*
Y35408D01*
X390772D01*
Y35416D01*
X390732D01*
Y3542D01*
X390652D01*
Y35416D01*
X390612D01*
Y35408D01*
X390652D01*
Y35208D02*
Y35204D01*
X390732D01*
Y35208D01*
X390772D01*
Y35216D01*
X390732D01*
Y3522D01*
X390652D01*
Y35216D01*
X390612D01*
Y35208D01*
X390652D01*
X387629Y332041D02*
Y332001D01*
X387709D01*
Y332041D01*
X387748D01*
Y332121D01*
X387709D01*
Y332161D01*
X387629D01*
Y332121D01*
X387589D01*
Y332041D01*
X387629D01*
X389628D02*
Y332001D01*
X389709D01*
Y332041D01*
X389748D01*
Y332121D01*
X389709D01*
Y332161D01*
X389628D01*
Y332121D01*
X389589D01*
Y332041D01*
X389628D01*
X393313Y342194D02*
X393353D01*
X393393Y342234D01*
X393433Y342194D01*
X393473D01*
Y342234D01*
X393433Y342274D01*
X393473Y342314D01*
Y342354D01*
X393433D01*
X393393Y342314D01*
X393353Y342354D01*
X393313D01*
Y342314D01*
X393353Y342274D01*
X393313Y342234D01*
Y342194D01*
X394313D02*
X394353D01*
X394393Y342234D01*
X394433Y342194D01*
X394473D01*
Y342234D01*
X394433Y342274D01*
X394473Y342314D01*
Y342354D01*
X394433D01*
X394393Y342314D01*
X394353Y342354D01*
X394313D01*
Y342314D01*
X394353Y342274D01*
X394313Y342234D01*
Y342194D01*
X395313D02*
X395353D01*
X395393Y342234D01*
X395433Y342194D01*
X395473D01*
Y342234D01*
X395433Y342274D01*
X395473Y342314D01*
Y342354D01*
X395433D01*
X395393Y342314D01*
X395353Y342354D01*
X395313D01*
Y342314D01*
X395353Y342274D01*
X395313Y342234D01*
Y342194D01*
Y335194D02*
X395353D01*
X395393Y335234D01*
X395433Y335194D01*
X395473D01*
Y335234D01*
X395433Y335274D01*
X395473Y335314D01*
Y335354D01*
X395433D01*
X395393Y335314D01*
X395353Y335354D01*
X395313D01*
Y335314D01*
X395353Y335274D01*
X395313Y335234D01*
Y335194D01*
X394313D02*
X394353D01*
X394393Y335234D01*
X394433Y335194D01*
X394473D01*
Y335234D01*
X394433Y335274D01*
X394473Y335314D01*
Y335354D01*
X394433D01*
X394393Y335314D01*
X394353Y335354D01*
X394313D01*
Y335314D01*
X394353Y335274D01*
X394313Y335234D01*
Y335194D01*
X393313D02*
X393353D01*
X393393Y335234D01*
X393433Y335194D01*
X393473D01*
Y335234D01*
X393433Y335274D01*
X393473Y335314D01*
Y335354D01*
X393433D01*
X393393Y335314D01*
X393353Y335354D01*
X393313D01*
Y335314D01*
X393353Y335274D01*
X393313Y335234D01*
Y335194D01*
X400924Y342194D02*
X400964D01*
X401004Y342234D01*
X401044Y342194D01*
X401084D01*
Y342234D01*
X401044Y342274D01*
X401084Y342314D01*
Y342354D01*
X401044D01*
X401004Y342314D01*
X400964Y342354D01*
X400924D01*
Y342314D01*
X400964Y342274D01*
X400924Y342234D01*
Y342194D01*
X401924D02*
X401964D01*
X402004Y342234D01*
X402044Y342194D01*
X402084D01*
Y342234D01*
X402044Y342274D01*
X402084Y342314D01*
Y342354D01*
X402044D01*
X402004Y342314D01*
X401964Y342354D01*
X401924D01*
Y342314D01*
X401964Y342274D01*
X401924Y342234D01*
Y342194D01*
X402924D02*
X402964D01*
X403004Y342234D01*
X403044Y342194D01*
X403084D01*
Y342234D01*
X403044Y342274D01*
X403084Y342314D01*
Y342354D01*
X403044D01*
X403004Y342314D01*
X402964Y342354D01*
X402924D01*
Y342314D01*
X402964Y342274D01*
X402924Y342234D01*
Y342194D01*
Y335194D02*
X402964D01*
X403004Y335234D01*
X403044Y335194D01*
X403084D01*
Y335234D01*
X403044Y335274D01*
X403084Y335314D01*
Y335354D01*
X403044D01*
X403004Y335314D01*
X402964Y335354D01*
X402924D01*
Y335314D01*
X402964Y335274D01*
X402924Y335234D01*
Y335194D01*
X401924D02*
X401964D01*
X402004Y335234D01*
X402044Y335194D01*
X402084D01*
Y335234D01*
X402044Y335274D01*
X402084Y335314D01*
Y335354D01*
X402044D01*
X402004Y335314D01*
X401964Y335354D01*
X401924D01*
Y335314D01*
X401964Y335274D01*
X401924Y335234D01*
Y335194D01*
X400924D02*
X400964D01*
X401004Y335234D01*
X401044Y335194D01*
X401084D01*
Y335234D01*
X401044Y335274D01*
X401084Y335314D01*
Y335354D01*
X401044D01*
X401004Y335314D01*
X400964Y335354D01*
X400924D01*
Y335314D01*
X400964Y335274D01*
X400924Y335234D01*
Y335194D01*
X408536Y342194D02*
X408576D01*
X408616Y342234D01*
X408656Y342194D01*
X408696D01*
Y342234D01*
X408656Y342274D01*
X408696Y342314D01*
Y342354D01*
X408656D01*
X408616Y342314D01*
X408576Y342354D01*
X408536D01*
Y342314D01*
X408576Y342274D01*
X408536Y342234D01*
Y342194D01*
X409536D02*
X409576D01*
X409616Y342234D01*
X409656Y342194D01*
X409696D01*
Y342234D01*
X409656Y342274D01*
X409696Y342314D01*
Y342354D01*
X409656D01*
X409616Y342314D01*
X409576Y342354D01*
X409536D01*
Y342314D01*
X409576Y342274D01*
X409536Y342234D01*
Y342194D01*
X410536D02*
X410576D01*
X410616Y342234D01*
X410656Y342194D01*
X410696D01*
Y342234D01*
X410656Y342274D01*
X410696Y342314D01*
Y342354D01*
X410656D01*
X410616Y342314D01*
X410576Y342354D01*
X410536D01*
Y342314D01*
X410576Y342274D01*
X410536Y342234D01*
Y342194D01*
Y335194D02*
X410576D01*
X410616Y335234D01*
X410656Y335194D01*
X410696D01*
Y335234D01*
X410656Y335274D01*
X410696Y335314D01*
Y335354D01*
X410656D01*
X410616Y335314D01*
X410576Y335354D01*
X410536D01*
Y335314D01*
X410576Y335274D01*
X410536Y335234D01*
Y335194D01*
X409536D02*
X409576D01*
X409616Y335234D01*
X409656Y335194D01*
X409696D01*
Y335234D01*
X409656Y335274D01*
X409696Y335314D01*
Y335354D01*
X409656D01*
X409616Y335314D01*
X409576Y335354D01*
X409536D01*
Y335314D01*
X409576Y335274D01*
X409536Y335234D01*
Y335194D01*
X408536D02*
X408576D01*
X408616Y335234D01*
X408656Y335194D01*
X408696D01*
Y335234D01*
X408656Y335274D01*
X408696Y335314D01*
Y335354D01*
X408656D01*
X408616Y335314D01*
X408576Y335354D01*
X408536D01*
Y335314D01*
X408576Y335274D01*
X408536Y335234D01*
Y335194D01*
X416148Y342194D02*
X416188D01*
X416228Y342234D01*
X416268Y342194D01*
X416308D01*
Y342234D01*
X416268Y342274D01*
X416308Y342314D01*
Y342354D01*
X416268D01*
X416228Y342314D01*
X416188Y342354D01*
X416148D01*
Y342314D01*
X416188Y342274D01*
X416148Y342234D01*
Y342194D01*
X417148D02*
X417188D01*
X417228Y342234D01*
X417268Y342194D01*
X417308D01*
Y342234D01*
X417268Y342274D01*
X417308Y342314D01*
Y342354D01*
X417268D01*
X417228Y342314D01*
X417188Y342354D01*
X417148D01*
Y342314D01*
X417188Y342274D01*
X417148Y342234D01*
Y342194D01*
X418148D02*
X418188D01*
X418228Y342234D01*
X418268Y342194D01*
X418308D01*
Y342234D01*
X418268Y342274D01*
X418308Y342314D01*
Y342354D01*
X418268D01*
X418228Y342314D01*
X418188Y342354D01*
X418148D01*
Y342314D01*
X418188Y342274D01*
X418148Y342234D01*
Y342194D01*
Y335194D02*
X418188D01*
X418228Y335234D01*
X418268Y335194D01*
X418308D01*
Y335234D01*
X418268Y335274D01*
X418308Y335314D01*
Y335354D01*
X418268D01*
X418228Y335314D01*
X418188Y335354D01*
X418148D01*
Y335314D01*
X418188Y335274D01*
X418148Y335234D01*
Y335194D01*
X417148D02*
X417188D01*
X417228Y335234D01*
X417268Y335194D01*
X417308D01*
Y335234D01*
X417268Y335274D01*
X417308Y335314D01*
Y335354D01*
X417268D01*
X417228Y335314D01*
X417188Y335354D01*
X417148D01*
Y335314D01*
X417188Y335274D01*
X417148Y335234D01*
Y335194D01*
X416148D02*
X416188D01*
X416228Y335234D01*
X416268Y335194D01*
X416308D01*
Y335234D01*
X416268Y335274D01*
X416308Y335314D01*
Y335354D01*
X416268D01*
X416228Y335314D01*
X416188Y335354D01*
X416148D01*
Y335314D01*
X416188Y335274D01*
X416148Y335234D01*
Y335194D01*
X43155Y329638D02*
X43159Y329678D01*
X43163D01*
X43159Y329719D01*
X43163Y329758D01*
X43159D01*
X43155Y329799D01*
X43151Y329758D01*
X43147D01*
X43151Y329719D01*
X43147Y329678D01*
X43151D01*
X43155Y329638D01*
X43355D02*
X43359Y329678D01*
X43363D01*
X43359Y329719D01*
X43363Y329758D01*
X43359D01*
X43355Y329799D01*
X43351Y329758D01*
X43347D01*
X43351Y329719D01*
X43347Y329678D01*
X43351D01*
X43355Y329638D01*
X43555D02*
X43559Y329678D01*
X43563D01*
X43559Y329719D01*
X43563Y329758D01*
X43559D01*
X43555Y329799D01*
X43551Y329758D01*
X43547D01*
X43551Y329719D01*
X43547Y329678D01*
X43551D01*
X43555Y329638D01*
X43755D02*
X43759Y329678D01*
X43763D01*
X43759Y329719D01*
X43763Y329758D01*
X43759D01*
X43755Y329799D01*
X43751Y329758D01*
X43747D01*
X43751Y329719D01*
X43747Y329678D01*
X43751D01*
X43755Y329638D01*
X422495D02*
X422535Y329678D01*
X422575D01*
X422535Y329719D01*
X422575Y329758D01*
X422535D01*
X422495Y329799D01*
X422455Y329758D01*
X422415D01*
X422455Y329719D01*
X422415Y329678D01*
X422455D01*
X422495Y329638D01*
X424495D02*
X424535Y329678D01*
X424575D01*
X424535Y329719D01*
X424575Y329758D01*
X424535D01*
X424495Y329799D01*
X424455Y329758D01*
X424415D01*
X424455Y329719D01*
X424415Y329678D01*
X424455D01*
X424495Y329638D01*
X426495D02*
X426535Y329678D01*
X426575D01*
X426535Y329719D01*
X426575Y329758D01*
X426535D01*
X426495Y329799D01*
X426455Y329758D01*
X426415D01*
X426455Y329719D01*
X426415Y329678D01*
X426455D01*
X426495Y329638D01*
X428495D02*
X428535Y329678D01*
X428575D01*
X428535Y329719D01*
X428575Y329758D01*
X428535D01*
X428495Y329799D01*
X428455Y329758D01*
X428415D01*
X428455Y329719D01*
X428415Y329678D01*
X428455D01*
X428495Y329638D01*
X408667Y357603D02*
Y357763D01*
X408827D01*
Y357603D01*
X408667D01*
Y358603D02*
Y358763D01*
X408827D01*
Y358603D01*
X408667D01*
X409667Y357603D02*
Y357763D01*
X409827D01*
Y357603D01*
X409667D01*
Y358603D02*
Y358763D01*
X409827D01*
Y358603D01*
X409667D01*
X410667Y357603D02*
Y357763D01*
X410827D01*
Y357603D01*
X410667D01*
Y358603D02*
Y358763D01*
X410827D01*
Y358603D01*
X410667D01*
X411667Y357603D02*
Y357763D01*
X411827D01*
Y357603D01*
X411667D01*
Y358603D02*
Y358763D01*
X411827D01*
Y358603D01*
X411667D01*
X432793D02*
Y358763D01*
X432953D01*
Y358603D01*
X432793D01*
Y357603D02*
Y357763D01*
X432953D01*
Y357603D01*
X432793D01*
X431793Y358603D02*
Y358763D01*
X431953D01*
Y358603D01*
X431793D01*
Y357603D02*
Y357763D01*
X431953D01*
Y357603D01*
X431793D01*
X430793Y358603D02*
Y358763D01*
X430953D01*
Y358603D01*
X430793D01*
Y357603D02*
Y357763D01*
X430953D01*
Y357603D01*
X430793D01*
X44077Y357198D02*
X44081Y357278D01*
X44077Y357358D01*
X44085Y357318D01*
X44093Y357358D01*
X44089Y357278D01*
X44093Y357198D01*
X44085Y357238D01*
X44077Y357198D01*
X438919Y345309D02*
X438999Y345389D01*
X439079Y345309D01*
X438999Y345229D01*
X438919Y345309D01*
X438171Y34527D02*
X438251Y34535D01*
X438331Y34527D01*
X438251Y34519D01*
X438171Y34527D01*
X437502D02*
X437582Y34535D01*
X437662Y34527D01*
X437582Y34519D01*
X437502Y34527D01*
X436872Y34523D02*
X436952Y34531D01*
X437032Y34523D01*
X436952Y34515D01*
X436872Y34523D01*
X436833Y353852D02*
X436913Y353932D01*
X436993Y353852D01*
X436913Y353772D01*
X436833Y353852D01*
X437581D02*
X437661Y353932D01*
X437741Y353852D01*
X437661Y353772D01*
X437581Y353852D01*
X438447D02*
X438527Y353932D01*
X438607Y353852D01*
X438527Y353772D01*
X438447Y353852D01*
X439234D02*
X439314Y353932D01*
X439394Y353852D01*
X439314Y353772D01*
X439234Y353852D01*
X424274Y353824D02*
Y353984D01*
X424434D01*
Y353824D01*
X424274D01*
X424314Y353864D02*
Y353944D01*
X424394D01*
Y353864D01*
X424314D01*
X41616Y3464D02*
X41624Y34648D01*
X41632Y3464D01*
X41624Y34632D01*
X41616Y3464D01*
X415179Y345049D02*
X415259Y345129D01*
X415339Y345049D01*
X415259Y344969D01*
X415179Y345049D01*
X41677Y34778D02*
X41685Y34786D01*
X41693Y34778D01*
X41685Y3477D01*
X41677Y34778D01*
X41617Y34797D02*
X41625Y34805D01*
X41633Y34797D01*
X41625Y34789D01*
X41617Y34797D01*
X415573Y348813D02*
X415653Y348893D01*
X415733Y348813D01*
X415653Y348733D01*
X415573Y348813D01*
X4134Y34831D02*
X41348Y34839D01*
X41356Y34831D01*
X41348Y34823D01*
X4134Y34831D01*
X41353Y34865D02*
X41361Y34873D01*
X41369Y34865D01*
X41361Y34857D01*
X41353Y34865D01*
X418105Y351705D02*
Y351865D01*
X418265D01*
Y351705D01*
X418105D01*
X418145Y351745D02*
Y351825D01*
X418225D01*
Y351745D01*
X418145D01*
X413073Y349287D02*
Y349447D01*
X413233D01*
Y349287D01*
X413073D01*
X413113Y349327D02*
Y349407D01*
X413193D01*
Y349327D01*
X413113D01*
X42162Y34738D02*
X4217Y34746D01*
X42178Y34738D01*
X4217Y3473D01*
X42162Y34738D01*
X42189Y34722D02*
X42197Y3473D01*
X42205Y34722D01*
X42197Y34714D01*
X42189Y34722D01*
X422378Y346648D02*
X422458Y346728D01*
X422538Y346648D01*
X422458Y346568D01*
X422378Y346648D01*
X435468D02*
X435548Y346728D01*
X435628Y346648D01*
X435548Y346568D01*
X435468Y346648D01*
X43198Y35195D02*
X43206Y35203D01*
X43214Y35195D01*
X43206Y35187D01*
X43198Y35195D01*
X42216Y34701D02*
X42224Y34709D01*
X42232Y34701D01*
X42224Y34693D01*
X42216Y34701D01*
X43248Y35277D02*
X43256Y35285D01*
X43264Y35277D01*
X43256Y35269D01*
X43248Y35277D01*
X43364Y35672D02*
X43372Y3568D01*
X4338Y35672D01*
X43372Y35664D01*
X43364Y35672D01*
X433193Y355603D02*
Y355763D01*
X433353D01*
Y355603D01*
X433193D01*
X433233Y355643D02*
Y355723D01*
X433313D01*
Y355643D01*
X433233D01*
X41701Y34882D02*
X41709Y3489D01*
X41717Y34882D01*
X41709Y34874D01*
X41701Y34882D01*
X4166Y34822D02*
X41668Y3483D01*
X41676Y34822D01*
X41668Y34814D01*
X4166Y34822D01*
X43778Y3394D02*
X43786Y33948D01*
X43794Y3394D01*
X43786Y33932D01*
X43778Y3394D01*
X416517Y351703D02*
Y351863D01*
X416677D01*
Y351703D01*
X416517D01*
X416557Y351743D02*
Y351823D01*
X416637D01*
Y351743D01*
X416557D01*
X41643Y34666D02*
X41651Y34674D01*
X41659Y34666D01*
X41651Y34658D01*
X41643Y34666D01*
X41307Y34458D02*
Y34474D01*
X41323D01*
Y34458D01*
X41307D01*
X41311Y34462D02*
Y3447D01*
X41319D01*
Y34462D01*
X41311D01*
X415376Y343864D02*
X415456Y343944D01*
X415536Y343864D01*
X415456Y343784D01*
X415376Y343864D01*
X42108Y34445D02*
X42116Y34453D01*
X42124Y34445D01*
X42116Y34437D01*
X42108Y34445D01*
X42115Y34395D02*
X42123Y34403D01*
X42131Y34395D01*
X42123Y34387D01*
X42115Y34395D01*
X421301Y340809D02*
X421381Y340889D01*
X421461Y340809D01*
X421381Y340729D01*
X421301Y340809D01*
X41427Y34028D02*
X41435Y34036D01*
X41443Y34028D01*
X41435Y3402D01*
X41427Y34028D01*
X40603Y34081D02*
X40611Y34089D01*
X40619Y34081D01*
X40611Y34073D01*
X40603Y34081D01*
X420157Y344433D02*
X420237Y344513D01*
X420317Y344433D01*
X420237Y344353D01*
X420157Y344433D01*
X399Y34031D02*
X39908Y34039D01*
X39916Y34031D01*
X39908Y34023D01*
X399Y34031D01*
X41912Y34343D02*
X4192Y34351D01*
X41928Y34343D01*
X4192Y34335D01*
X41912Y34343D01*
X41836Y34344D02*
X41844Y34352D01*
X41852Y34344D01*
X41844Y34336D01*
X41836Y34344D01*
X41756Y34502D02*
X41764Y3451D01*
X41772Y34502D01*
X41764Y34494D01*
X41756Y34502D01*
X42082Y34331D02*
X4209Y34339D01*
X42098Y34331D01*
X4209Y34323D01*
X42082Y34331D01*
X42061Y34295D02*
X42069Y34303D01*
X42077Y34295D01*
X42069Y34287D01*
X42061Y34295D01*
X42285Y34179D02*
X42293Y34187D01*
X42301Y34179D01*
X42293Y34171D01*
X42285Y34179D01*
X424805Y348655D02*
X424885Y348735D01*
X424965Y348655D01*
X424885Y348575D01*
X424805Y348655D01*
X417184Y349404D02*
X417264Y349484D01*
X417344Y349404D01*
X417264Y349324D01*
X417184Y349404D01*
X41696Y35115D02*
X41704Y35123D01*
X41712Y35115D01*
X41704Y35107D01*
X41696Y35115D01*
X43214Y35693D02*
X43222Y35701D01*
X4323Y35693D01*
X43222Y35685D01*
X43214Y35693D01*
X41186Y35635D02*
Y35651D01*
X41202D01*
Y35635D01*
X41186D01*
X4119Y35639D02*
Y35647D01*
X41198D01*
Y35639D01*
X4119D01*
X412503Y355603D02*
Y355763D01*
X412663D01*
Y355603D01*
X412503D01*
X412543Y355643D02*
Y355723D01*
X412623D01*
Y355643D01*
X412543D01*
X40885Y34734D02*
X40893Y34742D01*
X40901Y34734D01*
X40893Y34726D01*
X40885Y34734D01*
X40927Y34681D02*
X40935Y34689D01*
X40943Y34681D01*
X40935Y34673D01*
X40927Y34681D01*
X40928Y34357D02*
X40936Y34365D01*
X40944Y34357D01*
X40936Y34349D01*
X40928Y34357D01*
X40885Y34322D02*
X40893Y3433D01*
X40901Y34322D01*
X40893Y34314D01*
X40885Y34322D01*
X42156Y34795D02*
Y34811D01*
X42172D01*
Y34795D01*
X42156D01*
X4216Y34799D02*
Y34807D01*
X42168D01*
Y34799D01*
X4216D01*
X424037Y351766D02*
X424117Y351846D01*
X424197Y351766D01*
X424117Y351686D01*
X424037Y351766D01*
X424333Y352159D02*
X424413Y352239D01*
X424493Y352159D01*
X424413Y352079D01*
X424333Y352159D01*
Y352652D02*
X424413Y352732D01*
X424493Y352652D01*
X424413Y352572D01*
X424333Y352652D01*
X42512Y35275D02*
X4252Y35283D01*
X42528Y35275D01*
X4252Y35267D01*
X42512Y35275D01*
Y352061D02*
X4252Y352141D01*
X42528Y352061D01*
X4252Y351981D01*
X42512Y352061D01*
X425022Y351372D02*
X425102Y351452D01*
X425182Y351372D01*
X425102Y351292D01*
X425022Y351372D01*
X424136Y351274D02*
X424216Y351354D01*
X424296Y351274D01*
X424216Y351194D01*
X424136Y351274D01*
X423053D02*
X423133Y351354D01*
X423213Y351274D01*
X423133Y351194D01*
X423053Y351274D01*
X421872D02*
X421952Y351354D01*
X422032Y351274D01*
X421952Y351194D01*
X421872Y351274D01*
X421085D02*
X421165Y351354D01*
X421245Y351274D01*
X421165Y351194D01*
X421085Y351274D01*
X419903D02*
X419983Y351354D01*
X420063Y351274D01*
X419983Y351194D01*
X419903Y351274D01*
X4201Y351766D02*
X42018Y351846D01*
X42026Y351766D01*
X42018Y351686D01*
X4201Y351766D01*
X420789D02*
X420869Y351846D01*
X420949Y351766D01*
X420869Y351686D01*
X420789Y351766D01*
X42138D02*
X42146Y351846D01*
X42154Y351766D01*
X42146Y351686D01*
X42138Y351766D01*
X422364D02*
X422444Y351846D01*
X422524Y351766D01*
X422444Y351686D01*
X422364Y351766D01*
X423447D02*
X423527Y351846D01*
X423607Y351766D01*
X423527Y351686D01*
X423447Y351766D01*
X413604Y350388D02*
X413684Y350468D01*
X413764Y350388D01*
X413684Y350308D01*
X413604Y350388D01*
X414293D02*
X414373Y350468D01*
X414453Y350388D01*
X414373Y350308D01*
X414293Y350388D01*
X414884D02*
X414964Y350468D01*
X415044Y350388D01*
X414964Y350308D01*
X414884Y350388D01*
X418624Y349896D02*
X418704Y349976D01*
X418784Y349896D01*
X418704Y349816D01*
X418624Y349896D01*
X419214D02*
X419294Y349976D01*
X419375Y349896D01*
X419294Y349816D01*
X419214Y349896D01*
X419805D02*
X419885Y349976D01*
X419965Y349896D01*
X419885Y349816D01*
X419805Y349896D01*
X418919Y352553D02*
X418999Y352633D01*
X419079Y352553D01*
X418999Y352473D01*
X418919Y352553D01*
X417541Y349797D02*
X417621Y349877D01*
X417701Y349797D01*
X417621Y349717D01*
X417541Y349797D01*
X417738Y349108D02*
X417818Y349188D01*
X417898Y349108D01*
X417818Y349028D01*
X417738Y349108D01*
X418132D02*
X418212Y349188D01*
X418292Y349108D01*
X418212Y349028D01*
X418132Y349108D01*
X417049Y34714D02*
X417129Y34722D01*
X417209Y34714D01*
X417129Y34706D01*
X417049Y34714D01*
X417541D02*
X417621Y34722D01*
X417701Y34714D01*
X417621Y34706D01*
X417541Y34714D01*
X417935D02*
X418015Y34722D01*
X418095Y34714D01*
X418015Y34706D01*
X417935Y34714D01*
X415376D02*
X415456Y34722D01*
X415536Y34714D01*
X415456Y34706D01*
X415376Y34714D01*
X415966D02*
X416046Y34722D01*
X416126Y34714D01*
X416046Y34706D01*
X415966Y34714D01*
X419116Y347435D02*
X419196Y347515D01*
X419276Y347435D01*
X419196Y347355D01*
X419116Y347435D01*
X419608Y34714D02*
X419688Y34722D01*
X419768Y34714D01*
X419688Y34706D01*
X419608Y34714D01*
X422167Y344876D02*
X422247Y344956D01*
X422327Y344876D01*
X422247Y344796D01*
X422167Y344876D01*
X422463Y344581D02*
X422543Y344661D01*
X422623Y344581D01*
X422543Y344501D01*
X422463Y344581D01*
X422856Y344285D02*
X422936Y344365D01*
X423016Y344285D01*
X422936Y344205D01*
X422856Y344285D01*
X424333Y342711D02*
X424413Y342791D01*
X424493Y342711D01*
X424413Y342631D01*
X424333Y342711D01*
X424825Y342317D02*
X424905Y342397D01*
X424985Y342317D01*
X424905Y342237D01*
X424825Y342317D01*
X425218Y341825D02*
X425298Y341905D01*
X425378Y341825D01*
X425298Y341745D01*
X425218Y341825D01*
X422069Y343793D02*
X422149Y343873D01*
X422229Y343793D01*
X422149Y343713D01*
X422069Y343793D01*
X424529Y341333D02*
X424609Y341413D01*
X424689Y341333D01*
X424609Y341253D01*
X424529Y341333D01*
X424903Y340978D02*
X424983Y341058D01*
X425063Y340978D01*
X424983Y340898D01*
X424903Y340978D01*
X425337Y340585D02*
X425417Y340665D01*
X425497Y340585D01*
X425417Y340505D01*
X425337Y340585D01*
X426872Y33901D02*
X426952Y33909D01*
X427032Y33901D01*
X426952Y33893D01*
X426872Y33901D01*
X427226Y338695D02*
X427306Y338775D01*
X427386Y338695D01*
X427306Y338615D01*
X427226Y338695D01*
X427581Y338301D02*
X427661Y338381D01*
X427741Y338301D01*
X427661Y338221D01*
X427581Y338301D01*
X429313Y335978D02*
X429393Y336058D01*
X429473Y335978D01*
X429393Y335898D01*
X429313Y335978D01*
X429785Y335309D02*
X429865Y335389D01*
X429945Y335309D01*
X429865Y335229D01*
X429785Y335309D01*
X429943Y332632D02*
X430023Y332712D01*
X430103Y332632D01*
X430023Y332552D01*
X429943Y332632D01*
Y331884D02*
X430023Y331964D01*
X430103Y331884D01*
X430023Y331804D01*
X429943Y331884D01*
X4301Y331018D02*
X43018Y331098D01*
X43026Y331018D01*
X43018Y330938D01*
X4301Y331018D01*
X42447Y332474D02*
X42455Y332554D01*
X42463Y332474D01*
X42455Y332394D01*
X42447Y332474D01*
Y331884D02*
X42455Y331964D01*
X42463Y331884D01*
X42455Y331804D01*
X42447Y331884D01*
X42451Y331451D02*
X42459Y331531D01*
X42467Y331451D01*
X42459Y331371D01*
X42451Y331451D01*
X43262Y332553D02*
X4327Y332633D01*
X43278Y332553D01*
X4327Y332473D01*
X43262Y332553D01*
X432974Y332081D02*
X433054Y332161D01*
X433134Y332081D01*
X433054Y332001D01*
X432974Y332081D01*
X433132Y331648D02*
X433212Y331728D01*
X433292Y331648D01*
X433212Y331568D01*
X433132Y331648D01*
X433486Y335388D02*
X433566Y335468D01*
X433646Y335388D01*
X433566Y335308D01*
X433486Y335388D01*
X434589Y335348D02*
X434669Y335428D01*
X434748Y335348D01*
X434669Y335268D01*
X434589Y335348D01*
X435179Y335427D02*
X435259Y335507D01*
X435339Y335427D01*
X435259Y335347D01*
X435179Y335427D01*
X436085D02*
X436165Y335507D01*
X436245Y335427D01*
X436165Y335347D01*
X436085Y335427D01*
X436636Y332593D02*
X436716Y332673D01*
X436796Y332593D01*
X436716Y332513D01*
X436636Y332593D01*
X437423D02*
X437503Y332673D01*
X437583Y332593D01*
X437503Y332513D01*
X437423Y332593D01*
X438132Y332553D02*
X438212Y332633D01*
X438292Y332553D01*
X438212Y332473D01*
X438132Y332553D01*
X429825Y338774D02*
X429905Y338854D01*
X429985Y338774D01*
X429905Y338694D01*
X429825Y338774D01*
X430848D02*
X430928Y338854D01*
X431008Y338774D01*
X430928Y338694D01*
X430848Y338774D01*
X431636Y338695D02*
X431716Y338775D01*
X431796Y338695D01*
X431716Y338615D01*
X431636Y338695D01*
X429589Y340506D02*
X429669Y340586D01*
X429748Y340506D01*
X429669Y340426D01*
X429589Y340506D01*
X430022D02*
X430102Y340586D01*
X430182Y340506D01*
X430102Y340426D01*
X430022Y340506D01*
X430691Y340467D02*
X430771Y340547D01*
X430851Y340467D01*
X430771Y340387D01*
X430691Y340467D01*
X426518Y345821D02*
X426598Y345901D01*
X426678Y345821D01*
X426598Y345741D01*
X426518Y345821D01*
X427029Y34586D02*
X427109Y34594D01*
X427189Y34586D01*
X427109Y34578D01*
X427029Y34586D01*
X427502Y345821D02*
X427582Y345901D01*
X427662Y345821D01*
X427582Y345741D01*
X427502Y345821D01*
X420218Y352868D02*
X420298Y352948D01*
X420378Y352868D01*
X420298Y352788D01*
X420218Y352868D01*
X420809Y352907D02*
X420889Y352987D01*
X420969Y352907D01*
X420889Y352827D01*
X420809Y352907D01*
X421636Y352868D02*
X421716Y352948D01*
X421796Y352868D01*
X421716Y352788D01*
X421636Y352868D01*
X420415Y350703D02*
X420495Y350783D01*
X420575Y350703D01*
X420495Y350623D01*
X420415Y350703D01*
X421006Y350742D02*
X421086Y350822D01*
X421166Y350742D01*
X421086Y350662D01*
X421006Y350742D01*
X4214Y350152D02*
X42148Y350232D01*
X42156Y350152D01*
X42148Y350072D01*
X4214Y350152D01*
X422108D02*
X422188Y350232D01*
X422268Y350152D01*
X422188Y350072D01*
X422108Y350152D01*
X425337Y350782D02*
X425417Y350862D01*
X425497Y350782D01*
X425417Y350701D01*
X425337Y350782D01*
X426321Y350388D02*
X426401Y350468D01*
X426481Y350388D01*
X426401Y350308D01*
X426321Y350388D01*
X426675Y351096D02*
X426755Y351176D01*
X426835Y351096D01*
X426755Y351016D01*
X426675Y351096D01*
X426596Y351844D02*
X426676Y351924D01*
X426756Y351844D01*
X426676Y351764D01*
X426596Y351844D01*
X42699Y352907D02*
X42707Y352987D01*
X42715Y352907D01*
X42707Y352827D01*
X42699Y352907D01*
X419077Y35464D02*
X419157Y35472D01*
X419237Y35464D01*
X419157Y35456D01*
X419077Y35464D01*
X42014D02*
X42022Y35472D01*
X4203Y35464D01*
X42022Y35456D01*
X42014Y35464D01*
X420927Y354679D02*
X421007Y354759D01*
X421087Y354679D01*
X421007Y354599D01*
X420927Y354679D01*
X423132Y354797D02*
X423212Y354877D01*
X423292Y354797D01*
X423212Y354717D01*
X423132Y354797D01*
X424195Y354876D02*
X424275Y354956D01*
X424355Y354876D01*
X424275Y354796D01*
X424195Y354876D01*
X424943D02*
X425023Y354956D01*
X425103Y354876D01*
X425023Y354796D01*
X424943Y354876D01*
X42573Y354797D02*
X42581Y354877D01*
X42589Y354797D01*
X42581Y354717D01*
X42573Y354797D01*
X42699Y35464D02*
X42707Y35472D01*
X42715Y35464D01*
X42707Y35456D01*
X42699Y35464D01*
X41514Y357002D02*
X41522Y357082D01*
X4153Y357002D01*
X41522Y356922D01*
X41514Y357002D01*
X416439Y357041D02*
X416519Y357121D01*
X416599Y357041D01*
X416519Y356961D01*
X416439Y357041D01*
X417974Y356963D02*
X418054Y357043D01*
X418134Y356963D01*
X418054Y356883D01*
X417974Y356963D01*
X414825Y355033D02*
X414905Y355113D01*
X414985Y355033D01*
X414905Y354953D01*
X414825Y355033D01*
X415966Y35523D02*
X416046Y35531D01*
X416126Y35523D01*
X416046Y35515D01*
X415966Y35523D01*
X416793D02*
X416873Y35531D01*
X416953Y35523D01*
X416873Y35515D01*
X416793Y35523D01*
X428959Y355073D02*
X429039Y355153D01*
X429119Y355073D01*
X429039Y354993D01*
X428959Y355073D01*
X430455Y355191D02*
X430535Y355271D01*
X430615Y355191D01*
X430535Y355111D01*
X430455Y355191D01*
X431242Y354837D02*
X431322Y354917D01*
X431402Y354837D01*
X431322Y354757D01*
X431242Y354837D01*
X431596Y354482D02*
X431676Y354562D01*
X431756Y354482D01*
X431676Y354402D01*
X431596Y354482D01*
X43384Y357199D02*
X43392Y357279D01*
X434Y357199D01*
X43392Y357119D01*
X43384Y357199D01*
X434116Y357986D02*
X434196Y358066D01*
X434276Y357986D01*
X434196Y357906D01*
X434116Y357986D01*
X428604Y357002D02*
X428684Y357082D01*
X428764Y357002D01*
X428684Y356922D01*
X428604Y357002D01*
X429628Y356963D02*
X429708Y357043D01*
X429788Y356963D01*
X429708Y356883D01*
X429628Y356963D01*
X431006Y351136D02*
X431086Y351216D01*
X431166Y351136D01*
X431086Y351056D01*
X431006Y351136D01*
X430966Y350309D02*
X431046Y350389D01*
X431126Y350309D01*
X431046Y350229D01*
X430966Y350309D01*
Y349128D02*
X431046Y349208D01*
X431126Y349128D01*
X431046Y349048D01*
X430966Y349128D01*
X430652Y34838D02*
X430732Y34846D01*
X430812Y34838D01*
X430732Y3483D01*
X430652Y34838D01*
X432974Y3509D02*
X433054Y35098D01*
X433134Y3509D01*
X433054Y35082D01*
X432974Y3509D01*
X432896Y349364D02*
X432976Y349444D01*
X433056Y349364D01*
X432976Y349284D01*
X432896Y349364D01*
X432935Y348459D02*
X433015Y348539D01*
X433095Y348459D01*
X433015Y348379D01*
X432935Y348459D01*
X430376Y347081D02*
X430456Y347161D01*
X430536Y347081D01*
X430456Y347001D01*
X430376Y347081D01*
X432148Y34712D02*
X432228Y3472D01*
X432308Y34712D01*
X432228Y34704D01*
X432148Y34712D01*
X432659Y347593D02*
X432739Y347673D01*
X432819Y347593D01*
X432739Y347513D01*
X432659Y347593D01*
X433486Y351963D02*
X433566Y352043D01*
X433646Y351963D01*
X433566Y351883D01*
X433486Y351963D01*
X434037Y352789D02*
X434117Y352869D01*
X434197Y352789D01*
X434117Y352709D01*
X434037Y352789D01*
X425848Y343498D02*
X425928Y343578D01*
X426008Y343498D01*
X425928Y343418D01*
X425848Y343498D01*
X426596Y342474D02*
X426676Y342554D01*
X426756Y342474D01*
X426676Y342394D01*
X426596Y342474D01*
X427463Y341805D02*
X427543Y341885D01*
X427623Y341805D01*
X427543Y341725D01*
X427463Y341805D01*
X434785Y341136D02*
X434865Y341216D01*
X434945Y341136D01*
X434865Y341056D01*
X434785Y341136D01*
X435573Y341254D02*
X435653Y341334D01*
X435733Y341254D01*
X435653Y341174D01*
X435573Y341254D01*
X42451Y339679D02*
X42459Y339759D01*
X42467Y339679D01*
X42459Y339599D01*
X42451Y339679D01*
X4251Y339128D02*
X42518Y339208D01*
X42526Y339128D01*
X42518Y339048D01*
X4251Y339128D01*
X425533Y338577D02*
X425613Y338657D01*
X425693Y338577D01*
X425613Y338497D01*
X425533Y338577D01*
X424195Y336687D02*
X424275Y336767D01*
X424355Y336687D01*
X424275Y336607D01*
X424195Y336687D01*
X424352Y335427D02*
X424432Y335507D01*
X424512Y335427D01*
X424432Y335347D01*
X424352Y335427D01*
X424785Y334758D02*
X424865Y334838D01*
X424945Y334758D01*
X424865Y334678D01*
X424785Y334758D01*
X421872Y334364D02*
X421952Y334444D01*
X422032Y334364D01*
X421952Y334284D01*
X421872Y334364D01*
X421281Y332711D02*
X421361Y332791D01*
X421441Y332711D01*
X421361Y332631D01*
X421281Y332711D01*
Y331175D02*
X421361Y331255D01*
X421441Y331175D01*
X421361Y331095D01*
X421281Y331175D01*
X417029Y337593D02*
X417109Y337673D01*
X417189Y337593D01*
X417109Y337513D01*
X417029Y337593D01*
X417856D02*
X417936Y337673D01*
X418016Y337593D01*
X417936Y337513D01*
X417856Y337593D01*
X418604Y337632D02*
X418684Y337712D01*
X418764Y337632D01*
X418684Y337552D01*
X418604Y337632D01*
X417384Y336175D02*
X417464Y336255D01*
X417544Y336175D01*
X417464Y336095D01*
X417384Y336175D01*
X41825D02*
X41833Y336255D01*
X41841Y336175D01*
X41833Y336095D01*
X41825Y336175D01*
X419037Y336018D02*
X419117Y336098D01*
X419197Y336018D01*
X419117Y335938D01*
X419037Y336018D01*
X409077Y337435D02*
X409157Y337515D01*
X409237Y337435D01*
X409157Y337355D01*
X409077Y337435D01*
X409707Y337396D02*
X409787Y337476D01*
X409867Y337396D01*
X409787Y337316D01*
X409707Y337396D01*
X410337Y337474D02*
X410417Y337554D01*
X410497Y337474D01*
X410417Y337394D01*
X410337Y337474D01*
X409982Y336057D02*
X410062Y336137D01*
X410142Y336057D01*
X410062Y335977D01*
X409982Y336057D01*
X410415D02*
X410495Y336137D01*
X410575Y336057D01*
X410495Y335977D01*
X410415Y336057D01*
X409549D02*
X409629Y336137D01*
X409709Y336057D01*
X409629Y335977D01*
X409549Y336057D01*
X402029Y337711D02*
X402109Y337791D01*
X402189Y337711D01*
X402109Y337631D01*
X402029Y337711D01*
X402541D02*
X402621Y337791D01*
X402701Y337711D01*
X402621Y337631D01*
X402541Y337711D01*
X402974D02*
X403054Y337791D01*
X403134Y337711D01*
X403054Y337631D01*
X402974Y337711D01*
X402187Y336136D02*
X402267Y336216D01*
X402347Y336136D01*
X402267Y336056D01*
X402187Y336136D01*
X402659Y336096D02*
X402739Y336176D01*
X402819Y336096D01*
X402739Y336016D01*
X402659Y336096D01*
X403171D02*
X403251Y336176D01*
X403331Y336096D01*
X403251Y336016D01*
X403171Y336096D01*
X406242Y338734D02*
X406322Y338814D01*
X406402Y338734D01*
X406322Y338654D01*
X406242Y338734D01*
Y338301D02*
X406322Y338381D01*
X406402Y338301D01*
X406322Y338221D01*
X406242Y338301D01*
X406321Y33775D02*
X406401Y33783D01*
X406481Y33775D01*
X406401Y33767D01*
X406321Y33775D01*
X413801Y338656D02*
X413881Y338736D01*
X413961Y338656D01*
X413881Y338576D01*
X413801Y338656D01*
Y338222D02*
X413881Y338302D01*
X413961Y338222D01*
X413881Y338142D01*
X413801Y338222D01*
X41384Y337671D02*
X41392Y337751D01*
X414Y337671D01*
X41392Y337591D01*
X41384Y337671D01*
X398801Y338262D02*
X398881Y338342D01*
X398961Y338262D01*
X398881Y338182D01*
X398801Y338262D01*
Y337907D02*
X398881Y337987D01*
X398961Y337907D01*
X398881Y337827D01*
X398801Y337907D01*
Y337514D02*
X398881Y337594D01*
X398961Y337514D01*
X398881Y337434D01*
X398801Y337514D01*
X395888Y3359D02*
X395968Y33598D01*
X396048Y3359D01*
X395968Y33582D01*
X395888Y3359D01*
X396321D02*
X396401Y33598D01*
X396481Y3359D01*
X396401Y33582D01*
X396321Y3359D01*
X396636D02*
X396716Y33598D01*
X396796Y3359D01*
X396716Y33582D01*
X396636Y3359D01*
X394903Y337278D02*
X394983Y337358D01*
X395063Y337278D01*
X394983Y337198D01*
X394903Y337278D01*
X395337D02*
X395417Y337358D01*
X395497Y337278D01*
X395417Y337198D01*
X395337Y337278D01*
X394431D02*
X394511Y337358D01*
X394591Y337278D01*
X394511Y337198D01*
X394431Y337278D01*
X393329Y355348D02*
X393409Y355428D01*
X393489Y355348D01*
X393409Y355268D01*
X393329Y355348D01*
X394155D02*
X394235Y355428D01*
X394315Y355348D01*
X394235Y355268D01*
X394155Y355348D01*
X395179Y355309D02*
X395259Y355389D01*
X395339Y355309D01*
X395259Y355229D01*
X395179Y355309D01*
X395258Y353537D02*
X395338Y353617D01*
X395418Y353537D01*
X395338Y353457D01*
X395258Y353537D01*
X39573Y353498D02*
X39581Y353578D01*
X39589Y353498D01*
X39581Y353418D01*
X39573Y353498D01*
X396163Y353459D02*
X396243Y353539D01*
X396323Y353459D01*
X396243Y353379D01*
X396163Y353459D01*
X398526Y353144D02*
X398605Y353224D01*
X398685Y353144D01*
X398605Y353064D01*
X398526Y353144D01*
Y353813D02*
X398605Y353893D01*
X398685Y353813D01*
X398605Y353733D01*
X398526Y353813D01*
Y354285D02*
X398605Y354365D01*
X398685Y354285D01*
X398605Y354205D01*
X398526Y354285D01*
X400376Y354167D02*
X400456Y354247D01*
X400536Y354167D01*
X400456Y354087D01*
X400376Y354167D01*
X401085Y35397D02*
X401165Y35405D01*
X401245Y35397D01*
X401165Y35389D01*
X401085Y35397D01*
X401321Y353419D02*
X401401Y353499D01*
X401481Y353419D01*
X401401Y353339D01*
X401321Y353419D01*
Y352907D02*
X401401Y352987D01*
X401481Y352907D01*
X401401Y352827D01*
X401321Y352907D01*
X40136Y352396D02*
X40144Y352476D01*
X40152Y352396D01*
X40144Y352316D01*
X40136Y352396D01*
X398289Y351411D02*
X398369Y351491D01*
X398449Y351411D01*
X398369Y351331D01*
X398289Y351411D01*
Y350939D02*
X398369Y351019D01*
X398449Y350939D01*
X398369Y350859D01*
X398289Y350939D01*
X398014Y35023D02*
X398094Y35031D01*
X398174Y35023D01*
X398094Y35015D01*
X398014Y35023D01*
X397738Y349522D02*
X397818Y349602D01*
X397898Y349522D01*
X397818Y349442D01*
X397738Y349522D01*
X398211Y349167D02*
X398291Y349247D01*
X398371Y349167D01*
X398291Y349087D01*
X398211Y349167D01*
X394392Y346805D02*
X394472Y346885D01*
X394552Y346805D01*
X394472Y346725D01*
X394392Y346805D01*
X39451Y34586D02*
X39459Y34594D01*
X39467Y34586D01*
X39459Y34578D01*
X39451Y34586D01*
Y34523D02*
X39459Y34531D01*
X39467Y34523D01*
X39459Y34515D01*
X39451Y34523D01*
X401439Y343183D02*
X401519Y343263D01*
X401599Y343183D01*
X401519Y343103D01*
X401439Y343183D01*
X402108Y343577D02*
X402188Y343657D01*
X402268Y343577D01*
X402188Y343497D01*
X402108Y343577D01*
X403132Y343498D02*
X403212Y343578D01*
X403292Y343498D01*
X403212Y343418D01*
X403132Y343498D01*
X412029Y347081D02*
X412109Y347161D01*
X412189Y347081D01*
X412109Y347001D01*
X412029Y347081D01*
X412069Y346608D02*
X412149Y346688D01*
X412229Y346608D01*
X412149Y346528D01*
X412069Y346608D01*
X412108Y346096D02*
X412188Y346176D01*
X412268Y346096D01*
X412188Y346016D01*
X412108Y346096D01*
X413565Y346608D02*
X413645Y346688D01*
X413725Y346608D01*
X413645Y346528D01*
X413565Y346608D01*
Y346136D02*
X413645Y346216D01*
X413725Y346136D01*
X413645Y346056D01*
X413565Y346136D01*
X41384Y346411D02*
X41392Y346491D01*
X414Y346411D01*
X41392Y346331D01*
X41384Y346411D01*
X413762Y345112D02*
X413842Y345192D01*
X413922Y345112D01*
X413842Y345032D01*
X413762Y345112D01*
X413919Y344128D02*
X413999Y344208D01*
X414079Y344128D01*
X413999Y344048D01*
X413919Y344128D01*
X414431D02*
X414511Y344208D01*
X414591Y344128D01*
X414511Y344048D01*
X414431Y344128D01*
X415218Y346175D02*
X415298Y346255D01*
X415378Y346175D01*
X415298Y346095D01*
X415218Y346175D01*
X415652Y346136D02*
X415732Y346216D01*
X415812Y346136D01*
X415732Y346056D01*
X415652Y346136D01*
X416045Y345939D02*
X416125Y346019D01*
X416205Y345939D01*
X416125Y345859D01*
X416045Y345939D01*
X416714Y34523D02*
X416794Y34531D01*
X416875Y34523D01*
X416794Y34515D01*
X416714Y34523D01*
X418211Y345427D02*
X418291Y345507D01*
X418371Y345427D01*
X418291Y345347D01*
X418211Y345427D01*
X418604Y345388D02*
X418684Y345468D01*
X418764Y345388D01*
X418684Y345308D01*
X418604Y345388D01*
X419077Y345427D02*
X419157Y345507D01*
X419237Y345427D01*
X419157Y345347D01*
X419077Y345427D01*
X425258Y347041D02*
X425338Y347121D01*
X425418Y347041D01*
X425338Y346961D01*
X425258Y347041D01*
X42577D02*
X42585Y347121D01*
X42593Y347041D01*
X42585Y346961D01*
X42577Y347041D01*
X426203D02*
X426283Y347121D01*
X426363Y347041D01*
X426283Y346961D01*
X426203Y347041D01*
X422935Y34712D02*
X423015Y3472D01*
X423095Y34712D01*
X423015Y34704D01*
X422935Y34712D01*
X426085Y348656D02*
X426165Y348736D01*
X426245Y348656D01*
X426165Y348576D01*
X426085Y348656D01*
X426596D02*
X426676Y348736D01*
X426756Y348656D01*
X426676Y348576D01*
X426596Y348656D01*
X427069Y348616D02*
X427149Y348696D01*
X427229Y348616D01*
X427149Y348536D01*
X427069Y348616D01*
X425809Y349404D02*
X425889Y349484D01*
X425969Y349404D01*
X425889Y349324D01*
X425809Y349404D01*
X414549Y352199D02*
X414629Y352279D01*
X414709Y352199D01*
X414629Y352119D01*
X414549Y352199D01*
X41514D02*
X41522Y352279D01*
X4153Y352199D01*
X41522Y352119D01*
X41514Y352199D01*
X417541Y352829D02*
X417621Y352909D01*
X417701Y352829D01*
X417621Y352749D01*
X417541Y352829D01*
X415258Y349797D02*
X415338Y349877D01*
X415418Y349797D01*
X415338Y349717D01*
X415258Y349797D01*
X412108Y349404D02*
X412188Y349484D01*
X412268Y349404D01*
X412188Y349324D01*
X412108Y349404D01*
X412148Y349837D02*
X412228Y349917D01*
X412308Y349837D01*
X412228Y349757D01*
X412148Y349837D01*
X412305Y35027D02*
X412385Y35035D01*
X412465Y35027D01*
X412385Y35019D01*
X412305Y35027D01*
X421911Y338419D02*
X421991Y338499D01*
X422071Y338419D01*
X421991Y338339D01*
X421911Y338419D01*
X422069Y337671D02*
X422149Y337751D01*
X422229Y337671D01*
X422149Y337591D01*
X422069Y337671D01*
X442384Y353852D02*
X442464Y353932D01*
X442544Y353852D01*
X442464Y353772D01*
X442384Y353852D01*
X441583D02*
X441663Y353932D01*
X441743Y353852D01*
X441663Y353772D01*
X441583Y353852D01*
X440783D02*
X440863Y353932D01*
X440943Y353852D01*
X440863Y353772D01*
X440783Y353852D01*
X439982D02*
X440062Y353932D01*
X440142Y353852D01*
X440062Y353772D01*
X439982Y353852D01*
X436439Y353428D02*
X436519Y353508D01*
X436599Y353428D01*
X436519Y353348D01*
X436439Y353428D01*
Y352531D02*
X436519Y352611D01*
X436599Y352531D01*
X436519Y352451D01*
X436439Y352531D01*
Y351635D02*
X436519Y351715D01*
X436599Y351635D01*
X436519Y351555D01*
X436439Y351635D01*
Y350738D02*
X436519Y350818D01*
X436599Y350738D01*
X436519Y350658D01*
X436439Y350738D01*
Y349841D02*
X436519Y349921D01*
X436599Y349841D01*
X436519Y349761D01*
X436439Y349841D01*
Y348944D02*
X436519Y349024D01*
X436599Y348944D01*
X436519Y348864D01*
X436439Y348944D01*
Y348047D02*
X436519Y348127D01*
X436599Y348047D01*
X436519Y347967D01*
X436439Y348047D01*
Y347151D02*
X436519Y347231D01*
X436599Y347151D01*
X436519Y347071D01*
X436439Y347151D01*
Y346254D02*
X436519Y346334D01*
X436599Y346254D01*
X436519Y346174D01*
X436439Y346254D01*
X439667Y345309D02*
X439747Y345389D01*
X439827Y345309D01*
X439747Y345229D01*
X439667Y345309D01*
X44052D02*
X4406Y345389D01*
X44068Y345309D01*
X4406Y345229D01*
X44052Y345309D01*
X441373D02*
X441453Y345389D01*
X441533Y345309D01*
X441453Y345229D01*
X441373Y345309D01*
X442226Y345309D02*
X442306Y345389D01*
X442386Y345309D01*
X442306Y345229D01*
X442226Y345309D01*
Y344502D02*
X442306Y344582D01*
X442386Y344502D01*
X442306Y344422D01*
X442226Y344502D01*
Y343695D02*
X442306Y343775D01*
X442386Y343695D01*
X442306Y343615D01*
X442226Y343695D01*
X442463Y354364D02*
X442543Y354444D01*
X442623Y354364D01*
X442543Y354284D01*
X442463Y354364D01*
Y355427D02*
X442543Y355507D01*
X442623Y355427D01*
X442543Y355347D01*
X442463Y355427D01*
Y35653D02*
X442543Y35661D01*
X442623Y35653D01*
X442543Y35645D01*
X442463Y35653D01*
X442423Y357868D02*
X442503Y357948D01*
X442583Y357868D01*
X442503Y357788D01*
X442423Y357868D01*
X442384Y358734D02*
X442464Y358814D01*
X442544Y358734D01*
X442464Y358654D01*
X442384Y358734D01*
X440133Y330275D02*
Y330435D01*
X440293D01*
Y330275D01*
X440133D01*
X440173Y330315D02*
Y330395D01*
X440253D01*
Y330315D01*
X440173D01*
X44077Y330538D02*
Y330699D01*
X44093D01*
Y330538D01*
X44077D01*
X44081Y330578D02*
Y330658D01*
X44089D01*
Y330578D01*
X44081D01*
X441406Y330275D02*
Y330435D01*
X441566D01*
Y330275D01*
X441406D01*
X441446Y330315D02*
Y330395D01*
X441526D01*
Y330315D01*
X441446D01*
X441406Y329002D02*
Y329162D01*
X441566D01*
Y329002D01*
X441406D01*
X441446Y329042D02*
Y329122D01*
X441526D01*
Y329042D01*
X441446D01*
X44077Y328739D02*
Y328899D01*
X44093D01*
Y328739D01*
X44077D01*
X44081Y328778D02*
Y328858D01*
X44089D01*
Y328778D01*
X44081D01*
X440133Y329002D02*
Y329162D01*
X440293D01*
Y329002D01*
X440133D01*
X440173Y329042D02*
Y329122D01*
X440253D01*
Y329042D01*
X440173D01*
X43987Y329638D02*
Y329799D01*
X44003D01*
Y329638D01*
X43987D01*
X43991Y329678D02*
Y329758D01*
X43999D01*
Y329678D01*
X43991D01*
X44167Y329638D02*
Y329799D01*
X44183D01*
Y329638D01*
X44167D01*
X44171Y329678D02*
Y329758D01*
X44179D01*
Y329678D01*
X44171D01*
X387771Y338149D02*
Y338309D01*
X387931D01*
Y338149D01*
X387771D01*
X387811Y338189D02*
Y338269D01*
X387891D01*
Y338189D01*
X387811D01*
X388407Y338413D02*
Y338573D01*
X388567D01*
Y338413D01*
X388407D01*
X388447Y338453D02*
Y338533D01*
X388527D01*
Y338453D01*
X388447D01*
X389044Y338149D02*
Y338309D01*
X389204D01*
Y338149D01*
X389044D01*
X389084Y338189D02*
Y338269D01*
X389164D01*
Y338189D01*
X389084D01*
X389044Y336876D02*
Y337036D01*
X389204D01*
Y336876D01*
X389044D01*
X389084Y336916D02*
Y336996D01*
X389164D01*
Y336916D01*
X389084D01*
X388407Y336613D02*
Y336773D01*
X388567D01*
Y336613D01*
X388407D01*
X388447Y336653D02*
Y336733D01*
X388527D01*
Y336653D01*
X388447D01*
X387771Y336876D02*
Y337036D01*
X387931D01*
Y336876D01*
X387771D01*
X387811Y336916D02*
Y336996D01*
X387891D01*
Y336916D01*
X387811D01*
X387507Y337513D02*
Y337673D01*
X387667D01*
Y337513D01*
X387507D01*
X387547Y337553D02*
Y337633D01*
X387627D01*
Y337553D01*
X387547D01*
X389307Y337513D02*
Y337673D01*
X389467D01*
Y337513D01*
X389307D01*
X389347Y337553D02*
Y337633D01*
X389427D01*
Y337553D01*
X389347D01*
X389307Y357198D02*
Y357358D01*
X389467D01*
Y357198D01*
X389307D01*
X389347Y357238D02*
Y357318D01*
X389427D01*
Y357238D01*
X389347D01*
X387507Y357198D02*
Y357358D01*
X387667D01*
Y357198D01*
X387507D01*
X387547Y357238D02*
Y357318D01*
X387627D01*
Y357238D01*
X387547D01*
X387771Y356561D02*
Y356721D01*
X387931D01*
Y356561D01*
X387771D01*
X387811Y356601D02*
Y356681D01*
X387891D01*
Y356601D01*
X387811D01*
X388407Y356298D02*
Y356458D01*
X388567D01*
Y356298D01*
X388407D01*
X388447Y356338D02*
Y356418D01*
X388527D01*
Y356338D01*
X388447D01*
X389044Y356561D02*
Y356721D01*
X389204D01*
Y356561D01*
X389044D01*
X389084Y356601D02*
Y356681D01*
X389164D01*
Y356601D01*
X389084D01*
X389044Y357834D02*
Y357994D01*
X389204D01*
Y357834D01*
X389044D01*
X389084Y357874D02*
Y357954D01*
X389164D01*
Y357874D01*
X389084D01*
X388407Y358098D02*
Y358258D01*
X388567D01*
Y358098D01*
X388407D01*
X388447Y358138D02*
Y358218D01*
X388527D01*
Y358138D01*
X388447D01*
X387771Y357834D02*
Y357994D01*
X387931D01*
Y357834D01*
X387771D01*
X387811Y357874D02*
Y357954D01*
X387891D01*
Y357874D01*
X387811D01*
X440133Y357834D02*
Y357994D01*
X440293D01*
Y357834D01*
X440133D01*
X440173Y357874D02*
Y357954D01*
X440253D01*
Y357874D01*
X440173D01*
X44077Y358098D02*
Y358258D01*
X44093D01*
Y358098D01*
X44077D01*
X44081Y358138D02*
Y358218D01*
X44089D01*
Y358138D01*
X44081D01*
X441406Y357834D02*
Y357994D01*
X441566D01*
Y357834D01*
X441406D01*
X441446Y357874D02*
Y357954D01*
X441526D01*
Y357874D01*
X441446D01*
X441406Y356561D02*
Y356721D01*
X441566D01*
Y356561D01*
X441406D01*
X441446Y356601D02*
Y356681D01*
X441526D01*
Y356601D01*
X441446D01*
X44077Y356298D02*
Y356458D01*
X44093D01*
Y356298D01*
X44077D01*
X44081Y356338D02*
Y356418D01*
X44089D01*
Y356338D01*
X44081D01*
X440133Y356561D02*
Y356721D01*
X440293D01*
Y356561D01*
X440133D01*
X440173Y356601D02*
Y356681D01*
X440253D01*
Y356601D01*
X440173D01*
X43987Y357198D02*
Y357358D01*
X44003D01*
Y357198D01*
X43987D01*
X43991Y357238D02*
Y357318D01*
X43999D01*
Y357238D01*
X43991D01*
X44167Y357198D02*
Y357358D01*
X44183D01*
Y357198D01*
X44167D01*
X44171Y357238D02*
Y357318D01*
X44179D01*
Y357238D01*
X44171D01*
X399392Y35215D02*
X399472Y35223D01*
X399552Y35215D01*
X399472Y35207D01*
X399392Y35215D01*
Y351854D02*
X399472Y351934D01*
X399552Y351854D01*
X399472Y351774D01*
X399392Y351854D01*
X399697D02*
X399777Y351934D01*
X399857Y351854D01*
X399777Y351774D01*
X399697Y351854D01*
Y35215D02*
X399777Y35223D01*
X399857Y35215D01*
X399777Y35207D01*
X399697Y35215D01*
D113*
X403315Y3329D02*
G03*
X403315Y3329I-00008J0D01*
G01*
X402315D02*
G03*
X402315Y3329I-00008J0D01*
G01*
X395441D02*
G03*
X395441Y3329I-00008J0D01*
G01*
X394441D02*
G03*
X394441Y3329I-00008J0D01*
G01*
X410796D02*
G03*
X410796Y3329I-00008J0D01*
G01*
X409796D02*
G03*
X409796Y3329I-00008J0D01*
G01*
X418276D02*
G03*
X418276Y3329I-00008J0D01*
G01*
X417276D02*
G03*
X417276Y3329I-00008J0D01*
G01*
X425969Y357671D02*
G03*
X425969Y357671I-00008J0D01*
G01*
X422819D02*
G03*
X422819Y357671I-00008J0D01*
G01*
M02*
