G04 Layer_Color=16711935*
%FSTAX24Y24*%
%MOIN*%
G70*
G01*
G75*
%ADD73R,0.0336X0.0415*%
%ADD74R,0.0415X0.0336*%
%ADD77R,0.0281X0.0297*%
%ADD79R,0.0297X0.0281*%
%ADD81C,0.1200*%
%ADD95C,0.0671*%
%ADD96R,0.0671X0.0671*%
%ADD97O,0.0780X0.0880*%
%ADD98C,0.1458*%
%ADD99R,0.1655X0.1261*%
%ADD100O,0.1655X0.1261*%
%ADD101C,0.2442*%
%ADD102O,0.1280X0.1180*%
%ADD103O,0.1180X0.1280*%
%ADD104C,0.0780*%
%ADD105R,0.1261X0.1655*%
%ADD106O,0.1261X0.1655*%
%ADD107C,0.0474*%
D73*
X415948Y345545D02*
D03*
X415279D02*
D03*
D74*
X417109Y346178D02*
D03*
Y345508D02*
D03*
X416519Y346178D02*
D03*
Y345508D02*
D03*
X416637Y348833D02*
D03*
Y349502D02*
D03*
X416046Y348833D02*
D03*
Y349502D02*
D03*
D77*
X41998Y345407D02*
D03*
Y345053D02*
D03*
D79*
X423973Y35429D02*
D03*
X424327D02*
D03*
X416843Y34503D02*
D03*
X417197D02*
D03*
D81*
X389472Y335033D02*
D03*
X437503Y357671D02*
D03*
X393605D02*
D03*
D95*
X431417Y343892D02*
D03*
X430417D02*
D03*
X408747Y358683D02*
D03*
X409747Y357683D02*
D03*
Y358683D02*
D03*
X410747Y357683D02*
D03*
Y358683D02*
D03*
X411747Y357683D02*
D03*
Y358683D02*
D03*
X432873Y357683D02*
D03*
X431873Y358683D02*
D03*
Y357683D02*
D03*
X430873Y358683D02*
D03*
Y357683D02*
D03*
D96*
X429417Y343892D02*
D03*
X408747Y357683D02*
D03*
X432873Y358683D02*
D03*
D97*
X403235Y3329D02*
D03*
X402235D02*
D03*
X395361D02*
D03*
X394361D02*
D03*
X410716D02*
D03*
X409716D02*
D03*
X418196D02*
D03*
X417196D02*
D03*
D98*
X404235Y3309D02*
D03*
X400235D02*
D03*
X396361D02*
D03*
X392361D02*
D03*
X411716D02*
D03*
X407716D02*
D03*
X419196D02*
D03*
X415196D02*
D03*
D99*
X440456Y333986D02*
D03*
D100*
Y335986D02*
D03*
Y337986D02*
D03*
Y339986D02*
D03*
Y341986D02*
D03*
D101*
X44085Y329719D02*
D03*
X388487Y337593D02*
D03*
Y357278D02*
D03*
X44085D02*
D03*
D102*
X390692Y35412D02*
D03*
Y35212D02*
D03*
D103*
X387668Y332081D02*
D03*
X389669D02*
D03*
D104*
X393393Y342274D02*
D03*
X394393D02*
D03*
X395393D02*
D03*
Y335274D02*
D03*
X394393D02*
D03*
X393393D02*
D03*
X401004Y342274D02*
D03*
X402004D02*
D03*
X403004D02*
D03*
Y335274D02*
D03*
X402004D02*
D03*
X401004D02*
D03*
X408616Y342274D02*
D03*
X409616D02*
D03*
X410616D02*
D03*
Y335274D02*
D03*
X409616D02*
D03*
X408616D02*
D03*
X416228Y342274D02*
D03*
X417228D02*
D03*
X418228D02*
D03*
Y335274D02*
D03*
X417228D02*
D03*
X416228D02*
D03*
D105*
X43155Y329719D02*
D03*
X422495D02*
D03*
D106*
X43355D02*
D03*
X43555D02*
D03*
X43755D02*
D03*
X424495D02*
D03*
X426495D02*
D03*
X428495D02*
D03*
D107*
X425889Y357671D02*
D03*
X422739D02*
D03*
M02*
