G04 Layer_Color=255*
%FSTAX24Y24*%
%MOIN*%
G70*
G01*
G75*
%ADD14R,0.0256X0.0335*%
%ADD15R,0.0335X0.0256*%
%ADD18R,0.0201X0.0217*%
%ADD20R,0.0217X0.0201*%
%ADD22C,0.0400*%
%ADD42C,0.0591*%
%ADD43R,0.0591X0.0591*%
%ADD44O,0.0700X0.0800*%
%ADD45C,0.1378*%
%ADD46R,0.1575X0.1181*%
%ADD47O,0.1575X0.1181*%
%ADD48C,0.2362*%
%ADD49O,0.1200X0.1100*%
%ADD50O,0.1100X0.1200*%
%ADD51C,0.0700*%
%ADD52R,0.1181X0.1575*%
%ADD53O,0.1181X0.1575*%
%ADD54C,0.0394*%
D14*
X415948Y345545D02*
D03*
X415279D02*
D03*
D15*
X417109Y346178D02*
D03*
Y345508D02*
D03*
X416519Y346178D02*
D03*
Y345508D02*
D03*
X416637Y348833D02*
D03*
Y349502D02*
D03*
X416046Y348833D02*
D03*
Y349502D02*
D03*
D18*
X41998Y345407D02*
D03*
Y345053D02*
D03*
D20*
X423973Y35429D02*
D03*
X424327D02*
D03*
X416843Y34503D02*
D03*
X417197D02*
D03*
D22*
X389472Y335033D02*
D03*
X437503Y357671D02*
D03*
X393605D02*
D03*
D42*
X431417Y343892D02*
D03*
X430417D02*
D03*
X408747Y358683D02*
D03*
X409747Y357683D02*
D03*
Y358683D02*
D03*
X410747Y357683D02*
D03*
Y358683D02*
D03*
X411747Y357683D02*
D03*
Y358683D02*
D03*
X432873Y357683D02*
D03*
X431873Y358683D02*
D03*
Y357683D02*
D03*
X430873Y358683D02*
D03*
Y357683D02*
D03*
D43*
X429417Y343892D02*
D03*
X408747Y357683D02*
D03*
X432873Y358683D02*
D03*
D44*
X403235Y3329D02*
D03*
X402235D02*
D03*
X395361D02*
D03*
X394361D02*
D03*
X410716D02*
D03*
X409716D02*
D03*
X418196D02*
D03*
X417196D02*
D03*
D45*
X404235Y3309D02*
D03*
X400235D02*
D03*
X396361D02*
D03*
X392361D02*
D03*
X411716D02*
D03*
X407716D02*
D03*
X419196D02*
D03*
X415196D02*
D03*
D46*
X440456Y333986D02*
D03*
D47*
Y335986D02*
D03*
Y337986D02*
D03*
Y339986D02*
D03*
Y341986D02*
D03*
D48*
X44085Y329719D02*
D03*
X388487Y337593D02*
D03*
Y357278D02*
D03*
X44085D02*
D03*
D49*
X390692Y35412D02*
D03*
Y35212D02*
D03*
D50*
X387668Y332081D02*
D03*
X389669D02*
D03*
D51*
X393393Y342274D02*
D03*
X394393D02*
D03*
X395393D02*
D03*
Y335274D02*
D03*
X394393D02*
D03*
X393393D02*
D03*
X401004Y342274D02*
D03*
X402004D02*
D03*
X403004D02*
D03*
Y335274D02*
D03*
X402004D02*
D03*
X401004D02*
D03*
X408616Y342274D02*
D03*
X409616D02*
D03*
X410616D02*
D03*
Y335274D02*
D03*
X409616D02*
D03*
X408616D02*
D03*
X416228Y342274D02*
D03*
X417228D02*
D03*
X418228D02*
D03*
Y335274D02*
D03*
X417228D02*
D03*
X416228D02*
D03*
D52*
X43155Y329719D02*
D03*
X422495D02*
D03*
D53*
X43355D02*
D03*
X43555D02*
D03*
X43755D02*
D03*
X424495D02*
D03*
X426495D02*
D03*
X428495D02*
D03*
D54*
X425889Y357671D02*
D03*
X422739D02*
D03*
M02*
