G04 Layer_Physical_Order=3*
G04 Layer_Color=16440176*
%FSTAX24Y24*%
%MOIN*%
G70*
G01*
G75*
%ADD21R,0.0591X0.0591*%
%ADD51C,0.0200*%
%ADD53C,0.0300*%
%ADD58C,0.0866*%
%ADD59C,0.0650*%
%ADD61C,0.0591*%
%ADD62R,0.0591X0.0591*%
%ADD63C,0.1100*%
%ADD65C,0.0236*%
%ADD66C,0.0260*%
G36*
X428328Y384902D02*
X428332Y384844D01*
X428336Y384819D01*
X42834Y384802D01*
X428367D01*
X428457Y384712D01*
X428447Y384702D01*
Y384091D01*
X428447Y384091D01*
X428447Y384022D01*
X428447Y384022D01*
D01*
D01*
X427977Y383552D01*
X423087Y383552D01*
X423087Y376492D01*
X430377Y376492D01*
X432377Y374492D01*
X432377Y374137D01*
X432342Y374102D01*
X432177D01*
X43214Y374126D01*
X432047Y374145D01*
X431954Y374126D01*
X431918Y374102D01*
X431347Y374102D01*
X430787Y374662D01*
X424767Y374662D01*
X424707Y374602D01*
Y369132D01*
X432378D01*
X432406Y36909D01*
X432484Y369038D01*
X432577Y369019D01*
X43267Y369038D01*
X432749Y36909D01*
X432777Y369132D01*
X432971D01*
X432977Y371792D01*
X433487D01*
X433857Y371422D01*
Y369541D01*
X433833Y369505D01*
X433815Y369412D01*
X433833Y369319D01*
X433857Y369283D01*
Y368914D01*
X433807Y368888D01*
X43375Y368926D01*
X43366Y368944D01*
X433657Y368945D01*
X433621Y368989D01*
X43363Y369032D01*
X433612Y369125D01*
X433559Y369204D01*
X43348Y369256D01*
X433387Y369275D01*
X433294Y369256D01*
X433216Y369204D01*
X433163Y369125D01*
X433154Y369082D01*
X433147Y369045D01*
X433145Y369032D01*
X433163Y368939D01*
X433216Y36886D01*
X433294Y368808D01*
X433385Y36879D01*
X433387Y368789D01*
X433423Y368745D01*
X433415Y368702D01*
X433433Y368609D01*
X433486Y36853D01*
X433564Y368478D01*
X433657Y368459D01*
X43375Y368478D01*
X433807Y368516D01*
X433857Y36849D01*
Y367812D01*
X433277Y367232D01*
Y366822D01*
X43327Y366805D01*
Y366805D01*
X433267Y36679D01*
Y366778D01*
X433265Y366766D01*
X433265Y366585D01*
X433268Y366569D01*
X433269Y366553D01*
X433234Y366536D01*
X433156Y366484D01*
X433103Y366405D01*
X433085Y366312D01*
X433103Y366219D01*
X433156Y36614D01*
X433234Y366088D01*
X433277Y366079D01*
Y365965D01*
X433234Y365956D01*
X433156Y365904D01*
X433103Y365825D01*
X433085Y365732D01*
X433103Y365639D01*
X433156Y36556D01*
X433234Y365508D01*
X433269Y365491D01*
X433268Y365475D01*
X433265Y365459D01*
X433265Y365174D01*
X433265Y365172D01*
X433265Y36517D01*
X433265Y364804D01*
X433265Y364802D01*
X433265Y3648D01*
X433265Y364493D01*
X433267Y364482D01*
Y36447D01*
X43327Y364455D01*
X433277Y364438D01*
Y364262D01*
X433277Y361922D01*
X434037Y361162D01*
X434037Y360101D01*
X434033Y360095D01*
X434015Y360002D01*
X434033Y359909D01*
X434037Y359903D01*
X434037Y359781D01*
X434033Y359775D01*
X434015Y359682D01*
X434033Y359589D01*
X434037Y359583D01*
X434037Y359425D01*
X433143D01*
X433108Y359461D01*
X433116Y360773D01*
X432377Y361512D01*
Y361793D01*
X432422Y361859D01*
X43244Y361952D01*
X432422Y362045D01*
X432379Y362108D01*
X432384Y36216D01*
X432389Y362163D01*
X432442Y362242D01*
X43246Y362334D01*
X432442Y362427D01*
X432397Y362494D01*
X432389Y362545D01*
X432442Y362624D01*
X43246Y362717D01*
X432442Y36281D01*
X432397Y362877D01*
X432392Y362908D01*
X432397Y36294D01*
X432442Y363007D01*
X43246Y363099D01*
X432442Y363192D01*
X432389Y363271D01*
X432397Y363322D01*
X432442Y363389D01*
X43246Y363482D01*
X432442Y363575D01*
X432389Y363654D01*
X432377Y363661D01*
X432377Y363812D01*
X431917D01*
Y365172D01*
X432377D01*
X432377Y365415D01*
X432379Y365422D01*
Y365432D01*
X432379Y365435D01*
Y365443D01*
X432384Y36545D01*
X432386Y365453D01*
X43239Y365459D01*
X432398Y365473D01*
X432406Y365487D01*
X43242Y36552D01*
X43242Y36552D01*
X43243Y365567D01*
Y365657D01*
X43243Y365657D01*
X43242Y365704D01*
X432406Y365737D01*
X432398Y365751D01*
X43239Y365765D01*
X432386Y365771D01*
X432384Y365774D01*
X432379Y365781D01*
Y365788D01*
X432379Y365792D01*
Y365798D01*
X432379Y365801D01*
Y365809D01*
X432384Y365816D01*
X432386Y365819D01*
X43239Y365825D01*
X432398Y365839D01*
X432406Y365853D01*
X43242Y365886D01*
X43242Y365886D01*
X43243Y365933D01*
Y366023D01*
X43243Y366023D01*
X43242Y36607D01*
X432406Y366103D01*
X432398Y366117D01*
X43239Y366131D01*
X432386Y366137D01*
X432384Y36614D01*
X432379Y366147D01*
Y366154D01*
X432379Y366158D01*
Y366164D01*
X432379Y366167D01*
Y366175D01*
X432384Y366182D01*
X432386Y366185D01*
X43239Y366191D01*
X432398Y366205D01*
X432406Y366219D01*
X43242Y366252D01*
X43242Y366252D01*
X43243Y366299D01*
Y366389D01*
X43243Y366389D01*
X43242Y366436D01*
X432406Y366469D01*
X432398Y366483D01*
X43239Y366497D01*
X432386Y366503D01*
X432384Y366506D01*
X432379Y366513D01*
Y366521D01*
X432379Y366524D01*
Y36653D01*
X432379Y366533D01*
Y366541D01*
X432384Y366548D01*
X432386Y366551D01*
X43239Y366557D01*
X432398Y366571D01*
X432406Y366585D01*
X43242Y366618D01*
X43242Y366618D01*
X43243Y366665D01*
Y366755D01*
X43243Y366755D01*
X43242Y366802D01*
X432406Y366835D01*
X432398Y366849D01*
X43239Y366863D01*
X432386Y366869D01*
X432384Y366872D01*
X432379Y366879D01*
Y366886D01*
X432379Y36689D01*
Y366892D01*
X432379Y366895D01*
Y366903D01*
X432384Y36691D01*
X432386Y366913D01*
X43239Y366919D01*
X432398Y366933D01*
X432406Y366947D01*
X43242Y36698D01*
X43242Y36698D01*
X43243Y367027D01*
Y367117D01*
X43243Y367117D01*
X43242Y367164D01*
X432406Y367197D01*
X432398Y367211D01*
X43239Y367225D01*
X432386Y367231D01*
X432384Y367234D01*
X432379Y367241D01*
Y367248D01*
X432379Y367252D01*
Y367642D01*
X432377Y367649D01*
Y367812D01*
X432077D01*
X43205Y367862D01*
X432082Y367909D01*
X4321Y368002D01*
X432097Y368018D01*
X432144Y368038D01*
X432156Y36802D01*
X432234Y367968D01*
X432327Y367949D01*
X432377Y367959D01*
D01*
X43242Y367968D01*
X432499Y36802D01*
X432552Y368099D01*
X43257Y368192D01*
X432552Y368285D01*
X432499Y368364D01*
X43242Y368416D01*
X432377Y368425D01*
X432327Y368435D01*
X432234Y368416D01*
X432156Y368364D01*
X432103Y368285D01*
X432085Y368192D01*
X432088Y368176D01*
X432041Y368156D01*
X432029Y368174D01*
X43195Y368226D01*
X431857Y368245D01*
X431764Y368226D01*
X431686Y368174D01*
X431633Y368095D01*
X431615Y368002D01*
X431633Y367909D01*
X431665Y367862D01*
X431638Y367812D01*
X431086D01*
X431048Y367862D01*
X43106Y367922D01*
X431042Y368015D01*
X430989Y368094D01*
X43091Y368146D01*
X430817Y368165D01*
X430724Y368146D01*
X430646Y368094D01*
X430643Y36809D01*
X430593D01*
X430576Y368117D01*
X430497Y368169D01*
X430404Y368188D01*
X430311Y368169D01*
X430233Y368117D01*
X43018Y368038D01*
X430161Y367945D01*
X430178Y367862D01*
X430151Y367812D01*
X429837D01*
X429813Y367856D01*
X429822Y367869D01*
X42984Y367962D01*
X429822Y368055D01*
X429769Y368134D01*
X42969Y368186D01*
X429597Y368205D01*
X429504Y368186D01*
X429426Y368134D01*
X429395Y368114D01*
X429379D01*
X4293Y368166D01*
X429207Y368185D01*
X429114Y368166D01*
X429036Y368114D01*
X429034Y368111D01*
X428967Y368101D01*
X42892Y368133D01*
X428827Y368151D01*
X428734Y368133D01*
X428656Y36808D01*
X428603Y368001D01*
X428585Y367908D01*
X428594Y367862D01*
X428553Y367812D01*
X428087D01*
X427957Y367682D01*
Y367665D01*
X427951Y367655D01*
X427947Y367645D01*
X427944Y367634D01*
X42794Y367622D01*
X427937Y36761D01*
Y367598D01*
X427935Y367587D01*
Y367139D01*
X427935Y367139D01*
Y367127D01*
X427937Y367115D01*
X427937Y367103D01*
X42794Y367092D01*
Y367092D01*
X427942Y36708D01*
X427947Y367069D01*
X427947Y367069D01*
X427947Y367069D01*
X427949Y367057D01*
X427953Y367048D01*
X427957Y367025D01*
Y366959D01*
X427953Y366936D01*
X427949Y366927D01*
X427947Y366915D01*
X427942Y366904D01*
X427937Y366881D01*
Y366869D01*
X427935Y366857D01*
Y366559D01*
X427935Y366559D01*
Y366547D01*
X427937Y366535D01*
X427937Y366523D01*
X42794Y366512D01*
Y366511D01*
X427942Y3665D01*
X427947Y366489D01*
X427947Y366489D01*
X427947Y366489D01*
X427949Y366477D01*
X427953Y366468D01*
X427957Y366445D01*
Y366379D01*
X427953Y366356D01*
X427949Y366347D01*
X427947Y366335D01*
X427942Y366324D01*
X427937Y366301D01*
Y366289D01*
X427935Y366277D01*
Y366022D01*
X427327D01*
Y367696D01*
X427327Y367712D01*
X427337Y367722D01*
X427317Y367742D01*
X42729Y367742D01*
X427197D01*
X427182Y367792D01*
X427239Y36783D01*
X427292Y367909D01*
X42731Y368002D01*
X427292Y368095D01*
X427239Y368174D01*
X42716Y368226D01*
X427067Y368245D01*
X426974Y368226D01*
X426896Y368174D01*
X426843Y368095D01*
X426825Y368002D01*
X426843Y367909D01*
X426896Y36783D01*
X426953Y367792D01*
X426938Y367742D01*
X422117Y367742D01*
Y369292D01*
X418497D01*
X418307Y369482D01*
Y370922D01*
X418387Y371002D01*
X422117D01*
Y373893D01*
X422117Y376457D01*
X422117Y376457D01*
Y380352D01*
X418307D01*
X417907Y380752D01*
Y381242D01*
X418256Y381242D01*
X418297Y3812D01*
X418297Y380882D01*
X418397Y380782D01*
X418487Y380692D01*
X422117Y380692D01*
Y383552D01*
X418247Y383552D01*
X417104Y384696D01*
X417123Y384742D01*
X417727Y384742D01*
X418447Y384022D01*
X427697Y384022D01*
X427826Y384151D01*
X427856Y38418D01*
X427867Y384192D01*
Y384732D01*
X427937Y384802D01*
X428015D01*
X428018Y384819D01*
X428022Y384844D01*
X428025Y384872D01*
X428027Y384933D01*
X428327D01*
X428328Y384902D01*
D02*
G37*
G36*
X432209Y367642D02*
X432256Y367642D01*
Y367252D01*
X432257Y367248D01*
Y367241D01*
X432259Y367233D01*
Y367229D01*
X432259Y367225D01*
X43226Y367222D01*
X432261Y367209D01*
X432265Y367202D01*
X432266Y367194D01*
X432274Y367183D01*
X432275Y36718D01*
X432276Y367177D01*
X432279Y367173D01*
X432282Y367166D01*
X432284Y367164D01*
X432288Y367157D01*
X432293Y36715D01*
X432296Y367143D01*
X432298Y367139D01*
X432303Y367128D01*
X432307Y367105D01*
Y367039D01*
X432303Y367016D01*
X432298Y367005D01*
X432296Y367001D01*
X432293Y366994D01*
X432288Y366987D01*
X432284Y36698D01*
X432282Y366978D01*
X432279Y366971D01*
X432276Y366967D01*
X432275Y366964D01*
X432274Y366961D01*
X432266Y36695D01*
X432265Y366942D01*
X432261Y366935D01*
X43226Y366922D01*
X432259Y366919D01*
X432259Y366915D01*
Y366911D01*
X432257Y366903D01*
Y366895D01*
X432256Y366892D01*
Y36689D01*
X432257Y366886D01*
Y366879D01*
X432259Y366871D01*
Y366866D01*
X432259Y366863D01*
X43226Y36686D01*
X432261Y366847D01*
X432265Y36684D01*
X432266Y366832D01*
X432274Y366821D01*
X432275Y366818D01*
X432276Y366815D01*
X432279Y366811D01*
X432282Y366804D01*
X432284Y366802D01*
X432288Y366795D01*
X432293Y366788D01*
X432296Y366781D01*
X432298Y366777D01*
X432303Y366766D01*
X432307Y366743D01*
Y366677D01*
X432303Y366654D01*
X432298Y366643D01*
X432296Y366639D01*
X432293Y366632D01*
X432288Y366625D01*
X432284Y366618D01*
X432282Y366616D01*
X432279Y366609D01*
X432276Y366605D01*
X432275Y366602D01*
X432274Y366599D01*
X432266Y366588D01*
X432265Y36658D01*
X432261Y366573D01*
X43226Y36656D01*
X432259Y366557D01*
X432259Y366553D01*
Y366549D01*
X432257Y366541D01*
Y366533D01*
X432256Y36653D01*
Y366524D01*
X432257Y366521D01*
Y366513D01*
X432259Y366505D01*
Y366501D01*
X432259Y366497D01*
X43226Y366494D01*
X432261Y366481D01*
X432265Y366474D01*
X432266Y366466D01*
X432274Y366455D01*
X432275Y366452D01*
X432276Y366449D01*
X432279Y366445D01*
X432282Y366438D01*
X432284Y366436D01*
X432288Y366429D01*
X432293Y366422D01*
X432296Y366415D01*
X432298Y366411D01*
X432303Y3664D01*
X432307Y366377D01*
Y366311D01*
X432303Y366288D01*
X432298Y366277D01*
X432296Y366273D01*
X432293Y366266D01*
X432288Y366259D01*
X432284Y366252D01*
X432282Y36625D01*
X432279Y366243D01*
X432276Y366239D01*
X432275Y366236D01*
X432274Y366233D01*
X432266Y366222D01*
X432265Y366214D01*
X432261Y366207D01*
X43226Y366194D01*
X432259Y366191D01*
X432259Y366187D01*
Y366183D01*
X432257Y366175D01*
Y366167D01*
X432256Y366164D01*
Y366158D01*
X432257Y366154D01*
Y366147D01*
X432259Y366139D01*
Y366134D01*
X432259Y366131D01*
X43226Y366128D01*
X432261Y366115D01*
X432265Y366108D01*
X432266Y3661D01*
X432274Y366089D01*
X432275Y366086D01*
X432276Y366083D01*
X432279Y366079D01*
X432282Y366072D01*
X432284Y36607D01*
X432288Y366063D01*
X432293Y366056D01*
X432296Y366049D01*
X432298Y366045D01*
X432303Y366034D01*
X432307Y366011D01*
Y365945D01*
X432303Y365922D01*
X432298Y365911D01*
X432296Y365907D01*
X432293Y3659D01*
X432288Y365893D01*
X432284Y365886D01*
X432282Y365884D01*
X432279Y365877D01*
X432276Y365873D01*
X432275Y36587D01*
X432274Y365867D01*
X432266Y365856D01*
X432265Y365848D01*
X432261Y365841D01*
X43226Y365828D01*
X432259Y365825D01*
X432259Y365821D01*
Y365817D01*
X432257Y365809D01*
Y365801D01*
X432256Y365798D01*
Y365792D01*
X432257Y365788D01*
Y365781D01*
X432259Y365773D01*
Y365769D01*
X432259Y365765D01*
X43226Y365762D01*
X432261Y365749D01*
X432265Y365742D01*
X432266Y365734D01*
X432274Y365723D01*
X432275Y36572D01*
X432276Y365717D01*
X432279Y365713D01*
X432282Y365706D01*
X432284Y365704D01*
X432288Y365697D01*
X432293Y36569D01*
X432296Y365683D01*
X432298Y365679D01*
X432303Y365668D01*
X432307Y365645D01*
Y365579D01*
X432303Y365556D01*
X432298Y365545D01*
X432296Y365541D01*
X432293Y365534D01*
X432288Y365527D01*
X432284Y36552D01*
X432282Y365518D01*
X432279Y365511D01*
X432276Y365507D01*
X432275Y365504D01*
X432274Y365501D01*
X432266Y36549D01*
X432265Y365482D01*
X432261Y365475D01*
X43226Y365462D01*
X432259Y365459D01*
X432259Y365455D01*
Y365451D01*
X432257Y365443D01*
Y365435D01*
X432256Y365432D01*
Y365422D01*
X432255Y365415D01*
Y365294D01*
X431917D01*
X43187Y365285D01*
X431831Y365258D01*
X431804Y365219D01*
X431795Y365172D01*
Y364122D01*
X429402Y364122D01*
X42935Y364156D01*
X429257Y364175D01*
X429164Y364156D01*
X429113Y364122D01*
X429107D01*
Y364118D01*
X429086Y364104D01*
X429033Y364025D01*
X429015Y363932D01*
X429033Y363839D01*
X429086Y36376D01*
X429107Y363746D01*
Y363628D01*
X429086Y363614D01*
X429033Y363535D01*
X429015Y363442D01*
X429033Y363349D01*
X429086Y36327D01*
X429107Y363256D01*
X429107Y363118D01*
X429086Y363104D01*
X429033Y363025D01*
X429021Y362962D01*
X424367D01*
Y364122D01*
X428057Y364122D01*
Y366277D01*
X428062Y3663D01*
X428067Y366311D01*
X428069Y366323D01*
X428073Y366332D01*
X428077Y366355D01*
Y366367D01*
X42808Y366379D01*
Y366445D01*
X428077Y366457D01*
Y366469D01*
X428073Y366492D01*
X428069Y366501D01*
X428067Y366513D01*
X428062Y366524D01*
X42806Y366535D01*
Y366535D01*
X428057Y366547D01*
Y366559D01*
X428057Y366559D01*
Y366857D01*
X428062Y36688D01*
X428067Y366891D01*
X428069Y366903D01*
X428073Y366912D01*
X428077Y366935D01*
Y366947D01*
X42808Y366959D01*
Y367025D01*
X428077Y367037D01*
Y367049D01*
X428073Y367072D01*
X428069Y367081D01*
X428067Y367093D01*
X428062Y367104D01*
X42806Y367115D01*
Y367115D01*
X428057Y367127D01*
Y367139D01*
X428057Y367139D01*
Y367587D01*
X42806Y367599D01*
X428064Y367608D01*
X42807Y367618D01*
X428071Y367623D01*
X42809Y367642D01*
X432209Y367642D01*
D02*
G37*
G36*
X435387Y372957D02*
X435377Y372941D01*
X435358Y372848D01*
X435377Y372755D01*
X435387Y37274D01*
X435387Y367512D01*
X434007Y366132D01*
X434007Y364477D01*
X433972Y364442D01*
X433399D01*
X43339Y364484D01*
X43339Y364484D01*
X433388Y36449D01*
X433387Y364493D01*
X433387Y364743D01*
X433387Y36517D01*
X433387Y365447D01*
X433388Y365451D01*
Y365459D01*
X43339Y365467D01*
X433391Y365483D01*
X433391Y365484D01*
X433391Y365484D01*
X433389Y365501D01*
X43342Y365508D01*
X433499Y36556D01*
X433552Y365639D01*
X43357Y365732D01*
X433552Y365825D01*
X433499Y365904D01*
X43342Y365956D01*
X433399Y365961D01*
X4334Y365965D01*
Y366079D01*
X433399Y366083D01*
X43342Y366088D01*
X433499Y36614D01*
X433552Y366219D01*
X43357Y366312D01*
X433552Y366405D01*
X433499Y366484D01*
X43342Y366536D01*
X433389Y366543D01*
X433391Y36656D01*
X433391Y36656D01*
X433391Y366561D01*
X43339Y366577D01*
X433388Y366585D01*
Y366593D01*
X433387Y366597D01*
X433387Y366766D01*
X433388Y366769D01*
X43339Y366775D01*
X43339Y366775D01*
X433393Y366788D01*
X434192Y367586D01*
X434241Y367581D01*
X434256Y36756D01*
X434334Y367508D01*
X434427Y367489D01*
X43452Y367508D01*
X434599Y36756D01*
X434652Y367639D01*
X43467Y367732D01*
X434652Y367825D01*
X434599Y367904D01*
X43452Y367956D01*
X434427Y367975D01*
X434334Y367956D01*
X434302Y367935D01*
X434252Y367961D01*
X434254Y36861D01*
X434304Y368637D01*
X434338Y368614D01*
X434431Y368595D01*
X434524Y368614D01*
X434603Y368667D01*
X434655Y368745D01*
X434674Y368838D01*
X434655Y368931D01*
X434603Y36901D01*
X434524Y369062D01*
X434431Y369081D01*
X434338Y369062D01*
X434305Y36904D01*
X434255Y369067D01*
X434255Y369279D01*
X434282Y369319D01*
X4343Y369412D01*
X434282Y369505D01*
X434256Y369544D01*
X434263Y372675D01*
X434313Y37269D01*
X434356Y372627D01*
X434434Y372574D01*
X434527Y372555D01*
X43462Y372574D01*
X434699Y372627D01*
X434752Y372705D01*
X43477Y372798D01*
X434752Y372891D01*
X434699Y37297D01*
X43462Y373022D01*
X434527Y373041D01*
X434434Y373022D01*
X434356Y37297D01*
X434314Y372907D01*
X434264Y372922D01*
X434267Y374537D01*
X435387D01*
X435387Y372957D01*
D02*
G37*
G36*
X440017Y368034D02*
X439999Y36802D01*
X439954Y367962D01*
X439926Y367895D01*
X439917Y367822D01*
X439926Y367749D01*
X439954Y367682D01*
X439999Y367624D01*
X440017Y36761D01*
Y367552D01*
X44035Y367219D01*
X44035Y366812D01*
X435947Y366812D01*
X434957Y36582D01*
X434957Y364432D01*
X434201Y364432D01*
X434173Y364466D01*
X43417Y364477D01*
X43417Y366045D01*
X435607Y367482D01*
X438607D01*
X439287Y368162D01*
X439287Y368873D01*
X439298Y368899D01*
X439308Y368972D01*
X439298Y369045D01*
X439287Y369071D01*
Y369263D01*
X439298Y369289D01*
X439308Y369362D01*
X439298Y369435D01*
X439287Y369461D01*
X439287Y371162D01*
X440017D01*
X440017Y368034D01*
D02*
G37*
G36*
X440447Y386009D02*
X440396Y385885D01*
X440348Y385686D01*
X440332Y385482D01*
X440348Y385278D01*
X440396Y385079D01*
X440447Y384955D01*
X440447Y373662D01*
X445693Y373662D01*
Y359425D01*
X444512D01*
X444506Y359475D01*
X444571Y359491D01*
X44476Y359569D01*
X444934Y359676D01*
X44509Y359809D01*
X445223Y359965D01*
X44533Y360139D01*
X445409Y360329D01*
X445456Y360528D01*
X445472Y360732D01*
X445456Y360936D01*
X445409Y361135D01*
X44533Y361324D01*
X445223Y361499D01*
X44509Y361655D01*
X444934Y361788D01*
X44476Y361895D01*
X444571Y361973D01*
X444371Y362021D01*
X444167Y362037D01*
X443963Y362021D01*
X443764Y361973D01*
X443575Y361895D01*
X4434Y361788D01*
X443244Y361655D01*
X443111Y361499D01*
X443004Y361324D01*
X442926Y361135D01*
X442878Y360936D01*
X442862Y360732D01*
X442878Y360528D01*
X442926Y360329D01*
X443004Y360139D01*
X443111Y359965D01*
X443244Y359809D01*
X4434Y359676D01*
X443575Y359569D01*
X443764Y359491D01*
X443828Y359475D01*
X443822Y359425D01*
X434195D01*
X43416Y359461D01*
X43416Y359583D01*
X434157Y359594D01*
X434157Y359607D01*
X434153Y359618D01*
X43415Y359629D01*
X434149Y359631D01*
X434139Y359682D01*
X434149Y359733D01*
X43415Y359734D01*
X434153Y359746D01*
X434157Y359757D01*
Y359769D01*
X43416Y359781D01*
X43416Y359903D01*
X434157Y359914D01*
X434157Y359927D01*
X434153Y359938D01*
X43415Y359949D01*
X434149Y359951D01*
X434139Y360002D01*
X434149Y360053D01*
X43415Y360054D01*
X434153Y360066D01*
X434157Y360077D01*
X434157Y360089D01*
X43416Y360101D01*
X43416Y361162D01*
X43416Y361162D01*
X43416Y361162D01*
X434157Y361174D01*
X434181Y361226D01*
X434193Y361232D01*
X43422Y361238D01*
X434299Y36129D01*
X434352Y361369D01*
X434361Y361418D01*
X434384Y361428D01*
X434477Y361409D01*
X43457Y361428D01*
X434649Y36148D01*
X434672Y361515D01*
X434722Y36152D01*
X435209Y361034D01*
X435184Y360987D01*
X435147Y360995D01*
X435054Y360976D01*
X434976Y360924D01*
X434923Y360845D01*
X434905Y360752D01*
X434923Y360659D01*
X434976Y36058D01*
X435054Y360528D01*
X435147Y360509D01*
X43524Y360528D01*
X435319Y36058D01*
X435372Y360659D01*
X43539Y360752D01*
X435372Y360845D01*
X435354Y360871D01*
X435384Y360916D01*
X435428Y360907D01*
X435796D01*
X435812Y36086D01*
X4358Y36085D01*
X435729Y360757D01*
X435684Y360649D01*
X435669Y360533D01*
X435684Y360417D01*
X435729Y360308D01*
X4358Y360216D01*
X435893Y360144D01*
X436001Y360099D01*
X436117Y360084D01*
X436233Y360099D01*
X436341Y360144D01*
X436434Y360216D01*
X436506Y360308D01*
X436551Y360417D01*
X436566Y360533D01*
X436551Y360649D01*
X436506Y360757D01*
X436434Y36085D01*
X436422Y36086D01*
X436438Y360907D01*
X436729D01*
X436729Y360907D01*
X4368Y360814D01*
X436893Y360743D01*
X437001Y360698D01*
X437117Y360683D01*
X437233Y360698D01*
X437341Y360743D01*
X437434Y360814D01*
X437506Y360907D01*
X437551Y361015D01*
X437566Y361131D01*
X437551Y361247D01*
X437506Y361356D01*
X437434Y361449D01*
X437341Y36152D01*
X437233Y361565D01*
X437117Y36158D01*
X437001Y361565D01*
X436893Y36152D01*
X4368Y361449D01*
X436729Y361356D01*
X436729Y361356D01*
X435521D01*
X433932Y362945D01*
Y36432D01*
X433972D01*
X434019Y364329D01*
X434058Y364355D01*
X43406Y364357D01*
X434074Y364356D01*
X434114Y364345D01*
X434129Y364335D01*
X434143Y364324D01*
X434149Y364322D01*
X434154Y364319D01*
X434172Y364315D01*
X434189Y36431D01*
X434195Y364311D01*
X434201Y36431D01*
X434957Y36431D01*
X435004Y364319D01*
X435044Y364345D01*
X43507Y364385D01*
X43508Y364432D01*
X43508Y36577D01*
X435998Y36669D01*
X44035Y36669D01*
X440397Y366699D01*
X440422Y366716D01*
X440437Y366725D01*
X440437Y366725D01*
X440447Y36674D01*
X440463Y366765D01*
X440473Y366812D01*
X440473Y367219D01*
X440463Y367266D01*
X440437Y367306D01*
X440211Y367531D01*
X440228Y367585D01*
X44029Y367598D01*
X440369Y36765D01*
X440422Y367729D01*
X44044Y367822D01*
X440422Y367915D01*
X440369Y367994D01*
X44029Y368046D01*
X440197Y368065D01*
X440178Y368061D01*
X44014Y368093D01*
X44014Y371162D01*
X44013Y371209D01*
X440104Y371248D01*
X440064Y371275D01*
X440017Y371284D01*
X439287D01*
X43924Y371275D01*
X439201Y371248D01*
X439174Y371209D01*
X439165Y371162D01*
X439165Y369461D01*
X439165Y369461D01*
X439174Y369414D01*
X439174Y369414D01*
X439179Y369403D01*
X439184Y369362D01*
X439179Y369321D01*
X439174Y36931D01*
X439174Y36931D01*
X439165Y369263D01*
Y369071D01*
X439165Y369071D01*
X439174Y369024D01*
X439179Y369013D01*
X439184Y368972D01*
X439179Y368931D01*
X439174Y36892D01*
X439165Y368873D01*
X439165Y368213D01*
X438557Y367604D01*
X437748D01*
X437728Y367654D01*
X437772Y367719D01*
X43779Y367812D01*
X437772Y367905D01*
X437719Y367984D01*
X43764Y368036D01*
X437547Y368055D01*
X437454Y368036D01*
X437376Y367984D01*
X437323Y367905D01*
X437305Y367812D01*
X437323Y367719D01*
X437366Y367654D01*
X437346Y367604D01*
X436278D01*
X436258Y367654D01*
X436302Y367719D01*
X43632Y367812D01*
X436302Y367905D01*
X436249Y367984D01*
X43617Y368036D01*
X436077Y368055D01*
X435984Y368036D01*
X435906Y367984D01*
X435853Y367905D01*
X435835Y367812D01*
X435853Y367719D01*
X435896Y367654D01*
X435876Y367604D01*
X435607D01*
X43556Y367595D01*
X43556Y367594D01*
X43551Y367621D01*
X43551Y37274D01*
X435507Y372751D01*
X435507Y372763D01*
X435503Y372775D01*
X4355Y372786D01*
X435494Y372796D01*
X435493Y372798D01*
X435483Y372848D01*
X435493Y372899D01*
X435494Y3729D01*
X4355Y37291D01*
X435503Y372922D01*
X435507Y372933D01*
Y372945D01*
X43551Y372957D01*
X43551Y374537D01*
X4355Y374584D01*
X435474Y374623D01*
X435434Y37465D01*
X435387Y374659D01*
X434267D01*
X434244Y374655D01*
X434221Y37465D01*
X434221Y37465D01*
X434221Y37465D01*
X434201Y374637D01*
X434181Y374624D01*
X434181Y374624D01*
X434181Y374623D01*
X434168Y374604D01*
X434154Y374584D01*
X434154Y374584D01*
X434154Y374584D01*
X43415Y374561D01*
X434145Y374537D01*
X434141Y372922D01*
X434142Y372916D01*
X434142Y37291D01*
X434147Y372893D01*
X43415Y372875D01*
X434154Y37287D01*
X434156Y372864D01*
X434167Y372851D01*
X434177Y372836D01*
X434182Y372832D01*
X434186Y372828D01*
X434193Y372806D01*
X434193Y372791D01*
X434185Y37277D01*
X434182Y372765D01*
X434177Y372762D01*
X434167Y372747D01*
X434155Y372733D01*
X434153Y372727D01*
X43415Y372722D01*
X434146Y372705D01*
X434141Y372687D01*
X434142Y372681D01*
X434141Y372675D01*
X434134Y369679D01*
X434095Y369647D01*
X434057Y369655D01*
X434018Y369647D01*
X43398Y369679D01*
Y371422D01*
X43397Y371469D01*
X433944Y371508D01*
X433574Y371878D01*
X433534Y371905D01*
X433487Y371914D01*
X432977D01*
X432954Y37191D01*
X432931Y371905D01*
X432931Y371905D01*
X43293Y371905D01*
X432911Y371892D01*
X432891Y371879D01*
X432891Y371879D01*
X432891Y371878D01*
X432878Y371859D01*
X432864Y371839D01*
X432864Y371839D01*
X432864Y371839D01*
X43286Y371816D01*
X432855Y371792D01*
X432849Y369391D01*
X432841Y369385D01*
X432773Y369398D01*
X432749Y369434D01*
X43267Y369486D01*
X432614Y369497D01*
X432571Y369531D01*
X432566Y369553D01*
X432552Y369625D01*
X432499Y369704D01*
X43242Y369756D01*
X432329Y369774D01*
X43233Y369782D01*
X432312Y369875D01*
X432259Y369954D01*
X43218Y370006D01*
X432126Y370017D01*
X43208Y370042D01*
X432062Y370135D01*
X432009Y370214D01*
X43193Y370266D01*
X431899Y370272D01*
Y370323D01*
X43192Y370328D01*
X431999Y37038D01*
X432052Y370459D01*
X43207Y370552D01*
X432064Y370585D01*
X432065Y370588D01*
X432107Y370623D01*
X432177Y370609D01*
X43227Y370628D01*
X432349Y37068D01*
X432402Y370759D01*
X43242Y370852D01*
X432402Y370945D01*
X432349Y371024D01*
X43227Y371076D01*
X432177Y371095D01*
X432084Y371076D01*
X432006Y371024D01*
X431953Y370945D01*
X431935Y370852D01*
X431941Y370819D01*
X43194Y370816D01*
X431898Y370781D01*
X431827Y370795D01*
X431734Y370776D01*
X431656Y370724D01*
X431603Y370645D01*
X431585Y370552D01*
X431603Y370459D01*
X431656Y37038D01*
X431734Y370328D01*
X431766Y370321D01*
Y37027D01*
X431744Y370266D01*
X431666Y370214D01*
X431613Y370135D01*
X431595Y370042D01*
X431613Y369949D01*
X431666Y36987D01*
X431744Y369818D01*
X431799Y369807D01*
X431845Y369782D01*
X431863Y369689D01*
X431916Y36961D01*
X431994Y369558D01*
X432086Y369539D01*
X432085Y369532D01*
X432103Y369439D01*
X432156Y36936D01*
X432234Y369308D01*
X432251Y369304D01*
X432246Y369254D01*
X430279D01*
X43027Y369304D01*
X430339Y36935D01*
X430392Y369429D01*
X43041Y369522D01*
X430392Y369615D01*
X430339Y369694D01*
X43026Y369746D01*
X430177Y369763D01*
X430164Y369768D01*
X430125Y369807D01*
X430112Y369875D01*
X430059Y369954D01*
X42998Y370006D01*
X429906Y370021D01*
X42991Y370042D01*
X429892Y370135D01*
X429839Y370214D01*
X42976Y370266D01*
X429724Y370273D01*
Y370324D01*
X42979Y370338D01*
X429869Y37039D01*
X429922Y370469D01*
X42994Y370562D01*
X429922Y370655D01*
X429869Y370734D01*
X42979Y370786D01*
X429697Y370805D01*
X429604Y370786D01*
X429526Y370734D01*
X429473Y370655D01*
X429455Y370562D01*
X429473Y370469D01*
X429526Y37039D01*
X429604Y370338D01*
X429641Y37033D01*
Y370279D01*
X429574Y370266D01*
X429496Y370214D01*
X429443Y370135D01*
X429425Y370042D01*
X429443Y369949D01*
X429496Y36987D01*
X429574Y369818D01*
X429649Y369803D01*
X429645Y369782D01*
X429663Y369689D01*
X429716Y36961D01*
X429794Y369558D01*
X429877Y369541D01*
X429891Y369536D01*
X42993Y369497D01*
X429943Y369429D01*
X429996Y36935D01*
X430064Y369304D01*
X430056Y369254D01*
X42483D01*
Y37454D01*
X430737Y37454D01*
X431261Y374015D01*
X431301Y373989D01*
X431347Y37398D01*
X431918Y37398D01*
X43193Y373982D01*
X431942D01*
X431953Y373987D01*
X431965Y373989D01*
X431975Y373996D01*
X431986Y374D01*
X432002Y374011D01*
X432047Y37402D01*
X432092Y374011D01*
X432109Y374D01*
X43212Y373996D01*
X43213Y373989D01*
X432142Y373987D01*
X432153Y373982D01*
X432165D01*
X432177Y37398D01*
X432342D01*
X432389Y373989D01*
X432428Y374015D01*
X432464Y374051D01*
X43249Y37409D01*
X4325Y374137D01*
X4325Y374492D01*
X432495Y374517D01*
X43249Y374539D01*
X43249Y374539D01*
X43249Y374539D01*
X432477Y374559D01*
X432464Y374578D01*
X431547Y375495D01*
X431574Y375539D01*
X431692Y375503D01*
X43187Y375486D01*
X432048Y375503D01*
X432219Y375555D01*
X432377Y375639D01*
X432515Y375753D01*
X432628Y375891D01*
X432712Y376049D01*
X432764Y37622D01*
X432782Y376398D01*
X432764Y376576D01*
X432712Y376747D01*
X432628Y376904D01*
X432515Y377042D01*
X432377Y377156D01*
X432219Y37724D01*
X432048Y377292D01*
X43187Y377309D01*
X431692Y377292D01*
X431521Y37724D01*
X431364Y377156D01*
X431225Y377042D01*
X431112Y376904D01*
X431028Y376747D01*
X430976Y376576D01*
X430958Y376398D01*
X430976Y37622D01*
X431012Y376101D01*
X430968Y376075D01*
X430464Y376578D01*
X430424Y376605D01*
X430424Y376605D01*
X430424Y376605D01*
X430377Y376614D01*
X42752Y376614D01*
X427517Y376615D01*
X427515Y376614D01*
X42321Y376614D01*
X42321Y38343D01*
X427977Y38343D01*
X428024Y383439D01*
X428064Y383465D01*
X428534Y383935D01*
X42856Y383975D01*
X42857Y384022D01*
X42857Y384091D01*
X42857Y384092D01*
Y384364D01*
X428582Y384394D01*
X428596Y384502D01*
X428582Y38461D01*
X42857Y38464D01*
Y384664D01*
X42857Y384665D01*
X42858Y384712D01*
X42857Y384759D01*
X428544Y384798D01*
X428454Y384888D01*
X428452Y38489D01*
X42845Y384907D01*
X42845Y384936D01*
X42845Y384936D01*
Y385087D01*
X428593D01*
Y38585D01*
X431635D01*
X431671Y385813D01*
X431671Y385808D01*
X431605Y385721D01*
X431563Y38562D01*
X431548Y385512D01*
X431563Y385404D01*
X431605Y385303D01*
X431671Y385216D01*
X431758Y385149D01*
X431859Y385107D01*
X431967Y385093D01*
X432076Y385107D01*
X432177Y385149D01*
X432263Y385216D01*
X43233Y385303D01*
X432372Y385404D01*
X432386Y385512D01*
X432372Y38562D01*
X43233Y385721D01*
X432263Y385808D01*
X43224Y385826D01*
Y385902D01*
X43223Y385972D01*
X432203Y386038D01*
X43216Y386095D01*
X43194Y386315D01*
X431884Y386358D01*
X431818Y386385D01*
X431747Y386394D01*
X428387D01*
X428317Y386385D01*
X428251Y386358D01*
X428195Y386315D01*
X427985Y386105D01*
X427941Y386048D01*
X427914Y385982D01*
X427906Y385917D01*
X427762D01*
Y385087D01*
X427905D01*
Y384936D01*
X427904Y384918D01*
X427891Y384915D01*
X427851Y384888D01*
X427781Y384818D01*
X427754Y384779D01*
X427745Y384732D01*
Y384243D01*
X427647Y384144D01*
X427518D01*
X427503Y384194D01*
X427566Y384277D01*
X427611Y384386D01*
X427617Y384427D01*
X427177D01*
X426738D01*
X426744Y384386D01*
X426788Y384277D01*
X426852Y384194D01*
X426837Y384144D01*
X426471Y384144D01*
X426455Y384192D01*
X426474Y384206D01*
X42654Y384293D01*
X426582Y384394D01*
X426596Y384502D01*
X426582Y38461D01*
X42654Y384711D01*
X426474Y384798D01*
X426387Y384865D01*
X426286Y384907D01*
X426177Y384921D01*
X426069Y384907D01*
X425968Y384865D01*
X425881Y384798D01*
X425815Y384711D01*
X425773Y38461D01*
X425758Y384502D01*
X425773Y384394D01*
X425815Y384293D01*
X425881Y384206D01*
X4259Y384192D01*
X425883Y384144D01*
X425471Y384144D01*
X425455Y384192D01*
X425474Y384206D01*
X42554Y384293D01*
X425582Y384394D01*
X425596Y384502D01*
X425582Y38461D01*
X42554Y384711D01*
X425474Y384798D01*
X425387Y384865D01*
X425286Y384907D01*
X425177Y384921D01*
X425069Y384907D01*
X424968Y384865D01*
X424881Y384798D01*
X424815Y384711D01*
X424773Y38461D01*
X424758Y384502D01*
X424773Y384394D01*
X424815Y384293D01*
X424881Y384206D01*
X4249Y384192D01*
X424883Y384144D01*
X418498Y384144D01*
X417814Y384828D01*
X417814Y384828D01*
X417814Y384828D01*
X417794Y384842D01*
X417774Y384855D01*
X417774Y384855D01*
X417774Y384855D01*
X417753Y384859D01*
X417727Y384864D01*
X417727Y384864D01*
X417727Y384864D01*
X417123Y384864D01*
X417123Y384864D01*
X417076Y384855D01*
X417036Y384828D01*
X41701Y384789D01*
X41701Y384789D01*
X41699Y384743D01*
X416981Y384696D01*
X41699Y384649D01*
X417017Y384609D01*
X417112Y384514D01*
X417113Y384509D01*
X417166Y38443D01*
X417244Y384378D01*
X41725Y384377D01*
X418161Y383465D01*
X4182Y383439D01*
X418247Y38343D01*
X421995Y38343D01*
Y38085D01*
X42196Y380814D01*
X418538Y380814D01*
X418484Y380868D01*
X41842Y380933D01*
X41842Y3812D01*
X418415Y381221D01*
X41841Y381247D01*
X41841Y381247D01*
X41841Y381247D01*
X418397Y381267D01*
X418384Y381287D01*
X418342Y381329D01*
X418342Y381329D01*
X418342Y381329D01*
X418321Y381343D01*
X418302Y381355D01*
X418302Y381355D01*
X418302Y381355D01*
X418277Y38136D01*
X418256Y381364D01*
X418256Y381364D01*
X418256Y381364D01*
X417907Y381364D01*
X41786Y381355D01*
X417821Y381328D01*
X417821Y381328D01*
X417794Y381289D01*
X417785Y381242D01*
Y380752D01*
X417794Y380705D01*
X417794Y380705D01*
X417821Y380665D01*
X418221Y380265D01*
X41826Y380239D01*
X418307Y38023D01*
X421995D01*
Y376457D01*
X421995Y376457D01*
X421995Y373893D01*
Y371124D01*
X418387D01*
X41834Y371115D01*
X418301Y371088D01*
X418221Y371008D01*
X418194Y370969D01*
X418185Y370922D01*
Y369482D01*
X418194Y369435D01*
X418221Y369395D01*
X418411Y369205D01*
X418451Y369179D01*
X418497Y36917D01*
X421995D01*
Y367742D01*
X422004Y367695D01*
X422031Y367655D01*
X422071Y367629D01*
X422117Y36762D01*
X426938Y36762D01*
X426944Y367621D01*
X42695Y36762D01*
X426967Y367625D01*
X426985Y367629D01*
X42699Y367632D01*
X426996Y367634D01*
X427009Y367645D01*
X427024Y367655D01*
X427028Y36766D01*
X427032Y367664D01*
X427039Y367677D01*
X427043Y367679D01*
X427048Y36768D01*
X427086D01*
X427092Y367679D01*
X427095Y367677D01*
X427102Y367664D01*
X427107Y36766D01*
X42711Y367655D01*
X427125Y367645D01*
X427139Y367634D01*
X427145Y367632D01*
X42715Y367629D01*
X427168Y367625D01*
X427185Y36762D01*
X427205Y367576D01*
Y366022D01*
X427214Y365975D01*
X427241Y365935D01*
X427281Y365909D01*
X427327Y3659D01*
X427935D01*
Y364244D01*
X424367Y364244D01*
X42432Y364235D01*
X424281Y364208D01*
X424254Y364169D01*
X424245Y364122D01*
Y362962D01*
X424254Y362915D01*
X424281Y362875D01*
X42432Y362849D01*
X424367Y36284D01*
X429021D01*
X429032Y362842D01*
X429032D01*
X429033Y362839D01*
X429086Y36276D01*
X429164Y362708D01*
X429257Y362689D01*
X42935Y362708D01*
X429429Y36276D01*
X429482Y362839D01*
X4295Y362932D01*
X429482Y363025D01*
X429429Y363104D01*
X42935Y363156D01*
X429324Y363161D01*
Y363212D01*
X42935Y363218D01*
X429429Y36327D01*
X429482Y363349D01*
X4295Y363442D01*
X429482Y363535D01*
X429429Y363614D01*
X429361Y363659D01*
X429357Y363678D01*
Y363696D01*
X429361Y363715D01*
X429429Y36376D01*
X429482Y363839D01*
X4295Y363932D01*
X429494Y363961D01*
X429526Y364D01*
X431795Y364D01*
Y363812D01*
X431804Y363765D01*
X431831Y363725D01*
X43187Y363699D01*
X431917Y36369D01*
X432255D01*
Y363661D01*
X432257Y36365D01*
Y363638D01*
X432262Y363626D01*
X432264Y363615D01*
X432271Y363605D01*
X432276Y363593D01*
X432284Y363585D01*
X432291Y363575D01*
X432297Y363571D01*
X432326Y363527D01*
X432335Y363482D01*
X432326Y363437D01*
X432295Y36339D01*
X432294Y363388D01*
X432292Y363386D01*
X432285Y363366D01*
X432277Y363346D01*
Y363343D01*
X432276Y363341D01*
X432268Y36329D01*
X432269Y363269D01*
Y363247D01*
X43227Y363245D01*
X43227Y363242D01*
X432279Y363223D01*
X432287Y363203D01*
X432326Y363145D01*
X432335Y363099D01*
X432326Y363054D01*
X432295Y363008D01*
X432294Y363005D01*
X432292Y363003D01*
X432285Y362983D01*
X432277Y362964D01*
Y362961D01*
X432276Y362958D01*
X432271Y362927D01*
X432272Y362908D01*
X432271Y362889D01*
X432276Y362858D01*
X432277Y362856D01*
Y362853D01*
X432285Y362833D01*
X432292Y362813D01*
X432294Y362811D01*
X432295Y362809D01*
X432326Y362762D01*
X432335Y362717D01*
X432326Y362672D01*
X432287Y362613D01*
X432279Y362594D01*
X43227Y362574D01*
X43227Y362572D01*
X432269Y362569D01*
Y362548D01*
X432268Y362527D01*
X432276Y362476D01*
X432277Y362473D01*
Y36247D01*
X432285Y362451D01*
X432292Y362431D01*
X432294Y362429D01*
X432295Y362426D01*
X432326Y36238D01*
X432335Y362334D01*
X432326Y362289D01*
X43229Y362236D01*
X432283Y362228D01*
X43228Y362222D01*
X432276Y362217D01*
X432271Y3622D01*
X432264Y362183D01*
Y362177D01*
X432262Y362172D01*
X432257Y36212D01*
X432259Y362102D01*
X432259Y362084D01*
X432262Y362079D01*
X432262Y362073D01*
X432271Y362057D01*
X432278Y36204D01*
X432306Y361997D01*
X432315Y361952D01*
X432306Y361907D01*
X432276Y361861D01*
X432271Y36185D01*
X432264Y36184D01*
X432262Y361828D01*
X432257Y361817D01*
Y361805D01*
X432255Y361793D01*
Y361512D01*
X432264Y361465D01*
X432274Y36145D01*
X432291Y361425D01*
X432993Y360723D01*
X432985Y359462D01*
X432984Y35946D01*
X432943Y359425D01*
X413155D01*
X413149Y359475D01*
X413199Y359487D01*
X413388Y359565D01*
X413562Y359672D01*
X413718Y359805D01*
X413851Y359961D01*
X413958Y360136D01*
X414037Y360325D01*
X414084Y360524D01*
X4141Y360728D01*
X414084Y360933D01*
X414037Y361132D01*
X413958Y361321D01*
X413851Y361495D01*
X413718Y361651D01*
X413562Y361784D01*
X413388Y361891D01*
X413199Y36197D01*
X412999Y362017D01*
X412795Y362033D01*
X412591Y362017D01*
X412392Y36197D01*
X412203Y361891D01*
X412028Y361784D01*
X411872Y361651D01*
X411739Y361495D01*
X411641Y361334D01*
X411591Y361348D01*
Y384862D01*
X411641Y384876D01*
X411739Y384715D01*
X411872Y384559D01*
X412028Y384426D01*
X412203Y384319D01*
X412392Y384241D01*
X412591Y384193D01*
X412795Y384177D01*
X412999Y384193D01*
X413199Y384241D01*
X413388Y384319D01*
X413562Y384426D01*
X413718Y384559D01*
X413851Y384715D01*
X413958Y384889D01*
X414037Y385079D01*
X414084Y385278D01*
X4141Y385482D01*
X414084Y385686D01*
X414037Y385885D01*
X413958Y386074D01*
X413851Y386249D01*
X413718Y386405D01*
X413562Y386538D01*
X413478Y38659D01*
X413492Y386638D01*
X440447D01*
Y386009D01*
D02*
G37*
%LPC*%
G36*
X437057Y368585D02*
X436964Y368566D01*
X436886Y368514D01*
X436833Y368435D01*
X436822Y368379D01*
X436771D01*
X436762Y368425D01*
X436709Y368504D01*
X43663Y368556D01*
X436537Y368575D01*
X436444Y368556D01*
X436366Y368504D01*
X436313Y368425D01*
X436295Y368332D01*
X436313Y368239D01*
X436366Y36816D01*
X436444Y368108D01*
X436537Y368089D01*
X43663Y368108D01*
X436709Y36816D01*
X436762Y368239D01*
X436773Y368295D01*
X436824D01*
X436833Y368249D01*
X436886Y36817D01*
X436964Y368118D01*
X437057Y368099D01*
X43715Y368118D01*
X437229Y36817D01*
X437282Y368249D01*
X4373Y368342D01*
X437282Y368435D01*
X437229Y368514D01*
X43715Y368566D01*
X437057Y368585D01*
D02*
G37*
G36*
X441627Y368075D02*
X441534Y368056D01*
X441456Y368004D01*
X441403Y367925D01*
X441385Y367832D01*
X441403Y367739D01*
X441456Y36766D01*
X441534Y367608D01*
X441627Y367589D01*
X44172Y367608D01*
X441799Y36766D01*
X441852Y367739D01*
X44187Y367832D01*
X441852Y367925D01*
X441799Y368004D01*
X44172Y368056D01*
X441627Y368075D01*
D02*
G37*
G36*
X440357Y366396D02*
X440245Y366381D01*
X44014Y366338D01*
X440051Y366269D01*
X439982Y366179D01*
X439938Y366074D01*
X439924Y365962D01*
X439938Y36585D01*
X439982Y365745D01*
X440051Y365655D01*
X44014Y365586D01*
X440245Y365543D01*
X440357Y365528D01*
X44047Y365543D01*
X440574Y365586D01*
X440664Y365655D01*
X440733Y365745D01*
X440776Y36585D01*
X440791Y365962D01*
X440776Y366074D01*
X440733Y366179D01*
X440664Y366269D01*
X440574Y366338D01*
X44047Y366381D01*
X440357Y366396D01*
D02*
G37*
G36*
X412607Y369615D02*
X412476Y369602D01*
X41235Y369564D01*
X412233Y369502D01*
X412131Y369418D01*
X412048Y369316D01*
X411985Y3692D01*
X411947Y369073D01*
X411934Y368942D01*
X411947Y368811D01*
X411985Y368684D01*
X412048Y368568D01*
X412131Y368466D01*
X412233Y368382D01*
X41235Y36832D01*
X412476Y368282D01*
X412607Y368269D01*
X412739Y368282D01*
X412865Y36832D01*
X412981Y368382D01*
X413083Y368466D01*
X413167Y368568D01*
X413229Y368684D01*
X413268Y368811D01*
X413281Y368942D01*
X413268Y369073D01*
X413229Y3692D01*
X413167Y369316D01*
X413083Y369418D01*
X412981Y369502D01*
X412865Y369564D01*
X412739Y369602D01*
X412607Y369615D01*
D02*
G37*
G36*
X425007Y368505D02*
X424914Y368486D01*
X424836Y368434D01*
X424783Y368355D01*
X424765Y368262D01*
X424783Y368169D01*
X424836Y36809D01*
X424914Y368038D01*
X425007Y368019D01*
X4251Y368038D01*
X425179Y36809D01*
X425232Y368169D01*
X42525Y368262D01*
X425232Y368355D01*
X425179Y368434D01*
X4251Y368486D01*
X425007Y368505D01*
D02*
G37*
G36*
X424157Y369865D02*
X424064Y369846D01*
X423986Y369794D01*
X423933Y369715D01*
X423915Y369622D01*
X423933Y369529D01*
X423986Y36945D01*
X424064Y369398D01*
X424157Y369379D01*
X42425Y369398D01*
X424329Y36945D01*
X424382Y369529D01*
X4244Y369622D01*
X424382Y369715D01*
X424329Y369794D01*
X42425Y369846D01*
X424157Y369865D01*
D02*
G37*
G36*
X423487Y371875D02*
X423394Y371856D01*
X423316Y371804D01*
X423263Y371725D01*
X423245Y371632D01*
X423263Y371539D01*
X423316Y37146D01*
X423328Y371452D01*
X423328Y371449D01*
X423313Y371402D01*
X423234Y371386D01*
X423156Y371334D01*
X423103Y371255D01*
X423085Y371162D01*
X423103Y371069D01*
X423156Y37099D01*
X423234Y370938D01*
X423327Y370919D01*
X42342Y370938D01*
X423499Y37099D01*
X423552Y371069D01*
X42357Y371162D01*
X423552Y371255D01*
X423499Y371334D01*
X423487Y371342D01*
X423487Y371345D01*
X423502Y371392D01*
X42358Y371408D01*
X423659Y37146D01*
X423712Y371539D01*
X42373Y371632D01*
X423712Y371725D01*
X423659Y371804D01*
X42358Y371856D01*
X423487Y371875D01*
D02*
G37*
G36*
X429517Y371375D02*
X429424Y371356D01*
X429346Y371304D01*
X429293Y371225D01*
X429275Y371132D01*
X429293Y371039D01*
X429346Y37096D01*
X429424Y370908D01*
X429517Y370889D01*
X42961Y370908D01*
X429689Y37096D01*
X429742Y371039D01*
X42976Y371132D01*
X429742Y371225D01*
X429689Y371304D01*
X42961Y371356D01*
X429517Y371375D01*
D02*
G37*
G36*
X412407Y37177D02*
X41228Y371731D01*
X412133Y371652D01*
X412003Y371546D01*
X411897Y371416D01*
X411818Y371269D01*
X41178Y371142D01*
X412407D01*
Y37177D01*
D02*
G37*
G36*
X427997Y371565D02*
X427904Y371546D01*
X427826Y371494D01*
X427773Y371415D01*
X427755Y371322D01*
X427773Y371229D01*
X427826Y37115D01*
X427904Y371098D01*
X427997Y371079D01*
X42809Y371098D01*
X428169Y37115D01*
X428222Y371229D01*
X42824Y371322D01*
X428222Y371415D01*
X428169Y371494D01*
X42809Y371546D01*
X427997Y371565D01*
D02*
G37*
G36*
X430567Y370665D02*
X430474Y370646D01*
X430396Y370594D01*
X430343Y370515D01*
X430325Y370422D01*
X430343Y370329D01*
X430396Y37025D01*
X430474Y370198D01*
X430567Y370179D01*
X43066Y370198D01*
X430739Y37025D01*
X430792Y370329D01*
X43081Y370422D01*
X430792Y370515D01*
X430739Y370594D01*
X43066Y370646D01*
X430567Y370665D01*
D02*
G37*
G36*
X428697Y370525D02*
X428604Y370506D01*
X428526Y370454D01*
X428473Y370375D01*
X428455Y370282D01*
X428473Y370189D01*
X428526Y37011D01*
X428604Y370058D01*
X428697Y370039D01*
X42879Y370058D01*
X428869Y37011D01*
X428922Y370189D01*
X42894Y370282D01*
X428922Y370375D01*
X428869Y370454D01*
X42879Y370506D01*
X428697Y370525D01*
D02*
G37*
G36*
X426707Y370285D02*
X426614Y370266D01*
X426536Y370214D01*
X426483Y370135D01*
X426465Y370042D01*
X426476Y369986D01*
X426433Y369944D01*
X426427Y369945D01*
X426334Y369926D01*
X426256Y369874D01*
X426203Y369795D01*
X426185Y369702D01*
X426203Y369609D01*
X426256Y36953D01*
X426334Y369478D01*
X426427Y369459D01*
X42652Y369478D01*
X426599Y36953D01*
X426652Y369609D01*
X42667Y369702D01*
X426659Y369758D01*
X426702Y3698D01*
X426707Y369799D01*
X426716Y369801D01*
X426751Y369766D01*
X426745Y369732D01*
X426763Y369639D01*
X426816Y36956D01*
X426894Y369508D01*
X426987Y369489D01*
X42708Y369508D01*
X427159Y36956D01*
X427212Y369639D01*
X42723Y369732D01*
X427212Y369825D01*
X427159Y369904D01*
X42708Y369956D01*
X426987Y369975D01*
X426979Y369973D01*
X426943Y370008D01*
X42695Y370042D01*
X426932Y370135D01*
X426879Y370214D01*
X4268Y370266D01*
X426707Y370285D01*
D02*
G37*
G36*
X412407Y370742D02*
X41178D01*
X411818Y370615D01*
X411897Y370467D01*
X412003Y370338D01*
X412133Y370232D01*
X41228Y370153D01*
X412407Y370114D01*
Y370742D01*
D02*
G37*
G36*
X413435D02*
X412807D01*
Y370114D01*
X412934Y370153D01*
X413082Y370232D01*
X413211Y370338D01*
X413317Y370467D01*
X413396Y370615D01*
X413435Y370742D01*
D02*
G37*
G36*
X439357Y366396D02*
X439245Y366381D01*
X43914Y366338D01*
X439051Y366269D01*
X438982Y366179D01*
X438938Y366074D01*
X438924Y365962D01*
X438938Y36585D01*
X438982Y365745D01*
X439051Y365655D01*
X43914Y365586D01*
X439245Y365543D01*
X439357Y365528D01*
X43947Y365543D01*
X439574Y365586D01*
X439664Y365655D01*
X439733Y365745D01*
X439776Y36585D01*
X439791Y365962D01*
X439776Y366074D01*
X439733Y366179D01*
X439664Y366269D01*
X439574Y366338D01*
X43947Y366381D01*
X439357Y366396D01*
D02*
G37*
G36*
X427923Y360657D02*
X427092D01*
Y359827D01*
X427923D01*
Y360657D01*
D02*
G37*
G36*
X428507Y360661D02*
X428399Y360647D01*
X428298Y360605D01*
X428211Y360538D01*
X428145Y360451D01*
X428103Y36035D01*
X428088Y360242D01*
X428103Y360134D01*
X428145Y360033D01*
X428211Y359946D01*
X428298Y359879D01*
X428399Y359837D01*
X428507Y359823D01*
X428616Y359837D01*
X428717Y359879D01*
X428803Y359946D01*
X42887Y360033D01*
X428912Y360134D01*
X428926Y360242D01*
X428912Y36035D01*
X42887Y360451D01*
X428803Y360538D01*
X428717Y360605D01*
X428616Y360647D01*
X428507Y360661D01*
D02*
G37*
G36*
X424337Y361641D02*
X424229Y361627D01*
X424128Y361585D01*
X424041Y361518D01*
X423975Y361431D01*
X423933Y36133D01*
X423918Y361222D01*
X423933Y361114D01*
X423975Y361013D01*
X424041Y360926D01*
X424128Y360859D01*
X424229Y360817D01*
X424337Y360803D01*
X424446Y360817D01*
X424547Y360859D01*
X424633Y360926D01*
X4247Y361013D01*
X424742Y361114D01*
X424756Y361222D01*
X424742Y36133D01*
X4247Y361431D01*
X424633Y361518D01*
X424547Y361585D01*
X424446Y361627D01*
X424337Y361641D01*
D02*
G37*
G36*
X440857Y363336D02*
X440687Y363319D01*
X440523Y36327D01*
X440372Y363189D01*
X440239Y36308D01*
X44013Y362948D01*
X44005Y362797D01*
X44Y362633D01*
X439983Y362462D01*
X44Y362291D01*
X44005Y362127D01*
X44013Y361976D01*
X440239Y361844D01*
X440372Y361735D01*
X440523Y361654D01*
X440687Y361605D01*
X440857Y361588D01*
X440922Y361594D01*
X440934Y361545D01*
X440873Y36152D01*
X44078Y361449D01*
X440709Y361356D01*
X440664Y361247D01*
X440649Y361131D01*
X440664Y361015D01*
X440709Y360907D01*
X44078Y360814D01*
X440873Y360743D01*
X440981Y360698D01*
X441097Y360683D01*
X441214Y360698D01*
X441322Y360743D01*
X441415Y360814D01*
X441486Y360907D01*
X441531Y361015D01*
X441546Y361131D01*
X441531Y361247D01*
X441486Y361356D01*
X441415Y361449D01*
X441322Y36152D01*
X441214Y361565D01*
X441112Y361578D01*
X441108Y361629D01*
X441192Y361654D01*
X441343Y361735D01*
X441475Y361844D01*
X441584Y361976D01*
X441665Y362127D01*
X441715Y362291D01*
X441732Y362462D01*
X441715Y362633D01*
X441665Y362797D01*
X441584Y362948D01*
X441475Y36308D01*
X441343Y363189D01*
X441192Y36327D01*
X441028Y363319D01*
X440857Y363336D01*
D02*
G37*
G36*
X43187Y361365D02*
X431692Y361347D01*
X431521Y361295D01*
X431364Y361211D01*
X431225Y361097D01*
X431112Y360959D01*
X431028Y360802D01*
X430976Y360631D01*
X430958Y360453D01*
X430976Y360275D01*
X431028Y360104D01*
X431112Y359946D01*
X431225Y359808D01*
X431364Y359695D01*
X431521Y35961D01*
X431692Y359558D01*
X43187Y359541D01*
X432048Y359558D01*
X432219Y35961D01*
X432377Y359695D01*
X432515Y359808D01*
X432628Y359946D01*
X432712Y360104D01*
X432764Y360275D01*
X432782Y360453D01*
X432764Y360631D01*
X432712Y360802D01*
X432628Y360959D01*
X432515Y361097D01*
X432377Y361211D01*
X432219Y361295D01*
X432048Y361347D01*
X43187Y361365D01*
D02*
G37*
G36*
X415925D02*
X415747Y361347D01*
X415576Y361295D01*
X415419Y361211D01*
X41528Y361097D01*
X415167Y360959D01*
X415083Y360802D01*
X415031Y360631D01*
X415013Y360453D01*
X415031Y360275D01*
X415083Y360104D01*
X415167Y359946D01*
X41528Y359808D01*
X415419Y359695D01*
X415576Y35961D01*
X415747Y359558D01*
X415925Y359541D01*
X416103Y359558D01*
X416274Y35961D01*
X416432Y359695D01*
X41657Y359808D01*
X416683Y359946D01*
X416768Y360104D01*
X416819Y360275D01*
X416837Y360453D01*
X416819Y360631D01*
X416768Y360802D01*
X416683Y360959D01*
X41657Y361097D01*
X416432Y361211D01*
X416274Y361295D01*
X416103Y361347D01*
X415925Y361365D01*
D02*
G37*
G36*
X424753Y360637D02*
X423922D01*
Y359807D01*
X424753D01*
Y360637D01*
D02*
G37*
G36*
X425337Y360641D02*
X425229Y360627D01*
X425128Y360585D01*
X425041Y360518D01*
X424975Y360431D01*
X424933Y36033D01*
X424918Y360222D01*
X424933Y360114D01*
X424975Y360013D01*
X425041Y359926D01*
X425128Y359859D01*
X425229Y359817D01*
X425337Y359803D01*
X425446Y359817D01*
X425547Y359859D01*
X425634Y359926D01*
X4257Y360013D01*
X425742Y360114D01*
X425756Y360222D01*
X425742Y36033D01*
X4257Y360431D01*
X425634Y360518D01*
X425547Y360585D01*
X425446Y360627D01*
X425337Y360641D01*
D02*
G37*
G36*
Y361641D02*
X425229Y361627D01*
X425128Y361585D01*
X425041Y361518D01*
X424975Y361431D01*
X424933Y36133D01*
X424918Y361222D01*
X424933Y361114D01*
X424975Y361013D01*
X425041Y360926D01*
X425128Y360859D01*
X425229Y360817D01*
X425337Y360803D01*
X425446Y360817D01*
X425547Y360859D01*
X425634Y360926D01*
X4257Y361013D01*
X425742Y361114D01*
X425756Y361222D01*
X425742Y36133D01*
X4257Y361431D01*
X425634Y361518D01*
X425547Y361585D01*
X425446Y361627D01*
X425337Y361641D01*
D02*
G37*
G36*
X439857Y365396D02*
X439745Y365381D01*
X43964Y365338D01*
X439551Y365269D01*
X439482Y365179D01*
X439438Y365074D01*
X439424Y364962D01*
X439438Y36485D01*
X439482Y364745D01*
X439551Y364655D01*
X43964Y364586D01*
X439745Y364543D01*
X439857Y364528D01*
X43997Y364543D01*
X440074Y364586D01*
X440164Y364655D01*
X440233Y364745D01*
X440276Y36485D01*
X440291Y364962D01*
X440276Y365074D01*
X440233Y365179D01*
X440164Y365269D01*
X440074Y365338D01*
X43997Y365381D01*
X439857Y365396D01*
D02*
G37*
G36*
X438857D02*
X438745Y365381D01*
X43864Y365338D01*
X438551Y365269D01*
X438482Y365179D01*
X438438Y365074D01*
X438424Y364962D01*
X438438Y36485D01*
X438482Y364745D01*
X438551Y364655D01*
X43864Y364586D01*
X438745Y364543D01*
X438857Y364528D01*
X43897Y364543D01*
X439074Y364586D01*
X439164Y364655D01*
X439233Y364745D01*
X439276Y36485D01*
X439291Y364962D01*
X439276Y365074D01*
X439233Y365179D01*
X439164Y365269D01*
X439074Y365338D01*
X43897Y365381D01*
X438857Y365396D01*
D02*
G37*
G36*
X438357Y366396D02*
X438245Y366381D01*
X43814Y366338D01*
X438051Y366269D01*
X437982Y366179D01*
X437938Y366074D01*
X437924Y365962D01*
X437938Y36585D01*
X437982Y365745D01*
X438051Y365655D01*
X43814Y365586D01*
X438245Y365543D01*
X438357Y365528D01*
X43847Y365543D01*
X438574Y365586D01*
X438664Y365655D01*
X438733Y365745D01*
X438776Y36585D01*
X438791Y365962D01*
X438776Y366074D01*
X438733Y366179D01*
X438664Y366269D01*
X438574Y366338D01*
X43847Y366381D01*
X438357Y366396D01*
D02*
G37*
G36*
X437357D02*
X437245Y366381D01*
X43714Y366338D01*
X437051Y366269D01*
X436982Y366179D01*
X436938Y366074D01*
X436924Y365962D01*
X436938Y36585D01*
X436982Y365745D01*
X437051Y365655D01*
X43714Y365586D01*
X437245Y365543D01*
X437357Y365528D01*
X43747Y365543D01*
X437574Y365586D01*
X437664Y365655D01*
X437733Y365745D01*
X437776Y36585D01*
X437791Y365962D01*
X437776Y366074D01*
X437733Y366179D01*
X437664Y366269D01*
X437574Y366338D01*
X43747Y366381D01*
X437357Y366396D01*
D02*
G37*
G36*
X436357Y363336D02*
X436187Y363319D01*
X436023Y36327D01*
X435872Y363189D01*
X435739Y36308D01*
X43563Y362948D01*
X43555Y362797D01*
X4355Y362633D01*
X435483Y362462D01*
X4355Y362291D01*
X43555Y362127D01*
X43563Y361976D01*
X435739Y361844D01*
X435872Y361735D01*
X436023Y361654D01*
X436187Y361605D01*
X436357Y361588D01*
X436528Y361605D01*
X436692Y361654D01*
X436843Y361735D01*
X436975Y361844D01*
X437084Y361976D01*
X437165Y362127D01*
X437215Y362291D01*
X437232Y362462D01*
X437215Y362633D01*
X437165Y362797D01*
X437084Y362948D01*
X436975Y36308D01*
X436843Y363189D01*
X436692Y36327D01*
X436528Y363319D01*
X436357Y363336D01*
D02*
G37*
G36*
X421567Y362692D02*
X421057D01*
Y361962D01*
X420882Y361787D01*
X418142D01*
X418037Y361682D01*
Y361482D01*
X418147Y361372D01*
X421427D01*
X421577Y361522D01*
X421567Y361532D01*
Y362692D01*
D02*
G37*
G36*
X437857Y365396D02*
X437745Y365381D01*
X43764Y365338D01*
X437551Y365269D01*
X437482Y365179D01*
X437438Y365074D01*
X437424Y364962D01*
X437438Y36485D01*
X437482Y364745D01*
X437551Y364655D01*
X43764Y364586D01*
X437745Y364543D01*
X437857Y364528D01*
X43797Y364543D01*
X438074Y364586D01*
X438164Y364655D01*
X438233Y364745D01*
X438276Y36485D01*
X438291Y364962D01*
X438276Y365074D01*
X438233Y365179D01*
X438164Y365269D01*
X438074Y365338D01*
X43797Y365381D01*
X437857Y365396D01*
D02*
G37*
G36*
X436857D02*
X436745Y365381D01*
X43664Y365338D01*
X436551Y365269D01*
X436482Y365179D01*
X436438Y365074D01*
X436424Y364962D01*
X436438Y36485D01*
X436482Y364745D01*
X436551Y364655D01*
X43664Y364586D01*
X436745Y364543D01*
X436857Y364528D01*
X43697Y364543D01*
X437074Y364586D01*
X437164Y364655D01*
X437233Y364745D01*
X437276Y36485D01*
X437291Y364962D01*
X437276Y365074D01*
X437233Y365179D01*
X437164Y365269D01*
X437074Y365338D01*
X43697Y365381D01*
X436857Y365396D01*
D02*
G37*
G36*
X412807Y37177D02*
Y371142D01*
X413435D01*
X413396Y371269D01*
X413317Y371416D01*
X413211Y371546D01*
X413082Y371652D01*
X412934Y371731D01*
X412807Y37177D01*
D02*
G37*
G36*
X431967Y383931D02*
X431859Y383917D01*
X431758Y383875D01*
X431671Y383808D01*
X431605Y383721D01*
X431563Y38362D01*
X431548Y383512D01*
X431563Y383404D01*
X431605Y383303D01*
X431671Y383216D01*
X431758Y383149D01*
X431859Y383107D01*
X431967Y383093D01*
X432076Y383107D01*
X432177Y383149D01*
X432263Y383216D01*
X43233Y383303D01*
X432372Y383404D01*
X432386Y383512D01*
X432372Y38362D01*
X43233Y383721D01*
X432263Y383808D01*
X432177Y383875D01*
X432076Y383917D01*
X431967Y383931D01*
D02*
G37*
G36*
X430967D02*
X430859Y383917D01*
X430758Y383875D01*
X430671Y383808D01*
X430605Y383721D01*
X430563Y38362D01*
X430548Y383512D01*
X430563Y383404D01*
X430605Y383303D01*
X430671Y383216D01*
X430758Y383149D01*
X430859Y383107D01*
X430967Y383093D01*
X431076Y383107D01*
X431177Y383149D01*
X431264Y383216D01*
X43133Y383303D01*
X431372Y383404D01*
X431386Y383512D01*
X431372Y38362D01*
X43133Y383721D01*
X431264Y383808D01*
X431177Y383875D01*
X431076Y383917D01*
X430967Y383931D01*
D02*
G37*
G36*
X430967Y384931D02*
X430859Y384917D01*
X430758Y384875D01*
X430671Y384808D01*
X430605Y384721D01*
X430563Y38462D01*
X430548Y384512D01*
X430563Y384404D01*
X430605Y384303D01*
X430671Y384216D01*
X430758Y384149D01*
X430859Y384107D01*
X430967Y384093D01*
X431076Y384107D01*
X431177Y384149D01*
X431264Y384216D01*
X43133Y384303D01*
X431372Y384404D01*
X431386Y384512D01*
X431372Y38462D01*
X43133Y384721D01*
X431264Y384808D01*
X431177Y384875D01*
X431076Y384917D01*
X430967Y384931D01*
D02*
G37*
G36*
X429657Y384921D02*
X429549Y384907D01*
X429448Y384865D01*
X429361Y384798D01*
X429295Y384711D01*
X429253Y38461D01*
X429238Y384502D01*
X429253Y384394D01*
X429295Y384293D01*
X429361Y384206D01*
X429448Y384139D01*
X429549Y384097D01*
X429657Y384083D01*
X429766Y384097D01*
X429867Y384139D01*
X429953Y384206D01*
X43002Y384293D01*
X430062Y384394D01*
X430076Y384502D01*
X430062Y38461D01*
X43002Y384711D01*
X429953Y384798D01*
X429867Y384865D01*
X429766Y384907D01*
X429657Y384921D01*
D02*
G37*
G36*
X41307Y379892D02*
X412987Y379881D01*
X41291Y379849D01*
X412844Y379798D01*
X412793Y379732D01*
X412761Y379655D01*
X41275Y379572D01*
X412761Y37949D01*
X412793Y379413D01*
X412844Y379346D01*
X41291Y379296D01*
X412987Y379264D01*
X41307Y379253D01*
X413153Y379264D01*
X41323Y379296D01*
X413296Y379346D01*
X413347Y379413D01*
X413379Y37949D01*
X413389Y379572D01*
X413379Y379655D01*
X413347Y379732D01*
X413296Y379798D01*
X41323Y379849D01*
X413153Y379881D01*
X41307Y379892D01*
D02*
G37*
G36*
X427207Y377835D02*
X427114Y377816D01*
X427036Y377764D01*
X426983Y377685D01*
X426971Y377624D01*
X426917Y377635D01*
X426824Y377616D01*
X426746Y377564D01*
X426693Y377485D01*
X426675Y377392D01*
X426693Y377299D01*
X426746Y37722D01*
X426824Y377168D01*
X426917Y377149D01*
X42701Y377168D01*
X427089Y37722D01*
X427142Y377299D01*
X427154Y37736D01*
X427207Y377349D01*
X427272Y377362D01*
X427283Y377309D01*
X427336Y37723D01*
X427414Y377178D01*
X427507Y377159D01*
X4276Y377178D01*
X427679Y37723D01*
X427732Y377309D01*
X42774Y377353D01*
X427807Y377339D01*
X4279Y377358D01*
X427979Y37741D01*
X428032Y377489D01*
X42805Y377582D01*
X428032Y377675D01*
X427979Y377754D01*
X4279Y377806D01*
X427807Y377825D01*
X427714Y377806D01*
X427636Y377754D01*
X427583Y377675D01*
X427574Y377631D01*
X427507Y377645D01*
X427442Y377632D01*
X427432Y377685D01*
X427379Y377764D01*
X4273Y377816D01*
X427207Y377835D01*
D02*
G37*
G36*
X429657Y383921D02*
X429549Y383907D01*
X429448Y383865D01*
X429361Y383798D01*
X429295Y383711D01*
X429253Y38361D01*
X429238Y383502D01*
X429253Y383394D01*
X429295Y383293D01*
X429361Y383206D01*
X429448Y383139D01*
X429549Y383097D01*
X429657Y383083D01*
X429766Y383097D01*
X429867Y383139D01*
X429953Y383206D01*
X43002Y383293D01*
X430062Y383394D01*
X430076Y383502D01*
X430062Y38361D01*
X43002Y383711D01*
X429953Y383798D01*
X429867Y383865D01*
X429766Y383907D01*
X429657Y383921D01*
D02*
G37*
G36*
X41307Y383042D02*
X412987Y383031D01*
X41291Y382999D01*
X412844Y382948D01*
X412793Y382882D01*
X412761Y382805D01*
X41275Y382722D01*
X412761Y382639D01*
X412793Y382562D01*
X412844Y382496D01*
X41291Y382445D01*
X412987Y382413D01*
X41307Y382402D01*
X413153Y382413D01*
X41323Y382445D01*
X413296Y382496D01*
X413347Y382562D01*
X413379Y382639D01*
X413389Y382722D01*
X413379Y382805D01*
X413347Y382882D01*
X413296Y382948D01*
X41323Y382999D01*
X413153Y383031D01*
X41307Y383042D01*
D02*
G37*
G36*
X431967Y384931D02*
X431859Y384917D01*
X431758Y384875D01*
X431671Y384808D01*
X431605Y384721D01*
X431563Y38462D01*
X431548Y384512D01*
X431563Y384404D01*
X431605Y384303D01*
X431671Y384216D01*
X431758Y384149D01*
X431859Y384107D01*
X431967Y384093D01*
X432076Y384107D01*
X432177Y384149D01*
X432263Y384216D01*
X43233Y384303D01*
X432372Y384404D01*
X432386Y384512D01*
X432372Y38462D01*
X43233Y384721D01*
X432263Y384808D01*
X432177Y384875D01*
X432076Y384917D01*
X431967Y384931D01*
D02*
G37*
G36*
X426177Y385921D02*
X426069Y385907D01*
X425968Y385865D01*
X425881Y385798D01*
X425815Y385711D01*
X425773Y38561D01*
X425758Y385502D01*
X425773Y385394D01*
X425815Y385293D01*
X425881Y385206D01*
X425968Y385139D01*
X426069Y385097D01*
X426177Y385083D01*
X426286Y385097D01*
X426387Y385139D01*
X426474Y385206D01*
X42654Y385293D01*
X426582Y385394D01*
X426596Y385502D01*
X426582Y38561D01*
X42654Y385711D01*
X426474Y385798D01*
X426387Y385865D01*
X426286Y385907D01*
X426177Y385921D01*
D02*
G37*
G36*
X425177D02*
X425069Y385907D01*
X424968Y385865D01*
X424881Y385798D01*
X424815Y385711D01*
X424773Y38561D01*
X424758Y385502D01*
X424773Y385394D01*
X424815Y385293D01*
X424881Y385206D01*
X424968Y385139D01*
X425069Y385097D01*
X425177Y385083D01*
X425286Y385097D01*
X425387Y385139D01*
X425474Y385206D01*
X42554Y385293D01*
X425582Y385394D01*
X425596Y385502D01*
X425582Y38561D01*
X42554Y385711D01*
X425474Y385798D01*
X425387Y385865D01*
X425286Y385907D01*
X425177Y385921D01*
D02*
G37*
G36*
X427252Y385941D02*
Y385577D01*
X427617D01*
X427611Y385618D01*
X427566Y385727D01*
X427495Y38582D01*
X427402Y385891D01*
X427294Y385936D01*
X427252Y385941D01*
D02*
G37*
G36*
X427102Y385941D02*
X427061Y385936D01*
X426953Y385891D01*
X42686Y38582D01*
X426788Y385727D01*
X426744Y385618D01*
X426738Y385577D01*
X427102D01*
Y385941D01*
D02*
G37*
G36*
X427252Y384941D02*
Y384577D01*
X427617D01*
X427611Y384618D01*
X427566Y384727D01*
X427495Y38482D01*
X427402Y384891D01*
X427294Y384936D01*
X427252Y384941D01*
D02*
G37*
G36*
X427102Y384941D02*
X427061Y384936D01*
X426953Y384891D01*
X42686Y38482D01*
X426788Y384727D01*
X426744Y384618D01*
X426738Y384577D01*
X427102D01*
Y384941D01*
D02*
G37*
G36*
Y385427D02*
X426738D01*
X426744Y385386D01*
X426788Y385277D01*
X42686Y385184D01*
X426953Y385113D01*
X427061Y385068D01*
X427102Y385063D01*
Y385427D01*
D02*
G37*
G36*
X427617D02*
X427252D01*
Y385063D01*
X427294Y385068D01*
X427402Y385113D01*
X427495Y385184D01*
X427566Y385277D01*
X427611Y385386D01*
X427617Y385427D01*
D02*
G37*
G36*
X415925Y377309D02*
X415747Y377292D01*
X415576Y37724D01*
X415419Y377156D01*
X41528Y377042D01*
X415167Y376904D01*
X415083Y376747D01*
X415031Y376576D01*
X415013Y376398D01*
X415031Y37622D01*
X415083Y376049D01*
X415167Y375891D01*
X41528Y375753D01*
X415419Y375639D01*
X415576Y375555D01*
X415747Y375503D01*
X415925Y375486D01*
X416103Y375503D01*
X416274Y375555D01*
X416432Y375639D01*
X41657Y375753D01*
X416683Y375891D01*
X416768Y376049D01*
X416819Y37622D01*
X416837Y376398D01*
X416819Y376576D01*
X416768Y376747D01*
X416683Y376904D01*
X41657Y377042D01*
X416432Y377156D01*
X416274Y37724D01*
X416103Y377292D01*
X415925Y377309D01*
D02*
G37*
G36*
X426877Y373005D02*
X426784Y372986D01*
X426706Y372934D01*
X426653Y372855D01*
X426635Y372762D01*
X426653Y372669D01*
X426706Y37259D01*
X426784Y372538D01*
X426877Y372519D01*
X4269Y372497D01*
X426895Y372472D01*
X426913Y372379D01*
X426966Y3723D01*
X427044Y372248D01*
X4271Y372237D01*
X427137Y372218D01*
X427137Y372182D01*
X427125Y372122D01*
X427143Y372029D01*
X427196Y37195D01*
X427274Y371898D01*
X427367Y371879D01*
X42746Y371898D01*
X427479Y37191D01*
X427506Y37187D01*
X427584Y371818D01*
X427677Y371799D01*
X42777Y371818D01*
X427849Y37187D01*
X427902Y371949D01*
X42792Y372042D01*
X427902Y372135D01*
X427849Y372214D01*
X42777Y372266D01*
X427677Y372285D01*
X427584Y372266D01*
X427566Y372254D01*
X427539Y372294D01*
X42746Y372346D01*
X427404Y372357D01*
X427368Y372376D01*
X427368Y372412D01*
X42738Y372472D01*
X427362Y372565D01*
X427309Y372644D01*
X42723Y372696D01*
X427137Y372715D01*
X427115Y372737D01*
X42712Y372762D01*
X427102Y372855D01*
X427049Y372934D01*
X42697Y372986D01*
X426877Y373005D01*
D02*
G37*
G36*
X432367Y372645D02*
X432274Y372626D01*
X432196Y372574D01*
X432143Y372495D01*
X432125Y372402D01*
X432143Y372309D01*
X432196Y37223D01*
X432274Y372178D01*
X432339Y372165D01*
X432356Y372161D01*
Y37211D01*
X432341Y372107D01*
X432284Y372096D01*
X432206Y372044D01*
X432153Y371965D01*
X432135Y371872D01*
X432153Y371779D01*
X432206Y3717D01*
X432284Y371648D01*
X432377Y371629D01*
X43247Y371648D01*
X432549Y3717D01*
X432602Y371779D01*
X43262Y371872D01*
X432602Y371965D01*
X432549Y372044D01*
X43247Y372096D01*
X432405Y372109D01*
X432389Y372112D01*
Y372163D01*
X432404Y372166D01*
X43246Y372178D01*
X432539Y37223D01*
X432592Y372309D01*
X43261Y372402D01*
X432592Y372495D01*
X432539Y372574D01*
X43246Y372626D01*
X432367Y372645D01*
D02*
G37*
G36*
X429577Y372525D02*
X429484Y372506D01*
X429406Y372454D01*
X429353Y372375D01*
X429335Y372282D01*
X429343Y372239D01*
X429301Y372196D01*
X429257Y372205D01*
X429164Y372186D01*
X429086Y372134D01*
X429033Y372055D01*
X429015Y371962D01*
X429033Y371869D01*
X429086Y37179D01*
X429164Y371738D01*
X429257Y371719D01*
X42935Y371738D01*
X429429Y37179D01*
X429482Y371869D01*
X4295Y371962D01*
X429491Y372005D01*
X429534Y372048D01*
X429577Y372039D01*
X42967Y372058D01*
X429749Y37211D01*
X429802Y372189D01*
X42982Y372282D01*
X429802Y372375D01*
X429749Y372454D01*
X42967Y372506D01*
X429577Y372525D01*
D02*
G37*
G36*
X431857Y372345D02*
X431764Y372326D01*
X431686Y372274D01*
X431633Y372195D01*
X431615Y372102D01*
X431633Y372009D01*
X431686Y37193D01*
X431764Y371878D01*
X431857Y371859D01*
X43195Y371878D01*
X432029Y37193D01*
X432082Y372009D01*
X4321Y372102D01*
X432082Y372195D01*
X432029Y372274D01*
X43195Y372326D01*
X431857Y372345D01*
D02*
G37*
G36*
X424197Y371745D02*
X424104Y371726D01*
X424026Y371674D01*
X423973Y371595D01*
X423955Y371502D01*
X423973Y371409D01*
X424026Y37133D01*
X424104Y371278D01*
X424197Y371259D01*
X42429Y371278D01*
X424369Y37133D01*
X424422Y371409D01*
X42444Y371502D01*
X424422Y371595D01*
X424369Y371674D01*
X42429Y371726D01*
X424197Y371745D01*
D02*
G37*
G36*
X430407Y372105D02*
X430314Y372086D01*
X430236Y372034D01*
X430183Y371955D01*
X430165Y371862D01*
X430183Y371769D01*
X430236Y37169D01*
X430288Y371655D01*
X430302Y371593D01*
X430283Y371565D01*
X430265Y371472D01*
X430283Y371379D01*
X430336Y3713D01*
X430414Y371248D01*
X430507Y371229D01*
X4306Y371248D01*
X430679Y3713D01*
X430732Y371379D01*
X43075Y371472D01*
X430732Y371565D01*
X430679Y371644D01*
X430627Y371679D01*
X430613Y371741D01*
X430632Y371769D01*
X43065Y371862D01*
X430632Y371955D01*
X430579Y372034D01*
X4305Y372086D01*
X430407Y372105D01*
D02*
G37*
G36*
X426437Y371775D02*
X426344Y371756D01*
X426266Y371704D01*
X426213Y371625D01*
X426211Y371614D01*
X426157Y371601D01*
X42609Y371646D01*
X425997Y371665D01*
X425904Y371646D01*
X425826Y371594D01*
X425773Y371515D01*
X425755Y371422D01*
X425773Y371329D01*
X425826Y37125D01*
X425904Y371198D01*
X425997Y371179D01*
X42609Y371198D01*
X426169Y37125D01*
X426222Y371329D01*
X426224Y37134D01*
X426277Y371353D01*
X426344Y371308D01*
X426437Y371289D01*
X42653Y371308D01*
X426609Y37136D01*
X426662Y371439D01*
X42668Y371532D01*
X426662Y371625D01*
X426609Y371704D01*
X42653Y371756D01*
X426437Y371775D01*
D02*
G37*
G36*
X438787Y372155D02*
X438694Y372136D01*
X438616Y372084D01*
X438563Y372005D01*
X438545Y371912D01*
X438563Y371819D01*
X438596Y371769D01*
X438553Y371705D01*
X438535Y371612D01*
X438553Y371519D01*
X438606Y37144D01*
X438684Y371388D01*
X438777Y371369D01*
X43887Y371388D01*
X438949Y37144D01*
X439002Y371519D01*
X43902Y371612D01*
X439002Y371705D01*
X438968Y371754D01*
X439012Y371819D01*
X43903Y371912D01*
X439012Y372005D01*
X438959Y372084D01*
X43888Y372136D01*
X438787Y372155D01*
D02*
G37*
G36*
X423617Y372765D02*
X423524Y372746D01*
X423446Y372694D01*
X423393Y372615D01*
X423375Y372522D01*
X423393Y372429D01*
X423446Y37235D01*
X423524Y372298D01*
X423617Y372279D01*
X42371Y372298D01*
X423789Y37235D01*
X423842Y372429D01*
X42386Y372522D01*
X423842Y372615D01*
X423789Y372694D01*
X42371Y372746D01*
X423617Y372765D01*
D02*
G37*
G36*
X424407Y374385D02*
X424314Y374366D01*
X424236Y374314D01*
X424183Y374235D01*
X424165Y374142D01*
X424176Y374083D01*
X424131Y374053D01*
X424126Y374056D01*
X424033Y374075D01*
X42394Y374056D01*
X423862Y374004D01*
X423809Y373925D01*
X423791Y373832D01*
X423809Y373739D01*
X423862Y37366D01*
X42394Y373608D01*
X424033Y373589D01*
X424126Y373608D01*
X424205Y37366D01*
X424258Y373739D01*
X424276Y373832D01*
X424264Y373891D01*
X424309Y373921D01*
X424314Y373918D01*
X424407Y373899D01*
X4245Y373918D01*
X424579Y37397D01*
X424632Y374049D01*
X42465Y374142D01*
X424632Y374235D01*
X424579Y374314D01*
X4245Y374366D01*
X424407Y374385D01*
D02*
G37*
G36*
X427397Y374445D02*
X427304Y374426D01*
X427226Y374374D01*
X427173Y374295D01*
X427155Y374202D01*
X427173Y374109D01*
X427226Y37403D01*
X427304Y373978D01*
X427397Y373959D01*
X42747Y373974D01*
X42751Y373941D01*
X427513Y373935D01*
X427505Y373892D01*
X427523Y373799D01*
X427576Y37372D01*
X427654Y373668D01*
X427747Y373649D01*
X42784Y373668D01*
X427919Y37372D01*
X427972Y373799D01*
X42799Y373892D01*
X427972Y373985D01*
X427919Y374064D01*
X42784Y374116D01*
X427747Y374135D01*
X427675Y37412D01*
X427634Y374153D01*
X427631Y374159D01*
X42764Y374202D01*
X427622Y374295D01*
X427569Y374374D01*
X42749Y374426D01*
X427397Y374445D01*
D02*
G37*
G36*
X428507Y375765D02*
X428414Y375746D01*
X428336Y375694D01*
X428283Y375615D01*
X428265Y375522D01*
X428283Y375429D01*
X428336Y37535D01*
X428414Y375298D01*
X428507Y375279D01*
X4286Y375298D01*
X428679Y37535D01*
X428732Y375429D01*
X42875Y375522D01*
X428732Y375615D01*
X428679Y375694D01*
X4286Y375746D01*
X428507Y375765D01*
D02*
G37*
G36*
X427507D02*
X427414Y375746D01*
X427336Y375694D01*
X427283Y375615D01*
X427265Y375522D01*
X427283Y375429D01*
X427336Y37535D01*
X427414Y375298D01*
X427507Y375279D01*
X4276Y375298D01*
X427679Y37535D01*
X427732Y375429D01*
X42775Y375522D01*
X427732Y375615D01*
X427679Y375694D01*
X4276Y375746D01*
X427507Y375765D01*
D02*
G37*
G36*
X431847Y372935D02*
X431754Y372916D01*
X431676Y372864D01*
X431623Y372785D01*
X431605Y372692D01*
X431623Y372599D01*
X431676Y37252D01*
X431754Y372468D01*
X431847Y372449D01*
X43194Y372468D01*
X432019Y37252D01*
X432072Y372599D01*
X43209Y372692D01*
X432072Y372785D01*
X432019Y372864D01*
X43194Y372916D01*
X431847Y372935D01*
D02*
G37*
G36*
X430007Y372885D02*
X429914Y372866D01*
X429836Y372814D01*
X429783Y372735D01*
X429765Y372642D01*
X429783Y372549D01*
X429836Y37247D01*
X429914Y372418D01*
X430007Y372399D01*
X4301Y372418D01*
X430107Y372422D01*
X430156Y37235D01*
X430234Y372298D01*
X430327Y372279D01*
X43042Y372298D01*
X430499Y37235D01*
X430552Y372429D01*
X43057Y372522D01*
X430552Y372615D01*
X430499Y372694D01*
X43042Y372746D01*
X430327Y372765D01*
X430234Y372746D01*
X430227Y372741D01*
X430179Y372814D01*
X4301Y372866D01*
X430007Y372885D01*
D02*
G37*
G36*
X428607Y373785D02*
X428514Y373766D01*
X428436Y373714D01*
X428383Y373635D01*
X428365Y373542D01*
X428383Y373449D01*
X428436Y37337D01*
X428514Y373318D01*
X428526Y373315D01*
X428532Y37328D01*
X42853Y373264D01*
X428456Y373214D01*
X428403Y373135D01*
X428385Y373042D01*
X428403Y372949D01*
X428456Y37287D01*
X428534Y372818D01*
X428627Y372799D01*
X42872Y372818D01*
X428799Y37287D01*
X428852Y372949D01*
X42887Y373042D01*
X428852Y373135D01*
X428799Y373214D01*
X42872Y373266D01*
X428709Y373268D01*
X428703Y373304D01*
X428704Y37332D01*
X428779Y37337D01*
X428832Y373449D01*
X42885Y373542D01*
X428832Y373635D01*
X428779Y373714D01*
X4287Y373766D01*
X428607Y373785D01*
D02*
G37*
G36*
X432367Y373265D02*
X432274Y373246D01*
X432196Y373194D01*
X432143Y373115D01*
X432125Y373022D01*
X432143Y372929D01*
X432196Y37285D01*
X432274Y372798D01*
X432367Y372779D01*
X43246Y372798D01*
X432539Y37285D01*
X432592Y372929D01*
X43261Y373022D01*
X432592Y373115D01*
X432539Y373194D01*
X43246Y373246D01*
X432367Y373265D01*
D02*
G37*
%LPD*%
D21*
X428177Y385502D02*
D03*
D51*
X435428Y361131D02*
X437117D01*
X433707Y362852D02*
X435428Y361131D01*
X433707Y362852D02*
Y364862D01*
D53*
X428387Y386122D02*
X431747D01*
X428177Y385912D02*
X428387Y386122D01*
X428177Y384702D02*
Y385912D01*
X431967Y385512D02*
Y385902D01*
X431747Y386122D02*
X431967Y385902D01*
X428177Y376062D02*
X428187Y376052D01*
D58*
X441668Y363663D02*
D03*
X435546D02*
D03*
D59*
X437117Y361131D02*
D03*
X440097Y360533D02*
D03*
D61*
X426337Y360222D02*
D03*
Y361222D02*
D03*
X431967Y385512D02*
D03*
X429507Y360242D02*
D03*
X428177Y384502D02*
D03*
X427177Y385502D02*
D03*
Y384502D02*
D03*
D62*
X430967Y385512D02*
D03*
X429657Y385502D02*
D03*
D63*
X412607Y370942D02*
D03*
D65*
X440317Y386452D02*
D03*
X440197Y385912D02*
D03*
X440207Y385352D02*
D03*
X440317Y384752D02*
D03*
X445417Y373452D02*
D03*
X444917D02*
D03*
X444417D02*
D03*
X443917D02*
D03*
X443417D02*
D03*
X442917D02*
D03*
X442417D02*
D03*
X441917D02*
D03*
X441417D02*
D03*
X440917D02*
D03*
X440317Y373652D02*
D03*
Y374252D02*
D03*
Y374752D02*
D03*
Y376252D02*
D03*
Y376752D02*
D03*
Y377252D02*
D03*
Y377752D02*
D03*
Y378252D02*
D03*
Y378752D02*
D03*
Y379252D02*
D03*
Y379752D02*
D03*
Y380252D02*
D03*
Y380752D02*
D03*
Y381252D02*
D03*
Y381752D02*
D03*
Y382252D02*
D03*
Y382852D02*
D03*
X431457Y361952D02*
D03*
X427517Y376372D02*
D03*
X429697Y376302D02*
D03*
X429057Y376292D02*
D03*
X439124Y384709D02*
D03*
X439687Y384252D02*
D03*
X440197Y384222D02*
D03*
X440187Y375072D02*
D03*
X417007Y384192D02*
D03*
X41654Y383824D02*
D03*
X41745D02*
D03*
X417007Y378582D02*
D03*
Y377602D02*
D03*
X417502Y378076D02*
D03*
X417075Y369384D02*
D03*
Y368354D02*
D03*
X417697Y368892D02*
D03*
X412507Y372352D02*
D03*
X419737Y385152D02*
D03*
X415967Y385122D02*
D03*
X417337Y384602D02*
D03*
X417687D02*
D03*
X419307Y369672D02*
D03*
X418907D02*
D03*
X418507D02*
D03*
X419307Y370042D02*
D03*
Y370412D02*
D03*
Y370782D02*
D03*
X418907Y370792D02*
D03*
X418507D02*
D03*
X420297Y380102D02*
D03*
X424187Y372852D02*
D03*
X418987Y381412D02*
D03*
X417967Y382052D02*
D03*
X418097Y380912D02*
D03*
X427897Y375832D02*
D03*
X426181Y365157D02*
D03*
X426772Y365551D02*
D03*
X425591D02*
D03*
X439173Y360827D02*
D03*
X438189D02*
D03*
X439173Y361614D02*
D03*
X438189D02*
D03*
Y362402D02*
D03*
X439173D02*
D03*
Y363189D02*
D03*
X438189D02*
D03*
X437205Y36378D02*
D03*
X438189D02*
D03*
X439173D02*
D03*
X439961D02*
D03*
X442913Y363189D02*
D03*
X444882D02*
D03*
X432157Y367072D02*
D03*
X418387Y372052D02*
D03*
X428427Y367992D02*
D03*
X433257Y359602D02*
D03*
X433507Y359822D02*
D03*
X433827Y359612D02*
D03*
X433837Y359962D02*
D03*
X434597Y359802D02*
D03*
Y360172D02*
D03*
X434257Y359682D02*
D03*
Y360002D02*
D03*
X434597Y360522D02*
D03*
X434887Y362202D02*
D03*
X434847Y362612D02*
D03*
X434637Y364582D02*
D03*
Y364982D02*
D03*
X434287Y364792D02*
D03*
Y365172D02*
D03*
X433857Y364982D02*
D03*
X433507Y364802D02*
D03*
Y365172D02*
D03*
X432977Y366802D02*
D03*
X426817Y367322D02*
D03*
X425577Y367342D02*
D03*
X423228Y366437D02*
D03*
X424409Y365453D02*
D03*
Y365945D02*
D03*
Y366437D02*
D03*
X423819D02*
D03*
Y365453D02*
D03*
Y365945D02*
D03*
X423228Y365453D02*
D03*
Y365945D02*
D03*
X422638Y365453D02*
D03*
Y365945D02*
D03*
X422047Y365453D02*
D03*
Y365945D02*
D03*
X422638Y366437D02*
D03*
X422047D02*
D03*
X418307Y366417D02*
D03*
Y366831D02*
D03*
X420557Y365272D02*
D03*
X420192D02*
D03*
X419827D02*
D03*
X42667Y367995D02*
D03*
X434517Y372162D02*
D03*
X427807Y366992D02*
D03*
Y366412D02*
D03*
X437347Y372992D02*
D03*
X439322Y373527D02*
D03*
X437997Y374592D02*
D03*
X437197Y374562D02*
D03*
X436617Y374552D02*
D03*
X43001Y367939D02*
D03*
X424177Y370012D02*
D03*
X432057Y371182D02*
D03*
X434821Y372162D02*
D03*
X434571Y374138D02*
D03*
X437177Y370022D02*
D03*
X437607Y367142D02*
D03*
X440127Y367152D02*
D03*
X439787Y370892D02*
D03*
X439797Y370582D02*
D03*
X435171Y369438D02*
D03*
X434441Y369458D02*
D03*
X434631Y370618D02*
D03*
X418307Y366004D02*
D03*
Y365591D02*
D03*
X417787D02*
D03*
Y366004D02*
D03*
Y366417D02*
D03*
Y366831D02*
D03*
X417267D02*
D03*
X416747D02*
D03*
X416227D02*
D03*
X415708D02*
D03*
X415188D02*
D03*
Y366378D02*
D03*
Y365886D02*
D03*
Y365394D02*
D03*
Y364902D02*
D03*
X419987Y364943D02*
D03*
X420367D02*
D03*
X419977Y362893D02*
D03*
X420357D02*
D03*
X419977Y362538D02*
D03*
X420357D02*
D03*
X419977Y362183D02*
D03*
X420357D02*
D03*
X431247Y367442D02*
D03*
X431587D02*
D03*
X431927D02*
D03*
X432157Y36671D02*
D03*
Y366344D02*
D03*
Y365978D02*
D03*
Y365612D02*
D03*
X424606Y363189D02*
D03*
Y363583D02*
D03*
Y363976D02*
D03*
X425D02*
D03*
Y363583D02*
D03*
Y363189D02*
D03*
X425394Y363976D02*
D03*
Y363189D02*
D03*
Y363583D02*
D03*
X435601Y372848D02*
D03*
X432047Y373902D02*
D03*
Y374292D02*
D03*
X439187Y373002D02*
D03*
X432817Y367982D02*
D03*
X431827Y361952D02*
D03*
X432217Y363482D02*
D03*
Y363099D02*
D03*
Y362717D02*
D03*
Y362334D02*
D03*
X431087Y361952D02*
D03*
X432197D02*
D03*
X432217Y364992D02*
D03*
Y364642D02*
D03*
Y364292D02*
D03*
Y363942D02*
D03*
X41516Y371233D02*
D03*
Y371627D02*
D03*
X415553Y371922D02*
D03*
Y37143D02*
D03*
X415947Y3733D02*
D03*
X419097Y371332D02*
D03*
X419097Y371717D02*
D03*
X438907Y370072D02*
D03*
X438887Y369702D02*
D03*
X439027Y369362D02*
D03*
Y368972D02*
D03*
X438587Y368752D02*
D03*
X438327Y368412D02*
D03*
X438887Y368452D02*
D03*
X417107Y374082D02*
D03*
X416477D02*
D03*
X415947D02*
D03*
X419107Y372102D02*
D03*
X424409Y366831D02*
D03*
X423819D02*
D03*
X423228D02*
D03*
X422638D02*
D03*
X422047D02*
D03*
X433267Y371562D02*
D03*
X426357Y372622D02*
D03*
X426577Y372262D02*
D03*
X426917Y371952D02*
D03*
X425937Y372342D02*
D03*
X426247Y372072D02*
D03*
X421787Y376757D02*
D03*
Y378612D02*
D03*
X421327Y376538D02*
D03*
Y378421D02*
D03*
X418796Y380952D02*
D03*
X420001Y379743D02*
D03*
X429232Y374213D02*
D03*
X430512Y373524D02*
D03*
X429921D02*
D03*
X429331D02*
D03*
X430413Y374213D02*
D03*
X429823D02*
D03*
X429331Y372835D02*
D03*
X435039Y382874D02*
D03*
X437008D02*
D03*
X438976D02*
D03*
X435039Y380905D02*
D03*
X437008D02*
D03*
X438976D02*
D03*
Y378937D02*
D03*
X437008D02*
D03*
X435039D02*
D03*
Y376968D02*
D03*
X437008D02*
D03*
X438976D02*
D03*
X443898Y365157D02*
D03*
Y367126D02*
D03*
Y369095D02*
D03*
Y371063D02*
D03*
Y373032D02*
D03*
X441929Y371063D02*
D03*
Y369095D02*
D03*
Y367126D02*
D03*
Y365157D02*
D03*
X432283Y382087D02*
D03*
X429528D02*
D03*
Y379331D02*
D03*
X432283D02*
D03*
Y378543D02*
D03*
X429528Y377756D02*
D03*
X430905D02*
D03*
X432283D02*
D03*
X430905Y379331D02*
D03*
X428346Y382087D02*
D03*
X426378D02*
D03*
Y379921D02*
D03*
X428346D02*
D03*
Y377756D02*
D03*
X424803Y382087D02*
D03*
X423425D02*
D03*
Y380315D02*
D03*
X424803D02*
D03*
X421654Y382087D02*
D03*
X419882D02*
D03*
X415945D02*
D03*
X41378D02*
D03*
X415945Y379921D02*
D03*
X41378D02*
D03*
X415945Y384055D02*
D03*
X419882Y37815D02*
D03*
X412992Y375787D02*
D03*
X413386Y375197D02*
D03*
X414567D02*
D03*
X415945D02*
D03*
X417323D02*
D03*
X418701D02*
D03*
X420079D02*
D03*
X42126Y374606D02*
D03*
X42185Y374016D02*
D03*
X421654Y373425D02*
D03*
X420866Y374213D02*
D03*
X420079Y374409D02*
D03*
X418701D02*
D03*
X417323D02*
D03*
X415945D02*
D03*
X414567D02*
D03*
X413386D02*
D03*
X412205Y375197D02*
D03*
X421654Y371457D02*
D03*
X420079D02*
D03*
Y372835D02*
D03*
X421654D02*
D03*
Y368898D02*
D03*
X420079D02*
D03*
X418701D02*
D03*
Y367717D02*
D03*
X420079D02*
D03*
X421654D02*
D03*
X414567Y372441D02*
D03*
X426772Y362598D02*
D03*
X425787Y362008D02*
D03*
X423228Y360827D02*
D03*
X421654D02*
D03*
X420079D02*
D03*
X418504D02*
D03*
X417017Y360842D02*
D03*
X417717Y359646D02*
D03*
X419291D02*
D03*
X420866D02*
D03*
X422441D02*
D03*
X437402Y385236D02*
D03*
X43622D02*
D03*
X435039D02*
D03*
X433858D02*
D03*
X432677D02*
D03*
Y383661D02*
D03*
X433457Y383992D02*
D03*
X437147Y366572D02*
D03*
X437637Y366552D02*
D03*
X436347D02*
D03*
X41717Y372934D02*
D03*
X417465D02*
D03*
Y37324D02*
D03*
X41717D02*
D03*
X42Y364366D02*
D03*
X420354D02*
D03*
X42Y363972D02*
D03*
X420354D02*
D03*
X42Y363578D02*
D03*
X420354D02*
D03*
D66*
X437417Y371132D02*
D03*
X436945D02*
D03*
X437417Y371604D02*
D03*
X436945D02*
D03*
M02*
