G04 Layer_Color=8421504*
%FSTAX24Y24*%
%MOIN*%
G70*
G01*
G75*
%ADD10R,0.0236X0.0394*%
%ADD11R,0.0300X0.0300*%
%ADD12R,0.0945X0.0291*%
%ADD13R,0.0197X0.0236*%
%ADD14R,0.0236X0.0197*%
%ADD15R,0.0500X0.0550*%
%ADD16R,0.0300X0.0300*%
%ADD17R,0.0354X0.0276*%
%ADD18R,0.0550X0.0500*%
%ADD19O,0.0335X0.0098*%
%ADD20O,0.0098X0.0335*%
%ADD21R,0.0591X0.0591*%
%ADD22R,0.0575X0.0118*%
%ADD23R,0.0118X0.0575*%
%ADD24O,0.0315X0.0118*%
%ADD25O,0.0118X0.0315*%
%ADD26R,0.0984X0.0984*%
%ADD27R,0.0433X0.0748*%
%ADD28R,0.0394X0.0354*%
%ADD29R,0.0965X0.0965*%
%ADD30R,0.0386X0.1339*%
%ADD31R,0.0622X0.1122*%
%ADD32O,0.0236X0.0094*%
%ADD33R,0.0079X0.0335*%
%ADD34R,0.0118X0.0236*%
%ADD35R,0.0945X0.0622*%
%ADD36R,0.0394X0.0709*%
%ADD37C,0.0400*%
%ADD38R,0.0846X0.0650*%
%ADD39R,0.0866X0.0472*%
%ADD40R,0.0630X0.0276*%
%ADD41R,0.0551X0.0472*%
%ADD42R,0.0551X0.0630*%
%ADD43R,0.0709X0.0394*%
%ADD44R,0.0276X0.0787*%
%ADD45R,0.0787X0.0276*%
%ADD46R,0.0354X0.0236*%
D10*
X433303Y368323D02*
D03*
X433677D02*
D03*
X434051D02*
D03*
Y367241D02*
D03*
X433677D02*
D03*
X433303D02*
D03*
D11*
X428737Y366412D02*
D03*
X428177D02*
D03*
X428737Y366982D02*
D03*
X428177D02*
D03*
X438581Y369238D02*
D03*
X438021D02*
D03*
X426437Y367632D02*
D03*
X425877D02*
D03*
X433707Y366302D02*
D03*
X434267D02*
D03*
X433707Y365732D02*
D03*
X434267D02*
D03*
X436791Y369228D02*
D03*
X437351D02*
D03*
X434857Y368282D02*
D03*
X435417D02*
D03*
X426867Y376022D02*
D03*
X427427D02*
D03*
D12*
X431555Y362435D02*
D03*
Y362935D02*
D03*
Y363435D02*
D03*
Y363935D02*
D03*
Y364435D02*
D03*
Y364935D02*
D03*
Y365435D02*
D03*
Y365935D02*
D03*
Y366435D02*
D03*
Y366935D02*
D03*
X43002Y362435D02*
D03*
Y362935D02*
D03*
Y363435D02*
D03*
Y363935D02*
D03*
Y364435D02*
D03*
Y364935D02*
D03*
Y365435D02*
D03*
Y365935D02*
D03*
Y366435D02*
D03*
Y366935D02*
D03*
D13*
X418377Y372545D02*
D03*
Y372939D02*
D03*
X416267Y373309D02*
D03*
X416267Y372915D02*
D03*
X424517Y370009D02*
D03*
Y369615D02*
D03*
X431717Y373905D02*
D03*
Y374299D02*
D03*
X431757Y371175D02*
D03*
Y371569D02*
D03*
X432327Y368555D02*
D03*
Y368949D02*
D03*
X438525Y370885D02*
D03*
Y370491D02*
D03*
X438895D02*
D03*
Y370885D02*
D03*
X435677Y372185D02*
D03*
Y372579D02*
D03*
X438668Y367939D02*
D03*
Y367545D02*
D03*
X439088D02*
D03*
Y367939D02*
D03*
X421227Y364106D02*
D03*
Y3645D02*
D03*
X41913Y364513D02*
D03*
Y364119D02*
D03*
X421517Y36322D02*
D03*
Y362826D02*
D03*
X424507Y372435D02*
D03*
Y372829D02*
D03*
D14*
X417984Y372052D02*
D03*
X41759D02*
D03*
X416784Y372012D02*
D03*
X41639D02*
D03*
X42785Y375522D02*
D03*
X428244D02*
D03*
X425974Y367112D02*
D03*
X42558D02*
D03*
X425734Y368262D02*
D03*
X42534D02*
D03*
X426814Y367102D02*
D03*
X42642D02*
D03*
X427064Y368252D02*
D03*
X42667D02*
D03*
X428824Y368232D02*
D03*
X42843D02*
D03*
X430404Y368222D02*
D03*
X43001D02*
D03*
X43329Y366772D02*
D03*
X433684D02*
D03*
X438114Y369708D02*
D03*
X438508D02*
D03*
Y370078D02*
D03*
X438114D02*
D03*
X43416Y362602D02*
D03*
X434554D02*
D03*
X434224Y360672D02*
D03*
X43383D02*
D03*
X434224Y360282D02*
D03*
X43383D02*
D03*
X438447Y372982D02*
D03*
X438841D02*
D03*
X437627Y372992D02*
D03*
X438021D02*
D03*
X437886Y367942D02*
D03*
X43828D02*
D03*
X439466Y367952D02*
D03*
X43986D02*
D03*
X434924Y370618D02*
D03*
X435318D02*
D03*
X434924Y370982D02*
D03*
X435318D02*
D03*
X434924Y371345D02*
D03*
X435318D02*
D03*
X434924Y371708D02*
D03*
X435318D02*
D03*
X434934Y373238D02*
D03*
X435328D02*
D03*
X435318Y373618D02*
D03*
X434924D02*
D03*
X435314Y374142D02*
D03*
X43492D02*
D03*
X437886Y367142D02*
D03*
X43828D02*
D03*
X43986Y367152D02*
D03*
X439466D02*
D03*
X438681Y367142D02*
D03*
X439075D02*
D03*
X42075Y362813D02*
D03*
X421144D02*
D03*
X422304Y363243D02*
D03*
X42191D02*
D03*
X41809Y381182D02*
D03*
X418484D02*
D03*
X43873Y384452D02*
D03*
X439124D02*
D03*
X42684Y375522D02*
D03*
X427234D02*
D03*
D15*
X417727Y371452D02*
D03*
X418627D02*
D03*
X416967D02*
D03*
X416067Y371452D02*
D03*
X416987Y370202D02*
D03*
X416087D02*
D03*
X418697Y370232D02*
D03*
X417797D02*
D03*
X414987Y363872D02*
D03*
X414087D02*
D03*
D16*
X439355Y370298D02*
D03*
Y370858D02*
D03*
X435201Y372758D02*
D03*
Y372198D02*
D03*
X436614Y374172D02*
D03*
Y373612D02*
D03*
X415597Y385122D02*
D03*
Y385682D02*
D03*
X418607Y385682D02*
D03*
X418607Y385122D02*
D03*
X418897Y373142D02*
D03*
X418897Y372582D02*
D03*
X414967Y385682D02*
D03*
X414967Y385122D02*
D03*
X424007Y372472D02*
D03*
Y371912D02*
D03*
X431867Y368312D02*
D03*
Y368872D02*
D03*
X417947Y385682D02*
D03*
Y385122D02*
D03*
X432817Y368312D02*
D03*
Y368872D02*
D03*
X437194Y374172D02*
D03*
Y373612D02*
D03*
X434841Y368858D02*
D03*
Y369418D02*
D03*
X436467Y367812D02*
D03*
Y367252D02*
D03*
X437147Y367812D02*
D03*
Y367252D02*
D03*
X434857Y367152D02*
D03*
Y367712D02*
D03*
X441297Y367832D02*
D03*
Y367272D02*
D03*
X440607Y367822D02*
D03*
Y367262D02*
D03*
X419347Y362653D02*
D03*
Y362093D02*
D03*
X41801Y362096D02*
D03*
Y362656D02*
D03*
X418637Y362093D02*
D03*
Y362653D02*
D03*
X431297Y368872D02*
D03*
Y368312D02*
D03*
X430007Y376232D02*
D03*
Y375672D02*
D03*
D17*
X436235Y369178D02*
D03*
X435487Y368922D02*
D03*
Y369434D02*
D03*
D18*
X433667Y364142D02*
D03*
Y363242D02*
D03*
X434437Y364152D02*
D03*
Y363252D02*
D03*
X42182Y363796D02*
D03*
Y364696D02*
D03*
X4226Y363796D02*
D03*
Y364696D02*
D03*
X42338Y363796D02*
D03*
Y364696D02*
D03*
X42416Y363796D02*
D03*
Y364696D02*
D03*
X4178Y363966D02*
D03*
Y364866D02*
D03*
X41856Y363966D02*
D03*
Y364866D02*
D03*
D19*
X417888Y372797D02*
D03*
Y372994D02*
D03*
X417888Y37319D02*
D03*
Y373387D02*
D03*
X416746D02*
D03*
Y37319D02*
D03*
X416746Y372994D02*
D03*
Y372797D02*
D03*
D20*
X417613Y373663D02*
D03*
X417416D02*
D03*
X417219D02*
D03*
X417022D02*
D03*
Y372521D02*
D03*
X417219D02*
D03*
X417416D02*
D03*
X417613D02*
D03*
D21*
X417317Y373092D02*
D03*
D22*
X425145Y374234D02*
D03*
Y374037D02*
D03*
Y37384D02*
D03*
Y373644D02*
D03*
Y373447D02*
D03*
Y37325D02*
D03*
Y373053D02*
D03*
Y372856D02*
D03*
Y372659D02*
D03*
Y372463D02*
D03*
Y372266D02*
D03*
Y372069D02*
D03*
Y371872D02*
D03*
Y371675D02*
D03*
Y371478D02*
D03*
Y371281D02*
D03*
Y371085D02*
D03*
Y370888D02*
D03*
Y370691D02*
D03*
Y370494D02*
D03*
Y370297D02*
D03*
Y3701D02*
D03*
Y369903D02*
D03*
Y369707D02*
D03*
Y36951D02*
D03*
X431149D02*
D03*
Y369707D02*
D03*
Y369903D02*
D03*
Y3701D02*
D03*
Y370297D02*
D03*
Y370494D02*
D03*
Y370691D02*
D03*
Y370888D02*
D03*
Y371085D02*
D03*
Y371281D02*
D03*
Y371478D02*
D03*
Y371675D02*
D03*
Y371872D02*
D03*
Y372069D02*
D03*
Y372266D02*
D03*
Y372463D02*
D03*
Y372659D02*
D03*
Y372856D02*
D03*
Y373053D02*
D03*
Y37325D02*
D03*
Y373447D02*
D03*
Y373644D02*
D03*
Y37384D02*
D03*
Y374037D02*
D03*
Y374234D02*
D03*
D23*
X425785Y36887D02*
D03*
X425982D02*
D03*
X426179D02*
D03*
X426376D02*
D03*
X426573D02*
D03*
X426769D02*
D03*
X426966D02*
D03*
X427163D02*
D03*
X42736D02*
D03*
X427557D02*
D03*
X427754D02*
D03*
X42795D02*
D03*
X428147D02*
D03*
X428344D02*
D03*
X428541D02*
D03*
X428738D02*
D03*
X428935D02*
D03*
X429132D02*
D03*
X429328D02*
D03*
X429525D02*
D03*
X429722D02*
D03*
X429919D02*
D03*
X430116D02*
D03*
X430313D02*
D03*
X43051D02*
D03*
Y374874D02*
D03*
X430313D02*
D03*
X430116D02*
D03*
X429919D02*
D03*
X429722D02*
D03*
X429525D02*
D03*
X429328D02*
D03*
X429132D02*
D03*
X428935D02*
D03*
X428738D02*
D03*
X428541D02*
D03*
X428344D02*
D03*
X428147D02*
D03*
X42795D02*
D03*
X427754D02*
D03*
X427557D02*
D03*
X42736D02*
D03*
X427163D02*
D03*
X426966D02*
D03*
X426769D02*
D03*
X426573D02*
D03*
X426376D02*
D03*
X426179D02*
D03*
X425982D02*
D03*
X425785D02*
D03*
D24*
X438008Y370876D02*
D03*
Y371073D02*
D03*
Y37127D02*
D03*
Y371467D02*
D03*
Y371663D02*
D03*
Y37186D02*
D03*
X436354D02*
D03*
Y371663D02*
D03*
Y371467D02*
D03*
Y37127D02*
D03*
Y371073D02*
D03*
Y370876D02*
D03*
D25*
X437673Y372195D02*
D03*
X437476D02*
D03*
X43728D02*
D03*
X437083D02*
D03*
X436886D02*
D03*
X436689D02*
D03*
Y370541D02*
D03*
X436886D02*
D03*
X437083D02*
D03*
X43728D02*
D03*
X437476D02*
D03*
X437673D02*
D03*
D26*
X437181Y371368D02*
D03*
D27*
X425725Y366392D02*
D03*
X426709D02*
D03*
D28*
X438001Y373527D02*
D03*
X438847D02*
D03*
Y374137D02*
D03*
X438001D02*
D03*
D29*
X416329Y363743D02*
D03*
Y366243D02*
D03*
D30*
X419731Y366202D02*
D03*
X420664D02*
D03*
D31*
X420177Y363972D02*
D03*
D32*
X419626Y364563D02*
D03*
Y364366D02*
D03*
Y364169D02*
D03*
Y363972D02*
D03*
Y363775D02*
D03*
Y363578D02*
D03*
Y363381D02*
D03*
X420728Y364563D02*
D03*
Y364366D02*
D03*
Y364169D02*
D03*
Y363972D02*
D03*
Y363775D02*
D03*
Y363578D02*
D03*
Y363381D02*
D03*
D33*
X420449Y364681D02*
D03*
X419905D02*
D03*
X420268D02*
D03*
X420086D02*
D03*
X420087Y363265D02*
D03*
X420268D02*
D03*
X419906D02*
D03*
X420449D02*
D03*
D34*
X433743Y361101D02*
D03*
X433999D02*
D03*
X434255D02*
D03*
X434511D02*
D03*
X433743Y362203D02*
D03*
X433999D02*
D03*
X434255D02*
D03*
X434511D02*
D03*
D35*
X434127Y361652D02*
D03*
D36*
X412507Y37575D02*
D03*
Y372994D02*
D03*
D37*
X412637Y364892D02*
D03*
X427297Y381042D02*
D03*
X442917Y371052D02*
D03*
D38*
X41554Y368892D02*
D03*
X417075D02*
D03*
D39*
X413227Y383824D02*
D03*
Y377722D02*
D03*
D40*
X41744Y383352D02*
D03*
Y382919D02*
D03*
Y382486D02*
D03*
Y382053D02*
D03*
Y38162D02*
D03*
Y381187D02*
D03*
Y380753D02*
D03*
Y38032D02*
D03*
Y379887D02*
D03*
D41*
X417007Y383824D02*
D03*
D42*
X417007Y378076D02*
D03*
D43*
X420219Y385142D02*
D03*
X422975D02*
D03*
D44*
X440187Y375597D02*
D03*
X439687Y375597D02*
D03*
X439187Y375597D02*
D03*
X438687Y375597D02*
D03*
X438187D02*
D03*
X437687Y375597D02*
D03*
X437187Y375597D02*
D03*
X436687Y375597D02*
D03*
X436187Y375597D02*
D03*
X435687Y375597D02*
D03*
X435187Y375597D02*
D03*
X434687Y375597D02*
D03*
X434187Y375597D02*
D03*
X434187Y383692D02*
D03*
X440187Y383692D02*
D03*
X439687D02*
D03*
X439187Y383692D02*
D03*
X438687Y383692D02*
D03*
X438187Y383692D02*
D03*
X437687Y383692D02*
D03*
X437187Y383692D02*
D03*
X436687D02*
D03*
X436187Y383692D02*
D03*
X435687Y383692D02*
D03*
X435187Y383692D02*
D03*
X434687D02*
D03*
D45*
X433187Y377645D02*
D03*
X433187Y378145D02*
D03*
X433187Y378645D02*
D03*
X433187Y379145D02*
D03*
Y379657D02*
D03*
Y380145D02*
D03*
X433187Y380645D02*
D03*
X433187Y381145D02*
D03*
X433187Y381645D02*
D03*
D46*
X428485Y375982D02*
D03*
X42939Y376356D02*
D03*
Y375608D02*
D03*
M02*
