G04 Layer_Color=16711935*
%FSTAX24Y24*%
%MOIN*%
G70*
G01*
G75*
%ADD124C,0.0039*%
D124*
X41778Y372826D02*
G03*
X41778Y372826I-000197J0D01*
G01*
X437811Y370935D02*
G03*
X437811Y370935I-000197J0D01*
G01*
X42064Y363509D02*
G03*
X42064Y363509I-000197J0D01*
G01*
X434058Y361386D02*
G03*
X434058Y361386I-000197J0D01*
G01*
X434278Y367437D02*
Y368126D01*
X433077Y367437D02*
Y368126D01*
X434278D01*
X433077Y367437D02*
X434278D01*
X428674Y366225D02*
Y366599D01*
X428113Y366225D02*
Y366599D01*
X428802D01*
X428113Y366225D02*
X428802D01*
X428241D02*
Y366599D01*
X428802Y366225D02*
Y366599D01*
X428674Y366795D02*
Y367169D01*
X428113Y366795D02*
Y367169D01*
X428802D01*
X428113Y366795D02*
X428802D01*
X428241D02*
Y367169D01*
X428802Y366795D02*
Y367169D01*
X418259Y372525D02*
Y372959D01*
X418495Y372525D02*
Y372959D01*
X418259Y372525D02*
X418495Y372525D01*
X418259Y372959D02*
X418495D01*
X418004Y371934D02*
Y37217D01*
X417571Y371934D02*
X417571Y37217D01*
X417571Y371934D02*
X418004Y371934D01*
X417571Y37217D02*
X418004D01*
X416371Y371894D02*
X416804D01*
X416371Y37213D02*
X416804Y37213D01*
Y371894D02*
Y37213D01*
X416371Y371894D02*
Y37213D01*
X416149Y373329D02*
X416385Y373329D01*
X416149Y372895D02*
X416385Y372895D01*
X416385Y373329D02*
X416385Y372895D01*
X416149Y372895D02*
Y373329D01*
X427831Y375404D02*
Y37564D01*
X428264Y375404D02*
Y37564D01*
X427831D02*
X428264D01*
X427831Y375404D02*
X428264D01*
X424399Y370028D02*
X424635D01*
X424399Y369595D02*
X424635D01*
Y370028D01*
X424399Y369595D02*
Y370028D01*
X425561Y366994D02*
X425994D01*
X425561Y36723D02*
X425994D01*
Y366994D02*
Y36723D01*
X425561Y366994D02*
Y36723D01*
X425754Y368144D02*
Y36838D01*
X425321Y368144D02*
Y36838D01*
Y368144D02*
X425754D01*
X425321Y36838D02*
X425754D01*
X431599Y373885D02*
Y374319D01*
X431835Y373885D02*
Y374319D01*
X431599Y373885D02*
X431835D01*
X431599Y374319D02*
X431835D01*
X426834Y366984D02*
Y36722D01*
X426401Y366984D02*
Y36722D01*
Y366984D02*
X426834D01*
X426401Y36722D02*
X426834D01*
X426651Y368134D02*
X427084D01*
X426651Y36837D02*
X427084D01*
Y368134D02*
Y36837D01*
X426651Y368134D02*
Y36837D01*
X428844Y368114D02*
Y36835D01*
X428411Y368114D02*
Y36835D01*
Y368114D02*
X428844D01*
X428411Y36835D02*
X428844D01*
X431639Y371155D02*
Y371589D01*
X431875Y371155D02*
Y371589D01*
X431639Y371155D02*
X431875D01*
X431639Y371589D02*
X431875D01*
X430424Y368104D02*
Y36834D01*
X429991Y368104D02*
Y36834D01*
Y368104D02*
X430424D01*
X429991Y36834D02*
X430424D01*
X433271Y36689D02*
X433704D01*
X433271Y366654D02*
X433704D01*
X433271D02*
Y36689D01*
X433704Y366654D02*
Y36689D01*
X432209Y368535D02*
X432445D01*
X432209Y368969D02*
X432445D01*
X432209Y368535D02*
Y368969D01*
X432445Y368535D02*
Y368969D01*
X438518Y369051D02*
Y369425D01*
X437957Y369051D02*
Y369425D01*
X438646D01*
X437957Y369051D02*
X438646D01*
X438085D02*
Y369425D01*
X438646Y369051D02*
Y369425D01*
X438095Y369826D02*
X438528D01*
X438095Y36959D02*
X438528D01*
X438095D02*
Y369826D01*
X438528Y36959D02*
Y369826D01*
Y36996D02*
Y370196D01*
X438095Y36996D02*
Y370196D01*
Y36996D02*
X438528D01*
X438095Y370196D02*
X438528D01*
X438643Y370472D02*
Y370905D01*
X438407Y370472D02*
Y370905D01*
X438643D01*
X438407Y370472D02*
X438643D01*
X438777D02*
X439013D01*
X438777Y370905D02*
X439013D01*
X438777Y370472D02*
Y370905D01*
X439013Y370472D02*
Y370905D01*
X439168Y370362D02*
X439542D01*
X439168Y370923D02*
X439542D01*
Y370234D02*
Y370923D01*
X439168Y370234D02*
Y370923D01*
Y370795D02*
X439542D01*
X439168Y370234D02*
X439542D01*
X434141Y36272D02*
X434574D01*
X434141Y362484D02*
X434574D01*
X434141D02*
Y36272D01*
X434574Y362484D02*
Y36272D01*
X435014Y372695D02*
X435388D01*
X435014Y372134D02*
X435388D01*
X435014D02*
Y372823D01*
X435388Y372134D02*
Y372823D01*
X435014Y372262D02*
X435388D01*
X435014Y372823D02*
X435388D01*
X434244Y360554D02*
Y36079D01*
X433811Y360554D02*
Y36079D01*
Y360554D02*
X434244D01*
X433811Y36079D02*
X434244D01*
X435559Y372165D02*
Y372598D01*
X435795Y372165D02*
Y372598D01*
X435559Y372165D02*
X435795D01*
X435559Y372598D02*
X435795D01*
X434244Y360164D02*
Y3604D01*
X433811Y360164D02*
Y3604D01*
Y360164D02*
X434244D01*
X433811Y3604D02*
X434244D01*
X436427Y374109D02*
X436801D01*
X436427Y373547D02*
X436801D01*
X436427D02*
Y374236D01*
X436801Y373547D02*
Y374236D01*
X436427Y373675D02*
X436801D01*
X436427Y374236D02*
X436801D01*
X438428Y3731D02*
X438861D01*
X438428Y372864D02*
X438861D01*
X438428D02*
Y3731D01*
X438861Y372864D02*
Y3731D01*
X437608Y372874D02*
Y37311D01*
X438041Y372874D02*
Y37311D01*
X437608D02*
X438041D01*
X437608Y372874D02*
X438041D01*
X437867Y36806D02*
X4383D01*
X437867Y367824D02*
X4383D01*
X437867D02*
Y36806D01*
X4383Y367824D02*
Y36806D01*
X43855Y367958D02*
X438786D01*
X43855Y367525D02*
X438786D01*
Y367958D01*
X43855Y367525D02*
Y367958D01*
X43897Y367525D02*
Y367958D01*
X439206Y367525D02*
Y367958D01*
X43897Y367525D02*
X439206D01*
X43897Y367958D02*
X439206D01*
X439447Y367834D02*
Y36807D01*
X43988Y367834D02*
Y36807D01*
X439447D02*
X43988D01*
X439447Y367834D02*
X43988D01*
X435595Y368745D02*
X436127D01*
X435595Y369611D02*
X436127D01*
Y368745D02*
Y369611D01*
X435595Y368745D02*
Y369611D01*
X41541Y385746D02*
X415784Y385746D01*
X41541Y385185D02*
X415784D01*
X415784Y385057D02*
Y385746D01*
X41541Y385057D02*
Y385746D01*
Y385057D02*
X415784Y385057D01*
X41541Y385619D02*
X415784D01*
X41842Y385619D02*
X418794D01*
X41842Y385057D02*
X418794D01*
X41842Y385746D02*
X41842Y385057D01*
X418794D02*
X418794Y385746D01*
X41842Y385185D02*
X418794D01*
X41842Y385746D02*
X418794D01*
X41871Y373078D02*
X419084Y373078D01*
X41871Y372517D02*
X419084D01*
X41871D02*
Y373206D01*
X419084Y372517D02*
Y373206D01*
X41871Y372645D02*
X419084Y372645D01*
X41871Y373206D02*
X419084Y373206D01*
X41478Y385619D02*
X415154Y385619D01*
X41478Y385057D02*
X415154D01*
X41478D02*
X41478Y385746D01*
X415154Y385057D02*
Y385746D01*
X41478Y385185D02*
X415154D01*
X41478Y385746D02*
X415154Y385746D01*
X42382Y372408D02*
X424194D01*
X42382Y371847D02*
X424194D01*
X42382D02*
Y372536D01*
X424194Y371847D02*
Y372536D01*
X42382Y371975D02*
X424194D01*
X42382Y372536D02*
X424194D01*
X426374Y367445D02*
Y367819D01*
X425813Y367445D02*
Y367819D01*
X426502D01*
X425813Y367445D02*
X426502D01*
X425941D02*
Y367819D01*
X426502Y367445D02*
Y367819D01*
X43168Y368375D02*
X432054D01*
X43168Y368936D02*
X432054D01*
Y368247D02*
Y368936D01*
X43168Y368247D02*
Y368936D01*
Y368809D02*
X432054D01*
X43168Y368247D02*
X432054D01*
X41776Y385619D02*
X418134Y385619D01*
X41776Y385057D02*
X418134Y385057D01*
X41776Y385746D02*
X41776Y385057D01*
X418134Y385057D02*
Y385746D01*
X41776Y385185D02*
X418134D01*
X41776Y385746D02*
X418134Y385746D01*
X43263Y368375D02*
X433004D01*
X43263Y368936D02*
X433004D01*
Y368247D02*
Y368936D01*
X43263Y368247D02*
Y368936D01*
Y368809D02*
X433004D01*
X43263Y368247D02*
X433004D01*
X433771Y366115D02*
Y366489D01*
X434332Y366115D02*
Y366489D01*
X433643Y366115D02*
X434332D01*
X433643Y366489D02*
X434332D01*
X434204Y366115D02*
Y366489D01*
X433643Y366115D02*
Y366489D01*
X433771Y365545D02*
Y365919D01*
X434332Y365545D02*
Y365919D01*
X433643Y365545D02*
X434332D01*
X433643Y365919D02*
X434332D01*
X434204Y365545D02*
Y365919D01*
X433643Y365545D02*
Y365919D01*
X436855Y369041D02*
Y369415D01*
X437416Y369041D02*
Y369415D01*
X436727Y369041D02*
X437416D01*
X436727Y369415D02*
X437416D01*
X437288Y369041D02*
Y369415D01*
X436727Y369041D02*
Y369415D01*
X434921Y368095D02*
Y368469D01*
X435482Y368095D02*
Y368469D01*
X434793Y368095D02*
X435482D01*
X434793Y368469D02*
X435482D01*
X435354Y368095D02*
Y368469D01*
X434793Y368095D02*
Y368469D01*
X434905Y370736D02*
X435338D01*
X434905Y3705D02*
X435338D01*
X434905D02*
Y370736D01*
X435338Y3705D02*
Y370736D01*
X434905Y3711D02*
X435338D01*
X434905Y370863D02*
X435338D01*
X434905D02*
Y3711D01*
X435338Y370863D02*
Y3711D01*
X434905Y371463D02*
X435338D01*
X434905Y371227D02*
X435338D01*
X434905D02*
Y371463D01*
X435338Y371227D02*
Y371463D01*
X434905Y371826D02*
X435338D01*
X434905Y37159D02*
X435338D01*
X434905D02*
Y371826D01*
X435338Y37159D02*
Y371826D01*
X434915Y373356D02*
X435348D01*
X434915Y37312D02*
X435348D01*
X434915D02*
Y373356D01*
X435348Y37312D02*
Y373356D01*
X434905Y3735D02*
X435338D01*
X434905Y373736D02*
X435338D01*
Y3735D02*
Y373736D01*
X434905Y3735D02*
Y373736D01*
X434901Y374024D02*
X435334D01*
X434901Y37426D02*
X435334D01*
Y374024D02*
Y37426D01*
X434901Y374024D02*
Y37426D01*
X437867Y36726D02*
X4383D01*
X437867Y367024D02*
X4383D01*
X437867D02*
Y36726D01*
X4383Y367024D02*
Y36726D01*
X439447Y367034D02*
X43988D01*
X439447Y36727D02*
X43988D01*
Y367034D02*
Y36727D01*
X439447Y367034D02*
Y36727D01*
X437007Y374109D02*
X437381D01*
X437007Y373547D02*
X437381D01*
X437007D02*
Y374236D01*
X437381Y373547D02*
Y374236D01*
X437007Y373675D02*
X437381D01*
X437007Y374236D02*
X437381D01*
X438662Y36726D02*
X439095D01*
X438662Y367024D02*
X439095D01*
X438662D02*
Y36726D01*
X439095Y367024D02*
Y36726D01*
X434654Y368922D02*
X435028D01*
X434654Y369483D02*
X435028D01*
Y368794D02*
Y369483D01*
X434654Y368794D02*
Y369483D01*
Y369355D02*
X435028D01*
X434654Y368794D02*
X435028D01*
X43628Y367748D02*
X436654D01*
X43628Y367187D02*
X436654D01*
X43628D02*
Y367876D01*
X436654Y367187D02*
Y367876D01*
X43628Y367315D02*
X436654D01*
X43628Y367876D02*
X436654D01*
X43696Y367748D02*
X437334D01*
X43696Y367187D02*
X437334D01*
X43696D02*
Y367876D01*
X437334Y367187D02*
Y367876D01*
X43696Y367315D02*
X437334D01*
X43696Y367876D02*
X437334D01*
X43467Y367215D02*
X435044D01*
X43467Y367776D02*
X435044D01*
Y367087D02*
Y367776D01*
X43467Y367087D02*
Y367776D01*
Y367649D02*
X435044D01*
X43467Y367087D02*
X435044D01*
X44111Y367769D02*
X441484D01*
X44111Y367207D02*
X441484D01*
X44111D02*
Y367896D01*
X441484Y367207D02*
Y367896D01*
X44111Y367335D02*
X441484D01*
X44111Y367896D02*
X441484D01*
X44042Y367758D02*
X440794D01*
X44042Y367197D02*
X440794D01*
X44042D02*
Y367886D01*
X440794Y367197D02*
Y367886D01*
X44042Y367325D02*
X440794D01*
X44042Y367886D02*
X440794D01*
X417937Y372472D02*
X417937Y373712D01*
X416697Y372472D02*
Y373712D01*
Y372472D02*
X417937D01*
X416697Y373712D02*
X417937Y373712D01*
X437988Y370561D02*
Y372175D01*
X436374Y370561D02*
Y372175D01*
Y370561D02*
X437988D01*
X436374Y372175D02*
X437988D01*
X425568Y366077D02*
Y366707D01*
X426867Y366077D02*
Y366707D01*
X425568D02*
X426867D01*
X425568Y366077D02*
X426867D01*
X421109Y364087D02*
Y36452D01*
X421345Y364087D02*
Y36452D01*
X421109Y364087D02*
X421345D01*
X421109Y36452D02*
X421345D01*
X415483Y363556D02*
X417176D01*
X415483Y36643D02*
X417176D01*
X415483Y363556D02*
Y36643D01*
X417176Y363556D02*
Y36643D01*
X419012Y364533D02*
X419248D01*
X419012Y3641D02*
X419248D01*
Y364533D01*
X419012Y3641D02*
Y364533D01*
X420731Y362931D02*
X421164D01*
X420731Y362695D02*
X421164D01*
X420731D02*
Y362931D01*
X421164Y362695D02*
Y362931D01*
X419351Y365355D02*
Y367048D01*
X421044Y365355D02*
Y367048D01*
X419351D02*
X421044D01*
X419351Y365355D02*
X421044D01*
X421891Y363125D02*
X422324D01*
X421891Y363361D02*
X422324D01*
Y363125D02*
Y363361D01*
X421891Y363125D02*
Y363361D01*
X41916Y36259D02*
X419534D01*
X41916Y362029D02*
X419534D01*
X41916D02*
Y362718D01*
X419534Y362029D02*
Y362718D01*
X41916Y362157D02*
X419534D01*
X41916Y362718D02*
X419534D01*
X421635Y362807D02*
Y36324D01*
X421399Y362807D02*
Y36324D01*
X421635D01*
X421399Y362807D02*
X421635D01*
X417823Y36216D02*
X418197D01*
X417823Y362721D02*
X418197D01*
Y362032D02*
Y362721D01*
X417823Y362032D02*
Y362721D01*
Y362593D02*
X418197D01*
X417823Y362032D02*
X418197D01*
X41845Y362157D02*
X418824D01*
X41845Y362718D02*
X418824D01*
Y362029D02*
Y362718D01*
X41845Y362029D02*
Y362718D01*
Y36259D02*
X418824D01*
X41845Y362029D02*
X418824D01*
X419557Y364789D02*
X420797D01*
X419557Y363155D02*
X420797D01*
X419557D02*
Y364789D01*
X420797Y363155D02*
Y364789D01*
X433507Y361032D02*
X434747D01*
X433507Y362272D02*
X434747D01*
X433507Y361032D02*
Y362272D01*
X434747Y361032D02*
Y362272D01*
X43111Y368809D02*
X431484D01*
X43111Y368247D02*
X431484D01*
X43111D02*
Y368936D01*
X431484Y368247D02*
Y368936D01*
X43111Y368375D02*
X431484D01*
X43111Y368936D02*
X431484D01*
X415402Y368317D02*
Y369467D01*
X417213Y368317D02*
Y369467D01*
X415402D02*
X417213D01*
X415402Y368317D02*
X417213D01*
X418071Y381064D02*
X418071Y3813D01*
X418504Y381064D02*
Y3813D01*
X418071D02*
X418504D01*
X418071Y381064D02*
X418504D01*
X438711Y38457D02*
X439144D01*
X438711Y384334D02*
X439144D01*
X438711D02*
Y38457D01*
X439144Y384334D02*
X439144Y38457D01*
X427492Y375835D02*
Y376209D01*
X426931Y375835D02*
Y376209D01*
X426803Y375835D02*
X427492D01*
X426803Y376209D02*
X427492D01*
X426803Y375835D02*
Y376209D01*
X427364Y375835D02*
Y376209D01*
X426821Y37564D02*
X427254D01*
X426821Y375404D02*
X427254D01*
X426821D02*
Y37564D01*
X427254Y375404D02*
X427254Y37564D01*
X428662Y376573D02*
X429213D01*
X428662Y375391D02*
X429213D01*
X428662D02*
Y376573D01*
X429213Y375391D02*
Y376573D01*
X42982Y375607D02*
X430194D01*
X42982Y376169D02*
X430194D01*
X42982Y375607D02*
Y376296D01*
X430194Y375607D02*
Y376296D01*
X42982D02*
X430194D01*
X42982Y375735D02*
X430194D01*
X424389Y372415D02*
Y372849D01*
X424625Y372415D02*
Y372849D01*
X424389Y372415D02*
X424625D01*
X424389Y372849D02*
X424625D01*
M02*
