G04 Layer_Color=16711935*
%FSTAX24Y24*%
%MOIN*%
G70*
G01*
G75*
%ADD88R,0.0671X0.0671*%
%ADD104C,0.1200*%
%ADD114C,0.2442*%
%ADD115C,0.1655*%
%ADD116C,0.0700*%
%ADD117C,0.0946*%
%ADD118C,0.0730*%
%ADD119C,0.1580*%
%ADD120C,0.0671*%
%ADD121R,0.0671X0.0671*%
%ADD122C,0.1180*%
%ADD123C,0.0474*%
D88*
X424337Y360222D02*
D03*
X427507Y360242D02*
D03*
X428177Y385502D02*
D03*
D104*
X442917Y371052D02*
D03*
X412637Y364892D02*
D03*
X427297Y381042D02*
D03*
D114*
X412795Y360728D02*
D03*
Y385482D02*
D03*
X444167Y360732D02*
D03*
X441637Y385482D02*
D03*
D115*
X415925Y360453D02*
D03*
X43187D02*
D03*
Y376398D02*
D03*
X415925D02*
D03*
D116*
X440357Y365962D02*
D03*
X439357D02*
D03*
X438357D02*
D03*
X437357D02*
D03*
X439857Y364962D02*
D03*
X438857D02*
D03*
X437857D02*
D03*
X436857D02*
D03*
D117*
X441668Y363663D02*
D03*
X435546D02*
D03*
D118*
X436117Y360533D02*
D03*
X437117Y361131D02*
D03*
X441097D02*
D03*
X440097Y360533D02*
D03*
D119*
X436357Y362462D02*
D03*
X440857D02*
D03*
D120*
X424337Y361222D02*
D03*
X425337Y360222D02*
D03*
Y361222D02*
D03*
X426337Y360222D02*
D03*
Y361222D02*
D03*
X431967Y383512D02*
D03*
X430967D02*
D03*
X431967Y384512D02*
D03*
X430967D02*
D03*
X431967Y385512D02*
D03*
X429507Y360242D02*
D03*
X428507D02*
D03*
X428177Y384502D02*
D03*
X427177Y385502D02*
D03*
Y384502D02*
D03*
X426177Y385502D02*
D03*
Y384502D02*
D03*
X425177Y385502D02*
D03*
Y384502D02*
D03*
X429657D02*
D03*
Y383502D02*
D03*
D121*
X430967Y385512D02*
D03*
X429657Y385502D02*
D03*
D122*
X412607Y368942D02*
D03*
Y370942D02*
D03*
D123*
X41307Y382722D02*
D03*
Y379572D02*
D03*
M02*
