G04 Layer_Physical_Order=2*
G04 Layer_Color=36540*
%FSTAX24Y24*%
%MOIN*%
G70*
G01*
G75*
%ADD58C,0.0866*%
%ADD59C,0.0650*%
%ADD61C,0.0591*%
%ADD62R,0.0591X0.0591*%
%ADD63C,0.1100*%
%ADD65C,0.0236*%
%ADD66C,0.0260*%
G36*
X440467Y386057D02*
X440396Y385885D01*
X440348Y385686D01*
X440332Y385482D01*
X440348Y385278D01*
X440396Y385079D01*
X440467Y384907D01*
X440467Y373622D01*
X445693Y373622D01*
Y359425D01*
X444512D01*
X444506Y359475D01*
X444571Y359491D01*
X44476Y359569D01*
X444934Y359676D01*
X44509Y359809D01*
X445223Y359965D01*
X44533Y360139D01*
X445409Y360329D01*
X445456Y360528D01*
X445472Y360732D01*
X445456Y360936D01*
X445409Y361135D01*
X44533Y361324D01*
X445223Y361499D01*
X44509Y361655D01*
X444934Y361788D01*
X44476Y361895D01*
X444571Y361973D01*
X444371Y362021D01*
X444167Y362037D01*
X443963Y362021D01*
X443764Y361973D01*
X443575Y361895D01*
X4434Y361788D01*
X443244Y361655D01*
X443111Y361499D01*
X443004Y361324D01*
X442926Y361135D01*
X442878Y360936D01*
X442862Y360732D01*
X442878Y360528D01*
X442926Y360329D01*
X443004Y360139D01*
X443111Y359965D01*
X443244Y359809D01*
X4434Y359676D01*
X443575Y359569D01*
X443764Y359491D01*
X443828Y359475D01*
X443822Y359425D01*
X434049D01*
X434022Y359475D01*
X434052Y359519D01*
X43407Y359612D01*
X434052Y359705D01*
X433999Y359784D01*
X434009Y35979D01*
X434062Y359869D01*
X43408Y359962D01*
X434062Y360055D01*
X434009Y360134D01*
X43393Y360186D01*
X433837Y360205D01*
X433744Y360186D01*
X433666Y360134D01*
X433613Y360055D01*
X433562Y360054D01*
X433507Y360065D01*
X433414Y360046D01*
X433336Y359994D01*
X433283Y359915D01*
X433269Y359842D01*
X433257Y359845D01*
X433164Y359826D01*
X433086Y359774D01*
X433033Y359695D01*
X433015Y359602D01*
X433033Y359509D01*
X433056Y359475D01*
X433029Y359425D01*
X413155D01*
X413149Y359475D01*
X413199Y359487D01*
X413388Y359565D01*
X413562Y359672D01*
X413718Y359805D01*
X413851Y359961D01*
X413958Y360136D01*
X414037Y360325D01*
X414084Y360524D01*
X4141Y360728D01*
X414084Y360933D01*
X414037Y361132D01*
X413958Y361321D01*
X413851Y361495D01*
X413718Y361651D01*
X413562Y361784D01*
X413388Y361891D01*
X413199Y36197D01*
X412999Y362017D01*
X412795Y362033D01*
X412591Y362017D01*
X412392Y36197D01*
X412203Y361891D01*
X412028Y361784D01*
X411872Y361651D01*
X411739Y361495D01*
X411641Y361334D01*
X411591Y361348D01*
Y384862D01*
X411641Y384876D01*
X411739Y384715D01*
X411872Y384559D01*
X412028Y384426D01*
X412203Y384319D01*
X412392Y384241D01*
X412591Y384193D01*
X412795Y384177D01*
X412999Y384193D01*
X413199Y384241D01*
X413388Y384319D01*
X413562Y384426D01*
X413718Y384559D01*
X413851Y384715D01*
X413958Y384889D01*
X414037Y385079D01*
X414084Y385278D01*
X4141Y385482D01*
X414084Y385686D01*
X414037Y385885D01*
X413958Y386074D01*
X413851Y386249D01*
X413718Y386405D01*
X413562Y386538D01*
X413478Y38659D01*
X413492Y386638D01*
X440467D01*
Y386057D01*
D02*
G37*
%LPC*%
G36*
X432817Y368225D02*
X432724Y368206D01*
X432646Y368154D01*
X432593Y368075D01*
X432575Y367982D01*
X432593Y367889D01*
X432646Y36781D01*
X432724Y367758D01*
X432817Y367739D01*
X43291Y367758D01*
X432989Y36781D01*
X433042Y367889D01*
X43306Y367982D01*
X433042Y368075D01*
X432989Y368154D01*
X43291Y368206D01*
X432817Y368225D01*
D02*
G37*
G36*
X430817Y368165D02*
X430724Y368146D01*
X430646Y368094D01*
X430593Y368015D01*
X430575Y367922D01*
X430593Y367829D01*
X430646Y36775D01*
X430724Y367698D01*
X430817Y367679D01*
X43091Y367698D01*
X430989Y36775D01*
X431042Y367829D01*
X43106Y367922D01*
X431042Y368015D01*
X430989Y368094D01*
X43091Y368146D01*
X430817Y368165D01*
D02*
G37*
G36*
X431927Y367685D02*
X431834Y367666D01*
X431757Y367615D01*
X43168Y367666D01*
X431587Y367685D01*
X431494Y367666D01*
X431417Y367615D01*
X43134Y367666D01*
X431247Y367685D01*
X431154Y367666D01*
X431076Y367614D01*
X431023Y367535D01*
X431005Y367442D01*
X431023Y367349D01*
X431076Y36727D01*
X431154Y367218D01*
X431247Y367199D01*
X43134Y367218D01*
X431417Y367269D01*
X431494Y367218D01*
X431587Y367199D01*
X43168Y367218D01*
X431757Y367269D01*
X431834Y367218D01*
X4319Y367205D01*
X431929Y367169D01*
X43193Y367151D01*
X431915Y367072D01*
X431933Y366979D01*
X431986Y3669D01*
Y366882D01*
X431933Y366803D01*
X431915Y36671D01*
X431933Y366617D01*
X431968Y366564D01*
X431982Y366527D01*
X431968Y36649D01*
X431933Y366437D01*
X431915Y366344D01*
X431933Y366251D01*
X431968Y366198D01*
X431982Y366161D01*
X431968Y366124D01*
X431933Y366071D01*
X431915Y365978D01*
X431933Y365885D01*
X431968Y365832D01*
X431982Y365795D01*
X431968Y365758D01*
X431933Y365705D01*
X431915Y365612D01*
X431933Y365519D01*
X431986Y36544D01*
X432064Y365388D01*
X432157Y365369D01*
X43225Y365388D01*
X432329Y36544D01*
X432382Y365519D01*
X4324Y365612D01*
X432382Y365705D01*
X432346Y365758D01*
X432333Y365795D01*
X432346Y365832D01*
X432382Y365885D01*
X4324Y365978D01*
X432382Y366071D01*
X432346Y366124D01*
X432333Y366161D01*
X432346Y366198D01*
X432382Y366251D01*
X4324Y366344D01*
X432382Y366437D01*
X432346Y36649D01*
X432333Y366527D01*
X432346Y366564D01*
X432382Y366617D01*
X4324Y36671D01*
X432382Y366803D01*
X432329Y366882D01*
Y3669D01*
X432382Y366979D01*
X4324Y367072D01*
X432382Y367165D01*
X432329Y367244D01*
X43225Y367296D01*
X432185Y367309D01*
X432155Y367345D01*
X432154Y367362D01*
X43217Y367442D01*
X432152Y367535D01*
X432099Y367614D01*
X43202Y367666D01*
X431927Y367685D01*
D02*
G37*
G36*
X42667Y368238D02*
X426578Y368219D01*
X426499Y368167D01*
X426446Y368088D01*
X426428Y367995D01*
X426446Y367902D01*
X426499Y367823D01*
X426578Y367771D01*
X42667Y367752D01*
X426763Y367771D01*
X426842Y367823D01*
X426895Y367902D01*
X426913Y367995D01*
X426895Y368088D01*
X426842Y368167D01*
X426763Y368219D01*
X42667Y368238D01*
D02*
G37*
G36*
X428427Y368235D02*
X428334Y368216D01*
X428256Y368164D01*
X428203Y368085D01*
X428185Y367992D01*
X428203Y367899D01*
X428256Y36782D01*
X428334Y367768D01*
X428427Y367749D01*
X42852Y367768D01*
X428599Y36782D01*
X428652Y367899D01*
X42867Y367992D01*
X428652Y368085D01*
X428599Y368164D01*
X42852Y368216D01*
X428427Y368235D01*
D02*
G37*
G36*
X429597Y368205D02*
X429504Y368186D01*
X429426Y368134D01*
X429395Y368114D01*
X429379D01*
X4293Y368166D01*
X429207Y368185D01*
X429114Y368166D01*
X429036Y368114D01*
X428983Y368035D01*
X428965Y367942D01*
X428983Y367849D01*
X429036Y36777D01*
X429114Y367718D01*
X429207Y367699D01*
X4293Y367718D01*
X429379Y36777D01*
X429409Y36779D01*
X429426D01*
X429504Y367738D01*
X429597Y367719D01*
X42969Y367738D01*
X429765Y367788D01*
X429781Y367794D01*
X429821D01*
X429839Y367767D01*
X429918Y367715D01*
X43001Y367696D01*
X430103Y367715D01*
X430182Y367767D01*
X430235Y367846D01*
X430253Y367939D01*
X430235Y368032D01*
X430182Y368111D01*
X430103Y368163D01*
X43001Y368182D01*
X429918Y368163D01*
X429843Y368113D01*
X429827Y368107D01*
X429787D01*
X429769Y368134D01*
X42969Y368186D01*
X429597Y368205D01*
D02*
G37*
G36*
X441627Y368075D02*
X441534Y368056D01*
X441456Y368004D01*
X441403Y367925D01*
X441385Y367832D01*
X441403Y367739D01*
X441456Y36766D01*
X441534Y367608D01*
X441627Y367589D01*
X44172Y367608D01*
X441799Y36766D01*
X441852Y367739D01*
X44187Y367832D01*
X441852Y367925D01*
X441799Y368004D01*
X44172Y368056D01*
X441627Y368075D01*
D02*
G37*
G36*
X440127Y367395D02*
X440034Y367376D01*
X439956Y367324D01*
X439903Y367245D01*
X439885Y367152D01*
X439903Y367059D01*
X439956Y36698D01*
X440034Y366928D01*
X440127Y366909D01*
X44022Y366928D01*
X440299Y36698D01*
X440352Y367059D01*
X44037Y367152D01*
X440352Y367245D01*
X440299Y367324D01*
X44022Y367376D01*
X440127Y367395D01*
D02*
G37*
G36*
X437607Y367385D02*
X437514Y367366D01*
X437436Y367314D01*
X437383Y367235D01*
X437365Y367142D01*
X437383Y367049D01*
X437436Y36697D01*
X437514Y366918D01*
X437607Y366899D01*
X4377Y366918D01*
X437779Y36697D01*
X437832Y367049D01*
X43785Y367142D01*
X437832Y367235D01*
X437779Y367314D01*
X4377Y367366D01*
X437607Y367385D01*
D02*
G37*
G36*
X427807Y367235D02*
X427714Y367216D01*
X427636Y367164D01*
X427583Y367085D01*
X427565Y366992D01*
X427583Y366899D01*
X427636Y36682D01*
X427714Y366768D01*
X427807Y366749D01*
X4279Y366768D01*
X427979Y36682D01*
X428032Y366899D01*
X42805Y366992D01*
X428032Y367085D01*
X427979Y367164D01*
X4279Y367216D01*
X427807Y367235D01*
D02*
G37*
G36*
X434427Y367975D02*
X434334Y367956D01*
X434256Y367904D01*
X434203Y367825D01*
X434185Y367732D01*
X434203Y367639D01*
X434256Y36756D01*
X434334Y367508D01*
X434427Y367489D01*
X43452Y367508D01*
X434599Y36756D01*
X434652Y367639D01*
X43467Y367732D01*
X434652Y367825D01*
X434599Y367904D01*
X43452Y367956D01*
X434427Y367975D01*
D02*
G37*
G36*
X440197Y368065D02*
X440104Y368046D01*
X440026Y367994D01*
X439973Y367915D01*
X439955Y367822D01*
X439973Y367729D01*
X440026Y36765D01*
X440104Y367598D01*
X440197Y367579D01*
X44029Y367598D01*
X440369Y36765D01*
X440422Y367729D01*
X44044Y367822D01*
X440422Y367915D01*
X440369Y367994D01*
X44029Y368046D01*
X440197Y368065D01*
D02*
G37*
G36*
X437547Y368055D02*
X437454Y368036D01*
X437376Y367984D01*
X437323Y367905D01*
X437305Y367812D01*
X437323Y367719D01*
X437376Y36764D01*
X437454Y367588D01*
X437547Y367569D01*
X43764Y367588D01*
X437719Y36764D01*
X437772Y367719D01*
X43779Y367812D01*
X437772Y367905D01*
X437719Y367984D01*
X43764Y368036D01*
X437547Y368055D01*
D02*
G37*
G36*
X436077Y368055D02*
X435984Y368036D01*
X435906Y367984D01*
X435853Y367905D01*
X435835Y367812D01*
X435853Y367719D01*
X435906Y36764D01*
X435984Y367588D01*
X436077Y367569D01*
X43617Y367588D01*
X436249Y36764D01*
X436302Y367719D01*
X43632Y367812D01*
X436302Y367905D01*
X436249Y367984D01*
X43617Y368036D01*
X436077Y368055D01*
D02*
G37*
G36*
X428697Y370525D02*
X428604Y370506D01*
X428526Y370454D01*
X428473Y370375D01*
X428455Y370282D01*
X428473Y370189D01*
X428526Y37011D01*
X428604Y370058D01*
X428697Y370039D01*
X42879Y370058D01*
X428869Y37011D01*
X428922Y370189D01*
X42894Y370282D01*
X428922Y370375D01*
X428869Y370454D01*
X42879Y370506D01*
X428697Y370525D01*
D02*
G37*
G36*
X426707Y370285D02*
X426614Y370266D01*
X426536Y370214D01*
X426483Y370135D01*
X426465Y370042D01*
X426476Y369986D01*
X426433Y369944D01*
X426427Y369945D01*
X426334Y369926D01*
X426256Y369874D01*
X426203Y369795D01*
X426185Y369702D01*
X426203Y369609D01*
X426256Y36953D01*
X426334Y369478D01*
X426427Y369459D01*
X42652Y369478D01*
X426599Y36953D01*
X426652Y369609D01*
X42667Y369702D01*
X426659Y369758D01*
X426702Y3698D01*
X426707Y369799D01*
X426716Y369801D01*
X426751Y369766D01*
X426745Y369732D01*
X426763Y369639D01*
X426816Y36956D01*
X426894Y369508D01*
X426987Y369489D01*
X42708Y369508D01*
X427159Y36956D01*
X427212Y369639D01*
X42723Y369732D01*
X427212Y369825D01*
X427159Y369904D01*
X42708Y369956D01*
X426987Y369975D01*
X426979Y369973D01*
X426943Y370008D01*
X42695Y370042D01*
X426932Y370135D01*
X426879Y370214D01*
X4268Y370266D01*
X426707Y370285D01*
D02*
G37*
G36*
X424177Y370255D02*
X424084Y370236D01*
X424006Y370184D01*
X423953Y370105D01*
X423935Y370012D01*
X423953Y369919D01*
X424006Y36984D01*
X424084Y369788D01*
X424177Y369769D01*
X42427Y369788D01*
X424349Y36984D01*
X424402Y369919D01*
X42442Y370012D01*
X424402Y370105D01*
X424349Y370184D01*
X42427Y370236D01*
X424177Y370255D01*
D02*
G37*
G36*
X413435Y370742D02*
X412807D01*
Y370114D01*
X412934Y370153D01*
X413082Y370232D01*
X413211Y370338D01*
X413317Y370467D01*
X413396Y370615D01*
X413435Y370742D01*
D02*
G37*
G36*
X439787Y371135D02*
X439694Y371116D01*
X439616Y371064D01*
X439563Y370985D01*
X439545Y370892D01*
X439563Y370799D01*
X43961Y370729D01*
X439573Y370675D01*
X439555Y370582D01*
X439573Y370489D01*
X439626Y37041D01*
X439704Y370358D01*
X439797Y370339D01*
X43989Y370358D01*
X439969Y37041D01*
X440022Y370489D01*
X44004Y370582D01*
X440022Y370675D01*
X439975Y370744D01*
X440012Y370799D01*
X44003Y370892D01*
X440012Y370985D01*
X439959Y371064D01*
X43988Y371116D01*
X439787Y371135D01*
D02*
G37*
G36*
X430567Y370665D02*
X430474Y370646D01*
X430396Y370594D01*
X430343Y370515D01*
X430325Y370422D01*
X430343Y370329D01*
X430396Y37025D01*
X430474Y370198D01*
X430567Y370179D01*
X43066Y370198D01*
X430739Y37025D01*
X430792Y370329D01*
X43081Y370422D01*
X430792Y370515D01*
X430739Y370594D01*
X43066Y370646D01*
X430567Y370665D01*
D02*
G37*
G36*
X412407Y370742D02*
X41178D01*
X411818Y370615D01*
X411897Y370467D01*
X412003Y370338D01*
X412133Y370232D01*
X41228Y370153D01*
X412407Y370114D01*
Y370742D01*
D02*
G37*
G36*
X433387Y369275D02*
X433294Y369256D01*
X433216Y369204D01*
X433163Y369125D01*
X433145Y369032D01*
X433163Y368939D01*
X433216Y36886D01*
X433294Y368808D01*
X433385Y36879D01*
X433387Y368789D01*
X433423Y368745D01*
X433415Y368702D01*
X433433Y368609D01*
X433486Y36853D01*
X433564Y368478D01*
X433657Y368459D01*
X43375Y368478D01*
X433829Y36853D01*
X433882Y368609D01*
X4339Y368702D01*
X433882Y368795D01*
X433829Y368874D01*
X43375Y368926D01*
X43366Y368944D01*
X433657Y368945D01*
X433621Y368989D01*
X43363Y369032D01*
X433612Y369125D01*
X433559Y369204D01*
X43348Y369256D01*
X433387Y369275D01*
D02*
G37*
G36*
X437057Y368585D02*
X436964Y368566D01*
X436886Y368514D01*
X436833Y368435D01*
X436822Y368379D01*
X436771D01*
X436762Y368425D01*
X436709Y368504D01*
X43663Y368556D01*
X436537Y368575D01*
X436444Y368556D01*
X436366Y368504D01*
X436313Y368425D01*
X436295Y368332D01*
X436313Y368239D01*
X436366Y36816D01*
X436444Y368108D01*
X436537Y368089D01*
X43663Y368108D01*
X436709Y36816D01*
X436762Y368239D01*
X436773Y368295D01*
X436824D01*
X436833Y368249D01*
X436886Y36817D01*
X436964Y368118D01*
X437057Y368099D01*
X43715Y368118D01*
X437229Y36817D01*
X437282Y368249D01*
X4373Y368342D01*
X437282Y368435D01*
X437229Y368514D01*
X43715Y368566D01*
X437057Y368585D01*
D02*
G37*
G36*
X412607Y369615D02*
X412476Y369602D01*
X41235Y369564D01*
X412233Y369502D01*
X412131Y369418D01*
X412048Y369316D01*
X411985Y3692D01*
X411947Y369073D01*
X411934Y368942D01*
X411947Y368811D01*
X411985Y368684D01*
X412048Y368568D01*
X412131Y368466D01*
X412233Y368382D01*
X41235Y36832D01*
X412476Y368282D01*
X412607Y368269D01*
X412739Y368282D01*
X412865Y36832D01*
X412981Y368382D01*
X413083Y368466D01*
X413167Y368568D01*
X413229Y368684D01*
X413268Y368811D01*
X413281Y368942D01*
X413268Y369073D01*
X413229Y3692D01*
X413167Y369316D01*
X413083Y369418D01*
X412981Y369502D01*
X412865Y369564D01*
X412739Y369602D01*
X412607Y369615D01*
D02*
G37*
G36*
X434431Y369081D02*
X434338Y369062D01*
X434259Y36901D01*
X434207Y368931D01*
X434188Y368838D01*
X434207Y368745D01*
X434259Y368667D01*
X434338Y368614D01*
X434431Y368595D01*
X434524Y368614D01*
X434603Y368667D01*
X434655Y368745D01*
X434674Y368838D01*
X434655Y368931D01*
X434603Y36901D01*
X434524Y369062D01*
X434431Y369081D01*
D02*
G37*
G36*
X434441Y369701D02*
X434348Y369682D01*
X434269Y36963D01*
X434239Y369584D01*
X434229D01*
X43415Y369636D01*
X434057Y369655D01*
X433964Y369636D01*
X433886Y369584D01*
X433833Y369505D01*
X433815Y369412D01*
X433833Y369319D01*
X433886Y36924D01*
X433964Y369188D01*
X434057Y369169D01*
X43415Y369188D01*
X434229Y36924D01*
X43426Y369287D01*
X434269D01*
X434348Y369234D01*
X434441Y369215D01*
X434534Y369234D01*
X434613Y369287D01*
X434665Y369365D01*
X434684Y369458D01*
X434665Y369551D01*
X434613Y36963D01*
X434534Y369682D01*
X434441Y369701D01*
D02*
G37*
G36*
X429697Y370805D02*
X429604Y370786D01*
X429526Y370734D01*
X429473Y370655D01*
X429455Y370562D01*
X429473Y370469D01*
X429526Y37039D01*
X429604Y370338D01*
X429641Y37033D01*
Y370279D01*
X429574Y370266D01*
X429496Y370214D01*
X429443Y370135D01*
X429425Y370042D01*
X429443Y369949D01*
X429496Y36987D01*
X429574Y369818D01*
X429649Y369803D01*
X429645Y369782D01*
X429663Y369689D01*
X429716Y36961D01*
X429794Y369558D01*
X429877Y369541D01*
X429891Y369536D01*
X42993Y369497D01*
X429943Y369429D01*
X429996Y36935D01*
X430074Y369298D01*
X430167Y369279D01*
X43026Y369298D01*
X430339Y36935D01*
X430392Y369429D01*
X43041Y369522D01*
X430392Y369615D01*
X430339Y369694D01*
X43026Y369746D01*
X430177Y369763D01*
X430164Y369768D01*
X430125Y369807D01*
X430112Y369875D01*
X430059Y369954D01*
X42998Y370006D01*
X429906Y370021D01*
X42991Y370042D01*
X429892Y370135D01*
X429839Y370214D01*
X42976Y370266D01*
X429724Y370273D01*
Y370324D01*
X42979Y370338D01*
X429869Y37039D01*
X429922Y370469D01*
X42994Y370562D01*
X429922Y370655D01*
X429869Y370734D01*
X42979Y370786D01*
X429697Y370805D01*
D02*
G37*
G36*
X435171Y369681D02*
X435078Y369662D01*
X434999Y36961D01*
X434947Y369531D01*
X434928Y369438D01*
X434947Y369345D01*
X434999Y369267D01*
X435078Y369214D01*
X435171Y369195D01*
X435264Y369214D01*
X435343Y369267D01*
X435395Y369345D01*
X435414Y369438D01*
X435395Y369531D01*
X435343Y36961D01*
X435264Y369662D01*
X435171Y369681D01*
D02*
G37*
G36*
X432977Y367045D02*
X432884Y367026D01*
X432806Y366974D01*
X432753Y366895D01*
X432735Y366802D01*
X432753Y366709D01*
X432806Y36663D01*
X432884Y366578D01*
X432977Y366559D01*
X43307Y366578D01*
X433149Y36663D01*
X433202Y366709D01*
X43322Y366802D01*
X433202Y366895D01*
X433149Y366974D01*
X43307Y367026D01*
X432977Y367045D01*
D02*
G37*
G36*
X440857Y363336D02*
X440687Y363319D01*
X440523Y36327D01*
X440372Y363189D01*
X440239Y36308D01*
X44013Y362948D01*
X44005Y362797D01*
X44Y362633D01*
X439983Y362462D01*
X44Y362291D01*
X44005Y362127D01*
X44013Y361976D01*
X440239Y361844D01*
X440372Y361735D01*
X440523Y361654D01*
X440687Y361605D01*
X440857Y361588D01*
X440922Y361594D01*
X440934Y361545D01*
X440873Y36152D01*
X44078Y361449D01*
X440709Y361356D01*
X440664Y361247D01*
X440649Y361131D01*
X440664Y361015D01*
X440709Y360907D01*
X44078Y360814D01*
X440873Y360743D01*
X440981Y360698D01*
X441097Y360683D01*
X441214Y360698D01*
X441322Y360743D01*
X441415Y360814D01*
X441486Y360907D01*
X441531Y361015D01*
X441546Y361131D01*
X441531Y361247D01*
X441486Y361356D01*
X441415Y361449D01*
X441322Y36152D01*
X441214Y361565D01*
X441112Y361578D01*
X441108Y361629D01*
X441192Y361654D01*
X441343Y361735D01*
X441475Y361844D01*
X441584Y361976D01*
X441665Y362127D01*
X441715Y362291D01*
X441732Y362462D01*
X441715Y362633D01*
X441665Y362797D01*
X441584Y362948D01*
X441475Y36308D01*
X441343Y363189D01*
X441192Y36327D01*
X441028Y363319D01*
X440857Y363336D01*
D02*
G37*
G36*
X437117Y36158D02*
X437001Y361565D01*
X436893Y36152D01*
X4368Y361449D01*
X436729Y361356D01*
X436684Y361247D01*
X436669Y361131D01*
X436684Y361015D01*
X436729Y360907D01*
X4368Y360814D01*
X436893Y360743D01*
X437001Y360698D01*
X437117Y360683D01*
X437233Y360698D01*
X437341Y360743D01*
X437434Y360814D01*
X437506Y360907D01*
X437551Y361015D01*
X437566Y361131D01*
X437551Y361247D01*
X437506Y361356D01*
X437434Y361449D01*
X437341Y36152D01*
X437233Y361565D01*
X437117Y36158D01*
D02*
G37*
G36*
X435147Y360995D02*
X435054Y360976D01*
X434976Y360924D01*
X434923Y360845D01*
X434905Y360752D01*
X434923Y360659D01*
X434976Y36058D01*
X435054Y360528D01*
X435147Y360509D01*
X43524Y360528D01*
X435319Y36058D01*
X435372Y360659D01*
X43539Y360752D01*
X435372Y360845D01*
X435319Y360924D01*
X43524Y360976D01*
X435147Y360995D01*
D02*
G37*
G36*
X424337Y361641D02*
X424229Y361627D01*
X424128Y361585D01*
X424041Y361518D01*
X423975Y361431D01*
X423933Y36133D01*
X423918Y361222D01*
X423933Y361114D01*
X423975Y361013D01*
X424041Y360926D01*
X424128Y360859D01*
X424229Y360817D01*
X424337Y360803D01*
X424446Y360817D01*
X424547Y360859D01*
X424633Y360926D01*
X4247Y361013D01*
X424742Y361114D01*
X424756Y361222D01*
X424742Y36133D01*
X4247Y361431D01*
X424633Y361518D01*
X424547Y361585D01*
X424446Y361627D01*
X424337Y361641D01*
D02*
G37*
G36*
X436357Y363336D02*
X436187Y363319D01*
X436023Y36327D01*
X435872Y363189D01*
X435739Y36308D01*
X43563Y362948D01*
X43555Y362797D01*
X4355Y362633D01*
X435483Y362462D01*
X4355Y362291D01*
X43555Y362127D01*
X43563Y361976D01*
X435739Y361844D01*
X435872Y361735D01*
X436023Y361654D01*
X436187Y361605D01*
X436357Y361588D01*
X436528Y361605D01*
X436692Y361654D01*
X436843Y361735D01*
X436975Y361844D01*
X437084Y361976D01*
X437165Y362127D01*
X437215Y362291D01*
X437232Y362462D01*
X437215Y362633D01*
X437165Y362797D01*
X437084Y362948D01*
X436975Y36308D01*
X436843Y363189D01*
X436692Y36327D01*
X436528Y363319D01*
X436357Y363336D01*
D02*
G37*
G36*
X421567Y362692D02*
X421057D01*
Y361962D01*
X420882Y361787D01*
X418142D01*
X418037Y361682D01*
Y361482D01*
X418147Y361372D01*
X421427D01*
X421577Y361522D01*
X421567Y361532D01*
Y362692D01*
D02*
G37*
G36*
X425337Y361641D02*
X425229Y361627D01*
X425128Y361585D01*
X425041Y361518D01*
X424975Y361431D01*
X424933Y36133D01*
X424918Y361222D01*
X424933Y361114D01*
X424975Y361013D01*
X425041Y360926D01*
X425128Y360859D01*
X425229Y360817D01*
X425337Y360803D01*
X425446Y360817D01*
X425547Y360859D01*
X425634Y360926D01*
X4257Y361013D01*
X425742Y361114D01*
X425756Y361222D01*
X425742Y36133D01*
X4257Y361431D01*
X425634Y361518D01*
X425547Y361585D01*
X425446Y361627D01*
X425337Y361641D01*
D02*
G37*
G36*
Y360641D02*
X425229Y360627D01*
X425128Y360585D01*
X425041Y360518D01*
X424975Y360431D01*
X424933Y36033D01*
X424918Y360222D01*
X424933Y360114D01*
X424975Y360013D01*
X425041Y359926D01*
X425128Y359859D01*
X425229Y359817D01*
X425337Y359803D01*
X425446Y359817D01*
X425547Y359859D01*
X425634Y359926D01*
X4257Y360013D01*
X425742Y360114D01*
X425756Y360222D01*
X425742Y36033D01*
X4257Y360431D01*
X425634Y360518D01*
X425547Y360585D01*
X425446Y360627D01*
X425337Y360641D01*
D02*
G37*
G36*
X43187Y361365D02*
X431692Y361347D01*
X431521Y361295D01*
X431364Y361211D01*
X431225Y361097D01*
X431112Y360959D01*
X431028Y360802D01*
X430976Y360631D01*
X430958Y360453D01*
X430976Y360275D01*
X431028Y360104D01*
X431112Y359946D01*
X431225Y359808D01*
X431364Y359695D01*
X431521Y35961D01*
X431692Y359558D01*
X43187Y359541D01*
X432048Y359558D01*
X432219Y35961D01*
X432377Y359695D01*
X432515Y359808D01*
X432628Y359946D01*
X432712Y360104D01*
X432764Y360275D01*
X432782Y360453D01*
X432764Y360631D01*
X432712Y360802D01*
X432628Y360959D01*
X432515Y361097D01*
X432377Y361211D01*
X432219Y361295D01*
X432048Y361347D01*
X43187Y361365D01*
D02*
G37*
G36*
X415925D02*
X415747Y361347D01*
X415576Y361295D01*
X415419Y361211D01*
X41528Y361097D01*
X415167Y360959D01*
X415083Y360802D01*
X415031Y360631D01*
X415013Y360453D01*
X415031Y360275D01*
X415083Y360104D01*
X415167Y359946D01*
X41528Y359808D01*
X415419Y359695D01*
X415576Y35961D01*
X415747Y359558D01*
X415925Y359541D01*
X416103Y359558D01*
X416274Y35961D01*
X416432Y359695D01*
X41657Y359808D01*
X416683Y359946D01*
X416768Y360104D01*
X416819Y360275D01*
X416837Y360453D01*
X416819Y360631D01*
X416768Y360802D01*
X416683Y360959D01*
X41657Y361097D01*
X416432Y361211D01*
X416274Y361295D01*
X416103Y361347D01*
X415925Y361365D01*
D02*
G37*
G36*
X424753Y360637D02*
X423922D01*
Y359807D01*
X424753D01*
Y360637D01*
D02*
G37*
G36*
X436117Y360981D02*
X436001Y360966D01*
X435893Y360921D01*
X4358Y36085D01*
X435729Y360757D01*
X435684Y360649D01*
X435669Y360533D01*
X435684Y360417D01*
X435729Y360308D01*
X4358Y360216D01*
X435893Y360144D01*
X436001Y360099D01*
X436117Y360084D01*
X436233Y360099D01*
X436341Y360144D01*
X436434Y360216D01*
X436506Y360308D01*
X436551Y360417D01*
X436566Y360533D01*
X436551Y360649D01*
X436506Y360757D01*
X436434Y36085D01*
X436341Y360921D01*
X436233Y360966D01*
X436117Y360981D01*
D02*
G37*
G36*
X427923Y360657D02*
X427092D01*
Y359827D01*
X427923D01*
Y360657D01*
D02*
G37*
G36*
X428507Y360661D02*
X428399Y360647D01*
X428298Y360605D01*
X428211Y360538D01*
X428145Y360451D01*
X428103Y36035D01*
X428088Y360242D01*
X428103Y360134D01*
X428145Y360033D01*
X428211Y359946D01*
X428298Y359879D01*
X428399Y359837D01*
X428507Y359823D01*
X428616Y359837D01*
X428717Y359879D01*
X428803Y359946D01*
X42887Y360033D01*
X428912Y360134D01*
X428926Y360242D01*
X428912Y36035D01*
X42887Y360451D01*
X428803Y360538D01*
X428717Y360605D01*
X428616Y360647D01*
X428507Y360661D01*
D02*
G37*
G36*
X437357Y366396D02*
X437245Y366381D01*
X43714Y366338D01*
X437051Y366269D01*
X436982Y366179D01*
X436938Y366074D01*
X436924Y365962D01*
X436938Y36585D01*
X436982Y365745D01*
X437051Y365655D01*
X43714Y365586D01*
X437245Y365543D01*
X437357Y365528D01*
X43747Y365543D01*
X437574Y365586D01*
X437664Y365655D01*
X437733Y365745D01*
X437776Y36585D01*
X437791Y365962D01*
X437776Y366074D01*
X437733Y366179D01*
X437664Y366269D01*
X437574Y366338D01*
X43747Y366381D01*
X437357Y366396D01*
D02*
G37*
G36*
X434287Y365415D02*
X434194Y365396D01*
X434116Y365344D01*
X434063Y365265D01*
X43405Y3652D01*
X433997Y365175D01*
X43395Y365206D01*
X433857Y365225D01*
X433787Y365211D01*
X433736Y365243D01*
X433732Y365265D01*
X433679Y365344D01*
X4336Y365396D01*
X433507Y365415D01*
X433414Y365396D01*
X433336Y365344D01*
X433283Y365265D01*
X433265Y365172D01*
X433283Y365079D01*
X43332Y365023D01*
X433332Y364987D01*
X43332Y36495D01*
X433283Y364895D01*
X433265Y364802D01*
X433283Y364709D01*
X433336Y36463D01*
X433414Y364578D01*
X433507Y364559D01*
X4336Y364578D01*
X433679Y36463D01*
X433732Y364709D01*
X433734Y364722D01*
X433785Y364754D01*
X433857Y364739D01*
X43395Y364758D01*
X433997Y364789D01*
X43405Y364764D01*
X434063Y364699D01*
X434116Y36462D01*
X434194Y364568D01*
X434287Y364549D01*
X43438Y364568D01*
X434399Y36456D01*
X434413Y364489D01*
X434466Y36441D01*
X434544Y364358D01*
X434637Y364339D01*
X43473Y364358D01*
X434809Y36441D01*
X434862Y364489D01*
X43488Y364582D01*
X434862Y364675D01*
X434809Y364754D01*
X434804Y364757D01*
Y364807D01*
X434809Y36481D01*
X434862Y364889D01*
X43488Y364982D01*
X434862Y365075D01*
X434809Y365154D01*
X43473Y365206D01*
X434637Y365225D01*
X434567Y365211D01*
X434516Y365243D01*
X434512Y365265D01*
X434459Y365344D01*
X43438Y365396D01*
X434287Y365415D01*
D02*
G37*
G36*
X439857Y365396D02*
X439745Y365381D01*
X43964Y365338D01*
X439551Y365269D01*
X439482Y365179D01*
X439438Y365074D01*
X439424Y364962D01*
X439438Y36485D01*
X439482Y364745D01*
X439551Y364655D01*
X43964Y364586D01*
X439745Y364543D01*
X439857Y364528D01*
X43997Y364543D01*
X440074Y364586D01*
X440164Y364655D01*
X440233Y364745D01*
X440276Y36485D01*
X440291Y364962D01*
X440276Y365074D01*
X440233Y365179D01*
X440164Y365269D01*
X440074Y365338D01*
X43997Y365381D01*
X439857Y365396D01*
D02*
G37*
G36*
X438357Y366396D02*
X438245Y366381D01*
X43814Y366338D01*
X438051Y366269D01*
X437982Y366179D01*
X437938Y366074D01*
X437924Y365962D01*
X437938Y36585D01*
X437982Y365745D01*
X438051Y365655D01*
X43814Y365586D01*
X438245Y365543D01*
X438357Y365528D01*
X43847Y365543D01*
X438574Y365586D01*
X438664Y365655D01*
X438733Y365745D01*
X438776Y36585D01*
X438791Y365962D01*
X438776Y366074D01*
X438733Y366179D01*
X438664Y366269D01*
X438574Y366338D01*
X43847Y366381D01*
X438357Y366396D01*
D02*
G37*
G36*
X427807Y366655D02*
X427714Y366636D01*
X427636Y366584D01*
X427583Y366505D01*
X427565Y366412D01*
X427583Y366319D01*
X427636Y36624D01*
X427714Y366188D01*
X427807Y366169D01*
X4279Y366188D01*
X427979Y36624D01*
X428032Y366319D01*
X42805Y366412D01*
X428032Y366505D01*
X427979Y366584D01*
X4279Y366636D01*
X427807Y366655D01*
D02*
G37*
G36*
X440357Y366396D02*
X440245Y366381D01*
X44014Y366338D01*
X440051Y366269D01*
X439982Y366179D01*
X439938Y366074D01*
X439924Y365962D01*
X439938Y36585D01*
X439982Y365745D01*
X440051Y365655D01*
X44014Y365586D01*
X440245Y365543D01*
X440357Y365528D01*
X44047Y365543D01*
X440574Y365586D01*
X440664Y365655D01*
X440733Y365745D01*
X440776Y36585D01*
X440791Y365962D01*
X440776Y366074D01*
X440733Y366179D01*
X440664Y366269D01*
X440574Y366338D01*
X44047Y366381D01*
X440357Y366396D01*
D02*
G37*
G36*
X439357D02*
X439245Y366381D01*
X43914Y366338D01*
X439051Y366269D01*
X438982Y366179D01*
X438938Y366074D01*
X438924Y365962D01*
X438938Y36585D01*
X438982Y365745D01*
X439051Y365655D01*
X43914Y365586D01*
X439245Y365543D01*
X439357Y365528D01*
X43947Y365543D01*
X439574Y365586D01*
X439664Y365655D01*
X439733Y365745D01*
X439776Y36585D01*
X439791Y365962D01*
X439776Y366074D01*
X439733Y366179D01*
X439664Y366269D01*
X439574Y366338D01*
X43947Y366381D01*
X439357Y366396D01*
D02*
G37*
G36*
X432217Y365235D02*
X432124Y365216D01*
X432046Y365164D01*
X431993Y365085D01*
X431975Y364992D01*
X431993Y364899D01*
X432021Y364857D01*
X432044Y364817D01*
X432021Y364777D01*
X431993Y364735D01*
X431975Y364642D01*
X431993Y364549D01*
X432021Y364507D01*
X432044Y364467D01*
X432021Y364427D01*
X431993Y364385D01*
X431975Y364292D01*
X431993Y364199D01*
X432021Y364157D01*
X432044Y364117D01*
X432021Y364077D01*
X431993Y364035D01*
X431975Y363942D01*
X431993Y363849D01*
X432046Y36377D01*
X432124Y363718D01*
X432217Y363699D01*
X43231Y363718D01*
X432389Y36377D01*
X432442Y363849D01*
X43246Y363942D01*
X432442Y364035D01*
X432414Y364077D01*
X432391Y364117D01*
X432414Y364157D01*
X432442Y364199D01*
X43246Y364292D01*
X432442Y364385D01*
X432414Y364427D01*
X432391Y364467D01*
X432414Y364507D01*
X432442Y364549D01*
X43246Y364642D01*
X432442Y364735D01*
X432414Y364777D01*
X432391Y364817D01*
X432414Y364857D01*
X432442Y364899D01*
X43246Y364992D01*
X432442Y365085D01*
X432389Y365164D01*
X43231Y365216D01*
X432217Y365235D01*
D02*
G37*
G36*
X429257Y364175D02*
X429164Y364156D01*
X429086Y364104D01*
X429033Y364025D01*
X429015Y363932D01*
X429033Y363839D01*
X429086Y36376D01*
X429154Y363715D01*
X429158Y363696D01*
Y363678D01*
X429154Y363659D01*
X429086Y363614D01*
X429033Y363535D01*
X429015Y363442D01*
X429033Y363349D01*
X429086Y36327D01*
X429164Y363218D01*
X429191Y363212D01*
Y363161D01*
X429164Y363156D01*
X429086Y363104D01*
X429033Y363025D01*
X429015Y362932D01*
X429033Y362839D01*
X429086Y36276D01*
X429164Y362708D01*
X429257Y362689D01*
X42935Y362708D01*
X429429Y36276D01*
X429482Y362839D01*
X4295Y362932D01*
X429482Y363025D01*
X429429Y363104D01*
X42935Y363156D01*
X429324Y363161D01*
Y363212D01*
X42935Y363218D01*
X429429Y36327D01*
X429482Y363349D01*
X4295Y363442D01*
X429482Y363535D01*
X429429Y363614D01*
X429361Y363659D01*
X429357Y363678D01*
Y363696D01*
X429361Y363715D01*
X429429Y36376D01*
X429482Y363839D01*
X4295Y363932D01*
X429482Y364025D01*
X429429Y364104D01*
X42935Y364156D01*
X429257Y364175D01*
D02*
G37*
G36*
X434127Y362085D02*
X434034Y362066D01*
X433956Y362014D01*
X433903Y361935D01*
X433893Y361886D01*
X43387Y361876D01*
X433777Y361895D01*
X433684Y361876D01*
X433606Y361824D01*
X433553Y361745D01*
X433535Y361652D01*
X433553Y361559D01*
X433606Y36148D01*
X433684Y361428D01*
X433777Y361409D01*
X433847Y361423D01*
X433899Y361391D01*
X433903Y361369D01*
X433956Y36129D01*
X434034Y361238D01*
X434127Y361219D01*
X43422Y361238D01*
X434299Y36129D01*
X434352Y361369D01*
X434361Y361418D01*
X434384Y361428D01*
X434477Y361409D01*
X43457Y361428D01*
X434649Y36148D01*
X434702Y361559D01*
X43472Y361652D01*
X434702Y361745D01*
X434649Y361824D01*
X43457Y361876D01*
X434477Y361895D01*
X434408Y361881D01*
X434356Y361913D01*
X434352Y361935D01*
X434299Y362014D01*
X43422Y362066D01*
X434127Y362085D01*
D02*
G37*
G36*
X425394Y364219D02*
X425301Y364201D01*
X425229Y364153D01*
X425207Y364148D01*
X425187D01*
X425165Y364153D01*
X425093Y364201D01*
X425Y364219D01*
X424907Y364201D01*
X424835Y364153D01*
X424813Y364148D01*
X424793D01*
X424771Y364153D01*
X424699Y364201D01*
X424606Y364219D01*
X424513Y364201D01*
X424435Y364148D01*
X424382Y364069D01*
X424364Y363976D01*
X424382Y363883D01*
X424435Y363805D01*
X424435Y363805D01*
Y363755D01*
X424435Y363754D01*
X424382Y363676D01*
X424364Y363583D01*
X424382Y36349D01*
X42443Y363418D01*
X424435Y363396D01*
Y363376D01*
X42443Y363354D01*
X424382Y363282D01*
X424364Y363189D01*
X424382Y363096D01*
X424435Y363017D01*
X424513Y362965D01*
X424606Y362946D01*
X424699Y362965D01*
X424771Y363013D01*
X424793Y363018D01*
X424813D01*
X424835Y363013D01*
X424907Y362965D01*
X425Y362946D01*
X425093Y362965D01*
X425165Y363013D01*
X425187Y363018D01*
X425207D01*
X425229Y363013D01*
X425301Y362965D01*
X425394Y362946D01*
X425487Y362965D01*
X425565Y363017D01*
X425618Y363096D01*
X425636Y363189D01*
X425618Y363282D01*
X42557Y363354D01*
X425565Y363376D01*
Y363396D01*
X42557Y363418D01*
X425618Y36349D01*
X425636Y363583D01*
X425618Y363676D01*
X425565Y363754D01*
X425565Y363755D01*
Y363805D01*
X425565Y363805D01*
X425618Y363883D01*
X425636Y363976D01*
X425618Y364069D01*
X425565Y364148D01*
X425487Y364201D01*
X425394Y364219D01*
D02*
G37*
G36*
X438857Y365396D02*
X438745Y365381D01*
X43864Y365338D01*
X438551Y365269D01*
X438482Y365179D01*
X438438Y365074D01*
X438424Y364962D01*
X438438Y36485D01*
X438482Y364745D01*
X438551Y364655D01*
X43864Y364586D01*
X438745Y364543D01*
X438857Y364528D01*
X43897Y364543D01*
X439074Y364586D01*
X439164Y364655D01*
X439233Y364745D01*
X439276Y36485D01*
X439291Y364962D01*
X439276Y365074D01*
X439233Y365179D01*
X439164Y365269D01*
X439074Y365338D01*
X43897Y365381D01*
X438857Y365396D01*
D02*
G37*
G36*
X437857D02*
X437745Y365381D01*
X43764Y365338D01*
X437551Y365269D01*
X437482Y365179D01*
X437438Y365074D01*
X437424Y364962D01*
X437438Y36485D01*
X437482Y364745D01*
X437551Y364655D01*
X43764Y364586D01*
X437745Y364543D01*
X437857Y364528D01*
X43797Y364543D01*
X438074Y364586D01*
X438164Y364655D01*
X438233Y364745D01*
X438276Y36485D01*
X438291Y364962D01*
X438276Y365074D01*
X438233Y365179D01*
X438164Y365269D01*
X438074Y365338D01*
X43797Y365381D01*
X437857Y365396D01*
D02*
G37*
G36*
X436857D02*
X436745Y365381D01*
X43664Y365338D01*
X436551Y365269D01*
X436482Y365179D01*
X436438Y365074D01*
X436424Y364962D01*
X436438Y36485D01*
X436482Y364745D01*
X436551Y364655D01*
X43664Y364586D01*
X436745Y364543D01*
X436857Y364528D01*
X43697Y364543D01*
X437074Y364586D01*
X437164Y364655D01*
X437233Y364745D01*
X437276Y36485D01*
X437291Y364962D01*
X437276Y365074D01*
X437233Y365179D01*
X437164Y365269D01*
X437074Y365338D01*
X43697Y365381D01*
X436857Y365396D01*
D02*
G37*
G36*
X434631Y370861D02*
X434538Y370842D01*
X434459Y37079D01*
X434407Y370711D01*
X434388Y370618D01*
X434407Y370525D01*
X434459Y370447D01*
X434538Y370394D01*
X434631Y370375D01*
X434724Y370394D01*
X434803Y370447D01*
X434855Y370525D01*
X434874Y370618D01*
X434855Y370711D01*
X434803Y37079D01*
X434724Y370842D01*
X434631Y370861D01*
D02*
G37*
G36*
X427617Y384427D02*
X427252D01*
Y384063D01*
X427294Y384068D01*
X427402Y384113D01*
X427495Y384184D01*
X427566Y384277D01*
X427611Y384386D01*
X427617Y384427D01*
D02*
G37*
G36*
X431967Y383931D02*
X431859Y383917D01*
X431758Y383875D01*
X431671Y383808D01*
X431605Y383721D01*
X431563Y38362D01*
X431548Y383512D01*
X431563Y383404D01*
X431605Y383303D01*
X431671Y383216D01*
X431758Y383149D01*
X431859Y383107D01*
X431967Y383093D01*
X432076Y383107D01*
X432177Y383149D01*
X432263Y383216D01*
X43233Y383303D01*
X432372Y383404D01*
X432386Y383512D01*
X432372Y38362D01*
X43233Y383721D01*
X432263Y383808D01*
X432177Y383875D01*
X432076Y383917D01*
X431967Y383931D01*
D02*
G37*
G36*
X430967D02*
X430859Y383917D01*
X430758Y383875D01*
X430671Y383808D01*
X430605Y383721D01*
X430563Y38362D01*
X430548Y383512D01*
X430563Y383404D01*
X430605Y383303D01*
X430671Y383216D01*
X430758Y383149D01*
X430859Y383107D01*
X430967Y383093D01*
X431076Y383107D01*
X431177Y383149D01*
X431264Y383216D01*
X43133Y383303D01*
X431372Y383404D01*
X431386Y383512D01*
X431372Y38362D01*
X43133Y383721D01*
X431264Y383808D01*
X431177Y383875D01*
X431076Y383917D01*
X430967Y383931D01*
D02*
G37*
G36*
X427102Y384427D02*
X426738D01*
X426744Y384386D01*
X426788Y384277D01*
X42686Y384184D01*
X426953Y384113D01*
X427061Y384068D01*
X427102Y384063D01*
Y384427D01*
D02*
G37*
G36*
X428177Y384921D02*
X428069Y384907D01*
X427968Y384865D01*
X427881Y384798D01*
X427815Y384711D01*
X427773Y38461D01*
X427758Y384502D01*
X427773Y384394D01*
X427815Y384293D01*
X427881Y384206D01*
X427968Y384139D01*
X428069Y384097D01*
X428177Y384083D01*
X428286Y384097D01*
X428387Y384139D01*
X428474Y384206D01*
X42854Y384293D01*
X428582Y384394D01*
X428596Y384502D01*
X428582Y38461D01*
X42854Y384711D01*
X428474Y384798D01*
X428387Y384865D01*
X428286Y384907D01*
X428177Y384921D01*
D02*
G37*
G36*
X426177D02*
X426069Y384907D01*
X425968Y384865D01*
X425881Y384798D01*
X425815Y384711D01*
X425773Y38461D01*
X425758Y384502D01*
X425773Y384394D01*
X425815Y384293D01*
X425881Y384206D01*
X425968Y384139D01*
X426069Y384097D01*
X426177Y384083D01*
X426286Y384097D01*
X426387Y384139D01*
X426474Y384206D01*
X42654Y384293D01*
X426582Y384394D01*
X426596Y384502D01*
X426582Y38461D01*
X42654Y384711D01*
X426474Y384798D01*
X426387Y384865D01*
X426286Y384907D01*
X426177Y384921D01*
D02*
G37*
G36*
X425177D02*
X425069Y384907D01*
X424968Y384865D01*
X424881Y384798D01*
X424815Y384711D01*
X424773Y38461D01*
X424758Y384502D01*
X424773Y384394D01*
X424815Y384293D01*
X424881Y384206D01*
X424968Y384139D01*
X425069Y384097D01*
X425177Y384083D01*
X425286Y384097D01*
X425387Y384139D01*
X425474Y384206D01*
X42554Y384293D01*
X425582Y384394D01*
X425596Y384502D01*
X425582Y38461D01*
X42554Y384711D01*
X425474Y384798D01*
X425387Y384865D01*
X425286Y384907D01*
X425177Y384921D01*
D02*
G37*
G36*
X427207Y377835D02*
X427114Y377816D01*
X427036Y377764D01*
X426983Y377685D01*
X426971Y377624D01*
X426917Y377635D01*
X426824Y377616D01*
X426746Y377564D01*
X426693Y377485D01*
X426675Y377392D01*
X426693Y377299D01*
X426746Y37722D01*
X426824Y377168D01*
X426917Y377149D01*
X42701Y377168D01*
X427089Y37722D01*
X427142Y377299D01*
X427154Y37736D01*
X427207Y377349D01*
X427272Y377362D01*
X427283Y377309D01*
X427336Y37723D01*
X427414Y377178D01*
X427507Y377159D01*
X4276Y377178D01*
X427679Y37723D01*
X427732Y377309D01*
X42774Y377353D01*
X427807Y377339D01*
X4279Y377358D01*
X427979Y37741D01*
X428032Y377489D01*
X42805Y377582D01*
X428032Y377675D01*
X427979Y377754D01*
X4279Y377806D01*
X427807Y377825D01*
X427714Y377806D01*
X427636Y377754D01*
X427583Y377675D01*
X427574Y377631D01*
X427507Y377645D01*
X427442Y377632D01*
X427432Y377685D01*
X427379Y377764D01*
X4273Y377816D01*
X427207Y377835D01*
D02*
G37*
G36*
X427517Y376615D02*
X427424Y376596D01*
X427346Y376544D01*
X427293Y376465D01*
X427275Y376372D01*
X427293Y376279D01*
X427346Y3762D01*
X427424Y376148D01*
X427517Y376129D01*
X42761Y376148D01*
X427689Y3762D01*
X427742Y376279D01*
X42776Y376372D01*
X427742Y376465D01*
X427689Y376544D01*
X42761Y376596D01*
X427517Y376615D01*
D02*
G37*
G36*
X429697Y376545D02*
X429604Y376526D01*
X429526Y376474D01*
X429473Y376395D01*
X429455Y376302D01*
X429473Y376209D01*
X429526Y37613D01*
X429604Y376078D01*
X429697Y376059D01*
X42979Y376078D01*
X429869Y37613D01*
X429922Y376209D01*
X42994Y376302D01*
X429922Y376395D01*
X429869Y376474D01*
X42979Y376526D01*
X429697Y376545D01*
D02*
G37*
G36*
X41307Y379892D02*
X412987Y379881D01*
X41291Y379849D01*
X412844Y379798D01*
X412793Y379732D01*
X412761Y379655D01*
X41275Y379572D01*
X412761Y37949D01*
X412793Y379413D01*
X412844Y379346D01*
X41291Y379296D01*
X412987Y379264D01*
X41307Y379253D01*
X413153Y379264D01*
X41323Y379296D01*
X413296Y379346D01*
X413347Y379413D01*
X413379Y37949D01*
X413389Y379572D01*
X413379Y379655D01*
X413347Y379732D01*
X413296Y379798D01*
X41323Y379849D01*
X413153Y379881D01*
X41307Y379892D01*
D02*
G37*
G36*
X429657Y383921D02*
X429549Y383907D01*
X429448Y383865D01*
X429361Y383798D01*
X429295Y383711D01*
X429253Y38361D01*
X429238Y383502D01*
X429253Y383394D01*
X429295Y383293D01*
X429361Y383206D01*
X429448Y383139D01*
X429549Y383097D01*
X429657Y383083D01*
X429766Y383097D01*
X429867Y383139D01*
X429953Y383206D01*
X43002Y383293D01*
X430062Y383394D01*
X430076Y383502D01*
X430062Y38361D01*
X43002Y383711D01*
X429953Y383798D01*
X429867Y383865D01*
X429766Y383907D01*
X429657Y383921D01*
D02*
G37*
G36*
X41307Y383042D02*
X412987Y383031D01*
X41291Y382999D01*
X412844Y382948D01*
X412793Y382882D01*
X412761Y382805D01*
X41275Y382722D01*
X412761Y382639D01*
X412793Y382562D01*
X412844Y382496D01*
X41291Y382445D01*
X412987Y382413D01*
X41307Y382402D01*
X413153Y382413D01*
X41323Y382445D01*
X413296Y382496D01*
X413347Y382562D01*
X413379Y382639D01*
X413389Y382722D01*
X413379Y382805D01*
X413347Y382882D01*
X413296Y382948D01*
X41323Y382999D01*
X413153Y383031D01*
X41307Y383042D01*
D02*
G37*
G36*
X418097Y381155D02*
X418004Y381136D01*
X417926Y381084D01*
X417873Y381005D01*
X417855Y380912D01*
X417873Y380819D01*
X417926Y38074D01*
X418004Y380688D01*
X418097Y380669D01*
X41819Y380688D01*
X418269Y38074D01*
X418322Y380819D01*
X41834Y380912D01*
X418322Y381005D01*
X418269Y381084D01*
X41819Y381136D01*
X418097Y381155D01*
D02*
G37*
G36*
X426177Y385921D02*
X426069Y385907D01*
X425968Y385865D01*
X425881Y385798D01*
X425815Y385711D01*
X425773Y38561D01*
X425758Y385502D01*
X425773Y385394D01*
X425815Y385293D01*
X425881Y385206D01*
X425968Y385139D01*
X426069Y385097D01*
X426177Y385083D01*
X426286Y385097D01*
X426387Y385139D01*
X426474Y385206D01*
X42654Y385293D01*
X426582Y385394D01*
X426596Y385502D01*
X426582Y38561D01*
X42654Y385711D01*
X426474Y385798D01*
X426387Y385865D01*
X426286Y385907D01*
X426177Y385921D01*
D02*
G37*
G36*
X425177D02*
X425069Y385907D01*
X424968Y385865D01*
X424881Y385798D01*
X424815Y385711D01*
X424773Y38561D01*
X424758Y385502D01*
X424773Y385394D01*
X424815Y385293D01*
X424881Y385206D01*
X424968Y385139D01*
X425069Y385097D01*
X425177Y385083D01*
X425286Y385097D01*
X425387Y385139D01*
X425474Y385206D01*
X42554Y385293D01*
X425582Y385394D01*
X425596Y385502D01*
X425582Y38561D01*
X42554Y385711D01*
X425474Y385798D01*
X425387Y385865D01*
X425286Y385907D01*
X425177Y385921D01*
D02*
G37*
G36*
X427102Y385427D02*
X426738D01*
X426744Y385386D01*
X426788Y385277D01*
X42686Y385184D01*
X426953Y385113D01*
X427061Y385068D01*
X427102Y385063D01*
Y385427D01*
D02*
G37*
G36*
X428593Y385917D02*
X427762D01*
Y385087D01*
X428593D01*
Y385917D01*
D02*
G37*
G36*
X427252Y385941D02*
Y385577D01*
X427617D01*
X427611Y385618D01*
X427566Y385727D01*
X427495Y38582D01*
X427402Y385891D01*
X427294Y385936D01*
X427252Y385941D01*
D02*
G37*
G36*
X427102Y385941D02*
X427061Y385936D01*
X426953Y385891D01*
X42686Y38582D01*
X426788Y385727D01*
X426744Y385618D01*
X426738Y385577D01*
X427102D01*
Y385941D01*
D02*
G37*
G36*
X431967Y385931D02*
X431859Y385917D01*
X431758Y385875D01*
X431671Y385808D01*
X431605Y385721D01*
X431563Y38562D01*
X431548Y385512D01*
X431563Y385404D01*
X431605Y385303D01*
X431671Y385216D01*
X431758Y385149D01*
X431859Y385107D01*
X431967Y385093D01*
X432076Y385107D01*
X432177Y385149D01*
X432263Y385216D01*
X43233Y385303D01*
X432372Y385404D01*
X432386Y385512D01*
X432372Y38562D01*
X43233Y385721D01*
X432263Y385808D01*
X432177Y385875D01*
X432076Y385917D01*
X431967Y385931D01*
D02*
G37*
G36*
X431967Y384931D02*
X431859Y384917D01*
X431758Y384875D01*
X431671Y384808D01*
X431605Y384721D01*
X431563Y38462D01*
X431548Y384512D01*
X431563Y384404D01*
X431605Y384303D01*
X431671Y384216D01*
X431758Y384149D01*
X431859Y384107D01*
X431967Y384093D01*
X432076Y384107D01*
X432177Y384149D01*
X432263Y384216D01*
X43233Y384303D01*
X432372Y384404D01*
X432386Y384512D01*
X432372Y38462D01*
X43233Y384721D01*
X432263Y384808D01*
X432177Y384875D01*
X432076Y384917D01*
X431967Y384931D01*
D02*
G37*
G36*
X430967D02*
X430859Y384917D01*
X430758Y384875D01*
X430671Y384808D01*
X430605Y384721D01*
X430563Y38462D01*
X430548Y384512D01*
X430563Y384404D01*
X430605Y384303D01*
X430671Y384216D01*
X430758Y384149D01*
X430859Y384107D01*
X430967Y384093D01*
X431076Y384107D01*
X431177Y384149D01*
X431264Y384216D01*
X43133Y384303D01*
X431372Y384404D01*
X431386Y384512D01*
X431372Y38462D01*
X43133Y384721D01*
X431264Y384808D01*
X431177Y384875D01*
X431076Y384917D01*
X430967Y384931D01*
D02*
G37*
G36*
X429657Y384921D02*
X429549Y384907D01*
X429448Y384865D01*
X429361Y384798D01*
X429295Y384711D01*
X429253Y38461D01*
X429238Y384502D01*
X429253Y384394D01*
X429295Y384293D01*
X429361Y384206D01*
X429448Y384139D01*
X429549Y384097D01*
X429657Y384083D01*
X429766Y384097D01*
X429867Y384139D01*
X429953Y384206D01*
X43002Y384293D01*
X430062Y384394D01*
X430076Y384502D01*
X430062Y38461D01*
X43002Y384711D01*
X429953Y384798D01*
X429867Y384865D01*
X429766Y384907D01*
X429657Y384921D01*
D02*
G37*
G36*
X427102Y384941D02*
X427061Y384936D01*
X426953Y384891D01*
X42686Y38482D01*
X426788Y384727D01*
X426744Y384618D01*
X426738Y384577D01*
X427102D01*
Y384941D01*
D02*
G37*
G36*
X427617Y385427D02*
X427252D01*
Y385063D01*
X427294Y385068D01*
X427402Y385113D01*
X427495Y385184D01*
X427566Y385277D01*
X427611Y385386D01*
X427617Y385427D01*
D02*
G37*
G36*
X417687Y384845D02*
X417594Y384826D01*
X417553Y384798D01*
X417512Y384776D01*
X417472Y384798D01*
X41743Y384826D01*
X417337Y384845D01*
X417244Y384826D01*
X417166Y384774D01*
X417113Y384695D01*
X417095Y384602D01*
X417113Y384509D01*
X417166Y38443D01*
X417244Y384378D01*
X417337Y384359D01*
X41743Y384378D01*
X417472Y384406D01*
X417512Y384428D01*
X417553Y384406D01*
X417594Y384378D01*
X417687Y384359D01*
X41778Y384378D01*
X417859Y38443D01*
X417912Y384509D01*
X41793Y384602D01*
X417912Y384695D01*
X417859Y384774D01*
X41778Y384826D01*
X417687Y384845D01*
D02*
G37*
G36*
X427252Y384941D02*
Y384577D01*
X427617D01*
X427611Y384618D01*
X427566Y384727D01*
X427495Y38482D01*
X427402Y384891D01*
X427294Y384936D01*
X427252Y384941D01*
D02*
G37*
G36*
X429057Y376535D02*
X428964Y376516D01*
X428886Y376464D01*
X428833Y376385D01*
X428815Y376292D01*
X428833Y376199D01*
X428886Y37612D01*
X428964Y376068D01*
X429057Y376049D01*
X42915Y376068D01*
X429229Y37612D01*
X429282Y376199D01*
X4293Y376292D01*
X429282Y376385D01*
X429229Y376464D01*
X42915Y376516D01*
X429057Y376535D01*
D02*
G37*
G36*
X433267Y371805D02*
X433174Y371786D01*
X433096Y371734D01*
X433043Y371655D01*
X433025Y371562D01*
X433043Y371469D01*
X433096Y37139D01*
X433174Y371338D01*
X433267Y371319D01*
X43336Y371338D01*
X433439Y37139D01*
X433492Y371469D01*
X43351Y371562D01*
X433492Y371655D01*
X433439Y371734D01*
X43336Y371786D01*
X433267Y371805D01*
D02*
G37*
G36*
X424197Y371745D02*
X424104Y371726D01*
X424026Y371674D01*
X423973Y371595D01*
X423955Y371502D01*
X423973Y371409D01*
X424026Y37133D01*
X424104Y371278D01*
X424197Y371259D01*
X42429Y371278D01*
X424369Y37133D01*
X424422Y371409D01*
X42444Y371502D01*
X424422Y371595D01*
X424369Y371674D01*
X42429Y371726D01*
X424197Y371745D01*
D02*
G37*
G36*
X430407Y372105D02*
X430314Y372086D01*
X430236Y372034D01*
X430183Y371955D01*
X430165Y371862D01*
X430183Y371769D01*
X430236Y37169D01*
X430288Y371655D01*
X430302Y371593D01*
X430283Y371565D01*
X430265Y371472D01*
X430283Y371379D01*
X430336Y3713D01*
X430414Y371248D01*
X430507Y371229D01*
X4306Y371248D01*
X430679Y3713D01*
X430732Y371379D01*
X43075Y371472D01*
X430732Y371565D01*
X430679Y371644D01*
X430627Y371679D01*
X430613Y371741D01*
X430632Y371769D01*
X43065Y371862D01*
X430632Y371955D01*
X430579Y372034D01*
X4305Y372086D01*
X430407Y372105D01*
D02*
G37*
G36*
X438787Y372155D02*
X438694Y372136D01*
X438616Y372084D01*
X438563Y372005D01*
X438545Y371912D01*
X438563Y371819D01*
X438596Y371769D01*
X438553Y371705D01*
X438535Y371612D01*
X438553Y371519D01*
X438606Y37144D01*
X438684Y371388D01*
X438777Y371369D01*
X43887Y371388D01*
X438949Y37144D01*
X439002Y371519D01*
X43902Y371612D01*
X439002Y371705D01*
X438968Y371754D01*
X439012Y371819D01*
X43903Y371912D01*
X439012Y372005D01*
X438959Y372084D01*
X43888Y372136D01*
X438787Y372155D01*
D02*
G37*
G36*
X426877Y373005D02*
X426784Y372986D01*
X426706Y372934D01*
X426653Y372855D01*
X426635Y372762D01*
X426653Y372669D01*
X426706Y37259D01*
X426784Y372538D01*
X426877Y372519D01*
X4269Y372497D01*
X426895Y372472D01*
X426913Y372379D01*
X426966Y3723D01*
X427044Y372248D01*
X4271Y372237D01*
X427137Y372218D01*
X427137Y372182D01*
X427125Y372122D01*
X427143Y372029D01*
X427196Y37195D01*
X427274Y371898D01*
X427367Y371879D01*
X42746Y371898D01*
X427479Y37191D01*
X427506Y37187D01*
X427584Y371818D01*
X427677Y371799D01*
X42777Y371818D01*
X427849Y37187D01*
X427902Y371949D01*
X42792Y372042D01*
X427902Y372135D01*
X427849Y372214D01*
X42777Y372266D01*
X427677Y372285D01*
X427584Y372266D01*
X427566Y372254D01*
X427539Y372294D01*
X42746Y372346D01*
X427404Y372357D01*
X427368Y372376D01*
X427368Y372412D01*
X42738Y372472D01*
X427362Y372565D01*
X427309Y372644D01*
X42723Y372696D01*
X427137Y372715D01*
X427115Y372737D01*
X42712Y372762D01*
X427102Y372855D01*
X427049Y372934D01*
X42697Y372986D01*
X426877Y373005D01*
D02*
G37*
G36*
X432367Y372645D02*
X432274Y372626D01*
X432196Y372574D01*
X432143Y372495D01*
X432125Y372402D01*
X432143Y372309D01*
X432196Y37223D01*
X432274Y372178D01*
X432339Y372165D01*
X432356Y372161D01*
Y37211D01*
X432341Y372107D01*
X432284Y372096D01*
X432206Y372044D01*
X432153Y371965D01*
X432135Y371872D01*
X432153Y371779D01*
X432206Y3717D01*
X432284Y371648D01*
X432377Y371629D01*
X43247Y371648D01*
X432549Y3717D01*
X432602Y371779D01*
X43262Y371872D01*
X432602Y371965D01*
X432549Y372044D01*
X43247Y372096D01*
X432405Y372109D01*
X432389Y372112D01*
Y372163D01*
X432404Y372166D01*
X43246Y372178D01*
X432539Y37223D01*
X432592Y372309D01*
X43261Y372402D01*
X432592Y372495D01*
X432539Y372574D01*
X43246Y372626D01*
X432367Y372645D01*
D02*
G37*
G36*
X426437Y371775D02*
X426344Y371756D01*
X426266Y371704D01*
X426213Y371625D01*
X426211Y371614D01*
X426157Y371601D01*
X42609Y371646D01*
X425997Y371665D01*
X425904Y371646D01*
X425826Y371594D01*
X425773Y371515D01*
X425755Y371422D01*
X425773Y371329D01*
X425826Y37125D01*
X425904Y371198D01*
X425997Y371179D01*
X42609Y371198D01*
X426169Y37125D01*
X426222Y371329D01*
X426224Y37134D01*
X426277Y371353D01*
X426344Y371308D01*
X426437Y371289D01*
X42653Y371308D01*
X426609Y37136D01*
X426662Y371439D01*
X42668Y371532D01*
X426662Y371625D01*
X426609Y371704D01*
X42653Y371756D01*
X426437Y371775D01*
D02*
G37*
G36*
X423487Y371875D02*
X423394Y371856D01*
X423316Y371804D01*
X423263Y371725D01*
X423245Y371632D01*
X423263Y371539D01*
X423316Y37146D01*
X423328Y371452D01*
X423328Y371449D01*
X423313Y371402D01*
X423234Y371386D01*
X423156Y371334D01*
X423103Y371255D01*
X423085Y371162D01*
X423103Y371069D01*
X423156Y37099D01*
X423234Y370938D01*
X423327Y370919D01*
X42342Y370938D01*
X423499Y37099D01*
X423552Y371069D01*
X42357Y371162D01*
X423552Y371255D01*
X423499Y371334D01*
X423487Y371342D01*
X423487Y371345D01*
X423502Y371392D01*
X42358Y371408D01*
X423659Y37146D01*
X423712Y371539D01*
X42373Y371632D01*
X423712Y371725D01*
X423659Y371804D01*
X42358Y371856D01*
X423487Y371875D01*
D02*
G37*
G36*
X429517Y371375D02*
X429424Y371356D01*
X429346Y371304D01*
X429293Y371225D01*
X429275Y371132D01*
X429293Y371039D01*
X429346Y37096D01*
X429424Y370908D01*
X429517Y370889D01*
X42961Y370908D01*
X429689Y37096D01*
X429742Y371039D01*
X42976Y371132D01*
X429742Y371225D01*
X429689Y371304D01*
X42961Y371356D01*
X429517Y371375D01*
D02*
G37*
G36*
X432177Y371095D02*
X432084Y371076D01*
X432006Y371024D01*
X431953Y370945D01*
X431935Y370852D01*
X431941Y370819D01*
X43194Y370816D01*
X431898Y370781D01*
X431827Y370795D01*
X431734Y370776D01*
X431656Y370724D01*
X431603Y370645D01*
X431585Y370552D01*
X431603Y370459D01*
X431656Y37038D01*
X431734Y370328D01*
X431766Y370321D01*
Y37027D01*
X431744Y370266D01*
X431666Y370214D01*
X431613Y370135D01*
X431595Y370042D01*
X431613Y369949D01*
X431666Y36987D01*
X431744Y369818D01*
X431799Y369807D01*
X431845Y369782D01*
X431863Y369689D01*
X431916Y36961D01*
X431994Y369558D01*
X432086Y369539D01*
X432085Y369532D01*
X432103Y369439D01*
X432156Y36936D01*
X432234Y369308D01*
X43229Y369297D01*
X432334Y369263D01*
X432339Y36924D01*
X432353Y369169D01*
X432406Y36909D01*
X432484Y369038D01*
X432577Y369019D01*
X43267Y369038D01*
X432749Y36909D01*
X432802Y369169D01*
X43282Y369262D01*
X432802Y369355D01*
X432749Y369434D01*
X43267Y369486D01*
X432614Y369497D01*
X432571Y369531D01*
X432566Y369553D01*
X432552Y369625D01*
X432499Y369704D01*
X43242Y369756D01*
X432329Y369774D01*
X43233Y369782D01*
X432312Y369875D01*
X432259Y369954D01*
X43218Y370006D01*
X432126Y370017D01*
X43208Y370042D01*
X432062Y370135D01*
X432009Y370214D01*
X43193Y370266D01*
X431899Y370272D01*
Y370323D01*
X43192Y370328D01*
X431999Y37038D01*
X432052Y370459D01*
X43207Y370552D01*
X432064Y370585D01*
X432065Y370588D01*
X432107Y370623D01*
X432177Y370609D01*
X43227Y370628D01*
X432349Y37068D01*
X432402Y370759D01*
X43242Y370852D01*
X432402Y370945D01*
X432349Y371024D01*
X43227Y371076D01*
X432177Y371095D01*
D02*
G37*
G36*
X418907Y371035D02*
X418814Y371016D01*
X418736Y370964D01*
X418732Y370959D01*
X418682D01*
X418679Y370964D01*
X4186Y371016D01*
X418507Y371035D01*
X418414Y371016D01*
X418336Y370964D01*
X418283Y370885D01*
X418265Y370792D01*
X418283Y370699D01*
X418336Y37062D01*
X418414Y370568D01*
X418507Y370549D01*
X4186Y370568D01*
X418679Y37062D01*
X418682Y370625D01*
X418732D01*
X418736Y37062D01*
X418814Y370568D01*
X418907Y370549D01*
X419Y370568D01*
X419067Y370612D01*
X419107Y370601D01*
X419118Y370558D01*
X419083Y370505D01*
X419065Y370412D01*
X419083Y370319D01*
X419136Y37024D01*
Y370214D01*
X419083Y370135D01*
X419065Y370042D01*
X419083Y369949D01*
X419117Y369898D01*
X419109Y36987D01*
X419059Y369857D01*
X419Y369896D01*
X418907Y369915D01*
X418814Y369896D01*
X418736Y369844D01*
X418732Y369839D01*
X418682D01*
X418679Y369844D01*
X4186Y369896D01*
X418507Y369915D01*
X418414Y369896D01*
X418336Y369844D01*
X418283Y369765D01*
X418265Y369672D01*
X418283Y369579D01*
X418336Y3695D01*
X418414Y369448D01*
X418507Y369429D01*
X4186Y369448D01*
X418679Y3695D01*
X418682Y369505D01*
X418732D01*
X418736Y3695D01*
X418814Y369448D01*
X418907Y369429D01*
X419Y369448D01*
X419079Y3695D01*
X419082Y369505D01*
X419132D01*
X419136Y3695D01*
X419214Y369448D01*
X419307Y369429D01*
X4194Y369448D01*
X419479Y3695D01*
X419532Y369579D01*
X41955Y369672D01*
X419532Y369765D01*
X419479Y369844D01*
Y36987D01*
X419532Y369949D01*
X41955Y370042D01*
X419532Y370135D01*
X419479Y370214D01*
Y37024D01*
X419532Y370319D01*
X41955Y370412D01*
X419532Y370505D01*
X419479Y370584D01*
Y37061D01*
X419532Y370689D01*
X41955Y370782D01*
X419532Y370875D01*
X419479Y370954D01*
X4194Y371006D01*
X419307Y371025D01*
X419214Y371006D01*
X419143Y370958D01*
X41912Y370954D01*
X419086D01*
X419079Y370964D01*
X419Y371016D01*
X418907Y371035D01*
D02*
G37*
G36*
X412807Y37177D02*
Y371142D01*
X413435D01*
X413396Y371269D01*
X413317Y371416D01*
X413211Y371546D01*
X413082Y371652D01*
X412934Y371731D01*
X412807Y37177D01*
D02*
G37*
G36*
X412407Y37177D02*
X41228Y371731D01*
X412133Y371652D01*
X412003Y371546D01*
X411897Y371416D01*
X411818Y371269D01*
X41178Y371142D01*
X412407D01*
Y37177D01*
D02*
G37*
G36*
X427997Y371565D02*
X427904Y371546D01*
X427826Y371494D01*
X427773Y371415D01*
X427755Y371322D01*
X427773Y371229D01*
X427826Y37115D01*
X427904Y371098D01*
X427997Y371079D01*
X42809Y371098D01*
X428169Y37115D01*
X428222Y371229D01*
X42824Y371322D01*
X428222Y371415D01*
X428169Y371494D01*
X42809Y371546D01*
X427997Y371565D01*
D02*
G37*
G36*
X434571Y374381D02*
X434478Y374362D01*
X434399Y37431D01*
X434347Y374231D01*
X434328Y374138D01*
X434347Y374045D01*
X434399Y373967D01*
X434478Y373914D01*
X434571Y373895D01*
X434664Y373914D01*
X434743Y373967D01*
X434795Y374045D01*
X434814Y374138D01*
X434795Y374231D01*
X434743Y37431D01*
X434664Y374362D01*
X434571Y374381D01*
D02*
G37*
G36*
X427397Y374445D02*
X427304Y374426D01*
X427226Y374374D01*
X427173Y374295D01*
X427155Y374202D01*
X427173Y374109D01*
X427226Y37403D01*
X427304Y373978D01*
X427397Y373959D01*
X42747Y373974D01*
X42751Y373941D01*
X427513Y373935D01*
X427505Y373892D01*
X427523Y373799D01*
X427576Y37372D01*
X427654Y373668D01*
X427747Y373649D01*
X42784Y373668D01*
X427919Y37372D01*
X427972Y373799D01*
X42799Y373892D01*
X427972Y373985D01*
X427919Y374064D01*
X42784Y374116D01*
X427747Y374135D01*
X427675Y37412D01*
X427634Y374153D01*
X427631Y374159D01*
X42764Y374202D01*
X427622Y374295D01*
X427569Y374374D01*
X42749Y374426D01*
X427397Y374445D01*
D02*
G37*
G36*
X428607Y373785D02*
X428514Y373766D01*
X428436Y373714D01*
X428383Y373635D01*
X428365Y373542D01*
X428383Y373449D01*
X428436Y37337D01*
X428514Y373318D01*
X428526Y373315D01*
X428532Y37328D01*
X42853Y373264D01*
X428456Y373214D01*
X428403Y373135D01*
X428385Y373042D01*
X428403Y372949D01*
X428456Y37287D01*
X428534Y372818D01*
X428627Y372799D01*
X42872Y372818D01*
X428799Y37287D01*
X428852Y372949D01*
X42887Y373042D01*
X428852Y373135D01*
X428799Y373214D01*
X42872Y373266D01*
X428709Y373268D01*
X428703Y373304D01*
X428704Y37332D01*
X428779Y37337D01*
X428832Y373449D01*
X42885Y373542D01*
X428832Y373635D01*
X428779Y373714D01*
X4287Y373766D01*
X428607Y373785D01*
D02*
G37*
G36*
X432047Y374535D02*
X431954Y374516D01*
X431876Y374464D01*
X431823Y374385D01*
X431805Y374292D01*
X431823Y374199D01*
X431876Y37412D01*
X431954Y374068D01*
X432047Y374049D01*
X43214Y374068D01*
X432219Y37412D01*
X432272Y374199D01*
X43229Y374292D01*
X432272Y374385D01*
X432219Y374464D01*
X43214Y374516D01*
X432047Y374535D01*
D02*
G37*
G36*
X427897Y376075D02*
X427804Y376056D01*
X427726Y376004D01*
X427673Y375925D01*
X427655Y375832D01*
X427673Y375739D01*
X427726Y37566D01*
X427804Y375608D01*
X427897Y375589D01*
X42799Y375608D01*
X428069Y37566D01*
X428122Y375739D01*
X42814Y375832D01*
X428122Y375925D01*
X428069Y376004D01*
X42799Y376056D01*
X427897Y376075D01*
D02*
G37*
G36*
X43187Y377309D02*
X431692Y377292D01*
X431521Y37724D01*
X431364Y377156D01*
X431225Y377042D01*
X431112Y376904D01*
X431028Y376747D01*
X430976Y376576D01*
X430958Y376398D01*
X430976Y37622D01*
X431028Y376049D01*
X431112Y375891D01*
X431225Y375753D01*
X431364Y375639D01*
X431521Y375555D01*
X431692Y375503D01*
X43187Y375486D01*
X432048Y375503D01*
X432219Y375555D01*
X432377Y375639D01*
X432515Y375753D01*
X432628Y375891D01*
X432712Y376049D01*
X432764Y37622D01*
X432782Y376398D01*
X432764Y376576D01*
X432712Y376747D01*
X432628Y376904D01*
X432515Y377042D01*
X432377Y377156D01*
X432219Y37724D01*
X432048Y377292D01*
X43187Y377309D01*
D02*
G37*
G36*
X415925D02*
X415747Y377292D01*
X415576Y37724D01*
X415419Y377156D01*
X41528Y377042D01*
X415167Y376904D01*
X415083Y376747D01*
X415031Y376576D01*
X415013Y376398D01*
X415031Y37622D01*
X415083Y376049D01*
X415167Y375891D01*
X41528Y375753D01*
X415419Y375639D01*
X415576Y375555D01*
X415747Y375503D01*
X415925Y375486D01*
X416103Y375503D01*
X416274Y375555D01*
X416432Y375639D01*
X41657Y375753D01*
X416683Y375891D01*
X416768Y376049D01*
X416819Y37622D01*
X416837Y376398D01*
X416819Y376576D01*
X416768Y376747D01*
X416683Y376904D01*
X41657Y377042D01*
X416432Y377156D01*
X416274Y37724D01*
X416103Y377292D01*
X415925Y377309D01*
D02*
G37*
G36*
X430007Y372885D02*
X429914Y372866D01*
X429836Y372814D01*
X429783Y372735D01*
X429765Y372642D01*
X429783Y372549D01*
X429836Y37247D01*
X429914Y372418D01*
X430007Y372399D01*
X4301Y372418D01*
X430107Y372422D01*
X430156Y37235D01*
X430234Y372298D01*
X430327Y372279D01*
X43042Y372298D01*
X430499Y37235D01*
X430552Y372429D01*
X43057Y372522D01*
X430552Y372615D01*
X430499Y372694D01*
X43042Y372746D01*
X430327Y372765D01*
X430234Y372746D01*
X430227Y372741D01*
X430179Y372814D01*
X4301Y372866D01*
X430007Y372885D01*
D02*
G37*
G36*
X429577Y372525D02*
X429484Y372506D01*
X429406Y372454D01*
X429353Y372375D01*
X429335Y372282D01*
X429343Y372239D01*
X429301Y372196D01*
X429257Y372205D01*
X429164Y372186D01*
X429086Y372134D01*
X429033Y372055D01*
X429015Y371962D01*
X429033Y371869D01*
X429086Y37179D01*
X429164Y371738D01*
X429257Y371719D01*
X42935Y371738D01*
X429429Y37179D01*
X429482Y371869D01*
X4295Y371962D01*
X429491Y372005D01*
X429534Y372048D01*
X429577Y372039D01*
X42967Y372058D01*
X429749Y37211D01*
X429802Y372189D01*
X42982Y372282D01*
X429802Y372375D01*
X429749Y372454D01*
X42967Y372506D01*
X429577Y372525D01*
D02*
G37*
G36*
X431857Y372345D02*
X431764Y372326D01*
X431686Y372274D01*
X431633Y372195D01*
X431615Y372102D01*
X431633Y372009D01*
X431686Y37193D01*
X431764Y371878D01*
X431857Y371859D01*
X43195Y371878D01*
X432029Y37193D01*
X432082Y372009D01*
X4321Y372102D01*
X432082Y372195D01*
X432029Y372274D01*
X43195Y372326D01*
X431857Y372345D01*
D02*
G37*
G36*
X434821Y372405D02*
X434728Y372386D01*
X434669Y372347D01*
X43461Y372386D01*
X434517Y372405D01*
X434424Y372386D01*
X434346Y372334D01*
X434293Y372255D01*
X434275Y372162D01*
X434293Y372069D01*
X434346Y37199D01*
X434424Y371938D01*
X434517Y371919D01*
X43461Y371938D01*
X434669Y371977D01*
X434728Y371938D01*
X434821Y371919D01*
X434914Y371938D01*
X434993Y37199D01*
X435045Y372069D01*
X435064Y372162D01*
X435045Y372255D01*
X434993Y372334D01*
X434914Y372386D01*
X434821Y372405D01*
D02*
G37*
G36*
X432367Y373265D02*
X432274Y373246D01*
X432196Y373194D01*
X432143Y373115D01*
X432125Y373022D01*
X432143Y372929D01*
X432196Y37285D01*
X432274Y372798D01*
X432367Y372779D01*
X43246Y372798D01*
X432539Y37285D01*
X432592Y372929D01*
X43261Y373022D01*
X432592Y373115D01*
X432539Y373194D01*
X43246Y373246D01*
X432367Y373265D01*
D02*
G37*
G36*
X424187Y373095D02*
X424094Y373076D01*
X424016Y373024D01*
X423963Y372945D01*
X423945Y372852D01*
X423963Y372759D01*
X424016Y37268D01*
X424094Y372628D01*
X424187Y372609D01*
X42428Y372628D01*
X424359Y37268D01*
X424412Y372759D01*
X42443Y372852D01*
X424412Y372945D01*
X424359Y373024D01*
X42428Y373076D01*
X424187Y373095D01*
D02*
G37*
G36*
X431847Y372935D02*
X431754Y372916D01*
X431676Y372864D01*
X431623Y372785D01*
X431605Y372692D01*
X431623Y372599D01*
X431676Y37252D01*
X431754Y372468D01*
X431847Y372449D01*
X43194Y372468D01*
X432019Y37252D01*
X432072Y372599D01*
X43209Y372692D01*
X432072Y372785D01*
X432019Y372864D01*
X43194Y372916D01*
X431847Y372935D01*
D02*
G37*
%LPD*%
D58*
X441668Y363663D02*
D03*
X435546D02*
D03*
D59*
X440097Y360533D02*
D03*
D61*
X426337Y360222D02*
D03*
Y361222D02*
D03*
X429507Y360242D02*
D03*
X427177Y385502D02*
D03*
Y384502D02*
D03*
D62*
X430967Y385512D02*
D03*
X429657Y385502D02*
D03*
D63*
X412607Y370942D02*
D03*
D65*
X440317Y386452D02*
D03*
X440197Y385912D02*
D03*
X440207Y385352D02*
D03*
X440317Y384752D02*
D03*
X445417Y373452D02*
D03*
X444917D02*
D03*
X444417D02*
D03*
X443917D02*
D03*
X443417D02*
D03*
X442917D02*
D03*
X442417D02*
D03*
X441917D02*
D03*
X441417D02*
D03*
X440917D02*
D03*
X440317Y373652D02*
D03*
Y374252D02*
D03*
Y374752D02*
D03*
Y376252D02*
D03*
Y376752D02*
D03*
Y377252D02*
D03*
Y377752D02*
D03*
Y378252D02*
D03*
Y378752D02*
D03*
Y379252D02*
D03*
Y379752D02*
D03*
Y380252D02*
D03*
Y380752D02*
D03*
Y381252D02*
D03*
Y381752D02*
D03*
Y382252D02*
D03*
Y382852D02*
D03*
X431457Y361952D02*
D03*
X427507Y375522D02*
D03*
X439124Y384709D02*
D03*
X439687Y384252D02*
D03*
X440197Y384222D02*
D03*
X440187Y375072D02*
D03*
X417007Y384192D02*
D03*
X41654Y383824D02*
D03*
X41745D02*
D03*
X417007Y378582D02*
D03*
Y377602D02*
D03*
X417502Y378076D02*
D03*
X417075Y369384D02*
D03*
Y368354D02*
D03*
X417697Y368892D02*
D03*
X412507Y372352D02*
D03*
X419737Y385152D02*
D03*
X415967Y385122D02*
D03*
X420297Y380102D02*
D03*
X424407Y374142D02*
D03*
X418987Y381412D02*
D03*
X417967Y382052D02*
D03*
X426181Y365157D02*
D03*
X426772Y365551D02*
D03*
X425591D02*
D03*
X439173Y360827D02*
D03*
X438189D02*
D03*
X439173Y361614D02*
D03*
X438189D02*
D03*
Y362402D02*
D03*
X439173D02*
D03*
Y363189D02*
D03*
X438189D02*
D03*
X437205Y36378D02*
D03*
X438189D02*
D03*
X439173D02*
D03*
X439961D02*
D03*
X442913Y363189D02*
D03*
X444882D02*
D03*
X418387Y372052D02*
D03*
X434597Y359802D02*
D03*
Y360172D02*
D03*
X434257Y359682D02*
D03*
Y360002D02*
D03*
X434597Y360522D02*
D03*
X434887Y362202D02*
D03*
X434847Y362612D02*
D03*
X427067Y368002D02*
D03*
X426817Y367322D02*
D03*
X425577Y367342D02*
D03*
X423228Y366437D02*
D03*
X424409Y365453D02*
D03*
Y365945D02*
D03*
Y366437D02*
D03*
X423819D02*
D03*
Y365453D02*
D03*
Y365945D02*
D03*
X423228Y365453D02*
D03*
Y365945D02*
D03*
X422638Y365453D02*
D03*
Y365945D02*
D03*
X422047Y365453D02*
D03*
Y365945D02*
D03*
X422638Y366437D02*
D03*
X422047D02*
D03*
X418307Y366417D02*
D03*
Y366831D02*
D03*
X420557Y365272D02*
D03*
X420192D02*
D03*
X419827D02*
D03*
X434527Y372798D02*
D03*
X433327Y365732D02*
D03*
Y366312D02*
D03*
X437347Y372992D02*
D03*
X439322Y373527D02*
D03*
X437997Y374592D02*
D03*
X437197Y374562D02*
D03*
X436617Y374552D02*
D03*
X430404Y367945D02*
D03*
X428827Y367908D02*
D03*
X425007Y368262D02*
D03*
X424157Y369622D02*
D03*
X423617Y372522D02*
D03*
X432057Y371182D02*
D03*
X437177Y370022D02*
D03*
X418307Y366004D02*
D03*
Y365591D02*
D03*
X417787D02*
D03*
Y366004D02*
D03*
Y366417D02*
D03*
Y366831D02*
D03*
X417267D02*
D03*
X416747D02*
D03*
X416227D02*
D03*
X415708D02*
D03*
X415188D02*
D03*
Y366378D02*
D03*
Y365886D02*
D03*
Y365394D02*
D03*
Y364902D02*
D03*
X419987Y364943D02*
D03*
X420367D02*
D03*
X419977Y362893D02*
D03*
X420357D02*
D03*
X419977Y362538D02*
D03*
X420357D02*
D03*
X419977Y362183D02*
D03*
X420357D02*
D03*
X435601Y372848D02*
D03*
X432047Y373902D02*
D03*
X439187Y373002D02*
D03*
X431857Y368002D02*
D03*
X432327Y368192D02*
D03*
X431827Y361952D02*
D03*
X432217Y363482D02*
D03*
Y363099D02*
D03*
Y362717D02*
D03*
Y362334D02*
D03*
X431087Y361952D02*
D03*
X432197D02*
D03*
X41516Y371233D02*
D03*
Y371627D02*
D03*
X415553Y371922D02*
D03*
Y37143D02*
D03*
X415947Y3733D02*
D03*
X419097Y371332D02*
D03*
X419097Y371717D02*
D03*
X438907Y370072D02*
D03*
X438887Y369702D02*
D03*
X439027Y369362D02*
D03*
Y368972D02*
D03*
X438587Y368752D02*
D03*
X438327Y368412D02*
D03*
X438887Y368452D02*
D03*
X417107Y374082D02*
D03*
X416477D02*
D03*
X415947D02*
D03*
X419107Y372102D02*
D03*
X424409Y366831D02*
D03*
X423819D02*
D03*
X423228D02*
D03*
X422638D02*
D03*
X422047D02*
D03*
X428507Y375522D02*
D03*
X426357Y372622D02*
D03*
X426577Y372262D02*
D03*
X426917Y371952D02*
D03*
X425937Y372342D02*
D03*
X426247Y372072D02*
D03*
X421787Y376757D02*
D03*
Y378612D02*
D03*
X424033Y373832D02*
D03*
X421327Y376538D02*
D03*
Y378421D02*
D03*
X418796Y380952D02*
D03*
X420001Y379743D02*
D03*
X429232Y374213D02*
D03*
X430512Y373524D02*
D03*
X429921D02*
D03*
X429331D02*
D03*
X430413Y374213D02*
D03*
X429823D02*
D03*
X429331Y372835D02*
D03*
X435039Y382874D02*
D03*
X437008D02*
D03*
X438976D02*
D03*
X435039Y380905D02*
D03*
X437008D02*
D03*
X438976D02*
D03*
Y378937D02*
D03*
X437008D02*
D03*
X435039D02*
D03*
Y376968D02*
D03*
X437008D02*
D03*
X438976D02*
D03*
X443898Y365157D02*
D03*
Y367126D02*
D03*
Y369095D02*
D03*
Y371063D02*
D03*
Y373032D02*
D03*
X441929Y371063D02*
D03*
Y369095D02*
D03*
Y367126D02*
D03*
Y365157D02*
D03*
X432283Y382087D02*
D03*
X429528D02*
D03*
Y379331D02*
D03*
X432283D02*
D03*
Y378543D02*
D03*
X429528Y377756D02*
D03*
X430905D02*
D03*
X432283D02*
D03*
X430905Y379331D02*
D03*
X428346Y382087D02*
D03*
X426378D02*
D03*
Y379921D02*
D03*
X428346D02*
D03*
Y377756D02*
D03*
X424803Y382087D02*
D03*
X423425D02*
D03*
Y380315D02*
D03*
X424803D02*
D03*
X421654Y382087D02*
D03*
X419882D02*
D03*
X415945D02*
D03*
X41378D02*
D03*
X415945Y379921D02*
D03*
X41378D02*
D03*
X415945Y384055D02*
D03*
X419882Y37815D02*
D03*
X412992Y375787D02*
D03*
X413386Y375197D02*
D03*
X414567D02*
D03*
X415945D02*
D03*
X417323D02*
D03*
X418701D02*
D03*
X420079D02*
D03*
X42126Y374606D02*
D03*
X42185Y374016D02*
D03*
X421654Y373425D02*
D03*
X420866Y374213D02*
D03*
X420079Y374409D02*
D03*
X418701D02*
D03*
X417323D02*
D03*
X415945D02*
D03*
X414567D02*
D03*
X413386D02*
D03*
X412205Y375197D02*
D03*
X421654Y371457D02*
D03*
X420079D02*
D03*
Y372835D02*
D03*
X421654D02*
D03*
Y368898D02*
D03*
X420079D02*
D03*
X418701D02*
D03*
Y367717D02*
D03*
X420079D02*
D03*
X421654D02*
D03*
X414567Y372441D02*
D03*
X426772Y362598D02*
D03*
X425787Y362008D02*
D03*
X423228Y360827D02*
D03*
X421654D02*
D03*
X420079D02*
D03*
X418504D02*
D03*
X417017Y360842D02*
D03*
X417717Y359646D02*
D03*
X419291D02*
D03*
X420866D02*
D03*
X422441D02*
D03*
X437402Y385236D02*
D03*
X43622D02*
D03*
X435039D02*
D03*
X433858D02*
D03*
X432677D02*
D03*
Y383661D02*
D03*
X433457Y383992D02*
D03*
X437147Y366572D02*
D03*
X437637Y366552D02*
D03*
X436347D02*
D03*
X41717Y372934D02*
D03*
X417465D02*
D03*
Y37324D02*
D03*
X41717D02*
D03*
X42Y364366D02*
D03*
X420354D02*
D03*
X42Y363972D02*
D03*
X420354D02*
D03*
X42Y363578D02*
D03*
X420354D02*
D03*
D66*
X437417Y371132D02*
D03*
X436945D02*
D03*
X437417Y371604D02*
D03*
X436945D02*
D03*
M02*
