G04 Layer_Color=2752767*
%FSTAX24Y24*%
%MOIN*%
G70*
G01*
G75*
%ADD126C,0.0020*%
%ADD127C,0.0027*%
D126*
X412715Y360648D02*
Y360808D01*
X412875D01*
Y360648D01*
X412715D01*
Y385402D02*
Y385562D01*
X412875D01*
Y385402D01*
X412715D01*
X444087Y360652D02*
Y360812D01*
X444247D01*
Y360652D01*
X444087D01*
X441557Y385402D02*
Y385562D01*
X441717D01*
Y385402D01*
X441557D01*
X415845Y360373D02*
Y360533D01*
X416005D01*
Y360373D01*
X415845D01*
X43179D02*
Y360533D01*
X43195D01*
Y360373D01*
X43179D01*
Y376318D02*
Y376478D01*
X43195D01*
Y376318D01*
X43179D01*
X415845D02*
Y376478D01*
X416005D01*
Y376318D01*
X415845D01*
X441668Y363583D02*
X441588Y363743D01*
X441748D01*
X441668Y363583D01*
X436117Y360453D02*
X436157Y360493D01*
X436197D01*
X436157Y360533D01*
X436197Y360573D01*
X436157D01*
X436117Y360613D01*
X436077Y360573D01*
X436037D01*
X436077Y360533D01*
X436037Y360493D01*
X436077D01*
X436117Y360453D01*
X437117Y361051D02*
X437157Y361091D01*
X437197D01*
X437157Y361131D01*
X437197Y361171D01*
X437157D01*
X437117Y361211D01*
X437077Y361171D01*
X437037D01*
X437077Y361131D01*
X437037Y361091D01*
X437077D01*
X437117Y361051D01*
X441097D02*
X441137Y361091D01*
X441177D01*
X441137Y361131D01*
X441177Y361171D01*
X441137D01*
X441097Y361211D01*
X441057Y361171D01*
X441017D01*
X441057Y361131D01*
X441017Y361091D01*
X441057D01*
X441097Y361051D01*
X440097Y360453D02*
X440137Y360493D01*
X440177D01*
X440137Y360533D01*
X440177Y360573D01*
X440137D01*
X440097Y360613D01*
X440057Y360573D01*
X440017D01*
X440057Y360533D01*
X440017Y360493D01*
X440057D01*
X440097Y360453D01*
X436277Y362382D02*
X436317Y362462D01*
X436277Y362542D01*
X436357Y362502D01*
X436437Y362542D01*
X436397Y362462D01*
X436437Y362382D01*
X436357Y362422D01*
X436277Y362382D01*
X435546Y363583D02*
X435466Y363743D01*
X435626D01*
X435546Y363583D01*
X440777Y362382D02*
X440817Y362462D01*
X440777Y362542D01*
X440857Y362502D01*
X440937Y362542D01*
X440897Y362462D01*
X440937Y362382D01*
X440857Y362422D01*
X440777Y362382D01*
X424297Y360182D02*
Y360142D01*
X424377D01*
Y360182D01*
X424417D01*
Y360262D01*
X424377D01*
Y360302D01*
X424297D01*
Y360262D01*
X424257D01*
Y360182D01*
X424297D01*
Y361182D02*
Y361142D01*
X424377D01*
Y361182D01*
X424417D01*
Y361262D01*
X424377D01*
Y361302D01*
X424297D01*
Y361262D01*
X424257D01*
Y361182D01*
X424297D01*
X425297Y360182D02*
Y360142D01*
X425377D01*
Y360182D01*
X425417D01*
Y360262D01*
X425377D01*
Y360302D01*
X425297D01*
Y360262D01*
X425257D01*
Y360182D01*
X425297D01*
Y361182D02*
Y361142D01*
X425377D01*
Y361182D01*
X425417D01*
Y361262D01*
X425377D01*
Y361302D01*
X425297D01*
Y361262D01*
X425257D01*
Y361182D01*
X425297D01*
X426297Y360182D02*
Y360142D01*
X426377D01*
Y360182D01*
X426417D01*
Y360262D01*
X426377D01*
Y360302D01*
X426297D01*
Y360262D01*
X426257D01*
Y360182D01*
X426297D01*
Y361182D02*
Y361142D01*
X426377D01*
Y361182D01*
X426417D01*
Y361262D01*
X426377D01*
Y361302D01*
X426297D01*
Y361262D01*
X426257D01*
Y361182D01*
X426297D01*
X431927Y383472D02*
Y383432D01*
X432007D01*
Y383472D01*
X432047D01*
Y383552D01*
X432007D01*
Y383592D01*
X431927D01*
Y383552D01*
X431887D01*
Y383472D01*
X431927D01*
X430927D02*
Y383432D01*
X431007D01*
Y383472D01*
X431047D01*
Y383552D01*
X431007D01*
Y383592D01*
X430927D01*
Y383552D01*
X430887D01*
Y383472D01*
X430927D01*
X431927Y384472D02*
Y384432D01*
X432007D01*
Y384472D01*
X432047D01*
Y384552D01*
X432007D01*
Y384592D01*
X431927D01*
Y384552D01*
X431887D01*
Y384472D01*
X431927D01*
X430927D02*
Y384432D01*
X431007D01*
Y384472D01*
X431047D01*
Y384552D01*
X431007D01*
Y384592D01*
X430927D01*
Y384552D01*
X430887D01*
Y384472D01*
X430927D01*
X431927Y385472D02*
Y385432D01*
X432007D01*
Y385472D01*
X432047D01*
Y385552D01*
X432007D01*
Y385592D01*
X431927D01*
Y385552D01*
X431887D01*
Y385472D01*
X431927D01*
X430927D02*
Y385432D01*
X431007D01*
Y385472D01*
X431047D01*
Y385552D01*
X431007D01*
Y385592D01*
X430927D01*
Y385552D01*
X430887D01*
Y385472D01*
X430927D01*
X429467Y360202D02*
Y360162D01*
X429547D01*
Y360202D01*
X429587D01*
Y360282D01*
X429547D01*
Y360322D01*
X429467D01*
Y360282D01*
X429427D01*
Y360202D01*
X429467D01*
X428467D02*
Y360162D01*
X428547D01*
Y360202D01*
X428587D01*
Y360282D01*
X428547D01*
Y360322D01*
X428467D01*
Y360282D01*
X428427D01*
Y360202D01*
X428467D01*
X427467D02*
Y360162D01*
X427547D01*
Y360202D01*
X427587D01*
Y360282D01*
X427547D01*
Y360322D01*
X427467D01*
Y360282D01*
X427427D01*
Y360202D01*
X427467D01*
X428137Y385462D02*
Y385422D01*
X428217D01*
Y385462D01*
X428257D01*
Y385542D01*
X428217D01*
Y385582D01*
X428137D01*
Y385542D01*
X428097D01*
Y385462D01*
X428137D01*
Y384462D02*
Y384422D01*
X428217D01*
Y384462D01*
X428257D01*
Y384542D01*
X428217D01*
Y384582D01*
X428137D01*
Y384542D01*
X428097D01*
Y384462D01*
X428137D01*
X427137Y385462D02*
Y385422D01*
X427217D01*
Y385462D01*
X427257D01*
Y385542D01*
X427217D01*
Y385582D01*
X427137D01*
Y385542D01*
X427097D01*
Y385462D01*
X427137D01*
Y384462D02*
Y384422D01*
X427217D01*
Y384462D01*
X427257D01*
Y384542D01*
X427217D01*
Y384582D01*
X427137D01*
Y384542D01*
X427097D01*
Y384462D01*
X427137D01*
X426137Y385462D02*
Y385422D01*
X426217D01*
Y385462D01*
X426257D01*
Y385542D01*
X426217D01*
Y385582D01*
X426137D01*
Y385542D01*
X426097D01*
Y385462D01*
X426137D01*
Y384462D02*
Y384422D01*
X426217D01*
Y384462D01*
X426257D01*
Y384542D01*
X426217D01*
Y384582D01*
X426137D01*
Y384542D01*
X426097D01*
Y384462D01*
X426137D01*
X425137Y385462D02*
Y385422D01*
X425217D01*
Y385462D01*
X425257D01*
Y385542D01*
X425217D01*
Y385582D01*
X425137D01*
Y385542D01*
X425097D01*
Y385462D01*
X425137D01*
Y384462D02*
Y384422D01*
X425217D01*
Y384462D01*
X425257D01*
Y384542D01*
X425217D01*
Y384582D01*
X425137D01*
Y384542D01*
X425097D01*
Y384462D01*
X425137D01*
X429617Y385462D02*
Y385422D01*
X429697D01*
Y385462D01*
X429737D01*
Y385542D01*
X429697D01*
Y385582D01*
X429617D01*
Y385542D01*
X429577D01*
Y385462D01*
X429617D01*
Y384462D02*
Y384422D01*
X429697D01*
Y384462D01*
X429737D01*
Y384542D01*
X429697D01*
Y384582D01*
X429617D01*
Y384542D01*
X429577D01*
Y384462D01*
X429617D01*
Y383462D02*
Y383422D01*
X429697D01*
Y383462D01*
X429737D01*
Y383542D01*
X429697D01*
Y383582D01*
X429617D01*
Y383542D01*
X429577D01*
Y383462D01*
X429617D01*
X412527Y368862D02*
X412567D01*
X412607Y368902D01*
X412647Y368862D01*
X412687D01*
Y368902D01*
X412647Y368942D01*
X412687Y368982D01*
Y369022D01*
X412647D01*
X412607Y368982D01*
X412567Y369022D01*
X412527D01*
Y368982D01*
X412567Y368942D01*
X412527Y368902D01*
Y368862D01*
Y370862D02*
X412567D01*
X412607Y370902D01*
X412647Y370862D01*
X412687D01*
Y370902D01*
X412647Y370942D01*
X412687Y370982D01*
Y371022D01*
X412647D01*
X412607Y370982D01*
X412567Y371022D01*
X412527D01*
Y370982D01*
X412567Y370942D01*
X412527Y370902D01*
Y370862D01*
X440237Y386452D02*
X440317Y386532D01*
X440397Y386452D01*
X440317Y386372D01*
X440237Y386452D01*
X440117Y385912D02*
X440197Y385992D01*
X440277Y385912D01*
X440197Y385832D01*
X440117Y385912D01*
X440127Y385352D02*
X440207Y385432D01*
X440287Y385352D01*
X440207Y385272D01*
X440127Y385352D01*
X440237Y384752D02*
X440317Y384832D01*
X440397Y384752D01*
X440317Y384672D01*
X440237Y384752D01*
X445337Y373452D02*
X445417Y373532D01*
X445497Y373452D01*
X445417Y373372D01*
X445337Y373452D01*
X444837D02*
X444917Y373532D01*
X444997Y373452D01*
X444917Y373372D01*
X444837Y373452D01*
X444337D02*
X444417Y373532D01*
X444497Y373452D01*
X444417Y373372D01*
X444337Y373452D01*
X443837D02*
X443917Y373532D01*
X443997Y373452D01*
X443917Y373372D01*
X443837Y373452D01*
X443337D02*
X443417Y373532D01*
X443497Y373452D01*
X443417Y373372D01*
X443337Y373452D01*
X442837D02*
X442917Y373532D01*
X442997Y373452D01*
X442917Y373372D01*
X442837Y373452D01*
X442337D02*
X442417Y373532D01*
X442497Y373452D01*
X442417Y373372D01*
X442337Y373452D01*
X441837D02*
X441917Y373532D01*
X441997Y373452D01*
X441917Y373372D01*
X441837Y373452D01*
X441337D02*
X441417Y373532D01*
X441497Y373452D01*
X441417Y373372D01*
X441337Y373452D01*
X440837D02*
X440917Y373532D01*
X440997Y373452D01*
X440917Y373372D01*
X440837Y373452D01*
X440237Y373652D02*
X440317Y373732D01*
X440397Y373652D01*
X440317Y373572D01*
X440237Y373652D01*
Y374252D02*
X440317Y374332D01*
X440397Y374252D01*
X440317Y374172D01*
X440237Y374252D01*
Y374752D02*
X440317Y374832D01*
X440397Y374752D01*
X440317Y374672D01*
X440237Y374752D01*
Y376252D02*
X440317Y376332D01*
X440397Y376252D01*
X440317Y376172D01*
X440237Y376252D01*
Y376752D02*
X440317Y376832D01*
X440397Y376752D01*
X440317Y376672D01*
X440237Y376752D01*
Y377252D02*
X440317Y377332D01*
X440397Y377252D01*
X440317Y377172D01*
X440237Y377252D01*
Y377752D02*
X440317Y377832D01*
X440397Y377752D01*
X440317Y377672D01*
X440237Y377752D01*
Y378252D02*
X440317Y378332D01*
X440397Y378252D01*
X440317Y378172D01*
X440237Y378252D01*
Y378752D02*
X440317Y378832D01*
X440397Y378752D01*
X440317Y378672D01*
X440237Y378752D01*
Y379252D02*
X440317Y379332D01*
X440397Y379252D01*
X440317Y379172D01*
X440237Y379252D01*
Y379752D02*
X440317Y379832D01*
X440397Y379752D01*
X440317Y379672D01*
X440237Y379752D01*
Y380252D02*
X440317Y380332D01*
X440397Y380252D01*
X440317Y380172D01*
X440237Y380252D01*
Y380752D02*
X440317Y380832D01*
X440397Y380752D01*
X440317Y380672D01*
X440237Y380752D01*
Y381252D02*
X440317Y381332D01*
X440397Y381252D01*
X440317Y381172D01*
X440237Y381252D01*
Y381752D02*
X440317Y381832D01*
X440397Y381752D01*
X440317Y381672D01*
X440237Y381752D01*
Y382252D02*
X440317Y382332D01*
X440397Y382252D01*
X440317Y382172D01*
X440237Y382252D01*
Y382852D02*
X440317Y382932D01*
X440397Y382852D01*
X440317Y382772D01*
X440237Y382852D01*
X431377Y361952D02*
X431457Y362032D01*
X431537Y361952D01*
X431457Y361872D01*
X431377Y361952D01*
X427437Y376372D02*
X427517Y376452D01*
X427597Y376372D01*
X427517Y376292D01*
X427437Y376372D01*
X427427Y375522D02*
X427507Y375602D01*
X427587Y375522D01*
X427507Y375442D01*
X427427Y375522D01*
X429617Y376302D02*
X429697Y376382D01*
X429777Y376302D01*
X429697Y376222D01*
X429617Y376302D01*
X428977Y376292D02*
X429057Y376372D01*
X429137Y376292D01*
X429057Y376212D01*
X428977Y376292D01*
X439044Y384709D02*
X439124Y384789D01*
X439204Y384709D01*
X439124Y384629D01*
X439044Y384709D01*
X439607Y384252D02*
X439687Y384332D01*
X439767Y384252D01*
X439687Y384172D01*
X439607Y384252D01*
X440117Y384222D02*
X440197Y384302D01*
X440277Y384222D01*
X440197Y384142D01*
X440117Y384222D01*
X440107Y375072D02*
X440187Y375152D01*
X440267Y375072D01*
X440187Y374992D01*
X440107Y375072D01*
X416927Y384192D02*
X417007Y384272D01*
X417087Y384192D01*
X417007Y384112D01*
X416927Y384192D01*
X41646Y383824D02*
X41654Y383904D01*
X41662Y383824D01*
X41654Y383744D01*
X41646Y383824D01*
X41737D02*
X41745Y383904D01*
X41753Y383824D01*
X41745Y383744D01*
X41737Y383824D01*
X416927Y378582D02*
X417007Y378662D01*
X417087Y378582D01*
X417007Y378502D01*
X416927Y378582D01*
Y377602D02*
X417007Y377682D01*
X417087Y377602D01*
X417007Y377522D01*
X416927Y377602D01*
X417422Y378076D02*
X417502Y378156D01*
X417582Y378076D01*
X417502Y377996D01*
X417422Y378076D01*
X416995Y369384D02*
X417075Y369464D01*
X417155Y369384D01*
X417075Y369304D01*
X416995Y369384D01*
Y368354D02*
X417075Y368434D01*
X417155Y368354D01*
X417075Y368274D01*
X416995Y368354D01*
X417617Y368892D02*
X417697Y368972D01*
X417777Y368892D01*
X417697Y368812D01*
X417617Y368892D01*
X412427Y372352D02*
X412507Y372432D01*
X412587Y372352D01*
X412507Y372272D01*
X412427Y372352D01*
X419657Y385152D02*
X419737Y385232D01*
X419817Y385152D01*
X419737Y385072D01*
X419657Y385152D01*
X415887Y385122D02*
X415967Y385202D01*
X416047Y385122D01*
X415967Y385042D01*
X415887Y385122D01*
X424117Y371502D02*
X424197Y371582D01*
X424277Y371502D01*
X424197Y371422D01*
X424117Y371502D01*
X417257Y384602D02*
X417337Y384682D01*
X417417Y384602D01*
X417337Y384522D01*
X417257Y384602D01*
X417607D02*
X417687Y384682D01*
X417767Y384602D01*
X417687Y384522D01*
X417607Y384602D01*
X427727Y377582D02*
X427807Y377662D01*
X427887Y377582D01*
X427807Y377502D01*
X427727Y377582D01*
X427127Y377592D02*
X427207Y377672D01*
X427287Y377592D01*
X427207Y377512D01*
X427127Y377592D01*
X426837Y377392D02*
X426917Y377472D01*
X426997Y377392D01*
X426917Y377312D01*
X426837Y377392D01*
X427427Y377402D02*
X427507Y377482D01*
X427587Y377402D01*
X427507Y377322D01*
X427427Y377402D01*
X428527Y373542D02*
X428607Y373622D01*
X428687Y373542D01*
X428607Y373462D01*
X428527Y373542D01*
X427597Y372042D02*
X427677Y372122D01*
X427757Y372042D01*
X427677Y371962D01*
X427597Y372042D01*
X428547Y373042D02*
X428627Y373122D01*
X428707Y373042D01*
X428627Y372962D01*
X428547Y373042D01*
X419227Y369672D02*
X419307Y369752D01*
X419387Y369672D01*
X419307Y369592D01*
X419227Y369672D01*
X418827D02*
X418907Y369752D01*
X418987Y369672D01*
X418907Y369592D01*
X418827Y369672D01*
X418427D02*
X418507Y369752D01*
X418587Y369672D01*
X418507Y369592D01*
X418427Y369672D01*
X419227Y370042D02*
X419307Y370122D01*
X419387Y370042D01*
X419307Y369962D01*
X419227Y370042D01*
Y370412D02*
X419307Y370492D01*
X419387Y370412D01*
X419307Y370332D01*
X419227Y370412D01*
Y370782D02*
X419307Y370862D01*
X419387Y370782D01*
X419307Y370702D01*
X419227Y370782D01*
X418827Y370792D02*
X418907Y370872D01*
X418987Y370792D01*
X418907Y370712D01*
X418827Y370792D01*
X418427D02*
X418507Y370872D01*
X418587Y370792D01*
X418507Y370712D01*
X418427Y370792D01*
X420217Y380102D02*
X420297Y380182D01*
X420377Y380102D01*
X420297Y380022D01*
X420217Y380102D01*
X424327Y374142D02*
X424407Y374222D01*
X424487Y374142D01*
X424407Y374062D01*
X424327Y374142D01*
X424107Y372852D02*
X424187Y372932D01*
X424267Y372852D01*
X424187Y372772D01*
X424107Y372852D01*
X418907Y381412D02*
X418987Y381492D01*
X419067Y381412D01*
X418987Y381332D01*
X418907Y381412D01*
X417887Y382052D02*
X417967Y382132D01*
X418047Y382052D01*
X417967Y381972D01*
X417887Y382052D01*
X418017Y380912D02*
X418097Y380992D01*
X418177Y380912D01*
X418097Y380832D01*
X418017Y380912D01*
X427817Y375832D02*
X427897Y375912D01*
X427977Y375832D01*
X427897Y375752D01*
X427817Y375832D01*
X426101Y365157D02*
X426181Y365237D01*
X426261Y365157D01*
X426181Y365077D01*
X426101Y365157D01*
X426692Y365551D02*
X426772Y365631D01*
X426852Y365551D01*
X426772Y365471D01*
X426692Y365551D01*
X425511D02*
X425591Y365631D01*
X425671Y365551D01*
X425591Y365471D01*
X425511Y365551D01*
X439093Y360827D02*
X439173Y360907D01*
X439253Y360827D01*
X439173Y360747D01*
X439093Y360827D01*
X438109D02*
X438189Y360907D01*
X438269Y360827D01*
X438189Y360747D01*
X438109Y360827D01*
X439093Y361614D02*
X439173Y361694D01*
X439253Y361614D01*
X439173Y361534D01*
X439093Y361614D01*
X438109D02*
X438189Y361694D01*
X438269Y361614D01*
X438189Y361534D01*
X438109Y361614D01*
Y362402D02*
X438189Y362482D01*
X438269Y362402D01*
X438189Y362322D01*
X438109Y362402D01*
X439093D02*
X439173Y362482D01*
X439253Y362402D01*
X439173Y362322D01*
X439093Y362402D01*
Y363189D02*
X439173Y363269D01*
X439253Y363189D01*
X439173Y363109D01*
X439093Y363189D01*
X438109D02*
X438189Y363269D01*
X438269Y363189D01*
X438189Y363109D01*
X438109Y363189D01*
X437125Y36378D02*
X437205Y36386D01*
X437285Y36378D01*
X437205Y3637D01*
X437125Y36378D01*
X438109D02*
X438189Y36386D01*
X438269Y36378D01*
X438189Y3637D01*
X438109Y36378D01*
X439093D02*
X439173Y36386D01*
X439253Y36378D01*
X439173Y3637D01*
X439093Y36378D01*
X439881D02*
X439961Y36386D01*
X440041Y36378D01*
X439961Y3637D01*
X439881Y36378D01*
X442833Y363189D02*
X442913Y363269D01*
X442993Y363189D01*
X442913Y363109D01*
X442833Y363189D01*
X444802D02*
X444882Y363269D01*
X444962Y363189D01*
X444882Y363109D01*
X444802Y363189D01*
X432077Y367072D02*
X432157Y367152D01*
X432237Y367072D01*
X432157Y366992D01*
X432077Y367072D01*
X418307Y372052D02*
X418387Y372132D01*
X418467Y372052D01*
X418387Y371972D01*
X418307Y372052D01*
X428347Y367992D02*
X428427Y368072D01*
X428507Y367992D01*
X428427Y367912D01*
X428347Y367992D01*
X433177Y359602D02*
X433257Y359682D01*
X433337Y359602D01*
X433257Y359522D01*
X433177Y359602D01*
X433427Y359822D02*
X433507Y359902D01*
X433587Y359822D01*
X433507Y359742D01*
X433427Y359822D01*
X433747Y359612D02*
X433827Y359692D01*
X433907Y359612D01*
X433827Y359532D01*
X433747Y359612D01*
X433757Y359962D02*
X433837Y360042D01*
X433917Y359962D01*
X433837Y359882D01*
X433757Y359962D01*
X434517Y359802D02*
X434597Y359882D01*
X434677Y359802D01*
X434597Y359722D01*
X434517Y359802D01*
Y360172D02*
X434597Y360252D01*
X434677Y360172D01*
X434597Y360092D01*
X434517Y360172D01*
X434177Y359682D02*
X434257Y359762D01*
X434337Y359682D01*
X434257Y359602D01*
X434177Y359682D01*
Y360002D02*
X434257Y360082D01*
X434337Y360002D01*
X434257Y359922D01*
X434177Y360002D01*
X434517Y360522D02*
X434597Y360602D01*
X434677Y360522D01*
X434597Y360442D01*
X434517Y360522D01*
X434807Y362202D02*
X434887Y362282D01*
X434967Y362202D01*
X434887Y362122D01*
X434807Y362202D01*
X434767Y362612D02*
X434847Y362692D01*
X434927Y362612D01*
X434847Y362532D01*
X434767Y362612D01*
X434557Y364582D02*
X434637Y364662D01*
X434717Y364582D01*
X434637Y364502D01*
X434557Y364582D01*
Y364982D02*
X434637Y365062D01*
X434717Y364982D01*
X434637Y364902D01*
X434557Y364982D01*
X434207Y364792D02*
X434287Y364872D01*
X434367Y364792D01*
X434287Y364712D01*
X434207Y364792D01*
Y365172D02*
X434287Y365252D01*
X434367Y365172D01*
X434287Y365092D01*
X434207Y365172D01*
X433777Y364982D02*
X433857Y365062D01*
X433937Y364982D01*
X433857Y364902D01*
X433777Y364982D01*
X433427Y364802D02*
X433507Y364882D01*
X433587Y364802D01*
X433507Y364722D01*
X433427Y364802D01*
Y365172D02*
X433507Y365252D01*
X433587Y365172D01*
X433507Y365092D01*
X433427Y365172D01*
X435067Y360752D02*
X435147Y360832D01*
X435227Y360752D01*
X435147Y360672D01*
X435067Y360752D01*
X432897Y366802D02*
X432977Y366882D01*
X433057Y366802D01*
X432977Y366722D01*
X432897Y366802D01*
X433307Y369032D02*
X433387Y369112D01*
X433467Y369032D01*
X433387Y368952D01*
X433307Y369032D01*
X433577Y368702D02*
X433657Y368782D01*
X433737Y368702D01*
X433657Y368622D01*
X433577Y368702D01*
X427667Y373892D02*
X427747Y373972D01*
X427827Y373892D01*
X427747Y373812D01*
X427667Y373892D01*
X427317Y374202D02*
X427397Y374282D01*
X427477Y374202D01*
X427397Y374122D01*
X427317Y374202D01*
X425917Y371422D02*
X425997Y371502D01*
X426077Y371422D01*
X425997Y371342D01*
X425917Y371422D01*
X426357Y371532D02*
X426437Y371612D01*
X426517Y371532D01*
X426437Y371452D01*
X426357Y371532D01*
X427917Y371322D02*
X427997Y371402D01*
X428077Y371322D01*
X427997Y371242D01*
X427917Y371322D01*
X428617Y370282D02*
X428697Y370362D01*
X428777Y370282D01*
X428697Y370202D01*
X428617Y370282D01*
X427287Y372122D02*
X427367Y372202D01*
X427447Y372122D01*
X427367Y372042D01*
X427287Y372122D01*
X427057Y372472D02*
X427137Y372552D01*
X427217Y372472D01*
X427137Y372392D01*
X427057Y372472D01*
X426797Y372762D02*
X426877Y372842D01*
X426957Y372762D01*
X426877Y372682D01*
X426797Y372762D01*
X430737Y367922D02*
X430817Y368002D01*
X430897Y367922D01*
X430817Y367842D01*
X430737Y367922D01*
X423407Y371632D02*
X423487Y371712D01*
X423567Y371632D01*
X423487Y371552D01*
X423407Y371632D01*
X423247Y371162D02*
X423327Y371242D01*
X423407Y371162D01*
X423327Y371082D01*
X423247Y371162D01*
X426987Y368002D02*
X427067Y368082D01*
X427147Y368002D01*
X427067Y367922D01*
X426987Y368002D01*
X426737Y367322D02*
X426817Y367402D01*
X426897Y367322D01*
X426817Y367242D01*
X426737Y367322D01*
X425497Y367342D02*
X425577Y367422D01*
X425657Y367342D01*
X425577Y367262D01*
X425497Y367342D01*
X423148Y366437D02*
X423228Y366517D01*
X423308Y366437D01*
X423228Y366357D01*
X423148Y366437D01*
X424329Y365453D02*
X424409Y365533D01*
X424489Y365453D01*
X424409Y365373D01*
X424329Y365453D01*
Y365945D02*
X424409Y366025D01*
X424489Y365945D01*
X424409Y365865D01*
X424329Y365945D01*
Y366437D02*
X424409Y366517D01*
X424489Y366437D01*
X424409Y366357D01*
X424329Y366437D01*
X423739D02*
X423819Y366517D01*
X423899Y366437D01*
X423819Y366357D01*
X423739Y366437D01*
Y365453D02*
X423819Y365533D01*
X423899Y365453D01*
X423819Y365373D01*
X423739Y365453D01*
Y365945D02*
X423819Y366025D01*
X423899Y365945D01*
X423819Y365865D01*
X423739Y365945D01*
X423148Y365453D02*
X423228Y365533D01*
X423308Y365453D01*
X423228Y365373D01*
X423148Y365453D01*
Y365945D02*
X423228Y366025D01*
X423308Y365945D01*
X423228Y365865D01*
X423148Y365945D01*
X422558Y365453D02*
X422638Y365533D01*
X422718Y365453D01*
X422638Y365373D01*
X422558Y365453D01*
Y365945D02*
X422638Y366025D01*
X422718Y365945D01*
X422638Y365865D01*
X422558Y365945D01*
X421967Y365453D02*
X422047Y365533D01*
X422127Y365453D01*
X422047Y365373D01*
X421967Y365453D01*
Y365945D02*
X422047Y366025D01*
X422127Y365945D01*
X422047Y365865D01*
X421967Y365945D01*
X422558Y366437D02*
X422638Y366517D01*
X422718Y366437D01*
X422638Y366357D01*
X422558Y366437D01*
X421967D02*
X422047Y366517D01*
X422127Y366437D01*
X422047Y366357D01*
X421967Y366437D01*
X418227Y366417D02*
X418307Y366497D01*
X418387Y366417D01*
X418307Y366337D01*
X418227Y366417D01*
Y366831D02*
X418307Y366911D01*
X418387Y366831D01*
X418307Y366751D01*
X418227Y366831D01*
X420477Y365272D02*
X420557Y365352D01*
X420637Y365272D01*
X420557Y365192D01*
X420477Y365272D01*
X420112D02*
X420192Y365352D01*
X420272Y365272D01*
X420192Y365192D01*
X420112Y365272D01*
X419747D02*
X419827Y365352D01*
X419907Y365272D01*
X419827Y365192D01*
X419747Y365272D01*
X418247Y361582D02*
X418327Y361662D01*
X418407Y361582D01*
X418327Y361502D01*
X418247Y361582D01*
X421227Y362472D02*
X421307Y362552D01*
X421387Y362472D01*
X421307Y362392D01*
X421227Y362472D01*
X42659Y367995D02*
X42667Y368075D01*
X42675Y367995D01*
X42667Y367915D01*
X42659Y367995D01*
X434447Y372798D02*
X434527Y372878D01*
X434607Y372798D01*
X434527Y372718D01*
X434447Y372798D01*
X434437Y372162D02*
X434517Y372242D01*
X434597Y372162D01*
X434517Y372082D01*
X434437Y372162D01*
X427727Y366992D02*
X427807Y367072D01*
X427887Y366992D01*
X427807Y366912D01*
X427727Y366992D01*
Y366412D02*
X427807Y366492D01*
X427887Y366412D01*
X427807Y366332D01*
X427727Y366412D01*
X433247Y365732D02*
X433327Y365812D01*
X433407Y365732D01*
X433327Y365652D01*
X433247Y365732D01*
Y366312D02*
X433327Y366392D01*
X433407Y366312D01*
X433327Y366232D01*
X433247Y366312D01*
X437267Y372992D02*
X437347Y373072D01*
X437427Y372992D01*
X437347Y372912D01*
X437267Y372992D01*
X439242Y373527D02*
X439322Y373607D01*
X439402Y373527D01*
X439322Y373447D01*
X439242Y373527D01*
X437917Y374592D02*
X437997Y374672D01*
X438077Y374592D01*
X437997Y374512D01*
X437917Y374592D01*
X437117Y374562D02*
X437197Y374642D01*
X437277Y374562D01*
X437197Y374482D01*
X437117Y374562D01*
X436537Y374552D02*
X436617Y374632D01*
X436697Y374552D01*
X436617Y374472D01*
X436537Y374552D01*
X430324Y367945D02*
X430404Y368025D01*
X430484Y367945D01*
X430404Y367865D01*
X430324Y367945D01*
X42993Y367939D02*
X43001Y368019D01*
X43009Y367939D01*
X43001Y367859D01*
X42993Y367939D01*
X428747Y367908D02*
X428827Y367988D01*
X428907Y367908D01*
X428827Y367828D01*
X428747Y367908D01*
X424927Y368262D02*
X425007Y368342D01*
X425087Y368262D01*
X425007Y368182D01*
X424927Y368262D01*
X424077Y369622D02*
X424157Y369702D01*
X424237Y369622D01*
X424157Y369542D01*
X424077Y369622D01*
X424097Y370012D02*
X424177Y370092D01*
X424257Y370012D01*
X424177Y369932D01*
X424097Y370012D01*
X423537Y372522D02*
X423617Y372602D01*
X423697Y372522D01*
X423617Y372442D01*
X423537Y372522D01*
X431977Y371182D02*
X432057Y371262D01*
X432137Y371182D01*
X432057Y371102D01*
X431977Y371182D01*
X429587Y370042D02*
X429667Y370122D01*
X429747Y370042D01*
X429667Y369962D01*
X429587Y370042D01*
X434741Y372162D02*
X434821Y372242D01*
X434901Y372162D01*
X434821Y372082D01*
X434741Y372162D01*
X434491Y374138D02*
X434571Y374218D01*
X434651Y374138D01*
X434571Y374058D01*
X434491Y374138D01*
X440117Y367822D02*
X440197Y367902D01*
X440277Y367822D01*
X440197Y367742D01*
X440117Y367822D01*
X437467Y367812D02*
X437547Y367892D01*
X437627Y367812D01*
X437547Y367732D01*
X437467Y367812D01*
X435997Y367812D02*
X436077Y367892D01*
X436157Y367812D01*
X436077Y367732D01*
X435997Y367812D01*
X441547Y367832D02*
X441627Y367912D01*
X441707Y367832D01*
X441627Y367752D01*
X441547Y367832D01*
X437097Y370022D02*
X437177Y370102D01*
X437257Y370022D01*
X437177Y369942D01*
X437097Y370022D01*
X437527Y367142D02*
X437607Y367222D01*
X437687Y367142D01*
X437607Y367062D01*
X437527Y367142D01*
X440047Y367152D02*
X440127Y367232D01*
X440207Y367152D01*
X440127Y367072D01*
X440047Y367152D01*
X439707Y370892D02*
X439787Y370972D01*
X439867Y370892D01*
X439787Y370812D01*
X439707Y370892D01*
X439717Y370582D02*
X439797Y370662D01*
X439877Y370582D01*
X439797Y370502D01*
X439717Y370582D01*
X435091Y369438D02*
X435171Y369518D01*
X435251Y369438D01*
X435171Y369358D01*
X435091Y369438D01*
X434361Y369458D02*
X434441Y369538D01*
X434521Y369458D01*
X434441Y369378D01*
X434361Y369458D01*
X434351Y368838D02*
X434431Y368918D01*
X434511Y368838D01*
X434431Y368758D01*
X434351Y368838D01*
X434551Y370618D02*
X434631Y370698D01*
X434711Y370618D01*
X434631Y370538D01*
X434551Y370618D01*
X418227Y366004D02*
X418307Y366084D01*
X418387Y366004D01*
X418307Y365924D01*
X418227Y366004D01*
Y365591D02*
X418307Y365671D01*
X418387Y365591D01*
X418307Y365511D01*
X418227Y365591D01*
X417707D02*
X417787Y365671D01*
X417867Y365591D01*
X417787Y365511D01*
X417707Y365591D01*
Y366004D02*
X417787Y366084D01*
X417867Y366004D01*
X417787Y365924D01*
X417707Y366004D01*
Y366417D02*
X417787Y366497D01*
X417867Y366417D01*
X417787Y366337D01*
X417707Y366417D01*
Y366831D02*
X417787Y366911D01*
X417867Y366831D01*
X417787Y366751D01*
X417707Y366831D01*
X417187D02*
X417267Y366911D01*
X417347Y366831D01*
X417267Y366751D01*
X417187Y366831D01*
X416667D02*
X416747Y366911D01*
X416827Y366831D01*
X416747Y366751D01*
X416667Y366831D01*
X416147D02*
X416227Y366911D01*
X416307Y366831D01*
X416227Y366751D01*
X416147Y366831D01*
X415628D02*
X415708Y366911D01*
X415788Y366831D01*
X415708Y366751D01*
X415628Y366831D01*
X415108D02*
X415188Y366911D01*
X415268Y366831D01*
X415188Y366751D01*
X415108Y366831D01*
Y366378D02*
X415188Y366458D01*
X415268Y366378D01*
X415188Y366298D01*
X415108Y366378D01*
Y365886D02*
X415188Y365966D01*
X415268Y365886D01*
X415188Y365806D01*
X415108Y365886D01*
Y365394D02*
X415188Y365474D01*
X415268Y365394D01*
X415188Y365314D01*
X415108Y365394D01*
Y364902D02*
X415188Y364982D01*
X415268Y364902D01*
X415188Y364822D01*
X415108Y364902D01*
X419907Y364943D02*
X419987Y365023D01*
X420067Y364943D01*
X419987Y364863D01*
X419907Y364943D01*
X420287D02*
X420367Y365023D01*
X420447Y364943D01*
X420367Y364863D01*
X420287Y364943D01*
X419897Y362893D02*
X419977Y362973D01*
X420057Y362893D01*
X419977Y362813D01*
X419897Y362893D01*
X420277D02*
X420357Y362973D01*
X420437Y362893D01*
X420357Y362813D01*
X420277Y362893D01*
X419897Y362538D02*
X419977Y362618D01*
X420057Y362538D01*
X419977Y362458D01*
X419897Y362538D01*
X420277D02*
X420357Y362618D01*
X420437Y362538D01*
X420357Y362458D01*
X420277Y362538D01*
X419897Y362183D02*
X419977Y362263D01*
X420057Y362183D01*
X419977Y362103D01*
X419897Y362183D01*
X420277D02*
X420357Y362263D01*
X420437Y362183D01*
X420357Y362103D01*
X420277Y362183D01*
X431167Y367442D02*
X431247Y367522D01*
X431327Y367442D01*
X431247Y367362D01*
X431167Y367442D01*
X431507D02*
X431587Y367522D01*
X431667Y367442D01*
X431587Y367362D01*
X431507Y367442D01*
X431847D02*
X431927Y367522D01*
X432007Y367442D01*
X431927Y367362D01*
X431847Y367442D01*
X432077Y36671D02*
X432157Y36679D01*
X432237Y36671D01*
X432157Y36663D01*
X432077Y36671D01*
Y366344D02*
X432157Y366424D01*
X432237Y366344D01*
X432157Y366264D01*
X432077Y366344D01*
Y365978D02*
X432157Y366058D01*
X432237Y365978D01*
X432157Y365898D01*
X432077Y365978D01*
Y365612D02*
X432157Y365692D01*
X432237Y365612D01*
X432157Y365532D01*
X432077Y365612D01*
X424526Y363189D02*
X424606Y363269D01*
X424686Y363189D01*
X424606Y363109D01*
X424526Y363189D01*
Y363583D02*
X424606Y363663D01*
X424686Y363583D01*
X424606Y363503D01*
X424526Y363583D01*
Y363976D02*
X424606Y364056D01*
X424686Y363976D01*
X424606Y363896D01*
X424526Y363976D01*
X42492D02*
X425Y364056D01*
X42508Y363976D01*
X425Y363896D01*
X42492Y363976D01*
Y363583D02*
X425Y363663D01*
X42508Y363583D01*
X425Y363503D01*
X42492Y363583D01*
Y363189D02*
X425Y363269D01*
X42508Y363189D01*
X425Y363109D01*
X42492Y363189D01*
X425314Y363976D02*
X425394Y364056D01*
X425474Y363976D01*
X425394Y363896D01*
X425314Y363976D01*
Y363189D02*
X425394Y363269D01*
X425474Y363189D01*
X425394Y363109D01*
X425314Y363189D01*
Y363583D02*
X425394Y363663D01*
X425474Y363583D01*
X425394Y363503D01*
X425314Y363583D01*
X435521Y372848D02*
X435601Y372928D01*
X435681Y372848D01*
X435601Y372768D01*
X435521Y372848D01*
X429617Y370562D02*
X429697Y370642D01*
X429777Y370562D01*
X429697Y370482D01*
X429617Y370562D01*
X432247Y369532D02*
X432327Y369612D01*
X432407Y369532D01*
X432327Y369452D01*
X432247Y369532D01*
X432007Y369782D02*
X432087Y369862D01*
X432167Y369782D01*
X432087Y369702D01*
X432007Y369782D01*
X431757Y370042D02*
X431837Y370122D01*
X431917Y370042D01*
X431837Y369962D01*
X431757Y370042D01*
X430087Y369522D02*
X430167Y369602D01*
X430247Y369522D01*
X430167Y369442D01*
X430087Y369522D01*
X429807Y369782D02*
X429887Y369862D01*
X429967Y369782D01*
X429887Y369702D01*
X429807Y369782D01*
X429437Y371132D02*
X429517Y371212D01*
X429597Y371132D01*
X429517Y371052D01*
X429437Y371132D01*
X430487Y370422D02*
X430567Y370502D01*
X430647Y370422D01*
X430567Y370342D01*
X430487Y370422D01*
X431747Y370552D02*
X431827Y370632D01*
X431907Y370552D01*
X431827Y370472D01*
X431747Y370552D01*
X432097Y370852D02*
X432177Y370932D01*
X432257Y370852D01*
X432177Y370772D01*
X432097Y370852D01*
X432497Y369262D02*
X432577Y369342D01*
X432657Y369262D01*
X432577Y369182D01*
X432497Y369262D01*
X433977Y369412D02*
X434057Y369492D01*
X434137Y369412D01*
X434057Y369332D01*
X433977Y369412D01*
X434347Y367732D02*
X434427Y367812D01*
X434507Y367732D01*
X434427Y367652D01*
X434347Y367732D01*
X430427Y371472D02*
X430507Y371552D01*
X430587Y371472D01*
X430507Y371392D01*
X430427Y371472D01*
X430327Y371862D02*
X430407Y371942D01*
X430487Y371862D01*
X430407Y371782D01*
X430327Y371862D01*
X432297Y371872D02*
X432377Y371952D01*
X432457Y371872D01*
X432377Y371792D01*
X432297Y371872D01*
X431777Y372102D02*
X431857Y372182D01*
X431937Y372102D01*
X431857Y372022D01*
X431777Y372102D01*
X429497Y372282D02*
X429577Y372362D01*
X429657Y372282D01*
X429577Y372202D01*
X429497Y372282D01*
X429177Y371962D02*
X429257Y372042D01*
X429337Y371962D01*
X429257Y371882D01*
X429177Y371962D01*
X432287Y372402D02*
X432367Y372482D01*
X432447Y372402D01*
X432367Y372322D01*
X432287Y372402D01*
X431767Y372692D02*
X431847Y372772D01*
X431927Y372692D01*
X431847Y372612D01*
X431767Y372692D01*
X430247Y372522D02*
X430327Y372602D01*
X430407Y372522D01*
X430327Y372442D01*
X430247Y372522D01*
X432287Y373022D02*
X432367Y373102D01*
X432447Y373022D01*
X432367Y372942D01*
X432287Y373022D01*
X429927Y372642D02*
X430007Y372722D01*
X430087Y372642D01*
X430007Y372562D01*
X429927Y372642D01*
X431967Y373902D02*
X432047Y373982D01*
X432127Y373902D01*
X432047Y373822D01*
X431967Y373902D01*
Y374292D02*
X432047Y374372D01*
X432127Y374292D01*
X432047Y374212D01*
X431967Y374292D01*
X439107Y373002D02*
X439187Y373082D01*
X439267Y373002D01*
X439187Y372922D01*
X439107Y373002D01*
X429177Y363932D02*
X429257Y364012D01*
X429337Y363932D01*
X429257Y363852D01*
X429177Y363932D01*
Y363442D02*
X429257Y363522D01*
X429337Y363442D01*
X429257Y363362D01*
X429177Y363442D01*
Y362932D02*
X429257Y363012D01*
X429337Y362932D01*
X429257Y362852D01*
X429177Y362932D01*
X432737Y367982D02*
X432817Y368062D01*
X432897Y367982D01*
X432817Y367902D01*
X432737Y367982D01*
X431777Y368002D02*
X431857Y368082D01*
X431937Y368002D01*
X431857Y367922D01*
X431777Y368002D01*
X432247Y368192D02*
X432327Y368272D01*
X432407Y368192D01*
X432327Y368112D01*
X432247Y368192D01*
X426347Y369702D02*
X426427Y369782D01*
X426507Y369702D01*
X426427Y369622D01*
X426347Y369702D01*
X426627Y370042D02*
X426707Y370122D01*
X426787Y370042D01*
X426707Y369962D01*
X426627Y370042D01*
X426907Y369732D02*
X426987Y369812D01*
X427067Y369732D01*
X426987Y369652D01*
X426907Y369732D01*
X429517Y367962D02*
X429597Y368042D01*
X429677Y367962D01*
X429597Y367882D01*
X429517Y367962D01*
X429127Y367942D02*
X429207Y368022D01*
X429287Y367942D01*
X429207Y367862D01*
X429127Y367942D01*
X431747Y361952D02*
X431827Y362032D01*
X431907Y361952D01*
X431827Y361872D01*
X431747Y361952D01*
X432137Y363482D02*
X432217Y363562D01*
X432297Y363482D01*
X432217Y363402D01*
X432137Y363482D01*
Y363099D02*
X432217Y363179D01*
X432297Y363099D01*
X432217Y363019D01*
X432137Y363099D01*
Y362717D02*
X432217Y362797D01*
X432297Y362717D01*
X432217Y362637D01*
X432137Y362717D01*
Y362334D02*
X432217Y362414D01*
X432297Y362334D01*
X432217Y362254D01*
X432137Y362334D01*
X431007Y361952D02*
X431087Y362032D01*
X431167Y361952D01*
X431087Y361872D01*
X431007Y361952D01*
X432117D02*
X432197Y362032D01*
X432277Y361952D01*
X432197Y361872D01*
X432117Y361952D01*
X432137Y364992D02*
X432217Y365072D01*
X432297Y364992D01*
X432217Y364912D01*
X432137Y364992D01*
Y364642D02*
X432217Y364722D01*
X432297Y364642D01*
X432217Y364562D01*
X432137Y364642D01*
Y364292D02*
X432217Y364372D01*
X432297Y364292D01*
X432217Y364212D01*
X432137Y364292D01*
Y363942D02*
X432217Y364022D01*
X432297Y363942D01*
X432217Y363862D01*
X432137Y363942D01*
X41508Y371233D02*
X41516Y371313D01*
X41524Y371233D01*
X41516Y371153D01*
X41508Y371233D01*
Y371627D02*
X41516Y371707D01*
X41524Y371627D01*
X41516Y371547D01*
X41508Y371627D01*
X415473Y371922D02*
X415553Y372002D01*
X415633Y371922D01*
X415553Y371842D01*
X415473Y371922D01*
Y37143D02*
X415553Y37151D01*
X415633Y37143D01*
X415553Y37135D01*
X415473Y37143D01*
X415867Y3733D02*
X415947Y37338D01*
X416027Y3733D01*
X415947Y37322D01*
X415867Y3733D01*
X419017Y371332D02*
X419097Y371412D01*
X419177Y371332D01*
X419097Y371252D01*
X419017Y371332D01*
X419017Y371717D02*
X419097Y371797D01*
X419177Y371717D01*
X419097Y371637D01*
X419017Y371717D01*
X438827Y370072D02*
X438907Y370152D01*
X438987Y370072D01*
X438907Y369992D01*
X438827Y370072D01*
X438807Y369702D02*
X438887Y369782D01*
X438967Y369702D01*
X438887Y369622D01*
X438807Y369702D01*
X438947Y369362D02*
X439027Y369442D01*
X439107Y369362D01*
X439027Y369282D01*
X438947Y369362D01*
Y368972D02*
X439027Y369052D01*
X439107Y368972D01*
X439027Y368892D01*
X438947Y368972D01*
X438507Y368752D02*
X438587Y368832D01*
X438667Y368752D01*
X438587Y368672D01*
X438507Y368752D01*
X438247Y368412D02*
X438327Y368492D01*
X438407Y368412D01*
X438327Y368332D01*
X438247Y368412D01*
X438807Y368452D02*
X438887Y368532D01*
X438967Y368452D01*
X438887Y368372D01*
X438807Y368452D01*
X417027Y374082D02*
X417107Y374162D01*
X417187Y374082D01*
X417107Y374002D01*
X417027Y374082D01*
X416397D02*
X416477Y374162D01*
X416557Y374082D01*
X416477Y374002D01*
X416397Y374082D01*
X415867D02*
X415947Y374162D01*
X416027Y374082D01*
X415947Y374002D01*
X415867Y374082D01*
X419027Y372102D02*
X419107Y372182D01*
X419187Y372102D01*
X419107Y372022D01*
X419027Y372102D01*
X424329Y366831D02*
X424409Y366911D01*
X424489Y366831D01*
X424409Y366751D01*
X424329Y366831D01*
X423739D02*
X423819Y366911D01*
X423899Y366831D01*
X423819Y366751D01*
X423739Y366831D01*
X423148D02*
X423228Y366911D01*
X423308Y366831D01*
X423228Y366751D01*
X423148Y366831D01*
X422558D02*
X422638Y366911D01*
X422718Y366831D01*
X422638Y366751D01*
X422558Y366831D01*
X421967D02*
X422047Y366911D01*
X422127Y366831D01*
X422047Y366751D01*
X421967Y366831D01*
X433187Y371562D02*
X433267Y371642D01*
X433347Y371562D01*
X433267Y371482D01*
X433187Y371562D01*
X428427Y375522D02*
X428507Y375602D01*
X428587Y375522D01*
X428507Y375442D01*
X428427Y375522D01*
X438697Y371612D02*
X438777Y371692D01*
X438857Y371612D01*
X438777Y371532D01*
X438697Y371612D01*
X438707Y371912D02*
X438787Y371992D01*
X438867Y371912D01*
X438787Y371832D01*
X438707Y371912D01*
X436977Y368342D02*
X437057Y368422D01*
X437137Y368342D01*
X437057Y368262D01*
X436977Y368342D01*
X436457Y368332D02*
X436537Y368412D01*
X436617Y368332D01*
X436537Y368252D01*
X436457Y368332D01*
X426277Y372622D02*
X426357Y372702D01*
X426437Y372622D01*
X426357Y372542D01*
X426277Y372622D01*
X426497Y372262D02*
X426577Y372342D01*
X426657Y372262D01*
X426577Y372182D01*
X426497Y372262D01*
X426837Y371952D02*
X426917Y372032D01*
X426997Y371952D01*
X426917Y371872D01*
X426837Y371952D01*
X425857Y372342D02*
X425937Y372422D01*
X426017Y372342D01*
X425937Y372262D01*
X425857Y372342D01*
X426167Y372072D02*
X426247Y372152D01*
X426327Y372072D01*
X426247Y371992D01*
X426167Y372072D01*
X421707Y376757D02*
X421787Y376837D01*
X421867Y376757D01*
X421787Y376677D01*
X421707Y376757D01*
Y378612D02*
X421787Y378692D01*
X421867Y378612D01*
X421787Y378532D01*
X421707Y378612D01*
X423953Y373832D02*
X424033Y373912D01*
X424113Y373832D01*
X424033Y373752D01*
X423953Y373832D01*
X421247Y376538D02*
X421327Y376618D01*
X421407Y376538D01*
X421327Y376458D01*
X421247Y376538D01*
Y378421D02*
X421327Y378501D01*
X421407Y378421D01*
X421327Y378341D01*
X421247Y378421D01*
X418716Y380952D02*
X418796Y381032D01*
X418876Y380952D01*
X418796Y380872D01*
X418716Y380952D01*
X419921Y379743D02*
X420001Y379823D01*
X420081Y379743D01*
X420001Y379663D01*
X419921Y379743D01*
X429152Y374213D02*
X429232Y374293D01*
X429312Y374213D01*
X429232Y374133D01*
X429152Y374213D01*
X430432Y373524D02*
X430512Y373604D01*
X430592Y373524D01*
X430512Y373444D01*
X430432Y373524D01*
X429841D02*
X429921Y373604D01*
X430001Y373524D01*
X429921Y373444D01*
X429841Y373524D01*
X429251D02*
X429331Y373604D01*
X429411Y373524D01*
X429331Y373444D01*
X429251Y373524D01*
X430333Y374213D02*
X430413Y374293D01*
X430493Y374213D01*
X430413Y374133D01*
X430333Y374213D01*
X429743D02*
X429823Y374293D01*
X429903Y374213D01*
X429823Y374133D01*
X429743Y374213D01*
X429251Y372835D02*
X429331Y372915D01*
X429411Y372835D01*
X429331Y372755D01*
X429251Y372835D01*
X434959Y382874D02*
X435039Y382954D01*
X435119Y382874D01*
X435039Y382794D01*
X434959Y382874D01*
X436928D02*
X437008Y382954D01*
X437088Y382874D01*
X437008Y382794D01*
X436928Y382874D01*
X438896D02*
X438976Y382954D01*
X439056Y382874D01*
X438976Y382794D01*
X438896Y382874D01*
X434959Y380905D02*
X435039Y380986D01*
X435119Y380905D01*
X435039Y380826D01*
X434959Y380905D01*
X436928D02*
X437008Y380986D01*
X437088Y380905D01*
X437008Y380826D01*
X436928Y380905D01*
X438896D02*
X438976Y380986D01*
X439056Y380905D01*
X438976Y380826D01*
X438896Y380905D01*
Y378937D02*
X438976Y379017D01*
X439056Y378937D01*
X438976Y378857D01*
X438896Y378937D01*
X436928D02*
X437008Y379017D01*
X437088Y378937D01*
X437008Y378857D01*
X436928Y378937D01*
X434959D02*
X435039Y379017D01*
X435119Y378937D01*
X435039Y378857D01*
X434959Y378937D01*
Y376968D02*
X435039Y377048D01*
X435119Y376968D01*
X435039Y376889D01*
X434959Y376968D01*
X436928D02*
X437008Y377048D01*
X437088Y376968D01*
X437008Y376889D01*
X436928Y376968D01*
X438896D02*
X438976Y377048D01*
X439056Y376968D01*
X438976Y376889D01*
X438896Y376968D01*
X443818Y365157D02*
X443898Y365237D01*
X443978Y365157D01*
X443898Y365077D01*
X443818Y365157D01*
Y367126D02*
X443898Y367206D01*
X443978Y367126D01*
X443898Y367046D01*
X443818Y367126D01*
Y369095D02*
X443898Y369174D01*
X443978Y369095D01*
X443898Y369014D01*
X443818Y369095D01*
Y371063D02*
X443898Y371143D01*
X443978Y371063D01*
X443898Y370983D01*
X443818Y371063D01*
Y373032D02*
X443898Y373111D01*
X443978Y373032D01*
X443898Y372952D01*
X443818Y373032D01*
X441849Y371063D02*
X441929Y371143D01*
X442009Y371063D01*
X441929Y370983D01*
X441849Y371063D01*
Y369095D02*
X441929Y369174D01*
X442009Y369095D01*
X441929Y369014D01*
X441849Y369095D01*
Y367126D02*
X441929Y367206D01*
X442009Y367126D01*
X441929Y367046D01*
X441849Y367126D01*
Y365157D02*
X441929Y365237D01*
X442009Y365157D01*
X441929Y365077D01*
X441849Y365157D01*
X432203Y382087D02*
X432283Y382167D01*
X432363Y382087D01*
X432283Y382007D01*
X432203Y382087D01*
X429448D02*
X429528Y382167D01*
X429608Y382087D01*
X429528Y382007D01*
X429448Y382087D01*
Y379331D02*
X429528Y379411D01*
X429608Y379331D01*
X429528Y379251D01*
X429448Y379331D01*
X432203D02*
X432283Y379411D01*
X432363Y379331D01*
X432283Y379251D01*
X432203Y379331D01*
Y378543D02*
X432283Y378623D01*
X432363Y378543D01*
X432283Y378463D01*
X432203Y378543D01*
X429448Y377756D02*
X429528Y377836D01*
X429608Y377756D01*
X429528Y377676D01*
X429448Y377756D01*
X430826D02*
X430905Y377836D01*
X430986Y377756D01*
X430905Y377676D01*
X430826Y377756D01*
X432203D02*
X432283Y377836D01*
X432363Y377756D01*
X432283Y377676D01*
X432203Y377756D01*
X430826Y379331D02*
X430905Y379411D01*
X430986Y379331D01*
X430905Y379251D01*
X430826Y379331D01*
X428266Y382087D02*
X428346Y382167D01*
X428426Y382087D01*
X428346Y382007D01*
X428266Y382087D01*
X426298D02*
X426378Y382167D01*
X426458Y382087D01*
X426378Y382007D01*
X426298Y382087D01*
Y379921D02*
X426378Y380001D01*
X426458Y379921D01*
X426378Y379841D01*
X426298Y379921D01*
X428266D02*
X428346Y380001D01*
X428426Y379921D01*
X428346Y379841D01*
X428266Y379921D01*
Y377756D02*
X428346Y377836D01*
X428426Y377756D01*
X428346Y377676D01*
X428266Y377756D01*
X424723Y382087D02*
X424803Y382167D01*
X424883Y382087D01*
X424803Y382007D01*
X424723Y382087D01*
X423345D02*
X423425Y382167D01*
X423505Y382087D01*
X423425Y382007D01*
X423345Y382087D01*
Y380315D02*
X423425Y380395D01*
X423505Y380315D01*
X423425Y380235D01*
X423345Y380315D01*
X424723D02*
X424803Y380395D01*
X424883Y380315D01*
X424803Y380235D01*
X424723Y380315D01*
X421574Y382087D02*
X421654Y382167D01*
X421734Y382087D01*
X421654Y382007D01*
X421574Y382087D01*
X419802D02*
X419882Y382167D01*
X419962Y382087D01*
X419882Y382007D01*
X419802Y382087D01*
X415865D02*
X415945Y382167D01*
X416025Y382087D01*
X415945Y382007D01*
X415865Y382087D01*
X4137D02*
X41378Y382167D01*
X41386Y382087D01*
X41378Y382007D01*
X4137Y382087D01*
X415865Y379921D02*
X415945Y380001D01*
X416025Y379921D01*
X415945Y379841D01*
X415865Y379921D01*
X4137D02*
X41378Y380001D01*
X41386Y379921D01*
X41378Y379841D01*
X4137Y379921D01*
X415865Y384055D02*
X415945Y384135D01*
X416025Y384055D01*
X415945Y383975D01*
X415865Y384055D01*
X419802Y37815D02*
X419882Y37823D01*
X419962Y37815D01*
X419882Y37807D01*
X419802Y37815D01*
X412912Y375787D02*
X412992Y375867D01*
X413072Y375787D01*
X412992Y375707D01*
X412912Y375787D01*
X413306Y375197D02*
X413386Y375277D01*
X413466Y375197D01*
X413386Y375117D01*
X413306Y375197D01*
X414487D02*
X414567Y375277D01*
X414647Y375197D01*
X414567Y375117D01*
X414487Y375197D01*
X415865D02*
X415945Y375277D01*
X416025Y375197D01*
X415945Y375117D01*
X415865Y375197D01*
X417243D02*
X417323Y375277D01*
X417403Y375197D01*
X417323Y375117D01*
X417243Y375197D01*
X418621D02*
X418701Y375277D01*
X418781Y375197D01*
X418701Y375117D01*
X418621Y375197D01*
X419999D02*
X420079Y375277D01*
X420159Y375197D01*
X420079Y375117D01*
X419999Y375197D01*
X42118Y374606D02*
X42126Y374686D01*
X42134Y374606D01*
X42126Y374526D01*
X42118Y374606D01*
X42177Y374016D02*
X42185Y374096D01*
X42193Y374016D01*
X42185Y373936D01*
X42177Y374016D01*
X421574Y373425D02*
X421654Y373505D01*
X421734Y373425D01*
X421654Y373345D01*
X421574Y373425D01*
X420786Y374213D02*
X420866Y374293D01*
X420946Y374213D01*
X420866Y374133D01*
X420786Y374213D01*
X419999Y374409D02*
X420079Y374489D01*
X420159Y374409D01*
X420079Y374329D01*
X419999Y374409D01*
X418621D02*
X418701Y374489D01*
X418781Y374409D01*
X418701Y374329D01*
X418621Y374409D01*
X417243D02*
X417323Y374489D01*
X417403Y374409D01*
X417323Y374329D01*
X417243Y374409D01*
X415865D02*
X415945Y374489D01*
X416025Y374409D01*
X415945Y374329D01*
X415865Y374409D01*
X414487D02*
X414567Y374489D01*
X414647Y374409D01*
X414567Y374329D01*
X414487Y374409D01*
X413306D02*
X413386Y374489D01*
X413466Y374409D01*
X413386Y374329D01*
X413306Y374409D01*
X412125Y375197D02*
X412205Y375277D01*
X412285Y375197D01*
X412205Y375117D01*
X412125Y375197D01*
X421574Y371457D02*
X421654Y371537D01*
X421734Y371457D01*
X421654Y371377D01*
X421574Y371457D01*
X419999D02*
X420079Y371537D01*
X420159Y371457D01*
X420079Y371377D01*
X419999Y371457D01*
Y372835D02*
X420079Y372915D01*
X420159Y372835D01*
X420079Y372755D01*
X419999Y372835D01*
X421574D02*
X421654Y372915D01*
X421734Y372835D01*
X421654Y372755D01*
X421574Y372835D01*
Y368898D02*
X421654Y368978D01*
X421734Y368898D01*
X421654Y368818D01*
X421574Y368898D01*
X419999D02*
X420079Y368978D01*
X420159Y368898D01*
X420079Y368818D01*
X419999Y368898D01*
X418621D02*
X418701Y368978D01*
X418781Y368898D01*
X418701Y368818D01*
X418621Y368898D01*
Y367717D02*
X418701Y367797D01*
X418781Y367717D01*
X418701Y367637D01*
X418621Y367717D01*
X419999D02*
X420079Y367797D01*
X420159Y367717D01*
X420079Y367637D01*
X419999Y367717D01*
X421574D02*
X421654Y367797D01*
X421734Y367717D01*
X421654Y367637D01*
X421574Y367717D01*
X414487Y372441D02*
X414567Y372521D01*
X414647Y372441D01*
X414567Y372361D01*
X414487Y372441D01*
X426692Y362598D02*
X426772Y362678D01*
X426852Y362598D01*
X426772Y362518D01*
X426692Y362598D01*
X425707Y362008D02*
X425787Y362088D01*
X425867Y362008D01*
X425787Y361928D01*
X425707Y362008D01*
X423148Y360827D02*
X423228Y360907D01*
X423308Y360827D01*
X423228Y360747D01*
X423148Y360827D01*
X421574D02*
X421654Y360907D01*
X421734Y360827D01*
X421654Y360747D01*
X421574Y360827D01*
X419999D02*
X420079Y360907D01*
X420159Y360827D01*
X420079Y360747D01*
X419999Y360827D01*
X418424D02*
X418504Y360907D01*
X418584Y360827D01*
X418504Y360747D01*
X418424Y360827D01*
X416937Y360842D02*
X417017Y360922D01*
X417097Y360842D01*
X417017Y360762D01*
X416937Y360842D01*
X417637Y359646D02*
X417717Y359726D01*
X417797Y359646D01*
X417717Y359566D01*
X417637Y359646D01*
X419211D02*
X419291Y359726D01*
X419371Y359646D01*
X419291Y359566D01*
X419211Y359646D01*
X420786D02*
X420866Y359726D01*
X420946Y359646D01*
X420866Y359566D01*
X420786Y359646D01*
X422361D02*
X422441Y359726D01*
X422521Y359646D01*
X422441Y359566D01*
X422361Y359646D01*
X437322Y385236D02*
X437402Y385316D01*
X437482Y385236D01*
X437402Y385156D01*
X437322Y385236D01*
X43614D02*
X43622Y385316D01*
X4363Y385236D01*
X43622Y385156D01*
X43614Y385236D01*
X434959D02*
X435039Y385316D01*
X435119Y385236D01*
X435039Y385156D01*
X434959Y385236D01*
X433778D02*
X433858Y385316D01*
X433938Y385236D01*
X433858Y385156D01*
X433778Y385236D01*
X432597D02*
X432677Y385316D01*
X432757Y385236D01*
X432677Y385156D01*
X432597Y385236D01*
Y383661D02*
X432677Y383741D01*
X432757Y383661D01*
X432677Y383581D01*
X432597Y383661D01*
X433377Y383992D02*
X433457Y384072D01*
X433537Y383992D01*
X433457Y383912D01*
X433377Y383992D01*
X437067Y366572D02*
X437147Y366652D01*
X437227Y366572D01*
X437147Y366492D01*
X437067Y366572D01*
X437557Y366552D02*
X437637Y366632D01*
X437717Y366552D01*
X437637Y366472D01*
X437557Y366552D01*
X436267D02*
X436347Y366632D01*
X436427Y366552D01*
X436347Y366472D01*
X436267Y366552D01*
X41709Y372934D02*
X41717Y373014D01*
X41725Y372934D01*
X41717Y372854D01*
X41709Y372934D01*
X417385D02*
X417465Y373014D01*
X417545Y372934D01*
X417465Y372854D01*
X417385Y372934D01*
Y37324D02*
X417465Y37332D01*
X417545Y37324D01*
X417465Y37316D01*
X417385Y37324D01*
X41709D02*
X41717Y37332D01*
X41725Y37324D01*
X41717Y37316D01*
X41709Y37324D01*
X437337Y371052D02*
Y371212D01*
X437497D01*
Y371052D01*
X437337D01*
X437377Y371092D02*
Y371172D01*
X437457D01*
Y371092D01*
X437377D01*
X436865Y371052D02*
Y371212D01*
X437025D01*
Y371052D01*
X436865D01*
X436905Y371092D02*
Y371172D01*
X436985D01*
Y371092D01*
X436905D01*
X437337Y371524D02*
Y371684D01*
X437497D01*
Y371524D01*
X437337D01*
X437377Y371564D02*
Y371644D01*
X437457D01*
Y371564D01*
X437377D01*
X436865Y371524D02*
Y371684D01*
X437025D01*
Y371524D01*
X436865D01*
X436905Y371564D02*
Y371644D01*
X436985D01*
Y371564D01*
X436905D01*
X41992Y364366D02*
X42Y364446D01*
X42008Y364366D01*
X42Y364286D01*
X41992Y364366D01*
X420275D02*
X420354Y364446D01*
X420434Y364366D01*
X420354Y364286D01*
X420275Y364366D01*
X41992Y363972D02*
X42Y364052D01*
X42008Y363972D01*
X42Y363892D01*
X41992Y363972D01*
X420275D02*
X420354Y364052D01*
X420434Y363972D01*
X420354Y363892D01*
X420275Y363972D01*
X41992Y363578D02*
X42Y363658D01*
X42008Y363578D01*
X42Y363498D01*
X41992Y363578D01*
X420275D02*
X420354Y363658D01*
X420434Y363578D01*
X420354Y363498D01*
X420275Y363578D01*
X434047Y361842D02*
X434127Y361922D01*
X434207Y361842D01*
X434127Y361762D01*
X434047Y361842D01*
Y361462D02*
X434127Y361542D01*
X434207Y361462D01*
X434127Y361382D01*
X434047Y361462D01*
X434397Y361652D02*
X434477Y361732D01*
X434557Y361652D01*
X434477Y361572D01*
X434397Y361652D01*
X433697D02*
X433777Y361732D01*
X433857Y361652D01*
X433777Y361572D01*
X433697Y361652D01*
D127*
X440437Y365962D02*
G03*
X440437Y365962I-00008J0D01*
G01*
X439437D02*
G03*
X439437Y365962I-00008J0D01*
G01*
X438437D02*
G03*
X438437Y365962I-00008J0D01*
G01*
X437437D02*
G03*
X437437Y365962I-00008J0D01*
G01*
X439937Y364962D02*
G03*
X439937Y364962I-00008J0D01*
G01*
X438937D02*
G03*
X438937Y364962I-00008J0D01*
G01*
X437937D02*
G03*
X437937Y364962I-00008J0D01*
G01*
X436937D02*
G03*
X436937Y364962I-00008J0D01*
G01*
X41315Y382722D02*
G03*
X41315Y382722I-00008J0D01*
G01*
Y379572D02*
G03*
X41315Y379572I-00008J0D01*
G01*
M02*
