M48
;Layer_Color=9474304
;FILE_FORMAT=2:4
INCH,LZ
;TYPE=PLATED
T1F00S00C0.0118
T2F00S00C0.0130
T3F00S00C0.0354
T4F00S00C0.0394
T5F00S00C0.0433
T6F00S00C0.0500
T7F00S00C0.0630
T8F00S00C0.1181
T9F00S00C0.1299
%
T01
X445417Y373452
X444917
X444417
X443917
X443898Y373032
X443417Y373452
X442917
X442417
X441917
X441417
X440917
X440317Y373652
Y374252
Y374752
X439322Y373527
X439187Y373002
X438787Y371912
X438777Y371612
X438907Y370072
X438887Y369702
X439027Y369362
Y368972
X438587Y368752
X438327Y368412
X438887Y368452
X440197Y367822
X440127Y367152
X441929Y367126
X441627Y367832
X441929Y369095
X443898
Y367126
Y365157
X441929
X442913Y363189
X444882
X439961Y36378
X439173
Y363189
Y362402
Y361614
Y360827
X438189
Y361614
Y362402
Y363189
Y36378
X437637Y366552
X437607Y367142
X437547Y367812
X439797Y370582
X439787Y370892
X441929Y371063
X443898
X437997Y374592
X437197Y374562
X436617Y374552
X437347Y372992
X435601Y372848
X434527Y372798
X434517Y372162
X434821
X434631Y370618
X434441Y369458
X434057Y369412
X434431Y368838
X433657Y368702
X433387Y369032
X432577Y369262
X432327Y369532
X432087Y369782
X431837Y370042
X431827Y370552
X432177Y370852
X432057Y371182
X432377Y371872
X432367Y372402
Y373022
X431847Y372692
X431857Y372102
X430407Y371862
X430507Y371472
X430567Y370422
X429697Y370562
X429667Y370042
X429887Y369782
X430167Y369522
X43001Y367939
X430404Y367945
X430817Y367922
X431247Y367442
X431587
X431927
X432157Y367072
Y36671
Y366344
Y365978
Y365612
X432217Y364992
Y364642
Y364292
Y363942
Y363482
Y363099
Y362717
Y362334
X432197Y361952
X431827
X431457
X431087
X429257Y362932
Y363442
Y363932
X426772Y362598
X425787Y362008
X425394Y363189
X425
X424606
Y363583
Y363976
X425
Y363583
X425394
Y363976
X425591Y365551
X426181Y365157
X426772Y365551
X426817Y367322
X42667Y367995
X427067Y368002
X428427Y367992
X428827Y367908
X429207Y367942
X429597Y367962
X431857Y368002
X432327Y368192
X432817Y367982
X432977Y366802
X433327Y366312
Y365732
X433507Y365172
Y364802
X433857Y364982
X434287Y364792
Y365172
X434637Y364982
Y364582
X434847Y362612
X434887Y362202
X434477Y361652
X434127Y361842
Y361462
X433777Y361652
X433837Y359962
X433827Y359612
X434257Y359682
Y360002
X434597Y360172
Y360522
Y359802
X433507Y359822
X433257Y359602
X435147Y360752
X437205Y36378
X437147Y366572
X436347Y366552
X436077Y367812
X436537Y368332
X437057Y368342
X437177Y370022
X435171Y369438
X434427Y367732
X433267Y371562
X432047Y373902
Y374292
X430413Y374213
X429823
X429232
X429331Y373524
X429921
X430512
X430327Y372522
X430007Y372642
X429577Y372282
X429257Y371962
X429331Y372835
X428627Y373042
X428607Y373542
X427747Y373892
X427397Y374202
X426877Y372762
X427137Y372472
X427367Y372122
X427677Y372042
X426917Y371952
X426577Y372262
X426247Y372072
X425937Y372342
X426357Y372622
X426437Y371532
X425997Y371422
X424197Y371502
X423487Y371632
X423327Y371162
X423617Y372522
X424187Y372852
X424033Y373832
X424407Y374142
X424177Y370012
X424157Y369622
X425007Y368262
X425577Y367342
X424409Y366831
Y366437
Y365945
Y365453
X423819
Y365945
Y366437
Y366831
X423228
Y366437
Y365945
Y365453
X422638
Y365945
Y366437
Y366831
X422047
Y366437
Y365945
Y365453
X423228Y360827
X422441Y359646
X427807Y366412
Y366992
X426987Y369732
X426427Y369702
X426707Y370042
X428697Y370282
X429517Y371132
X427997Y371322
X434571Y374138
X42185Y374016
X421654Y373425
Y372835
Y371457
X420079
X419097Y371332
X419097Y371717
X419107Y372102
X418387Y372052
X418507Y370792
X418907
X419307Y370782
Y370412
Y370042
Y369672
X418907
X418507
X418701Y368898
X417697Y368892
X417075Y369384
Y368354
X417267Y366831
X417787
Y366417
Y366004
Y365591
X418307
Y366004
Y366417
Y366831
X418701Y367717
X420079
Y368898
X421654
Y367717
X420557Y365272
X420192
X419827
X419987Y364943
X420367
X420354Y364366
X42
Y363972
X420354
Y363578
X42
X419977Y362893
Y362538
Y362183
X420357
Y362538
Y362893
X421307Y362472
X421654Y360827
X420079
X418504
X418327Y361582
X417017Y360842
X417717Y359646
X419291
X420866
X415188Y364902
Y365394
Y365886
Y366378
Y366831
X415708
X416227
X416747
X415553Y37143
Y371922
X41516Y371627
Y371233
X414567Y372441
Y374409
X413386
X415945
X415947Y374082
X416477
X417107
X417323Y374409
X417465Y37324
X41717
Y372934
X417465
X415947Y3733
X418701Y374409
X420079
X420866Y374213
X42126Y374606
X420079Y372835
X412507Y372352
X412205Y375197
X413386
X412992Y375787
X414567Y375197
X415945
X417323
X418701
X420079
X421327Y376538
X421787Y376757
Y378612
X421327Y378421
X419882Y37815
X420001Y379743
X420297Y380102
X418796Y380952
X418987Y381412
X418097Y380912
X417967Y382052
X419882Y382087
X421654
X419737Y385152
X417687Y384602
X417337
X417007Y384192
X41745Y383824
X41654
X415945Y384055
X415967Y385122
X415945Y382087
X41378
Y379921
X415945
X417007Y378582
Y377602
X417502Y378076
X423425Y380315
X424803
Y382087
X423425
X426378
X428346
X429528
X432283
X432677Y383661
X433457Y383992
X433858Y385236
X435039
X43622
X437402
X437008Y382874
X435039
Y380905
X437008
Y378937
X435039
Y376968
X437008
X432283Y377756
Y378543
Y379331
X430905
X429528
Y377756
X428346
X427807Y377582
X427507Y377402
X427207Y377592
X426917Y377392
X427517Y376372
X427507Y375522
X427897Y375832
X428507Y375522
X429057Y376292
X429697Y376302
X430905Y377756
X428346Y379921
X426378
X432677Y385236
X439124Y384709
X439687Y384252
X440197Y384222
X440317Y384752
X440207Y385352
X440197Y385912
X440317Y386452
Y382852
Y382252
Y381752
Y381252
Y380752
Y380252
Y379752
Y379252
Y378752
Y378252
Y377752
Y377252
Y376752
Y376252
X440187Y375072
X438976Y376968
Y378937
Y380905
Y382874
T02
X437417Y371604
Y371132
X436945
Y371604
T03
X429507Y360242
X428507
X427507
X426337Y360222
X425337
X424337
Y361222
X425337
X426337
X426177Y384502
X427177
X428177
Y385502
X427177
X426177
X425177
Y384502
X429657
Y385502
X430967Y385512
X431967
X431967Y384512
X430967
X430967Y383512
X431967
X429657Y383502
T04
X440357Y365962
X439357
X438357
X438857Y364962
X439857
X437857
X436857
X437357Y365962
X41307Y379572
Y382722
T05
X441097Y361131
X440097Y360533
X437117Y361131
X436117Y360533
T06
X412607Y370942
Y368942
T07
X441668Y363663
X435546
T08
X444167Y360732
X43187Y360453
X415925
X412795Y360728
X415925Y376398
X412795Y385482
X43187Y376398
X441637Y385482
T09
X440857Y362462
X436357
M30
