G04 Layer_Color=16711935*
%FSTAX24Y24*%
%MOIN*%
G70*
G01*
G75*
%ADD49C,0.0100*%
%ADD54C,0.0060*%
D49*
X445866Y359252D02*
Y375282D01*
X411417Y386811D02*
X443107D01*
Y375282D02*
X445866D01*
X443107D02*
Y386811D01*
X411417Y359252D02*
X445866D01*
X411417D02*
Y386811D01*
Y358268D02*
X426082D01*
X431201D02*
X445866D01*
X411417D02*
X412017Y358468D01*
X411417Y358268D02*
X412017Y358068D01*
X445266Y358468D02*
X445866Y358268D01*
X445266Y358068D02*
X445866Y358268D01*
X411417Y358168D02*
Y358368D01*
X445866Y358168D02*
Y358368D01*
X410433Y359252D02*
Y371022D01*
Y375041D02*
Y386811D01*
X410233Y359852D02*
X410433Y359252D01*
X410633Y359852D01*
X410233Y386211D02*
X410433Y386811D01*
X410633Y386211D01*
X410333Y359252D02*
X410533D01*
X410333Y386811D02*
X410533D01*
D54*
X426183Y358408D02*
X426282Y358508D01*
X426482D01*
X426582Y358408D01*
Y358308D01*
X426482Y358208D01*
X426582Y358108D01*
Y358008D01*
X426482Y357908D01*
X426282D01*
X426183Y358008D01*
Y358108D01*
X426282Y358208D01*
X426183Y358308D01*
Y358408D01*
X426282Y358208D02*
X426482D01*
X426782Y358508D02*
X427182D01*
Y358408D01*
X426782Y358008D01*
Y357908D01*
X427382D02*
Y358008D01*
X427482D01*
Y357908D01*
X427382D01*
X428282Y358508D02*
X427882D01*
Y358208D01*
X428082Y358308D01*
X428182D01*
X428282Y358208D01*
Y358008D01*
X428182Y357908D01*
X427982D01*
X427882Y358008D01*
X429282Y357908D02*
X429082Y358108D01*
Y358308D01*
X429282Y358508D01*
X429581Y357908D02*
Y358308D01*
X429681D01*
X429781Y358208D01*
Y357908D01*
Y358208D01*
X429881Y358308D01*
X429981Y358208D01*
Y357908D01*
X430181D02*
Y358308D01*
X430281D01*
X430381Y358208D01*
Y357908D01*
Y358208D01*
X430481Y358308D01*
X430581Y358208D01*
Y357908D01*
X430781D02*
X430981Y358108D01*
Y358308D01*
X430781Y358508D01*
X410193Y371122D02*
Y371522D01*
X410293D01*
X410693Y371122D01*
X410793D01*
X410293Y371722D02*
X410193Y371822D01*
Y372022D01*
X410293Y372122D01*
X410693D01*
X410793Y372022D01*
Y371822D01*
X410693Y371722D01*
X410293D01*
X410793Y373121D02*
X410593Y372922D01*
X410393D01*
X410193Y373121D01*
X410793Y373421D02*
X410393D01*
Y373521D01*
X410493Y373621D01*
X410793D01*
X410493D01*
X410393Y373721D01*
X410493Y373821D01*
X410793D01*
Y374021D02*
X410393D01*
Y374121D01*
X410493Y374221D01*
X410793D01*
X410493D01*
X410393Y374321D01*
X410493Y374421D01*
X410793D01*
Y374621D02*
X410593Y374821D01*
X410393D01*
X410193Y374621D01*
M02*
