G04 Layer_Color=16711935*
%FSTAX24Y24*%
%MOIN*%
G70*
G01*
G75*
%ADD49C,0.0100*%
%ADD54C,0.0060*%
%ADD72C,0.0079*%
%ADD74C,0.0059*%
%ADD124C,0.0039*%
D49*
X445866Y358168D02*
Y358368D01*
X411417Y358168D02*
Y358368D01*
X445266Y358068D02*
X445866Y358268D01*
X445266Y358468D02*
X445866Y358268D01*
X411417D02*
X412017Y358068D01*
X411417Y358268D02*
X412017Y358468D01*
X431201Y358268D02*
X445866D01*
X411417D02*
X426082D01*
X410333Y386811D02*
X410533D01*
X410333Y359252D02*
X410533D01*
X410433Y386811D02*
X410633Y386211D01*
X410233D02*
X410433Y386811D01*
Y359252D02*
X410633Y359852D01*
X410233D02*
X410433Y359252D01*
Y375041D02*
Y386811D01*
Y359252D02*
Y371022D01*
X411417Y359252D02*
Y386811D01*
Y359252D02*
X445866D01*
Y375282D01*
X443107D02*
X445866D01*
X443107D02*
Y386811D01*
X411417D02*
X443107D01*
X425367Y366862D02*
X425377Y366872D01*
X427067D01*
Y365892D02*
Y366872D01*
X425367Y365892D02*
X427067D01*
X425367D02*
Y366862D01*
X437684Y373242D02*
Y374432D01*
Y373242D02*
X437694Y373232D01*
X439134D01*
X439154Y373252D01*
Y374422D01*
X439144Y374432D02*
X439154Y374422D01*
X437684Y374432D02*
X439144D01*
D54*
X426183Y358408D02*
X426282Y358508D01*
X426482D01*
X426582Y358408D01*
Y358308D01*
X426482Y358208D01*
X426582Y358108D01*
Y358008D01*
X426482Y357908D01*
X426282D01*
X426183Y358008D01*
Y358108D01*
X426282Y358208D01*
X426183Y358308D01*
Y358408D01*
X426282Y358208D02*
X426482D01*
X426782Y358508D02*
X427182D01*
Y358408D01*
X426782Y358008D01*
Y357908D01*
X427382D02*
Y358008D01*
X427482D01*
Y357908D01*
X427382D01*
X428282Y358508D02*
X427882D01*
Y358208D01*
X428082Y358308D01*
X428182D01*
X428282Y358208D01*
Y358008D01*
X428182Y357908D01*
X427982D01*
X427882Y358008D01*
X429282Y357908D02*
X429082Y358108D01*
Y358308D01*
X429282Y358508D01*
X429581Y357908D02*
Y358308D01*
X429681D01*
X429781Y358208D01*
Y357908D01*
Y358208D01*
X429881Y358308D01*
X429981Y358208D01*
Y357908D01*
X430181D02*
Y358308D01*
X430281D01*
X430381Y358208D01*
Y357908D01*
Y358208D01*
X430481Y358308D01*
X430581Y358208D01*
Y357908D01*
X430781D02*
X430981Y358108D01*
Y358308D01*
X430781Y358508D01*
X410193Y371122D02*
Y371522D01*
X410293D01*
X410693Y371122D01*
X410793D01*
X410293Y371722D02*
X410193Y371822D01*
Y372022D01*
X410293Y372122D01*
X410693D01*
X410793Y372022D01*
Y371822D01*
X410693Y371722D01*
X410293D01*
X410793Y373121D02*
X410593Y372922D01*
X410393D01*
X410193Y373121D01*
X410793Y373421D02*
X410393D01*
Y373521D01*
X410493Y373621D01*
X410793D01*
X410493D01*
X410393Y373721D01*
X410493Y373821D01*
X410793D01*
Y374021D02*
X410393D01*
Y374121D01*
X410493Y374221D01*
X410793D01*
X410493D01*
X410393Y374321D01*
X410493Y374421D01*
X410793D01*
Y374621D02*
X410593Y374821D01*
X410393D01*
X410193Y374621D01*
D72*
X434386Y366955D02*
Y368609D01*
X432969Y366955D02*
Y368609D01*
X434386D01*
X432969Y366955D02*
X434386D01*
X415039Y359567D02*
Y377283D01*
X432756D01*
Y359567D02*
Y377283D01*
X415039Y359567D02*
X432756D01*
X429417Y362165D02*
Y367215D01*
Y362165D02*
X432197D01*
Y367215D01*
X429417D02*
X432197D01*
X435152Y368647D02*
X43657D01*
X435152Y36971D02*
X43657D01*
Y368647D02*
Y36971D01*
X435152Y368647D02*
Y36971D01*
X435077Y358152D02*
Y366812D01*
Y358152D02*
X442167D01*
X442187Y358172D01*
Y366812D01*
X435077D02*
X442187D01*
X423837Y359732D02*
X426837D01*
Y361712D01*
X426827Y361722D02*
X426837Y361712D01*
X423847Y361722D02*
X426827D01*
X423837Y359732D02*
Y361722D01*
X423847D01*
X424739Y368463D02*
Y36931D01*
X431556D02*
X431557Y375281D01*
X431556Y368463D02*
Y36931D01*
X43071Y368463D02*
X431556D01*
X425585D02*
X43071D01*
X424739D02*
X425585D01*
X424739Y36931D02*
Y375281D01*
X431557D01*
X438343Y370207D02*
Y37253D01*
X43602Y370207D02*
Y37253D01*
Y370207D02*
X438343D01*
X43602Y37253D02*
X438343D01*
X419457Y364897D02*
X420898D01*
X419457Y363047D02*
X420898D01*
X419457D02*
Y364897D01*
X420898Y363047D02*
Y364897D01*
X433399Y360932D02*
X434856D01*
X433399Y362372D02*
X434856D01*
X433399Y360932D02*
Y362372D01*
X434856Y360932D02*
Y362372D01*
X432467Y386002D02*
Y386012D01*
X430477D02*
X432467D01*
Y383022D02*
Y386002D01*
X432457Y383012D02*
X432467Y383022D01*
X430477Y383012D02*
X432457D01*
X430477D02*
Y386012D01*
X426997Y359752D02*
Y360762D01*
Y359752D02*
X427017Y359732D01*
X430017D01*
Y360742D01*
X429997Y360762D02*
X430017Y360742D01*
X426997Y360762D02*
X429997D01*
X428687Y384002D02*
Y385982D01*
X428677Y385992D02*
X428687Y385982D01*
X424667Y385992D02*
X428677D01*
X424657Y385982D02*
X424667Y385992D01*
X424657Y384022D02*
Y385982D01*
Y384022D02*
X424677Y384002D01*
X428687D01*
X430177Y383012D02*
Y386012D01*
X430157Y382992D02*
X430177Y383012D01*
X429147Y382992D02*
X430157D01*
X429147D02*
Y385992D01*
X429167Y386012D01*
X430177D01*
X411697Y376192D02*
X413367D01*
X411707Y372532D02*
X413367D01*
Y376192D01*
X411697Y372542D02*
Y376192D01*
Y372542D02*
X411707Y372532D01*
X415067Y368262D02*
Y369522D01*
X417547Y368262D02*
Y369522D01*
X415067D02*
X417547D01*
X415067Y368262D02*
X417547D01*
X419777Y384332D02*
Y386002D01*
X423437Y384342D02*
Y386002D01*
X419777D02*
X423437D01*
X419777Y384332D02*
X423427D01*
X423437Y384342D01*
X428209Y376671D02*
X429666D01*
X428209Y375293D02*
X429666D01*
X428209D02*
Y376671D01*
X429666Y375293D02*
X429666Y376671D01*
D74*
X427927Y366162D02*
Y366662D01*
Y366162D02*
X428987D01*
X427927Y366662D02*
X428987D01*
Y366162D02*
Y366662D01*
X427927Y366732D02*
Y367232D01*
Y366732D02*
X428987D01*
X427927Y367232D02*
X428987D01*
Y366732D02*
Y367232D01*
X418217Y372372D02*
X418527D01*
X418217D02*
Y373102D01*
X418527Y372372D02*
Y373102D01*
X418217D02*
X418527D01*
X418147Y371902D02*
X418147Y372212D01*
X417417Y371902D02*
X418147Y371902D01*
X417417Y372212D02*
X418147D01*
X417417Y371902D02*
X417417Y372212D01*
X418947Y371122D02*
Y371792D01*
X417417D02*
X418947D01*
X417417D02*
X417417Y371132D01*
X417427Y371122D01*
X418947D01*
X415747Y371112D02*
X415747Y371782D01*
X415747Y371112D02*
X417277Y371112D01*
X417277Y371772D02*
X417277Y371112D01*
X417267Y371782D02*
X417277Y371772D01*
X415747Y371782D02*
X417267Y371782D01*
X416957Y371852D02*
Y372162D01*
X416227Y371852D02*
X416957D01*
X416227Y372162D02*
X416957D01*
X416227Y371852D02*
Y372162D01*
X416107Y373472D02*
X416417D01*
Y372742D02*
Y373472D01*
X416107Y372742D02*
Y373472D01*
Y372742D02*
X416417D01*
X427687Y375362D02*
Y375672D01*
X428417D01*
X427687Y375362D02*
X428417D01*
Y375672D01*
X424357Y370172D02*
X424667D01*
Y369442D02*
Y370172D01*
X424357Y369442D02*
Y370172D01*
Y369442D02*
X424667D01*
X426147Y366952D02*
Y367262D01*
X425417Y366952D02*
X426147D01*
X425417Y367262D02*
X426147D01*
X425417Y366952D02*
Y367262D01*
X425897Y368112D02*
Y368422D01*
X425167Y368112D02*
X425897D01*
X425167Y368422D02*
X425897D01*
X425167Y368112D02*
Y368422D01*
X431557Y373732D02*
X431867D01*
X431557D02*
Y374462D01*
X431867Y373732D02*
Y374462D01*
X431557D02*
X431867D01*
X426977Y366952D02*
Y367262D01*
X426247Y366952D02*
X426977D01*
X426247Y367262D02*
X426977D01*
X426247Y366952D02*
Y367262D01*
X427237Y368092D02*
Y368402D01*
X426507Y368092D02*
X427237D01*
X426507Y368402D02*
X427237D01*
X426507Y368092D02*
Y368402D01*
X428987Y368082D02*
Y368392D01*
X428257Y368082D02*
X428987D01*
X428257Y368392D02*
X428987D01*
X428257Y368082D02*
Y368392D01*
X431597Y371002D02*
X431907D01*
X431597D02*
Y371732D01*
X431907Y371002D02*
Y371732D01*
X431597D02*
X431907D01*
X430567Y368072D02*
Y368382D01*
X429837Y368072D02*
X430567D01*
X429837Y368382D02*
X430567D01*
X429837Y368072D02*
Y368382D01*
X433117Y366622D02*
Y366932D01*
X433847D01*
X433117Y366622D02*
X433847D01*
Y366932D01*
X432177Y368392D02*
X432487D01*
X432177D02*
Y369122D01*
X432487Y368392D02*
Y369122D01*
X432177D02*
X432487D01*
X437771Y368988D02*
Y369488D01*
Y368988D02*
X438831D01*
X437771Y369488D02*
X438831D01*
Y368988D02*
Y369488D01*
X437941Y369558D02*
Y369868D01*
X438671D01*
X437941Y369558D02*
X438671D01*
Y369868D01*
Y369928D02*
Y370238D01*
X437941Y369928D02*
X438671D01*
X437941Y370238D02*
X438671D01*
X437941Y369928D02*
Y370238D01*
X438375Y371058D02*
X438685D01*
Y370328D02*
Y371058D01*
X438375Y370328D02*
Y371058D01*
Y370328D02*
X438685D01*
X438745D02*
X439055D01*
X438745D02*
Y371058D01*
X439055Y370328D02*
Y371058D01*
X438745D02*
X439055D01*
X439105Y371108D02*
X439605D01*
X439105Y370048D02*
Y371108D01*
X439605Y370048D02*
Y371108D01*
X439105Y370048D02*
X439605D01*
X433987Y362452D02*
Y362762D01*
X434717D01*
X433987Y362452D02*
X434717D01*
Y362762D01*
X434951Y371948D02*
X435451D01*
Y373008D01*
X434951Y371948D02*
Y373008D01*
X435451D01*
X434387Y360522D02*
Y360832D01*
X433657Y360522D02*
X434387D01*
X433657Y360832D02*
X434387D01*
X433657Y360522D02*
Y360832D01*
X435517Y372012D02*
X435827D01*
X435517D02*
Y372742D01*
X435827Y372012D02*
Y372742D01*
X435517D02*
X435827D01*
X434387Y360132D02*
Y360442D01*
X433657Y360132D02*
X434387D01*
X433657Y360442D02*
X434387D01*
X433657Y360132D02*
Y360442D01*
X436364Y373362D02*
X436864D01*
Y374422D01*
X436364Y373362D02*
Y374422D01*
X436864D01*
X438274Y372832D02*
Y373142D01*
X439004D01*
X438274Y372832D02*
X439004D01*
Y373142D01*
X437464Y372832D02*
Y373142D01*
X438194D01*
X437464Y372832D02*
X438194D01*
Y373142D01*
X437713Y367792D02*
Y368102D01*
X438443D01*
X437713Y367792D02*
X438443D01*
Y368102D01*
X438508D02*
X438818D01*
Y367372D02*
Y368102D01*
X438508Y367372D02*
Y368102D01*
Y367372D02*
X438818D01*
X438928D02*
X439238D01*
X438928D02*
Y368102D01*
X439238Y367372D02*
Y368102D01*
X438928D02*
X439238D01*
X439303Y367792D02*
Y368102D01*
X440033D01*
X439303Y367792D02*
X440033D01*
Y368102D01*
X415767Y369862D02*
Y370532D01*
Y369862D02*
X417297D01*
Y370522D01*
X417287Y370532D02*
X417297Y370522D01*
X415767Y370532D02*
X417287D01*
X433337Y362922D02*
X434007D01*
Y364452D01*
X433347D02*
X434007D01*
X433337Y364442D02*
X433347Y364452D01*
X433337Y362922D02*
Y364442D01*
X434107Y362932D02*
X434777D01*
Y364462D01*
X434117D02*
X434777D01*
X434107Y364452D02*
X434117Y364462D01*
X434107Y362932D02*
Y364452D01*
X415347Y384872D02*
X415847D01*
Y385932D01*
X415347Y384872D02*
Y385932D01*
X415847D01*
X418357D02*
X418857D01*
X418357Y384872D02*
Y385932D01*
X418857Y384872D02*
Y385932D01*
X418357Y384872D02*
X418857D01*
X417477Y370562D02*
X417477Y369892D01*
X419007Y369892D01*
X419007Y370552D02*
X419007Y369892D01*
X418997Y370562D02*
X419007Y370552D01*
X417477Y370562D02*
X418997D01*
X418647Y372332D02*
X419147D01*
Y373392D01*
X418647Y372332D02*
X418647Y373392D01*
X419147Y373392D01*
X414717Y384872D02*
X415217D01*
Y385932D01*
X414717Y384872D02*
Y385932D01*
X415217Y385932D01*
X423757Y371662D02*
X424257D01*
Y372722D01*
X423757Y371662D02*
Y372722D01*
X424257D01*
X425627Y367382D02*
Y367882D01*
Y367382D02*
X426687D01*
X425627Y367882D02*
X426687D01*
Y367382D02*
Y367882D01*
X431617Y369122D02*
X432117D01*
X431617Y368062D02*
Y369122D01*
X432117Y368062D02*
Y369122D01*
X431617Y368062D02*
X432117D01*
X417697Y384872D02*
X418197Y384872D01*
X418197Y385932D01*
X417697Y384872D02*
Y385932D01*
X418197D01*
X432567Y369122D02*
X433067D01*
X432567Y368062D02*
Y369122D01*
X433067Y368062D02*
Y369122D01*
X432567Y368062D02*
X433067D01*
X434517Y366052D02*
Y366552D01*
X433457D02*
X434517D01*
X433457Y366052D02*
X434517D01*
X433457D02*
Y366552D01*
X434517Y365482D02*
Y365982D01*
X433457D02*
X434517D01*
X433457Y365482D02*
X434517D01*
X433457D02*
Y365982D01*
X437601Y368978D02*
Y369478D01*
X436541D02*
X437601D01*
X436541Y368978D02*
X437601D01*
X436541D02*
Y369478D01*
X435667Y368032D02*
Y368532D01*
X434607D02*
X435667D01*
X434607Y368032D02*
X435667D01*
X434607D02*
Y368532D01*
X434751Y370468D02*
Y370778D01*
X435481D01*
X434751Y370468D02*
X435481D01*
Y370778D01*
X434751Y370832D02*
Y371142D01*
X435481D01*
X434751Y370832D02*
X435481D01*
Y371142D01*
X434751Y371195D02*
Y371505D01*
X435481D01*
X434751Y371195D02*
X435481D01*
Y371505D01*
X434751Y371558D02*
Y371868D01*
X435481D01*
X434751Y371558D02*
X435481D01*
Y371868D01*
X434761Y373088D02*
Y373398D01*
X435491D01*
X434761Y373088D02*
X435491D01*
Y373398D01*
Y373458D02*
Y373768D01*
X434761Y373458D02*
X435491D01*
X434761Y373768D02*
X435491D01*
X434761Y373458D02*
Y373768D01*
X435487Y373982D02*
Y374292D01*
X434757Y373982D02*
X435487D01*
X434757Y374292D02*
X435487D01*
X434757Y373982D02*
Y374292D01*
X437713Y366992D02*
Y367302D01*
X438443D01*
X437713Y366992D02*
X438443D01*
Y367302D01*
X440033Y366992D02*
Y367302D01*
X439303Y366992D02*
X440033D01*
X439303Y367302D02*
X440033D01*
X439303Y366992D02*
Y367302D01*
X436944Y373362D02*
X437444D01*
Y374422D01*
X436944Y373362D02*
Y374422D01*
X437444D01*
X438508Y366992D02*
Y367302D01*
X439238D01*
X438508Y366992D02*
X439238D01*
Y367302D01*
X434591Y369668D02*
X435091D01*
X434591Y368608D02*
Y369668D01*
X435091Y368608D02*
Y369668D01*
X434591Y368608D02*
X435091D01*
X436217Y367002D02*
X436717D01*
Y368062D01*
X436217Y367002D02*
Y368062D01*
X436717D01*
X436897Y367002D02*
X437397D01*
Y368062D01*
X436897Y367002D02*
Y368062D01*
X437397D01*
X434607Y367962D02*
X435107D01*
X434607Y366902D02*
Y367962D01*
X435107Y366902D02*
Y367962D01*
X434607Y366902D02*
X435107D01*
X441047Y367022D02*
X441547D01*
Y368082D01*
X441047Y367022D02*
Y368082D01*
X441547D01*
X440357Y367012D02*
X440857D01*
Y368072D01*
X440357Y367012D02*
Y368072D01*
X440857D01*
X418154Y372255D02*
Y373929D01*
X416481D02*
X416481Y372255D01*
X418154Y372255D01*
X416481Y373929D02*
X418154D01*
X421067Y363933D02*
X421377D01*
X421067D02*
Y364663D01*
X421377Y363933D02*
Y364663D01*
X421067D02*
X421377D01*
X42148Y365016D02*
X42215D01*
X42148Y363486D02*
Y365016D01*
Y363486D02*
X42214D01*
X42215Y363496D01*
Y365016D01*
X42226D02*
X42293D01*
X42226Y363486D02*
Y365016D01*
Y363486D02*
X42292D01*
X42293Y363496D01*
Y365016D01*
X42304D02*
X42371D01*
X42304Y363486D02*
Y365016D01*
Y363486D02*
X4237D01*
X42371Y363496D01*
Y365016D01*
X42382D02*
X42449D01*
X42382Y363486D02*
Y365016D01*
Y363486D02*
X42448D01*
X42449Y363496D01*
Y365016D01*
X41746Y365186D02*
X41813D01*
X41746Y363656D02*
Y365186D01*
Y363656D02*
X41812D01*
X41813Y363666D01*
Y365186D01*
X41822D02*
X41889D01*
X41822Y363656D02*
Y365186D01*
Y363656D02*
X41888D01*
X41889Y363666D01*
Y365186D01*
X41897Y364676D02*
X41928D01*
Y363946D02*
Y364676D01*
X41897Y363946D02*
Y364676D01*
Y363946D02*
X41928D01*
X420577Y362663D02*
Y362973D01*
X421307D01*
X420577Y362663D02*
X421307D01*
Y362973D01*
X413767Y363532D02*
Y364202D01*
Y363532D02*
X415297D01*
Y364192D01*
X415287Y364202D02*
X415297Y364192D01*
X413767Y364202D02*
X415287D01*
X422477Y363083D02*
Y363393D01*
X421747Y363083D02*
X422477D01*
X421747Y363393D02*
X422477D01*
X421747Y363083D02*
Y363393D01*
X419097Y361843D02*
X419597D01*
Y362903D01*
X419097Y361843D02*
Y362903D01*
X419597D01*
X421367Y363393D02*
X421677D01*
Y362663D02*
Y363393D01*
X421367Y362663D02*
Y363393D01*
Y362663D02*
X421677D01*
X41776Y362906D02*
X41826D01*
X41776Y361846D02*
Y362906D01*
X41826Y361846D02*
Y362906D01*
X41776Y361846D02*
X41826D01*
X418387Y362903D02*
X418887D01*
X418387Y361843D02*
Y362903D01*
X418887Y361843D02*
Y362903D01*
X418387Y361843D02*
X418887D01*
X431047Y368062D02*
X431547D01*
Y369122D01*
X431047Y368062D02*
Y369122D01*
X431547D01*
X417927Y381022D02*
X417927Y381332D01*
X418657Y381332D01*
X417927Y381022D02*
X418657D01*
Y381332D01*
X438557Y384302D02*
Y384612D01*
X439287D01*
X438557Y384302D02*
X439287Y384302D01*
X439287Y384612D01*
X427677Y375772D02*
Y376272D01*
X426617D02*
X427677D01*
X426617Y375772D02*
X427677D01*
X426617D02*
Y376272D01*
X426667Y375372D02*
Y375682D01*
X427397D01*
X426667Y375372D02*
X427397Y375372D01*
X427397Y375682D01*
X429757Y375422D02*
X430257D01*
Y376482D01*
X429757Y375422D02*
Y376482D01*
X430257D01*
X424347Y372262D02*
X424657D01*
X424347D02*
Y372992D01*
X424657Y372262D02*
Y372992D01*
X424347D02*
X424657D01*
X433147Y367867D02*
Y367604D01*
X4332Y367552D01*
X433305D01*
X433357Y367604D01*
Y367867D01*
X433672Y367552D02*
X433462D01*
X433672Y367762D01*
Y367814D01*
X43362Y367867D01*
X433515D01*
X433462Y367814D01*
X433777D02*
X43383Y367867D01*
X433934D01*
X433987Y367814D01*
Y367604D01*
X433934Y367552D01*
X43383D01*
X433777Y367604D01*
Y367814D01*
X434302Y367552D02*
X434092D01*
X434302Y367762D01*
Y367814D01*
X434249Y367867D01*
X434144D01*
X434092Y367814D01*
X428057Y366282D02*
Y366518D01*
X428175D01*
X428215Y366479D01*
Y3664D01*
X428175Y366361D01*
X428057D01*
X428136D02*
X428215Y366282D01*
X428412D02*
Y366518D01*
X428293Y3664D01*
X428451D01*
X42853Y366479D02*
X428569Y366518D01*
X428648D01*
X428687Y366479D01*
Y366321D01*
X428648Y366282D01*
X428569D01*
X42853Y366321D01*
Y366479D01*
X428766Y366282D02*
X428844D01*
X428805D01*
Y366518D01*
X428766Y366479D01*
X428037Y366842D02*
Y367078D01*
X428155D01*
X428195Y367039D01*
Y36696D01*
X428155Y366921D01*
X428037D01*
X428116D02*
X428195Y366842D01*
X428392D02*
Y367078D01*
X428273Y36696D01*
X428431D01*
X42851Y367039D02*
X428549Y367078D01*
X428628D01*
X428667Y367039D01*
Y366881D01*
X428628Y366842D01*
X428549D01*
X42851Y366881D01*
Y367039D01*
X428746D02*
X428785Y367078D01*
X428864D01*
X428903Y367039D01*
Y366881D01*
X428864Y366842D01*
X428785D01*
X428746Y366881D01*
Y367039D01*
X430087Y364887D02*
Y364624D01*
X43014Y364572D01*
X430245D01*
X430297Y364624D01*
Y364887D01*
X43056Y364572D02*
Y364887D01*
X430402Y364729D01*
X430612D01*
X430717Y364834D02*
X43077Y364887D01*
X430874D01*
X430927Y364834D01*
Y364624D01*
X430874Y364572D01*
X43077D01*
X430717Y364624D01*
Y364834D01*
X431032D02*
X431084Y364887D01*
X431189D01*
X431242Y364834D01*
Y364624D01*
X431189Y364572D01*
X431084D01*
X431032Y364624D01*
Y364834D01*
X417827Y371564D02*
X417775Y371617D01*
X41767D01*
X417617Y371564D01*
Y371354D01*
X41767Y371302D01*
X417775D01*
X417827Y371354D01*
X417932Y371302D02*
X418037D01*
X417985D01*
Y371617D01*
X417932Y371564D01*
X418195D02*
X418247Y371617D01*
X418352D01*
X418404Y371564D01*
Y371354D01*
X418352Y371302D01*
X418247D01*
X418195Y371354D01*
Y371564D01*
X418719Y371302D02*
X418509D01*
X418719Y371512D01*
Y371564D01*
X418667Y371617D01*
X418562D01*
X418509Y371564D01*
X416227D02*
X416175Y371617D01*
X41607D01*
X416017Y371564D01*
Y371354D01*
X41607Y371302D01*
X416175D01*
X416227Y371354D01*
X416332Y371302D02*
X416437D01*
X416385D01*
Y371617D01*
X416332Y371564D01*
X416595D02*
X416647Y371617D01*
X416752D01*
X416804Y371564D01*
Y371354D01*
X416752Y371302D01*
X416647D01*
X416595Y371354D01*
Y371564D01*
X416909D02*
X416962Y371617D01*
X417067D01*
X417119Y371564D01*
Y371512D01*
X417067Y371459D01*
X417014D01*
X417067D01*
X417119Y371407D01*
Y371354D01*
X417067Y371302D01*
X416962D01*
X416909Y371354D01*
X435267Y369377D02*
Y369062D01*
X435425D01*
X435477Y369114D01*
Y369324D01*
X435425Y369377D01*
X435267D01*
X435582Y369324D02*
X435635Y369377D01*
X43574D01*
X435792Y369324D01*
Y369272D01*
X43574Y369219D01*
X435687D01*
X43574D01*
X435792Y369167D01*
Y369114D01*
X43574Y369062D01*
X435635D01*
X435582Y369114D01*
X435897Y369324D02*
X43595Y369377D01*
X436054D01*
X436107Y369324D01*
Y369114D01*
X436054Y369062D01*
X43595D01*
X435897Y369114D01*
Y369324D01*
X436212D02*
X436264Y369377D01*
X436369D01*
X436422Y369324D01*
Y369114D01*
X436369Y369062D01*
X436264D01*
X436212Y369114D01*
Y369324D01*
X438157Y363747D02*
X438052D01*
X438105D01*
Y363484D01*
X438052Y363432D01*
X438D01*
X437947Y363484D01*
X438262Y363694D02*
X438315Y363747D01*
X43842D01*
X438472Y363694D01*
Y363642D01*
X43842Y363589D01*
X438367D01*
X43842D01*
X438472Y363537D01*
Y363484D01*
X43842Y363432D01*
X438315D01*
X438262Y363484D01*
X438577Y363694D02*
X43863Y363747D01*
X438734D01*
X438787Y363694D01*
Y363484D01*
X438734Y363432D01*
X43863D01*
X438577Y363484D01*
Y363694D01*
X438892D02*
X438944Y363747D01*
X439049D01*
X439102Y363694D01*
Y363484D01*
X439049Y363432D01*
X438944D01*
X438892Y363484D01*
Y363694D01*
X415927Y370417D02*
Y370102D01*
X416137D01*
X416242D02*
X416347D01*
X416295D01*
Y370417D01*
X416242Y370364D01*
X416505D02*
X416557Y370417D01*
X416662D01*
X416714Y370364D01*
Y370154D01*
X416662Y370102D01*
X416557D01*
X416505Y370154D01*
Y370364D01*
X416819D02*
X416872Y370417D01*
X416977D01*
X417029Y370364D01*
Y370154D01*
X416977Y370102D01*
X416872D01*
X416819Y370154D01*
Y370364D01*
X433532Y362992D02*
X433847D01*
Y363202D01*
X433585Y363307D02*
X433532Y363359D01*
Y363464D01*
X433585Y363517D01*
X433637D01*
X43369Y363464D01*
Y363412D01*
Y363464D01*
X433742Y363517D01*
X433795D01*
X433847Y363464D01*
Y363359D01*
X433795Y363307D01*
X433585Y363622D02*
X433532Y363674D01*
Y363779D01*
X433585Y363832D01*
X433795D01*
X433847Y363779D01*
Y363674D01*
X433795Y363622D01*
X433585D01*
Y363937D02*
X433532Y363989D01*
Y364094D01*
X433585Y364146D01*
X433795D01*
X433847Y364094D01*
Y363989D01*
X433795Y363937D01*
X433585D01*
X434312Y363042D02*
X434627D01*
Y363252D01*
X434365Y363357D02*
X434312Y363409D01*
Y363514D01*
X434365Y363567D01*
X434417D01*
X43447Y363514D01*
Y363462D01*
Y363514D01*
X434522Y363567D01*
X434575D01*
X434627Y363514D01*
Y363409D01*
X434575Y363357D01*
X434365Y363672D02*
X434312Y363724D01*
Y363829D01*
X434365Y363882D01*
X434575D01*
X434627Y363829D01*
Y363724D01*
X434575Y363672D01*
X434365D01*
X434627Y363987D02*
Y364091D01*
Y364039D01*
X434312D01*
X434365Y363987D01*
X415727Y385052D02*
X415412D01*
Y385209D01*
X415465Y385262D01*
X41557D01*
X415622Y385209D01*
Y385052D01*
X415412Y385367D02*
X415727D01*
X415622Y385472D01*
X415727Y385577D01*
X415412D01*
X415727Y385682D02*
X415412D01*
Y385839D01*
X415465Y385892D01*
X41557D01*
X415622Y385839D01*
Y385682D01*
Y385787D02*
X415727Y385892D01*
X418505Y385202D02*
X418452Y385149D01*
Y385044D01*
X418505Y384992D01*
X418557D01*
X41861Y385044D01*
Y385149D01*
X418662Y385202D01*
X418715D01*
X418767Y385149D01*
Y385044D01*
X418715Y384992D01*
X418452Y385307D02*
Y385517D01*
Y385412D01*
X418767D01*
X418452Y385622D02*
Y385832D01*
Y385727D01*
X418767D01*
X424667Y360452D02*
Y360767D01*
X424825D01*
X424877Y360714D01*
Y360609D01*
X424825Y360557D01*
X424667D01*
X42514Y360452D02*
Y360767D01*
X424982Y360609D01*
X425192D01*
X425297Y360714D02*
X42535Y360767D01*
X425454D01*
X425507Y360714D01*
Y360504D01*
X425454Y360452D01*
X42535D01*
X425297Y360504D01*
Y360714D01*
X425612D02*
X425664Y360767D01*
X425769D01*
X425822Y360714D01*
Y360504D01*
X425769Y360452D01*
X425664D01*
X425612Y360504D01*
Y360714D01*
X417697Y370062D02*
Y370377D01*
X417855D01*
X417907Y370324D01*
Y370219D01*
X417855Y370167D01*
X417697D01*
X417802D02*
X417907Y370062D01*
X418012D02*
X418117D01*
X418065D01*
Y370377D01*
X418012Y370324D01*
X418275D02*
X418327Y370377D01*
X418432D01*
X418484Y370324D01*
Y370114D01*
X418432Y370062D01*
X418327D01*
X418275Y370114D01*
Y370324D01*
X418589D02*
X418642Y370377D01*
X418747D01*
X418799Y370324D01*
Y370114D01*
X418747Y370062D01*
X418642D01*
X418589Y370114D01*
Y370324D01*
X419037Y372392D02*
X418722D01*
Y372549D01*
X418775Y372602D01*
X41888D01*
X418932Y372549D01*
Y372392D01*
Y372497D02*
X419037Y372602D01*
Y372707D02*
Y372812D01*
Y372759D01*
X418722D01*
X418775Y372707D01*
Y372969D02*
X418722Y373022D01*
Y373127D01*
X418775Y373179D01*
X418985D01*
X419037Y373127D01*
Y373022D01*
X418985Y372969D01*
X418775D01*
X419037Y373284D02*
Y373389D01*
Y373337D01*
X418722D01*
X418775Y373284D01*
X416807Y373147D02*
Y372884D01*
X41686Y372832D01*
X416965D01*
X417017Y372884D01*
Y373147D01*
X417122Y372832D02*
X417227D01*
X417175D01*
Y373147D01*
X417122Y373094D01*
X417385D02*
X417437Y373147D01*
X417542D01*
X417594Y373094D01*
Y372884D01*
X417542Y372832D01*
X417437D01*
X417385Y372884D01*
Y373094D01*
X417699D02*
X417752Y373147D01*
X417857D01*
X417909Y373094D01*
Y372884D01*
X417857Y372832D01*
X417752D01*
X417699Y372884D01*
Y373094D01*
X427547Y371787D02*
Y371524D01*
X4276Y371472D01*
X427705D01*
X427757Y371524D01*
Y371787D01*
X428072Y371472D02*
X427862D01*
X428072Y371682D01*
Y371734D01*
X42802Y371787D01*
X427915D01*
X427862Y371734D01*
X428177D02*
X42823Y371787D01*
X428334D01*
X428387Y371734D01*
Y371524D01*
X428334Y371472D01*
X42823D01*
X428177Y371524D01*
Y371734D01*
X428492D02*
X428544Y371787D01*
X428649D01*
X428702Y371734D01*
Y371524D01*
X428649Y371472D01*
X428544D01*
X428492Y371524D01*
Y371734D01*
X436597Y371507D02*
Y371244D01*
X43665Y371192D01*
X436755D01*
X436807Y371244D01*
Y371507D01*
X436912Y371454D02*
X436965Y371507D01*
X43707D01*
X437122Y371454D01*
Y371402D01*
X43707Y371349D01*
X437017D01*
X43707D01*
X437122Y371297D01*
Y371244D01*
X43707Y371192D01*
X436965D01*
X436912Y371244D01*
X437227Y371454D02*
X43728Y371507D01*
X437384D01*
X437437Y371454D01*
Y371244D01*
X437384Y371192D01*
X43728D01*
X437227Y371244D01*
Y371454D01*
X437542D02*
X437594Y371507D01*
X437699D01*
X437752Y371454D01*
Y371244D01*
X437699Y371192D01*
X437594D01*
X437542Y371244D01*
Y371454D01*
X425517Y366477D02*
Y366424D01*
X425622Y366319D01*
X425727Y366424D01*
Y366477D01*
X425622Y366319D02*
Y366162D01*
X426042D02*
X425832D01*
X426042Y366372D01*
Y366424D01*
X42599Y366477D01*
X425885D01*
X425832Y366424D01*
X426147D02*
X4262Y366477D01*
X426304D01*
X426357Y366424D01*
Y366214D01*
X426304Y366162D01*
X4262D01*
X426147Y366214D01*
Y366424D01*
X426462D02*
X426514Y366477D01*
X426619D01*
X426672Y366424D01*
Y366214D01*
X426619Y366162D01*
X426514D01*
X426462Y366214D01*
Y366424D01*
X437837Y373937D02*
Y373884D01*
X437942Y373779D01*
X438047Y373884D01*
Y373937D01*
X437942Y373779D02*
Y373622D01*
X438152Y373884D02*
X438205Y373937D01*
X43831D01*
X438362Y373884D01*
Y373832D01*
X43831Y373779D01*
X438257D01*
X43831D01*
X438362Y373727D01*
Y373674D01*
X43831Y373622D01*
X438205D01*
X438152Y373674D01*
X438467Y373884D02*
X43852Y373937D01*
X438624D01*
X438677Y373884D01*
Y373674D01*
X438624Y373622D01*
X43852D01*
X438467Y373674D01*
Y373884D01*
X438782D02*
X438834Y373937D01*
X438939D01*
X438992Y373884D01*
Y373674D01*
X438939Y373622D01*
X438834D01*
X438782Y373674D01*
Y373884D01*
X421735Y363882D02*
X421682Y363829D01*
Y363724D01*
X421735Y363672D01*
X421945D01*
X421997Y363724D01*
Y363829D01*
X421945Y363882D01*
X421997Y363987D02*
Y364092D01*
Y364039D01*
X421682D01*
X421735Y363987D01*
Y364249D02*
X421682Y364302D01*
Y364407D01*
X421735Y364459D01*
X421945D01*
X421997Y364407D01*
Y364302D01*
X421945Y364249D01*
X421735D01*
X421682Y364564D02*
Y364774D01*
X421735D01*
X421945Y364564D01*
X421997D01*
X422515Y363902D02*
X422462Y363849D01*
Y363744D01*
X422515Y363692D01*
X422725D01*
X422777Y363744D01*
Y363849D01*
X422725Y363902D01*
X422777Y364007D02*
Y364112D01*
Y364059D01*
X422462D01*
X422515Y364007D01*
Y364269D02*
X422462Y364322D01*
Y364427D01*
X422515Y364479D01*
X422725D01*
X422777Y364427D01*
Y364322D01*
X422725Y364269D01*
X422515D01*
Y364584D02*
X422462Y364637D01*
Y364742D01*
X422515Y364794D01*
X422567D01*
X42262Y364742D01*
X422672Y364794D01*
X422725D01*
X422777Y364742D01*
Y364637D01*
X422725Y364584D01*
X422672D01*
X42262Y364637D01*
X422567Y364584D01*
X422515D01*
X42262Y364637D02*
Y364742D01*
X423295Y363872D02*
X423242Y363819D01*
Y363714D01*
X423295Y363662D01*
X423505D01*
X423557Y363714D01*
Y363819D01*
X423505Y363872D01*
X423557Y363977D02*
Y364082D01*
Y364029D01*
X423242D01*
X423295Y363977D01*
Y364239D02*
X423242Y364292D01*
Y364397D01*
X423295Y364449D01*
X423505D01*
X423557Y364397D01*
Y364292D01*
X423505Y364239D01*
X423295D01*
X423505Y364554D02*
X423557Y364607D01*
Y364711D01*
X423505Y364764D01*
X423295D01*
X423242Y364711D01*
Y364607D01*
X423295Y364554D01*
X423347D01*
X4234Y364607D01*
Y364764D01*
X424085Y363892D02*
X424032Y363839D01*
Y363734D01*
X424085Y363682D01*
X424295D01*
X424347Y363734D01*
Y363839D01*
X424295Y363892D01*
X424347Y363997D02*
Y364102D01*
Y364049D01*
X424032D01*
X424085Y363997D01*
X424347Y364259D02*
Y364364D01*
Y364312D01*
X424032D01*
X424085Y364259D01*
Y364522D02*
X424032Y364574D01*
Y364679D01*
X424085Y364731D01*
X424295D01*
X424347Y364679D01*
Y364574D01*
X424295Y364522D01*
X424085D01*
X417695Y364092D02*
X417642Y364039D01*
Y363934D01*
X417695Y363882D01*
X417905D01*
X417957Y363934D01*
Y364039D01*
X417905Y364092D01*
X417957Y364197D02*
Y364302D01*
Y364249D01*
X417642D01*
X417695Y364197D01*
X417957Y364459D02*
Y364564D01*
Y364512D01*
X417642D01*
X417695Y364459D01*
X417957Y364722D02*
Y364827D01*
Y364774D01*
X417642D01*
X417695Y364722D01*
X418455Y364062D02*
X418402Y364009D01*
Y363904D01*
X418455Y363852D01*
X418665D01*
X418717Y363904D01*
Y364009D01*
X418665Y364062D01*
X418717Y364167D02*
Y364272D01*
Y364219D01*
X418402D01*
X418455Y364167D01*
X418717Y364429D02*
Y364534D01*
Y364482D01*
X418402D01*
X418455Y364429D01*
X418717Y364902D02*
Y364692D01*
X418507Y364902D01*
X418455D01*
X418402Y364849D01*
Y364744D01*
X418455Y364692D01*
X419597Y365757D02*
Y365442D01*
X419807D01*
X419912D02*
X420017D01*
X419965D01*
Y365757D01*
X419912Y365704D01*
X420175D02*
X420227Y365757D01*
X420332D01*
X420384Y365704D01*
Y365494D01*
X420332Y365442D01*
X420227D01*
X420175Y365494D01*
Y365704D01*
X420489Y365442D02*
X420594D01*
X420542D01*
Y365757D01*
X420489Y365704D01*
X413857Y364037D02*
Y363722D01*
X414067D01*
X414172D02*
X414277D01*
X414225D01*
Y364037D01*
X414172Y363984D01*
X414435D02*
X414487Y364037D01*
X414592D01*
X414644Y363984D01*
Y363774D01*
X414592Y363722D01*
X414487D01*
X414435Y363774D01*
Y363984D01*
X414959Y363722D02*
X414749D01*
X414959Y363932D01*
Y363984D01*
X414907Y364037D01*
X414802D01*
X414749Y363984D01*
X419747Y364127D02*
Y363864D01*
X4198Y363812D01*
X419905D01*
X419957Y363864D01*
Y364127D01*
X420062Y363812D02*
X420167D01*
X420115D01*
Y364127D01*
X420062Y364074D01*
X420325D02*
X420377Y364127D01*
X420482D01*
X420534Y364074D01*
Y363864D01*
X420482Y363812D01*
X420377D01*
X420325Y363864D01*
Y364074D01*
X420639Y363812D02*
X420744D01*
X420692D01*
Y364127D01*
X420639Y364074D01*
X433627Y361767D02*
Y361504D01*
X43368Y361452D01*
X433785D01*
X433837Y361504D01*
Y361767D01*
X433942Y361714D02*
X433995Y361767D01*
X4341D01*
X434152Y361714D01*
Y361662D01*
X4341Y361609D01*
X434047D01*
X4341D01*
X434152Y361557D01*
Y361504D01*
X4341Y361452D01*
X433995D01*
X433942Y361504D01*
X434257Y361714D02*
X43431Y361767D01*
X434414D01*
X434467Y361714D01*
Y361504D01*
X434414Y361452D01*
X43431D01*
X434257Y361504D01*
Y361714D01*
X434572Y361452D02*
X434677D01*
X434624D01*
Y361767D01*
X434572Y361714D01*
X430977Y384532D02*
Y384847D01*
X431135D01*
X431187Y384794D01*
Y384689D01*
X431135Y384637D01*
X430977D01*
X43145Y384532D02*
Y384847D01*
X431292Y384689D01*
X431502D01*
X431607Y384794D02*
X43166Y384847D01*
X431764D01*
X431817Y384794D01*
Y384584D01*
X431764Y384532D01*
X43166D01*
X431607Y384584D01*
Y384794D01*
X431922Y384532D02*
X432027D01*
X431974D01*
Y384847D01*
X431922Y384794D01*
X427937Y360042D02*
Y360357D01*
X428095D01*
X428147Y360304D01*
Y360199D01*
X428095Y360147D01*
X427937D01*
X42841Y360042D02*
Y360357D01*
X428252Y360199D01*
X428462D01*
X428567Y360304D02*
X42862Y360357D01*
X428724D01*
X428777Y360304D01*
Y360094D01*
X428724Y360042D01*
X42862D01*
X428567Y360094D01*
Y360304D01*
X429039Y360042D02*
Y360357D01*
X428882Y360199D01*
X429092D01*
X425997Y384902D02*
Y385217D01*
X426155D01*
X426207Y385164D01*
Y385059D01*
X426155Y385007D01*
X425997D01*
X426522Y384902D02*
X426312D01*
X426522Y385112D01*
Y385164D01*
X42647Y385217D01*
X426365D01*
X426312Y385164D01*
X426627D02*
X42668Y385217D01*
X426784D01*
X426837Y385164D01*
Y384954D01*
X426784Y384902D01*
X42668D01*
X426627Y384954D01*
Y385164D01*
X426942D02*
X426994Y385217D01*
X427099D01*
X427152Y385164D01*
Y384954D01*
X427099Y384902D01*
X426994D01*
X426942Y384954D01*
Y385164D01*
X429557Y385262D02*
X429872D01*
Y385105D01*
X42982Y385052D01*
X429715D01*
X429662Y385105D01*
Y385262D01*
X429557Y38479D02*
X429872D01*
X429715Y384947D01*
Y384737D01*
X42982Y384632D02*
X429872Y38458D01*
Y384475D01*
X42982Y384422D01*
X42961D01*
X429557Y384475D01*
Y38458D01*
X42961Y384632D01*
X42982D01*
X429557Y384107D02*
Y384317D01*
X429767Y384107D01*
X42982D01*
X429872Y38416D01*
Y384265D01*
X42982Y384317D01*
X412332Y373492D02*
X412647D01*
Y373649D01*
X412595Y373702D01*
X412542D01*
X41249Y373649D01*
Y373492D01*
Y373649D01*
X412437Y373702D01*
X412385D01*
X412332Y373649D01*
Y373492D01*
Y373807D02*
Y374017D01*
Y373912D01*
X412647D01*
Y374332D02*
Y374122D01*
X412437Y374332D01*
X412385D01*
X412332Y374279D01*
Y374174D01*
X412385Y374122D01*
Y374437D02*
X412332Y374489D01*
Y374594D01*
X412385Y374646D01*
X412595D01*
X412647Y374594D01*
Y374489D01*
X412595Y374437D01*
X412385D01*
X412647Y374751D02*
Y374856D01*
Y374804D01*
X412332D01*
X412385Y374751D01*
X415317Y369057D02*
Y368742D01*
X415475D01*
X415527Y368794D01*
Y369004D01*
X415475Y369057D01*
X415317D01*
X415632Y368742D02*
X415737D01*
X415685D01*
Y369057D01*
X415632Y369004D01*
X415895D02*
X415947Y369057D01*
X416052D01*
X416104Y369004D01*
Y368794D01*
X416052Y368742D01*
X415947D01*
X415895Y368794D01*
Y369004D01*
X416209D02*
X416262Y369057D01*
X416367D01*
X416419Y369004D01*
Y368794D01*
X416367Y368742D01*
X416262D01*
X416209Y368794D01*
Y369004D01*
X420627Y385377D02*
Y385062D01*
X420785D01*
X420837Y385114D01*
Y385167D01*
X420785Y385219D01*
X420627D01*
X420785D01*
X420837Y385272D01*
Y385324D01*
X420785Y385377D01*
X420627D01*
X420942D02*
X421152D01*
X421047D01*
Y385062D01*
X421467D02*
X421257D01*
X421467Y385272D01*
Y385324D01*
X421414Y385377D01*
X42131D01*
X421257Y385324D01*
X421572D02*
X421624Y385377D01*
X421729D01*
X421782Y385324D01*
Y385114D01*
X421729Y385062D01*
X421624D01*
X421572Y385114D01*
Y385324D01*
X421887D02*
X421939Y385377D01*
X422044D01*
X422097Y385324D01*
Y385114D01*
X422044Y385062D01*
X421939D01*
X421887Y385114D01*
Y385324D01*
X438257Y380937D02*
Y380674D01*
X43831Y380622D01*
X438415D01*
X438467Y380674D01*
Y380937D01*
X438572Y380884D02*
X438625Y380937D01*
X43873D01*
X438782Y380884D01*
Y380832D01*
X43873Y380779D01*
X438782Y380727D01*
Y380674D01*
X43873Y380622D01*
X438625D01*
X438572Y380674D01*
Y380727D01*
X438625Y380779D01*
X438572Y380832D01*
Y380884D01*
X438625Y380779D02*
X43873D01*
X428567Y375884D02*
Y376094D01*
X428515Y376147D01*
X42841D01*
X428357Y376094D01*
Y375884D01*
X42841Y375832D01*
X428515D01*
X428462Y375937D02*
X428567Y375832D01*
X428515D02*
X428567Y375884D01*
X42883Y375832D02*
Y376147D01*
X428672Y375989D01*
X428882D01*
X428987Y376094D02*
X42904Y376147D01*
X429144D01*
X429197Y376094D01*
Y375884D01*
X429144Y375832D01*
X42904D01*
X428987Y375884D01*
Y376094D01*
X429302D02*
X429354Y376147D01*
X429459D01*
X429512Y376094D01*
Y375884D01*
X429459Y375832D01*
X429354D01*
X429302Y375884D01*
Y376094D01*
D124*
X419307Y365322D02*
Y367082D01*
X421087Y365322D02*
Y367082D01*
X419307D02*
X421087D01*
X419307Y365322D02*
X421087D01*
X42Y366202D02*
X420394D01*
X420197Y366005D02*
Y366399D01*
X418316Y372567D02*
X41829Y372541D01*
Y372488D01*
X418316Y372462D01*
X418421D01*
X418447Y372488D01*
Y372541D01*
X418421Y372567D01*
X418447Y372619D02*
Y372672D01*
Y372646D01*
X41829D01*
X418316Y372619D01*
Y372751D02*
X41829Y372777D01*
Y372829D01*
X418316Y372856D01*
X418421D01*
X418447Y372829D01*
Y372777D01*
X418421Y372751D01*
X418316D01*
Y372908D02*
X41829Y372934D01*
Y372987D01*
X418316Y373013D01*
X418421D01*
X418447Y372987D01*
Y372934D01*
X418421Y372908D01*
X418316D01*
X417602Y372113D02*
X417576Y372139D01*
X417524D01*
X417497Y372113D01*
Y372008D01*
X417524Y371982D01*
X417576D01*
X417602Y372008D01*
X417655Y371982D02*
X417707D01*
X417681D01*
Y372139D01*
X417655Y372113D01*
X417786D02*
X417812Y372139D01*
X417865D01*
X417891Y372113D01*
Y372008D01*
X417865Y371982D01*
X417812D01*
X417786Y372008D01*
Y372113D01*
X417943Y371982D02*
X417996D01*
X41797D01*
Y372139D01*
X417943Y372113D01*
X416412Y372063D02*
X416386Y372089D01*
X416334D01*
X416307Y372063D01*
Y371958D01*
X416334Y371932D01*
X416386D01*
X416412Y371958D01*
X416465Y371932D02*
X416517D01*
X416491D01*
Y372089D01*
X416465Y372063D01*
X416596D02*
X416622Y372089D01*
X416675D01*
X416701Y372063D01*
Y371958D01*
X416675Y371932D01*
X416622D01*
X416596Y371958D01*
Y372063D01*
X416832Y371932D02*
Y372089D01*
X416753Y372011D01*
X416858D01*
X416206Y372977D02*
X41618Y372951D01*
Y372898D01*
X416206Y372872D01*
X416311D01*
X416337Y372898D01*
Y372951D01*
X416311Y372977D01*
X416337Y373029D02*
Y373082D01*
Y373056D01*
X41618D01*
X416206Y373029D01*
Y373161D02*
X41618Y373187D01*
Y373239D01*
X416206Y373266D01*
X416311D01*
X416337Y373239D01*
Y373187D01*
X416311Y373161D01*
X416206D01*
X41618Y373423D02*
Y373318D01*
X416259D01*
X416232Y37337D01*
Y373397D01*
X416259Y373423D01*
X416311D01*
X416337Y373397D01*
Y373344D01*
X416311Y373318D01*
X427862Y375583D02*
X427836Y375609D01*
X427784D01*
X427757Y375583D01*
Y375478D01*
X427784Y375452D01*
X427836D01*
X427862Y375478D01*
X42802Y375452D02*
X427915D01*
X42802Y375557D01*
Y375583D01*
X427993Y375609D01*
X427941D01*
X427915Y375583D01*
X428072D02*
X428098Y375609D01*
X428151D01*
X428177Y375583D01*
Y375478D01*
X428151Y375452D01*
X428098D01*
X428072Y375478D01*
Y375583D01*
X42823Y375452D02*
X428282D01*
X428256D01*
Y375609D01*
X42823Y375583D01*
X424446Y369617D02*
X42442Y369591D01*
Y369538D01*
X424446Y369512D01*
X424551D01*
X424577Y369538D01*
Y369591D01*
X424551Y369617D01*
X424577Y369774D02*
Y369669D01*
X424472Y369774D01*
X424446D01*
X42442Y369748D01*
Y369696D01*
X424446Y369669D01*
Y369827D02*
X42442Y369853D01*
Y369906D01*
X424446Y369932D01*
X424551D01*
X424577Y369906D01*
Y369853D01*
X424551Y369827D01*
X424446D01*
Y369984D02*
X42442Y37001D01*
Y370063D01*
X424446Y370089D01*
X424472D01*
X424499Y370063D01*
Y370037D01*
Y370063D01*
X424525Y370089D01*
X424551D01*
X424577Y370063D01*
Y37001D01*
X424551Y369984D01*
X425592Y367153D02*
X425566Y367179D01*
X425514D01*
X425487Y367153D01*
Y367048D01*
X425514Y367022D01*
X425566D01*
X425592Y367048D01*
X42575Y367022D02*
X425645D01*
X42575Y367127D01*
Y367153D01*
X425723Y367179D01*
X425671D01*
X425645Y367153D01*
X425802D02*
X425828Y367179D01*
X425881D01*
X425907Y367153D01*
Y367048D01*
X425881Y367022D01*
X425828D01*
X425802Y367048D01*
Y367153D01*
X426038Y367022D02*
Y367179D01*
X42596Y367101D01*
X426065D01*
X425352Y368313D02*
X425326Y368339D01*
X425274D01*
X425247Y368313D01*
Y368208D01*
X425274Y368182D01*
X425326D01*
X425352Y368208D01*
X42551Y368182D02*
X425405D01*
X42551Y368287D01*
Y368313D01*
X425483Y368339D01*
X425431D01*
X425405Y368313D01*
X425562D02*
X425588Y368339D01*
X425641D01*
X425667Y368313D01*
Y368208D01*
X425641Y368182D01*
X425588D01*
X425562Y368208D01*
Y368313D01*
X425825Y368339D02*
X42572D01*
Y368261D01*
X425772Y368287D01*
X425798D01*
X425825Y368261D01*
Y368208D01*
X425798Y368182D01*
X425746D01*
X42572Y368208D01*
X431646Y373907D02*
X43162Y373881D01*
Y373828D01*
X431646Y373802D01*
X431751D01*
X431777Y373828D01*
Y373881D01*
X431751Y373907D01*
X431777Y374064D02*
Y373959D01*
X431672Y374064D01*
X431646D01*
X43162Y374038D01*
Y373986D01*
X431646Y373959D01*
Y374117D02*
X43162Y374143D01*
Y374196D01*
X431646Y374222D01*
X431751D01*
X431777Y374196D01*
Y374143D01*
X431751Y374117D01*
X431646D01*
X43162Y374379D02*
X431646Y374327D01*
X431699Y374274D01*
X431751D01*
X431777Y3743D01*
Y374353D01*
X431751Y374379D01*
X431725D01*
X431699Y374353D01*
Y374274D01*
X426442Y367163D02*
X426416Y367189D01*
X426364D01*
X426337Y367163D01*
Y367058D01*
X426364Y367032D01*
X426416D01*
X426442Y367058D01*
X4266Y367032D02*
X426495D01*
X4266Y367137D01*
Y367163D01*
X426573Y367189D01*
X426521D01*
X426495Y367163D01*
X426652D02*
X426678Y367189D01*
X426731D01*
X426757Y367163D01*
Y367058D01*
X426731Y367032D01*
X426678D01*
X426652Y367058D01*
Y367163D01*
X42681Y367189D02*
X426915D01*
Y367163D01*
X42681Y367058D01*
Y367032D01*
X426692Y368313D02*
X426666Y368339D01*
X426614D01*
X426587Y368313D01*
Y368208D01*
X426614Y368182D01*
X426666D01*
X426692Y368208D01*
X42685Y368182D02*
X426745D01*
X42685Y368287D01*
Y368313D01*
X426823Y368339D01*
X426771D01*
X426745Y368313D01*
X426902D02*
X426928Y368339D01*
X426981D01*
X427007Y368313D01*
Y368208D01*
X426981Y368182D01*
X426928D01*
X426902Y368208D01*
Y368313D01*
X42706D02*
X427086Y368339D01*
X427138D01*
X427165Y368313D01*
Y368287D01*
X427138Y368261D01*
X427165Y368234D01*
Y368208D01*
X427138Y368182D01*
X427086D01*
X42706Y368208D01*
Y368234D01*
X427086Y368261D01*
X42706Y368287D01*
Y368313D01*
X427086Y368261D02*
X427138D01*
X428442Y368293D02*
X428416Y368319D01*
X428364D01*
X428337Y368293D01*
Y368188D01*
X428364Y368162D01*
X428416D01*
X428442Y368188D01*
X4286Y368162D02*
X428495D01*
X4286Y368267D01*
Y368293D01*
X428573Y368319D01*
X428521D01*
X428495Y368293D01*
X428652D02*
X428678Y368319D01*
X428731D01*
X428757Y368293D01*
Y368188D01*
X428731Y368162D01*
X428678D01*
X428652Y368188D01*
Y368293D01*
X42881Y368188D02*
X428836Y368162D01*
X428888D01*
X428915Y368188D01*
Y368293D01*
X428888Y368319D01*
X428836D01*
X42881Y368293D01*
Y368267D01*
X428836Y368241D01*
X428915D01*
X431696Y371207D02*
X43167Y371181D01*
Y371128D01*
X431696Y371102D01*
X431801D01*
X431827Y371128D01*
Y371181D01*
X431801Y371207D01*
X431827Y371364D02*
Y371259D01*
X431722Y371364D01*
X431696D01*
X43167Y371338D01*
Y371286D01*
X431696Y371259D01*
X431827Y371417D02*
Y371469D01*
Y371443D01*
X43167D01*
X431696Y371417D01*
Y371548D02*
X43167Y371574D01*
Y371627D01*
X431696Y371653D01*
X431801D01*
X431827Y371627D01*
Y371574D01*
X431801Y371548D01*
X431696D01*
X430062Y368283D02*
X430036Y368309D01*
X429984D01*
X429957Y368283D01*
Y368178D01*
X429984Y368152D01*
X430036D01*
X430062Y368178D01*
X43022Y368152D02*
X430115D01*
X43022Y368257D01*
Y368283D01*
X430193Y368309D01*
X430141D01*
X430115Y368283D01*
X430272Y368152D02*
X430325D01*
X430298D01*
Y368309D01*
X430272Y368283D01*
X430403Y368152D02*
X430456D01*
X43043D01*
Y368309D01*
X430403Y368283D01*
X433332Y366843D02*
X433306Y366869D01*
X433254D01*
X433227Y366843D01*
Y366738D01*
X433254Y366712D01*
X433306D01*
X433332Y366738D01*
X43349Y366712D02*
X433385D01*
X43349Y366817D01*
Y366843D01*
X433463Y366869D01*
X433411D01*
X433385Y366843D01*
X433542Y366712D02*
X433595D01*
X433568D01*
Y366869D01*
X433542Y366843D01*
X433778Y366712D02*
X433673D01*
X433778Y366817D01*
Y366843D01*
X433752Y366869D01*
X4337D01*
X433673Y366843D01*
X432266Y368617D02*
X43224Y368591D01*
Y368538D01*
X432266Y368512D01*
X432371D01*
X432397Y368538D01*
Y368591D01*
X432371Y368617D01*
X432397Y368774D02*
Y368669D01*
X432292Y368774D01*
X432266D01*
X43224Y368748D01*
Y368696D01*
X432266Y368669D01*
X432397Y368827D02*
Y368879D01*
Y368853D01*
X43224D01*
X432266Y368827D01*
Y368958D02*
X43224Y368984D01*
Y369037D01*
X432266Y369063D01*
X432292D01*
X432319Y369037D01*
Y369011D01*
Y369037D01*
X432345Y369063D01*
X432371D01*
X432397Y369037D01*
Y368984D01*
X432371Y368958D01*
X438002Y369243D02*
X437976Y369269D01*
X437924D01*
X437897Y369243D01*
Y369138D01*
X437924Y369112D01*
X437976D01*
X438002Y369138D01*
X438055Y369243D02*
X438081Y369269D01*
X438133D01*
X43816Y369243D01*
Y369217D01*
X438133Y369191D01*
X438107D01*
X438133D01*
X43816Y369164D01*
Y369138D01*
X438133Y369112D01*
X438081D01*
X438055Y369138D01*
X438212Y369243D02*
X438238Y369269D01*
X438291D01*
X438317Y369243D01*
Y369138D01*
X438291Y369112D01*
X438238D01*
X438212Y369138D01*
Y369243D01*
X43837D02*
X438396Y369269D01*
X438448D01*
X438475Y369243D01*
Y369138D01*
X438448Y369112D01*
X438396D01*
X43837Y369138D01*
Y369243D01*
X438142Y369773D02*
X438116Y369799D01*
X438064D01*
X438037Y369773D01*
Y369668D01*
X438064Y369642D01*
X438116D01*
X438142Y369668D01*
X438195Y369773D02*
X438221Y369799D01*
X438273D01*
X4383Y369773D01*
Y369747D01*
X438273Y369721D01*
X438247D01*
X438273D01*
X4383Y369694D01*
Y369668D01*
X438273Y369642D01*
X438221D01*
X438195Y369668D01*
X438352Y369773D02*
X438378Y369799D01*
X438431D01*
X438457Y369773D01*
Y369668D01*
X438431Y369642D01*
X438378D01*
X438352Y369668D01*
Y369773D01*
X43851Y369642D02*
X438562D01*
X438536D01*
Y369799D01*
X43851Y369773D01*
X438142Y370143D02*
X438116Y370169D01*
X438064D01*
X438037Y370143D01*
Y370038D01*
X438064Y370012D01*
X438116D01*
X438142Y370038D01*
X438195Y370143D02*
X438221Y370169D01*
X438273D01*
X4383Y370143D01*
Y370117D01*
X438273Y370091D01*
X438247D01*
X438273D01*
X4383Y370064D01*
Y370038D01*
X438273Y370012D01*
X438221D01*
X438195Y370038D01*
X438352Y370143D02*
X438378Y370169D01*
X438431D01*
X438457Y370143D01*
Y370038D01*
X438431Y370012D01*
X438378D01*
X438352Y370038D01*
Y370143D01*
X438615Y370012D02*
X43851D01*
X438615Y370117D01*
Y370143D01*
X438588Y370169D01*
X438536D01*
X43851Y370143D01*
X438454Y370483D02*
X438428Y370457D01*
Y370404D01*
X438454Y370378D01*
X438559D01*
X438585Y370404D01*
Y370457D01*
X438559Y370483D01*
X438454Y370536D02*
X438428Y370562D01*
Y370614D01*
X438454Y370641D01*
X43848D01*
X438506Y370614D01*
Y370588D01*
Y370614D01*
X438533Y370641D01*
X438559D01*
X438585Y370614D01*
Y370562D01*
X438559Y370536D01*
X438454Y370693D02*
X438428Y370719D01*
Y370772D01*
X438454Y370798D01*
X438559D01*
X438585Y370772D01*
Y370719D01*
X438559Y370693D01*
X438454D01*
Y37085D02*
X438428Y370877D01*
Y370929D01*
X438454Y370955D01*
X43848D01*
X438506Y370929D01*
Y370903D01*
Y370929D01*
X438533Y370955D01*
X438559D01*
X438585Y370929D01*
Y370877D01*
X438559Y37085D01*
X438824Y370483D02*
X438798Y370457D01*
Y370404D01*
X438824Y370378D01*
X438929D01*
X438955Y370404D01*
Y370457D01*
X438929Y370483D01*
X438824Y370536D02*
X438798Y370562D01*
Y370614D01*
X438824Y370641D01*
X43885D01*
X438876Y370614D01*
Y370588D01*
Y370614D01*
X438903Y370641D01*
X438929D01*
X438955Y370614D01*
Y370562D01*
X438929Y370536D01*
X438824Y370693D02*
X438798Y370719D01*
Y370772D01*
X438824Y370798D01*
X438929D01*
X438955Y370772D01*
Y370719D01*
X438929Y370693D01*
X438824D01*
X438955Y370929D02*
X438798D01*
X438876Y37085D01*
Y370955D01*
X439334Y370273D02*
X439308Y370247D01*
Y370194D01*
X439334Y370168D01*
X439439D01*
X439465Y370194D01*
Y370247D01*
X439439Y370273D01*
X439334Y370326D02*
X439308Y370352D01*
Y370404D01*
X439334Y370431D01*
X43936D01*
X439386Y370404D01*
Y370378D01*
Y370404D01*
X439413Y370431D01*
X439439D01*
X439465Y370404D01*
Y370352D01*
X439439Y370326D01*
X439334Y370483D02*
X439308Y370509D01*
Y370562D01*
X439334Y370588D01*
X439439D01*
X439465Y370562D01*
Y370509D01*
X439439Y370483D01*
X439334D01*
X439308Y370745D02*
Y37064D01*
X439386D01*
X43936Y370693D01*
Y370719D01*
X439386Y370745D01*
X439439D01*
X439465Y370719D01*
Y370667D01*
X439439Y37064D01*
X434182Y362653D02*
X434156Y362679D01*
X434104D01*
X434077Y362653D01*
Y362548D01*
X434104Y362522D01*
X434156D01*
X434182Y362548D01*
X434235Y362653D02*
X434261Y362679D01*
X434313D01*
X43434Y362653D01*
Y362627D01*
X434313Y362601D01*
X434287D01*
X434313D01*
X43434Y362574D01*
Y362548D01*
X434313Y362522D01*
X434261D01*
X434235Y362548D01*
X434392Y362653D02*
X434418Y362679D01*
X434471D01*
X434497Y362653D01*
Y362548D01*
X434471Y362522D01*
X434418D01*
X434392Y362548D01*
Y362653D01*
X434655Y362679D02*
X434602Y362653D01*
X43455Y362601D01*
Y362548D01*
X434576Y362522D01*
X434628D01*
X434655Y362548D01*
Y362574D01*
X434628Y362601D01*
X43455D01*
X435156Y372277D02*
X43513Y372251D01*
Y372198D01*
X435156Y372172D01*
X435261D01*
X435287Y372198D01*
Y372251D01*
X435261Y372277D01*
X435156Y372329D02*
X43513Y372356D01*
Y372408D01*
X435156Y372434D01*
X435182D01*
X435209Y372408D01*
Y372382D01*
Y372408D01*
X435235Y372434D01*
X435261D01*
X435287Y372408D01*
Y372356D01*
X435261Y372329D01*
X435156Y372487D02*
X43513Y372513D01*
Y372566D01*
X435156Y372592D01*
X435261D01*
X435287Y372566D01*
Y372513D01*
X435261Y372487D01*
X435156D01*
X43513Y372644D02*
Y372749D01*
X435156D01*
X435261Y372644D01*
X435287D01*
X433852Y360723D02*
X433826Y360749D01*
X433774D01*
X433747Y360723D01*
Y360618D01*
X433774Y360592D01*
X433826D01*
X433852Y360618D01*
X433905Y360723D02*
X433931Y360749D01*
X433983D01*
X43401Y360723D01*
Y360697D01*
X433983Y360671D01*
X433957D01*
X433983D01*
X43401Y360644D01*
Y360618D01*
X433983Y360592D01*
X433931D01*
X433905Y360618D01*
X434062Y360723D02*
X434088Y360749D01*
X434141D01*
X434167Y360723D01*
Y360618D01*
X434141Y360592D01*
X434088D01*
X434062Y360618D01*
Y360723D01*
X43422D02*
X434246Y360749D01*
X434298D01*
X434325Y360723D01*
Y360697D01*
X434298Y360671D01*
X434325Y360644D01*
Y360618D01*
X434298Y360592D01*
X434246D01*
X43422Y360618D01*
Y360644D01*
X434246Y360671D01*
X43422Y360697D01*
Y360723D01*
X434246Y360671D02*
X434298D01*
X435616Y372227D02*
X43559Y372201D01*
Y372148D01*
X435616Y372122D01*
X435721D01*
X435747Y372148D01*
Y372201D01*
X435721Y372227D01*
X435616Y372279D02*
X43559Y372306D01*
Y372358D01*
X435616Y372384D01*
X435642D01*
X435669Y372358D01*
Y372332D01*
Y372358D01*
X435695Y372384D01*
X435721D01*
X435747Y372358D01*
Y372306D01*
X435721Y372279D01*
X435616Y372437D02*
X43559Y372463D01*
Y372516D01*
X435616Y372542D01*
X435721D01*
X435747Y372516D01*
Y372463D01*
X435721Y372437D01*
X435616D01*
X435721Y372594D02*
X435747Y372621D01*
Y372673D01*
X435721Y372699D01*
X435616D01*
X43559Y372673D01*
Y372621D01*
X435616Y372594D01*
X435642D01*
X435669Y372621D01*
Y372699D01*
X433882Y360363D02*
X433856Y360389D01*
X433804D01*
X433777Y360363D01*
Y360258D01*
X433804Y360232D01*
X433856D01*
X433882Y360258D01*
X433935Y360363D02*
X433961Y360389D01*
X434013D01*
X43404Y360363D01*
Y360337D01*
X434013Y360311D01*
X433987D01*
X434013D01*
X43404Y360284D01*
Y360258D01*
X434013Y360232D01*
X433961D01*
X433935Y360258D01*
X434092Y360232D02*
X434145D01*
X434118D01*
Y360389D01*
X434092Y360363D01*
X434223D02*
X43425Y360389D01*
X434302D01*
X434328Y360363D01*
Y360258D01*
X434302Y360232D01*
X43425D01*
X434223Y360258D01*
Y360363D01*
X436606Y373627D02*
X43658Y373601D01*
Y373548D01*
X436606Y373522D01*
X436711D01*
X436737Y373548D01*
Y373601D01*
X436711Y373627D01*
X436606Y373679D02*
X43658Y373706D01*
Y373758D01*
X436606Y373784D01*
X436632D01*
X436659Y373758D01*
Y373732D01*
Y373758D01*
X436685Y373784D01*
X436711D01*
X436737Y373758D01*
Y373706D01*
X436711Y373679D01*
X436737Y373837D02*
Y373889D01*
Y373863D01*
X43658D01*
X436606Y373837D01*
X436737Y373968D02*
Y374021D01*
Y373994D01*
X43658D01*
X436606Y373968D01*
X438462Y373043D02*
X438436Y373069D01*
X438384D01*
X438357Y373043D01*
Y372938D01*
X438384Y372912D01*
X438436D01*
X438462Y372938D01*
X438515Y373043D02*
X438541Y373069D01*
X438593D01*
X43862Y373043D01*
Y373017D01*
X438593Y372991D01*
X438567D01*
X438593D01*
X43862Y372964D01*
Y372938D01*
X438593Y372912D01*
X438541D01*
X438515Y372938D01*
X438672Y372912D02*
X438725D01*
X438698D01*
Y373069D01*
X438672Y373043D01*
X438908Y372912D02*
X438803D01*
X438908Y373017D01*
Y373043D01*
X438882Y373069D01*
X43883D01*
X438803Y373043D01*
X437652Y373033D02*
X437626Y373059D01*
X437574D01*
X437547Y373033D01*
Y372928D01*
X437574Y372902D01*
X437626D01*
X437652Y372928D01*
X437705Y373033D02*
X437731Y373059D01*
X437783D01*
X43781Y373033D01*
Y373007D01*
X437783Y372981D01*
X437757D01*
X437783D01*
X43781Y372954D01*
Y372928D01*
X437783Y372902D01*
X437731D01*
X437705Y372928D01*
X437862Y372902D02*
X437915D01*
X437888D01*
Y373059D01*
X437862Y373033D01*
X437993D02*
X43802Y373059D01*
X438072D01*
X438098Y373033D01*
Y373007D01*
X438072Y372981D01*
X438046D01*
X438072D01*
X438098Y372954D01*
Y372928D01*
X438072Y372902D01*
X43802D01*
X437993Y372928D01*
X437942Y368013D02*
X437916Y368039D01*
X437864D01*
X437837Y368013D01*
Y367908D01*
X437864Y367882D01*
X437916D01*
X437942Y367908D01*
X437995Y368013D02*
X438021Y368039D01*
X438073D01*
X4381Y368013D01*
Y367987D01*
X438073Y367961D01*
X438047D01*
X438073D01*
X4381Y367934D01*
Y367908D01*
X438073Y367882D01*
X438021D01*
X437995Y367908D01*
X438152Y367882D02*
X438205D01*
X438178D01*
Y368039D01*
X438152Y368013D01*
X438362Y367882D02*
Y368039D01*
X438283Y367961D01*
X438388D01*
X438606Y367567D02*
X43858Y367541D01*
Y367488D01*
X438606Y367462D01*
X438711D01*
X438737Y367488D01*
Y367541D01*
X438711Y367567D01*
X438606Y367619D02*
X43858Y367646D01*
Y367698D01*
X438606Y367724D01*
X438632D01*
X438659Y367698D01*
Y367672D01*
Y367698D01*
X438685Y367724D01*
X438711D01*
X438737Y367698D01*
Y367646D01*
X438711Y367619D01*
X438737Y367777D02*
Y367829D01*
Y367803D01*
X43858D01*
X438606Y367777D01*
X43858Y368013D02*
Y367908D01*
X438659D01*
X438632Y36796D01*
Y367987D01*
X438659Y368013D01*
X438711D01*
X438737Y367987D01*
Y367934D01*
X438711Y367908D01*
X439016Y367557D02*
X43899Y367531D01*
Y367478D01*
X439016Y367452D01*
X439121D01*
X439147Y367478D01*
Y367531D01*
X439121Y367557D01*
X439016Y367609D02*
X43899Y367636D01*
Y367688D01*
X439016Y367714D01*
X439042D01*
X439069Y367688D01*
Y367662D01*
Y367688D01*
X439095Y367714D01*
X439121D01*
X439147Y367688D01*
Y367636D01*
X439121Y367609D01*
X439147Y367767D02*
Y367819D01*
Y367793D01*
X43899D01*
X439016Y367767D01*
X43899Y368003D02*
X439016Y36795D01*
X439069Y367898D01*
X439121D01*
X439147Y367924D01*
Y367977D01*
X439121Y368003D01*
X439095D01*
X439069Y367977D01*
Y367898D01*
X439458Y368023D02*
X439432Y368049D01*
X43938D01*
X439353Y368023D01*
Y367918D01*
X43938Y367892D01*
X439432D01*
X439458Y367918D01*
X439511Y368023D02*
X439537Y368049D01*
X439589D01*
X439616Y368023D01*
Y367997D01*
X439589Y367971D01*
X439563D01*
X439589D01*
X439616Y367944D01*
Y367918D01*
X439589Y367892D01*
X439537D01*
X439511Y367918D01*
X439668Y367892D02*
X439721D01*
X439694D01*
Y368049D01*
X439668Y368023D01*
X439799Y368049D02*
X439904D01*
Y368023D01*
X439799Y367918D01*
Y367892D01*
X415097Y385022D02*
X41494D01*
Y385101D01*
X414966Y385127D01*
X415019D01*
X415045Y385101D01*
Y385022D01*
Y385074D02*
X415097Y385127D01*
Y385179D02*
Y385232D01*
Y385206D01*
X41494D01*
X414966Y385179D01*
Y385311D02*
X41494Y385337D01*
Y385389D01*
X414966Y385416D01*
X415071D01*
X415097Y385389D01*
Y385337D01*
X415071Y385311D01*
X414966D01*
Y385468D02*
X41494Y385494D01*
Y385547D01*
X414966Y385573D01*
X414992D01*
X415019Y385547D01*
Y385521D01*
Y385547D01*
X415045Y385573D01*
X415071D01*
X415097Y385547D01*
Y385494D01*
X415071Y385468D01*
X424097Y371892D02*
X42394D01*
Y371971D01*
X423966Y371997D01*
X424019D01*
X424045Y371971D01*
Y371892D01*
Y371944D02*
X424097Y371997D01*
Y372154D02*
Y372049D01*
X423992Y372154D01*
X423966D01*
X42394Y372128D01*
Y372076D01*
X423966Y372049D01*
Y372207D02*
X42394Y372233D01*
Y372286D01*
X423966Y372312D01*
X424071D01*
X424097Y372286D01*
Y372233D01*
X424071Y372207D01*
X423966D01*
X424097Y372469D02*
Y372364D01*
X423992Y372469D01*
X423966D01*
X42394Y372443D01*
Y37239D01*
X423966Y372364D01*
X425837Y367562D02*
Y367719D01*
X425916D01*
X425942Y367693D01*
Y367641D01*
X425916Y367614D01*
X425837D01*
X42589D02*
X425942Y367562D01*
X4261D02*
X425995D01*
X4261Y367667D01*
Y367693D01*
X426073Y367719D01*
X426021D01*
X425995Y367693D01*
X426152D02*
X426178Y367719D01*
X426231D01*
X426257Y367693D01*
Y367588D01*
X426231Y367562D01*
X426178D01*
X426152Y367588D01*
Y367693D01*
X426415Y367719D02*
X426362Y367693D01*
X42631Y367641D01*
Y367588D01*
X426336Y367562D01*
X426388D01*
X426415Y367588D01*
Y367614D01*
X426388Y367641D01*
X42631D01*
X431977Y368182D02*
X43182D01*
Y368261D01*
X431846Y368287D01*
X431899D01*
X431925Y368261D01*
Y368182D01*
Y368234D02*
X431977Y368287D01*
Y368444D02*
Y368339D01*
X431872Y368444D01*
X431846D01*
X43182Y368418D01*
Y368366D01*
X431846Y368339D01*
Y368497D02*
X43182Y368523D01*
Y368576D01*
X431846Y368602D01*
X431951D01*
X431977Y368576D01*
Y368523D01*
X431951Y368497D01*
X431846D01*
X43182Y368654D02*
Y368759D01*
X431846D01*
X431951Y368654D01*
X431977D01*
X418051Y384992D02*
X417893D01*
Y385071D01*
X417919Y385097D01*
X417972D01*
X417998Y385071D01*
Y384992D01*
Y385044D02*
X418051Y385097D01*
Y385254D02*
Y385149D01*
X417946Y385254D01*
X417919D01*
X417893Y385228D01*
Y385176D01*
X417919Y385149D01*
Y385307D02*
X417893Y385333D01*
Y385386D01*
X417919Y385412D01*
X418024D01*
X418051Y385386D01*
Y385333D01*
X418024Y385307D01*
X417919D01*
Y385464D02*
X417893Y38549D01*
Y385543D01*
X417919Y385569D01*
X417946D01*
X417972Y385543D01*
X417998Y385569D01*
X418024D01*
X418051Y385543D01*
Y38549D01*
X418024Y385464D01*
X417998D01*
X417972Y38549D01*
X417946Y385464D01*
X417919D01*
X417972Y38549D02*
Y385543D01*
X432987Y368432D02*
X43283D01*
Y368511D01*
X432856Y368537D01*
X432909D01*
X432935Y368511D01*
Y368432D01*
Y368484D02*
X432987Y368537D01*
Y368694D02*
Y368589D01*
X432882Y368694D01*
X432856D01*
X43283Y368668D01*
Y368616D01*
X432856Y368589D01*
Y368747D02*
X43283Y368773D01*
Y368826D01*
X432856Y368852D01*
X432961D01*
X432987Y368826D01*
Y368773D01*
X432961Y368747D01*
X432856D01*
X432961Y368904D02*
X432987Y36893D01*
Y368983D01*
X432961Y369009D01*
X432856D01*
X43283Y368983D01*
Y36893D01*
X432856Y368904D01*
X432882D01*
X432909Y36893D01*
Y369009D01*
X433577Y366192D02*
Y366349D01*
X433656D01*
X433682Y366323D01*
Y366271D01*
X433656Y366244D01*
X433577D01*
X43363D02*
X433682Y366192D01*
X43384D02*
X433735D01*
X43384Y366297D01*
Y366323D01*
X433813Y366349D01*
X433761D01*
X433735Y366323D01*
X433892Y366192D02*
X433945D01*
X433918D01*
Y366349D01*
X433892Y366323D01*
X434023D02*
X43405Y366349D01*
X434102D01*
X434128Y366323D01*
Y366218D01*
X434102Y366192D01*
X43405D01*
X434023Y366218D01*
Y366323D01*
X433577Y365622D02*
Y365779D01*
X433656D01*
X433682Y365753D01*
Y365701D01*
X433656Y365674D01*
X433577D01*
X43363D02*
X433682Y365622D01*
X43384D02*
X433735D01*
X43384Y365727D01*
Y365753D01*
X433813Y365779D01*
X433761D01*
X433735Y365753D01*
X433892Y365622D02*
X433945D01*
X433918D01*
Y365779D01*
X433892Y365753D01*
X434023Y365622D02*
X434076D01*
X43405D01*
Y365779D01*
X434023Y365753D01*
X436747Y369142D02*
Y369299D01*
X436826D01*
X436852Y369273D01*
Y369221D01*
X436826Y369194D01*
X436747D01*
X4368D02*
X436852Y369142D01*
X436905Y369273D02*
X436931Y369299D01*
X436983D01*
X43701Y369273D01*
Y369247D01*
X436983Y369221D01*
X436957D01*
X436983D01*
X43701Y369194D01*
Y369168D01*
X436983Y369142D01*
X436931D01*
X436905Y369168D01*
X437062Y369273D02*
X437088Y369299D01*
X437141D01*
X437167Y369273D01*
Y369168D01*
X437141Y369142D01*
X437088D01*
X437062Y369168D01*
Y369273D01*
X43722D02*
X437246Y369299D01*
X437298D01*
X437325Y369273D01*
Y369168D01*
X437298Y369142D01*
X437246D01*
X43722Y369168D01*
Y369273D01*
X434727Y368172D02*
Y368329D01*
X434806D01*
X434832Y368303D01*
Y368251D01*
X434806Y368224D01*
X434727D01*
X43478D02*
X434832Y368172D01*
X434885Y368303D02*
X434911Y368329D01*
X434963D01*
X43499Y368303D01*
Y368277D01*
X434963Y368251D01*
X434937D01*
X434963D01*
X43499Y368224D01*
Y368198D01*
X434963Y368172D01*
X434911D01*
X434885Y368198D01*
X435042Y368303D02*
X435068Y368329D01*
X435121D01*
X435147Y368303D01*
Y368198D01*
X435121Y368172D01*
X435068D01*
X435042Y368198D01*
Y368303D01*
X4352Y368172D02*
X435252D01*
X435226D01*
Y368329D01*
X4352Y368303D01*
X434877Y370552D02*
Y370709D01*
X434956D01*
X434982Y370683D01*
Y370631D01*
X434956Y370604D01*
X434877D01*
X43493D02*
X434982Y370552D01*
X435035Y370683D02*
X435061Y370709D01*
X435113D01*
X43514Y370683D01*
Y370657D01*
X435113Y370631D01*
X435087D01*
X435113D01*
X43514Y370604D01*
Y370578D01*
X435113Y370552D01*
X435061D01*
X435035Y370578D01*
X435192Y370683D02*
X435218Y370709D01*
X435271D01*
X435297Y370683D01*
Y370578D01*
X435271Y370552D01*
X435218D01*
X435192Y370578D01*
Y370683D01*
X435455Y370552D02*
X43535D01*
X435455Y370657D01*
Y370683D01*
X435428Y370709D01*
X435376D01*
X43535Y370683D01*
X434837Y370912D02*
Y371069D01*
X434916D01*
X434942Y371043D01*
Y370991D01*
X434916Y370964D01*
X434837D01*
X43489D02*
X434942Y370912D01*
X434995Y371043D02*
X435021Y371069D01*
X435073D01*
X4351Y371043D01*
Y371017D01*
X435073Y370991D01*
X435047D01*
X435073D01*
X4351Y370964D01*
Y370938D01*
X435073Y370912D01*
X435021D01*
X434995Y370938D01*
X435152Y371043D02*
X435178Y371069D01*
X435231D01*
X435257Y371043D01*
Y370938D01*
X435231Y370912D01*
X435178D01*
X435152Y370938D01*
Y371043D01*
X43531D02*
X435336Y371069D01*
X435388D01*
X435415Y371043D01*
Y371017D01*
X435388Y370991D01*
X435362D01*
X435388D01*
X435415Y370964D01*
Y370938D01*
X435388Y370912D01*
X435336D01*
X43531Y370938D01*
X434837Y371282D02*
Y371439D01*
X434916D01*
X434942Y371413D01*
Y371361D01*
X434916Y371334D01*
X434837D01*
X43489D02*
X434942Y371282D01*
X434995Y371413D02*
X435021Y371439D01*
X435073D01*
X4351Y371413D01*
Y371387D01*
X435073Y371361D01*
X435047D01*
X435073D01*
X4351Y371334D01*
Y371308D01*
X435073Y371282D01*
X435021D01*
X434995Y371308D01*
X435152Y371413D02*
X435178Y371439D01*
X435231D01*
X435257Y371413D01*
Y371308D01*
X435231Y371282D01*
X435178D01*
X435152Y371308D01*
Y371413D01*
X435388Y371282D02*
Y371439D01*
X43531Y371361D01*
X435415D01*
X434837Y371622D02*
Y371779D01*
X434916D01*
X434942Y371753D01*
Y371701D01*
X434916Y371674D01*
X434837D01*
X43489D02*
X434942Y371622D01*
X434995Y371753D02*
X435021Y371779D01*
X435073D01*
X4351Y371753D01*
Y371727D01*
X435073Y371701D01*
X435047D01*
X435073D01*
X4351Y371674D01*
Y371648D01*
X435073Y371622D01*
X435021D01*
X434995Y371648D01*
X435152Y371753D02*
X435178Y371779D01*
X435231D01*
X435257Y371753D01*
Y371648D01*
X435231Y371622D01*
X435178D01*
X435152Y371648D01*
Y371753D01*
X435415Y371779D02*
X43531D01*
Y371701D01*
X435362Y371727D01*
X435388D01*
X435415Y371701D01*
Y371648D01*
X435388Y371622D01*
X435336D01*
X43531Y371648D01*
X434857Y373172D02*
Y373329D01*
X434936D01*
X434962Y373303D01*
Y373251D01*
X434936Y373224D01*
X434857D01*
X43491D02*
X434962Y373172D01*
X435015Y373303D02*
X435041Y373329D01*
X435093D01*
X43512Y373303D01*
Y373277D01*
X435093Y373251D01*
X435067D01*
X435093D01*
X43512Y373224D01*
Y373198D01*
X435093Y373172D01*
X435041D01*
X435015Y373198D01*
X435172Y373303D02*
X435198Y373329D01*
X435251D01*
X435277Y373303D01*
Y373198D01*
X435251Y373172D01*
X435198D01*
X435172Y373198D01*
Y373303D01*
X435435Y373329D02*
X435382Y373303D01*
X43533Y373251D01*
Y373198D01*
X435356Y373172D01*
X435408D01*
X435435Y373198D01*
Y373224D01*
X435408Y373251D01*
X43533D01*
X434837Y373542D02*
Y373699D01*
X434916D01*
X434942Y373673D01*
Y373621D01*
X434916Y373594D01*
X434837D01*
X43489D02*
X434942Y373542D01*
X434995Y373673D02*
X435021Y373699D01*
X435073D01*
X4351Y373673D01*
Y373647D01*
X435073Y373621D01*
X435047D01*
X435073D01*
X4351Y373594D01*
Y373568D01*
X435073Y373542D01*
X435021D01*
X434995Y373568D01*
X435152Y373673D02*
X435178Y373699D01*
X435231D01*
X435257Y373673D01*
Y373568D01*
X435231Y373542D01*
X435178D01*
X435152Y373568D01*
Y373673D01*
X43531Y373699D02*
X435415D01*
Y373673D01*
X43531Y373568D01*
Y373542D01*
X434847Y374062D02*
Y374219D01*
X434926D01*
X434952Y374193D01*
Y374141D01*
X434926Y374114D01*
X434847D01*
X4349D02*
X434952Y374062D01*
X435005Y374193D02*
X435031Y374219D01*
X435083D01*
X43511Y374193D01*
Y374167D01*
X435083Y374141D01*
X435057D01*
X435083D01*
X43511Y374114D01*
Y374088D01*
X435083Y374062D01*
X435031D01*
X435005Y374088D01*
X435162Y374193D02*
X435188Y374219D01*
X435241D01*
X435267Y374193D01*
Y374088D01*
X435241Y374062D01*
X435188D01*
X435162Y374088D01*
Y374193D01*
X43532D02*
X435346Y374219D01*
X435398D01*
X435425Y374193D01*
Y374167D01*
X435398Y374141D01*
X435425Y374114D01*
Y374088D01*
X435398Y374062D01*
X435346D01*
X43532Y374088D01*
Y374114D01*
X435346Y374141D01*
X43532Y374167D01*
Y374193D01*
X435346Y374141D02*
X435398D01*
X437837Y367082D02*
Y367239D01*
X437916D01*
X437942Y367213D01*
Y367161D01*
X437916Y367134D01*
X437837D01*
X43789D02*
X437942Y367082D01*
X437995Y367213D02*
X438021Y367239D01*
X438073D01*
X4381Y367213D01*
Y367187D01*
X438073Y367161D01*
X438047D01*
X438073D01*
X4381Y367134D01*
Y367108D01*
X438073Y367082D01*
X438021D01*
X437995Y367108D01*
X438152Y367213D02*
X438178Y367239D01*
X438231D01*
X438257Y367213D01*
Y367108D01*
X438231Y367082D01*
X438178D01*
X438152Y367108D01*
Y367213D01*
X43831Y367108D02*
X438336Y367082D01*
X438388D01*
X438415Y367108D01*
Y367213D01*
X438388Y367239D01*
X438336D01*
X43831Y367213D01*
Y367187D01*
X438336Y367161D01*
X438415D01*
X439417Y367072D02*
Y367229D01*
X439496D01*
X439522Y367203D01*
Y367151D01*
X439496Y367124D01*
X439417D01*
X43947D02*
X439522Y367072D01*
X439575Y367203D02*
X439601Y367229D01*
X439653D01*
X43968Y367203D01*
Y367177D01*
X439653Y367151D01*
X439627D01*
X439653D01*
X43968Y367124D01*
Y367098D01*
X439653Y367072D01*
X439601D01*
X439575Y367098D01*
X439732Y367072D02*
X439785D01*
X439758D01*
Y367229D01*
X439732Y367203D01*
X439863D02*
X43989Y367229D01*
X439942D01*
X439968Y367203D01*
Y367098D01*
X439942Y367072D01*
X43989D01*
X439863Y367098D01*
Y367203D01*
X437277Y373532D02*
X43712D01*
Y373611D01*
X437146Y373637D01*
X437199D01*
X437225Y373611D01*
Y373532D01*
Y373584D02*
X437277Y373637D01*
X437146Y373689D02*
X43712Y373716D01*
Y373768D01*
X437146Y373794D01*
X437172D01*
X437199Y373768D01*
Y373742D01*
Y373768D01*
X437225Y373794D01*
X437251D01*
X437277Y373768D01*
Y373716D01*
X437251Y373689D01*
X437277Y373847D02*
Y373899D01*
Y373873D01*
X43712D01*
X437146Y373847D01*
X437277Y373978D02*
Y37403D01*
Y374004D01*
X43712D01*
X437146Y373978D01*
X438607Y367072D02*
Y367229D01*
X438686D01*
X438712Y367203D01*
Y367151D01*
X438686Y367124D01*
X438607D01*
X43866D02*
X438712Y367072D01*
X438765Y367203D02*
X438791Y367229D01*
X438843D01*
X43887Y367203D01*
Y367177D01*
X438843Y367151D01*
X438817D01*
X438843D01*
X43887Y367124D01*
Y367098D01*
X438843Y367072D01*
X438791D01*
X438765Y367098D01*
X438922Y367072D02*
X438975D01*
X438948D01*
Y367229D01*
X438922Y367203D01*
X439158Y367072D02*
X439053D01*
X439158Y367177D01*
Y367203D01*
X439132Y367229D01*
X43908D01*
X439053Y367203D01*
X434937Y368812D02*
X43478D01*
Y368891D01*
X434806Y368917D01*
X434859D01*
X434885Y368891D01*
Y368812D01*
Y368864D02*
X434937Y368917D01*
X434806Y368969D02*
X43478Y368996D01*
Y369048D01*
X434806Y369074D01*
X434832D01*
X434859Y369048D01*
Y369022D01*
Y369048D01*
X434885Y369074D01*
X434911D01*
X434937Y369048D01*
Y368996D01*
X434911Y368969D01*
X434937Y369127D02*
Y369179D01*
Y369153D01*
X43478D01*
X434806Y369127D01*
Y369258D02*
X43478Y369284D01*
Y369337D01*
X434806Y369363D01*
X434832D01*
X434859Y369337D01*
Y36931D01*
Y369337D01*
X434885Y369363D01*
X434911D01*
X434937Y369337D01*
Y369284D01*
X434911Y369258D01*
X436587Y367192D02*
X43643D01*
Y367271D01*
X436456Y367297D01*
X436509D01*
X436535Y367271D01*
Y367192D01*
Y367244D02*
X436587Y367297D01*
X436456Y367349D02*
X43643Y367376D01*
Y367428D01*
X436456Y367454D01*
X436482D01*
X436509Y367428D01*
Y367402D01*
Y367428D01*
X436535Y367454D01*
X436561D01*
X436587Y367428D01*
Y367376D01*
X436561Y367349D01*
X436587Y367507D02*
Y367559D01*
Y367533D01*
X43643D01*
X436456Y367507D01*
X436587Y367717D02*
X43643D01*
X436509Y367638D01*
Y367743D01*
X437267Y367222D02*
X43711D01*
Y367301D01*
X437136Y367327D01*
X437189D01*
X437215Y367301D01*
Y367222D01*
Y367274D02*
X437267Y367327D01*
X437136Y367379D02*
X43711Y367406D01*
Y367458D01*
X437136Y367484D01*
X437162D01*
X437189Y367458D01*
Y367432D01*
Y367458D01*
X437215Y367484D01*
X437241D01*
X437267Y367458D01*
Y367406D01*
X437241Y367379D01*
X437267Y367537D02*
Y367589D01*
Y367563D01*
X43711D01*
X437136Y367537D01*
X43711Y367773D02*
Y367668D01*
X437189D01*
X437162Y36772D01*
Y367747D01*
X437189Y367773D01*
X437241D01*
X437267Y367747D01*
Y367694D01*
X437241Y367668D01*
X434967Y367022D02*
X43481D01*
Y367101D01*
X434836Y367127D01*
X434889D01*
X434915Y367101D01*
Y367022D01*
Y367074D02*
X434967Y367127D01*
X434836Y367179D02*
X43481Y367206D01*
Y367258D01*
X434836Y367284D01*
X434862D01*
X434889Y367258D01*
Y367232D01*
Y367258D01*
X434915Y367284D01*
X434941D01*
X434967Y367258D01*
Y367206D01*
X434941Y367179D01*
X434967Y367337D02*
Y367389D01*
Y367363D01*
X43481D01*
X434836Y367337D01*
X43481Y367573D02*
X434836Y36752D01*
X434889Y367468D01*
X434941D01*
X434967Y367494D01*
Y367547D01*
X434941Y367573D01*
X434915D01*
X434889Y367547D01*
Y367468D01*
X441407Y367142D02*
X44125D01*
Y367221D01*
X441276Y367247D01*
X441329D01*
X441355Y367221D01*
Y367142D01*
Y367194D02*
X441407Y367247D01*
X441276Y367299D02*
X44125Y367326D01*
Y367378D01*
X441276Y367404D01*
X441302D01*
X441329Y367378D01*
Y367352D01*
Y367378D01*
X441355Y367404D01*
X441381D01*
X441407Y367378D01*
Y367326D01*
X441381Y367299D01*
X441407Y367457D02*
Y367509D01*
Y367483D01*
X44125D01*
X441276Y367457D01*
X44125Y367588D02*
Y367693D01*
X441276D01*
X441381Y367588D01*
X441407D01*
X440737Y367142D02*
X44058D01*
Y367221D01*
X440606Y367247D01*
X440659D01*
X440685Y367221D01*
Y367142D01*
Y367194D02*
X440737Y367247D01*
X440606Y367299D02*
X44058Y367326D01*
Y367378D01*
X440606Y367404D01*
X440632D01*
X440659Y367378D01*
Y367352D01*
Y367378D01*
X440685Y367404D01*
X440711D01*
X440737Y367378D01*
Y367326D01*
X440711Y367299D01*
X440737Y367457D02*
Y367509D01*
Y367483D01*
X44058D01*
X440606Y367457D01*
Y367588D02*
X44058Y367614D01*
Y367667D01*
X440606Y367693D01*
X440632D01*
X440659Y367667D01*
X440685Y367693D01*
X440711D01*
X440737Y367667D01*
Y367614D01*
X440711Y367588D01*
X440685D01*
X440659Y367614D01*
X440632Y367588D01*
X440606D01*
X440659Y367614D02*
Y367667D01*
X421176Y364137D02*
X42115Y364111D01*
Y364058D01*
X421176Y364032D01*
X421281D01*
X421307Y364058D01*
Y364111D01*
X421281Y364137D01*
X421307Y364189D02*
Y364242D01*
Y364216D01*
X42115D01*
X421176Y364189D01*
Y364321D02*
X42115Y364347D01*
Y364399D01*
X421176Y364426D01*
X421281D01*
X421307Y364399D01*
Y364347D01*
X421281Y364321D01*
X421176D01*
X42115Y364583D02*
X421176Y36453D01*
X421229Y364478D01*
X421281D01*
X421307Y364504D01*
Y364557D01*
X421281Y364583D01*
X421255D01*
X421229Y364557D01*
Y364478D01*
X419086Y364157D02*
X41906Y364131D01*
Y364078D01*
X419086Y364052D01*
X419191D01*
X419217Y364078D01*
Y364131D01*
X419191Y364157D01*
X419217Y364209D02*
Y364262D01*
Y364236D01*
X41906D01*
X419086Y364209D01*
X419217Y364341D02*
Y364393D01*
Y364367D01*
X41906D01*
X419086Y364341D01*
X419217Y364551D02*
X41906D01*
X419139Y364472D01*
Y364577D01*
X420792Y362873D02*
X420766Y362899D01*
X420714D01*
X420687Y362873D01*
Y362768D01*
X420714Y362742D01*
X420766D01*
X420792Y362768D01*
X420845Y362742D02*
X420897D01*
X420871D01*
Y362899D01*
X420845Y362873D01*
X420976Y362742D02*
X421028D01*
X421002D01*
Y362899D01*
X420976Y362873D01*
X421212Y362899D02*
X421107D01*
Y362821D01*
X42116Y362847D01*
X421186D01*
X421212Y362821D01*
Y362768D01*
X421186Y362742D01*
X421133D01*
X421107Y362768D01*
X421877Y363162D02*
Y363319D01*
X421956D01*
X421982Y363293D01*
Y363241D01*
X421956Y363214D01*
X421877D01*
X42193D02*
X421982Y363162D01*
X422035D02*
X422087D01*
X422061D01*
Y363319D01*
X422035Y363293D01*
X422166D02*
X422192Y363319D01*
X422245D01*
X422271Y363293D01*
Y363188D01*
X422245Y363162D01*
X422192D01*
X422166Y363188D01*
Y363293D01*
X422402Y363162D02*
Y363319D01*
X422323Y363241D01*
X422428D01*
X419487Y361952D02*
X419251D01*
Y36207D01*
X419291Y362109D01*
X419369D01*
X419409Y36207D01*
Y361952D01*
Y362031D02*
X419487Y362109D01*
Y362188D02*
Y362267D01*
Y362227D01*
X419251D01*
X419291Y362188D01*
Y362385D02*
X419251Y362424D01*
Y362503D01*
X419291Y362542D01*
X419448D01*
X419487Y362503D01*
Y362424D01*
X419448Y362385D01*
X419291D01*
X419251Y362778D02*
X419291Y3627D01*
X419369Y362621D01*
X419448D01*
X419487Y36266D01*
Y362739D01*
X419448Y362778D01*
X419409D01*
X419369Y362739D01*
Y362621D01*
X421587Y362762D02*
X42143D01*
Y362841D01*
X421456Y362867D01*
X421509D01*
X421535Y362841D01*
Y362762D01*
Y362814D02*
X421587Y362867D01*
Y362919D02*
Y362972D01*
Y362946D01*
X42143D01*
X421456Y362919D01*
Y363051D02*
X42143Y363077D01*
Y363129D01*
X421456Y363156D01*
X421561D01*
X421587Y363129D01*
Y363077D01*
X421561Y363051D01*
X421456D01*
X42143Y363208D02*
Y363313D01*
X421456D01*
X421561Y363208D01*
X421587D01*
X41812Y361966D02*
X417884D01*
Y362084D01*
X417923Y362124D01*
X418002D01*
X418041Y362084D01*
Y361966D01*
Y362045D02*
X41812Y362124D01*
Y362202D02*
Y362281D01*
Y362242D01*
X417884D01*
X417923Y362202D01*
Y362399D02*
X417884Y362439D01*
Y362517D01*
X417923Y362557D01*
X418081D01*
X41812Y362517D01*
Y362439D01*
X418081Y362399D01*
X417923D01*
Y362635D02*
X417884Y362675D01*
Y362753D01*
X417923Y362793D01*
X417963D01*
X418002Y362753D01*
X418041Y362793D01*
X418081D01*
X41812Y362753D01*
Y362675D01*
X418081Y362635D01*
X418041D01*
X418002Y362675D01*
X417963Y362635D01*
X417923D01*
X418002Y362675D02*
Y362753D01*
X418747Y361963D02*
X418511D01*
Y362081D01*
X418551Y362121D01*
X418629D01*
X418669Y362081D01*
Y361963D01*
Y362042D02*
X418747Y362121D01*
Y362199D02*
Y362278D01*
Y362239D01*
X418511D01*
X418551Y362199D01*
Y362396D02*
X418511Y362436D01*
Y362514D01*
X418551Y362554D01*
X418708D01*
X418747Y362514D01*
Y362436D01*
X418708Y362396D01*
X418551D01*
X418708Y362632D02*
X418747Y362672D01*
Y36275D01*
X418708Y36279D01*
X418551D01*
X418511Y36275D01*
Y362672D01*
X418551Y362632D01*
X41859D01*
X418629Y362672D01*
Y36279D01*
X431397Y368142D02*
X43124D01*
Y368221D01*
X431266Y368247D01*
X431319D01*
X431345Y368221D01*
Y368142D01*
Y368194D02*
X431397Y368247D01*
Y368404D02*
Y368299D01*
X431292Y368404D01*
X431266D01*
X43124Y368378D01*
Y368326D01*
X431266Y368299D01*
X431397Y368457D02*
Y368509D01*
Y368483D01*
X43124D01*
X431266Y368457D01*
X431397Y368693D02*
Y368588D01*
X431292Y368693D01*
X431266D01*
X43124Y368667D01*
Y368614D01*
X431266Y368588D01*
X418182Y381223D02*
X418156Y381249D01*
X418104D01*
X418077Y381223D01*
Y381118D01*
X418104Y381092D01*
X418156D01*
X418182Y381118D01*
X418235Y381092D02*
X418287D01*
X418261D01*
Y381249D01*
X418235Y381223D01*
X418366D02*
X418392Y381249D01*
X418445D01*
X418471Y381223D01*
Y381118D01*
X418445Y381092D01*
X418392D01*
X418366Y381118D01*
Y381223D01*
X438742Y384483D02*
X438716Y384509D01*
X438664D01*
X438637Y384483D01*
Y384378D01*
X438664Y384352D01*
X438716D01*
X438742Y384378D01*
X438873Y384352D02*
Y384509D01*
X438795Y384431D01*
X4389D01*
X438952Y384483D02*
X438978Y384509D01*
X439031D01*
X439057Y384483D01*
Y384378D01*
X439031Y384352D01*
X438978D01*
X438952Y384378D01*
Y384483D01*
X43911D02*
X439136Y384509D01*
X439188D01*
X439215Y384483D01*
Y384378D01*
X439188Y384352D01*
X439136D01*
X43911Y384378D01*
Y384483D01*
X426807Y375952D02*
Y376109D01*
X426886D01*
X426912Y376083D01*
Y376031D01*
X426886Y376004D01*
X426807D01*
X42686D02*
X426912Y375952D01*
X42707D02*
X426965D01*
X42707Y376057D01*
Y376083D01*
X427043Y376109D01*
X426991D01*
X426965Y376083D01*
X427122D02*
X427148Y376109D01*
X427201D01*
X427227Y376083D01*
Y375978D01*
X427201Y375952D01*
X427148D01*
X427122Y375978D01*
Y376083D01*
X42728D02*
X427306Y376109D01*
X427358D01*
X427385Y376083D01*
Y375978D01*
X427358Y375952D01*
X427306D01*
X42728Y375978D01*
Y376083D01*
X426842Y375583D02*
X426816Y375609D01*
X426764D01*
X426737Y375583D01*
Y375478D01*
X426764Y375452D01*
X426816D01*
X426842Y375478D01*
X427Y375452D02*
X426895D01*
X427Y375557D01*
Y375583D01*
X426973Y375609D01*
X426921D01*
X426895Y375583D01*
X427052D02*
X427078Y375609D01*
X427131D01*
X427157Y375583D01*
Y375478D01*
X427131Y375452D01*
X427078D01*
X427052Y375478D01*
Y375583D01*
X427315Y375452D02*
X42721D01*
X427315Y375557D01*
Y375583D01*
X427288Y375609D01*
X427236D01*
X42721Y375583D01*
X430117Y375652D02*
X42996D01*
Y375731D01*
X429986Y375757D01*
X430039D01*
X430065Y375731D01*
Y375652D01*
Y375704D02*
X430117Y375757D01*
Y375888D02*
X42996D01*
X430039Y375809D01*
Y375914D01*
X429986Y375967D02*
X42996Y375993D01*
Y376046D01*
X429986Y376072D01*
X430091D01*
X430117Y376046D01*
Y375993D01*
X430091Y375967D01*
X429986D01*
X430117Y376203D02*
X42996D01*
X430039Y376124D01*
Y376229D01*
X424446Y372447D02*
X42442Y372421D01*
Y372368D01*
X424446Y372342D01*
X424551D01*
X424577Y372368D01*
Y372421D01*
X424551Y372447D01*
X424577Y372604D02*
Y372499D01*
X424472Y372604D01*
X424446D01*
X42442Y372578D01*
Y372526D01*
X424446Y372499D01*
Y372657D02*
X42442Y372683D01*
Y372736D01*
X424446Y372762D01*
X424551D01*
X424577Y372736D01*
Y372683D01*
X424551Y372657D01*
X424446D01*
Y372814D02*
X42442Y37284D01*
Y372893D01*
X424446Y372919D01*
X424551D01*
X424577Y372893D01*
Y37284D01*
X424551Y372814D01*
X424446D01*
M02*
