M48
;Layer_Color=9474304
;FILE_FORMAT=2:4
INCH,LZ
;TYPE=PLATED
T1F00S00C0.0236
T2F00S00C0.0280
T3F00S00C0.0354
T4F00S00C0.1181
%
T01
X032677Y027165
X034449
X036024
X037992
X040354
X042323
X043701Y028543
X043898Y030748
X030709Y027165
X028937
X027165Y029134
Y031299
Y033661
Y036024
Y037992
Y039764
Y041535
X029528Y043701
X030906
X030709Y032835
X031693
X032677
X031693Y035827
X03147Y04057
X032087Y041732
Y042717
Y043701
X034449Y040354
X036417
X037795
X039567Y041732
Y042717
Y043701
X041142
X042717
X04122Y036614
X040315Y035315
X040715Y033943
X043701Y035236
X043884Y031943
X043898Y031339
T02
X032972Y03435
X034055Y036713
X035433
X036811
X035787Y035394
X035039Y032776
X038681Y034252
X042717Y035335
X04252Y037894
X041929Y039665
X042618Y040354
T03
X043386Y036583
Y037583
Y038583
Y039827
Y040827
Y041827
Y042827
T04
X043406Y027461
X027461
Y043406
M30
