G04 Layer_Color=255*
%FSTAX24Y24*%
%MOIN*%
G70*
G01*
G75*
%ADD10R,0.0787X0.0512*%
%ADD11R,0.0217X0.0177*%
%ADD12R,0.0217X0.0201*%
%ADD13R,0.0201X0.0217*%
%ADD14R,0.0374X0.0295*%
%ADD15R,0.0177X0.0217*%
%ADD16R,0.0394X0.0984*%
%ADD17R,0.1063X0.0394*%
%ADD18R,0.0591X0.0591*%
%ADD19R,0.0374X0.0276*%
%ADD20R,0.0512X0.0295*%
%ADD26C,0.0591*%
%ADD27C,0.1575*%
D10*
X036417Y029744D02*
D03*
X033425D02*
D03*
X036417Y031516D02*
D03*
X033425Y031516D02*
D03*
D11*
X032598Y031102D02*
D03*
Y031496D02*
D03*
D12*
X035138Y032126D02*
D03*
X034783D02*
D03*
X030846Y041063D02*
D03*
X030492D02*
D03*
D13*
X030748Y034587D02*
D03*
Y034941D02*
D03*
D14*
X030079Y034498D02*
D03*
Y03503D02*
D03*
D15*
X041732Y038622D02*
D03*
X042126D02*
D03*
X040709Y036614D02*
D03*
X040315D02*
D03*
X041732D02*
D03*
X042126D02*
D03*
X040315Y035827D02*
D03*
X040709D02*
D03*
X030472Y038976D02*
D03*
X030866D02*
D03*
X030472Y040551D02*
D03*
X030866D02*
D03*
X040394Y031496D02*
D03*
X04D02*
D03*
D16*
X037756Y034488D02*
D03*
X036969D02*
D03*
X036181D02*
D03*
X035394D02*
D03*
X034606D02*
D03*
X033819D02*
D03*
D17*
X032677Y035039D02*
D03*
Y035827D02*
D03*
Y036614D02*
D03*
Y037402D02*
D03*
Y038189D02*
D03*
Y038976D02*
D03*
Y039764D02*
D03*
Y040551D02*
D03*
X038898Y035039D02*
D03*
Y035827D02*
D03*
Y036614D02*
D03*
Y037402D02*
D03*
Y038189D02*
D03*
Y038976D02*
D03*
Y039764D02*
D03*
Y040551D02*
D03*
D18*
X028307Y040984D02*
D03*
Y037913D02*
D03*
X043386Y036583D02*
D03*
Y039827D02*
D03*
D19*
X040522Y030177D02*
D03*
Y030925D02*
D03*
X039557Y030551D02*
D03*
D20*
X041299Y030906D02*
D03*
Y030118D02*
D03*
D26*
X043386Y038583D02*
D03*
Y037583D02*
D03*
Y040827D02*
D03*
Y041827D02*
D03*
Y042827D02*
D03*
D27*
X043406Y027461D02*
D03*
X027461D02*
D03*
Y043406D02*
D03*
M02*
