G04 Layer_Color=2752767*
%FSTAX24Y24*%
%MOIN*%
G70*
G01*
G75*
%ADD51C,0.0020*%
%ADD54C,0.0027*%
D51*
X043306Y038503D02*
Y038663D01*
X043466D01*
Y038503D01*
X043306D01*
Y037503D02*
Y037663D01*
X043466D01*
Y037503D01*
X043306D01*
Y036503D02*
Y036663D01*
X043466D01*
Y036503D01*
X043306D01*
Y039747D02*
Y039907D01*
X043466D01*
Y039747D01*
X043306D01*
Y040747D02*
Y040907D01*
X043466D01*
Y040747D01*
X043306D01*
Y041747D02*
Y041907D01*
X043466D01*
Y041747D01*
X043306D01*
Y042747D02*
Y042907D01*
X043466D01*
Y042747D01*
X043306D01*
X043701Y035156D02*
X043621Y035316D01*
X043781D01*
X043701Y035156D01*
X042717Y043621D02*
X042637Y043781D01*
X042797D01*
X042717Y043621D01*
X041142D02*
X041062Y043781D01*
X041222D01*
X041142Y043621D01*
X039567Y041652D02*
X039487Y041812D01*
X039647D01*
X039567Y041652D01*
Y042637D02*
X039487Y042797D01*
X039647D01*
X039567Y042637D01*
Y043621D02*
X039487Y043781D01*
X039647D01*
X039567Y043621D01*
X037795Y040274D02*
X037715Y040434D01*
X037875D01*
X037795Y040274D01*
X036417D02*
X036337Y040434D01*
X036497D01*
X036417Y040274D01*
X034449D02*
X034369Y040434D01*
X034529D01*
X034449Y040274D01*
X032677Y032755D02*
X032597Y032915D01*
X032757D01*
X032677Y032755D01*
X031693D02*
X031613Y032915D01*
X031773D01*
X031693Y032755D01*
X030709D02*
X030629Y032915D01*
X030789D01*
X030709Y032755D01*
X043701Y028463D02*
X043621Y028623D01*
X043781D01*
X043701Y028463D01*
X042323Y027085D02*
X042243Y027245D01*
X042403D01*
X042323Y027085D01*
X040354D02*
X040274Y027245D01*
X040434D01*
X040354Y027085D01*
X037992D02*
X037912Y027245D01*
X038072D01*
X037992Y027085D01*
X036024D02*
X035944Y027245D01*
X036104D01*
X036024Y027085D01*
X034449D02*
X034369Y027245D01*
X034529D01*
X034449Y027085D01*
X032677D02*
X032597Y027245D01*
X032757D01*
X032677Y027085D01*
X030709D02*
X030629Y027245D01*
X030789D01*
X030709Y027085D01*
X028937D02*
X028857Y027245D01*
X029017D01*
X028937Y027085D01*
X027165Y029054D02*
X027085Y029214D01*
X027245D01*
X027165Y029054D01*
Y031219D02*
X027085Y031379D01*
X027245D01*
X027165Y031219D01*
Y033581D02*
X027085Y033741D01*
X027245D01*
X027165Y033581D01*
Y035944D02*
X027085Y036104D01*
X027245D01*
X027165Y035944D01*
Y037912D02*
X027085Y038072D01*
X027245D01*
X027165Y037912D01*
Y039684D02*
X027085Y039844D01*
X027245D01*
X027165Y039684D01*
Y041455D02*
X027085Y041615D01*
X027245D01*
X027165Y041455D01*
X029528Y043621D02*
X029448Y043781D01*
X029608D01*
X029528Y043621D01*
X030906D02*
X030826Y043781D01*
X030986D01*
X030906Y043621D01*
X032087Y041652D02*
X032007Y041812D01*
X032167D01*
X032087Y041652D01*
Y042637D02*
X032007Y042797D01*
X032167D01*
X032087Y042637D01*
Y043621D02*
X032007Y043781D01*
X032167D01*
X032087Y043621D01*
X03147Y04049D02*
X03139Y04065D01*
X03155D01*
X03147Y04049D01*
X040715Y033863D02*
X040635Y034023D01*
X040795D01*
X040715Y033863D01*
X043898Y031259D02*
X043818Y031419D01*
X043978D01*
X043898Y031259D01*
X043884Y031863D02*
X043804Y032023D01*
X043964D01*
X043884Y031863D01*
X043898Y030668D02*
X043818Y030828D01*
X043978D01*
X043898Y030668D01*
X04122Y036534D02*
X04114Y036694D01*
X0413D01*
X04122Y036534D01*
X035039Y032696D02*
X035079Y032736D01*
X035119D01*
X035079Y032776D01*
X035119Y032816D01*
X035079D01*
X035039Y032856D01*
X034999Y032816D01*
X034959D01*
X034999Y032776D01*
X034959Y032736D01*
X034999D01*
X035039Y032696D01*
X038681Y034172D02*
X038721Y034212D01*
X038761D01*
X038721Y034252D01*
X038761Y034292D01*
X038721D01*
X038681Y034332D01*
X038641Y034292D01*
X038601D01*
X038641Y034252D01*
X038601Y034212D01*
X038641D01*
X038681Y034172D01*
X042717Y035255D02*
X042757Y035295D01*
X042797D01*
X042757Y035335D01*
X042797Y035375D01*
X042757D01*
X042717Y035415D01*
X042677Y035375D01*
X042637D01*
X042677Y035335D01*
X042637Y035295D01*
X042677D01*
X042717Y035255D01*
X041929Y039585D02*
X041969Y039625D01*
X042009D01*
X041969Y039665D01*
X042009Y039705D01*
X041969D01*
X041929Y039745D01*
X041889Y039705D01*
X041849D01*
X041889Y039665D01*
X041849Y039625D01*
X041889D01*
X041929Y039585D01*
X042618Y040274D02*
X042658Y040314D01*
X042698D01*
X042658Y040354D01*
X042698Y040394D01*
X042658D01*
X042618Y040434D01*
X042578Y040394D01*
X042538D01*
X042578Y040354D01*
X042538Y040314D01*
X042578D01*
X042618Y040274D01*
X04252Y037814D02*
X04256Y037854D01*
X0426D01*
X04256Y037894D01*
X0426Y037934D01*
X04256D01*
X04252Y037974D01*
X04248Y037934D01*
X04244D01*
X04248Y037894D01*
X04244Y037854D01*
X04248D01*
X04252Y037814D01*
X034055Y036633D02*
X034095Y036673D01*
X034135D01*
X034095Y036713D01*
X034135Y036753D01*
X034095D01*
X034055Y036793D01*
X034015Y036753D01*
X033975D01*
X034015Y036713D01*
X033975Y036673D01*
X034015D01*
X034055Y036633D01*
X035433D02*
X035473Y036673D01*
X035513D01*
X035473Y036713D01*
X035513Y036753D01*
X035473D01*
X035433Y036793D01*
X035393Y036753D01*
X035353D01*
X035393Y036713D01*
X035353Y036673D01*
X035393D01*
X035433Y036633D01*
X036811D02*
X036851Y036673D01*
X036891D01*
X036851Y036713D01*
X036891Y036753D01*
X036851D01*
X036811Y036793D01*
X036771Y036753D01*
X036731D01*
X036771Y036713D01*
X036731Y036673D01*
X036771D01*
X036811Y036633D01*
X035787Y035314D02*
X035827Y035354D01*
X035867D01*
X035827Y035394D01*
X035867Y035434D01*
X035827D01*
X035787Y035474D01*
X035747Y035434D01*
X035707D01*
X035747Y035394D01*
X035707Y035354D01*
X035747D01*
X035787Y035314D01*
X032972Y03427D02*
X033012Y03431D01*
X033052D01*
X033012Y03435D01*
X033052Y03439D01*
X033012D01*
X032972Y03443D01*
X032932Y03439D01*
X032892D01*
X032932Y03435D01*
X032892Y03431D01*
X032932D01*
X032972Y03427D01*
X040315Y035235D02*
X040235Y035395D01*
X040395D01*
X040315Y035235D01*
X031693Y035747D02*
X031613Y035907D01*
X031773D01*
X031693Y035747D01*
D54*
X043486Y027461D02*
G03*
X043486Y027461I-00008J0D01*
G01*
X027541D02*
G03*
X027541Y027461I-00008J0D01*
G01*
Y043406D02*
G03*
X027541Y043406I-00008J0D01*
G01*
M02*
