G04 Layer_Color=32768*
%FSTAX24Y24*%
%MOIN*%
G70*
G01*
G75*
%ADD33C,0.0020*%
%ADD35C,0.0080*%
%ADD50C,0.0039*%
D33*
X032776Y030945D02*
Y031654D01*
X032421Y030945D02*
Y031654D01*
X032776D01*
X032421Y030945D02*
X032776Y030945D01*
X034587Y031959D02*
Y032293D01*
X035335Y031959D02*
Y032293D01*
X034587D02*
X035335D01*
X034587Y031959D02*
X035335D01*
X030581Y035138D02*
X030915D01*
X030581Y03439D02*
X030915D01*
Y035138D01*
X030581Y03439D02*
Y035138D01*
X030374Y034232D02*
Y035295D01*
X029783Y034232D02*
Y035295D01*
X030374D01*
X029783Y034232D02*
X030374D01*
X042283Y038445D02*
X042283Y038799D01*
X041575Y038445D02*
Y038799D01*
Y038445D02*
X042283D01*
X041575Y038799D02*
X042283D01*
X040157Y036437D02*
X040157Y036791D01*
X040866Y036437D02*
Y036791D01*
X040157D02*
X040866D01*
X040157Y036437D02*
X040866D01*
X042283Y036437D02*
X042283Y036791D01*
X041575Y036437D02*
Y036791D01*
Y036437D02*
X042283D01*
X041575Y036791D02*
X042283D01*
X040866Y03565D02*
X040866Y036004D01*
X040157Y03565D02*
Y036004D01*
Y03565D02*
X040866D01*
X040157Y036004D02*
X040866D01*
X031024Y038799D02*
X031024Y039154D01*
X030315Y038799D02*
Y039154D01*
Y038799D02*
X031024D01*
X030315Y039154D02*
X031024D01*
X031024Y040374D02*
X031024Y040728D01*
X030315Y040374D02*
Y040728D01*
Y040374D02*
X031024D01*
X030315Y040728D02*
X031024D01*
X030295Y04123D02*
X031043D01*
X030295Y040896D02*
X031043D01*
X030295D02*
Y04123D01*
X031043Y040896D02*
Y04123D01*
X040955Y029173D02*
X043691Y029173D01*
X040955Y034213D02*
X043691D01*
X040955Y029173D02*
Y034213D01*
X043691Y029173D02*
Y034213D01*
X039272Y03126D02*
X040807D01*
X039272Y029843D02*
X040807D01*
X039272D02*
Y03126D01*
X040807Y029843D02*
Y03126D01*
X039843Y031673D02*
X040551D01*
X039843Y031319D02*
X040551D01*
X039843D02*
Y031673D01*
X040551Y031319D02*
X040551Y031673D01*
X040945Y029862D02*
Y031161D01*
X041654Y029862D02*
Y031161D01*
X040945Y029862D02*
X041654D01*
X040945Y031161D02*
X041654D01*
D35*
X027618Y037874D02*
X028996D01*
Y041024D01*
X027618D02*
X028996D01*
X027618Y037874D02*
Y041024D01*
X028307Y039134D02*
Y039764D01*
X028031Y039449D02*
X028583D01*
D50*
X032598Y031201D02*
Y031398D01*
X0325Y031299D02*
X032697D01*
X034961Y032018D02*
Y032234D01*
X034852Y032126D02*
X035069D01*
X03064Y034764D02*
X030856D01*
X030748Y034656D02*
Y034872D01*
X030079Y034587D02*
Y034941D01*
X029902Y034764D02*
X030256D01*
X041929Y038524D02*
Y03872D01*
X041831Y038622D02*
X042028D01*
X040512Y036516D02*
Y036713D01*
X040413Y036614D02*
X04061D01*
X041929Y036516D02*
Y036713D01*
X041831Y036614D02*
X042028D01*
X040512Y035728D02*
Y035925D01*
X040413Y035827D02*
X04061D01*
X030669Y038878D02*
Y039075D01*
X030571Y038976D02*
X030768D01*
X030669Y040453D02*
Y04065D01*
X030571Y040551D02*
X030768D01*
X030561Y041063D02*
X030778D01*
X030669Y040955D02*
Y041171D01*
X042323Y031499D02*
Y031893D01*
X042123Y031693D02*
X042517D01*
X040039Y030354D02*
Y030748D01*
X039843Y030551D02*
X040236D01*
X040098Y031496D02*
X040295D01*
X040197Y031398D02*
Y031594D01*
X041299Y030315D02*
Y030709D01*
X041102Y030512D02*
X041496D01*
M02*
