G04 Layer_Physical_Order=2*
G04 Layer_Color=16711680*
%FSTAX24Y24*%
%MOIN*%
G70*
G01*
G75*
%ADD18R,0.0591X0.0591*%
%ADD21C,0.0150*%
%ADD23C,0.0250*%
%ADD24C,0.0200*%
%ADD26C,0.0591*%
%ADD27C,0.1575*%
%ADD28C,0.0472*%
%ADD29C,0.0500*%
%ADD30R,0.0945X0.0291*%
G36*
X044149Y032298D02*
X044099Y032264D01*
X044085Y032267D01*
X043981D01*
X043972Y03227D01*
X043884Y032282D01*
X043796Y03227D01*
X043787Y032267D01*
X04369D01*
X043665Y032297D01*
Y032589D01*
X043657Y032628D01*
X043635Y032661D01*
X043632Y032663D01*
Y032723D01*
X043635Y032725D01*
X043657Y032758D01*
X043665Y032797D01*
Y033089D01*
X043657Y033128D01*
X043635Y033161D01*
X043632Y033163D01*
Y033223D01*
X043635Y033225D01*
X043657Y033258D01*
X043665Y033297D01*
Y033589D01*
X043657Y033628D01*
X043635Y033661D01*
X043632Y033663D01*
Y033723D01*
X043635Y033725D01*
X043657Y033758D01*
X043665Y033797D01*
Y034089D01*
X043657Y034128D01*
X043635Y034161D01*
X043602Y034183D01*
X043563Y034191D01*
X042618D01*
X042579Y034183D01*
X042551Y034164D01*
X042527Y03417D01*
X042501Y034184D01*
Y034882D01*
X042488Y03495D01*
X042449Y035008D01*
X042449Y035008D01*
X042016Y035441D01*
X041958Y03548D01*
X04189Y035493D01*
X040602D01*
X040555Y035555D01*
X040485Y035609D01*
X040403Y035643D01*
X040315Y035654D01*
X040227Y035643D01*
X040145Y035609D01*
X040075Y035555D01*
X040021Y035485D01*
X039987Y035403D01*
X039976Y035315D01*
X039987Y035227D01*
X040021Y035145D01*
X040075Y035075D01*
X040145Y035021D01*
X040227Y034987D01*
X040315Y034976D01*
X040403Y034987D01*
X040485Y035021D01*
X040555Y035075D01*
X040602Y035137D01*
X041816D01*
X042144Y034808D01*
Y034184D01*
X042118Y03417D01*
X042094Y034164D01*
X042067Y034183D01*
X042028Y034191D01*
X041083D01*
X041057Y034185D01*
X041056Y034185D01*
X041056Y034185D01*
X041044Y034183D01*
X041011Y034161D01*
X04096Y034176D01*
X040958Y034178D01*
X040954Y034183D01*
X040884Y034237D01*
X040802Y03427D01*
X040715Y034282D01*
X040627Y03427D01*
X040545Y034237D01*
X040475Y034183D01*
X040421Y034112D01*
X040387Y034031D01*
X040375Y033943D01*
X040387Y033855D01*
X040421Y033773D01*
X040475Y033703D01*
X040483Y033697D01*
X040466Y033647D01*
X036108D01*
X031674Y038081D01*
Y040303D01*
X03171Y04033D01*
X031764Y0404D01*
X031798Y040482D01*
X031809Y04057D01*
X031798Y040658D01*
X031764Y04074D01*
X03171Y04081D01*
X03164Y040864D01*
X031558Y040898D01*
X03147Y040909D01*
X031382Y040898D01*
X0313Y040864D01*
X03123Y04081D01*
X031176Y04074D01*
X031142Y040658D01*
X031131Y04057D01*
X031142Y040482D01*
X031176Y0404D01*
X03123Y04033D01*
X031266Y040303D01*
Y037997D01*
X031282Y037919D01*
X031326Y037852D01*
X035879Y033299D01*
X035946Y033255D01*
X036024Y033239D01*
X041001D01*
X041011Y033225D01*
X041014Y033223D01*
Y033163D01*
X041011Y033161D01*
X040988Y033128D01*
X040981Y033089D01*
Y032797D01*
X040988Y032758D01*
X041011Y032725D01*
X041001Y032678D01*
X04097Y032647D01*
X036342D01*
X033018Y035971D01*
X032952Y036015D01*
X032874Y036031D01*
X03196D01*
X031933Y036067D01*
X031862Y03612D01*
X031781Y036154D01*
X031693Y036166D01*
X031605Y036154D01*
X031523Y03612D01*
X031453Y036067D01*
X031399Y035996D01*
X031365Y035915D01*
X031354Y035827D01*
X031365Y035739D01*
X031399Y035657D01*
X031453Y035587D01*
X031523Y035533D01*
X031605Y035499D01*
X031693Y035488D01*
X031781Y035499D01*
X031862Y035533D01*
X031933Y035587D01*
X03196Y035623D01*
X03279D01*
X036114Y032299D01*
X03618Y032255D01*
X036258Y032239D01*
X041001D01*
X041011Y032225D01*
X041014Y032223D01*
Y032163D01*
X041011Y032161D01*
X040988Y032128D01*
X040981Y032089D01*
Y031797D01*
X040988Y031758D01*
X041011Y031725D01*
X041014Y031723D01*
Y031663D01*
X041011Y031661D01*
X040988Y031628D01*
X040981Y031589D01*
Y031297D01*
X040988Y031258D01*
X041011Y031225D01*
X041014Y031223D01*
Y031163D01*
X041011Y031161D01*
X040988Y031128D01*
X040981Y031089D01*
Y030797D01*
X040988Y030758D01*
X041011Y030725D01*
X041014Y030723D01*
Y030663D01*
X041011Y030661D01*
X040988Y030628D01*
X040981Y030589D01*
Y030297D01*
X040988Y030258D01*
X041011Y030225D01*
X041014Y030223D01*
Y030163D01*
X041011Y030161D01*
X040988Y030128D01*
X040981Y030089D01*
Y029797D01*
X040988Y029758D01*
X041011Y029725D01*
X041014Y029723D01*
Y029663D01*
X041011Y029661D01*
X040988Y029628D01*
X040981Y029589D01*
Y029297D01*
X040988Y029258D01*
X041011Y029225D01*
X041044Y029203D01*
X041083Y029195D01*
X042028D01*
X042067Y029203D01*
X0421Y029225D01*
X042122Y029258D01*
X04213Y029297D01*
Y029589D01*
X042122Y029628D01*
X0421Y029661D01*
X042096Y029663D01*
Y029723D01*
X0421Y029725D01*
X042122Y029758D01*
X04213Y029797D01*
Y030089D01*
X042122Y030128D01*
X0421Y030161D01*
X042096Y030163D01*
Y030223D01*
X0421Y030225D01*
X042122Y030258D01*
X04213Y030297D01*
Y030589D01*
X042122Y030628D01*
X0421Y030661D01*
X042096Y030663D01*
Y030723D01*
X0421Y030725D01*
X042122Y030758D01*
X04213Y030797D01*
Y031089D01*
X042122Y031128D01*
X0421Y031161D01*
X042096Y031163D01*
Y031223D01*
X0421Y031225D01*
X042122Y031258D01*
X04213Y031297D01*
Y031589D01*
X042122Y031628D01*
X0421Y031661D01*
X042096Y031663D01*
Y031723D01*
X0421Y031725D01*
X042122Y031758D01*
X04213Y031797D01*
Y032089D01*
X042122Y032128D01*
X0421Y032161D01*
X042096Y032163D01*
Y032223D01*
X0421Y032225D01*
X042122Y032258D01*
X04213Y032297D01*
Y032589D01*
X042122Y032628D01*
X0421Y032661D01*
X042096Y032663D01*
Y032723D01*
X0421Y032725D01*
X042122Y032758D01*
X042123Y032766D01*
X042184Y032778D01*
X042242Y032817D01*
X042449Y033023D01*
X042466Y033049D01*
X042516Y033034D01*
Y032797D01*
X042524Y032758D01*
X042546Y032725D01*
X042549Y032723D01*
Y032663D01*
X042546Y032661D01*
X042524Y032628D01*
X042516Y032589D01*
Y032297D01*
X042524Y032258D01*
X042545Y032226D01*
X042531Y032204D01*
X042523Y032165D01*
Y032122D01*
X042516Y032089D01*
Y031797D01*
X042523Y031764D01*
Y031622D01*
X042516Y031589D01*
Y031297D01*
X042523Y031264D01*
Y031122D01*
X042516Y031089D01*
Y030797D01*
X042524Y030758D01*
X042546Y030725D01*
X042579Y030703D01*
X042583Y030702D01*
X042586Y030701D01*
X042625Y030693D01*
X043443D01*
X043523Y030612D01*
X043532Y030606D01*
X043539Y030599D01*
X043548Y030595D01*
X043557Y03059D01*
X043558Y03059D01*
X043562Y030587D01*
X043564Y030584D01*
X043564Y030582D01*
X04357Y030574D01*
X043574Y030564D01*
X043581Y030557D01*
X043586Y030549D01*
X043703Y030433D01*
X043736Y030411D01*
X043775Y030403D01*
X044045D01*
X044084Y030411D01*
X044099Y03042D01*
X044149Y030397D01*
Y028033D01*
X044099Y028015D01*
X044036Y028091D01*
X043901Y028202D01*
X043747Y028284D01*
X043579Y028335D01*
X043406Y028352D01*
X043232Y028335D01*
X043064Y028284D01*
X04291Y028202D01*
X042775Y028091D01*
X042664Y027956D01*
X042582Y027802D01*
X042531Y027635D01*
X042514Y027461D01*
X042531Y027287D01*
X042582Y027119D01*
X042664Y026965D01*
X042775Y02683D01*
X042851Y026768D01*
X042833Y026718D01*
X028033D01*
X028015Y026768D01*
X028091Y02683D01*
X028202Y026965D01*
X028284Y027119D01*
X028335Y027287D01*
X028352Y027461D01*
X028335Y027635D01*
X028284Y027802D01*
X028202Y027956D01*
X028091Y028091D01*
X027956Y028202D01*
X027802Y028284D01*
X027635Y028335D01*
X027461Y028352D01*
X027287Y028335D01*
X027119Y028284D01*
X026965Y028202D01*
X02683Y028091D01*
X026768Y028015D01*
X026718Y028033D01*
Y042833D01*
X026768Y042851D01*
X02683Y042775D01*
X026965Y042664D01*
X027119Y042582D01*
X027287Y042531D01*
X027461Y042514D01*
X027635Y042531D01*
X027802Y042582D01*
X027956Y042664D01*
X028091Y042775D01*
X028202Y04291D01*
X028284Y043064D01*
X028335Y043232D01*
X028352Y043406D01*
X028335Y043579D01*
X028284Y043747D01*
X028202Y043901D01*
X028091Y044036D01*
X028015Y044099D01*
X028033Y044149D01*
X032456D01*
Y040925D01*
X032467Y040871D01*
X032497Y040824D01*
X032544Y040793D01*
X032598Y040782D01*
X038976D01*
X039031Y040793D01*
X039077Y040824D01*
X039108Y040871D01*
X039119Y040925D01*
Y044149D01*
X044149D01*
Y032298D01*
D02*
G37*
G36*
X040901Y034091D02*
X040919Y034076D01*
X040938Y034062D01*
X040957Y03405D01*
X040977Y034041D01*
X040997Y034032D01*
X041017Y034026D01*
X041018Y034026D01*
X04103Y034029D01*
X041046Y034035D01*
X04106Y034043D01*
X04107Y034052D01*
X041078Y034062D01*
X041082Y034074D01*
X041084Y034087D01*
Y033799D01*
X041082Y033812D01*
X041078Y033824D01*
X04107Y033834D01*
X04106Y033843D01*
X041046Y033851D01*
X04103Y033857D01*
X041018Y03386D01*
X041017Y03386D01*
X040997Y033853D01*
X040977Y033845D01*
X040957Y033835D01*
X040938Y033824D01*
X040919Y03381D01*
X040901Y033795D01*
X040883Y033778D01*
Y034108D01*
X040901Y034091D01*
D02*
G37*
G36*
X044149Y032101D02*
Y030609D01*
X044045Y030505D01*
X043775D01*
X043658Y030621D01*
X043657Y030628D01*
X043635Y030661D01*
X043602Y030683D01*
X043596Y030684D01*
X043485Y030795D01*
X042625D01*
Y032165D01*
X044085D01*
X044149Y032101D01*
D02*
G37*
%LPC*%
G36*
X043681Y040224D02*
X043091D01*
X043052Y040216D01*
X043018Y040194D01*
X042996Y040161D01*
X042989Y040122D01*
Y039754D01*
X041058Y037824D01*
X041009Y037749D01*
X040991Y037661D01*
Y036862D01*
X040981Y036854D01*
X040927Y036784D01*
X040893Y036702D01*
X040881Y036614D01*
X040893Y036526D01*
X040927Y036445D01*
X040981Y036374D01*
X041051Y03632D01*
X041133Y036287D01*
X04122Y036275D01*
X041308Y036287D01*
X04139Y03632D01*
X04146Y036374D01*
X041514Y036445D01*
X041548Y036526D01*
X04156Y036614D01*
X041548Y036702D01*
X041514Y036784D01*
X04146Y036854D01*
X04145Y036862D01*
Y037566D01*
X043313Y03943D01*
X043681D01*
X04372Y039437D01*
X043753Y039459D01*
X043775Y039492D01*
X043783Y039532D01*
Y040122D01*
X043775Y040161D01*
X043753Y040194D01*
X04372Y040216D01*
X043681Y040224D01*
D02*
G37*
G36*
Y03698D02*
X043091D01*
X043052Y036972D01*
X043018Y03695D01*
X042996Y036917D01*
X042989Y036878D01*
Y036287D01*
X042996Y036248D01*
X043018Y036215D01*
X043052Y036193D01*
X043091Y036185D01*
X043681D01*
X04372Y036193D01*
X043753Y036215D01*
X043775Y036248D01*
X043783Y036287D01*
Y036878D01*
X043775Y036917D01*
X043753Y03695D01*
X04372Y036972D01*
X043681Y03698D01*
D02*
G37*
G36*
X043386Y042225D02*
X043283Y042212D01*
X043186Y042172D01*
X043104Y042109D01*
X043041Y042026D01*
X043001Y04193D01*
X042987Y041827D01*
X043001Y041724D01*
X043041Y041627D01*
X043104Y041545D01*
X043186Y041481D01*
X043283Y041442D01*
X043386Y041428D01*
X043489Y041442D01*
X043585Y041481D01*
X043668Y041545D01*
X043731Y041627D01*
X043771Y041724D01*
X043785Y041827D01*
X043771Y04193D01*
X043731Y042026D01*
X043668Y042109D01*
X043585Y042172D01*
X043489Y042212D01*
X043386Y042225D01*
D02*
G37*
G36*
Y043225D02*
X043283Y043212D01*
X043186Y043172D01*
X043104Y043109D01*
X043041Y043026D01*
X043001Y04293D01*
X042987Y042827D01*
X043001Y042724D01*
X043041Y042627D01*
X043104Y042545D01*
X043186Y042481D01*
X043283Y042442D01*
X043386Y042428D01*
X043489Y042442D01*
X043585Y042481D01*
X043668Y042545D01*
X043731Y042627D01*
X043771Y042724D01*
X043785Y042827D01*
X043771Y04293D01*
X043731Y043026D01*
X043668Y043109D01*
X043585Y043172D01*
X043489Y043212D01*
X043386Y043225D01*
D02*
G37*
G36*
Y037981D02*
X043283Y037968D01*
X043186Y037928D01*
X043104Y037865D01*
X043041Y037782D01*
X043001Y037686D01*
X042987Y037583D01*
X043001Y037479D01*
X043041Y037383D01*
X043104Y037301D01*
X043186Y037237D01*
X043283Y037198D01*
X043386Y037184D01*
X043489Y037198D01*
X043585Y037237D01*
X043668Y037301D01*
X043731Y037383D01*
X043771Y037479D01*
X043785Y037583D01*
X043771Y037686D01*
X043731Y037782D01*
X043668Y037865D01*
X043585Y037928D01*
X043489Y037968D01*
X043386Y037981D01*
D02*
G37*
G36*
Y038981D02*
X043283Y038968D01*
X043186Y038928D01*
X043104Y038865D01*
X043041Y038782D01*
X043001Y038686D01*
X042987Y038583D01*
X043001Y038479D01*
X043041Y038383D01*
X043104Y038301D01*
X043186Y038237D01*
X043283Y038198D01*
X043386Y038184D01*
X043489Y038198D01*
X043585Y038237D01*
X043668Y038301D01*
X043731Y038383D01*
X043771Y038479D01*
X043785Y038583D01*
X043771Y038686D01*
X043731Y038782D01*
X043668Y038865D01*
X043585Y038928D01*
X043489Y038968D01*
X043386Y038981D01*
D02*
G37*
%LPD*%
D18*
Y036583D02*
D03*
Y039827D02*
D03*
D21*
X040715Y033943D02*
X041555D01*
X043091Y031943D02*
X043884D01*
X043091Y030943D02*
X043703D01*
X043898Y030748D01*
X043091Y031443D02*
X043793D01*
X043898Y031339D01*
X041555Y032943D02*
X042116D01*
X042323Y03315D01*
X040315Y035315D02*
X04189D01*
X042323Y034882D01*
Y03315D02*
Y034882D01*
D23*
X04122Y037661D02*
X043386Y039827D01*
X04122Y036614D02*
Y037661D01*
D24*
X03147Y037997D02*
Y04057D01*
Y037997D02*
X036024Y033443D01*
X041555D01*
X031693Y035827D02*
X032874D01*
X036258Y032443D01*
X041555D01*
D26*
X043386Y038583D02*
D03*
Y037583D02*
D03*
Y040827D02*
D03*
Y041827D02*
D03*
Y042827D02*
D03*
D27*
X043406Y027461D02*
D03*
X027461D02*
D03*
Y043406D02*
D03*
D28*
X043701Y035236D02*
D03*
X042717Y043701D02*
D03*
X041142D02*
D03*
X039567Y041732D02*
D03*
Y042717D02*
D03*
Y043701D02*
D03*
X037795Y040354D02*
D03*
X036417D02*
D03*
X034449D02*
D03*
X032677Y032835D02*
D03*
X031693D02*
D03*
X030709D02*
D03*
X043701Y028543D02*
D03*
X042323Y027165D02*
D03*
X040354D02*
D03*
X037992D02*
D03*
X036024D02*
D03*
X034449D02*
D03*
X032677D02*
D03*
X030709D02*
D03*
X028937D02*
D03*
X027165Y029134D02*
D03*
Y031299D02*
D03*
Y033661D02*
D03*
Y036024D02*
D03*
Y037992D02*
D03*
Y039764D02*
D03*
Y041535D02*
D03*
X029528Y043701D02*
D03*
X030906D02*
D03*
X032087Y041732D02*
D03*
Y042717D02*
D03*
Y043701D02*
D03*
X03147Y04057D02*
D03*
X040715Y033943D02*
D03*
X043898Y031339D02*
D03*
X043884Y031943D02*
D03*
X043898Y030748D02*
D03*
X04122Y036614D02*
D03*
X040315Y035315D02*
D03*
X031693Y035827D02*
D03*
D29*
X035039Y032776D02*
D03*
X038681Y034252D02*
D03*
X042717Y035335D02*
D03*
X041929Y039665D02*
D03*
X042618Y040354D02*
D03*
X04252Y037894D02*
D03*
X034055Y036713D02*
D03*
X035433D02*
D03*
X036811D02*
D03*
X035787Y035394D02*
D03*
X032972Y03435D02*
D03*
D30*
X041555Y029443D02*
D03*
Y029943D02*
D03*
X041555Y030443D02*
D03*
X041555Y030943D02*
D03*
Y031443D02*
D03*
Y031943D02*
D03*
Y032443D02*
D03*
X041555Y032943D02*
D03*
X041555Y033443D02*
D03*
Y033943D02*
D03*
X043091Y029443D02*
D03*
Y029943D02*
D03*
Y030443D02*
D03*
Y030943D02*
D03*
Y031443D02*
D03*
Y031943D02*
D03*
Y032443D02*
D03*
Y032943D02*
D03*
Y033443D02*
D03*
Y033943D02*
D03*
M02*
