G04 Layer_Color=16711935*
%FSTAX24Y24*%
%MOIN*%
G70*
G01*
G75*
%ADD21C,0.0150*%
%ADD32C,0.0060*%
%ADD50C,0.0039*%
D21*
X032638Y034449D02*
X038937D01*
Y043898D01*
X032638Y034449D02*
Y043898D01*
X038937D01*
D32*
X033531Y03181D02*
X035941D01*
X033531Y02945D02*
Y03181D01*
Y02945D02*
X036291D01*
Y03181D01*
X035941D02*
X036291D01*
D50*
X0325Y031102D02*
X032697D01*
X0325Y031496D02*
X032697D01*
X0325Y031102D02*
Y031496D01*
X032697Y031102D02*
Y031496D01*
X034754Y032018D02*
Y032234D01*
X035167Y032018D02*
Y032234D01*
X034754D02*
X035167D01*
X034754Y032018D02*
X035167D01*
X03064Y03497D02*
X030856D01*
X03064Y034557D02*
X030856D01*
Y03497D01*
X03064Y034557D02*
Y03497D01*
X030256Y034429D02*
Y035098D01*
X029902Y034429D02*
Y035098D01*
X030256D01*
X029902Y034429D02*
X030256D01*
X041732Y03872D02*
X042126D01*
X041732Y038524D02*
X042126D01*
X041732D02*
Y03872D01*
X042126Y038524D02*
Y03872D01*
X040315Y036516D02*
X040709D01*
X040315Y036713D02*
X040709D01*
Y036516D02*
Y036713D01*
X040315Y036516D02*
Y036713D01*
X041732D02*
X042126D01*
X041732Y036516D02*
X042126D01*
X041732D02*
Y036713D01*
X042126Y036516D02*
Y036713D01*
X040315Y035925D02*
X040709D01*
X040315Y035728D02*
X040709D01*
X040315D02*
Y035925D01*
X040709Y035728D02*
Y035925D01*
X030472Y039075D02*
X030866D01*
X030472Y038878D02*
X030866D01*
X030472D02*
Y039075D01*
X030866Y038878D02*
Y039075D01*
X030472Y04065D02*
X030866D01*
X030472Y040453D02*
X030866D01*
X030472D02*
Y04065D01*
X030866Y040453D02*
Y04065D01*
X030463Y041171D02*
X030876D01*
X030463Y040955D02*
X030876D01*
X030463D02*
Y041171D01*
X030876Y040955D02*
Y041171D01*
X040394Y031398D02*
Y031594D01*
X04Y031398D02*
Y031594D01*
Y031398D02*
X040394D01*
X04Y031594D02*
X040394D01*
X041053Y030906D02*
X041545D01*
X041053Y030118D02*
X041545D01*
Y030906D01*
X041053Y030118D02*
Y030906D01*
M02*
