G04 Layer_Color=8388736*
%FSTAX24Y24*%
%MOIN*%
G70*
G01*
G75*
%ADD36R,0.0867X0.0592*%
%ADD37R,0.0297X0.0257*%
%ADD38R,0.0297X0.0281*%
%ADD39R,0.0281X0.0297*%
%ADD40R,0.0454X0.0375*%
%ADD41R,0.0257X0.0297*%
%ADD42R,0.0474X0.1064*%
%ADD43R,0.1143X0.0474*%
%ADD44R,0.0671X0.0671*%
%ADD45R,0.0454X0.0356*%
%ADD46R,0.0592X0.0375*%
%ADD47C,0.0671*%
%ADD48C,0.1655*%
D36*
X036417Y029744D02*
D03*
X033425D02*
D03*
X036417Y031516D02*
D03*
X033425Y031516D02*
D03*
D37*
X032598Y031102D02*
D03*
Y031496D02*
D03*
D38*
X035138Y032126D02*
D03*
X034783D02*
D03*
X030846Y041063D02*
D03*
X030492D02*
D03*
D39*
X030748Y034587D02*
D03*
Y034941D02*
D03*
D40*
X030079Y034498D02*
D03*
Y03503D02*
D03*
D41*
X041732Y038622D02*
D03*
X042126D02*
D03*
X040709Y036614D02*
D03*
X040315D02*
D03*
X041732D02*
D03*
X042126D02*
D03*
X040315Y035827D02*
D03*
X040709D02*
D03*
X030472Y038976D02*
D03*
X030866D02*
D03*
X030472Y040551D02*
D03*
X030866D02*
D03*
X040394Y031496D02*
D03*
X04D02*
D03*
D42*
X037756Y034488D02*
D03*
X036969D02*
D03*
X036181D02*
D03*
X035394D02*
D03*
X034606D02*
D03*
X033819D02*
D03*
D43*
X032677Y035039D02*
D03*
Y035827D02*
D03*
Y036614D02*
D03*
Y037402D02*
D03*
Y038189D02*
D03*
Y038976D02*
D03*
Y039764D02*
D03*
Y040551D02*
D03*
X038898Y035039D02*
D03*
Y035827D02*
D03*
Y036614D02*
D03*
Y037402D02*
D03*
Y038189D02*
D03*
Y038976D02*
D03*
Y039764D02*
D03*
Y040551D02*
D03*
D44*
X028307Y040984D02*
D03*
Y037913D02*
D03*
X043386Y036583D02*
D03*
Y039827D02*
D03*
D45*
X040522Y030177D02*
D03*
Y030925D02*
D03*
X039557Y030551D02*
D03*
D46*
X041299Y030906D02*
D03*
Y030118D02*
D03*
D47*
X043386Y038583D02*
D03*
Y037583D02*
D03*
Y040827D02*
D03*
Y041827D02*
D03*
Y042827D02*
D03*
D48*
X043406Y027461D02*
D03*
X027461D02*
D03*
Y043406D02*
D03*
M02*
