G04 Layer_Color=16711935*
%FSTAX24Y24*%
%MOIN*%
G70*
G01*
G75*
%ADD25C,0.0100*%
%ADD32C,0.0060*%
%ADD35C,0.0080*%
%ADD50C,0.0039*%
%ADD51C,0.0020*%
%ADD52C,0.0040*%
D25*
X028074Y03949D02*
X027974Y03939D01*
Y03919D01*
X028074Y03909D01*
X028174D01*
X028274Y03919D01*
Y03939D01*
X028374Y03949D01*
X028474D01*
X028574Y03939D01*
Y03919D01*
X028474Y03909D01*
X028574Y03969D02*
Y03989D01*
Y03979D01*
X027974D01*
X028074Y03969D01*
X035465Y038225D02*
Y037725D01*
X035565Y037625D01*
X035765D01*
X035865Y037725D01*
Y038225D01*
X036065Y037625D02*
X036265D01*
X036165D01*
Y038225D01*
X036065Y038125D01*
D32*
X033911Y03181D02*
X035921D01*
X033891Y02945D02*
X035941D01*
X040117Y030426D02*
X03995D01*
X039908Y030384D01*
Y030301D01*
X03995Y030259D01*
X040117D01*
X040158Y030301D01*
Y030384D01*
X040075Y030342D02*
X040158Y030426D01*
Y030384D02*
X040117Y030426D01*
X040158Y030509D02*
Y030592D01*
Y030551D01*
X039908D01*
X03995Y030509D01*
X041109Y030522D02*
X041309D01*
Y030422D01*
X041276Y030389D01*
X041209D01*
X041176Y030422D01*
Y030522D01*
Y030455D02*
X041109Y030389D01*
X041309Y030322D02*
Y030189D01*
X041276D01*
X041143Y030322D01*
X041109D01*
D35*
X028996Y037874D02*
Y041024D01*
X027618Y037874D02*
X028996D01*
X027618D02*
Y041024D01*
X028996D01*
X035141Y03048D02*
X035191Y03043D01*
X035291D01*
X035341Y03048D01*
Y03053D01*
X035291Y03058D01*
X035191D01*
X035141Y03063D01*
Y03068D01*
X035191Y03073D01*
X035291D01*
X035341Y03068D01*
X035041Y03043D02*
Y03073D01*
X034941Y03063D01*
X034841Y03073D01*
Y03043D01*
X034741Y03073D02*
X034641D01*
X034691D01*
Y03043D01*
X034741Y03048D01*
D50*
X032765Y030955D02*
Y031643D01*
X032432Y030955D02*
Y031643D01*
X032765D01*
X032432Y030955D02*
X032765D01*
X034591Y031959D02*
X035331D01*
X034591Y032293D02*
X035331D01*
Y031959D02*
Y032293D01*
X034591Y031959D02*
Y032293D01*
X030581Y034394D02*
Y035134D01*
X030915Y034394D02*
Y035134D01*
X030581Y034394D02*
X030915D01*
X030581Y035134D02*
X030915D01*
X029795Y034244D02*
X030362D01*
X029795Y035283D02*
X030362D01*
X029795Y034244D02*
Y035283D01*
X030362Y034244D02*
Y035283D01*
X042273Y038456D02*
Y038789D01*
X041585Y038456D02*
Y038789D01*
Y038456D02*
X042273D01*
X041585Y038789D02*
X042273D01*
X040168Y036448D02*
Y036781D01*
X040856Y036448D02*
Y036781D01*
X040168D02*
X040856D01*
X040168Y036448D02*
X040856D01*
X042273Y036448D02*
Y036781D01*
X041585Y036448D02*
Y036781D01*
Y036448D02*
X042273D01*
X041585Y036781D02*
X042273D01*
X040856Y03566D02*
Y035993D01*
X040168Y03566D02*
Y035993D01*
Y03566D02*
X040856D01*
X040168Y035993D02*
X040856D01*
X031014Y03881D02*
Y039143D01*
X030325Y03881D02*
Y039143D01*
Y03881D02*
X031014D01*
X030325Y039143D02*
X031014D01*
Y040385D02*
Y040718D01*
X030325Y040385D02*
Y040718D01*
Y040385D02*
X031014D01*
X030325Y040718D02*
X031014D01*
X031039Y040896D02*
Y04123D01*
X030299Y040896D02*
Y04123D01*
Y040896D02*
X031039D01*
X030299Y04123D02*
X031039D01*
X039744Y031165D02*
X040335D01*
X039744Y029937D02*
X040335D01*
X039744D02*
Y031165D01*
X040335Y029937D02*
Y031165D01*
X039853Y031663D02*
X040541D01*
X039853Y03133D02*
X040541D01*
X039853D02*
Y031663D01*
X040541Y03133D02*
Y031663D01*
X040955Y031154D02*
X041642D01*
X040955Y029873D02*
X041642Y029873D01*
Y031154D01*
X040955Y029873D02*
Y031154D01*
D51*
X032598Y031299D02*
X032498D01*
Y031349D01*
X032515Y031366D01*
X032548D01*
X032565Y031349D01*
Y031299D01*
Y031333D02*
X032598Y031366D01*
Y031399D02*
Y031432D01*
Y031416D01*
X032498D01*
X032515Y031399D01*
Y031482D02*
X032498Y031499D01*
Y031532D01*
X032515Y031549D01*
X032582D01*
X032598Y031532D01*
Y031499D01*
X032582Y031482D01*
X032515D01*
X035027Y032209D02*
X035011Y032226D01*
X034977D01*
X034961Y032209D01*
Y032143D01*
X034977Y032126D01*
X035011D01*
X035027Y032143D01*
X035111Y032126D02*
Y032226D01*
X035061Y032176D01*
X035127D01*
X040197Y031496D02*
Y031396D01*
X040147D01*
X04013Y031413D01*
Y031446D01*
X040147Y031463D01*
X040197D01*
X040164D02*
X04013Y031496D01*
X040097Y031413D02*
X04008Y031396D01*
X040047D01*
X04003Y031413D01*
Y031429D01*
X040047Y031446D01*
X04003Y031463D01*
Y031479D01*
X040047Y031496D01*
X04008D01*
X040097Y031479D01*
Y031463D01*
X04008Y031446D01*
X040097Y031429D01*
Y031413D01*
X04008Y031446D02*
X040047D01*
D52*
X03069Y034715D02*
X030665Y03469D01*
Y03464D01*
X03069Y034615D01*
X03079D01*
X030815Y03464D01*
Y03469D01*
X03079Y034715D01*
X03069Y034765D02*
X030665Y03479D01*
Y03484D01*
X03069Y034865D01*
X030715D01*
X03074Y03484D01*
Y034815D01*
Y03484D01*
X030765Y034865D01*
X03079D01*
X030815Y03484D01*
Y03479D01*
X03079Y034765D01*
X03003Y034775D02*
X030005Y03475D01*
Y0347D01*
X03003Y034675D01*
X03013D01*
X030155Y0347D01*
Y03475D01*
X03013Y034775D01*
X030155Y034925D02*
Y034825D01*
X030055Y034925D01*
X03003D01*
X030005Y0349D01*
Y03485D01*
X03003Y034825D01*
X041795Y038545D02*
Y038695D01*
X04187D01*
X041895Y03867D01*
Y03862D01*
X04187Y038595D01*
X041795D01*
X041845D02*
X041895Y038545D01*
X042045Y038695D02*
X041995Y03867D01*
X041945Y03862D01*
Y03857D01*
X04197Y038545D01*
X04202D01*
X042045Y03857D01*
Y038595D01*
X04202Y03862D01*
X041945D01*
X040435Y036545D02*
Y036695D01*
X04051D01*
X040535Y03667D01*
Y03662D01*
X04051Y036595D01*
X040435D01*
X040485D02*
X040535Y036545D01*
X040585D02*
X040635D01*
X04061D01*
Y036695D01*
X040585Y03667D01*
X041815Y036535D02*
Y036685D01*
X04189D01*
X041915Y03666D01*
Y03661D01*
X04189Y036585D01*
X041815D01*
X041865D02*
X041915Y036535D01*
X042065Y036685D02*
X041965D01*
Y03661D01*
X042015Y036635D01*
X04204D01*
X042065Y03661D01*
Y03656D01*
X04204Y036535D01*
X04199D01*
X041965Y03656D01*
X040395Y035755D02*
Y035905D01*
X04047D01*
X040495Y03588D01*
Y03583D01*
X04047Y035805D01*
X040395D01*
X040445D02*
X040495Y035755D01*
X04062D02*
Y035905D01*
X040545Y03583D01*
X040645D01*
X030555Y038885D02*
Y039035D01*
X03063D01*
X030655Y03901D01*
Y03896D01*
X03063Y038935D01*
X030555D01*
X030605D02*
X030655Y038885D01*
X030805D02*
X030705D01*
X030805Y038985D01*
Y03901D01*
X03078Y039035D01*
X03073D01*
X030705Y03901D01*
X030545Y040475D02*
Y040625D01*
X03062D01*
X030645Y0406D01*
Y04055D01*
X03062Y040525D01*
X030545D01*
X030595D02*
X030645Y040475D01*
X030695Y0406D02*
X03072Y040625D01*
X03077D01*
X030795Y0406D01*
Y040575D01*
X03077Y04055D01*
X030745D01*
X03077D01*
X030795Y040525D01*
Y0405D01*
X03077Y040475D01*
X03072D01*
X030695Y0405D01*
X030675Y0411D02*
X03065Y041125D01*
X0306D01*
X030575Y0411D01*
Y041D01*
X0306Y040975D01*
X03065D01*
X030675Y041D01*
X030725Y040975D02*
X030775D01*
X03075D01*
Y041125D01*
X030725Y0411D01*
M02*
