G04 Layer_Color=128*
%FSTAX24Y24*%
%MOIN*%
G70*
G01*
G75*
%ADD51C,0.0020*%
D51*
X043209Y038583D02*
X043563D01*
X043386Y038406D02*
Y03876D01*
X043209Y037583D02*
X043563D01*
X043386Y037406D02*
Y03776D01*
X043209Y036583D02*
X043563D01*
X043386Y036406D02*
Y03676D01*
X043209Y039827D02*
X043563D01*
X043386Y03965D02*
Y040004D01*
X043209Y040827D02*
X043563D01*
X043386Y04065D02*
Y041004D01*
X043209Y041827D02*
X043563D01*
X043386Y04165D02*
Y042004D01*
X043209Y042827D02*
X043563D01*
X043386Y04265D02*
Y043004D01*
X042815Y027461D02*
X043996D01*
X043406Y02687D02*
Y028051D01*
X02687Y027461D02*
X028051D01*
X027461Y02687D02*
Y028051D01*
X02687Y043406D02*
X028051D01*
X027461Y042815D02*
Y043996D01*
X043583Y035236D02*
X043819D01*
X043701Y035118D02*
Y035354D01*
X042598Y043701D02*
X042835D01*
X042717Y043583D02*
Y043819D01*
X041024Y043701D02*
X04126D01*
X041142Y043583D02*
Y043819D01*
X039449Y041732D02*
X039685D01*
X039567Y041614D02*
Y04185D01*
X039449Y042717D02*
X039685D01*
X039567Y042598D02*
Y042835D01*
X039449Y043701D02*
X039685D01*
X039567Y043583D02*
Y043819D01*
X037677Y040354D02*
X037913D01*
X037795Y040236D02*
Y040472D01*
X036299Y040354D02*
X036535D01*
X036417Y040236D02*
Y040472D01*
X034331Y040354D02*
X034567D01*
X034449Y040236D02*
Y040472D01*
X032559Y032835D02*
X032795D01*
X032677Y032717D02*
Y032953D01*
X031575Y032835D02*
X031811D01*
X031693Y032717D02*
Y032953D01*
X030591Y032835D02*
X030827D01*
X030709Y032717D02*
Y032953D01*
X043583Y028543D02*
X043819D01*
X043701Y028425D02*
Y028661D01*
X042205Y027165D02*
X042441D01*
X042323Y027047D02*
Y027283D01*
X040236Y027165D02*
X040472D01*
X040354Y027047D02*
Y027283D01*
X037874Y027165D02*
X03811D01*
X037992Y027047D02*
Y027283D01*
X035906Y027165D02*
X036142D01*
X036024Y027047D02*
Y027283D01*
X034331Y027165D02*
X034567D01*
X034449Y027047D02*
Y027283D01*
X032559Y027165D02*
X032795D01*
X032677Y027047D02*
Y027283D01*
X030591Y027165D02*
X030827D01*
X030709Y027047D02*
Y027283D01*
X028819Y027165D02*
X029055D01*
X028937Y027047D02*
Y027283D01*
X027047Y029134D02*
X027283D01*
X027165Y029016D02*
Y029252D01*
X027047Y031299D02*
X027283D01*
X027165Y031181D02*
Y031417D01*
X027047Y033661D02*
X027283D01*
X027165Y033543D02*
Y03378D01*
X027047Y036024D02*
X027283D01*
X027165Y035906D02*
Y036142D01*
X027047Y037992D02*
X027283D01*
X027165Y037874D02*
Y03811D01*
X027047Y039764D02*
X027283D01*
X027165Y039646D02*
Y039882D01*
X027047Y041535D02*
X027283D01*
X027165Y041417D02*
Y041654D01*
X029409Y043701D02*
X029646D01*
X029528Y043583D02*
Y043819D01*
X030787Y043701D02*
X031024D01*
X030906Y043583D02*
Y043819D01*
X031969Y041732D02*
X032205D01*
X032087Y041614D02*
Y04185D01*
X031969Y042717D02*
X032205D01*
X032087Y042598D02*
Y042835D01*
X031969Y043701D02*
X032205D01*
X032087Y043583D02*
Y043819D01*
X031352Y04057D02*
X031588D01*
X03147Y040452D02*
Y040688D01*
X040596Y033943D02*
X040833D01*
X040715Y033825D02*
Y034061D01*
X043779Y031339D02*
X044016D01*
X043898Y03122D02*
Y031457D01*
X043766Y031943D02*
X044002D01*
X043884Y031825D02*
Y032061D01*
X04378Y030748D02*
X044016D01*
X043898Y03063D02*
Y030866D01*
X041102Y036614D02*
X041339D01*
X04122Y036496D02*
Y036732D01*
X034899Y032776D02*
X035179D01*
X035039Y032636D02*
Y032916D01*
X038541Y034252D02*
X038821D01*
X038681Y034112D02*
Y034392D01*
X042577Y035335D02*
X042857D01*
X042717Y035195D02*
Y035475D01*
X041789Y039665D02*
X042069D01*
X041929Y039525D02*
Y039805D01*
X042478Y040354D02*
X042758D01*
X042618Y040214D02*
Y040494D01*
X04238Y037894D02*
X04266D01*
X04252Y037754D02*
Y038034D01*
X033915Y036713D02*
X034195D01*
X034055Y036573D02*
Y036853D01*
X035293Y036713D02*
X035573D01*
X035433Y036573D02*
Y036853D01*
X036671Y036713D02*
X036951D01*
X036811Y036573D02*
Y036853D01*
X035647Y035394D02*
X035927D01*
X035787Y035254D02*
Y035534D01*
X032832Y03435D02*
X033112D01*
X032972Y03421D02*
Y03449D01*
X040197Y035315D02*
X040433D01*
X040315Y035197D02*
Y035433D01*
X031575Y035827D02*
X031811D01*
X031693Y035709D02*
Y035945D01*
M02*
